<svg xmlns="http://www.w3.org/2000/svg" width="1933.476" height="1787.169">
    <defs>
        <style>
            .cls-1{fill:rgba(210,222,150,.21)}
        </style>
    </defs>
    <g id="Group_331" data-name="Group 331" transform="translate(13.476 -852)">
        <g id="Group_220" data-name="Group 220" transform="translate(1651.29 270.786)">
            <path id="Path_728" data-name="Path 728" class="cls-1" d="M181.851 251.705c22.463 44.764 34.68 88.328 40.31 112.295l-75.379-120.537 61.443 123.66a412.313 412.313 0 0 1-48.425-55.351C115.257 250.6 89.177 148.988 89.177 148.988s58.954 35.485 92.674 102.717z" transform="translate(46.549 432.226)"/>
            <path id="Path_729" data-name="Path 729" class="cls-1" d="M179.734 202.94c34.757 15.258 62.959 34.779 77.837 46.04L155.284 215.1l95.656 42.451a312.629 312.629 0 0 1-55.02-8.885C140.338 234.5 75.976 187.809 75.976 187.809s51.567-7.799 103.758 15.131z" transform="translate(0 564.608)"/>
            <path id="Path_730" data-name="Path 730" class="cls-1" d="M152.4 216.24a275.576 275.576 0 0 1 56.957-12.3l-74.897 35.913 81.666-29.746c-6.69 5.259-18.263 13.3-37.653 24.07-34.96 19.395-88.007 31.579-88.007 31.579s24.273-36.829 61.934-49.516z" transform="translate(51.091 625.989)"/>
        </g>
        <g id="Group_224" data-name="Group 224" transform="translate(1651.29 1227.52)">
            <path id="Path_728-2" data-name="Path 728" class="cls-1" d="M181.851 251.705c22.463 44.764 34.68 88.328 40.31 112.295l-75.379-120.537 61.443 123.66a412.313 412.313 0 0 1-48.425-55.351C115.257 250.6 89.177 148.988 89.177 148.988s58.954 35.485 92.674 102.717z" transform="translate(46.549 432.226)"/>
            <path id="Path_729-2" data-name="Path 729" class="cls-1" d="M179.734 202.94c34.757 15.258 62.959 34.779 77.837 46.04L155.284 215.1l95.656 42.451a312.629 312.629 0 0 1-55.02-8.885C140.338 234.5 75.976 187.809 75.976 187.809s51.567-7.799 103.758 15.131z" transform="translate(0 564.608)"/>
            <path id="Path_730-2" data-name="Path 730" class="cls-1" d="M152.4 216.24a275.576 275.576 0 0 1 56.957-12.3l-74.897 35.913 81.666-29.746c-6.69 5.259-18.263 13.3-37.653 24.07-34.96 19.395-88.007 31.579-88.007 31.579s24.273-36.829 61.934-49.516z" transform="translate(51.091 625.989)"/>
        </g>
        <g id="Group_225" data-name="Group 225" transform="translate(-493.591 797.689)">
            <path id="Path_721" data-name="Path 721" class="cls-1" d="M201.642 220.559c-20.893 45.52-31.584 89.487-36.377 113.63L236.4 211.108l-57.1 125.719a412.292 412.292 0 0 0 46.466-57.007c42.392-62.688 64.919-165.138 64.919-165.138S233 152.2 201.642 220.559z" transform="translate(314.849 311.256)"/>
            <path id="Path_722" data-name="Path 722" class="cls-1" d="M244.043 171.256c-34.2 16.462-61.706 36.947-76.185 48.724l101.047-37.431-94.122 45.76a312.7 312.7 0 0 0 54.676-10.8c55.057-16.086 117.753-64.987 117.753-64.987s-51.806-5.997-103.169 18.734z" transform="translate(323.993 442.433)"/>
            <path id="Path_724" data-name="Path 724" class="cls-1" d="M229.805 180.872a275.168 275.168 0 0 0-57.347-10.315l76.1 33.281-82.658-26.881c6.871 5.024 18.72 12.664 38.473 22.744 35.617 18.173 89.053 28.5 89.053 28.5s-25.542-35.959-63.621-47.329z" transform="translate(317.089 508.282)"/>
        </g>
        <g id="Group_228" data-name="Group 228" transform="translate(-493.591 1902.689)">
            <path id="Path_721-2" data-name="Path 721" class="cls-1" d="M201.642 220.559c-20.893 45.52-31.584 89.487-36.377 113.63L236.4 211.108l-57.1 125.719a412.292 412.292 0 0 0 46.466-57.007c42.392-62.688 64.919-165.138 64.919-165.138S233 152.2 201.642 220.559z" transform="translate(314.849 311.256)"/>
            <path id="Path_722-2" data-name="Path 722" class="cls-1" d="M244.043 171.256c-34.2 16.462-61.706 36.947-76.185 48.724l101.047-37.431-94.122 45.76a312.7 312.7 0 0 0 54.676-10.8c55.057-16.086 117.753-64.987 117.753-64.987s-51.806-5.997-103.169 18.734z" transform="translate(323.993 442.433)"/>
            <path id="Path_724-2" data-name="Path 724" class="cls-1" d="M229.805 180.872a275.168 275.168 0 0 0-57.347-10.315l76.1 33.281-82.658-26.881c6.871 5.024 18.72 12.664 38.473 22.744 35.617 18.173 89.053 28.5 89.053 28.5s-25.542-35.959-63.621-47.329z" transform="translate(317.089 508.282)"/>
        </g>
    </g>
</svg>
