<svg xmlns="http://www.w3.org/2000/svg" width="2176.229" height="1172.898">
    <defs>
        <style>
            .cls-1{opacity:.33}.cls-2{fill:#fff}
        </style>
    </defs>
    <g id="Group_332" data-name="Group 332" transform="translate(112 -2823.5)">
        <g id="Group_235" data-name="Group 235" class="cls-1" transform="translate(1393.024 2926.088)">
            <path id="Path_713" data-name="Path 713" class="cls-2" d="M183.262 370.317c-18.286 4.689-46 5-61.669 0 8.545-20.97 4.214-78.077 4.214-104.116s2.5-86.776-4.214-104.111c15.738-2.48 46.434-2.222 61.669 0-5.454 14.891-4.218 78.077-4.218 104.111s-4.291 90.465 4.218 104.116z" transform="translate(160.854 472.202)"/>
            <path id="Path_714" data-name="Path 714" class="cls-2" d="M183.262 320.793c-18.286 4.694-46 5.006-61.669 0 8.545-20.965 4.214-78.077 4.214-104.111s2.5-86.776-4.214-104.116c15.738-2.48 46.434-2.218 61.669 0-5.454 14.891-4.218 78.077-4.218 104.116s-4.291 90.469 4.218 104.111z" transform="translate(160.854 297.576)"/>
            <path id="Path_715" data-name="Path 715" class="cls-2" d="M183.262 271.174c-18.286 4.689-46 5-61.669 0 8.545-20.974 4.214-78.081 4.214-104.116s2.5-86.776-4.214-104.116c15.738-2.48 46.434-2.218 61.669 0-5.454 14.9-4.218 78.077-4.218 104.116s-4.291 90.465 4.218 104.116z" transform="translate(160.854 122.596)"/>
            <path id="Path_716" data-name="Path 716" class="cls-2" d="M183.262 419.841c-18.286 4.694-46 5-61.669 0 8.545-20.97 4.214-78.081 4.214-104.116s2.5-86.776-4.214-104.116c15.738-2.476 46.434-2.213 61.669 0-5.454 14.9-4.218 78.077-4.218 104.116s-4.291 90.465 4.218 104.116z" transform="translate(160.854 646.833)"/>
            <g id="Group_230" data-name="Group 230" transform="translate(418.228 529.343)">
                <path id="Path_717" data-name="Path 717" class="cls-2" d="M200.9 370.558c-14.516 3.558-36.526 3.82-48.973.068 6.762-15.823 3.263-58.868 3.232-78.5s1.887-65.426-3.463-78.484c12.5-1.892 36.875-1.734 48.973-.077-4.313 11.239-3.268 58.867-3.232 78.5s-3.314 68.204 3.463 78.493z" transform="translate(-151.215 126.043)"/>
                <path id="Path_718" data-name="Path 718" class="cls-2" d="M200.849 333.219c-14.515 3.553-36.531 3.825-48.978.077 6.767-15.824 3.263-58.872 3.232-78.5s1.9-65.426-3.458-78.5c12.5-1.883 36.879-1.725 48.982-.068-4.323 11.234-3.272 58.872-3.236 78.5s-3.322 68.217 3.458 78.491z" transform="translate(-151.405 -5.608)"/>
                <path id="Path_719" data-name="Path 719" class="cls-2" d="M200.787 295.809c-14.515 3.558-36.526 3.825-48.973.072 6.771-15.819 3.259-58.872 3.241-78.5s1.874-65.426-3.463-78.493c12.492-1.887 36.87-1.724 48.964-.068-4.3 11.234-3.254 58.863-3.227 78.5s-3.313 68.21 3.458 78.489z" transform="translate(-151.592 -137.528)"/>
            </g>
            <path id="Path_720" data-name="Path 720" class="cls-2" d="M174.829 110.192c-20.508 37.1-32.29 73.528-37.852 93.592l67.857-99.4L148.7 206.88a349.371 349.371 0 0 0 42.859-45.2c39.772-50.241 65.2-135.265 65.2-135.265s-51.138 28.064-81.93 83.777z" transform="translate(215.101)"/>
            <path id="Path_721" data-name="Path 721" class="cls-2" d="M201.642 220.559c-20.893 45.52-31.584 89.487-36.377 113.63L236.4 211.108l-57.1 125.719a412.292 412.292 0 0 0 46.466-57.007c42.392-62.688 64.919-165.138 64.919-165.138S233 152.2 201.642 220.559z" transform="translate(314.849 311.256)"/>
            <path id="Path_722" data-name="Path 722" class="cls-2" d="M244.043 171.256c-34.2 16.462-61.706 36.947-76.185 48.724l101.047-37.431-94.122 45.76a312.7 312.7 0 0 0 54.676-10.8c55.057-16.086 117.753-64.987 117.753-64.987s-51.806-5.997-103.169 18.734z" transform="translate(323.993 442.433)"/>
            <path id="Path_723" data-name="Path 723" class="cls-2" d="M196.956 65.944a275.912 275.912 0 0 0-55.65 17.286l82.879-5.549-85.744 14.257c8.414 1.294 22.45 2.6 44.628 2.44 39.984-.294 92.158-15.769 92.158-15.769s-39.242-20.133-78.271-12.665z" transform="translate(220.263 133.54)"/>
            <path id="Path_724" data-name="Path 724" class="cls-2" d="M229.805 180.872a275.168 275.168 0 0 0-57.347-10.315l76.1 33.281-82.658-26.881c6.871 5.024 18.72 12.664 38.473 22.744 35.617 18.173 89.053 28.5 89.053 28.5s-25.542-35.959-63.621-47.329z" transform="translate(317.089 508.282)"/>
            <path id="Path_725" data-name="Path 725" class="cls-2" d="M181.851 153.188c22.463 44.768 34.68 88.333 40.31 112.3L146.782 144.95l61.443 123.655a412.512 412.512 0 0 1-48.425-55.346c-44.543-61.18-70.623-162.784-70.623-162.784s58.954 35.485 92.674 102.713z" transform="translate(46.549 84.851)"/>
            <path id="Path_726" data-name="Path 726" class="cls-2" d="M179.734 104.43c34.757 15.258 62.959 34.775 77.837 46.04l-102.287-33.887 95.656 42.451a312.64 312.64 0 0 1-55.02-8.885C140.338 135.987 75.976 89.295 75.976 89.295s51.567-7.795 103.758 15.135z" transform="translate(0 217.229)"/>
            <path id="Path_727" data-name="Path 727" class="cls-2" d="M152.4 117.731a275.337 275.337 0 0 1 56.957-12.307l-74.897 35.915 81.666-29.746c-6.69 5.259-18.263 13.307-37.653 24.07-34.96 19.4-88.007 31.579-88.007 31.579s24.273-36.829 61.934-49.511z" transform="translate(51.091 278.611)"/>
            <path id="Path_728" data-name="Path 728" class="cls-2" d="M181.851 251.705c22.463 44.764 34.68 88.328 40.31 112.295l-75.379-120.537 61.443 123.66a412.313 412.313 0 0 1-48.425-55.351C115.257 250.6 89.177 148.988 89.177 148.988s58.954 35.485 92.674 102.717z" transform="translate(46.549 432.226)"/>
            <path id="Path_729" data-name="Path 729" class="cls-2" d="M179.734 202.94c34.757 15.258 62.959 34.779 77.837 46.04L155.284 215.1l95.656 42.451a312.629 312.629 0 0 1-55.02-8.885C140.338 234.5 75.976 187.809 75.976 187.809s51.567-7.799 103.758 15.131z" transform="translate(0 564.608)"/>
            <path id="Path_730" data-name="Path 730" class="cls-2" d="M152.4 216.24a275.576 275.576 0 0 1 56.957-12.3l-74.897 35.913 81.666-29.746c-6.69 5.259-18.263 13.3-37.653 24.07-34.96 19.395-88.007 31.579-88.007 31.579s24.273-36.829 61.934-49.516z" transform="translate(51.091 625.989)"/>
        </g>
        <g id="Group_238" data-name="Group 238" class="cls-1" transform="translate(-187.976 2797.088)">
            <path id="Path_713-2" data-name="Path 713" class="cls-2" d="M183.262 370.317c-18.286 4.689-46 5-61.669 0 8.545-20.97 4.214-78.077 4.214-104.116s2.5-86.776-4.214-104.111c15.738-2.48 46.434-2.222 61.669 0-5.454 14.891-4.218 78.077-4.218 104.111s-4.291 90.465 4.218 104.116z" transform="translate(160.854 472.202)"/>
            <path id="Path_714-2" data-name="Path 714" class="cls-2" d="M183.262 320.793c-18.286 4.694-46 5.006-61.669 0 8.545-20.965 4.214-78.077 4.214-104.111s2.5-86.776-4.214-104.116c15.738-2.48 46.434-2.218 61.669 0-5.454 14.891-4.218 78.077-4.218 104.116s-4.291 90.469 4.218 104.111z" transform="translate(160.854 297.576)"/>
            <path id="Path_715-2" data-name="Path 715" class="cls-2" d="M183.262 271.174c-18.286 4.689-46 5-61.669 0 8.545-20.974 4.214-78.081 4.214-104.116s2.5-86.776-4.214-104.116c15.738-2.48 46.434-2.218 61.669 0-5.454 14.9-4.218 78.077-4.218 104.116s-4.291 90.465 4.218 104.116z" transform="translate(160.854 122.596)"/>
            <path id="Path_716-2" data-name="Path 716" class="cls-2" d="M183.262 419.841c-18.286 4.694-46 5-61.669 0 8.545-20.97 4.214-78.081 4.214-104.116s2.5-86.776-4.214-104.116c15.738-2.476 46.434-2.213 61.669 0-5.454 14.9-4.218 78.077-4.218 104.116s-4.291 90.465 4.218 104.116z" transform="translate(160.854 646.833)"/>
            <g id="Group_230-2" data-name="Group 230" transform="translate(418.228 529.343)">
                <path id="Path_717-2" data-name="Path 717" class="cls-2" d="M200.9 370.558c-14.516 3.558-36.526 3.82-48.973.068 6.762-15.823 3.263-58.868 3.232-78.5s1.887-65.426-3.463-78.484c12.5-1.892 36.875-1.734 48.973-.077-4.313 11.239-3.268 58.867-3.232 78.5s-3.314 68.204 3.463 78.493z" transform="translate(-151.215 126.043)"/>
                <path id="Path_718-2" data-name="Path 718" class="cls-2" d="M200.849 333.219c-14.515 3.553-36.531 3.825-48.978.077 6.767-15.824 3.263-58.872 3.232-78.5s1.9-65.426-3.458-78.5c12.5-1.883 36.879-1.725 48.982-.068-4.323 11.234-3.272 58.872-3.236 78.5s-3.322 68.217 3.458 78.491z" transform="translate(-151.405 -5.608)"/>
                <path id="Path_719-2" data-name="Path 719" class="cls-2" d="M200.787 295.809c-14.515 3.558-36.526 3.825-48.973.072 6.771-15.819 3.259-58.872 3.241-78.5s1.874-65.426-3.463-78.493c12.492-1.887 36.87-1.724 48.964-.068-4.3 11.234-3.254 58.863-3.227 78.5s-3.313 68.21 3.458 78.489z" transform="translate(-151.592 -137.528)"/>
            </g>
            <path id="Path_720-2" data-name="Path 720" class="cls-2" d="M174.829 110.192c-20.508 37.1-32.29 73.528-37.852 93.592l67.857-99.4L148.7 206.88a349.371 349.371 0 0 0 42.859-45.2c39.772-50.241 65.2-135.265 65.2-135.265s-51.138 28.064-81.93 83.777z" transform="translate(215.101)"/>
            <path id="Path_721-2" data-name="Path 721" class="cls-2" d="M201.642 220.559c-20.893 45.52-31.584 89.487-36.377 113.63L236.4 211.108l-57.1 125.719a412.292 412.292 0 0 0 46.466-57.007c42.392-62.688 64.919-165.138 64.919-165.138S233 152.2 201.642 220.559z" transform="translate(314.849 311.256)"/>
            <path id="Path_722-2" data-name="Path 722" class="cls-2" d="M244.043 171.256c-34.2 16.462-61.706 36.947-76.185 48.724l101.047-37.431-94.122 45.76a312.7 312.7 0 0 0 54.676-10.8c55.057-16.086 117.753-64.987 117.753-64.987s-51.806-5.997-103.169 18.734z" transform="translate(323.993 442.433)"/>
            <path id="Path_723-2" data-name="Path 723" class="cls-2" d="M196.956 65.944a275.912 275.912 0 0 0-55.65 17.286l82.879-5.549-85.744 14.257c8.414 1.294 22.45 2.6 44.628 2.44 39.984-.294 92.158-15.769 92.158-15.769s-39.242-20.133-78.271-12.665z" transform="translate(220.263 133.54)"/>
            <path id="Path_724-2" data-name="Path 724" class="cls-2" d="M229.805 180.872a275.168 275.168 0 0 0-57.347-10.315l76.1 33.281-82.658-26.881c6.871 5.024 18.72 12.664 38.473 22.744 35.617 18.173 89.053 28.5 89.053 28.5s-25.542-35.959-63.621-47.329z" transform="translate(317.089 508.282)"/>
            <path id="Path_725-2" data-name="Path 725" class="cls-2" d="M181.851 153.188c22.463 44.768 34.68 88.333 40.31 112.3L146.782 144.95l61.443 123.655a412.512 412.512 0 0 1-48.425-55.346c-44.543-61.18-70.623-162.784-70.623-162.784s58.954 35.485 92.674 102.713z" transform="translate(46.549 84.851)"/>
            <path id="Path_726-2" data-name="Path 726" class="cls-2" d="M179.734 104.43c34.757 15.258 62.959 34.775 77.837 46.04l-102.287-33.887 95.656 42.451a312.64 312.64 0 0 1-55.02-8.885C140.338 135.987 75.976 89.295 75.976 89.295s51.567-7.795 103.758 15.135z" transform="translate(0 217.229)"/>
            <path id="Path_727-2" data-name="Path 727" class="cls-2" d="M152.4 117.731a275.337 275.337 0 0 1 56.957-12.307l-74.897 35.915 81.666-29.746c-6.69 5.259-18.263 13.307-37.653 24.07-34.96 19.4-88.007 31.579-88.007 31.579s24.273-36.829 61.934-49.511z" transform="translate(51.091 278.611)"/>
            <path id="Path_728-2" data-name="Path 728" class="cls-2" d="M181.851 251.705c22.463 44.764 34.68 88.328 40.31 112.295l-75.379-120.537 61.443 123.66a412.313 412.313 0 0 1-48.425-55.351C115.257 250.6 89.177 148.988 89.177 148.988s58.954 35.485 92.674 102.717z" transform="translate(46.549 432.226)"/>
            <path id="Path_729-2" data-name="Path 729" class="cls-2" d="M179.734 202.94c34.757 15.258 62.959 34.779 77.837 46.04L155.284 215.1l95.656 42.451a312.629 312.629 0 0 1-55.02-8.885C140.338 234.5 75.976 187.809 75.976 187.809s51.567-7.799 103.758 15.131z" transform="translate(0 564.608)"/>
            <path id="Path_730-2" data-name="Path 730" class="cls-2" d="M152.4 216.24a275.576 275.576 0 0 1 56.957-12.3l-74.897 35.913 81.666-29.746c-6.69 5.259-18.263 13.3-37.653 24.07-34.96 19.395-88.007 31.579-88.007 31.579s24.273-36.829 61.934-49.516z" transform="translate(51.091 625.989)"/>
        </g>
    </g>
</svg>
