<?xml version="1.0" encoding="utf-8"?>
<!-- Generator: Adobe Illustrator 24.1.2, SVG Export Plug-In . SVG Version: 6.00 Build 0)  -->
<!DOCTYPE svg PUBLIC "-//W3C//DTD SVG 1.1//EN" "http://www.w3.org/Graphics/SVG/1.1/DTD/svg11.dtd" [
	<!ENTITY ns_extend "http://ns.adobe.com/Extensibility/1.0/">
	<!ENTITY ns_ai "http://ns.adobe.com/AdobeIllustrator/10.0/">
	<!ENTITY ns_graphs "http://ns.adobe.com/Graphs/1.0/">
	<!ENTITY ns_vars "http://ns.adobe.com/Variables/1.0/">
	<!ENTITY ns_imrep "http://ns.adobe.com/ImageReplacement/1.0/">
	<!ENTITY ns_sfw "http://ns.adobe.com/SaveForWeb/1.0/">
	<!ENTITY ns_custom "http://ns.adobe.com/GenericCustomNamespace/1.0/">
	<!ENTITY ns_adobe_xpath "http://ns.adobe.com/XPath/1.0/">
]>
<svg version="1.1" id="Layer_1" xmlns:x="&ns_extend;" xmlns:i="&ns_ai;" xmlns:graph="&ns_graphs;"
	 xmlns="http://www.w3.org/2000/svg" xmlns:xlink="http://www.w3.org/1999/xlink" x="0px" y="0px" viewBox="0 0 36 26"
	 style="enable-background:new 0 0 36 26;" xml:space="preserve">
<style type="text/css">
	.st0{fill-rule:evenodd;clip-rule:evenodd;fill:#5046AF;}
</style>
<metadata>
	<sfw  xmlns="&ns_sfw;">
		<slices></slices>
		<sliceSourceBounds  bottomLeftOrigin="true" height="26" width="36" x="0" y="0"></sliceSourceBounds>
	</sfw>
</metadata>
<path class="st0" d="M31.3,3.1c0,0-2.6-2.7-8.4-3.1v0.9c0,0,3.2-0.2,7.2,3.7c-3-2.2-7.3-3.5-12-3.5c-4.8,0-9,1.4-12,3.5
	c4-3.9,7.2-3.7,7.2-3.7V0C7.3,0.4,4.7,3.1,4.7,3.1C0.3,8.9,0,21.5,0,21.5C4.2,26.6,9.5,26,9.5,26l1.9-2.8c-2.5-0.7-4.3-2.2-5.4-3.5
	c3,2.1,7.2,3.5,11.9,3.5c4.7,0,8.9-1.3,11.9-3.5c-1.1,1.2-2.9,2.8-5.4,3.5l1.9,2.8c0,0,5.3,0.6,9.5-4.4C36,21.5,35.7,8.9,31.3,3.1z
	 M12.4,18c-1.7,0-3.1-1.5-3.1-3.3c0-1.8,1.4-3.3,3.1-3.3c1.7,0,3.1,1.5,3.1,3.3C15.4,16.5,14.1,18,12.4,18z M23.6,18
	c-1.7,0-3.1-1.5-3.1-3.3c0-1.8,1.4-3.3,3.1-3.3c1.7,0,3.1,1.5,3.1,3.3C26.7,16.5,25.3,18,23.6,18z"/>
</svg>
