<svg xmlns="http://www.w3.org/2000/svg" width="36" height="26">
    <path fill-rule="evenodd" fill="#FFF" d="M31.286 3.137S28.706.396 22.85-.002v.867s3.212-.188 7.188 3.743C27.037 2.438 22.755 1.08 18 1.08c-4.756 0-9.037 1.358-12.039 3.528C9.937.677 13.149.865 13.149.865v-.867C7.293.396 4.714 3.137 4.714 3.137.251 8.909 0 21.535 0 21.535c4.203 5.088 9.485 4.439 9.485 4.439l1.94-2.814c-2.502-.681-4.289-2.24-5.362-3.455C9.059 21.831 13.297 23.16 18 23.16c4.702 0 8.941-1.329 11.937-3.455-1.074 1.215-2.861 2.774-5.362 3.455l1.94 2.814s5.281.649 9.484-4.439c.001 0-.251-12.626-4.713-18.398zM12.395 17.964c-1.686 0-3.054-1.458-3.054-3.257 0-1.801 1.368-3.26 3.054-3.26 1.687 0 3.054 1.459 3.054 3.26 0 1.799-1.367 3.257-3.054 3.257zm11.21 0c-1.687 0-3.054-1.458-3.054-3.257 0-1.801 1.367-3.26 3.054-3.26 1.686 0 3.053 1.459 3.053 3.26 0 1.799-1.367 3.257-3.053 3.257z"/>
</svg>
