<svg xmlns="http://www.w3.org/2000/svg" width="34" height="28">
    <path fill-rule="evenodd" fill="#EF9053" d="M33.175 12.588c-.687.89-1.8 1.352-2.907 1.352-.897 0-1.79-.304-2.45-.928-1.982-1.876-1.187-5.519 1.492-6.12a3.94 3.94 0 0 1 .867-.097c2.852 0 5.039 3.153 2.998 5.793zm-6.356 14.005c-.828.906-1.945 1.41-3.043 1.41a3.39 3.39 0 0 1-2.196-.796 7.23 7.23 0 0 1-1.67-2.061c-.423-.804-.848-1.636-1.723-2.008a2.631 2.631 0 0 0-1.034-.193c-.054 0-.108.001-.161.003-1.296.059-2.339.714-2.918 1.858-.482.951-.986 2.028-2.006 2.478a2.887 2.887 0 0 1-1.171.235c-.342 0-.684-.052-1.018-.138-3.789-.986-4.956-4.623-4.45-8.211.23-1.629.804-3.249 1.634-4.605 2.3-3.758 5.886-5.567 9.51-5.567 3.533-.001 7.103 1.718 9.557 5.025 1.279 1.724 2.253 3.866 2.479 6.192.227 2.325-.373 4.83-1.79 6.378zM21.826 7.842c-.48 0-.959-.088-1.405-.273-3.414-1.408-2.745-6.18.456-7.387a2.918 2.918 0 0 1 1.036-.187c1.387 0 2.788.918 3.405 2.157.706 1.417.454 3.268-.602 4.436-.731.809-1.814 1.254-2.89 1.254zm-10.178 0c-.479 0-.958-.088-1.404-.273-3.414-1.408-2.745-6.18.455-7.387a2.923 2.923 0 0 1 1.037-.187c1.386 0 2.787.918 3.405 2.157.705 1.417.454 3.268-.603 4.436-.731.809-1.813 1.254-2.89 1.254zM3.555 13.94c-.897 0-1.791-.304-2.45-.928-1.982-1.876-1.187-5.519 1.492-6.12a3.94 3.94 0 0 1 .867-.097c2.852 0 5.038 3.153 2.998 5.793-.687.89-1.8 1.352-2.907 1.352z"/>
</svg>
