<svg xmlns="http://www.w3.org/2000/svg" width="28" height="23">
    <path fill-rule="evenodd" fill="#FFF" d="M27.999 2.717c-1.05.459-2.135.777-3.29.919A5.65 5.65 0 0 0 27.229.42c-1.12.671-2.345 1.131-3.64 1.414A5.731 5.731 0 0 0 19.39-.003c-3.185 0-5.74 2.614-5.74 5.793 0 .459.035.884.14 1.307-4.76-.212-8.96-2.543-11.795-6.041-2.03 3.675.245 6.712 1.75 7.737-.91 0-1.82-.282-2.59-.706 0 2.861 1.995 5.228 4.585 5.758-.56.177-1.82.283-2.59.106.735 2.296 2.87 3.993 5.355 4.027-1.96 1.555-4.83 2.791-8.505 2.403a16.078 16.078 0 0 0 8.82 2.614c10.57 0 16.309-8.832 16.309-16.463 0-.248 0-.494-.035-.742 1.19-.883 2.17-1.908 2.905-3.073z"/>
</svg>
