<svg xmlns="http://www.w3.org/2000/svg" width="32" height="32">
    <path fill-rule="evenodd" fill="#321650" d="M28.25 2.499h-1.5v-2.5h-2.5v2.5H7.75v-2.5h-2.5v2.5h-1.5A3.755 3.755 0 0 0 0 6.25v21.999A3.755 3.755 0 0 0 3.75 32h17.782L32 21.129V6.25a3.755 3.755 0 0 0-3.75-3.751zm-6 25.151v-4.525c0-.689.561-1.251 1.25-1.251h4.311L22.25 27.65zm7.25-8.276h-6a3.755 3.755 0 0 0-3.75 3.751V29.5h-16c-.689 0-1.25-.561-1.25-1.251V11.75h27v7.624zm0-10.124h-27v-3c0-.69.561-1.251 1.25-1.251h1.5v2.5h2.5v-2.5h16.5v2.5h2.5v-2.5h1.5c.689 0 1.25.561 1.25 1.251v3z"/>
</svg>
