<?xml version="1.0" encoding="utf-8"?>
<!-- Generator: Adobe Illustrator 24.1.2, SVG Export Plug-In . SVG Version: 6.00 Build 0)  -->
<!DOCTYPE svg PUBLIC "-//W3C//DTD SVG 1.1//EN" "http://www.w3.org/Graphics/SVG/1.1/DTD/svg11.dtd" [
	<!ENTITY ns_extend "http://ns.adobe.com/Extensibility/1.0/">
	<!ENTITY ns_ai "http://ns.adobe.com/AdobeIllustrator/10.0/">
	<!ENTITY ns_graphs "http://ns.adobe.com/Graphs/1.0/">
	<!ENTITY ns_vars "http://ns.adobe.com/Variables/1.0/">
	<!ENTITY ns_imrep "http://ns.adobe.com/ImageReplacement/1.0/">
	<!ENTITY ns_sfw "http://ns.adobe.com/SaveForWeb/1.0/">
	<!ENTITY ns_custom "http://ns.adobe.com/GenericCustomNamespace/1.0/">
	<!ENTITY ns_adobe_xpath "http://ns.adobe.com/XPath/1.0/">
]>
<svg version="1.1" id="Layer_4" xmlns:x="&ns_extend;" xmlns:i="&ns_ai;" xmlns:graph="&ns_graphs;"
	 xmlns="http://www.w3.org/2000/svg" xmlns:xlink="http://www.w3.org/1999/xlink" x="0px" y="0px" viewBox="0 0 343 131.6"
	 style="enable-background:new 0 0 343 131.6;" xml:space="preserve">
<style type="text/css">
	.st0{fill:#321650;}
	.st1{fill:#FFFFFF;}
	.st2{fill:#9D98AE;}
	.st3{fill:#534E63;}
	.st4{fill:#26123F;}
	.st5{clip-path:url(#SVGID_2_);fill:#321650;}
	.st6{opacity:5.000000e-02;fill:#FFFFFF;}
	.st7{opacity:0.4;fill:#FFFFFF;}
	.st8{fill:url(#SVGID_3_);}
	.st9{opacity:0.5;fill:#9D98AE;}
	.st10{opacity:0.4;}
</style>
<metadata>
	<sfw  xmlns="&ns_sfw;">
		<slices></slices>
		<sliceSourceBounds  bottomLeftOrigin="true" height="131.6" width="343" x="736" y="-509"></sliceSourceBounds>
	</sfw>
</metadata>
<path class="st0" d="M337,50.2l-0.4-8.4l-8.4,0.8c-0.7,0.1-4.5,0.6-5.7,0.7c-1.5,0.2-3,0.5-4.3,0.7c-0.7,0.1-1.3,0.2-1.9,0.3l0,0
	l0,0l-0.8,0.1c-2.7,0.5-5.7,1-7.7,1.5c-2.4-1.9-5.4-2.8-9.2-2.8c-1.6,0-3,0.1-4.3,0.4c-2.4,0.4-4.3,1.1-6,2l-0.1,0l-0.1,0
	c-2.1,1.1-4,2.5-5.8,3.9c-1.4-1.3-3.1-2.3-5.7-3.6l-0.1,0l-0.1,0c-2.2-1-4.9-2-8.8-2.3l-0.1,0l-0.1,0c-0.4,0-1-0.1-1.5-0.1
	c-1.8-0.2-4.2-0.4-6.5-0.4c-1.4,0-2.7,0.1-4,0.2l-4.7,0.6l-0.9,2.5c-2.7-1.5-5.3-1.9-7.3-1.9c-0.6,0-1.2,0-1.7,0.1l0,0l0,0
	c-1.5,0.2-3,0.6-4.4,1.2c0-0.3,0-0.5,0-0.7l-0.6-7.9l-7.9,0.5c-2.7,0.2-5.7,0.5-9.3,1.1l-0.1,0l-0.1,0c-0.4,0.1-0.9,0.2-1.3,0.2
	c-0.9,0.1-1.8,0.3-2.9,0.5l0,0l0,0c-3.3,0.7-6.5,1.5-9.9,2.4l-0.9,0.3c0,0,0.1-0.1,0.1-0.1l1-1.2l4.2-5.2l-4.4-5l-1.1-1.3l-9.9-11.3
	l-0.4-0.5l-1.7-2l-2.5-0.6l-0.6-0.1c-0.3-0.1-27.8-6.2-35.3-8.2L152,6.7l-2-0.5l-2,0.5l-0.5,0.1c-7.5,2-35,8.1-35.3,8.1l-0.6,0.1
	l-2.5,0.6l-1.7,2l-0.4,0.5l-9.9,11.2l-1.1,1.3l-4.5,5.1l4.3,5.3l0.9,1.2c0.1,0.2,0.4,0.6,0.8,1.4c-1.2-0.3-2.5-0.5-3.8-0.5
	c-0.2,0-0.4,0-0.6,0c-1.8,0.1-4.6,0.3-7.6,1.7c-0.7,0.3-1.5,0.7-2.2,1.1l0.6-2.9h-9.9c-4.1,0-8.6,0.9-10.7,1.3l-0.1,0l-0.5,0.1l-3,0
	c-5.2,0.1-10.7,1.1-11,1.2l-0.3,0.1c-0.9-0.8-2-1.6-3.1-2.4c-3.6-2.3-7.7-3.9-12.1-4.7c-3.2-0.6-5.6-0.7-7.9-0.7c-0.4,0-0.8,0-1.2,0
	c-0.4,0-0.9,0-1.4,0h-5.8l-1.8,5.5c-1.3,3.8-2.2,7.3-3,10.5l-1.9,8.9l2.5,0.2C12,65,11.5,66.8,11,68.7c-0.8,3-1.6,6-2.3,9.2
	l-0.2,0.8c-0.4,2-0.8,3.8-1,5.2l-0.9,8.8h8.9c0.2,0,0.5,0,0.8,0c0.6,0,1.4,0,2.3,0c1.1,0,4.1,0,7.3-0.5l5.3-0.7l1.4-5.2
	c0.4-1.7,0.8-3.1,1.1-4.5c0-0.1,0.1-0.3,0.1-0.4c0.7-0.3,1.4-0.7,2.2-1.1c-0.2,2.6,0.1,5.4,1.7,8c1.4,2.3,3.9,4.1,6.7,4.8l0.1,0
	l0.1,0l0.2,0.1c0.7,0.2,2,0.4,3.5,0.4c0.8,0,1.7-0.1,2.5-0.3c0.5-0.1,0.9-0.2,1.4-0.3l0.4,2l8.3-2.2c0.4-0.1,0.8-0.2,1.2-0.3
	c2-0.5,4.7-1.1,7.8-2.7c0.7,0.6,1.5,1.3,2.4,1.9l0.1,0.1l0.1,0c2.4,1.6,5.2,2.4,8.4,2.4c2.2,0,4.6-0.4,7.3-1.3
	c5.1-1.5,9.3-4.3,12-8.1l0.1-0.1l0.1-0.1c0.9-1.4,1.8-2.7,2.4-4c0.2-0.5,0.7-1.5,1.2-2.9c0.2,7.4-0.2,10.5-0.4,11.3l-0.2,0.5
	l-1.1,3.5l1.9,3.1l0.4,0.7c0.8,1.4,6.1,9.6,19.1,17.6c12.8,8,23.1,10.3,24.2,10.6l0.4,0.1l1.7,0.4l1.7-0.4l0.4-0.1
	c1.1-0.2,11.4-2.6,24.2-10.6c13.4-8.3,18.7-16.8,19.2-17.8l0.5-0.8l1.8-3.1l0,0h4.3c3.8,0,7.2-0.2,10.1-0.7l5.3-0.8l1.2-5.2
	c0.2-0.7,0.3-1.3,0.3-1.8c0-0.3,0.1-0.6,0.1-0.7l0.1-0.2l0-0.2c0.1-0.4,0.1-0.7,0.2-1c0.4,1.1,1,2.2,1.6,3.2
	c2.4,3.8,6.2,6.4,10.6,7.2l0.2,0l0.2,0l0.4,0.1c0.9,0.1,1.8,0.2,3,0.2c2.6,0,5-0.5,7.3-1.6l-0.1,2.3l8.7-0.3c1.3,0,5.9-0.3,9.9-1.2
	l0.6-0.1l4.2,4.4l5.5-3.2c0.4-0.2,0.8-0.5,1.2-0.7c1.4-0.8,2.8-1.7,4.3-2.8c2.1,1.6,4.5,2.8,7.2,3.6l0.1,0l0.1,0
	c1.4,0.4,2.8,0.5,4.3,0.5c1.9,0,3.8-0.3,5.8-0.8l-0.5,2.2l11-1.2c1.9-0.2,3.2-0.3,4.2-0.4c0.7-0.1,1.3-0.1,1.9-0.2l0.1,0l0.1,0
	c1.7-0.2,3.2-0.4,4.7-0.5c2.9-0.3,5.8-0.6,9.9-1.3l5.8-1l0.8-5.8c0.6-4.8,0.6-9.4,0.3-11.5l-0.1-0.8c0.3-1.7,0.4-3.4,0.5-4.8
	l1.4-0.2l1.2-5.5C337.2,55.8,337,50.7,337,50.2z"/>
<g>
	<path class="st1" d="M45.5,60.2c-0.2,0.6-0.3,1.3-0.6,1.9c-2.3,6-12.2,11.3-18,13.9c-0.8,3.1-1.2,5.3-2,8.5
		c-2.2,0.3-4.6,0.4-6.3,0.4c-1.3,0-2.4-0.1-3.1-0.1c0.1-1.1,0.6-3.2,1-5.1c1.7-8.1,4.4-15.7,5.4-23.7c-0.8,0-1.6-0.1-2.3-0.2
		c0.9-4.2,2.2-8.1,2.7-9.7c3.7,0,5.7-0.1,9.1,0.5c3.3,0.6,6.4,1.7,9.2,3.5c2,1.3,3.8,2.9,4.6,5.4C45.8,56.9,45.9,58.6,45.5,60.2z
		 M36.1,60.9c0.1-0.7,0-0.9-0.4-1.6c-1.3-1.3-3-1.9-4.8-2.6c-0.8,3-1.6,6.1-2,9.3c0.3-0.1,0.9-0.3,1.2-0.5
		C31.5,65.1,35.9,62.4,36.1,60.9z"/>
	<path class="st1" d="M68.2,81.8c-3.8,2.3-7,2.8-9.4,3.4c-0.2-1.2-0.2-2.4-0.4-3.8c-2.7,1.8-6.2,3.7-9.3,4.4c-1,0.2-2-0.1-2.8-0.2
		c-0.7-0.2-1.5-0.7-1.8-1.3c-1.1-1.7-0.4-4.9,0.1-7c0.3-1.5,3.5-14,3.8-16.1c0.1-0.2,1.6-7.3,1.6-7.5c1.5-0.3,5.9-1,9.6-1
		c-0.9,3-2.9,11.5-3.4,13.9c-0.5,2.3-1.4,5.5-1.8,7.8c1-0.5,2.3-1.3,3.2-1.9c1-0.7,1.6-1,2.7-1.9c0.3-1.2,0.5-2.7,0.8-3.9
		c0.3-1.4,0.8-4.1,1.4-7c0.5-2.6,1.2-5.2,1.9-7.4c1.8-0.3,5.9-1.2,9.3-1.2c-1,4.5-2.4,10.2-3.5,15.4C69.1,72.2,68,75.9,68.2,81.8z"
		/>
	<path class="st1" d="M97.1,66.6c0.2,2.6,0,4.8-0.3,6.6c-0.5,2.5-1.3,4.1-1.3,4.1c-0.4,0.9-1.2,2.1-1.8,3c-1.9,2.7-4.9,4.3-7.9,5.2
		c-3,1-6.3,1.5-8.9-0.2c-0.8-0.5-1.6-1.2-2.1-1.9c-1.5-1.7-2.2-3.5-2.8-5.9c-0.4-1.6-0.1-3.6,0.3-5.5c0.6-2,1.6-4.6,2.7-6.4
		c0.8-1.3,2.7-4.1,3.6-5.3c2.4-3,4.6-5,7.7-6.9c0.8-0.5,1.6-0.9,2.4-1.2c1.6-0.8,3.1-1,4.6-1c1.4-0.1,3,0.3,4,1.2
		c1.4,1.2,1.9,3,1.6,4.4c-0.1,0.3-0.2,1.3-0.5,2.5c-0.3,1.4-0.8,3.2-1.1,4.3c-3.4,0.9-7.3,1-8.5,1l0.9-4.7c-0.8,0.3-2.3,1.8-2.3,1.8
		c-1.2,1.1-3.7,3.9-5.1,6.8c-0.5,0.9-1.6,3.8-1.6,4.7c-0.1,0.8,0.1,1.5,0.3,2.1c0.4,1.2,1.5,2.5,2.7,2.6c0.6,0.1,2-0.2,2.6-0.8
		c0.7-0.6,1.3-1.7,1.3-2.5c-1.2,0.1-2.3,0.5-3.5,0.6c0.1-1.3,0.4-2.7,0.7-4.1c0.2-1.3,0.6-2.5,0.8-3.4c1.8-0.3,5.7-0.8,6.8-0.8
		C94.8,66.7,97.1,66.6,97.1,66.6z"/>
</g>
<g>
	<path class="st1" d="M223.4,71.2c-3.4,1.2-6.9,1.2-10.1,2.1c-0.6,2.7-1,5.3-1.7,8c-0.3,1-0.3,2-0.6,3c-3,0.5-6.3,0.6-8.9,0.6
		c0.3-1.9,0.7-3.8,1.1-5.7c0.4-2.6,3.4-14,3.8-16.1c0.2-1.6,0.7-3.2,1.2-4.7c-0.8,0.2-1.5,0.4-2.3,0.6c0-1.6,0.2-6.4,0.5-9.2
		c3.2-0.9,6.3-1.6,9.5-2.3c1.4-0.3,2.7-0.5,4-0.7c2.8-0.5,5.7-0.9,8.5-1c0.1,1.5,0,5.6-0.4,9c-3,0.5-5.7,0.9-8.5,1.1
		c-0.7,0.1-1.3,0.2-1.9,0.3c-0.2,0.5-0.4,1-0.5,1.6c-0.6,1.7-1,3.5-1.5,5.2c-0.2,0.5-0.3,1-0.4,1.6c0.7-0.1,1.3-0.2,2-0.4
		c1.6-0.3,3.1-0.7,4.6-0.9c0.6-0.1,1.8-0.2,2.5-0.3C224.2,64.6,224.2,67.5,223.4,71.2z"/>
	<path class="st1" d="M250.1,68.7c-0.3,1.3-1,3.8-2,5.7c-0.9,1.7-1.8,3.2-3.1,4.8c-1.3,1.6-2.6,2.8-4.3,3.9
		c-1.9,1.2-3.5,1.6-5.3,1.6c-0.8,0-1.4-0.1-2.3-0.2c-6.2-1.1-8.2-8.5-6.4-15.1c1-4.1,1.8-6.2,4.6-9.9c2.3-3,6.5-6.5,10.3-7
		c3.2-0.3,5.5,1.2,7.1,3.1c1,1.3,1.9,3.4,2.1,5.2C251.1,63.4,251,65.4,250.1,68.7z M241.7,68c0.1-0.5,0.2-1,0.2-1.5
		c0.2-1.3,0-5.9-2.3-4.7c-1.7,0.9-2.6,3.2-3.4,4.7c-0.4,0.8-0.6,1.6-0.8,2.5c-0.2,1.2-0.3,2.4-0.5,3.5c-0.1,1.1,0.5,4.1,2.2,3.5
		c1.6-0.6,2.8-3.5,3.5-4.9C241.2,70.2,241.4,69.1,241.7,68z"/>
	<path class="st1" d="M275.6,80.1c-2.7,3.1-4.9,4.1-8,6c-1.2-1.2-1.8-2.1-2.5-3.4c-1-1.6-1.7-3-2.6-5.3c-0.2-0.6-0.3-1.4-0.5-2.1
		c-0.5,0.1-0.6,0.2-1,0.3c-0.6,2-0.6,2.8-1,4.9c-0.2,1.2-0.4,3-0.4,3.6c-3.1,0.7-6.8,0.9-8.4,1c0.1-1.1,0.8-5.3,1-6.4
		c1.1-5.2,2-10.3,3.4-15.7c0.1-0.3,0.6-2.5,0.8-2.8c-0.6,0.1-1.3,0.1-2.2,0.1c0.9-3.9,1.9-7.5,2.5-9c0.9-0.1,1.9-0.2,2.9-0.2
		c2.7,0,5.7,0.3,7.5,0.5c2.6,0.2,4.5,0.9,6.3,1.7c2.8,1.3,3.8,2.1,5.2,3.7c1,1.3,1.4,2.3,1.2,4.1c-0.5,4.2-5.9,8.2-9.5,10.3
		c0.2,0.6,0.3,1.2,0.6,1.8c0.8,1.7,1.7,3.2,2.8,4.8L275.6,80.1z M264.2,60.4c-0.3,1.1-0.9,4.9-1.2,6c0.8-0.2,1.9-0.5,2.8-1
		c1.1-0.6,2.2-1.2,3.1-2C272,61.1,265.7,60.1,264.2,60.4z"/>
	<path class="st1" d="M300.4,81.4c-3.9,2.4-9.5,5.1-14,3.9c-4.1-1.1-7.4-4.1-8.5-8.1c-0.5-1.6-0.4-3.6,0.1-5.8
		c0.8-3.8,2.7-7.9,4.6-10.5c2.3-3.4,5.6-6.3,9.3-8.3c1.2-0.6,2.6-1,3.8-1.2c0.9-0.2,1.9-0.2,2.8-0.2c1.7,0,3.2,0.3,4.3,1.2
		c1.4,1.2,1.7,2.9,1.4,4.9c-0.3,1.9-0.6,3.2-1.1,5.1c-0.4,1.6-1,4.6-1.4,5.6c-2.4,0.4-5,0.5-6.8,0.5c-0.8,0-1.4-0.1-1.9-0.1
		c0.3-1.8,1-5.7,1.3-7.4c-1,0.3-2.5,1.4-3.4,2.3c-1.2,1-2.3,2.9-2.9,4.3c-0.2,0.5-0.5,1.4-0.6,2.2c-0.3,1.7-0.5,3.7,0.2,4.4
		c0.9,1.1,2.4,1.7,3.9,1.8c1.7,0.1,3.2-0.7,4.9-1.3c0.1,0,2.4-1,2.4-1C299.4,75,300.5,78.1,300.4,81.4z"/>
	<path class="st1" d="M310.4,85.1c-1.6,0.2-3.1,0.3-6.2,0.6l2.3-10.7c0.5-2.1,0.9-4.4,1.3-6.6c0.3-1.6,0.8-3.6,1.2-5.1l-2.6,0.5
		c0.3-2.1,0.6-3.9,0.9-5.3c0.6-3.1,1.3-4.6,1.3-4.6c2-0.5,7.4-1.5,9-1.7c1.7-0.3,3.9-0.8,6-1c0.7-0.1,4.7-0.6,5.3-0.7
		c0.1,1.3,0,5.3-0.9,9.3c-0.9,0.1-9.2,1.4-9.6,1.6l-0.9,4c3.3-0.5,5-0.8,7.8-1.3c0,1-0.1,4.3-0.6,7.3c-1.5,0.3-4.3,0.9-5.6,1.2
		c-0.8,0.2-2.6,0.5-3.7,0.9c-0.2,1-0.3,1.5-0.5,2.4c1.5-0.1,3-0.4,4.5-0.7l5.5-1.1c0.2,1.1,0.2,4.9-0.3,9.2
		C318.8,84.5,315.5,84.5,310.4,85.1z"/>
</g>
<path class="st2" d="M197,37.3l1-1.3l-1.1-1.3l-9.9-11.2l-0.4-0.5l-0.6-0.1c-0.3-0.1-27.9-6.2-35.6-8.2l-0.5-0.1l-0.5,0.1
	c-7.7,2-35.3,8.2-35.6,8.2l-0.6,0.1l-0.4,0.5l-9.9,11.2l-1.1,1.3l1.1,1.3c0.1,0.1,6.6,8.4,8.2,28.3c1.6,19.9,0.1,25.5,0.1,25.5
	l-0.3,0.9l0.5,0.7c0.2,0.3,4.5,7.6,16.5,15c11.9,7.4,21.3,9.5,21.7,9.6l0.4,0.1l0.4-0.1c0.4-0.1,9.8-2.2,21.7-9.6
	c12-7.5,16.3-14.7,16.5-15l0.5-0.8l-0.3-0.9c0,0-1.6-5.6,0.1-25.5C190.5,45.7,197,37.3,197,37.3z"/>
<path class="st1" d="M150,19.1c-5.4,1.4-10.8,2.6-16.2,3.8c-6,1.4-12.1,2.7-18.1,4.1l-8.1,9.2c1.1,1.8,2.1,4,2.9,5.8
	c3,7.3,4.5,15.4,5.1,23.2c0.4,4.3,0.6,8.7,0.7,13c0.1,2.7,0.1,5.5-0.1,8.2c-0.1,1.5-0.2,2.9-0.4,4.4c0,0.1,0,0.2-0.1,0.3
	c0.8,1.1,1.9,2.3,2.7,3.2c3.4,3.7,7.6,6.8,11.8,9.5c4.6,2.8,9.4,5.3,14.4,7.2c1.7,0.6,3.5,1.3,5.3,1.7c1.8-0.4,3.6-1.1,5.3-1.7
	c5-1.9,9.9-4.3,14.4-7.2c4.2-2.6,8.4-5.8,11.8-9.5c0.8-0.9,1.9-2.1,2.7-3.2c0-0.1,0-0.2-0.1-0.3c-0.2-1.4-0.4-2.9-0.4-4.4
	c-0.1-2.7-0.1-5.5-0.1-8.2c0.1-4.4,0.4-8.7,0.7-13c0.6-7.8,2.1-16,5.1-23.2c0.7-1.7,1.7-3.9,2.9-5.8l-8.1-9.2
	c-6-1.3-12.1-2.7-18.1-4.1C160.8,21.7,155.3,20.5,150,19.1z"/>
<path class="st3" d="M150,19.1c-5.4,1.4-10.8,2.6-16.2,3.8c-6,1.4-12.1,2.7-18.1,4.1l-8.1,9.2c1.1,1.8,2.1,4,2.9,5.8
	c3,7.3,4.5,15.4,5.1,23.2c0.4,4.3,0.6,8.7,0.7,13c0.1,2.7,0.1,5.5-0.1,8.2c-0.1,1.5-0.2,2.9-0.4,4.4c0,0.1,0,0.2-0.1,0.3
	c0.8,1.1,1.9,2.3,2.7,3.2c3.4,3.7,7.6,6.8,11.8,9.5c4.6,2.8,9.4,5.3,14.4,7.2c1.7,0.6,3.5,1.3,5.3,1.7l0.1,0L150,110l-0.2-37.7
	l18.1-25.9l20.1-9l4.4-1.2l-8.1-9.2c-6-1.3-12.1-2.7-18.1-4.1C160.8,21.7,155.3,20.5,150,19.1z"/>
<path class="st4" d="M188,37.4c-0.8,1.5-1.5,3-2,4.3c-3,7.3-4.5,15.4-5.1,23.2c-0.3,4.3-0.6,8.5-0.7,12.8c-0.1,2.7-0.1,5.5,0.1,8.2
	c0.1,1.1,0.1,2.5,0.3,3.8c-0.6,0.7-1.3,1.5-1.8,2.1c-3.2,3.4-7,6.3-10.9,8.7c-4.3,2.7-8.8,5-13.5,6.7c-1.3,0.5-2.8,1-4.2,1.4
	c-1.4-0.4-2.9-0.9-4.2-1.4c-4.7-1.8-9.3-4.1-13.5-6.7c-3.9-2.4-7.8-5.4-10.9-8.7c-0.5-0.6-1.2-1.3-1.8-2.1c0.2-1.3,0.3-2.7,0.3-3.8
	c0.2-2.7,0.1-5.5,0.1-8.2c-0.1-4.3-0.4-8.5-0.7-12.8c-0.7-7.8-2.2-16-5.1-23.2c-0.5-1.3-1.2-2.8-2-4.3l6.1-6.9
	c5.6-1.3,11.2-2.5,16.8-3.8c5-1.2,10.1-2.3,15.2-3.6c5,1.3,10.1,2.4,15.2,3.6c5.6,1.3,11.2,2.5,16.8,3.8L188,37.4z"/>
<g>
	<defs>
		<path id="SVGID_1_" d="M188,37.4c-0.8,1.5-1.5,3-2,4.3c-3,7.3-4.5,15.4-5.1,23.2c-0.3,4.3-0.6,8.5-0.7,12.8
			c-0.1,2.7-0.1,5.5,0.1,8.2c0.1,1.1,0.1,2.5,0.3,3.8c-0.6,0.7-1.3,1.5-1.8,2.1c-3.2,3.4-7,6.3-10.9,8.7c-4.3,2.7-8.8,5-13.5,6.7
			c-1.3,0.5-2.8,1-4.2,1.4c-1.4-0.4-2.9-0.9-4.2-1.4c-4.7-1.8-9.3-4.1-13.5-6.7c-3.9-2.4-7.8-5.4-10.9-8.7c-0.5-0.6-1.2-1.3-1.8-2.1
			c0.2-1.3,0.3-2.7,0.3-3.8c0.2-2.7,0.1-5.5,0.1-8.2c-0.1-4.3-0.4-8.5-0.7-12.8c-0.7-7.8-2.2-16-5.1-23.2c-0.5-1.3-1.2-2.8-2-4.3
			l6.1-6.9c5.6-1.3,11.2-2.5,16.8-3.8c5-1.2,10.1-2.3,15.2-3.6c5,1.3,10.1,2.4,15.2,3.6c5.6,1.3,11.2,2.5,16.8,3.8L188,37.4z"/>
	</defs>
	<clipPath id="SVGID_2_">
		<use xlink:href="#SVGID_1_"  style="overflow:visible;"/>
	</clipPath>
	<path class="st5" d="M156,63.4l40.7-4.5c0-0.2,0.1-0.5,0.1-0.7l-39.9,4.4l40.6-8.5c0-0.2,0.1-0.5,0.1-0.7l-41,8.6l41.6-13.1
		c0-0.2,0.1-0.5,0.1-0.7l-41.7,13.1l42.2-17.8c0-0.3,0-0.5,0.1-0.8l-42.6,18l42.9-23.2c0-0.3,0-0.5,0-0.8L156,60L199.2,31
		c0-0.3,0-0.6,0-0.8l-43.8,29.4l41.1-34c-0.3-0.1-0.5-0.2-0.8-0.2l-40.7,33.6l35.2-35.2c-0.3-0.1-0.5-0.1-0.8-0.2l-35.6,35.6
		l29.6-37c-0.2-0.1-0.5-0.1-0.7-0.2l-28.8,36l24.2-37c-0.2,0-0.5-0.1-0.7-0.1l-24.1,36.9L173,20.1c-0.2,0-0.5-0.1-0.7-0.1
		l-19.5,37.3l15.4-37.9c-0.2,0-0.5-0.1-0.7-0.1l-15.4,37.8l11.4-38.2c-0.2,0-0.5,0-0.7-0.1l-11.3,38l7.5-38.3c-0.2,0-0.5,0-0.7,0
		l-7.5,38.4l3.7-38.6c-0.2,0-0.5,0-0.7,0l-3.7,38.4V18.2c-0.1,0-0.2,0-0.3,0s-0.2,0-0.3,0v39.4l-4.4-39.3c-0.2,0-0.5,0-0.7,0
		l4.3,38.4l-8-38.2c-0.2,0-0.5,0-0.7,0l8,38.5l-12-38.1c-0.2,0-0.5,0-0.7,0.1l12,38.1l-15.9-37.7c-0.2,0-0.5,0.1-0.7,0.1l16,37.9
		l-20.2-37.3c-0.2,0-0.5,0.1-0.7,0.1l20.3,37.4L121.4,21c-0.2,0-0.5,0.1-0.7,0.1l24.9,37l-29.7-36c-0.3,0.1-0.5,0.1-0.7,0.2
		L145,58.4l-34.9-34.9c-0.3,0.1-0.5,0.1-0.8,0.2l35.8,35.8l-42.4-33.9c-0.3,0.1-0.5,0.2-0.8,0.3l42,33.6L100.4,31c0,0.3,0,0.5,0,0.8
		l43.3,28.4l-43.3-22.6c0,0.3,0,0.5,0,0.8l42.7,22.3l-42.4-17.2c0,0.3,0,0.5,0.1,0.8l42.2,17.1L101.4,49c0,0.2,0.1,0.5,0.1,0.7
		l41.3,12.3l-40.7-8c0,0.2,0.1,0.5,0.1,0.7l40.7,8L103,58.9c0,0.2,0.1,0.5,0.1,0.7l39.5,3.8h-38.7c0.1,0.2,0.1,0.5,0.2,0.7h39.5
		l-38.4,4.3c0.1,0.2,0.1,0.4,0.2,0.7l37.4-4.1l-36.3,7.6c0.1,0.2,0.1,0.4,0.2,0.7l36.4-7.6l-35.3,11.1c0.1,0.2,0.2,0.4,0.2,0.6
		l35.1-11l-33.9,14.3c0.1,0.2,0.2,0.4,0.2,0.6l34-14.3l-32.6,17.6c0.1,0.2,0.2,0.4,0.3,0.6l32.5-17.6l-31,20.9
		c0.1,0.2,0.2,0.4,0.3,0.6l31.2-21l-29.5,24.3c0.1,0.2,0.2,0.4,0.3,0.6l29.5-24.3l-27.6,27.6c0.1,0.2,0.2,0.4,0.4,0.6l28.4-28.4
		l-25.9,32.3c0.1,0.2,0.3,0.4,0.4,0.6l25.4-31.7l-22.9,35.1c0.1,0.2,0.3,0.4,0.4,0.6l23.2-35.4l-20.3,38.9c0.2,0.2,0.3,0.4,0.5,0.6
		l20.4-39l-17.2,42.4c0.2,0.2,0.3,0.4,0.5,0.5l17.4-42.8l-13.8,46.3c0.2,0.2,0.4,0.3,0.6,0.5l13.8-46.6l-9.8,50
		c0.2,0.2,0.4,0.3,0.6,0.5l9.9-50.5l-5.2,54.1c0.2,0.1,0.4,0.3,0.6,0.4l5.2-54.2v57.6c0.1,0.1,0.2,0.1,0.3,0.2
		c0.1-0.1,0.2-0.1,0.3-0.2V70l6.1,54.6c0.2-0.1,0.4-0.3,0.6-0.5l-5.9-53.3l10.4,49.9c0.2-0.2,0.4-0.3,0.6-0.5l-10.4-49.7l14.5,46.1
		c0.2-0.2,0.4-0.3,0.6-0.5l-14.3-45.6l17.8,42.2c0.2-0.2,0.3-0.4,0.5-0.5l-17.7-42l20.9,38.5c0.2-0.2,0.3-0.4,0.5-0.6l-20.7-38.2
		l23.4,34.8c0.1-0.2,0.3-0.4,0.4-0.6L154,69.4l25.8,31.3c0.1-0.2,0.3-0.4,0.4-0.6l-25.6-31l27.7,27.7c0.1-0.2,0.2-0.4,0.4-0.6
		l-28.3-28.3l30.5,24.4c0.1-0.2,0.2-0.4,0.3-0.6L155.6,68l31.3,20.5c0.1-0.2,0.2-0.4,0.3-0.6l-31.4-20.5l32.9,17.2
		c0.1-0.2,0.2-0.4,0.3-0.6l-32.7-17.1l34,13.8c0.1-0.2,0.2-0.4,0.2-0.6l-34.1-13.9l35.4,10.5c0.1-0.2,0.1-0.4,0.2-0.7l-35.3-10.5
		l36.4,7.1c0.1-0.2,0.1-0.4,0.2-0.7l-36.7-7.2l37.7,3.6c0.1-0.2,0.1-0.4,0.2-0.7L157,64.1h38.6c0.1-0.2,0.1-0.5,0.2-0.7H156z"/>
</g>
<path class="st6" d="M188,37.4c-0.8,1.5-1.5,3-2,4.3c-3,7.3-4.5,15.4-5.1,23.2c-0.3,4.3-0.6,8.5-0.7,12.8c-0.1,2.7-0.1,5.5,0.1,8.2
	c0.1,1.1,0.1,2.5,0.3,3.8c-0.6,0.7-1.3,1.5-1.8,2.1c-3.2,3.4-7,6.3-10.9,8.7c-4.3,2.7-8.8,5-13.5,6.7c-1.3,0.5-2.8,1-4.2,1.4V23.1
	c5,1.3,10.1,2.4,15.2,3.6c5.6,1.3,11.2,2.5,16.8,3.8L188,37.4z"/>
<g>
	<path class="st2" d="M164.2,69.5c-0.1,5.8-3.2,7.9-6.5,7.7c-3.3-0.2-5.6-1.7-7.9-1.7l-0.1,0.1c-2.3,0-4.6,1.6-7.9,1.8
		c-3.3,0.2-6.4-1.8-6.5-7.6c0.2-5.3,4.3-5.7,7.7-12c3.1-5.6,6.7-5.1,6.7-5.1h0.1c0,0,3.7-0.4,6.7,5.1C160,64,164.1,64.2,164.2,69.5z
		 M143.9,50.2c2.9-0.2,5-3.7,4.7-7.8c-0.3-4.1-2.9-7.2-5.8-7c-2.9,0.2-5,3.7-4.7,7.8C138.3,47.3,141,50.4,143.9,50.2z M154.9,50.3
		c2.8,0.8,6-1.8,7.1-5.8c1.1-4-0.3-7.9-3.2-8.6c-2.8-0.8-6,1.8-7.1,5.8C150.6,45.6,152.1,49.5,154.9,50.3z M168.1,47.1
		c-2.5-0.7-5.3,1.6-6.2,5.1c-0.9,3.5,0.3,6.8,2.8,7.5c2.5,0.7,5.3-1.6,6.2-5.1C171.8,51.1,170.6,47.7,168.1,47.1z M138.8,52.1
		c-0.9-3.5-3.7-5.7-6.2-5.1s-3.7,4-2.8,7.5c0.9,3.5,3.7,5.7,6.2,5.1C138.6,59,139.8,55.6,138.8,52.1z"/>
</g>
<g>
	<g>
		<path class="st2" d="M150,85.3v11.4l0,0l-3.9,2.1c-0.1,0-0.1,0.1-0.2,0.1c-0.1,0-0.2,0-0.3-0.1c-0.1-0.1-0.2-0.3-0.2-0.4l0.8-4.4
			l-3.2-3.1c-0.1-0.1-0.2-0.3-0.1-0.4c0-0.2,0.2-0.3,0.3-0.3l4.4-0.6l2-4C149.6,85.4,149.8,85.3,150,85.3L150,85.3z"/>
	</g>
</g>
<g>
	<g>
		<path class="st2" d="M139.9,86.9c0-0.1-0.1-0.2-0.2-0.2l-3.1-0.4l-1.4-2.8c0-0.1-0.1-0.2-0.3-0.2c-0.1,0-0.2,0.1-0.3,0.2l-1.4,2.8
			l-3.1,0.4c-0.1,0-0.2,0.1-0.2,0.2c0,0.1,0,0.2,0.1,0.3l2.2,2.2l-0.5,3c0,0.1,0,0.2,0.1,0.3c0.1,0,0.1,0.1,0.2,0.1c0,0,0.1,0,0.1,0
			l2.7-1.4l2.7,1.4c0.1,0.1,0.2,0,0.3,0c0.1-0.1,0.1-0.2,0.1-0.3l-0.5-3l2.2-2.2C139.9,87.1,139.9,87,139.9,86.9z"/>
	</g>
</g>
<g>
	<g>
		<path class="st2" d="M170.3,86.9c0-0.1-0.1-0.2-0.2-0.2l-3.1-0.4l-1.4-2.8c0-0.1-0.1-0.2-0.3-0.2s-0.2,0.1-0.3,0.2l-1.4,2.8
			l-3.1,0.4c-0.1,0-0.2,0.1-0.2,0.2c0,0.1,0,0.2,0.1,0.3l2.2,2.2l-0.5,3c0,0.1,0,0.2,0.1,0.3c0.1,0,0.1,0.1,0.2,0.1c0,0,0.1,0,0.1,0
			l2.7-1.4l2.7,1.4c0.1,0.1,0.2,0,0.3,0c0.1-0.1,0.1-0.2,0.1-0.3l-0.5-3l2.2-2.2C170.3,87.1,170.4,87,170.3,86.9z"/>
	</g>
</g>
<path class="st7" d="M164.2,69.5c-0.1,5.8-3.2,7.9-6.5,7.7c-3.2-0.2-5.5-1.7-7.8-1.7v-23c0.6,0,3.8,0.1,6.6,5.1
	C160,64,164.1,64.2,164.2,69.5z"/>
<path class="st7" d="M151.7,41.6c1.1-4,4.3-6.6,7.1-5.8c2.9,0.8,4.3,4.6,3.2,8.6c-1.1,4-4.3,6.6-7.1,5.8
	C152.1,49.5,150.6,45.6,151.7,41.6z"/>
<path class="st7" d="M170.9,54.6c-1,3.5-3.7,5.8-6.2,5.1c-2.5-0.7-3.7-4-2.8-7.5c1-3.5,3.7-5.8,6.2-5.1
	C170.6,47.7,171.8,51.1,170.9,54.6z"/>
<g>
	<linearGradient id="SVGID_3_" gradientUnits="userSpaceOnUse" x1="0" y1="65.8184" x2="342.9822" y2="65.8184">
		<stop  offset="0" style="stop-color:#F433AB"/>
		<stop  offset="1" style="stop-color:#EBE305"/>
	</linearGradient>
	<path class="st8" d="M150,6.2l2,0.5l0.5,0.1c7.5,2,35,8.1,35.3,8.2l0.6,0.1l2.5,0.6l1.7,2l0.4,0.5l9.9,11.3l1.1,1.3l4.4,5l-4.2,5.2
		l-1,1.2c0,0,0,0.1-0.1,0.1l0.9-0.3c3.3-0.9,6.5-1.7,9.9-2.4l0,0l0,0c1-0.2,2-0.4,2.9-0.5c0.5-0.1,0.9-0.1,1.3-0.2l0.1,0l0.1,0
		c3.6-0.6,6.6-1,9.3-1.1l7.9-0.5l0.6,7.9c0,0.2,0,0.5,0,0.7c1.4-0.6,2.9-1,4.4-1.2l0,0l0,0c0.6-0.1,1.2-0.1,1.7-0.1
		c2,0,4.6,0.4,7.3,1.9l0.9-2.5l4.7-0.6c1.2-0.2,2.5-0.2,4-0.2c2.3,0,4.7,0.2,6.5,0.4c0.6,0,1.1,0.1,1.5,0.1l0.1,0l0.1,0
		c3.9,0.3,6.6,1.4,8.8,2.3l0.1,0l0.1,0c2.6,1.2,4.3,2.3,5.7,3.6c1.8-1.5,3.7-2.8,5.8-3.9l0.1,0l0.1,0c1.7-0.9,3.6-1.5,6-2
		c1.3-0.2,2.7-0.4,4.3-0.4c3.7,0,6.8,1,9.2,2.8c2-0.4,5-1,7.7-1.5l0.8-0.1l0,0l0,0c0.6-0.1,1.2-0.2,1.9-0.3c1.3-0.2,2.8-0.5,4.3-0.7
		c1.1-0.2,4.9-0.7,5.7-0.7l8.4-0.8l0.4,8.4c0,0.6,0.2,5.7-1.1,11.5l-1.2,5.5l-1.4,0.2c-0.1,1.4-0.2,3.1-0.5,4.8l0.1,0.8
		c0.3,2.1,0.3,6.7-0.3,11.5l-0.8,5.8l-5.8,1c-4.1,0.7-7.1,1-9.9,1.3c-1.5,0.1-3,0.3-4.7,0.5l-0.1,0l-0.1,0c-0.6,0.1-1.2,0.1-1.9,0.2
		c-1.1,0.1-2.3,0.2-4.2,0.4l-11,1.2l0.5-2.2c-2,0.5-3.9,0.8-5.8,0.8c-1.5,0-2.9-0.2-4.3-0.5l-0.1,0l-0.1,0c-2.6-0.7-5.1-2-7.2-3.6
		c-1.5,1.1-2.9,2-4.3,2.8c-0.4,0.2-0.8,0.5-1.2,0.7l-5.5,3.2l-4.2-4.4l-0.6,0.1c-4,0.9-8.6,1.1-9.9,1.2l-8.7,0.3l0.1-2.3
		c-2.4,1.1-4.8,1.6-7.3,1.6c-1.2,0-2.1-0.1-3-0.2l-0.4-0.1l-0.2,0l-0.2,0c-4.4-0.8-8.2-3.3-10.6-7.2c-0.6-1-1.1-2-1.6-3.2
		c-0.1,0.4-0.1,0.7-0.2,1l0,0.2l-0.1,0.2c0,0.1-0.1,0.5-0.1,0.7c-0.1,0.5-0.2,1.1-0.3,1.8l-1.2,5.2l-5.3,0.8
		c-2.9,0.4-6.3,0.7-10.1,0.7h-4.3l0,0l-1.8,3.1l-0.5,0.8c-0.6,0.9-5.8,9.4-19.2,17.8c-12.8,8-23.1,10.3-24.2,10.6l-0.4,0.1l-1.7,0.4
		l-1.7-0.4l-0.4-0.1c-1.1-0.2-11.4-2.6-24.2-10.6c-13-8.1-18.3-16.3-19.1-17.6l-0.4-0.7l-1.9-3.1l1.1-3.5l0.2-0.5
		c0.1-0.7,0.6-3.9,0.4-11.3c-0.5,1.4-0.9,2.4-1.2,2.9c-0.6,1.4-1.5,2.7-2.4,4l-0.1,0.1l-0.1,0.1c-2.7,3.8-6.9,6.6-12,8.1
		c-2.7,0.9-5,1.3-7.3,1.3c-3.1,0-5.9-0.8-8.4-2.4l-0.1,0l-0.1-0.1c-0.9-0.6-1.7-1.2-2.4-1.9c-3.1,1.5-5.9,2.2-7.8,2.7
		c-0.4,0.1-0.8,0.2-1.2,0.3l-8.3,2.2l-0.4-2c-0.5,0.1-1,0.3-1.4,0.3c-0.8,0.2-1.6,0.3-2.5,0.3c-1.5,0-2.7-0.3-3.5-0.4l-0.2-0.1
		l-0.1,0l-0.1,0c-2.7-0.7-5.2-2.5-6.7-4.8c-1.6-2.6-1.9-5.4-1.7-8c-0.7,0.4-1.5,0.8-2.2,1.1c0,0.1-0.1,0.3-0.1,0.4
		c-0.3,1.4-0.6,2.8-1.1,4.5l-1.4,5.2l-5.3,0.7c-3.3,0.4-6.2,0.5-7.3,0.5c-0.9,0-1.7,0-2.3,0c-0.3,0-0.6,0-0.8,0H6.7l0.9-8.8
		c0.1-1.4,0.5-3.2,1-5.2l0.2-0.8c0.7-3.2,1.5-6.2,2.3-9.2c0.5-1.9,1-3.8,1.4-5.6l-2.5-0.2l1.9-8.9c0.7-3.2,1.7-6.7,3-10.5l1.8-5.5
		h5.8c0.5,0,1,0,1.4,0c0.4,0,0.8,0,1.2,0c2.3,0,4.7,0.1,7.9,0.7c4.4,0.8,8.5,2.4,12.1,4.7c1.2,0.7,2.2,1.5,3.1,2.4l0.3-0.1
		c0.2,0,5.8-1.1,11-1.2l3,0l0.5-0.1l0.1,0c2.1-0.4,6.6-1.3,10.7-1.3h9.9l-0.6,2.9c0.7-0.4,1.5-0.8,2.2-1.1c3-1.4,5.8-1.7,7.6-1.7
		c0.2,0,0.4,0,0.6,0c1.3,0,2.6,0.2,3.8,0.5c-0.4-0.8-0.7-1.3-0.8-1.4L95.6,41l-4.3-5.3l4.5-5.1l1.1-1.3l9.9-11.2l0.4-0.5l1.7-2
		l2.5-0.6l0.6-0.1c0.3-0.1,27.8-6.2,35.3-8.1l0.5-0.1L150,6.2 M150,0l-1.5,0.4l-2,0.5l-0.5,0.1c-7.4,1.9-34.8,8-35.1,8.1l-0.6,0.1
		l-2.5,0.6l-1.9,0.4l-1.3,1.5l-1.7,2l-0.4,0.5l-9.9,11.2l-1.1,1.3l-4.5,5.1l-3.4,3.8l1.2,1.5h-0.9h-9.9c-4.7,0-9.5,0.9-11.9,1.4
		l-0.1,0l0,0l-2.4,0c-3.6,0.1-7.2,0.5-9.5,0.9c-0.5-0.4-1-0.7-1.6-1.1c-4.2-2.7-9-4.6-14.2-5.5c-3.7-0.7-6.5-0.8-9-0.8
		c-0.4,0-0.8,0-1.3,0c-0.5,0-0.9,0-1.4,0h-5.8h-4.3l-1.4,4.1l-1.8,5.5c-1.3,4-2.4,7.7-3.1,11.1l-1.9,8.9l-1.5,6.6l2.3,0.2
		c-0.7,2.6-1.4,5.4-2,8.2l-0.2,0.8c-0.5,2.1-0.9,4.1-1.1,5.8l-0.9,8.8L0,98.7h6.7h8.9c0.1,0,0.3,0,0.4,0l0.2,0c0.6,0,1.5,0,2.5,0
		c1.2,0,4.5-0.1,8.1-0.5l5.3-0.7l4-0.5l0.3-1.2c1.9,1.5,4.1,2.6,6.5,3.2l0.1,0l0.1,0l0.1,0l0.1,0l0.2,0c0.8,0.2,2.1,0.5,3.8,0.6
		l0.5,2.8l6.2-1.7l8.3-2.2c0.3-0.1,0.6-0.1,0.9-0.2l0.1,0c1.3-0.3,3.3-0.8,5.5-1.6l0,0l0.1,0c3.4,2.3,7.4,3.4,11.7,3.4
		c2.9,0,5.8-0.5,9.1-1.5c2.5-0.8,4.8-1.8,7-3l0.2,0.3l1.9,3.1l0.4,0.7c1.1,1.8,7.1,10.9,21.1,19.6c13.4,8.3,24.1,10.9,26.1,11.4
		l0.4,0.1l1.7,0.4l1.3,0.3l1.3-0.3l1.7-0.4l0.4-0.1c2-0.4,12.7-3,26.1-11.4c14.4-8.9,20.2-18.1,21.2-19.8l0.5-0.8l0.1-0.2h0.9
		c4.2,0,7.9-0.3,11-0.7l5.3-0.8l4-0.6l0.3-1.4c2.4,1.5,5.1,2.6,8,3.1l0.2,0l0.1,0l0.1,0l0.2,0l0.4,0c0.9,0.1,2.2,0.3,3.8,0.3
		c0.3,0,0.6,0,0.9,0l0,0.9l6.6-0.2l8.7-0.3c1.5-0.1,4.7-0.2,8.2-0.8l2,2.1l3.3,3.5l4.1-2.4l5.5-3.2c0.4-0.2,0.8-0.5,1.2-0.7
		c0.4-0.3,0.9-0.5,1.4-0.8c1.8,0.9,3.6,1.7,5.6,2.2l0.1,0l0,0l0,0l0.1,0c1.3,0.3,2.6,0.6,4,0.7l-0.5,2.3l8.2-0.9l11-1.2
		c1.9-0.2,3.1-0.3,4.2-0.4c0.7-0.1,1.3-0.1,2-0.2l0.1,0l0.1,0l0.1,0l0.1,0c1.6-0.2,3.1-0.3,4.5-0.5c3-0.3,6.1-0.6,10.4-1.4l5.8-1
		l4.3-0.8l0.6-4.3l0.8-5.8c0.6-4.6,0.8-9.5,0.4-12.6l0.6-0.1l0.9-4.1l1.2-5.5c1.5-6.4,1.3-12,1.3-13.1l-0.4-8.4l-0.3-6.3l-6.3,0.6
		l-8.4,0.8c-0.9,0.1-4.7,0.6-5.9,0.8c-1.7,0.2-3.2,0.5-4.5,0.8l-0.1,0c-0.6,0.1-1.2,0.2-1.7,0.3l0,0l-0.1,0l-0.9,0.2
		c-1.9,0.3-3.8,0.7-5.4,1c-3-1.6-6.4-2.5-10.4-2.5c-2,0-3.7,0.2-5.4,0.5c-3,0.6-5.4,1.4-7.7,2.6l-0.1,0l-0.1,0l-0.1,0l-0.1,0
		c-1,0.6-2,1.1-3,1.8c-0.9-0.5-1.9-1.1-3.1-1.6l-0.1,0l-0.1,0l-0.1,0l-0.1,0c-2.5-1.1-5.9-2.4-10.7-2.8l-0.1,0l-0.1,0l-0.1,0l-0.1,0
		c-0.4,0-0.8-0.1-1.3-0.1l-0.1,0c-1.9-0.2-4.4-0.4-7-0.4c-1.7,0-3.3,0.1-4.8,0.3L250,38l-3.5,0.5l-0.2,0.4c-1.2-0.2-2.5-0.3-3.8-0.3
		c-0.2,0-0.5,0-0.7,0l-0.1-1.8l-0.5-5.9l-5.9,0.4l-7.9,0.5c-2.9,0.2-6.1,0.6-9.9,1.2l-0.1,0l0,0l0,0l-0.1,0
		c-0.4,0.1-0.8,0.1-1.2,0.2l-0.1,0c-0.5,0.1-1,0.2-1.6,0.3l-1.4-1.6l-4.4-5l-1.1-1.3l-9.9-11.3l-0.4-0.5l-1.7-2l-1.3-1.5l-1.9-0.4
		l-2.5-0.6l-0.6-0.1C188,8.9,161.3,3,154,1.1l-0.5-0.1l-2-0.5L150,0L150,0z"/>
</g>
<path class="st2" d="M217.1,64c-0.8,0.2-1.3,0.3-2,0.4c0-0.2,0.1-0.3,0.1-0.5c0.8,0,1.5,0,2.3,0C217.4,64,217.3,64,217.1,64z"/>
<path class="st2" d="M265.5,65.6c-0.9,0.4-1.8,0.7-2.5,0.8c0-0.2,0.1-0.5,0.2-0.9C264,65.5,264.7,65.6,265.5,65.6z"/>
<path class="st1" d="M45.3,55.5c-0.8-2.5-2.5-4.1-4.6-5.4c-2.8-1.8-5.9-3-9.2-3.5c-3.4-0.6-5.5-0.5-9.1-0.5
	c-0.5,1.6-1.8,5.5-2.7,9.7c0.6,0.1,1.5,0.2,2.3,0.2c-0.5,4.1-1.5,8.2-2.5,12.2c7-0.6,14.5-1.1,22.3-1.5c1.5-1.5,2.6-3,3.2-4.6
	c0.2-0.6,0.4-1.3,0.6-1.9C45.9,58.6,45.8,56.9,45.3,55.5z M36.1,60.9c-0.2,1.6-4.6,4.2-5.9,4.8c-0.3,0.2-0.9,0.4-1.2,0.5
	c0.4-3.2,1.2-6.4,2-9.3c1.8,0.7,3.5,1.3,4.8,2.5C36.1,60,36.2,60.2,36.1,60.9z"/>
<path class="st9" d="M41.8,66.6c-4,4-10.5,7.4-14.8,9.3c-0.8,3.1-1.2,5.3-2,8.5c-2.2,0.3-4.6,0.4-6.3,0.4c-1.3,0-2.4-0.1-3.1-0.1
	c0.1-1.1,0.6-3.2,1-5.1c0.8-3.9,1.9-7.7,2.9-11.5C26.4,67.6,33.9,67.1,41.8,66.6z"/>
<path class="st1" d="M64.5,52.2c-0.7,2.1-1.4,4.8-1.9,7.4c-0.5,2.3-0.9,4.5-1.2,6c3-0.1,6.1-0.3,9.2-0.4c1.1-4.8,2.3-10,3.3-14.1
	C70.4,51.1,66.3,51.9,64.5,52.2z M48.4,61.1c-0.1,0.8-0.6,2.8-1.2,5.3c3-0.2,6-0.3,9.1-0.5c0.7-3,2.4-10.6,3.3-13.3
	c-3.7,0.1-8.1,0.8-9.6,1C50,53.8,48.4,60.8,48.4,61.1z"/>
<path class="st9" d="M70.3,66.4c-1.2,5.8-2.3,9.5-2,15.3c-3.8,2.3-7,2.8-9.4,3.4c-0.2-1.2-0.2-2.4-0.4-3.8c-2.7,1.8-6.2,3.7-9.3,4.3
	c-1,0.2-2,0-2.8-0.2c-0.7-0.2-1.5-0.7-1.8-1.3c-1.1-1.8-0.4-4.9,0.1-7c0.2-1,1.6-6.5,2.6-10.9c3-0.2,6-0.3,9.1-0.5
	c0,0.2-0.1,0.4-0.1,0.6c-0.5,2.3-1.4,5.5-1.8,7.8c1-0.5,2.3-1.3,3.3-1.9c1-0.7,1.6-1.1,2.7-1.9c0.3-1.2,0.5-2.7,0.8-3.9
	c0.1-0.3,0.1-0.6,0.2-1c3-0.1,6.1-0.3,9.2-0.4C70.4,65.6,70.3,66,70.3,66.4z"/>
<path class="st1" d="M97.3,52.3c-1-0.9-2.6-1.3-4-1.2c-1.6,0.1-3.1,0.3-4.6,1c-0.8,0.3-1.6,0.8-2.4,1.2c-3.1,1.9-5.3,4-7.7,6.9
	c-0.8,1.1-2.4,3.3-3.3,4.8c3.2-0.1,6.4-0.2,9.6-0.3c1-1.3,2.1-2.4,2.7-3c0,0,1.4-1.5,2.3-1.8l-0.9,4.7v0c0.2,0,0.5,0,0.9,0
	c0.1,0,0.3,0,0.4,0c1.8-0.1,4.5-0.3,7.1-1c0.3-1.1,0.8-2.9,1.1-4.3c0.2-1.2,0.4-2.2,0.5-2.5C99.1,55.3,98.7,53.5,97.3,52.3z"/>
<path class="st9" d="M96.7,73.2c-0.5,2.5-1.3,4.1-1.3,4.1c-0.4,0.9-1.2,2.1-1.8,3c-1.9,2.7-4.9,4.3-7.9,5.2c-3,1-6.3,1.5-8.9-0.2
	c-0.8-0.5-1.6-1.2-2.1-1.9c-1.5-1.7-2.2-3.5-2.8-5.9c-0.4-1.6-0.1-3.6,0.3-5.5c0.6-2,1.6-4.7,2.7-6.4c0.1-0.2,0.2-0.3,0.3-0.5
	c3.2-0.1,6.4-0.2,9.6-0.3c-0.9,1.1-1.8,2.4-2.4,3.8c-0.5,0.9-1.6,3.8-1.6,4.7c-0.1,0.8,0.1,1.5,0.3,2.1c0.4,1.2,1.5,2.5,2.7,2.6
	c0.6,0.1,2-0.2,2.6-0.8c0.7-0.6,1.3-1.7,1.3-2.5c-1.2,0.1-2.3,0.5-3.5,0.6c0.1-1.3,0.4-2.7,0.7-4.1c0.2-1.3,0.6-2.5,0.8-3.4
	c1.8-0.3,5.7-0.8,6.8-0.8c2.3-0.1,4.5-0.2,4.5-0.2C97.3,69.2,97.1,71.4,96.7,73.2z"/>
<path class="st1" d="M228.3,45.7c-2.7,0.2-5.7,0.6-8.5,1c-1.3,0.2-2.6,0.4-4,0.7c-3.2,0.7-6.3,1.5-9.5,2.3c-0.4,2.8-0.5,7.6-0.5,9.2
	c0.8-0.2,1.5-0.4,2.3-0.6c-0.5,1.5-0.9,3.1-1.2,4.7c0,0.2-0.1,0.4-0.1,0.7c2.8,0.1,5.7,0.1,8.5,0.2c0.1-0.3,0.2-0.7,0.3-1
	c0.5-1.7,0.9-3.5,1.5-5.2c0.1-0.6,0.3-1,0.5-1.6c0.6-0.1,1.2-0.2,1.9-0.3c2.8-0.2,5.5-0.6,8.5-1.1C228.3,51.2,228.4,47.2,228.3,45.7
	z M217.5,64c2.3,0.1,4.5,0.1,6.7,0.2c0-0.5,0-0.9,0-1.3c-0.7,0-1.9,0.2-2.5,0.3C220.3,63.3,218.9,63.6,217.5,64z"/>
<path class="st9" d="M224.2,64.1c-0.1,1.7-0.3,4.1-0.9,7c-3.4,1.2-6.9,1.2-10.2,2.1c-0.6,2.7-1,5.3-1.7,8c-0.3,1-0.3,2-0.6,3
	c-2.9,0.5-6.3,0.6-8.9,0.6c0.3-1.9,0.7-3.8,1.1-5.7c0.4-2.4,2.9-12.2,3.6-15.4c2.8,0.1,5.7,0.1,8.5,0.2c0,0.2-0.1,0.3-0.1,0.5
	c0.7-0.1,1.3-0.2,2-0.4c0.1,0,0.2-0.1,0.4-0.1C219.8,64,222,64.1,224.2,64.1z"/>
<path class="st1" d="M250.8,60.8c-0.2-1.8-1-3.9-2.1-5.2c-1.6-1.9-3.9-3.5-7.1-3.1c-3.8,0.5-8,4-10.3,7c-1.4,1.8-2.3,3.2-2.9,4.7
	c3,0.1,6,0.2,8.9,0.3c0.6-1.1,1.3-2.1,2.4-2.7c1.6-0.8,2.1,1.1,2.3,2.8c3,0.1,6,0.2,8.9,0.3C251,63.6,250.9,62.3,250.8,60.8z"/>
<path class="st9" d="M250.8,65c-0.1,1.1-0.3,2.3-0.7,3.7c-0.3,1.3-1,3.8-2,5.7c-0.9,1.7-1.8,3.2-3.1,4.8c-1.3,1.6-2.6,2.8-4.3,3.9
	c-1.8,1.2-3.5,1.6-5.3,1.6c-0.8,0-1.5-0.1-2.3-0.2c-6.2-1.1-8.2-8.5-6.4-15.1c0.5-2,1-3.6,1.7-5.1c3,0.1,6,0.2,8.9,0.3
	c-0.4,0.7-0.7,1.4-1.1,2c-0.4,0.8-0.6,1.6-0.8,2.5c-0.2,1.2-0.4,2.4-0.5,3.5c0,1.1,0.5,4.1,2.2,3.5c1.6-0.6,2.8-3.5,3.5-4.9
	c0.6-1,0.8-2.1,1-3.2c0.1-0.5,0.2-1,0.2-1.5c0.1-0.4,0.1-1.1,0-1.9C244.9,64.8,247.9,64.9,250.8,65z"/>
<path class="st1" d="M278.4,56.9c-1.5-1.6-2.4-2.4-5.2-3.7c-1.9-0.8-3.7-1.5-6.3-1.7c-1.7-0.1-4.8-0.5-7.5-0.5c-1,0-2,0.1-2.9,0.2
	c-0.6,1.5-1.6,5.1-2.5,9c0.9,0,1.6,0,2.2,0c-0.1,0.3-0.6,2.5-0.8,2.8c-0.2,0.7-0.4,1.4-0.5,2.1c2.8,0.1,5.5,0.2,8.2,0.4
	c0.3-1.6,0.8-4.2,1-5.1c1.6-0.3,7.8,0.7,4.8,3.1c-0.9,0.8-2,1.4-3.1,2c-0.1,0.1-0.2,0.1-0.4,0.2c3.9,0.2,7.6,0.4,11.3,0.6h0
	c1.5-1.6,2.6-3.4,2.8-5.2C279.9,59.2,279.5,58.2,278.4,56.9z"/>
<path class="st9" d="M270.2,71.2c0.2,0.6,0.3,1.2,0.6,1.8c0.8,1.7,1.7,3.3,2.8,4.8l1.9,2.3c-2.7,3.1-4.9,4.1-8,6
	c-1.2-1.2-1.8-2.1-2.5-3.4c-1-1.6-1.7-3-2.6-5.3c-0.2-0.6-0.3-1.4-0.5-2.1c-0.5,0.1-0.6,0.2-1,0.3c-0.6,2-0.6,2.8-1,4.9
	c-0.2,1.2-0.4,3-0.4,3.6c-3.1,0.7-6.9,0.9-8.4,1c0-1.1,0.8-5.3,1-6.4c1-4.5,1.7-8.9,2.9-13.6c2.8,0.1,5.5,0.2,8.2,0.4
	c-0.1,0.4-0.1,0.7-0.2,0.9c0.7-0.2,1.6-0.4,2.5-0.8c0,0,0,0,0,0c3.9,0.2,7.6,0.4,11.3,0.6C274.8,68.3,272.2,70.1,270.2,71.2z"/>
<path class="st1" d="M302.9,52.3c-1-0.9-2.6-1.2-4.3-1.2c-0.9,0-1.9,0.1-2.8,0.2c-1.2,0.2-2.6,0.6-3.8,1.2c-3.7,2-7,4.9-9.3,8.3
	c-1.1,1.4-2.1,3.3-3,5.4c3,0.2,5.8,0.3,8.7,0.5c0.6-1.3,1.6-2.8,2.6-3.7c0.9-0.8,2.3-2,3.4-2.3c-0.2,1.4-0.7,4.3-1.1,6.3
	c-0.1,0.4-0.2,0.8-0.2,1.2c0.4,0,1,0,1.8,0c1.8,0,4.4-0.1,6.8-0.5c0,0,0-0.1,0.1-0.1c0.4-1.1,1-3.9,1.4-5.4c0.5-1.9,0.8-3.2,1.1-5.1
	C304.6,55.2,304.3,53.5,302.9,52.3z"/>
<path class="st9" d="M300.4,81.4c-3.9,2.4-9.4,5.1-14,3.9c-4.1-1.1-7.4-4.1-8.5-8.1c-0.5-1.6-0.4-3.6,0.1-5.8
	c0.4-1.7,0.9-3.4,1.6-5.1h0c3,0.2,5.8,0.3,8.7,0.5c-0.1,0.2-0.2,0.4-0.3,0.6c-0.2,0.5-0.5,1.4-0.6,2.2c-0.3,1.7-0.5,3.6,0.2,4.4
	c0.9,1.1,2.4,1.7,3.9,1.8c1.7,0.1,3.2-0.7,4.9-1.3c0.1,0,2.4-1,2.4-1C299.4,75,300.5,78.1,300.4,81.4z"/>
<path class="st1" d="M328,59.9c0.9-4.1,1-8,0.9-9.3c-0.6,0.1-4.6,0.6-5.3,0.7c-2.1,0.3-4.3,0.8-6,1c-1.6,0.3-7.1,1.2-9,1.7
	c0,0-0.7,1.5-1.3,4.6c-0.3,1.4-0.6,3.2-0.9,5.3l2.6-0.5c-0.4,1.4-0.8,3.3-1.2,4.8c6.1,0.5,11.8,1,17.2,1.5c0.3-2.4,0.3-4.7,0.3-5.6
	c-2.8,0.5-4.5,0.8-7.8,1.3l0.9-4C318.9,61.3,327.1,60,328,59.9z"/>
<path class="st9" d="M324.6,83.4c-5.9,1-9.1,1.1-14.2,1.7c-1.6,0.2-3.1,0.3-6.2,0.6l2.3-10.7c0.5-2.1,0.9-4.4,1.3-6.6
	c0-0.1,0-0.2,0.1-0.3c6.1,0.5,11.8,1,17.2,1.5c-0.1,0.6-0.2,1.2-0.3,1.8c-1.5,0.3-4.3,0.9-5.6,1.2c-0.8,0.2-2.6,0.5-3.7,0.9
	c-0.2,1-0.3,1.5-0.5,2.4c1.5-0.1,3-0.4,4.5-0.7l5.5-1.1C325.1,75.3,325.2,79.1,324.6,83.4z"/>
<path class="st2" d="M156.9,90.9l-3.2,3.1l0.8,4.4c0,0.2,0,0.3-0.2,0.4c-0.1,0.1-0.3,0.1-0.4,0l-3.9-2V85.3c0.2,0,0.3,0.1,0.4,0.2
	l2,4l4.4,0.6c0.2,0,0.3,0.1,0.3,0.3C157.1,90.6,157,90.8,156.9,90.9z"/>
<path class="st7" d="M156.9,90.9l-3.2,3.1l0.8,4.4c0,0.2,0,0.3-0.2,0.4c-0.1,0.1-0.3,0.1-0.4,0l-3.9-2V85.3c0.2,0,0.3,0.1,0.4,0.2
	l2,4l4.4,0.6c0.2,0,0.3,0.1,0.3,0.3C157.1,90.6,157,90.8,156.9,90.9z"/>
<g class="st10">
	<g>
		<path class="st1" d="M170.3,86.9c0-0.1-0.1-0.2-0.2-0.2l-3.1-0.4l-1.4-2.8c0-0.1-0.1-0.2-0.3-0.2s-0.2,0.1-0.3,0.2l-1.4,2.8
			l-3.1,0.4c-0.1,0-0.2,0.1-0.2,0.2c0,0.1,0,0.2,0.1,0.3l2.2,2.2l-0.5,3c0,0.1,0,0.2,0.1,0.3c0.1,0,0.1,0.1,0.2,0.1c0,0,0.1,0,0.1,0
			l2.7-1.4l2.7,1.4c0.1,0.1,0.2,0,0.3,0c0.1-0.1,0.1-0.2,0.1-0.3l-0.5-3l2.2-2.2C170.3,87.1,170.4,87,170.3,86.9z"/>
	</g>
</g>
</svg>
