<?xml version="1.0" encoding="utf-8"?>
<!-- Generator: Adobe Illustrator 24.1.2, SVG Export Plug-In . SVG Version: 6.00 Build 0)  -->
<!DOCTYPE svg PUBLIC "-//W3C//DTD SVG 1.1//EN" "http://www.w3.org/Graphics/SVG/1.1/DTD/svg11.dtd" [
	<!ENTITY ns_extend "http://ns.adobe.com/Extensibility/1.0/">
	<!ENTITY ns_ai "http://ns.adobe.com/AdobeIllustrator/10.0/">
	<!ENTITY ns_graphs "http://ns.adobe.com/Graphs/1.0/">
	<!ENTITY ns_vars "http://ns.adobe.com/Variables/1.0/">
	<!ENTITY ns_imrep "http://ns.adobe.com/ImageReplacement/1.0/">
	<!ENTITY ns_sfw "http://ns.adobe.com/SaveForWeb/1.0/">
	<!ENTITY ns_custom "http://ns.adobe.com/GenericCustomNamespace/1.0/">
	<!ENTITY ns_adobe_xpath "http://ns.adobe.com/XPath/1.0/">
]>
<svg version="1.1" id="Layer_1" xmlns:x="&ns_extend;" xmlns:i="&ns_ai;" xmlns:graph="&ns_graphs;"
	 xmlns="http://www.w3.org/2000/svg" xmlns:xlink="http://www.w3.org/1999/xlink" x="0px" y="0px" viewBox="0 0 28 23"
	 style="enable-background:new 0 0 28 23;" xml:space="preserve">
<style type="text/css">
	.st0{fill-rule:evenodd;clip-rule:evenodd;fill:#1DA1F2;}
</style>
<metadata>
	<sfw  xmlns="&ns_sfw;">
		<slices></slices>
		<sliceSourceBounds  bottomLeftOrigin="true" height="23" width="28" x="0" y="0"></sliceSourceBounds>
	</sfw>
</metadata>
<path class="st0" d="M28,2.7c-1,0.5-2.1,0.8-3.3,0.9c1.2-0.7,2.1-1.9,2.5-3.2c-1.1,0.7-2.3,1.1-3.6,1.4C22.5,0.7,21,0,19.4,0
	c-3.2,0-5.7,2.6-5.7,5.8c0,0.5,0,0.9,0.1,1.3C9,6.9,4.8,4.6,2,1.1C0,4.7,2.2,7.8,3.7,8.8c-0.9,0-1.8-0.3-2.6-0.7
	c0,2.9,2,5.2,4.6,5.8C5.2,14,3.9,14.1,3.1,14c0.7,2.3,2.9,4,5.4,4c-2,1.6-4.8,2.8-8.5,2.4C2.6,22.1,5.7,23,8.8,23
	c10.6,0,16.3-8.8,16.3-16.5c0-0.2,0-0.5,0-0.7C26.3,4.9,27.3,3.9,28,2.7z"/>
</svg>
