<svg xmlns="http://www.w3.org/2000/svg" xmlns:xlink="http://www.w3.org/1999/xlink" viewBox="0 0 311.96 228.81"><defs><style>.cls-1{fill:none;}.cls-2{isolation:isolate;}.cls-3{clip-path:url(#clip-path);}.cls-4,.cls-42{fill:#fff;}.cls-5{fill:#f5f5f5;}.cls-6{clip-path:url(#clip-path-2);}.cls-7{fill:#3a78dd;}.cls-10,.cls-8{fill:#1ee5ce;}.cls-9{clip-path:url(#clip-path-3);}.cls-10{fill-rule:evenodd;}.cls-11{clip-path:url(#clip-path-5);}.cls-12{fill:#515050;}.cls-13{clip-path:url(#clip-path-6);}.cls-14{fill:#5386e4;}.cls-15{fill:#eb6a62;}.cls-16{fill:#c08055;}.cls-17{fill:#ffc6b0;}.cls-18{fill:#ffa795;}.cls-19{fill:#f97a73;}.cls-20{fill:#f3e7db;}.cls-21{fill:#a86d3c;}.cls-22{clip-path:url(#clip-path-7);}.cls-23{fill:#674f3f;}.cls-24{fill:#ea9572;}.cls-25{fill:#db7d50;}.cls-26{fill:#4d311d;}.cls-27{fill:#fff1dd;}.cls-28{fill:#dddde0;}.cls-29{fill:#75b0b4;}.cls-30{fill:#5792a4;}.cls-31{clip-path:url(#clip-path-8);}.cls-32{fill:#654f3f;}.cls-33{fill:#f3eff1;}.cls-34{fill:#d7cad1;}.cls-35{fill:#e69574;}.cls-36{fill:#d77b52;}.cls-37{fill:#6b9789;}.cls-38{fill:#518574;}.cls-39{fill:#d7bf52;}.cls-40{fill:#4e3523;}.cls-41{font-size:2.01px;fill:#8d19e0;font-family:Code-Pro-LC, Code Pro LC;letter-spacing:-0.03em;}.cls-42{letter-spacing:-0.03em;}.cls-43{fill:url(#Безымянный_градиент_32);}.cls-44,.cls-46{mix-blend-mode:multiply;}.cls-45{fill:url(#linear-gradient);}.cls-46{fill:url(#linear-gradient-2);}</style><clipPath id="clip-path"><path class="cls-1" d="M60.3,44.54H248.76a4.85,4.85,0,0,1,4.92,4.86V168.08a4.87,4.87,0,0,1-4.92,4.92H60.3a4.9,4.9,0,0,1-4.92-4.92V49.4a4.89,4.89,0,0,1,4.92-4.86Z"/></clipPath><clipPath id="clip-path-2"><rect class="cls-1" x="63" y="91.82" width="120.9" height="74.1"/></clipPath><clipPath id="clip-path-3"><rect class="cls-1" x="176.58" y="160.64" width="3.96" height="3.9"/></clipPath><clipPath id="clip-path-5"><rect class="cls-1" x="33.18" y="49.7" width="243.72" height="137.64"/></clipPath><clipPath id="clip-path-6"><path class="cls-1" d="M215.64,164.06a27.15,27.15,0,1,1-27.12,27.18,27.12,27.12,0,0,1,27.12-27.18Z"/></clipPath><clipPath id="clip-path-7"><path class="cls-1" d="M35.28,44.6a26,26,0,1,1-26,26,25.91,25.91,0,0,1,26-26Z"/></clipPath><clipPath id="clip-path-8"><path class="cls-1" d="M256.08,11.3a36.84,36.84,0,1,1-36.84,36.84A36.77,36.77,0,0,1,256.08,11.3Z"/></clipPath><linearGradient id="Безымянный_градиент_32" x1="172.91" y1="95.4" x2="170.56" y2="93.05" gradientUnits="userSpaceOnUse"><stop offset="0" stop-color="#aa2afc"/><stop offset="1" stop-color="#5f009e"/></linearGradient><linearGradient id="linear-gradient" x1="172.42" y1="94.78" x2="171.85" y2="94.45" gradientUnits="userSpaceOnUse"><stop offset="0" stop-color="#0d2b85"/><stop offset="1" stop-color="#fff"/></linearGradient><linearGradient id="linear-gradient-2" x1="171.52" y1="95.23" x2="170.96" y2="94.71" xlink:href="#linear-gradient"/></defs><title>advertisers-features-4_vv</title><g class="cls-2"><g id="Слой_1" data-name="Слой 1"><g class="cls-3"><rect class="cls-4" x="55.35" y="52.17" width="198.36" height="130.46"/><path class="cls-5" d="M63.9,52.28H183.18a.79.79,0,0,1,.78.78v3.12a.74.74,0,0,1-.78.72H63.9a.74.74,0,0,1-.78-.72V53.06a.79.79,0,0,1,.78-.78Z"/><path class="cls-5" d="M187.86,52.28h57.3a.79.79,0,0,1,.78.78v3.12a.74.74,0,0,1-.78.72h-57.3a.71.71,0,0,1-.78-.72V53.06a.76.76,0,0,1,.78-.78Z"/><path class="cls-5" d="M187.86,140.6h57.3a.76.76,0,0,1,.78.78v3.06a.79.79,0,0,1-.78.78h-57.3a.76.76,0,0,1-.78-.78v-3.06a.72.72,0,0,1,.78-.78Z"/><path class="cls-5" d="M187.86,59.24h57.3a.79.79,0,0,1,.78.78v3.12a.79.79,0,0,1-.78.78h-57.3a.76.76,0,0,1-.78-.78V60a.76.76,0,0,1,.78-.78Z"/><path class="cls-5" d="M187.86,147.56h57.3a.79.79,0,0,1,.78.78v3.06a.79.79,0,0,1-.78.78h-57.3a.76.76,0,0,1-.78-.78v-3.06a.76.76,0,0,1,.78-.78Z"/><path class="cls-5" d="M187.86,66.2h57.3a.79.79,0,0,1,.78.78V70.1a.79.79,0,0,1-.78.78h-57.3a.76.76,0,0,1-.78-.78V67a.76.76,0,0,1,.78-.78Z"/><path class="cls-5" d="M187.86,154.52h57.3a.79.79,0,0,1,.78.78v3.12a.74.74,0,0,1-.78.72h-57.3a.71.71,0,0,1-.78-.72V155.3a.76.76,0,0,1,.78-.78Z"/><path class="cls-5" d="M187.86,73.22h57.3a.74.74,0,0,1,.78.72v3.12a.79.79,0,0,1-.78.78h-57.3a.76.76,0,0,1-.78-.78V73.94a.71.71,0,0,1,.78-.72Z"/><path class="cls-5" d="M187.86,161.48h57.3a.79.79,0,0,1,.78.78v3.12a.79.79,0,0,1-.78.78h-57.3a.76.76,0,0,1-.78-.78v-3.12a.76.76,0,0,1,.78-.78Z"/><path class="cls-5" d="M187.86,80.18h57.3a.76.76,0,0,1,.78.78V84a.79.79,0,0,1-.78.78h-57.3a.76.76,0,0,1-.78-.78V81a.72.72,0,0,1,.78-.78Z"/><path class="cls-5" d="M187.86,168.44h57.3a.79.79,0,0,1,.78.78v3.12a.79.79,0,0,1-.78.78h-57.3a.76.76,0,0,1-.78-.78v-3.12a.76.76,0,0,1,.78-.78Z"/><path class="cls-5" d="M187.86,87.14h57.3a.79.79,0,0,1,.78.78V91a.76.76,0,0,1-.78.78h-57.3a.72.72,0,0,1-.78-.78V87.92a.76.76,0,0,1,.78-.78Z"/><path class="cls-5" d="M187.86,96.44h57.3a.79.79,0,0,1,.78.78v37.92a.79.79,0,0,1-.78.78h-57.3a.76.76,0,0,1-.78-.78V97.22a.76.76,0,0,1,.78-.78Z"/><path class="cls-5" d="M63.9,59.24H183.18A.79.79,0,0,1,184,60v3.12a.79.79,0,0,1-.78.78H63.9a.79.79,0,0,1-.78-.78V60a.79.79,0,0,1,.78-.78Z"/><path class="cls-5" d="M63.9,66.2H183.18A.79.79,0,0,1,184,67V70.1a.79.79,0,0,1-.78.78H63.9a.79.79,0,0,1-.78-.78V67a.79.79,0,0,1,.78-.78Z"/><path class="cls-5" d="M63.9,73.22H183.18a.74.74,0,0,1,.78.72v3.12a.79.79,0,0,1-.78.78H63.9a.79.79,0,0,1-.78-.78V73.94a.74.74,0,0,1,.78-.72Z"/><path class="cls-5" d="M63.9,80.18H183.18A.76.76,0,0,1,184,81V84a.79.79,0,0,1-.78.78H63.9a.79.79,0,0,1-.78-.78V81a.76.76,0,0,1,.78-.78Z"/><path class="cls-5" d="M63.9,87.14h57.3a.76.76,0,0,1,.78.78V91a.72.72,0,0,1-.78.78H63.9a.76.76,0,0,1-.78-.78V87.92a.79.79,0,0,1,.78-.78Z"/><path class="cls-5" d="M63.9,168.5H183.18a.76.76,0,0,1,.78.78v3.06a.79.79,0,0,1-.78.78H63.9a.79.79,0,0,1-.78-.78v-3.06a.76.76,0,0,1,.78-.78Z"/></g><g class="cls-6"><rect x="63" y="97.52" width="120.9" height="68.4"/><rect class="cls-7" x="63" y="104.18" width="121.08" height="54.84"/><rect class="cls-4" x="78.42" y="128.92" width="14.46" height="9.42"/><path class="cls-8" d="M85.68,121.9l-9.3,3.36v7.5c0,8.46,9,10.8,9.06,10.8l.24.06.18-.06c.06,0,9.06-2.34,9.06-10.8v-7.5ZM84.12,137l-3.66-3.66,1.08-1.08,2.58,2.52,5.64-5.64,1.08,1.14Z"/></g><g class="cls-9"><path class="cls-4" d="M177.18,161.18a.11.11,0,0,0,0,.18l.6.6-.06.06h-.48a.19.19,0,0,0-.18.18v.66a.19.19,0,0,0,.18.18h.48l.54.54c.12.06.3,0,.3-.12v-.72l.66.72a.45.45,0,0,1-.24.12c-.06.06-.12.12-.12.18s.12.18.24.12l.36-.18.24.18a.11.11,0,0,0,.18,0c.12-.06.12-.12,0-.24l-2.46-2.46a.18.18,0,0,0-.24,0Zm2.52,1.32c0,.18-.06.3-.06.42l.24.24a2.16,2.16,0,0,0,.12-.66,1.35,1.35,0,0,0-1-1.32c-.06-.06-.18,0-.18.12h0c0,.06.06.12.12.18a1.1,1.1,0,0,1,.72,1Zm-1.44-1v.06l.3.3v-.24c0-.12-.18-.18-.3-.12Zm1,1a.91.91,0,0,0-.42-.66v.3l.42.42v-.06Z"/></g><g class="cls-6"><path class="cls-10" d="M63,165.32h41a.3.3,0,1,1,0,.6H63Z"/><path d="M169.14,93.38a1.59,1.59,0,0,1,1.56-1.56h11.76A1.59,1.59,0,0,1,184,93.38v4.14H169.14Z"/></g><g class="cls-11"><path d="M253.26,49.7H56.82a8,8,0,0,0-8,8V169.1a8,8,0,0,0,8,8H253.26a8,8,0,0,0,8-8V57.68a8,8,0,0,0-8-8ZM56.64,169.58V57.2h196.8V169.58Z"/><path class="cls-12" d="M33.18,177v4.86c0,3,4.92,5.46,10.92,5.46H266c6,0,10.92-2.4,10.92-5.46V177Z"/><path class="cls-4" d="M141.6,177.08v.72c0,.42.54.78,1.2.78h24.48c.66,0,1.2-.36,1.2-.78v-.72Z"/></g><g class="cls-13"><path class="cls-14" d="M215.64,164.06a27.15,27.15,0,1,1-27.12,27.18,27.12,27.12,0,0,1,27.12-27.18Z"/><path class="cls-1" d="M215.64,164.06a27.15,27.15,0,1,1-27.12,27.18,27.12,27.12,0,0,1,27.12-27.18Z"/><path class="cls-15" d="M225.54,198.62c0,1.56-4.44,6.6-10,6.6s-9.9-5-9.9-6.6,4.44-2.88,9.9-2.88,10,1.26,10,2.88Z"/><path class="cls-16" d="M207,194.6l-.12-.36a2.44,2.44,0,0,0,1.2-.84,2.31,2.31,0,0,0,.66-1.32l.36.06a3.19,3.19,0,0,1-.72,1.5,3.8,3.8,0,0,1-1.38,1Z"/><path class="cls-16" d="M224.4,194.78a4.9,4.9,0,0,1-2.16-2.82l.3-.06a4.63,4.63,0,0,0,2,2.58Z"/><path class="cls-16" d="M213.18,170.12a5.64,5.64,0,0,1,4.62-.12,4.54,4.54,0,0,1,2.76,3.18,2.35,2.35,0,0,1-.06,1.44,3.25,3.25,0,0,1-1.56,1.68,7.18,7.18,0,0,1-6.36.12A3.09,3.09,0,0,1,211,172.7a4.09,4.09,0,0,1,2.22-2.58Z"/><path class="cls-16" d="M225.06,188.36c2.1-9-3.48-12.9-9.48-12.9s-11.52,3.9-9.48,12.9Z"/><polygon class="cls-17" points="219.24 196.88 212.1 196.88 211.74 202.04 215.7 206.06 219.66 202.04 219.24 196.88"/><path class="cls-18" d="M212.1,196.88l-.24,3.66s5.58-1.2,7.38-3.66Z"/><path class="cls-17" d="M223,185c0,1.5,0,2.88.06,3.48.06,2.34-.18,5.7-3.12,8a7.56,7.56,0,0,1-4.26,1.86,8.08,8.08,0,0,1-4.5-1.86c-2.88-2.28-3.12-5.64-3.06-8,0-.6.06-2.22.12-3.84.06-2.4,2.58-4.92,7.44-4.92s7.32,3,7.32,5.28Z"/><path class="cls-16" d="M213.36,186.32h-.06a3.51,3.51,0,0,0-2.22,0h-.18c-.06-.06-.06-.12-.12-.18V186c.06-.06.12-.12.18-.12a4.5,4.5,0,0,1,2.52,0c.06,0,.06.06.12.12a.22.22,0,0,1,.06.18l-.12.12a.22.22,0,0,1-.18.06Z"/><path class="cls-16" d="M220.32,186.32h-.06a3.51,3.51,0,0,0-2.22,0h-.18c-.06-.06-.06-.12-.12-.18V186c.06-.06.12-.12.18-.12a4.5,4.5,0,0,1,2.52,0c.06,0,.06.06.12.12s.06.12.06.18l-.12.12a.22.22,0,0,1-.18.06Z"/><path class="cls-17" d="M225.06,188.24a1.68,1.68,0,0,0-2.28-1l-.36,5.88c1.56-1,3.18-2.88,2.64-4.92Z"/><path class="cls-17" d="M208.44,187.28a1.66,1.66,0,0,0-2.28,1c-.54,2,1.08,3.9,2.64,4.92Z"/><path class="cls-16" d="M214.74,185.84c-2.88-2.16-2.16-6.66-2.1-6.84l.3.06c0,.06-.72,4.5,2,6.54Z"/><path class="cls-16" d="M208.2,187.16a32.5,32.5,0,0,0,4.5-7s-2-1-4,1.74a4.8,4.8,0,0,0-.48,5.28Z"/><path class="cls-16" d="M212.7,180.14a11.56,11.56,0,0,1,10.38,7s3.6-8.88-5.34-8.52-5,1.56-5,1.56Z"/><path class="cls-16" d="M218.94,176.42a3.3,3.3,0,0,1-1.92-.6l.24-.3a2,2,0,0,0,1.14.54,3,3,0,0,0,1.26-.06,2.4,2.4,0,0,0,1.08-.6,2.22,2.22,0,0,0,.78-1l.3.18a3.73,3.73,0,0,1-.84,1.14,2.74,2.74,0,0,1-2,.72Z"/><path class="cls-19" d="M235.74,216c-1.8-8-6.18-11.28-8.82-12.6,0-.06-.06-.12-.06-.18l-.24.06a7.29,7.29,0,0,0-1.74-.66l-.18,1.08-9.36,2.16-9.66-3.24a33.94,33.94,0,0,0-6.54,4.32c-1.38,1.26-3.84,7-3.84,11.34H236a9.91,9.91,0,0,0-.3-2.28Z"/><path class="cls-15" d="M201.6,210.92h-.36c-.06,1.2-.3,3.48-.6,5.94a11.65,11.65,0,0,0-.12,1.44h.3c.06-.48.12-1,.18-1.38.3-2.58.54-4.8.6-6Z"/><path class="cls-15" d="M230.4,216.86c-.3-2.46-.54-4.74-.6-5.94h-.3c0,1.2.24,3.42.54,6,.06.42.12.9.18,1.38h.36l-.18-1.44Z"/><path class="cls-19" d="M223.26,196.1a9.55,9.55,0,0,0-2.52-.36,4.13,4.13,0,0,1-.78.66,4.2,4.2,0,0,1-.6.48c5,.12,7.38,1.62,3.9,3.18s-7.92,5.58-7.92,5.58-.66.54,2.64.78,10.2-2.46,10.5-4.86-.84-4.38-5.22-5.46Z"/><path class="cls-19" d="M210.48,195.74a7.9,7.9,0,0,0-2.34.36c-4.44,1.08-5.58,3.06-5.28,5.46s7.26,5.1,10.5,4.86,2.88-.84,2.88-.84-4.56-4-8.1-5.52-1.2-3.06,3.72-3.18c-.24-.12-.42-.3-.66-.42l-.72-.72Z"/><path class="cls-15" d="M213.6,206.36c-3.24,0-7.56-1.26-9.48-2.82l.24-.24c2,1.62,7,3,10.08,2.7,1-.06,1.2-.3,1.26-.42s.06-.06.06-.12,0-.12-.06-.12l.3-.18a.78.78,0,0,1,0,.6c-.18.3-.66.54-1.5.6Z"/><path class="cls-15" d="M218.1,206.48a2,2,0,0,1-.6-.06,5.2,5.2,0,0,1-1.8-.48l.12-.3a7.63,7.63,0,0,0,1.74.48c1.2.18,6.36-.36,9.36-2.76l.18.24c-2.82,2.34-7.26,2.88-9,2.88Z"/><path class="cls-20" d="M212.46,211.76l-.36-.06a71.39,71.39,0,0,1,1.68-7.08l.3.12a66.39,66.39,0,0,0-1.62,7Z"/><path class="cls-20" d="M221.28,211.64a14.71,14.71,0,0,1-3.66-6.78l.3-.06a14.3,14.3,0,0,0,3.6,6.6Z"/><path class="cls-21" d="M219.18,176.12c-2.4-.9-5.4-.42-7-.06l-.12-.36c1.62-.36,4.74-.84,7.2.12Z"/><path class="cls-21" d="M214.86,175.58a4.36,4.36,0,0,1-1.08-.66,1.7,1.7,0,0,1-.54-1.2,2.48,2.48,0,0,1,.9-1.74,3.72,3.72,0,0,1,1.5-1l.06.36a3.7,3.7,0,0,0-1.32.9,2.39,2.39,0,0,0-.84,1.5,1.47,1.47,0,0,0,.48,1,4.21,4.21,0,0,0,1,.6Z"/><path class="cls-21" d="M217,175.7l-.12-.3a9.7,9.7,0,0,0,1.08-.6,1.71,1.71,0,0,0,.6-.9l.36.06a2.3,2.3,0,0,1-.78,1.14,10.41,10.41,0,0,1-1.14.6Z"/><path class="cls-21" d="M212.58,180.08a5.64,5.64,0,0,1-2.22-2.52l.36-.12a4.83,4.83,0,0,0,2,2.34Z"/><path class="cls-21" d="M207.12,185.78l-.18-.24a16.08,16.08,0,0,0,3.78-4.5l.3.18a16.75,16.75,0,0,1-3.9,4.56Z"/><path class="cls-21" d="M223,184.34a9.29,9.29,0,0,0-3.6-4.68l.18-.3a10.08,10.08,0,0,1,3.78,4.86Z"/><rect class="cls-1" x="195.3" y="169.58" width="40.74" height="48.72"/></g><path class="cls-8" d="M237.9,204.44l-7.74,2.76v6.3c0,7,7.56,9,7.62,9h.3c.06,0,7.56-2,7.56-9v-6.3ZM236.64,217l-3.06-3.06,1-.9,2.1,2.1,4.68-4.68,1,.9Z"/><g class="cls-22"><path class="cls-14" d="M35.28,44.6a26,26,0,1,1-26,26,25.91,25.91,0,0,1,26-26Z"/><path class="cls-1" d="M35.28,44.6a26,26,0,1,1-26,26,25.91,25.91,0,0,1,26-26Z"/><path class="cls-23" d="M36,61.82a1.12,1.12,0,0,1-.84.3,1.43,1.43,0,0,1-.84-.3,1,1,0,0,1-.84.18,1,1,0,0,1-.78-.36,1.23,1.23,0,0,1-.9.18A1.43,1.43,0,0,1,31,61.4a1,1,0,0,1-.84.18,1.33,1.33,0,0,1-.78-.48,1.32,1.32,0,0,1-.84.12,1.14,1.14,0,0,1-.66-.42,1.1,1.1,0,0,1-1,.12,1.14,1.14,0,0,1-.6-.3A1.25,1.25,0,0,1,26,60a1.57,1.57,0,0,1-.66-.18,1.66,1.66,0,0,1-.42-.54.88.88,0,0,1-.12-.66A.9.9,0,0,1,25,58a1.33,1.33,0,0,1-.3-.66,1.28,1.28,0,0,1,.18-.72c0-.06,0-.06.06-.12s0-.06.06-.12a1,1,0,0,1,.6-.48.51.51,0,0,1,0-.42,1.11,1.11,0,0,1,.42-.72,1.29,1.29,0,0,1-.12-.66,2.13,2.13,0,0,1,.12-.6,1.47,1.47,0,0,1,.66-.54,1.17,1.17,0,0,1,.78-.06,1.62,1.62,0,0,1,.48-.42,1,1,0,0,1,.54-.18h.36a1.59,1.59,0,0,1,.3-.36.74.74,0,0,1,.48-.24.85.85,0,0,1,.54-.06,1,1,0,0,1,.42-.54,1.14,1.14,0,0,1,.6-.3,2,2,0,0,1,.6.06,1.82,1.82,0,0,1,.42.3,1.71,1.71,0,0,1,.72-.24c.12,0,.24.06.36.06a2.07,2.07,0,0,1,.66-.6,2.69,2.69,0,0,1,.66-.06,1.88,1.88,0,0,1,.6.3,2.12,2.12,0,0,1,.54-.24,1,1,0,0,1,.6.06c.18,0,.3.12.48.24a.88.88,0,0,1,.3.36,1.54,1.54,0,0,1,.9.06,1.62,1.62,0,0,1,.48.42,2,2,0,0,1,.6-.06,1.06,1.06,0,0,1,.78.36,1.21,1.21,0,0,1,.48-.24,1.66,1.66,0,0,1,.54.06,1,1,0,0,1,.6.3,1.43,1.43,0,0,1,.36.66,1.33,1.33,0,0,1,.66.3,1.1,1.1,0,0,1,.42.6c0,.06.06.06.06.12a2.61,2.61,0,0,0,.3.06.93.93,0,0,1,.48.36,1.31,1.31,0,0,1,.3.48,1.6,1.6,0,0,1,.72.18,1.42,1.42,0,0,1,.48.54,1,1,0,0,1,.12.72,1.25,1.25,0,0,1-.3.72,1.21,1.21,0,0,1,.18.66,1.29,1.29,0,0,1-.24.72L45,58.1a1.8,1.8,0,0,1,.24.6,1.42,1.42,0,0,1-.18.72,1.7,1.7,0,0,1-.6.54,1.12,1.12,0,0,1-.3.84,1.33,1.33,0,0,1-.78.48,1.53,1.53,0,0,1-.84-.18,1.11,1.11,0,0,1-.72.42A1.32,1.32,0,0,1,41,61.4a2,2,0,0,1-.78.42,1.91,1.91,0,0,1-.84-.18,1.46,1.46,0,0,1-1.68.18,1.43,1.43,0,0,1-.84.3h-.06a1.08,1.08,0,0,1-.78-.3Zm-.78-2.28a1.26,1.26,0,0,1,.78.3,1.26,1.26,0,0,1,.78-.3,1.32,1.32,0,0,1,.78.24,1.37,1.37,0,0,1,.72-.36,1.66,1.66,0,0,1,.78.18,1.86,1.86,0,0,1,.78-.36,1,1,0,0,1,.78.18,1.39,1.39,0,0,1,1.62-.3,1.08,1.08,0,0,1,.42-.3A1.38,1.38,0,0,1,42.9,58a1.6,1.6,0,0,1-.18-.72,1.47,1.47,0,0,1,.24-.72c0-.06.06-.06.06-.12v-.06c-.06-.06-.06-.12-.12-.18a1.5,1.5,0,0,1-.48-.06l-.54-.36a1.27,1.27,0,0,1-.24-.6,1.32,1.32,0,0,1-.72-.3,2.16,2.16,0,0,1-.42-.6v-.12c-.06,0-.12-.06-.18-.06a1.14,1.14,0,0,1-.6-.3,1.32,1.32,0,0,1-.78.24c-.24-.06-.42-.06-.54-.18a2.61,2.61,0,0,1-.42-.36,1.66,1.66,0,0,1-.54.06,1.13,1.13,0,0,1-.48-.12,1.31,1.31,0,0,1-.6-.54,1.47,1.47,0,0,1-.72,0,1,1,0,0,1-.42-.24l-.36.18a1.71,1.71,0,0,1-.78,0,.94.94,0,0,1-.48.48,1.16,1.16,0,0,1-.6.18,1.22,1.22,0,0,1-.9-.36,1.07,1.07,0,0,1-.6.24h-.3a.93.93,0,0,1-.36.48,1.16,1.16,0,0,1-.54.3.83.83,0,0,1-.54,0,1.83,1.83,0,0,1-.48.48,2.52,2.52,0,0,1-.6.24.89.89,0,0,1-.42-.06.6.6,0,0,1-.24.3,1.2,1.2,0,0,1,.12.78,1.8,1.8,0,0,1-.24.6,3.29,3.29,0,0,1-.54.42,1.34,1.34,0,0,1-.18.84h0c-.06.06-.12.12-.12.18s.06.18.12.24.06.18.12.24a.36.36,0,0,1,.24.06,1.18,1.18,0,0,1,.66.36,1.57,1.57,0,0,1,.9-.12,1.44,1.44,0,0,1,.72.42,1.32,1.32,0,0,1,.84-.12,1.76,1.76,0,0,1,.72.42,1.2,1.2,0,0,1,.78-.12,1.34,1.34,0,0,1,.78.36.91.91,0,0,1,.78-.18,1,1,0,0,1,.72.3,1.7,1.7,0,0,1,.78-.24Z"/><path class="cls-23" d="M44.16,66s.54-5,.12-6.84c-1.14-4.86-5.1-6.9-9.24-6.9s-8.22,2.1-9.24,7.14c-.36,1.86.36,6.6.18,6.6Z"/><polygon class="cls-24" points="38.94 73.64 31.32 73.64 30.9 80 28.32 86.36 41.82 84.92 39.36 80 38.94 73.64"/><path class="cls-25" d="M31.32,73.64,31,78s7.56-.6,7.92-4.38Z"/><path class="cls-24" d="M38.76,56.84c4.8,0,4,7.8,4,9.3.06,2-.84,6.24-3.36,8.22a7.15,7.15,0,0,1-4.26,1.74,6.81,6.81,0,0,1-4.44-1.74c-2.58-2-3.48-6.18-3.42-8.22.06-1.56-.78-9.3,4-9.3Z"/><path class="cls-23" d="M32.7,63.62h-.06a4.38,4.38,0,0,0-2.16,0H30.3c-.06-.06-.12-.12-.12-.18a.11.11,0,0,1,0-.18l.12-.12a4.29,4.29,0,0,1,2.46,0c.06.06.12.06.12.12a.22.22,0,0,1,.06.18.21.21,0,0,1-.06.12.22.22,0,0,1-.18.06Z"/><path class="cls-23" d="M37.38,63.62c-.06,0-.12,0-.12-.06s-.06-.06-.12-.12a.22.22,0,0,1,.06-.18c0-.06.06-.06.12-.12a4.29,4.29,0,0,1,2.46,0c.06.06.12.06.18.12v.18c0,.06-.06.12-.12.18h-.18a3.33,3.33,0,0,0-2.16,0Z"/><path class="cls-24" d="M41.82,71c1.62-1.08,3.6-3,3.06-5.1a1.73,1.73,0,0,0-2.34-1Z"/><path class="cls-24" d="M28.32,71c-1.68-1.08-3.66-3-3.06-5.1a1.65,1.65,0,0,1,2.28-1Z"/><path class="cls-23" d="M26.94,58.46a3.43,3.43,0,0,0,1.8.9c.72.12,1.44.06,2.16.24s1.2.54,1.86.6c1,.06,1.86-.54,2.82-.6s1.74.36,2.64.3c.42-.06.9-.3,1.32-.36a10.89,10.89,0,0,1,1.92-.18A1.89,1.89,0,0,0,43,58.58,19.45,19.45,0,0,0,35,57a20.81,20.81,0,0,0-8,1.44Z"/><path class="cls-23" d="M32,61a1.85,1.85,0,0,1-.48.12A1.75,1.75,0,0,1,31,61a1.42,1.42,0,0,1-.54-.36,2.14,2.14,0,0,1-.6.12,1,1,0,0,1-.84-.42,1,1,0,0,1-.54.18.66.66,0,0,1-.48,0,1.57,1.57,0,0,1-.54-.3,1.31,1.31,0,0,1-.3-.48,1,1,0,0,1-.6,0,2.43,2.43,0,0,1-.54-.3,1.32,1.32,0,0,1-.36-.9,1.36,1.36,0,0,1,.36-1,1.31,1.31,0,0,1,.48-.3,1.66,1.66,0,0,1,.54-.06,1.22,1.22,0,0,1,.54-.36,1.54,1.54,0,0,1,.9.06,1.19,1.19,0,0,1,.72-.48,1.18,1.18,0,0,1,.9.06,1.64,1.64,0,0,1,.78-.42,1.24,1.24,0,0,1,.9.18,1,1,0,0,1,.78-.36,1,1,0,0,1,.84.18,1.43,1.43,0,0,1,.84-.3,1.12,1.12,0,0,1,.84.3,1.12,1.12,0,0,1,.84-.3,1.09,1.09,0,0,1,.84.36,1.56,1.56,0,0,1,.9-.24,1.43,1.43,0,0,1,.78.42,1.18,1.18,0,0,1,.9-.18,1.55,1.55,0,0,1,.78.48,1.51,1.51,0,0,1,.9-.12,1.64,1.64,0,0,1,.72.54,1.17,1.17,0,0,1,.9,0,1.35,1.35,0,0,1,.84,1.26c.06.06.12.12.12.18a.68.68,0,0,1,.18.48,1.17,1.17,0,0,1-.06.48,1.79,1.79,0,0,1-.24.48,1.59,1.59,0,0,1-.36.3,1.16,1.16,0,0,1-.6.18,1,1,0,0,1-.6-.18.81.81,0,0,1-.42.36,1.75,1.75,0,0,1-.54.12,1.6,1.6,0,0,1-.72-.18,2.43,2.43,0,0,1-.54.3,1.31,1.31,0,0,1-1-.06,1.31,1.31,0,0,1-.48.3.89.89,0,0,1-.54.12,1.13,1.13,0,0,1-.48-.12,1.08,1.08,0,0,1-.42-.3,1.34,1.34,0,0,1-.84.18,4.09,4.09,0,0,1-.48-.18A2.43,2.43,0,0,1,35,61a1.54,1.54,0,0,1-.9-.06,2.61,2.61,0,0,1-.42.36,1.76,1.76,0,0,1-.54.12h-.06a2.14,2.14,0,0,1-.6-.12c-.12-.12-.3-.24-.42-.36Zm1.56-2a1.26,1.26,0,0,1,.66-.42,1.66,1.66,0,0,1,.54-.06.68.68,0,0,1,.48.18,1.58,1.58,0,0,1,.54-.3,1.67,1.67,0,0,1,.54-.06,1.25,1.25,0,0,1,.78.42,1.6,1.6,0,0,1,.72-.18,1,1,0,0,1,.54.18q0-.09.18-.18a2.55,2.55,0,0,1-.42-.3,1.66,1.66,0,0,1-.78.18,1.37,1.37,0,0,1-.72-.36,1.32,1.32,0,0,1-.78.24,1.26,1.26,0,0,1-.78-.3,1.14,1.14,0,0,1-.78.3,2,2,0,0,1-.78-.24,1,1,0,0,1-.72.3.91.91,0,0,1-.78-.18,1.08,1.08,0,0,1-.42.3c.12,0,.24.06.36.06a1.31,1.31,0,0,1,.54.42,1.41,1.41,0,0,1,.48-.12h.06a1.75,1.75,0,0,1,.54.12ZM31,58.64Z"/><path class="cls-26" d="M27.48,60.08a1.53,1.53,0,0,1-1-.3,1,1,0,0,1-.24-.42v-.42a1.07,1.07,0,0,1-.72-.54.83.83,0,0,1,.12-1.08l.18.24a.63.63,0,0,0,0,.72.81.81,0,0,0,.66.36.06.06,0,0,0,.06.06.06.06,0,0,1,.06.06v.18a.48.48,0,0,0,.12.6,1,1,0,0,0,.72.24Z"/><path class="cls-27" d="M41.82,83.06a21.77,21.77,0,0,1-13,0L28.38,96.8H41.82Z"/><path class="cls-28" d="M55.32,86.36,48.48,95v1.8h8.4c-.24-4.74-.78-9.42-1.56-10.44Z"/><path class="cls-28" d="M16.92,84.38c-2.34,1-2.88,7.5-3.12,12.42h8.4v-2Z"/><path class="cls-29" d="M33.9,84.92H32.7L28.32,80.3c-11.76,1.68-13,5.88-13,5.88l3.9,10.62h13.8c.42-7.08.84-11.88.84-11.88Z"/><path class="cls-30" d="M30.9,80,31,78s-4.74,2.4-3.54,4.38,5.22,2.52,5.22,2.52Z"/><path class="cls-29" d="M55.32,86.36a9.59,9.59,0,0,0-2.4-2.64C49.44,81,41.64,80,40.74,80l.42,1.14L37.5,84.92H36.3s.06,4.8.18,11.88H51.72v-.06Z"/><path class="cls-30" d="M39.3,80l-.12-2s4.74,2.4,3.54,4.38-5.22,2.52-5.22,2.52Z"/><path class="cls-28" d="M38,87.44a.54.54,0,1,0-.54-.54.54.54,0,0,0,.54.54Z"/><path class="cls-28" d="M38.76,96.08a.49.49,0,0,0,.06-.72.5.5,0,0,0-.72-.12A.56.56,0,0,0,38,96a.49.49,0,0,0,.72.06Z"/><path class="cls-28" d="M31.8,87.44a.54.54,0,1,0,0-1.08.54.54,0,0,0,0,1.08Z"/><path class="cls-28" d="M32.1,95.78a.6.6,0,0,0-.42-.66.55.55,0,0,0-.6.48.49.49,0,0,0,.42.6.54.54,0,0,0,.6-.42Z"/><path class="cls-4" d="M43.08,69.56c0,.12-.06.18-.06.24s-.12.12-.18.12-.12.06-.24,0a.21.21,0,0,1-.24-.24c-.06-.12,0-.18,0-.24s.06-.12.12-.18.12-.06.24-.06a.42.42,0,0,1,.36.36Z"/><path class="cls-4" d="M27.78,69.56c0,.12,0,.18-.06.24s-.12.12-.18.12a.11.11,0,0,1-.18,0c-.12,0-.18,0-.24-.06a.22.22,0,0,1-.06-.18c-.06-.12,0-.18,0-.24s.06-.12.12-.18.12-.06.24-.06a.42.42,0,0,1,.36.36Z"/><rect class="cls-1" x="13.8" y="50.3" width="43.08" height="46.5"/></g><rect class="cls-4" x="50.76" y="87.44" width="11.4" height="9.3"/><path class="cls-8" d="M56.58,83.18l-7.38,2.7v6c0,6.78,7.2,8.64,7.26,8.64l.12.06.18-.06c.06,0,7.26-1.86,7.26-8.64v-6Zm-1.2,12.06L52.44,92.3l.9-.84,2,2,4.5-4.5.84.84Z"/><g class="cls-31"><path class="cls-14" d="M256.08,11.3a36.84,36.84,0,1,1-36.84,36.84A36.77,36.77,0,0,1,256.08,11.3Z"/><path class="cls-32" d="M274.08,42.68c-.06-1-1-1.38-.42-2.28.78-1.14.3-2.4-.66-3.36a2.4,2.4,0,0,0,.42-1.08,2.11,2.11,0,0,0-.3-1.2c-.18-.42-.6-.78-.66-1.2a6.61,6.61,0,0,1,.12-1.08,2,2,0,0,0-.66-1.38,2.76,2.76,0,0,1-.54-2,.84.84,0,0,0-.18-.54c-.48-.54-1.5-.66-1.56-1.56s-.3-1.56-1-1.8c-.24-.12-.54-.12-.78-.24-.72-.36-.78-1.5-1.5-1.74s-1.44.24-2-.18a1.36,1.36,0,0,1-.48-.66,2.78,2.78,0,0,0-.9-1,3,3,0,0,0-1.2-.48,3.7,3.7,0,0,1-1.14-.12c-.66-.24-1.14-1.14-1.86-1.14a1.52,1.52,0,0,0-.72.12,5.18,5.18,0,0,1-1.68-.24,2,2,0,0,0-1.2.12,1.83,1.83,0,0,0-1.14-.12,5.42,5.42,0,0,1-1.68.24,1.65,1.65,0,0,0-.78-.12c-.72,0-1.14.9-1.86,1.14a6.78,6.78,0,0,1-1.08.18,2.43,2.43,0,0,0-1.26.42,2.18,2.18,0,0,0-.84,1c-.18.24-.3.54-.54.66-.54.42-1.38-.12-2,.18s-.84,1.38-1.5,1.74c-.24.12-.54.12-.84.24a1.72,1.72,0,0,0-1,1.8c-.06.9-1.14,1-1.56,1.56a.65.65,0,0,0-.24.54,2.74,2.74,0,0,1-.48,2c-.36.42-.72.78-.66,1.38a6.52,6.52,0,0,1,.06,1.08,4,4,0,0,1-.66,1.2,2.07,2.07,0,0,0-.24,1.2A1.87,1.87,0,0,0,237.3,37c-1,1-1.5,2.22-.72,3.36.6.9-.36,1.26-.36,2.28,0,1.44,1,.78.9,3.06-.06.72.24,1.8,1,2,.6.18.12,1.38,1,1.92a.72.72,0,0,1,.3.3.89.89,0,0,1,.06.42,2.46,2.46,0,0,0,1.8,2.58,3.92,3.92,0,0,1,1.44.36c.36.24.54.78.84,1.2.78.84,2.16.6,3.3.24l7.86.3h.78l7.8-.3c1.14.36,2.58.6,3.3-.24.36-.42.48-1,.9-1.2a3.92,3.92,0,0,1,1.44-.36,2.36,2.36,0,0,0,1.74-2.58.51.51,0,0,1,.12-.42.6.6,0,0,1,.24-.3c.9-.54.42-1.74,1.08-1.92s1-1.32,1-2c-.18-2.28.9-1.68.9-3.06Z"/><polygon class="cls-33" points="266.22 62.18 245.7 62.18 247.32 84.8 265.26 84.8 266.22 62.18"/><rect class="cls-34" x="245.7" y="70.28" width="17.28" height="0.72"/><rect class="cls-34" x="245.7" y="77.78" width="17.28" height="0.72"/><path class="cls-35" d="M254.88,66.74c4.5,0,8.16-1.32,8.16-3s-3.66-3-8.16-3-8.1,1.32-8.1,3,3.6,3,8.1,3Z"/><path class="cls-32" d="M268.2,43c2.88-12.6-4.92-18.12-13.32-18.12S238.68,30.38,241.62,43Z"/><polygon class="cls-35" points="260.04 54.98 250.02 54.98 249.48 62.18 260.58 62.18 260.04 54.98"/><path class="cls-36" d="M250,55l-.42,5.1S257.46,58.4,260,55Z"/><path class="cls-35" d="M265.26,38.24c0,2.16.06,4.14.12,4.92.06,3.24-.24,8-4.32,11.16A11,11,0,0,1,255,57c-2.22,0-4.44-1.26-6.24-2.64-4.08-3.18-4.44-7.92-4.32-11.16,0-.84.06-3.06.12-5.4.12-3.36,3.66-6.84,10.44-6.84s10.26,4.14,10.26,7.32Z"/><path class="cls-32" d="M251.76,40.16a.06.06,0,0,1-.06-.06,5.52,5.52,0,0,0-3.12,0c-.06.06-.06.06-.12.06a82.38,82.38,0,0,1-.24-.12.19.19,0,0,1-.06-.12.22.22,0,0,1-.06-.18,146.59,146.59,0,0,0,.12-.24c.06,0,.06-.06.12-.06a5.94,5.94,0,0,1,3.54,0c.12.06.18.06.18.18s.06.12.06.24-.06.12-.12.18a.31.31,0,0,1-.24.12Z"/><path class="cls-32" d="M261.54,40.16c-.06,0-.06,0-.12-.06a5.31,5.31,0,0,0-3.06,0,.27.27,0,0,1-.3,0l-.18-.18v-.3a.83.83,0,0,1,.24-.18,5.94,5.94,0,0,1,3.54,0c.06.06.12.06.18.18s.06.12.06.24-.06.12-.12.18a.45.45,0,0,1-.24.12Z"/><path class="cls-35" d="M268.14,42.8A2.32,2.32,0,0,0,265,41.48l-.54,8.22c2.22-1.44,4.5-4,3.72-6.9Z"/><path class="cls-35" d="M244.8,41.48a2.32,2.32,0,0,0-3.18,1.32c-.78,2.88,1.5,5.46,3.72,6.9Z"/><path class="cls-37" d="M249.48,62.18l.24-3.66c-2.58,1.56-6.6,3.78-6.6,3.78a38.57,38.57,0,0,0-10,4.62c-2.22,1.44-3.6,9.48-4.8,17.88H251c-.54-10.92-1.5-22.62-1.5-22.62Z"/><path class="cls-37" d="M278.76,66.92c-3-1.86-12-4.62-12-4.62s-3.84-2.16-6.48-3.72l.3,3.6S259.5,73.88,259,84.8h24.42c-1.68-8.1-2.7-16.68-4.62-17.88Z"/><path class="cls-38" d="M264.24,68l-.24-.48,3.72-1.62a12.17,12.17,0,0,0-1.14-3.48l.42-.24A13.87,13.87,0,0,1,268.26,66v.18Z"/><path class="cls-38" d="M245.58,68l-4.08-1.8.06-.18a11.55,11.55,0,0,1,1.26-3.9l.42.3A11.05,11.05,0,0,0,242,65.9l3.72,1.62Z"/><path class="cls-38" d="M267.78,69.44l-.24-.12c-2.16-1.08-3.9-2.1-4.92-2.7s-1-.6-1.14-.54l-.18.18.24.06h0l-.06.24a4.55,4.55,0,0,1,.9.48c1,.6,2.64,1.56,4.8,2.58a141,141,0,0,0-4.92,15.18h.48a155.91,155.91,0,0,1,4.92-15.18Z"/><path class="cls-38" d="M247.44,67a9.31,9.31,0,0,1,.84-.48v-.24l.18-.06v-.12l-.12-.06c-.12-.06-.18-.06-1.14.54s-2.76,1.62-5,2.7l-.18.12.06.18A123.6,123.6,0,0,1,247,84.8h.48a148.36,148.36,0,0,0-4.86-15.18c2.1-1,3.78-2,4.8-2.58Zm.84-.72-.24.06Z"/><path class="cls-38" d="M233.46,74.84c0,.12.54,4.62,1.26,10h.48c-.72-5.4-1.26-9.9-1.26-10Z"/><path class="cls-38" d="M276.54,74.84c0,.12-.48,4.62-1.26,10h-.42c.72-5.4,1.2-9.9,1.26-10Z"/><path class="cls-39" d="M244.5,55.82c-1,0-1.8-1.74-1.8-3.84s.84-3.84,1.8-3.84a.21.21,0,0,0,.24-.24c0-.06,0-.12-.06-.12s-.12-.12-.18-.12c-1.26,0-2.28,1.92-2.28,4.32s1,4.32,2.28,4.32,2.1-1.86,2.34-4c-.18-.18-.3-.42-.48-.6-.06,2-.84,4.08-1.86,4.08Z"/><path class="cls-39" d="M265.26,47.66c-.06,0-.06,0-.12.06h-.06c0,.06-.06.06-.06.12V48l.06.06a.06.06,0,0,0,.06.06h.12c1,0,1.86,1.8,1.86,3.84s-.84,3.84-1.86,3.84-1.8-2-1.86-4.08l-.42.6c.18,2.1,1.14,4,2.28,4,1.32,0,2.34-1.86,2.34-4.32s-1-4.32-2.34-4.32Z"/><path class="cls-32" d="M257.64,37.1l-.36-.36a1.83,1.83,0,0,0,.48-1,1.67,1.67,0,0,0-.18-1.08,5.74,5.74,0,0,0-.72-1,3.84,3.84,0,0,1-.78-.9,2.79,2.79,0,0,1-.36-1.38A2.44,2.44,0,0,1,256.2,30l.36.3a1.85,1.85,0,0,0-.36,1.14,2.48,2.48,0,0,0,.3,1.14,4.54,4.54,0,0,0,.66.84,3.48,3.48,0,0,1,.84,1,2.2,2.2,0,0,1,.24,1.38,2.47,2.47,0,0,1-.6,1.26Z"/><path class="cls-32" d="M253.62,30.92c-1,.24-2,.54-2.34,1.44l-.18.54c-.36.9-1.56,1.08-2.22,1.8-.9,1-.6,2.76-1.68,3.48-.6.42-1.56.48-1.86,1.14a10.58,10.58,0,0,0,0,1.38,1.42,1.42,0,0,1-1.32,1,5.42,5.42,0,0,1-1.68-.24c-.72-.24-1.56-.6-1.62-1.38,0,0-.66-7.32,5.52-9.72s7.38.54,7.38.54Z"/><path class="cls-32" d="M256.14,30.92c1,.18,2.1.48,2.4,1.44a1.91,1.91,0,0,0,.18.54c.3.9,1.56,1.08,2.22,1.74.9,1,.6,2.76,1.68,3.54.6.42,1.56.48,1.8,1.14.18.42-.06.9.06,1.38a1.49,1.49,0,0,0,1.26,1,4,4,0,0,0,1.68-.3c.72-.24,1.56-.6,1.62-1.32,0,0,.72-7.32-5.46-9.78s-7.44.6-7.44.6Z"/><path class="cls-40" d="M255.18,29.06,254.7,29V27.56c-.06-1.92-.12-4.32.84-5.58l.36.3c-.84,1.08-.78,3.42-.72,5.28v1.5Z"/><path class="cls-40" d="M264.78,36.08a3.24,3.24,0,0,1-2.28-1.14,8.33,8.33,0,0,1-.36-1.14,1.64,1.64,0,0,0-.42-1.14,1.25,1.25,0,0,0-.6-.36,1.84,1.84,0,0,1-.84-.54l.36-.3a2.48,2.48,0,0,0,.66.42,3.23,3.23,0,0,1,.78.42,2.35,2.35,0,0,1,.54,1.44,2.57,2.57,0,0,0,.3,1,2.66,2.66,0,0,0,1.92.9Z"/><path class="cls-40" d="M240.48,46.82h-.42a2.14,2.14,0,0,0-.48-1.38l-.06-.12a1.21,1.21,0,0,1-.24-.48,1.73,1.73,0,0,1,.06-.78.71.71,0,0,0,.06-.48c0-.18-.18-.36-.36-.54l-.18-.18a1.93,1.93,0,0,1,.06-2.58l.36.3a1.47,1.47,0,0,0-.06,2l.18.18a1.53,1.53,0,0,1,.48.72,1.73,1.73,0,0,1-.06.78,1.86,1.86,0,0,0-.12.48l.18.36.12.06a3.23,3.23,0,0,1,.48,1.68Z"/></g><path class="cls-8" d="M286.32,66.08l-10.5,3.84v8.46c0,9.6,10.14,12.18,10.26,12.24l.24.06.18-.06c.12-.06,10.32-2.64,10.32-12.24V69.92Zm-1.8,17L280.44,79l1.2-1.2,2.88,2.88,6.42-6.42,1.2,1.26Z"/><text class="cls-41" transform="translate(173.54 95.7)">v<tspan class="cls-42" x="1.04" y="0">ibe</tspan><tspan x="4.07" y="0">v</tspan><tspan class="cls-4" x="5.11" y="0">ideo</tspan></text><path class="cls-43" d="M173.08,94.13l-.92,1.37h0l-.25.37a.29.29,0,0,1-.44,0h0l0,0-.1-.15L170.13,94h.14a1.33,1.33,0,0,1,1.1.58l.19.26.39-.59a.5.5,0,0,0,.08-.35c-.05-.36-.47-.45-.77-.45h1.47A.45.45,0,0,1,173.08,94.13Z"/><g class="cls-44"><path class="cls-45" d="M172.85,93.45l-1.51,2.28L170.13,94h.14a1.33,1.33,0,0,1,1.1.58l.19.26.45-.68c.14-.58-.39-.7-.75-.7h1.47Z"/></g><path class="cls-46" d="M171.55,94.82l-.42.62-1-1.46h.14a1.33,1.33,0,0,1,1.1.58Z"/><path class="cls-4" d="M105.14,131.4l1.39-3.51h1.65l-3.47,8.62h-1.23L100,127.88h1.65l1.41,3.48,1,3Z"/><path class="cls-4" d="M111,125.69a1,1,0,0,1-1.93,0A1,1,0,0,1,111,125.69Zm-.19,2.1h-1.55v8.66h1.55Z"/><path class="cls-4" d="M114.47,129a3.31,3.31,0,0,1,2.88-1.25,4.42,4.42,0,0,1,0,8.85,3.39,3.39,0,0,1-2.85-1.3v1.16h-1.55V125.37h1.55Zm2.78,6.22a3.06,3.06,0,1,0-2.78-3.05A2.86,2.86,0,0,0,117.26,135.21Z"/><path class="cls-4" d="M131.51,132.54h-7.25a2.86,2.86,0,0,0,2.88,2.69,2.76,2.76,0,0,0,2.55-1.42h1.6a4.44,4.44,0,1,1-4.13-6,4.2,4.2,0,0,1,4.38,4A2.3,2.3,0,0,1,131.51,132.54Zm-1.6-1.28a2.6,2.6,0,0,0-2.75-2.14,2.69,2.69,0,0,0-2.83,2.14Z"/><path class="cls-4" d="M137.27,131.4l1.39-3.51h1.65l-3.47,8.62h-1.23l-3.48-8.62h1.65l1.41,3.48,1,3Z"/><path class="cls-4" d="M143.09,125.69a1,1,0,0,1-1.93,0A1,1,0,0,1,143.09,125.69Zm-.19,2.1h-1.55v8.66h1.55Z"/><path class="cls-4" d="M151.87,125.37h1.55v11.08h-1.55v-1.16a3.41,3.41,0,0,1-2.86,1.3,4.42,4.42,0,1,1,0-8.85,3.31,3.31,0,0,1,2.88,1.25ZM149,129.1a3,3,0,0,0-3,3,2.94,2.94,0,1,0,3-3Z"/><path class="cls-4" d="M163.69,132.54h-7.25a2.85,2.85,0,0,0,2.88,2.69,2.76,2.76,0,0,0,2.55-1.42h1.6a4.44,4.44,0,1,1-4.13-6,4.2,4.2,0,0,1,4.38,4A2.34,2.34,0,0,1,163.69,132.54Zm-1.6-1.28a2.6,2.6,0,0,0-2.75-2.14,2.7,2.7,0,0,0-2.83,2.14Z"/><path class="cls-4" d="M169.48,136.6a4.43,4.43,0,1,1,4.64-4.43A4.34,4.34,0,0,1,169.48,136.6Zm0-1.39a3,3,0,1,0-3-3A2.94,2.94,0,0,0,169.48,135.21Z"/></g></g></svg>