<svg width="374" height="243" viewBox="0 0 374 243" fill="none" xmlns="http://www.w3.org/2000/svg">
<g clip-path="url(#clip0_448_24779)">
<g clip-path="url(#clip1_448_24779)">
<rect width="270.674" height="500.036" transform="translate(58.5413 29.5273)" fill="white"/>
<rect x="69.2256" y="40.125" width="164.879" height="6.34148" rx="1.05691" fill="#F5F5F5"/>
<rect x="238.331" y="40.125" width="80.3254" height="6.34148" rx="1.05691" fill="#F5F5F5"/>
<rect x="238.331" y="160.617" width="80.3254" height="6.34148" rx="1.05691" fill="#F5F5F5"/>
<rect x="238.331" y="49.6406" width="80.3254" height="6.34148" rx="1.05691" fill="#F5F5F5"/>
<rect x="238.331" y="170.129" width="80.3254" height="6.34148" rx="1.05691" fill="#F5F5F5"/>
<rect x="238.331" y="59.1523" width="80.3254" height="6.34148" rx="1.05691" fill="#F5F5F5"/>
<rect x="238.331" y="179.641" width="80.3254" height="6.34148" rx="1.05691" fill="#F5F5F5"/>
<rect x="238.331" y="68.6641" width="80.3254" height="6.34148" rx="1.05691" fill="#F5F5F5"/>
<rect x="238.331" y="189.152" width="80.3254" height="6.34148" rx="1.05691" fill="#F5F5F5"/>
<rect x="238.331" y="78.1797" width="80.3254" height="6.34148" rx="1.05691" fill="#F5F5F5"/>
<rect x="238.331" y="198.664" width="80.3254" height="6.34148" rx="1.05691" fill="#F5F5F5"/>
<rect x="238.331" y="87.6875" width="80.3254" height="6.34148" rx="1.05691" fill="#F5F5F5"/>
<rect x="238.331" y="100.371" width="80.3254" height="53.9026" rx="1.05691" fill="#F5F5F5"/>
<rect x="69.2256" y="49.6406" width="164.879" height="6.34148" rx="1.05691" fill="#F5F5F5"/>
<rect x="69.2256" y="59.1523" width="164.879" height="6.34148" rx="1.05691" fill="#F5F5F5"/>
<rect x="69.2253" y="68.6641" width="164.879" height="6.34148" rx="1.05691" fill="#F5F5F5"/>
<rect x="69.2256" y="78.1797" width="164.879" height="6.34148" rx="1.05691" fill="#F5F5F5"/>
<rect x="69.2256" y="87.6875" width="80.3254" height="6.34148" rx="1.05691" fill="#F5F5F5"/>
<rect x="69.2263" y="100.762" width="164.879" height="6.34148" rx="1.05691" fill="#F5F5F5"/>
<rect x="69.2263" y="110.273" width="164.879" height="6.34148" rx="1.05691" fill="#F5F5F5"/>
<rect x="69.2263" y="119.785" width="164.879" height="6.34148" rx="1.05691" fill="#F5F5F5"/>
<rect x="69.2263" y="129.297" width="164.879" height="6.34148" rx="1.05691" fill="#F5F5F5"/>
<rect x="69.2263" y="138.812" width="164.879" height="6.34148" rx="1.05691" fill="#F5F5F5"/>
<rect x="69.2263" y="148.32" width="164.879" height="6.34148" rx="1.05691" fill="#F5F5F5"/>
<rect x="69.2263" y="163.117" width="80.3254" height="6.34148" rx="1.05691" fill="#F5F5F5"/>
<rect x="69.2263" y="172.633" width="164.879" height="74.8295" rx="1.05691" fill="#F5F5F5"/>
</g>
<path d="M328.665 36.625H60.606C57.7114 36.625 54.9353 37.7735 52.8886 39.8178C50.8418 41.8622 49.6919 44.6349 49.6919 47.5261V199.544C49.6954 202.434 50.8464 205.205 52.8924 207.248C54.9385 209.292 57.7125 210.442 60.606 210.445H328.665C331.558 210.442 334.332 209.292 336.379 207.248C338.425 205.205 339.576 202.434 339.579 199.544V47.5261C339.579 44.6349 338.429 41.8622 336.382 39.8178C334.336 37.7735 331.56 36.625 328.665 36.625V36.625ZM60.367 200.227V46.8232H328.904V200.227H60.367Z" fill="black"/>
<path d="M28.3679 210.352V216.982C28.3679 221.093 35.0399 224.429 43.2785 224.429H346.005C354.237 224.429 360.909 221.113 360.909 216.982V210.352H28.3679Z" fill="black"/>
<path d="M176.266 210.445V211.394C176.266 211.984 177.003 212.461 177.912 212.461H211.358C212.268 212.461 213.005 211.984 213.005 211.394V210.445H176.266Z" fill="white"/>
</g>
<rect x="20.4817" y="178.145" width="58.0345" height="37.5517" fill="white"/>
<path d="M49.499 149.992L12.374 163.494V193.504C12.374 227.414 48.3993 236.638 48.7618 236.729L49.499 236.907L50.2362 236.729C50.5988 236.638 86.624 227.414 86.624 193.504V163.494L49.499 149.992ZM43.3115 210.254L28.7491 195.691L33.1239 191.317L43.3115 201.504L65.8741 178.942L70.2489 183.316L43.3115 210.254Z" fill="#1EE5CE"/>
<rect x="245.839" y="0.960938" width="127.275" height="80.8208" rx="19.6369" fill="#5386E4"/>
<path d="M298.307 53.615L275.294 47.0794V37.7362L298.307 31.1546V36.9998L279.367 42.3848L298.307 47.7928V53.615Z" fill="white"/>
<path d="M316.951 23.9746L307.608 58.7699H301.993L311.336 23.9746H316.951Z" fill="white"/>
<path d="M320.646 53.4079V47.5857L339.585 42.3848L320.646 37.207V31.3617L343.658 37.7362V47.0794L320.646 53.4079Z" fill="white"/>
<defs>
<clipPath id="clip0_448_24779">
<rect width="332.534" height="187.804" fill="white" transform="translate(28.3684 36.625)"/>
</clipPath>
<clipPath id="clip1_448_24779">
<rect x="58.6558" y="29.5586" width="270.57" height="175.299" rx="6.67185" fill="white"/>
</clipPath>
</defs>
</svg>
