<svg width="468" height="270" viewBox="0 0 468 270" fill="none" xmlns="http://www.w3.org/2000/svg">
<g clip-path="url(#clip0_100_3641)">
<rect width="311.078" height="228.614" rx="20" transform="matrix(0.866044 -0.499967 0.866044 0.499967 0 155.529)" fill="white"/>
<path d="M47.7017 161.197C47.1844 161.496 46.6024 161.738 45.9557 161.925C45.3137 162.109 44.6625 162.218 44.002 162.253C43.3414 162.288 42.7294 162.228 42.1659 162.073L42.7341 161.353C43.1221 161.46 43.5539 161.496 44.0297 161.461C44.5054 161.421 44.9788 161.329 45.45 161.185C45.9257 161.038 46.353 160.856 46.7317 160.637C47.1751 160.381 47.5146 160.1 47.7502 159.793C47.9858 159.486 48.0897 159.189 48.062 158.901C48.0296 158.61 47.8333 158.361 47.4731 158.153C47.1082 157.943 46.6855 157.84 46.2052 157.845C45.7248 157.851 45.2237 157.927 44.7017 158.073C44.1798 158.214 43.6717 158.385 43.1775 158.585C42.4015 158.9 41.6509 159.152 40.9258 159.341C40.2052 159.528 39.5124 159.605 38.8473 159.573C38.1775 159.538 37.5447 159.349 36.9489 159.005C36.39 158.682 36.0667 158.309 35.9789 157.885C35.8912 157.461 35.9974 157.032 36.2976 156.597C36.6025 156.16 37.062 155.764 37.6764 155.409C38.1798 155.119 38.7503 154.88 39.3877 154.693C40.0251 154.507 40.6763 154.395 41.3415 154.357C42.0112 154.317 42.644 154.376 43.2398 154.533L42.6509 155.257C42.2583 155.148 41.8241 155.113 41.3484 155.153C40.8726 155.188 40.4015 155.279 39.935 155.425C39.4639 155.569 39.0366 155.752 38.6533 155.973C38.2098 156.224 37.8727 156.504 37.6417 156.813C37.4108 157.117 37.3115 157.415 37.3438 157.705C37.3715 157.993 37.5632 158.24 37.9189 158.445C38.3346 158.685 38.7641 158.808 39.2075 158.813C39.6509 158.813 40.1175 158.736 40.6071 158.581C41.0967 158.426 41.6232 158.237 42.1867 158.013C42.9119 157.717 43.6532 157.481 44.4107 157.305C45.1636 157.127 45.8888 157.052 46.5862 157.081C47.2791 157.108 47.898 157.279 48.443 157.593C48.9973 157.913 49.3206 158.286 49.413 158.713C49.5008 159.137 49.3922 159.568 49.0874 160.005C48.7871 160.44 48.3252 160.837 47.7017 161.197ZM56.9575 159.645L55.9876 160.205L45.595 154.206L46.565 153.646L47.8606 154.394C47.662 154.002 47.6343 153.607 47.7775 153.21C47.9207 152.812 48.2786 152.448 48.8514 152.118C49.3548 151.827 49.9206 151.61 50.5488 151.466C51.1816 151.319 51.8329 151.247 52.5026 151.25C53.1677 151.25 53.8144 151.322 54.4425 151.466C55.0707 151.61 55.6365 151.827 56.14 152.118C56.6435 152.408 57.0222 152.736 57.2762 153.102C57.5303 153.467 57.6596 153.843 57.6642 154.23C57.6642 154.614 57.5372 154.988 57.2832 155.354C57.0338 155.716 56.6573 156.043 56.1539 156.334C55.5811 156.664 54.9506 156.871 54.2624 156.953C53.5742 157.036 52.8906 157.02 52.2116 156.905L56.9575 159.645ZM49.7867 152.666C49.3017 152.946 49.0015 153.26 48.886 153.61C48.7705 153.954 48.819 154.299 49.0315 154.646C49.244 154.992 49.6019 155.311 50.1054 155.602C50.5996 155.887 51.147 156.094 51.7474 156.222C52.3525 156.347 52.9553 156.378 53.5557 156.314C54.1608 156.247 54.7081 156.072 55.1977 155.79C55.6781 155.512 55.9991 155.188 56.1608 154.818C56.3271 154.444 56.3294 154.07 56.1677 153.694C56.0014 153.315 55.6642 152.979 55.1562 152.686C54.6619 152.4 54.0915 152.21 53.4449 152.114C52.7936 152.015 52.1446 152.011 51.498 152.102C50.8514 152.192 50.2809 152.38 49.7867 152.666ZM63.9388 151.823C63.3014 152.191 62.5555 152.433 61.701 152.547C60.8511 152.659 59.9943 152.647 59.1306 152.511C58.2668 152.37 57.5001 152.106 56.8303 151.719C56.3223 151.426 55.9389 151.101 55.6802 150.743C55.417 150.383 55.2761 150.017 55.2576 149.643C55.2391 149.265 55.3454 148.899 55.5763 148.547C55.8073 148.195 56.1606 147.882 56.6363 147.608C57.149 147.312 57.7218 147.098 58.3546 146.968C58.992 146.834 59.6479 146.784 60.3222 146.816C61.0012 146.845 61.664 146.956 62.3107 147.148C62.9619 147.337 63.5578 147.604 64.0982 147.948L58.2229 151.339C58.7172 151.561 59.2483 151.707 59.8165 151.779C60.3892 151.849 60.9504 151.842 61.5001 151.759C62.0497 151.671 62.5393 151.506 62.9689 151.263C63.4308 150.997 63.7264 150.687 63.8557 150.335C63.9896 149.981 63.9596 149.617 63.7656 149.243L64.9781 148.807C65.3153 149.322 65.4007 149.854 65.2344 150.403C65.0635 150.95 64.6317 151.423 63.9388 151.823ZM57.4123 150.903L62.3384 148.06C61.8765 147.83 61.3522 147.68 60.7656 147.608C60.179 147.53 59.5994 147.534 59.0266 147.62C58.4493 147.702 57.9458 147.868 57.5162 148.116C57.0867 148.363 56.8003 148.651 56.6571 148.979C56.5093 149.305 56.5024 149.637 56.6363 149.975C56.7657 150.311 57.0243 150.621 57.4123 150.903ZM70.1357 143.086L74.4244 145.562L73.4544 146.122L69.3597 143.758C68.981 143.539 68.5445 143.394 68.0503 143.322C67.556 143.25 67.0618 143.25 66.5676 143.322C66.0734 143.394 65.6369 143.539 65.2581 143.758C64.884 143.974 64.6323 144.226 64.503 144.514C64.3782 144.799 64.3782 145.085 64.503 145.37C64.6277 145.655 64.8794 145.907 65.2581 146.126L69.3528 148.49L68.3828 149.05L61.4545 145.05L62.4244 144.49L63.3806 145.042C63.2743 144.698 63.3136 144.353 63.4983 144.006C63.6831 143.659 64.0064 143.353 64.4683 143.086C64.9902 142.785 65.593 142.584 66.2766 142.482C66.9602 142.381 67.6438 142.381 68.3274 142.482C69.011 142.584 69.6138 142.785 70.1357 143.086ZM70.9861 135.548L71.956 134.988L82.3486 140.987L81.3786 141.547L80.083 140.799C80.2862 141.194 80.3139 141.591 80.1661 141.991C80.0183 142.386 79.658 142.749 79.0853 143.079C78.5818 143.37 78.016 143.587 77.3879 143.731C76.7597 143.875 76.1107 143.948 75.441 143.951C74.7712 143.948 74.1223 143.875 73.4941 143.731C72.8659 143.587 72.3001 143.37 71.7967 143.079C71.2932 142.789 70.9168 142.462 70.6673 142.099C70.4133 141.734 70.2863 141.359 70.2863 140.975C70.2863 140.586 70.411 140.21 70.6604 139.847C70.9098 139.485 71.2863 139.158 71.7897 138.867C72.3625 138.537 72.993 138.33 73.6812 138.248C74.3694 138.16 75.053 138.173 75.732 138.288L70.9861 135.548ZM78.15 142.531C78.6442 142.246 78.949 141.931 79.0645 141.587C79.1754 141.241 79.1199 140.894 78.8982 140.547C78.6811 140.198 78.3255 139.881 77.8313 139.595C77.3232 139.302 76.7689 139.094 76.1685 138.971C75.5634 138.846 74.9629 138.817 74.3671 138.883C73.7712 138.95 73.2285 139.125 72.7389 139.407C72.2493 139.69 71.926 140.018 71.769 140.391C71.6073 140.762 71.6119 141.135 71.7828 141.511C71.9537 141.887 72.2886 142.219 72.7874 142.507C73.2909 142.798 73.8706 142.991 74.5264 143.087C75.1777 143.181 75.8244 143.181 76.4664 143.087C77.113 142.991 77.6742 142.806 78.15 142.531Z" fill="#9A9A9A"/>
<path d="M74.9855 178.233L60.9694 170.141L58.8355 171.373L56.6773 169.203L60.9694 166.725L77.9439 176.525L74.9855 178.233ZM87.5364 171.351C86.5502 171.92 85.4267 172.308 84.1657 172.513C82.8967 172.714 81.563 172.751 80.1646 172.625C78.7743 172.494 77.3921 172.214 76.018 171.785C74.6358 171.351 73.3384 170.784 72.126 170.084C70.9135 169.384 69.9354 168.638 69.1918 167.844C68.4401 167.046 67.9511 166.246 67.7247 165.443C67.5065 164.636 67.5752 163.869 67.9308 163.141C68.2784 162.408 68.9453 161.757 69.9314 161.188C70.9175 160.618 72.0451 160.233 73.3142 160.033C74.5751 159.827 75.8967 159.792 77.2789 159.928C78.6692 160.058 80.0555 160.341 81.4377 160.775C82.8199 161.199 84.1172 161.762 85.3297 162.462C86.5421 163.162 87.5202 163.913 88.2638 164.715C89.0075 165.509 89.4925 166.307 89.7188 167.109C89.9532 167.907 89.8966 168.673 89.549 169.405C89.1934 170.133 88.5225 170.782 87.5364 171.351ZM84.5779 169.643C85.4428 169.144 85.8834 168.572 85.8995 167.928C85.9157 167.284 85.6166 166.626 85.0023 165.954C84.388 165.282 83.5716 164.652 82.5531 164.065C81.4781 163.444 80.3545 162.963 79.1825 162.623C78.0024 162.277 76.8667 162.116 75.7755 162.14C74.6843 162.163 73.7224 162.415 72.8898 162.896C72.2351 163.274 71.8269 163.696 71.6652 164.163C71.5036 164.62 71.5399 165.098 71.7743 165.597C72.0088 166.097 72.4008 166.594 72.9504 167.088C73.492 167.578 74.1427 168.043 74.9025 168.481C75.9129 169.065 77.0041 169.536 78.1761 169.895C79.3482 170.245 80.492 170.415 81.6074 170.406C82.731 170.392 83.7211 170.138 84.5779 169.643ZM101.65 163.203C100.664 163.772 99.5405 164.16 98.2795 164.365C97.0105 164.566 95.6768 164.603 94.2784 164.477C92.8881 164.346 91.5059 164.066 90.1318 163.637C88.7496 163.203 87.4522 162.636 86.2398 161.936C85.0273 161.236 84.0493 160.49 83.3056 159.696C82.5539 158.898 82.0649 158.098 81.8385 157.296C81.6203 156.488 81.689 155.721 82.0447 154.993C82.3922 154.26 83.0591 153.609 84.0452 153.04C85.0314 152.471 86.1589 152.086 87.428 151.885C88.689 151.68 90.0105 151.645 91.3927 151.78C92.783 151.911 94.1693 152.193 95.5515 152.627C96.9337 153.051 98.231 153.614 99.4435 154.314C100.656 155.014 101.634 155.765 102.378 156.568C103.121 157.361 103.606 158.159 103.833 158.961C104.067 159.759 104.01 160.525 103.663 161.257C103.307 161.985 102.636 162.634 101.65 163.203ZM98.6918 161.495C99.5567 160.996 99.9972 160.424 100.013 159.78C100.03 159.136 99.7304 158.478 99.1161 157.806C98.5018 157.135 97.6854 156.505 96.667 155.917C95.5919 155.296 94.4684 154.815 93.2963 154.475C92.1162 154.129 90.9805 153.968 89.8893 153.992C88.7981 154.015 87.8362 154.267 87.0036 154.748C86.3489 155.126 85.9407 155.548 85.779 156.015C85.6174 156.472 85.6538 156.95 85.8882 157.45C86.1226 157.949 86.5146 158.446 87.0643 158.94C87.6058 159.43 88.2565 159.895 89.0163 160.333C90.0267 160.917 91.1179 161.388 92.29 161.747C93.462 162.097 94.6058 162.268 95.7212 162.258C96.8448 162.244 97.835 161.99 98.6918 161.495ZM107.512 142.95C106.93 143.277 106.477 143.646 106.154 144.056C105.831 144.458 105.669 144.845 105.669 145.218C105.669 145.591 105.879 145.899 106.299 146.142C106.841 146.455 107.399 146.604 107.973 146.59C108.555 146.571 109.165 146.452 109.803 146.233C110.434 146.009 111.113 145.748 111.84 145.449C113.15 144.898 114.496 144.467 115.878 144.154C117.26 143.842 118.594 143.72 119.879 143.79C121.156 143.856 122.3 144.18 123.31 144.763C124.232 145.295 124.814 145.906 125.056 146.597C125.291 147.283 125.23 147.99 124.874 148.718C124.527 149.441 123.925 150.12 123.068 150.755L125.541 152.183L123.516 153.352L121.043 151.924C120.13 152.339 119.156 152.663 118.121 152.897C117.086 153.13 116.048 153.254 115.005 153.268C113.97 153.277 112.988 153.158 112.059 152.911L113.817 150.72C114.253 150.841 114.779 150.878 115.393 150.832C116.007 150.785 116.646 150.664 117.309 150.468C117.971 150.272 118.59 150.008 119.164 149.677C119.754 149.336 120.214 148.968 120.546 148.571C120.877 148.165 121.039 147.778 121.031 147.409C121.015 147.036 120.788 146.723 120.352 146.471C119.907 146.214 119.378 146.1 118.764 146.128C118.141 146.151 117.486 146.263 116.799 146.464C116.112 146.665 115.449 146.898 114.811 147.164C113.421 147.752 112.055 148.209 110.713 148.536C109.371 148.863 108.078 148.989 106.833 148.914C105.596 148.835 104.432 148.48 103.341 147.85C102.42 147.318 101.838 146.707 101.595 146.016C101.361 145.321 101.421 144.614 101.777 143.895C102.133 143.167 102.739 142.486 103.596 141.851L101.11 140.416L103.135 139.248L105.62 140.682C106.518 140.276 107.484 139.957 108.518 139.723C109.553 139.49 110.596 139.369 111.646 139.36C112.697 139.341 113.691 139.458 114.629 139.71L112.847 141.9C112.41 141.779 111.885 141.742 111.27 141.788C110.656 141.835 110.022 141.959 109.367 142.159C108.704 142.355 108.086 142.619 107.512 142.95Z" fill="black"/>
<path d="M94.6136 189.132L94.2252 188.908L95.1186 188.392L92.1444 186.675L91.8836 187.338L91.351 187.255L91.7227 186.284L92.0501 186.095L95.5736 188.129L96.4115 187.646L96.7999 187.87L94.6136 189.132ZM98.9673 186.676C98.5197 186.935 98.0073 187.032 97.4303 186.968C96.8532 186.904 96.2391 186.684 95.5881 186.308C94.9333 185.93 94.5523 185.575 94.445 185.244C94.3377 184.913 94.5079 184.619 94.9555 184.36C95.4068 184.1 95.9173 184.001 96.487 184.065C97.0566 184.125 97.6689 184.344 98.3236 184.722C98.9784 185.1 99.3594 185.457 99.4667 185.792C99.5776 186.125 99.4112 186.42 98.9673 186.676ZM98.5733 186.449C98.884 186.269 98.9821 186.061 98.8674 185.824C98.7564 185.585 98.4235 185.305 97.8686 184.985C97.3137 184.664 96.8347 184.473 96.4315 184.411C96.0246 184.347 95.6639 184.406 95.3495 184.588C95.0387 184.767 94.937 184.975 95.0443 185.212C95.1553 185.447 95.4863 185.724 96.0375 186.042C96.5924 186.362 97.0751 186.556 97.4857 186.622C97.9001 186.686 98.2626 186.628 98.5733 186.449ZM102.294 184.755C101.847 185.014 101.334 185.111 100.757 185.047C100.18 184.983 99.5662 184.763 98.9152 184.387C98.2604 184.009 97.8794 183.655 97.7721 183.324C97.6648 182.993 97.835 182.698 98.2826 182.439C98.7339 182.179 99.2444 182.081 99.8141 182.145C100.384 182.205 100.996 182.423 101.651 182.801C102.305 183.179 102.687 183.536 102.794 183.871C102.905 184.204 102.738 184.499 102.294 184.755ZM101.9 184.528C102.211 184.349 102.309 184.14 102.195 183.903C102.084 183.664 101.751 183.384 101.196 183.064C100.641 182.744 100.162 182.553 99.7586 182.491C99.3517 182.427 98.991 182.485 98.6766 182.667C98.3658 182.846 98.2641 183.054 98.3714 183.292C98.4824 183.526 98.8134 183.803 99.3646 184.121C99.9195 184.441 100.402 184.635 100.813 184.701C101.227 184.765 101.59 184.707 101.9 184.528Z" fill="#6D6D6D"/>
<path d="M119.517 203.584L117.819 200.503L115.749 201.698L115.355 201.47L117.941 199.977L118.285 200.176L120.022 203.293L119.517 203.584ZM124.02 201.042C123.769 201.187 123.488 201.303 123.177 201.388C122.866 201.474 122.557 201.519 122.25 201.526L122.062 201.218C122.687 201.182 123.203 201.046 123.61 200.812C123.88 200.656 124.017 200.489 124.02 200.312C124.024 200.135 123.902 199.974 123.654 199.831C123.399 199.684 123.116 199.606 122.805 199.597C122.494 199.589 122.209 199.659 121.951 199.809C121.577 200.025 121.438 200.284 121.534 200.587L121.201 200.78L118.877 199.437L121.146 198.127L121.534 198.351L119.714 199.402L121.113 200.209C121.113 199.962 121.288 199.736 121.64 199.533C121.884 199.392 122.148 199.3 122.433 199.255C122.718 199.21 123.003 199.214 123.288 199.268C123.573 199.317 123.839 199.413 124.087 199.556C124.331 199.697 124.494 199.853 124.575 200.024C124.656 200.194 124.651 200.368 124.558 200.546C124.47 200.721 124.29 200.886 124.02 201.042Z" fill="#6D6D6D"/>
<path d="M145.663 217.377C145.411 217.522 145.13 217.638 144.819 217.723C144.509 217.808 144.2 217.854 143.893 217.861L143.704 217.553C144.329 217.517 144.845 217.381 145.252 217.146C145.522 216.99 145.659 216.824 145.663 216.647C145.667 216.469 145.544 216.309 145.297 216.166C145.041 216.019 144.758 215.941 144.448 215.932C144.137 215.924 143.852 215.994 143.593 216.144C143.22 216.359 143.081 216.619 143.177 216.922L142.844 217.114L140.519 215.772L142.789 214.462L143.177 214.686L141.357 215.737L142.755 216.544C142.755 216.296 142.931 216.071 143.282 215.868C143.527 215.727 143.791 215.634 144.076 215.59C144.361 215.545 144.646 215.549 144.93 215.602C145.215 215.651 145.482 215.748 145.729 215.891C145.974 216.032 146.136 216.187 146.218 216.358C146.299 216.529 146.294 216.703 146.201 216.88C146.112 217.056 145.933 217.221 145.663 217.377ZM148.907 215.504C148.459 215.763 147.947 215.86 147.37 215.796C146.793 215.732 146.179 215.512 145.528 215.136C144.873 214.758 144.492 214.403 144.384 214.072C144.277 213.741 144.447 213.447 144.895 213.188C145.346 212.928 145.857 212.83 146.426 212.894C146.996 212.953 147.608 213.172 148.263 213.55C148.918 213.928 149.299 214.285 149.406 214.62C149.517 214.953 149.351 215.248 148.907 215.504ZM148.513 215.277C148.823 215.097 148.922 214.889 148.807 214.652C148.696 214.413 148.363 214.133 147.808 213.813C147.253 213.493 146.774 213.301 146.371 213.24C145.964 213.175 145.603 213.234 145.289 213.416C144.978 213.595 144.876 213.803 144.984 214.04C145.095 214.275 145.426 214.552 145.977 214.87C146.532 215.19 147.015 215.384 147.425 215.45C147.84 215.514 148.202 215.456 148.513 215.277Z" fill="#6D6D6D"/>
<path d="M171.414 231.284L171.07 231.085L170.965 229.48C170.947 229.252 170.893 229.065 170.804 228.92C170.719 228.772 170.588 228.647 170.41 228.545C169.955 228.282 169.463 228.304 168.934 228.609C168.538 228.837 168.337 229.125 168.329 229.471L167.802 229.365C167.799 229.196 167.863 229.022 167.996 228.843C168.13 228.659 168.32 228.496 168.568 228.353C168.96 228.126 169.352 228.007 169.744 227.994C170.136 227.977 170.501 228.065 170.837 228.26C171.07 228.394 171.242 228.56 171.353 228.756C171.461 228.951 171.522 229.189 171.537 229.471L171.609 230.723L173.517 229.621L173.906 229.845L171.414 231.284ZM176.04 228.671C175.788 228.816 175.507 228.932 175.197 229.017C174.886 229.102 174.577 229.148 174.27 229.155L174.081 228.847C174.706 228.811 175.222 228.675 175.629 228.44C175.899 228.285 176.036 228.118 176.04 227.941C176.044 227.763 175.922 227.603 175.674 227.46C175.419 227.313 175.136 227.235 174.825 227.226C174.514 227.218 174.229 227.288 173.97 227.438C173.597 227.653 173.458 227.913 173.554 228.216L173.221 228.408L170.896 227.066L173.166 225.756L173.554 225.98L171.734 227.031L173.132 227.838C173.132 227.59 173.308 227.365 173.66 227.162C173.904 227.021 174.168 226.928 174.453 226.884C174.738 226.839 175.023 226.843 175.308 226.896C175.592 226.946 175.859 227.042 176.107 227.185C176.351 227.326 176.514 227.482 176.595 227.652C176.676 227.823 176.671 227.997 176.578 228.175C176.489 228.35 176.31 228.515 176.04 228.671Z" fill="#6D6D6D"/>
<path d="M198.987 244.253C198.539 244.512 198.027 244.609 197.45 244.545C196.873 244.481 196.259 244.261 195.608 243.885C194.953 243.507 194.572 243.152 194.465 242.821C194.357 242.49 194.527 242.196 194.975 241.937C195.426 241.677 195.937 241.578 196.507 241.642C197.076 241.702 197.688 241.921 198.343 242.299C198.998 242.677 199.379 243.034 199.486 243.369C199.597 243.702 199.431 243.997 198.987 244.253ZM198.593 244.026C198.904 243.846 199.002 243.638 198.887 243.401C198.776 243.162 198.443 242.882 197.888 242.562C197.333 242.241 196.854 242.05 196.451 241.988C196.044 241.924 195.683 241.983 195.369 242.165C195.058 242.344 194.957 242.552 195.064 242.789C195.175 243.024 195.506 243.301 196.057 243.619C196.612 243.939 197.095 244.132 197.505 244.199C197.92 244.263 198.282 244.205 198.593 244.026Z" fill="#6D6D6D"/>
<path d="M223.429 238.896L219.517 236.638L219.9 236.417L224.228 237.179L222.896 234.687L223.279 234.466L227.191 236.724L226.769 236.968L223.712 235.203L224.86 237.372L224.561 237.545L220.793 236.894L223.845 238.656L223.429 238.896ZM229.274 235.579C229.012 235.731 228.727 235.829 228.42 235.874C228.113 235.919 227.802 235.913 227.487 235.855C227.173 235.793 226.873 235.68 226.589 235.515C226.304 235.351 226.11 235.179 226.006 235C225.902 234.816 225.889 234.635 225.967 234.458C226.045 234.281 226.215 234.117 226.478 233.965C226.737 233.815 227.02 233.718 227.327 233.673C227.637 233.626 227.95 233.634 228.264 233.696C228.579 233.753 228.878 233.865 229.163 234.029C229.448 234.193 229.642 234.367 229.746 234.551C229.849 234.731 229.861 234.91 229.779 235.089C229.701 235.267 229.533 235.43 229.274 235.579ZM228.914 235.371C229.165 235.226 229.278 235.058 229.252 234.868C229.222 234.676 229.041 234.484 228.708 234.292C228.372 234.097 228.039 233.993 227.709 233.978C227.38 233.963 227.09 234.028 226.838 234.173C226.583 234.32 226.468 234.489 226.494 234.679C226.524 234.867 226.707 235.058 227.044 235.253C227.377 235.445 227.708 235.551 228.037 235.57C228.366 235.585 228.658 235.519 228.914 235.371Z" fill="#6D6D6D"/>
<path d="M254.896 220.727L251.378 218.697L249.958 219.517L249.564 219.289L252.865 217.383L253.259 217.611L251.839 218.431L255.357 220.462L254.896 220.727ZM257.817 219.099C257.169 219.473 256.489 219.454 255.775 219.042L254.099 218.074L254.548 217.815L256.219 218.779C256.459 218.918 256.685 218.992 256.896 219.003C257.11 219.012 257.323 218.955 257.534 218.833C257.763 218.701 257.874 218.549 257.867 218.378C257.856 218.205 257.722 218.045 257.467 217.898L255.936 217.014L256.385 216.754L259.082 218.311L258.643 218.564L258.188 218.302C258.266 218.445 258.272 218.587 258.205 218.728C258.138 218.864 258.009 218.988 257.817 219.099Z" fill="#6D6D6D"/>
<path d="M291.751 199.454L286.469 197.987L286.946 197.712L291.296 198.948L289.182 196.421L289.549 196.209L293.943 197.452L291.796 194.912L292.251 194.649L294.792 197.699L294.387 197.933L290.053 196.719L292.145 199.227L291.751 199.454ZM297.683 196.088C297.258 196.333 296.797 196.456 296.301 196.456C295.802 196.454 295.338 196.329 294.909 196.081C294.631 195.921 294.443 195.748 294.343 195.562C294.239 195.374 294.226 195.192 294.304 195.014C294.382 194.833 294.548 194.669 294.803 194.521C295.169 194.31 295.575 194.213 296.018 194.23C296.459 194.245 296.884 194.371 297.295 194.608L297.467 194.707L295.436 195.879C295.758 196.048 296.081 196.132 296.407 196.132C296.729 196.13 297.034 196.046 297.322 195.879C297.485 195.785 297.616 195.682 297.716 195.569C297.813 195.453 297.87 195.324 297.888 195.181L298.36 195.274C298.353 195.411 298.288 195.553 298.166 195.7C298.04 195.845 297.879 195.974 297.683 196.088ZM295.147 194.707C294.892 194.854 294.77 195.017 294.781 195.194C294.792 195.371 294.914 195.542 295.147 195.706L296.784 194.761C296.499 194.61 296.214 194.529 295.93 194.518C295.648 194.505 295.388 194.568 295.147 194.707Z" fill="#6D6D6D"/>
<path d="M324.95 180.286L321.432 178.255L320.012 179.075L319.618 178.848L322.919 176.942L323.313 177.169L321.893 177.989L325.411 180.02L324.95 180.286ZM327.267 178.948L323.355 176.69L323.805 176.431L325.464 177.388C325.39 177.243 325.392 177.101 325.469 176.962C325.547 176.819 325.686 176.69 325.885 176.575C326.525 176.205 327.2 176.226 327.911 176.636L329.592 177.606L329.143 177.866L327.489 176.911C327.237 176.766 327.004 176.689 326.79 176.681C326.575 176.668 326.361 176.723 326.146 176.847C325.898 176.99 325.778 177.149 325.786 177.324C325.793 177.495 325.924 177.654 326.179 177.802L327.716 178.689L327.267 178.948Z" fill="#6D6D6D"/>
<path d="M361.444 159.219L357.532 156.961L359.951 155.564L360.334 155.785L358.37 156.919L359.735 157.707L361.588 156.637L361.971 156.858L360.118 157.928L361.899 158.956L361.444 159.219ZM364.368 157.531L361.672 155.974L362.11 155.721L362.593 156C362.412 155.728 362.528 155.454 362.942 155.176L363.087 155.074L363.508 155.279L363.259 155.461C363.026 155.622 362.913 155.781 362.92 155.939C362.924 156.095 363.046 156.242 363.286 156.381L364.823 157.268L364.368 157.531Z" fill="#6D6D6D"/>
<path d="M397.439 138.498C397.132 138.675 396.816 138.813 396.49 138.911C396.161 139.007 395.83 139.064 395.497 139.081L395.292 138.777C395.625 138.751 395.93 138.699 396.207 138.62C396.485 138.541 396.76 138.422 397.034 138.264C397.367 138.072 397.552 137.895 397.589 137.732C397.626 137.566 397.543 137.424 397.339 137.306C397.176 137.212 396.988 137.172 396.773 137.185C396.562 137.195 396.292 137.264 395.963 137.39L395.269 137.656C394.848 137.814 394.467 137.895 394.126 137.899C393.786 137.899 393.475 137.818 393.194 137.656C392.961 137.521 392.817 137.369 392.761 137.201C392.71 137.03 392.743 136.855 392.861 136.675C392.98 136.496 393.179 136.325 393.46 136.163C393.723 136.011 394.01 135.895 394.321 135.814C394.628 135.73 394.936 135.689 395.247 135.689L395.441 135.987C395.123 135.995 394.838 136.034 394.587 136.102C394.332 136.168 394.089 136.267 393.86 136.4C393.568 136.569 393.403 136.743 393.366 136.922C393.325 137.099 393.416 137.252 393.638 137.38C393.816 137.483 394.01 137.533 394.221 137.531C394.435 137.526 394.69 137.467 394.986 137.351L395.686 137.089C396.137 136.918 396.531 136.827 396.867 136.816C397.204 136.801 397.507 136.872 397.777 137.028C397.996 137.154 398.129 137.299 398.177 137.463C398.229 137.626 398.192 137.797 398.066 137.976C397.944 138.153 397.735 138.327 397.439 138.498ZM400.376 136.803C400.191 136.91 399.989 136.985 399.771 137.03C399.553 137.071 399.338 137.079 399.127 137.056C398.916 137.032 398.733 136.976 398.578 136.886C398.382 136.773 398.276 136.654 398.261 136.53C398.25 136.404 398.337 136.26 398.522 136.098C398.707 135.931 399.003 135.731 399.41 135.496L399.588 135.393L399.416 135.294C399.186 135.162 398.974 135.094 398.778 135.092C398.581 135.086 398.38 135.142 398.173 135.262C398.01 135.356 397.877 135.461 397.773 135.576C397.666 135.689 397.585 135.821 397.529 135.973L397.046 135.874C397.087 135.735 397.178 135.591 397.318 135.441C397.462 135.29 397.627 135.161 397.812 135.054C398.16 134.853 398.502 134.754 398.839 134.756C399.179 134.756 399.528 134.859 399.887 135.067L401.585 136.047L401.164 136.29L400.697 136.021C400.786 136.154 400.803 136.289 400.747 136.428C400.696 136.565 400.572 136.69 400.376 136.803ZM400.109 136.566C400.331 136.438 400.437 136.289 400.426 136.12C400.411 135.95 400.285 135.796 400.048 135.659L399.882 135.563L399.71 135.662C399.41 135.835 399.188 135.981 399.044 136.098C398.9 136.211 398.827 136.308 398.827 136.39C398.827 136.466 398.887 136.539 399.005 136.607C399.157 136.695 399.332 136.737 399.532 136.732C399.736 136.726 399.928 136.67 400.109 136.566Z" fill="#6D6D6D"/>
<path d="M430.732 119.275C430.425 119.453 430.109 119.59 429.783 119.689C429.454 119.785 429.123 119.841 428.79 119.858L428.585 119.554C428.917 119.528 429.223 119.476 429.5 119.397C429.778 119.318 430.053 119.2 430.327 119.042C430.66 118.849 430.845 118.672 430.882 118.51C430.919 118.343 430.836 118.201 430.632 118.084C430.469 117.99 430.281 117.949 430.066 117.962C429.855 117.973 429.585 118.041 429.256 118.167L428.562 118.433C428.141 118.591 427.76 118.672 427.419 118.676C427.079 118.676 426.768 118.595 426.487 118.433C426.254 118.298 426.11 118.147 426.054 117.978C426.003 117.807 426.036 117.632 426.154 117.453C426.273 117.273 426.472 117.102 426.753 116.94C427.016 116.789 427.303 116.672 427.614 116.591C427.921 116.508 428.229 116.466 428.54 116.466L428.734 116.764C428.416 116.773 428.131 116.811 427.88 116.879C427.625 116.946 427.382 117.045 427.153 117.177C426.861 117.346 426.696 117.52 426.659 117.699C426.618 117.877 426.709 118.029 426.931 118.157C427.109 118.26 427.303 118.31 427.514 118.308C427.728 118.304 427.983 118.244 428.279 118.129L428.979 117.866C429.43 117.695 429.824 117.604 430.16 117.594C430.497 117.579 430.8 117.649 431.07 117.805C431.289 117.931 431.422 118.076 431.47 118.241C431.522 118.403 431.485 118.574 431.359 118.753C431.237 118.931 431.028 119.105 430.732 119.275ZM433.774 117.519C433.127 117.893 432.446 117.874 431.732 117.462L430.056 116.494L430.506 116.235L432.176 117.199C432.416 117.338 432.642 117.412 432.853 117.423C433.067 117.432 433.28 117.375 433.491 117.253C433.72 117.121 433.831 116.969 433.824 116.798C433.813 116.626 433.68 116.465 433.424 116.318L431.893 115.434L432.342 115.174L435.039 116.731L434.601 116.984L434.146 116.722C434.223 116.865 434.229 117.007 434.162 117.148C434.096 117.284 433.966 117.408 433.774 117.519Z" fill="#6D6D6D"/>
<path d="M208.549 236.482L424.952 111.553" stroke="#FAFAFA" stroke-width="0.800882" stroke-linecap="round"/>
<path d="M196.064 229.275C194.532 228.391 194.532 226.957 196.064 226.072L211.324 217.263C212.856 216.378 215.34 216.378 216.872 217.263L229.357 224.471L208.549 236.483L196.064 229.275Z" fill="#1EE5CE" fill-opacity="0.4"/>
<path d="M173.869 177.221C172.337 176.336 172.337 174.902 173.869 174.017L189.128 165.208C190.66 164.324 193.145 164.324 194.677 165.208L263.343 204.849L242.535 216.862L173.869 177.221Z" fill="#1EE5CE"/>
<path d="M239.067 175.619C237.535 174.735 237.535 173.3 239.067 172.416L254.326 163.607C255.859 162.722 258.343 162.722 259.875 163.607L297.329 185.229L276.521 197.242L239.067 175.619Z" fill="#1EE5CE" fill-opacity="0.4"/>
<path d="M234.213 133.576C232.68 132.692 232.68 131.258 234.213 130.373L249.472 121.564C251.004 120.679 253.488 120.679 255.021 121.564L331.317 165.609L310.509 177.622L234.213 133.576Z" fill="#1EE5CE"/>
<path d="M284.151 123.166C282.619 122.282 282.619 120.847 284.151 119.963L299.411 111.154C300.943 110.269 303.427 110.269 304.959 111.154L365.302 145.99L344.494 158.002L284.151 123.166Z" fill="#1EE5CE"/>
<path d="M352.124 123.166C350.592 122.282 350.592 120.847 352.124 119.963L367.384 111.154C368.916 110.269 371.4 110.269 372.932 111.154L399.289 126.369L378.481 138.382L352.124 123.166Z" fill="#A5F5EB"/>
<path d="M318.832 64.7052C317.299 63.8206 317.299 62.3864 318.832 61.5019L334.091 52.6927C335.623 51.8082 338.107 51.8082 339.64 52.6927L433.275 106.749L412.467 118.761L318.832 64.7052Z" fill="#1EE5CE"/>
</g>
<defs>
<clipPath id="clip0_100_3641">
<rect width="311.078" height="228.614" rx="20" transform="matrix(0.866044 -0.499967 0.866044 0.499967 0 155.529)" fill="white"/>
</clipPath>
</defs>
</svg>
