<svg width="101" height="86" viewBox="0 0 101 86" fill="none" xmlns="http://www.w3.org/2000/svg">
<rect y="34.0137" width="85" height="56" rx="10" transform="rotate(-23.5889 0 34.0137)" fill="#FFD600"/>
<path d="M34.6485 58.1657L27.8776 42.6595L29.6812 41.872L36.4521 57.3782L34.6485 58.1657ZM40.3201 55.6892L33.5492 40.183L35.0668 39.5204L45.9158 48.1129L46.9438 34.3341L48.4615 33.6715L55.2324 49.1776L53.5608 49.9075L48.2689 37.7885L47.3452 49.7671L46.1575 50.2857L36.6874 42.8719L41.9696 54.9689L40.3201 55.6892ZM57.5961 48.1455L57.6655 29.6524L59.2051 28.9801L72.8163 41.4994L70.9468 42.3158L67.5025 39.1059L59.4305 42.6306L59.4656 47.3291L57.5961 48.1455ZM59.3353 31.4374L59.4276 40.8248L66.202 37.8668L59.3793 31.4182L59.3353 31.4374Z" fill="white"/>
</svg>
