<svg width="371" height="237" viewBox="0 0 371 237" fill="none" xmlns="http://www.w3.org/2000/svg">
<g filter="url(#filter0_f_100_3689)">
<rect width="237.595" height="166.562" rx="20" transform="matrix(0.866044 -0.499967 0.866044 0.499967 10.5088 139.441)" fill="black" fill-opacity="0.05"/>
</g>
<g clip-path="url(#clip0_100_3689)">
<rect width="237.595" height="166.562" rx="20" transform="matrix(0.866044 -0.499967 0.866044 0.499967 10 118.789)" fill="white"/>
<path d="M168.967 167.852L320.883 80.1508" stroke="#FAFAFA" stroke-width="0.772745" stroke-linecap="round"/>
<path d="M97.866 146.902L97.4912 146.685L98.3532 146.188L95.4835 144.531L95.2319 145.171L94.7179 145.091L95.0766 144.154L95.3925 143.972L98.7922 145.934L99.6006 145.468L99.9754 145.684L97.866 146.902ZM102.067 144.532C101.635 144.782 101.14 144.875 100.584 144.814C100.027 144.752 99.4344 144.539 98.8062 144.177C98.1744 143.812 97.8068 143.47 97.7033 143.151C97.5998 142.831 97.764 142.547 98.1958 142.298C98.6313 142.046 99.1239 141.951 99.6735 142.013C100.223 142.071 100.814 142.282 101.446 142.647C102.077 143.012 102.445 143.356 102.549 143.679C102.656 144.001 102.495 144.285 102.067 144.532ZM101.687 144.313C101.986 144.14 102.081 143.939 101.97 143.71C101.863 143.479 101.542 143.209 101.007 142.9C100.471 142.591 100.009 142.407 99.62 142.347C99.2274 142.285 98.8794 142.342 98.576 142.517C98.2762 142.69 98.178 142.891 98.2815 143.12C98.3886 143.346 98.708 143.613 99.2399 143.92C99.7752 144.229 100.241 144.416 100.637 144.48C101.037 144.542 101.387 144.486 101.687 144.313ZM106.652 141.885C106.22 142.135 105.726 142.228 105.169 142.166C104.612 142.105 104.02 141.892 103.391 141.53C102.76 141.165 102.392 140.823 102.289 140.504C102.185 140.184 102.349 139.9 102.781 139.651C103.217 139.399 103.709 139.304 104.259 139.366C104.808 139.424 105.399 139.635 106.031 140C106.663 140.365 107.03 140.709 107.134 141.032C107.241 141.354 107.08 141.638 106.652 141.885ZM106.272 141.666C106.572 141.493 106.666 141.292 106.556 141.063C106.449 140.832 106.127 140.562 105.592 140.253C105.057 139.944 104.594 139.76 104.205 139.7C103.813 139.638 103.465 139.695 103.161 139.87C102.861 140.043 102.763 140.244 102.867 140.473C102.974 140.699 103.293 140.966 103.825 141.273C104.361 141.582 104.826 141.769 105.222 141.833C105.622 141.894 105.972 141.839 106.272 141.666ZM109.862 140.032C109.43 140.281 108.936 140.375 108.379 140.313C107.822 140.251 107.23 140.039 106.602 139.677C105.97 139.312 105.602 138.97 105.499 138.65C105.395 138.331 105.559 138.047 105.991 137.797C106.427 137.546 106.919 137.451 107.469 137.513C108.019 137.571 108.609 137.782 109.241 138.147C109.873 138.511 110.241 138.855 110.344 139.179C110.451 139.5 110.29 139.785 109.862 140.032ZM109.482 139.813C109.782 139.639 109.876 139.439 109.766 139.21C109.659 138.979 109.338 138.709 108.802 138.4C108.267 138.091 107.805 137.907 107.415 137.847C107.023 137.785 106.675 137.842 106.371 138.017C106.072 138.19 105.973 138.391 106.077 138.619C106.184 138.846 106.504 139.113 107.035 139.42C107.571 139.729 108.037 139.916 108.433 139.979C108.832 140.041 109.182 139.986 109.482 139.813ZM113.072 138.179C112.641 138.428 112.146 138.522 111.589 138.46C111.033 138.398 110.44 138.186 109.812 137.823C109.18 137.459 108.813 137.116 108.709 136.797C108.606 136.478 108.77 136.193 109.202 135.944C109.637 135.693 110.13 135.598 110.679 135.66C111.229 135.717 111.82 135.929 112.451 136.293C113.083 136.658 113.451 137.002 113.554 137.326C113.661 137.647 113.501 137.931 113.072 138.179ZM112.692 137.959C112.992 137.786 113.087 137.585 112.976 137.357C112.869 137.126 112.548 136.856 112.012 136.547C111.477 136.238 111.015 136.053 110.626 135.994C110.233 135.932 109.885 135.988 109.582 136.164C109.282 136.337 109.184 136.537 109.287 136.766C109.394 136.993 109.714 137.26 110.246 137.567C110.781 137.876 111.247 138.062 111.643 138.126C112.043 138.188 112.392 138.132 112.692 137.959Z" fill="#6D6D6D"/>
<path d="M128.383 161.019C128.14 161.159 127.869 161.27 127.569 161.353C127.269 161.435 126.971 161.479 126.675 161.486L126.493 161.189C127.096 161.154 127.594 161.023 127.986 160.796C128.247 160.646 128.379 160.485 128.383 160.314C128.386 160.143 128.268 159.989 128.029 159.851C127.783 159.708 127.51 159.633 127.21 159.625C126.91 159.617 126.635 159.685 126.386 159.829C126.025 160.037 125.891 160.287 125.984 160.58L125.663 160.765L123.42 159.47L125.609 158.206L125.984 158.423L124.228 159.436L125.577 160.215C125.577 159.976 125.747 159.759 126.086 159.563C126.321 159.427 126.577 159.337 126.851 159.294C127.126 159.251 127.401 159.255 127.676 159.307C127.951 159.354 128.208 159.447 128.447 159.585C128.682 159.721 128.839 159.871 128.918 160.036C128.996 160.201 128.991 160.369 128.902 160.54C128.816 160.709 128.643 160.868 128.383 161.019ZM132.888 158.418C132.456 158.667 131.961 158.761 131.405 158.699C130.848 158.638 130.255 158.425 129.627 158.063C128.995 157.698 128.628 157.356 128.524 157.037C128.421 156.717 128.585 156.433 129.017 156.184C129.452 155.932 129.945 155.837 130.494 155.899C131.044 155.957 131.635 156.168 132.266 156.533C132.898 156.897 133.266 157.242 133.369 157.565C133.476 157.887 133.316 158.171 132.888 158.418ZM132.507 158.199C132.807 158.026 132.902 157.825 132.791 157.596C132.684 157.365 132.363 157.095 131.827 156.786C131.292 156.477 130.83 156.293 130.441 156.233C130.048 156.171 129.7 156.228 129.397 156.403C129.097 156.576 128.999 156.777 129.102 157.006C129.209 157.232 129.529 157.499 130.061 157.806C130.596 158.115 131.062 158.302 131.458 158.366C131.858 158.427 132.208 158.372 132.507 158.199ZM136.098 156.565C135.666 156.814 135.172 156.908 134.615 156.846C134.058 156.784 133.465 156.572 132.837 156.209C132.206 155.845 131.838 155.503 131.734 155.183C131.631 154.864 131.795 154.58 132.227 154.33C132.662 154.079 133.155 153.984 133.705 154.046C134.254 154.104 134.845 154.315 135.477 154.68C136.108 155.044 136.476 155.388 136.58 155.712C136.687 156.033 136.526 156.318 136.098 156.565ZM135.718 156.345C136.017 156.172 136.112 155.971 136.001 155.743C135.894 155.512 135.573 155.242 135.038 154.933C134.502 154.624 134.04 154.439 133.651 154.38C133.258 154.318 132.91 154.375 132.607 154.55C132.307 154.723 132.209 154.924 132.313 155.152C132.42 155.379 132.739 155.646 133.271 155.953C133.806 156.262 134.272 156.448 134.668 156.512C135.068 156.574 135.418 156.519 135.718 156.345ZM139.308 154.712C138.876 154.961 138.382 155.055 137.825 154.993C137.268 154.931 136.676 154.719 136.047 154.356C135.416 153.991 135.048 153.649 134.945 153.33C134.841 153.011 135.005 152.726 135.437 152.477C135.873 152.226 136.365 152.131 136.915 152.193C137.464 152.25 138.055 152.462 138.687 152.826C139.319 153.191 139.686 153.535 139.79 153.859C139.897 154.18 139.736 154.464 139.308 154.712ZM138.928 154.492C139.228 154.319 139.322 154.118 139.212 153.889C139.105 153.659 138.783 153.389 138.248 153.08C137.713 152.771 137.25 152.586 136.861 152.526C136.469 152.465 136.121 152.521 135.817 152.696C135.517 152.87 135.419 153.07 135.523 153.299C135.63 153.526 135.949 153.793 136.481 154.1C137.017 154.409 137.482 154.595 137.879 154.659C138.278 154.721 138.628 154.665 138.928 154.492Z" fill="#6D6D6D"/>
<path d="M161.095 173.815C160.663 174.065 160.169 174.158 159.612 174.096C159.055 174.035 158.462 173.822 157.834 173.46C157.202 173.095 156.835 172.753 156.731 172.434C156.628 172.114 156.792 171.83 157.224 171.581C157.659 171.329 158.152 171.234 158.702 171.296C159.251 171.354 159.842 171.565 160.474 171.93C161.105 172.295 161.473 172.639 161.577 172.962C161.684 173.284 161.523 173.568 161.095 173.815ZM160.715 173.596C161.014 173.423 161.109 173.222 160.998 172.993C160.891 172.762 160.57 172.492 160.035 172.183C159.499 171.874 159.037 171.69 158.648 171.63C158.255 171.568 157.907 171.625 157.604 171.8C157.304 171.973 157.206 172.174 157.31 172.403C157.417 172.629 157.736 172.896 158.268 173.203C158.803 173.512 159.269 173.699 159.665 173.763C160.065 173.825 160.415 173.769 160.715 173.596Z" fill="#6D6D6D"/>
<path d="M178.655 174.44L174.881 172.261L175.25 172.047L179.426 172.783L178.141 170.378L178.511 170.165L182.285 172.344L181.878 172.579L178.928 170.876L180.037 172.968L179.748 173.135L176.112 172.508L179.057 174.208L178.655 174.44ZM184.296 171.239C184.042 171.385 183.767 171.48 183.471 171.524C183.175 171.567 182.875 171.561 182.572 171.505C182.268 171.445 181.979 171.336 181.704 171.177C181.429 171.019 181.242 170.853 181.142 170.68C181.042 170.503 181.03 170.328 181.105 170.157C181.18 169.986 181.344 169.828 181.597 169.681C181.847 169.537 182.12 169.443 182.416 169.4C182.716 169.355 183.018 169.362 183.321 169.422C183.625 169.477 183.914 169.585 184.188 169.743C184.463 169.902 184.651 170.07 184.751 170.247C184.851 170.42 184.861 170.593 184.783 170.766C184.708 170.937 184.545 171.095 184.296 171.239ZM183.948 171.038C184.19 170.898 184.299 170.736 184.274 170.553C184.246 170.368 184.071 170.182 183.749 169.997C183.425 169.809 183.103 169.708 182.786 169.694C182.468 169.679 182.188 169.742 181.945 169.882C181.699 170.024 181.588 170.187 181.613 170.371C181.642 170.552 181.818 170.736 182.143 170.924C182.465 171.109 182.784 171.211 183.102 171.23C183.419 171.244 183.701 171.18 183.948 171.038Z" fill="#6D6D6D"/>
<path d="M204.333 159.618L200.938 157.659L199.568 158.45L199.188 158.23L202.373 156.391L202.753 156.611L201.383 157.402L204.777 159.362L204.333 159.618ZM207.15 158.047C206.526 158.408 205.869 158.389 205.18 157.991L203.563 157.058L203.997 156.808L205.608 157.738C205.84 157.872 206.058 157.944 206.262 157.954C206.469 157.963 206.674 157.908 206.877 157.791C207.099 157.663 207.206 157.516 207.199 157.352C207.188 157.185 207.059 157.03 206.813 156.888L205.335 156.035L205.769 155.785L208.371 157.287L207.948 157.531L207.509 157.277C207.584 157.415 207.589 157.553 207.525 157.689C207.461 157.82 207.336 157.94 207.15 158.047Z" fill="#6D6D6D"/>
<path d="M230.523 144.499L225.426 143.084L225.887 142.818L230.084 144.011L228.044 141.572L228.398 141.368L232.638 142.567L230.566 140.116L231.005 139.863L233.457 142.805L233.066 143.031L228.885 141.86L230.903 144.28L230.523 144.499ZM236.246 141.251C235.836 141.488 235.392 141.606 234.913 141.606C234.432 141.604 233.984 141.484 233.57 141.245C233.302 141.09 233.12 140.923 233.023 140.744C232.924 140.563 232.911 140.386 232.986 140.215C233.061 140.04 233.222 139.882 233.468 139.739C233.821 139.535 234.212 139.442 234.64 139.458C235.065 139.473 235.476 139.594 235.872 139.823L236.038 139.919L234.078 141.05C234.389 141.213 234.701 141.294 235.015 141.294C235.326 141.292 235.62 141.211 235.898 141.05C236.056 140.959 236.182 140.859 236.279 140.75C236.371 140.639 236.427 140.514 236.445 140.376L236.9 140.466C236.893 140.598 236.83 140.735 236.712 140.877C236.591 141.017 236.436 141.142 236.246 141.251ZM233.8 139.919C233.554 140.061 233.436 140.217 233.446 140.388C233.457 140.559 233.575 140.724 233.8 140.883L235.379 139.971C235.104 139.825 234.83 139.747 234.555 139.736C234.283 139.724 234.032 139.785 233.8 139.919Z" fill="#6D6D6D"/>
<path d="M254.525 130.642L251.13 128.682L249.76 129.473L249.38 129.254L252.565 127.415L252.945 127.634L251.575 128.425L254.969 130.385L254.525 130.642ZM256.76 129.351L252.986 127.172L253.42 126.922L255.02 127.846C254.949 127.706 254.951 127.569 255.026 127.435C255.101 127.297 255.235 127.172 255.427 127.061C256.045 126.704 256.696 126.724 257.381 127.119L259.004 128.056L258.57 128.306L256.975 127.385C256.732 127.245 256.507 127.171 256.3 127.163C256.093 127.15 255.886 127.204 255.679 127.323C255.44 127.461 255.324 127.615 255.331 127.784C255.338 127.949 255.465 128.102 255.711 128.244L257.194 129.101L256.76 129.351Z" fill="#6D6D6D"/>
<path d="M280.368 115.723L276.593 113.544L278.927 112.197L279.297 112.41L277.402 113.504L278.719 114.264L280.507 113.232L280.876 113.445L279.088 114.478L280.807 115.47L280.368 115.723ZM283.19 114.094L280.588 112.592L281.011 112.348L281.476 112.617C281.301 112.355 281.414 112.09 281.814 111.822L281.953 111.723L282.36 111.921L282.119 112.097C281.894 112.252 281.785 112.405 281.792 112.558C281.796 112.708 281.914 112.85 282.146 112.984L283.629 113.841L283.19 114.094Z" fill="#6D6D6D"/>
<path d="M306.398 100.749C306.102 100.92 305.797 101.053 305.483 101.148C305.165 101.241 304.846 101.295 304.524 101.312L304.326 101.018C304.647 100.994 304.942 100.943 305.21 100.867C305.477 100.791 305.743 100.676 306.007 100.524C306.329 100.338 306.507 100.167 306.543 100.011C306.578 99.8499 306.498 99.7129 306.302 99.5996C306.145 99.5089 305.963 99.4698 305.756 99.4821C305.552 99.4924 305.292 99.5584 304.974 99.6799L304.305 99.9365C303.898 100.089 303.53 100.167 303.202 100.171C302.874 100.171 302.574 100.093 302.303 99.9365C302.078 99.8067 301.938 99.6604 301.885 99.4976C301.835 99.3327 301.867 99.1638 301.981 98.9907C302.095 98.8176 302.288 98.6528 302.559 98.4962C302.813 98.3499 303.09 98.2376 303.389 98.1593C303.686 98.0789 303.984 98.0387 304.283 98.0387L304.471 98.3262C304.164 98.3344 303.889 98.3715 303.646 98.4374C303.4 98.5013 303.166 98.5971 302.945 98.7249C302.663 98.8877 302.504 99.0556 302.468 99.2287C302.429 99.3997 302.517 99.547 302.731 99.6707C302.902 99.7696 303.09 99.818 303.293 99.8159C303.5 99.8118 303.746 99.7541 304.032 99.6428L304.706 99.3894C305.142 99.2246 305.522 99.137 305.847 99.1267C306.172 99.1123 306.464 99.1803 306.725 99.3307C306.935 99.4522 307.064 99.5924 307.11 99.751C307.16 99.9076 307.125 100.072 307.003 100.246C306.885 100.417 306.684 100.584 306.398 100.749ZM309.232 99.1136C309.053 99.2166 308.859 99.2898 308.648 99.333C308.437 99.3722 308.23 99.3804 308.027 99.3578C307.824 99.3351 307.647 99.2805 307.497 99.194C307.308 99.0847 307.206 98.9704 307.192 98.8509C307.181 98.7293 307.265 98.5902 307.443 98.4336C307.622 98.2729 307.907 98.0792 308.3 97.8526L308.471 97.7537L308.305 97.6578C308.084 97.5301 307.879 97.4652 307.69 97.4631C307.501 97.4569 307.306 97.5115 307.106 97.6269C306.949 97.7176 306.821 97.8186 306.721 97.9298C306.617 98.039 306.539 98.1668 306.485 98.3131L306.019 98.2173C306.059 98.0833 306.146 97.9443 306.282 97.8C306.421 97.6537 306.58 97.5291 306.758 97.426C307.094 97.2323 307.424 97.1365 307.749 97.1386C308.077 97.1386 308.414 97.2385 308.761 97.4384L310.399 98.3842L309.992 98.6191L309.542 98.3594C309.628 98.4872 309.644 98.618 309.59 98.752C309.54 98.8838 309.421 99.0044 309.232 99.1136ZM308.975 98.8849C309.189 98.7612 309.291 98.618 309.28 98.4553C309.266 98.2904 309.144 98.1421 308.916 98.0102L308.755 97.9175L308.589 98.0133C308.3 98.1802 308.086 98.3203 307.947 98.4336C307.808 98.5428 307.738 98.6366 307.738 98.7149C307.738 98.7891 307.795 98.8591 307.909 98.9251C308.056 99.0095 308.225 99.0497 308.418 99.0456C308.614 99.0394 308.8 98.9858 308.975 98.8849Z" fill="#6D6D6D"/>
<path d="M329.822 87.2298C329.525 87.4008 329.22 87.5337 328.906 87.6285C328.588 87.7212 328.269 87.7758 327.948 87.7923L327.75 87.4987C328.071 87.474 328.365 87.4235 328.633 87.3473C328.901 87.271 329.167 87.1567 329.431 87.0042C329.752 86.8187 329.93 86.6477 329.966 86.4911C330.002 86.3304 329.921 86.1934 329.725 86.08C329.568 85.9894 329.386 85.9502 329.179 85.9626C328.976 85.9729 328.715 86.0388 328.397 86.1604L327.728 86.4169C327.321 86.5694 326.954 86.6477 326.625 86.6518C326.297 86.6518 325.997 86.5735 325.726 86.4169C325.501 86.2871 325.362 86.1408 325.308 85.978C325.258 85.8132 325.29 85.6442 325.405 85.4712C325.519 85.2981 325.712 85.1332 325.983 84.9766C326.236 84.8303 326.513 84.718 326.813 84.6397C327.109 84.5594 327.407 84.5192 327.707 84.5192L327.894 84.8066C327.587 84.8149 327.312 84.852 327.07 84.9179C326.823 84.9818 326.59 85.0776 326.368 85.2053C326.086 85.3681 325.928 85.5361 325.892 85.7091C325.853 85.8802 325.94 86.0275 326.154 86.1511C326.325 86.25 326.513 86.2985 326.716 86.2964C326.923 86.2923 327.17 86.2346 327.455 86.1233L328.13 85.8699C328.565 85.705 328.945 85.6175 329.27 85.6072C329.595 85.5927 329.888 85.6607 330.148 85.8111C330.359 85.9327 330.487 86.0728 330.534 86.2315C330.584 86.3881 330.548 86.5529 330.427 86.726C330.309 86.897 330.107 87.065 329.822 87.2298ZM332.757 85.5353C332.132 85.8959 331.475 85.8774 330.786 85.4797L329.17 84.5463L329.603 84.2959L331.215 85.2263C331.447 85.3602 331.665 85.4323 331.868 85.4426C332.075 85.4509 332.28 85.3963 332.484 85.2788C332.705 85.1511 332.812 85.0048 332.805 84.8399C332.794 84.673 332.666 84.5185 332.419 84.3763L330.942 83.5232L331.375 83.2729L333.977 84.775L333.554 85.0192L333.115 84.7657C333.19 84.9038 333.196 85.0408 333.131 85.1768C333.067 85.3087 332.942 85.4282 332.757 85.5353Z" fill="#6D6D6D"/>
<path opacity="0.07" d="M172.826 141.671C163.835 146.862 172.792 160.295 164.334 165.178L168.967 167.853L320.882 80.1521L274.036 53.1078C261.024 60.6197 276.147 71.9793 266.309 77.6586C253.892 84.827 258.498 92.2133 247.311 98.6711C234.628 105.993 224.499 104.887 214.74 110.52C204.633 116.355 183.905 109.033 174.427 114.505C162.902 121.158 183.161 135.705 172.826 141.671Z" fill="url(#paint0_linear_100_3689)"/>
<path d="M161.94 163.796C161.386 164.116 161.386 164.635 161.94 164.955C162.495 165.275 163.393 165.275 163.948 164.955L161.94 163.796ZM214.74 110.52L215.744 111.1L214.74 110.52ZM266.644 77.8518L265.64 77.2722L266.644 77.8518ZM275.04 53.6873C275.595 53.3673 275.595 52.8484 275.04 52.5283C274.486 52.2082 273.587 52.2082 273.032 52.5283L275.04 53.6873ZM163.948 164.955C166.35 163.569 167.562 161.691 168.238 159.685C168.913 157.682 169.085 155.442 169.27 153.276C169.458 151.08 169.659 148.952 170.35 147.054C171.04 145.16 172.19 143.584 174.165 142.444L172.157 141.285C169.637 142.74 168.319 144.665 167.572 146.716C166.826 148.763 166.62 151.022 166.435 153.195C166.246 155.398 166.079 157.508 165.451 159.372C164.823 161.234 163.767 162.741 161.94 163.796L163.948 164.955ZM174.165 142.444C177.165 140.712 177.844 138.397 177.563 135.981C177.284 133.579 176.033 130.906 174.877 128.326C173.7 125.702 172.614 123.161 172.5 120.875C172.387 118.61 173.234 116.71 175.74 115.263L173.733 114.104C170.476 115.984 169.536 118.399 169.662 120.922C169.787 123.424 170.965 126.144 172.128 128.737C173.31 131.375 174.472 133.877 174.73 136.091C174.986 138.291 174.324 140.034 172.157 141.285L174.165 142.444ZM175.74 115.263C177.795 114.077 180.485 113.541 183.702 113.361C186.951 113.179 190.565 113.366 194.382 113.555C198.133 113.74 202.073 113.925 205.724 113.677C209.409 113.427 212.92 112.73 215.744 111.1L213.736 109.941C211.506 111.228 208.675 111.826 205.393 112.049C202.076 112.274 198.425 112.109 194.623 111.921C190.887 111.737 186.988 111.53 183.427 111.729C179.834 111.931 176.418 112.554 173.733 114.104L175.74 115.263ZM215.744 111.1C220.39 108.418 225.169 107.389 230.639 106.083C236.121 104.774 242.112 103.218 248.65 99.4438L246.642 98.2848C240.497 101.832 234.913 103.288 229.554 104.568C224.181 105.851 218.849 106.989 213.736 109.941L215.744 111.1ZM248.65 99.4438C254.532 96.048 256.255 92.3889 258.046 88.8546C259.836 85.3227 261.71 81.8593 267.648 78.4313L265.64 77.2722C259.161 81.0126 257.129 84.8266 255.321 88.3943C253.514 91.9598 251.946 95.2227 246.642 98.2848L248.65 99.4438ZM267.648 78.4313C270.448 76.8146 271.392 74.7976 271.538 72.6784C271.682 70.5914 271.052 68.2877 270.558 66.0627C269.545 61.5029 269.073 57.1321 275.04 53.6873L273.032 52.5283C265.987 56.5954 266.739 61.7569 267.742 66.2713C268.255 68.5834 268.833 70.7022 268.701 72.6134C268.572 74.4924 267.759 76.0493 265.64 77.2722L267.648 78.4313Z" fill="#1EE5CE"/>
<path d="M55.9371 121.321C55.2812 121.699 54.5353 121.981 53.6992 122.165C52.8586 122.346 51.9902 122.431 51.0942 122.421C50.1981 122.405 49.3205 122.293 48.4614 122.085C47.6069 121.874 46.8332 121.569 46.1404 121.169C45.4476 120.769 44.9187 120.322 44.5538 119.829C44.1935 119.333 44.0018 118.828 43.9788 118.313C43.9557 117.793 44.1035 117.292 44.4222 116.809C44.7363 116.324 45.2212 115.892 45.8771 115.513C46.6623 115.06 47.5676 114.748 48.593 114.577C49.6184 114.407 50.6508 114.371 51.69 114.469L51.2951 115.233C50.496 115.167 49.6993 115.208 48.9048 115.357C48.1104 115.501 47.4245 115.74 46.8471 116.073C46.3159 116.38 45.9279 116.729 45.6831 117.121C45.4383 117.508 45.3298 117.909 45.3575 118.325C45.3852 118.741 45.5469 119.146 45.8425 119.541C46.1381 119.936 46.5607 120.292 47.1104 120.609C47.6693 120.931 48.2905 121.178 48.9741 121.349C49.6623 121.517 50.3667 121.609 51.0872 121.625C51.8124 121.638 52.5099 121.574 53.1796 121.433C53.8493 121.286 54.4452 121.062 54.9671 120.761C55.5676 120.414 55.9879 120.014 56.2281 119.561C56.4683 119.102 56.5352 118.648 56.429 118.197L57.7523 117.969C57.9232 118.569 57.8609 119.165 57.5653 119.757C57.265 120.346 56.7223 120.867 55.9371 121.321ZM60.9968 118.192L50.6043 112.192L51.5743 111.632L61.9668 117.632L60.9968 118.192ZM56.7072 112.669L57.6772 112.109L64.6055 116.108L63.6356 116.668L56.7072 112.669ZM55.9867 111.685C55.8296 111.775 55.6449 111.823 55.4324 111.829C55.2199 111.829 55.0352 111.783 54.8781 111.693C54.7211 111.602 54.6449 111.497 54.6495 111.377C54.6541 111.251 54.7349 111.143 54.892 111.053C55.0444 110.965 55.2269 110.921 55.4393 110.921C55.6518 110.915 55.8366 110.958 55.9936 111.049C56.1506 111.139 56.2292 111.246 56.2292 111.369C56.2245 111.489 56.1437 111.594 55.9867 111.685ZM69.4145 111.324L70.7516 111.096C70.8764 111.531 70.8279 111.964 70.6062 112.396C70.3891 112.826 69.9988 113.203 69.4353 113.528C68.7978 113.896 68.0519 114.138 67.1974 114.252C66.3475 114.364 65.4907 114.352 64.627 114.216C63.7632 114.075 62.9965 113.811 62.3268 113.424C61.8187 113.131 61.4353 112.806 61.1767 112.448C60.9134 112.088 60.7725 111.722 60.754 111.348C60.7356 110.97 60.8418 110.604 61.0727 110.252C61.3037 109.901 61.657 109.587 62.1328 109.313C62.6963 108.987 63.3499 108.762 64.0935 108.637C64.8418 108.509 65.5946 108.482 66.3521 108.557L65.9503 109.325C65.4053 109.287 64.8833 109.319 64.3845 109.421C63.881 109.519 63.4538 109.67 63.1027 109.873C62.6362 110.142 62.3383 110.458 62.209 110.82C62.075 111.18 62.1004 111.542 62.2852 111.904C62.4746 112.264 62.8118 112.584 63.2967 112.864C63.7817 113.144 64.3383 113.338 64.9665 113.444C65.5993 113.548 66.2274 113.562 66.851 113.484C67.4699 113.404 68.008 113.232 68.4653 112.968C68.844 112.75 69.1119 112.494 69.269 112.2C69.426 111.907 69.4745 111.615 69.4145 111.324ZM78.5866 108.037L77.4712 108.681L72.1848 107.869L72.455 109.625L74.1456 110.601L73.1756 111.161L62.7831 105.161L63.753 104.601L70.9447 108.753L70.3419 104.797L71.6098 104.065L72.0532 107.033L78.5866 108.037ZM82.0517 106.189C81.6637 106.402 81.2249 106.575 80.7353 106.709C80.2457 106.842 79.7561 106.922 79.2665 106.949C78.7769 106.975 78.3335 106.941 77.9362 106.845L78.4143 106.153C78.6683 106.214 78.9709 106.231 79.3219 106.205C79.6729 106.173 80.024 106.109 80.375 106.013C80.7214 105.914 81.0217 105.792 81.2757 105.645C81.5575 105.482 81.7746 105.304 81.927 105.109C82.0794 104.914 82.1464 104.724 82.1279 104.537C82.1094 104.345 81.9824 104.181 81.7468 104.045C81.4928 103.898 81.211 103.832 80.9016 103.845C80.5875 103.856 80.2619 103.91 79.9247 104.009C79.5829 104.105 79.2388 104.208 78.8924 104.317C78.2688 104.522 77.6891 104.686 77.1533 104.809C76.6175 104.932 76.1187 104.982 75.6568 104.961C75.1949 104.934 74.7654 104.806 74.3681 104.577C73.9478 104.334 73.703 104.057 73.6337 103.745C73.5644 103.428 73.6384 103.11 73.8554 102.793C74.0725 102.47 74.4005 102.182 74.8393 101.929C75.4028 101.604 76.0379 101.378 76.7446 101.253C77.4559 101.125 78.1187 101.118 78.733 101.233L78.4143 101.953C78.1418 101.892 77.8462 101.873 77.5275 101.897C77.2088 101.921 76.8947 101.977 76.5852 102.065C76.2804 102.15 76.0078 102.26 75.7677 102.393C75.4674 102.561 75.2365 102.745 75.0748 102.945C74.9086 103.142 74.8346 103.337 74.8531 103.529C74.8762 103.718 75.0148 103.886 75.2688 104.033C75.5229 104.18 75.7931 104.248 76.0794 104.237C76.3612 104.224 76.673 104.166 77.0148 104.065C77.3566 103.958 77.7446 103.841 78.1787 103.713C78.733 103.548 79.2803 103.408 79.8208 103.293C80.3612 103.178 80.8716 103.129 81.3519 103.145C81.8323 103.161 82.2642 103.282 82.6475 103.509C83.0632 103.749 83.3011 104.03 83.3611 104.353C83.4212 104.676 83.3357 105 83.1048 105.325C82.8692 105.648 82.5182 105.936 82.0517 106.189Z" fill="#9A9A9A"/>
<path d="M79.1191 139.728L76.476 138.202C76.6053 137.67 76.7387 137.029 76.8761 136.278C77.0054 135.522 77.1105 134.728 77.1913 133.898C77.2641 133.062 77.2802 132.26 77.2398 131.49C77.1994 130.72 77.0701 130.039 76.8518 129.446C76.6417 128.849 76.3143 128.422 75.8697 128.165C75.3767 127.88 74.8068 127.691 74.1602 127.598C73.5054 127.5 72.8547 127.498 72.2081 127.591C71.5695 127.68 71.0037 127.866 70.5106 128.151C70.0176 128.436 69.6902 128.765 69.5285 129.138C69.3669 129.511 69.3709 129.887 69.5407 130.265C69.7023 130.638 70.0297 130.967 70.5228 131.252L67.5644 132.96C66.4974 132.344 65.7982 131.641 65.4668 130.853C65.1273 130.06 65.1354 129.276 65.4911 128.501C65.8467 127.717 66.5338 127.031 67.5522 126.443C68.5869 125.846 69.7832 125.449 71.1411 125.253C72.491 125.053 73.849 125.053 75.215 125.253C76.581 125.454 77.7854 125.855 78.8281 126.457C79.3778 126.774 79.8304 127.152 80.1861 127.591C80.5417 128.03 80.8206 128.517 81.0227 129.054C81.2248 129.591 81.3703 130.169 81.4592 130.79C81.54 131.406 81.5845 132.061 81.5925 132.757C81.6006 133.443 81.5925 134.157 81.5683 134.899L87.5942 131.42L90.5526 133.128L79.1191 139.728ZM104.339 125.533C103.312 126.126 102.144 126.52 100.835 126.716C99.5254 126.912 98.22 126.914 96.9186 126.723C95.6092 126.527 94.4533 126.14 93.451 125.561L96.4094 123.853C96.8621 124.114 97.3794 124.292 97.9614 124.385C98.5514 124.474 99.1496 124.474 99.7558 124.385C100.354 124.292 100.896 124.105 101.38 123.825C101.825 123.568 102.128 123.267 102.29 122.922C102.452 122.567 102.464 122.215 102.326 121.865C102.189 121.515 101.894 121.209 101.441 120.948C100.851 120.608 100.204 120.416 99.5012 120.374C98.7899 120.328 98.0543 120.412 97.2945 120.626C96.5428 120.836 95.7951 121.156 95.0514 121.585L92.772 120.269C93.7743 119.691 94.3765 119.124 94.5786 118.568C94.7887 118.008 94.526 117.516 93.7905 117.091C93.4106 116.872 92.966 116.727 92.4568 116.657C91.9475 116.587 91.4383 116.592 90.9291 116.671C90.4198 116.741 89.9753 116.886 89.5954 117.105C89.2074 117.329 88.9285 117.602 88.7588 117.924C88.5809 118.242 88.5324 118.559 88.6133 118.876C88.7022 119.189 88.9366 119.455 89.3165 119.674L86.3581 121.382C85.6629 120.981 85.1537 120.524 84.8304 120.01C84.499 119.492 84.3494 118.958 84.3818 118.407C84.4222 117.852 84.6283 117.318 85.0001 116.804C85.372 116.282 85.9054 115.82 86.6006 115.419C87.514 114.891 88.585 114.534 89.8136 114.348C91.0422 114.161 92.2709 114.152 93.4995 114.32C94.7281 114.488 95.8113 114.842 96.7489 115.384C97.4036 115.762 97.8926 116.221 98.216 116.762C98.5393 117.304 98.5474 117.812 98.2402 118.288C98.9111 118.106 99.6224 118.041 100.374 118.092C101.118 118.139 101.841 118.267 102.544 118.477C103.248 118.678 103.866 118.932 104.4 119.24C105.394 119.814 106.053 120.484 106.376 121.249C106.691 122.01 106.679 122.773 106.339 123.538C106 124.294 105.333 124.959 104.339 125.533ZM118.433 117.032L114.323 114.66L107.096 118.831L104.126 117.116L100.767 107.632L104.417 105.525L114.323 111.244L115.753 110.418L118.712 112.126L117.281 112.952L121.391 115.324L118.433 117.032ZM107.557 115.135L111.364 112.952L105.484 109.571L107.557 115.135ZM125.613 112.887L119.684 100.127L110.748 105.286L107.79 103.578L120.157 96.4383L123.116 98.1462L129.02 110.92L125.613 112.887Z" fill="black"/>
<path d="M132.242 94.4588L130.008 93.1689L127.774 94.4588L127.046 94.0389L129.281 92.7489L127.046 91.459L127.774 91.039L130.008 92.329L132.242 91.039L132.97 91.459L130.735 92.7489L132.97 94.0389L132.242 94.4588ZM138.827 91.4136C138.383 91.6695 137.897 91.8385 137.367 91.9205C136.833 92.0005 136.307 92.0005 135.787 91.9205C135.271 91.8385 134.814 91.6825 134.415 91.4526L135.143 91.0326C135.406 91.1846 135.709 91.2896 136.052 91.3476C136.395 91.4016 136.745 91.4016 137.102 91.3476C137.455 91.2916 137.788 91.1736 138.099 90.9936C138.363 90.8416 138.545 90.6626 138.645 90.4566C138.745 90.2466 138.758 90.0376 138.681 89.8297C138.605 89.6177 138.435 89.4357 138.172 89.2837C137.843 89.0937 137.486 88.9837 137.102 88.9537C136.714 88.9217 136.321 88.9587 135.922 89.0647C135.52 89.1687 135.132 89.3287 134.758 89.5447L134.155 89.1967C134.672 88.8987 134.976 88.5967 135.07 88.2908C135.164 87.9808 134.997 87.7028 134.571 87.4568C134.339 87.3228 134.064 87.2378 133.745 87.2018C133.43 87.1638 133.113 87.1708 132.794 87.2228C132.475 87.2708 132.2 87.3618 131.968 87.4958C131.736 87.6298 131.571 87.7928 131.474 87.9848C131.377 88.1728 131.356 88.3608 131.412 88.5487C131.471 88.7347 131.616 88.8947 131.848 89.0287L131.121 89.4487C130.847 89.2907 130.648 89.1097 130.523 88.9057C130.395 88.6997 130.338 88.4867 130.352 88.2668C130.366 88.0468 130.447 87.8338 130.596 87.6278C130.745 87.4218 130.958 87.2388 131.235 87.0788C131.599 86.8688 132.027 86.7259 132.519 86.6499C133.014 86.5719 133.509 86.5639 134.005 86.6259C134.5 86.6879 134.931 86.8249 135.299 87.0368C135.655 87.2428 135.886 87.4818 135.99 87.7538C136.094 88.0258 136.049 88.2858 135.855 88.5337C136.215 88.4297 136.579 88.3778 136.946 88.3778C137.31 88.3758 137.658 88.4167 137.99 88.5007C138.323 88.5847 138.626 88.7057 138.9 88.8637C139.298 89.0937 139.558 89.3637 139.679 89.6737C139.8 89.9836 139.788 90.2946 139.643 90.6066C139.497 90.9146 139.225 91.1836 138.827 91.4136ZM144.483 88.1485C144.046 88.4005 143.559 88.5695 143.022 88.6555C142.482 88.7395 141.917 88.7515 141.328 88.6915C140.74 88.6315 140.154 88.5075 139.572 88.3195C138.99 88.1275 138.439 87.8815 137.92 87.5815C137.4 87.2816 136.974 86.9636 136.641 86.6276C136.312 86.2896 136.098 85.9516 135.997 85.6137C135.893 85.2737 135.916 84.9487 136.065 84.6387C136.21 84.3267 136.501 84.0448 136.938 83.7928C137.371 83.5428 137.857 83.3758 138.398 83.2918C138.935 83.2058 139.496 83.1938 140.081 83.2558C140.663 83.3158 141.245 83.4418 141.827 83.6338C142.413 83.8238 142.965 84.0688 143.485 84.3687C144.005 84.6687 144.429 84.9877 144.758 85.3257C145.087 85.6597 145.305 85.9956 145.413 86.3336C145.52 86.6716 145.501 86.9966 145.356 87.3086C145.207 87.6185 144.916 87.8985 144.483 88.1485ZM143.755 87.7285C144.212 87.4645 144.455 87.1626 144.483 86.8226C144.514 86.4806 144.377 86.1316 144.072 85.7757C143.764 85.4177 143.338 85.0817 142.794 84.7677C142.219 84.4357 141.621 84.1848 141.001 84.0148C140.381 83.8408 139.782 83.7668 139.203 83.7928C138.625 83.8148 138.112 83.9548 137.665 84.2128C137.312 84.4167 137.085 84.6417 136.984 84.8877C136.884 85.1337 136.889 85.3887 137 85.6527C137.111 85.9166 137.307 86.1796 137.587 86.4416C137.864 86.7016 138.206 86.9486 138.611 87.1826C139.158 87.4985 139.744 87.7445 140.367 87.9205C140.987 88.0945 141.593 88.1725 142.186 88.1545C142.775 88.1345 143.298 87.9925 143.755 87.7285ZM148.242 85.8224L145.165 79.1989L146.007 78.7129L149.083 85.3365L148.242 85.8224ZM144.661 82.7716C144.433 82.9036 144.169 82.9916 143.872 83.0356C143.574 83.0796 143.274 83.0806 142.973 83.0386C142.671 82.9926 142.406 82.9036 142.178 82.7716C141.942 82.6356 141.786 82.4817 141.71 82.3097C141.637 82.1357 141.639 81.9627 141.715 81.7907C141.795 81.6167 141.947 81.4647 142.172 81.3347C142.401 81.2027 142.666 81.1157 142.967 81.0737C143.265 81.0297 143.563 81.0297 143.861 81.0737C144.163 81.1157 144.429 81.2037 144.661 81.3377C144.894 81.4717 145.046 81.6257 145.119 81.7997C145.195 81.9717 145.193 82.1447 145.113 82.3187C145.037 82.4907 144.887 82.6416 144.661 82.7716ZM144.105 82.4507C144.299 82.3387 144.396 82.2067 144.396 82.0547C144.393 81.9007 144.296 81.7687 144.105 81.6587C143.911 81.5467 143.683 81.4907 143.419 81.4907C143.153 81.4887 142.922 81.5437 142.728 81.6557C142.538 81.7657 142.443 81.8987 142.443 82.0547C142.443 82.2067 142.54 82.3387 142.734 82.4507C142.924 82.5606 143.153 82.6166 143.419 82.6186C143.686 82.6166 143.915 82.5606 144.105 82.4507ZM152.092 83.1976C151.863 83.3296 151.597 83.4176 151.292 83.4616C150.987 83.5016 150.684 83.5006 150.382 83.4586C150.081 83.4126 149.82 83.3256 149.598 83.1976C149.366 83.0636 149.213 82.9096 149.141 82.7356C149.064 82.5596 149.064 82.3857 149.141 82.2137C149.22 82.0397 149.373 81.8877 149.598 81.7577C149.83 81.6237 150.097 81.5357 150.398 81.4937C150.699 81.4517 151.001 81.4537 151.302 81.4997C151.6 81.5437 151.862 81.6307 152.087 81.7607C152.316 81.8927 152.47 82.0457 152.549 82.2197C152.626 82.3917 152.626 82.5656 152.549 82.7416C152.473 82.9136 152.321 83.0656 152.092 83.1976ZM151.536 82.8766C151.723 82.7686 151.817 82.6366 151.817 82.4807C151.817 82.3247 151.721 82.1917 151.531 82.0817C151.34 81.9717 151.11 81.9167 150.84 81.9167C150.57 81.9167 150.341 81.9707 150.154 82.0787C149.963 82.1887 149.866 82.3227 149.863 82.4807C149.863 82.6366 149.958 82.7696 150.149 82.8796C150.339 82.9896 150.57 83.0446 150.84 83.0446C151.113 83.0426 151.346 82.9866 151.536 82.8766Z" fill="#02E341"/>
</g>
<defs>
<filter id="filter0_f_100_3689" x="-9.49121" y="0.652344" width="390.018" height="242.064" filterUnits="userSpaceOnUse" color-interpolation-filters="sRGB">
<feFlood flood-opacity="0" result="BackgroundImageFix"/>
<feBlend mode="normal" in="SourceGraphic" in2="BackgroundImageFix" result="shape"/>
<feGaussianBlur stdDeviation="10" result="effect1_foregroundBlur_100_3689"/>
</filter>
<linearGradient id="paint0_linear_100_3689" x1="122.121" y1="140.809" x2="145.541" y2="181.377" gradientUnits="userSpaceOnUse">
<stop stop-color="#1EE5CE"/>
<stop offset="1" stop-color="#1EE5CE" stop-opacity="0"/>
</linearGradient>
<clipPath id="clip0_100_3689">
<rect width="237.595" height="166.562" rx="20" transform="matrix(0.866044 -0.499967 0.866044 0.499967 10 118.789)" fill="white"/>
</clipPath>
</defs>
</svg>
