<svg width="138" height="95" viewBox="0 0 138 95" fill="none" xmlns="http://www.w3.org/2000/svg">
<rect y="41.3613" width="126" height="56" rx="10" transform="rotate(-19.1638 0 41.3613)" fill="#C753E4"/>
<path d="M37.669 66.3827L25.1323 52.8269L27.1273 52.1336L37.7338 63.7177L38.8477 48.0604L40.7973 47.3829L39.3466 65.7997L37.669 66.3827ZM48.3115 62.6841L42.7572 46.7018L49.0821 44.5037C50.8051 43.9049 52.2644 43.8636 53.46 44.3797C54.6708 44.8905 55.5441 45.9167 56.0798 47.4583C56.6103 48.9847 56.5617 50.3313 55.9339 51.498C55.316 52.6444 54.1455 53.517 52.4226 54.1158L47.9566 55.6678L50.1705 62.0381L48.3115 62.6841ZM47.413 54.1036L51.6523 52.6303C54.1309 51.7689 54.9946 50.2576 54.2436 48.0964C53.4872 45.9201 51.8698 45.2626 49.3912 46.124L45.1519 47.5973L47.413 54.1036ZM59.4997 58.7959L60.9958 40.3633L62.5827 39.8119L75.1874 53.344L73.2604 54.0137L70.074 50.5476L61.7541 53.439L61.4267 58.1262L59.4997 58.7959ZM62.5229 42.2718L61.8906 51.6384L68.873 49.2118L62.5682 42.256L62.5229 42.2718ZM77.5567 52.5206L72.0024 36.5382L73.8614 35.8922L79.4157 51.8746L77.5567 52.5206ZM83.3571 50.5048L77.8028 34.5225L83.1982 32.6474C85.7826 31.7492 88.0166 31.7436 89.9001 32.6304C91.7783 33.5022 93.1665 35.2302 94.0646 37.8146C94.9628 40.399 94.9481 42.6231 94.0205 44.4869C93.0929 46.3506 91.3369 47.7316 88.7525 48.6297L83.3571 50.5048ZM84.6645 48.2719L88.065 47.0901C92.2363 45.6405 93.5788 42.7771 92.0924 38.5C90.6112 34.2381 87.785 32.8319 83.6137 34.2815L80.2132 35.4633L84.6645 48.2719ZM100.25 44.6339L99.762 43.2283L103.177 35.4354C103.654 34.3212 103.938 33.3587 104.028 32.548C104.134 31.7319 104.061 30.9612 103.809 30.2358C103.163 28.3768 101.76 27.8229 99.5984 28.574C97.9813 29.136 96.7631 30.2369 95.944 31.8766L94.737 30.67C95.1164 29.8606 95.6964 29.117 96.4771 28.4391C97.2678 27.7409 98.1694 27.2158 99.1819 26.8639C100.784 26.3072 102.139 26.2596 103.248 26.7211C104.367 27.1623 105.166 28.0705 105.644 29.4458C105.974 30.398 106.066 31.4164 105.918 32.5012C105.764 33.5708 105.383 34.7875 104.773 36.1514L102.079 42.2197L109.878 39.5096L110.429 41.0965L100.25 44.6339Z" fill="white"/>
</svg>
