<svg width="370" height="237" viewBox="0 0 370 237" fill="none" xmlns="http://www.w3.org/2000/svg">
<g filter="url(#filter0_f_100_3668)">
<rect width="237.595" height="166.562" rx="20" transform="matrix(0.866044 -0.499967 0.866044 0.499967 10 138.789)" fill="black" fill-opacity="0.05"/>
</g>
<g clip-path="url(#clip0_100_3668)">
<rect width="237.595" height="166.562" rx="20" transform="matrix(0.866044 -0.499967 0.866044 0.499967 10 118.789)" fill="white"/>
<path d="M166.112 168.512L322.261 78.3668" stroke="#FAFAFA" stroke-width="0.79428" stroke-linecap="round"/>
<path d="M93.5637 147.503L93.2225 147.306L93.1179 145.714C93.0996 145.488 93.0464 145.302 92.9584 145.158C92.874 145.012 92.7437 144.888 92.5676 144.787C92.1164 144.526 91.6284 144.547 91.1038 144.85C90.7113 145.077 90.5113 145.362 90.504 145.705L89.9812 145.6C89.9775 145.433 90.0417 145.26 90.1738 145.082C90.3059 144.9 90.4948 144.738 90.7406 144.596C91.1295 144.372 91.5184 144.253 91.9073 144.24C92.2962 144.223 92.6575 144.311 92.9914 144.504C93.2225 144.637 93.3931 144.801 93.5032 144.996C93.6095 145.189 93.6701 145.425 93.6848 145.705L93.7563 146.947L95.6493 145.854L96.0346 146.076L93.5637 147.503ZM98.0685 144.959C97.6246 145.216 97.1165 145.312 96.5442 145.249C95.9719 145.185 95.3629 144.967 94.7172 144.594C94.0678 144.219 93.6899 143.868 93.5836 143.539C93.4772 143.211 93.6459 142.919 94.0898 142.663C94.5374 142.404 95.0437 142.307 95.6087 142.37C96.1737 142.43 96.7808 142.647 97.4302 143.022C98.0795 143.396 98.4574 143.75 98.5638 144.083C98.6739 144.413 98.5088 144.705 98.0685 144.959ZM97.6778 144.734C97.986 144.556 98.0832 144.349 97.9695 144.114C97.8594 143.877 97.5292 143.6 96.9789 143.282C96.4286 142.964 95.9535 142.775 95.5536 142.713C95.1501 142.65 94.7924 142.708 94.4805 142.888C94.1724 143.066 94.0715 143.273 94.1779 143.508C94.2879 143.741 94.6163 144.015 95.1629 144.33C95.7132 144.648 96.192 144.84 96.5992 144.905C97.0101 144.969 97.3697 144.912 97.6778 144.734ZM102.782 142.239C102.338 142.495 101.83 142.591 101.257 142.528C100.685 142.464 100.076 142.246 99.4302 141.873C98.7809 141.498 98.403 141.147 98.2966 140.819C98.1902 140.49 98.359 140.198 98.8029 139.942C99.2505 139.683 99.7568 139.586 100.322 139.649C100.887 139.709 101.494 139.926 102.143 140.301C102.793 140.676 103.17 141.029 103.277 141.362C103.387 141.692 103.222 141.984 102.782 142.239ZM102.391 142.013C102.699 141.835 102.796 141.629 102.683 141.394C102.572 141.156 102.242 140.879 101.692 140.561C101.142 140.243 100.667 140.054 100.267 139.993C99.8632 139.929 99.5055 139.987 99.1936 140.167C98.8854 140.345 98.7846 140.552 98.8909 140.787C99.001 141.02 99.3294 141.294 99.876 141.61C100.426 141.927 100.905 142.119 101.312 142.185C101.723 142.248 102.083 142.191 102.391 142.013ZM106.081 140.334C105.637 140.59 105.129 140.686 104.557 140.623C103.985 140.559 103.376 140.341 102.73 139.968C102.081 139.593 101.703 139.242 101.596 138.914C101.49 138.585 101.659 138.293 102.103 138.037C102.55 137.778 103.056 137.681 103.621 137.745C104.186 137.804 104.794 138.021 105.443 138.396C106.092 138.771 106.47 139.124 106.577 139.457C106.687 139.787 106.522 140.08 106.081 140.334ZM105.691 140.108C105.999 139.93 106.096 139.724 105.982 139.489C105.872 139.251 105.542 138.974 104.992 138.656C104.441 138.339 103.966 138.149 103.566 138.088C103.163 138.024 102.805 138.082 102.493 138.262C102.185 138.44 102.084 138.647 102.191 138.882C102.301 139.115 102.629 139.389 103.176 139.705C103.726 140.022 104.205 140.214 104.612 140.28C105.023 140.343 105.382 140.286 105.691 140.108ZM109.381 138.429C108.937 138.685 108.429 138.781 107.857 138.718C107.284 138.654 106.675 138.436 106.03 138.063C105.38 137.689 105.002 137.337 104.896 137.009C104.79 136.68 104.958 136.388 105.402 136.132C105.85 135.873 106.356 135.776 106.921 135.84C107.486 135.899 108.093 136.116 108.743 136.491C109.392 136.866 109.77 137.219 109.876 137.552C109.986 137.882 109.821 138.175 109.381 138.429ZM108.99 138.203C109.298 138.025 109.396 137.819 109.282 137.584C109.172 137.347 108.842 137.069 108.291 136.751C107.741 136.434 107.266 136.244 106.866 136.183C106.463 136.119 106.105 136.177 105.793 136.357C105.485 136.535 105.384 136.742 105.49 136.977C105.6 137.21 105.929 137.484 106.475 137.8C107.026 138.117 107.504 138.309 107.912 138.375C108.323 138.438 108.682 138.381 108.99 138.203Z" fill="#6D6D6D"/>
<path d="M121.954 163.676L121.569 163.454L122.455 162.942L119.505 161.239L119.246 161.897L118.718 161.814L119.087 160.852L119.412 160.664L122.906 162.682L123.737 162.202L124.122 162.424L121.954 163.676ZM126.272 161.241C125.828 161.497 125.32 161.593 124.747 161.53C124.175 161.466 123.566 161.248 122.92 160.875C122.271 160.5 121.893 160.149 121.787 159.821C121.68 159.492 121.849 159.2 122.293 158.944C122.741 158.685 123.247 158.588 123.812 158.652C124.377 158.711 124.984 158.928 125.633 159.303C126.283 159.678 126.661 160.031 126.767 160.364C126.877 160.694 126.712 160.987 126.272 161.241ZM125.881 161.015C126.189 160.837 126.286 160.631 126.173 160.396C126.063 160.158 125.732 159.881 125.182 159.563C124.632 159.246 124.157 159.056 123.757 158.995C123.353 158.931 122.996 158.989 122.684 159.169C122.376 159.347 122.275 159.554 122.381 159.789C122.491 160.022 122.819 160.296 123.366 160.612C123.916 160.929 124.395 161.121 124.802 161.187C125.213 161.25 125.573 161.193 125.881 161.015ZM130.985 158.52C130.541 158.776 130.033 158.872 129.46 158.809C128.888 158.745 128.279 158.527 127.633 158.154C126.984 157.78 126.606 157.428 126.5 157.1C126.393 156.771 126.562 156.479 127.006 156.223C127.454 155.965 127.96 155.867 128.525 155.931C129.09 155.99 129.697 156.207 130.346 156.582C130.996 156.957 131.374 157.31 131.48 157.643C131.59 157.973 131.425 158.266 130.985 158.52ZM130.594 158.294C130.902 158.116 130.999 157.91 130.886 157.675C130.776 157.438 130.445 157.16 129.895 156.842C129.345 156.525 128.87 156.335 128.47 156.274C128.066 156.21 127.709 156.268 127.397 156.448C127.089 156.626 126.988 156.833 127.094 157.068C127.204 157.301 127.532 157.575 128.079 157.891C128.629 158.209 129.108 158.4 129.515 158.466C129.926 158.529 130.286 158.472 130.594 158.294ZM134.284 156.615C133.84 156.871 133.332 156.968 132.76 156.904C132.188 156.84 131.579 156.622 130.933 156.25C130.284 155.875 129.906 155.523 129.799 155.195C129.693 154.867 129.862 154.574 130.306 154.318C130.753 154.06 131.26 153.962 131.825 154.026C132.39 154.085 132.997 154.302 133.646 154.677C134.295 155.052 134.673 155.406 134.78 155.738C134.89 156.069 134.725 156.361 134.284 156.615ZM133.894 156.389C134.202 156.211 134.299 156.005 134.185 155.77C134.075 155.533 133.745 155.255 133.195 154.938C132.645 154.62 132.169 154.43 131.77 154.369C131.366 154.305 131.008 154.364 130.696 154.544C130.388 154.721 130.287 154.928 130.394 155.163C130.504 155.396 130.832 155.67 131.379 155.986C131.929 156.304 132.408 156.495 132.815 156.561C133.226 156.624 133.586 156.567 133.894 156.389ZM137.584 154.71C137.14 154.966 136.632 155.063 136.06 154.999C135.487 154.936 134.878 154.717 134.233 154.345C133.583 153.97 133.205 153.618 133.099 153.29C132.993 152.962 133.161 152.669 133.605 152.413C134.053 152.155 134.559 152.057 135.124 152.121C135.689 152.18 136.296 152.397 136.946 152.772C137.595 153.147 137.973 153.501 138.079 153.833C138.189 154.164 138.024 154.456 137.584 154.71ZM137.193 154.484C137.502 154.307 137.599 154.1 137.485 153.865C137.375 153.628 137.045 153.35 136.494 153.033C135.944 152.715 135.469 152.525 135.069 152.464C134.666 152.4 134.308 152.459 133.996 152.639C133.688 152.817 133.587 153.023 133.693 153.258C133.803 153.491 134.132 153.765 134.678 154.081C135.229 154.399 135.708 154.59 136.115 154.656C136.526 154.72 136.885 154.662 137.193 154.484Z" fill="#6D6D6D"/>
<path d="M158.742 175.06C158.298 175.316 157.79 175.412 157.217 175.349C156.645 175.285 156.036 175.067 155.39 174.694C154.741 174.319 154.363 173.968 154.257 173.64C154.15 173.311 154.319 173.019 154.763 172.763C155.211 172.504 155.717 172.407 156.282 172.47C156.847 172.53 157.454 172.747 158.103 173.122C158.753 173.497 159.131 173.85 159.237 174.183C159.347 174.513 159.182 174.806 158.742 175.06ZM158.351 174.834C158.659 174.656 158.756 174.45 158.643 174.215C158.533 173.977 158.202 173.7 157.652 173.382C157.102 173.065 156.627 172.875 156.227 172.814C155.823 172.75 155.466 172.808 155.154 172.988C154.846 173.166 154.745 173.373 154.851 173.608C154.961 173.841 155.29 174.115 155.836 174.431C156.386 174.748 156.865 174.94 157.272 175.006C157.683 175.069 158.043 175.012 158.351 174.834Z" fill="#6D6D6D"/>
<path d="M176.792 175.701L172.912 173.462L173.292 173.242L177.584 173.999L176.263 171.527L176.643 171.308L180.523 173.547L180.104 173.789L177.072 172.038L178.211 174.189L177.914 174.361L174.178 173.716L177.204 175.463L176.792 175.701ZM182.589 172.412C182.328 172.562 182.046 172.66 181.741 172.704C181.437 172.749 181.129 172.742 180.817 172.685C180.505 172.624 180.208 172.511 179.925 172.348C179.643 172.185 179.45 172.015 179.348 171.837C179.245 171.655 179.232 171.476 179.309 171.3C179.386 171.124 179.555 170.961 179.815 170.811C180.072 170.662 180.353 170.566 180.657 170.522C180.965 170.475 181.275 170.482 181.587 170.544C181.899 170.601 182.196 170.711 182.479 170.874C182.761 171.037 182.954 171.21 183.057 171.392C183.159 171.57 183.17 171.748 183.09 171.926C183.013 172.102 182.846 172.264 182.589 172.412ZM182.231 172.205C182.481 172.061 182.593 171.895 182.567 171.707C182.538 171.516 182.358 171.325 182.028 171.135C181.694 170.942 181.364 170.838 181.037 170.823C180.711 170.809 180.423 170.873 180.173 171.017C179.92 171.163 179.806 171.331 179.832 171.519C179.861 171.705 180.043 171.895 180.377 172.088C180.707 172.278 181.035 172.383 181.362 172.402C181.688 172.417 181.978 172.351 182.231 172.205Z" fill="#6D6D6D"/>
<path d="M203.185 160.467L199.696 158.453L198.287 159.266L197.896 159.04L201.17 157.15L201.561 157.376L200.152 158.189L203.641 160.203L203.185 160.467ZM206.081 158.852C205.439 159.223 204.764 159.204 204.056 158.795L202.394 157.835L202.839 157.578L204.496 158.534C204.734 158.672 204.958 158.746 205.167 158.757C205.38 158.765 205.591 158.709 205.8 158.588C206.028 158.457 206.138 158.307 206.13 158.137C206.119 157.966 205.987 157.807 205.734 157.661L204.215 156.784L204.661 156.526L207.335 158.07L206.901 158.321L206.449 158.061C206.526 158.203 206.532 158.344 206.466 158.483C206.4 158.619 206.272 158.742 206.081 158.852Z" fill="#6D6D6D"/>
<path d="M230.105 144.921L224.866 143.466L225.34 143.192L229.654 144.419L227.557 141.912L227.92 141.702L232.279 142.935L230.149 140.416L230.6 140.155L233.121 143.18L232.719 143.412L228.421 142.207L230.496 144.695L230.105 144.921ZM235.988 141.582C235.566 141.825 235.109 141.947 234.618 141.947C234.122 141.945 233.662 141.821 233.236 141.575C232.961 141.416 232.774 141.245 232.675 141.061C232.572 140.874 232.56 140.693 232.637 140.517C232.714 140.337 232.879 140.174 233.132 140.028C233.495 139.818 233.897 139.722 234.337 139.739C234.774 139.754 235.195 139.879 235.603 140.114L235.773 140.212L233.759 141.375C234.078 141.542 234.399 141.626 234.722 141.626C235.041 141.624 235.344 141.54 235.63 141.375C235.792 141.282 235.922 141.179 236.021 141.067C236.116 140.953 236.173 140.824 236.192 140.683L236.659 140.775C236.652 140.91 236.588 141.051 236.467 141.197C236.342 141.341 236.182 141.469 235.988 141.582ZM233.473 140.212C233.22 140.359 233.099 140.519 233.11 140.695C233.121 140.871 233.242 141.041 233.473 141.204L235.096 140.266C234.814 140.116 234.531 140.036 234.249 140.025C233.97 140.012 233.712 140.075 233.473 140.212Z" fill="#6D6D6D"/>
<path d="M254.775 130.682L251.286 128.667L249.878 129.481L249.487 129.255L252.761 127.365L253.152 127.59L251.743 128.404L255.232 130.418L254.775 130.682ZM257.073 129.355L253.194 127.115L253.639 126.858L255.285 127.808C255.211 127.664 255.213 127.523 255.29 127.385C255.367 127.243 255.505 127.115 255.703 127.001C256.338 126.635 257.007 126.655 257.712 127.061L259.379 128.024L258.933 128.281L257.293 127.335C257.044 127.19 256.813 127.114 256.6 127.106C256.387 127.093 256.174 127.148 255.962 127.271C255.716 127.413 255.597 127.571 255.604 127.744C255.611 127.914 255.741 128.072 255.995 128.218L257.519 129.098L257.073 129.355Z" fill="#6D6D6D"/>
<path d="M281.338 115.344L277.459 113.105L279.858 111.72L280.238 111.939L278.29 113.063L279.643 113.845L281.482 112.784L281.861 113.003L280.023 114.064L281.79 115.084L281.338 115.344ZM284.239 113.67L281.565 112.126L281.999 111.875L282.478 112.151C282.298 111.882 282.414 111.61 282.825 111.335L282.968 111.233L283.386 111.437L283.138 111.618C282.907 111.777 282.795 111.934 282.803 112.091C282.806 112.246 282.927 112.392 283.166 112.529L284.69 113.409L284.239 113.67Z" fill="#6D6D6D"/>
<path d="M308.095 99.9573C307.79 100.133 307.476 100.27 307.154 100.367C306.827 100.462 306.499 100.519 306.168 100.536L305.965 100.234C306.295 100.208 306.598 100.156 306.873 100.078C307.148 99.9997 307.421 99.8821 307.693 99.7254C308.023 99.5348 308.206 99.359 308.243 99.198C308.28 99.0328 308.197 98.892 307.996 98.7755C307.834 98.6823 307.647 98.6421 307.434 98.6548C307.225 98.6654 306.957 98.7332 306.631 98.8581L305.943 99.1218C305.525 99.2785 305.147 99.359 304.809 99.3632C304.472 99.3632 304.164 99.2828 303.885 99.1218C303.654 98.9884 303.511 98.838 303.455 98.6707C303.404 98.5012 303.437 98.3276 303.555 98.1497C303.672 97.9718 303.87 97.8023 304.149 97.6414C304.409 97.491 304.694 97.3756 305.002 97.2951C305.306 97.2125 305.613 97.1712 305.921 97.1712L306.113 97.4666C305.798 97.4751 305.515 97.5132 305.266 97.581C305.013 97.6466 304.773 97.7451 304.545 97.8764C304.255 98.0438 304.092 98.2164 304.055 98.3943C304.015 98.5701 304.105 98.7215 304.325 98.8486C304.501 98.9502 304.694 99 304.903 98.9979C305.116 98.9937 305.369 98.9344 305.662 98.82L306.356 98.5595C306.803 98.39 307.194 98.3 307.528 98.2894C307.862 98.2746 308.162 98.3445 308.43 98.4991C308.647 98.6241 308.779 98.7681 308.826 98.9312C308.878 99.0921 308.841 99.2616 308.716 99.4395C308.595 99.6153 308.388 99.7879 308.095 99.9573ZM311.007 98.276C310.824 98.3819 310.624 98.4571 310.407 98.5016C310.191 98.5418 309.978 98.5503 309.769 98.527C309.56 98.5037 309.378 98.4475 309.224 98.3586C309.03 98.2463 308.925 98.1288 308.91 98.006C308.899 97.881 308.986 97.738 309.169 97.5771C309.352 97.4119 309.646 97.2128 310.049 96.9798L310.226 96.8782L310.055 96.7797C309.827 96.6484 309.617 96.5816 309.422 96.5795C309.228 96.5732 309.028 96.6293 308.822 96.7479C308.661 96.8411 308.529 96.9449 308.426 97.0592C308.32 97.1715 308.239 97.3028 308.184 97.4532L307.705 97.3547C307.745 97.217 307.835 97.0741 307.975 96.9258C308.118 96.7754 308.281 96.6473 308.465 96.5414C308.809 96.3423 309.149 96.2438 309.483 96.2459C309.82 96.2459 310.167 96.3487 310.523 96.5541L312.207 97.5262L311.788 97.7677L311.326 97.5008C311.414 97.6321 311.431 97.7666 311.376 97.9043C311.324 98.0398 311.201 98.1637 311.007 98.276ZM310.743 98.0409C310.963 97.9138 311.068 97.7666 311.056 97.5993C311.042 97.4299 310.917 97.2774 310.682 97.1418L310.517 97.0465L310.347 97.145C310.049 97.3166 309.829 97.4606 309.686 97.5771C309.543 97.6893 309.472 97.7857 309.472 97.8662C309.472 97.9424 309.53 98.0144 309.648 98.0822C309.798 98.169 309.972 98.2103 310.171 98.2061C310.372 98.1997 310.563 98.1447 310.743 98.0409Z" fill="#6D6D6D"/>
<path d="M332.17 86.055C331.866 86.2308 331.552 86.3674 331.229 86.4648C330.903 86.5601 330.575 86.6162 330.244 86.6332L330.041 86.3314C330.371 86.306 330.674 86.2541 330.949 86.1757C331.224 86.0973 331.497 85.9798 331.769 85.8231C332.099 85.6325 332.282 85.4567 332.319 85.2957C332.356 85.1305 332.273 84.9897 332.071 84.8732C331.91 84.78 331.723 84.7397 331.51 84.7524C331.301 84.763 331.033 84.8308 330.707 84.9558L330.019 85.2195C329.601 85.3762 329.223 85.4567 328.885 85.4609C328.548 85.4609 328.239 85.3804 327.961 85.2195C327.73 85.086 327.586 84.9356 327.531 84.7683C327.48 84.5989 327.513 84.4252 327.63 84.2473C327.748 84.0694 327.946 83.9 328.225 83.739C328.485 83.5886 328.77 83.4732 329.078 83.3927C329.382 83.3101 329.689 83.2688 329.997 83.2688L330.189 83.5643C329.874 83.5728 329.591 83.6109 329.342 83.6786C329.089 83.7443 328.848 83.8428 328.621 83.9741C328.331 84.1414 328.168 84.314 328.131 84.4919C328.091 84.6677 328.181 84.8192 328.401 84.9462C328.577 85.0479 328.77 85.0977 328.979 85.0956C329.192 85.0913 329.445 85.032 329.738 84.9176L330.432 84.6571C330.879 84.4877 331.27 84.3977 331.604 84.3871C331.938 84.3723 332.238 84.4422 332.506 84.5968C332.723 84.7217 332.855 84.8658 332.902 85.0288C332.954 85.1898 332.917 85.3592 332.792 85.5371C332.671 85.7129 332.464 85.8855 332.17 86.055ZM335.187 84.3133C334.545 84.6839 333.87 84.6649 333.162 84.2561L331.5 83.2967L331.946 83.0393L333.603 83.9956C333.841 84.1333 334.065 84.2074 334.274 84.218C334.487 84.2265 334.698 84.1703 334.907 84.0496C335.134 83.9183 335.244 83.7679 335.237 83.5985C335.226 83.4269 335.094 83.2681 334.841 83.1219L333.322 82.2451L333.768 81.9878L336.442 83.5318L336.007 83.7827L335.556 83.5222C335.633 83.6641 335.639 83.805 335.573 83.9448C335.507 84.0803 335.378 84.2032 335.187 84.3133Z" fill="#6D6D6D"/>
<path opacity="0.07" d="M182.78 148.935C173.538 154.27 157.609 153.568 148.916 158.587L166.113 168.515L322.262 78.3697L266.887 46.402C253.513 54.1232 260.459 60.8354 250.347 66.673C237.584 74.0412 241.988 81.4433 230.49 88.0812C217.453 95.6075 224.137 104.339 214.106 110.13C203.717 116.127 194.167 115.387 184.425 121.011C172.578 127.85 193.402 142.803 182.78 148.935Z" fill="url(#paint0_linear_100_3668)"/>
<path d="M149.157 158.726C157.851 153.707 172.237 153.519 181.478 148.184C192.101 142.052 172.578 127.85 184.425 121.011C194.167 115.387 204.492 116.574 214.881 110.577C224.912 104.786 217.102 95.4045 230.139 87.8782C241.637 81.2404 237.927 74.2398 250.691 66.8716C260.803 61.034 253.513 54.1232 266.887 46.402" stroke="#5688E1" stroke-width="2.38284" stroke-linecap="round"/>
<path d="M48.4752 123.689L38.7755 118.089L39.7455 117.529L49.4452 123.129L48.4752 123.689ZM51.3121 122.051L44.3837 118.051L45.3537 117.491L46.3098 118.043C46.2082 117.697 46.2474 117.351 46.4276 117.007C46.6077 116.663 46.9287 116.358 47.3906 116.091C47.9126 115.79 48.5199 115.589 49.2128 115.487C49.901 115.383 50.58 115.383 51.2497 115.487C51.0696 115.101 51.0673 114.71 51.2428 114.315C51.4137 113.918 51.7601 113.569 52.282 113.267C52.804 112.966 53.4067 112.765 54.0903 112.664C54.7739 112.562 55.4575 112.562 56.1411 112.664C56.8247 112.765 57.4275 112.966 57.9494 113.267L62.2381 115.743L61.2681 116.303L57.1942 113.951C56.8247 113.738 56.3929 113.593 55.8986 113.515C55.4044 113.438 54.9102 113.433 54.416 113.499C53.9217 113.561 53.4899 113.698 53.1204 113.911C52.7509 114.125 52.5037 114.371 52.379 114.651C52.2543 114.926 52.2589 115.206 52.3929 115.491C52.5222 115.774 52.7878 116.031 53.1897 116.263L57.2635 118.615L56.2936 119.175L52.2197 116.823C51.8178 116.591 51.3721 116.438 50.8825 116.363C50.3883 116.286 49.901 116.285 49.4206 116.359C48.9356 116.431 48.5084 116.574 48.1389 116.787C47.774 116.998 47.5361 117.247 47.4253 117.535C47.3098 117.821 47.319 118.106 47.453 118.391C47.5869 118.676 47.8387 118.926 48.2082 119.139L52.282 121.491L51.3121 122.051ZM68.0603 116.382L67.0903 116.942L56.6978 110.942L57.6678 110.382L58.9634 111.13C58.7647 110.738 58.737 110.344 58.8802 109.946C59.0234 109.549 59.3814 109.185 59.9541 108.854C60.4576 108.564 61.0234 108.346 61.6516 108.202C62.2843 108.056 62.9356 107.984 63.6054 107.986C64.2705 107.986 64.9171 108.058 65.5453 108.202C66.1735 108.346 66.7393 108.564 67.2427 108.854C67.7462 109.145 68.1249 109.473 68.379 109.838C68.633 110.204 68.7624 110.58 68.767 110.966C68.767 111.35 68.64 111.725 68.3859 112.09C68.1365 112.453 67.7601 112.779 67.2566 113.07C66.6838 113.401 66.0534 113.607 65.3652 113.69C64.6769 113.773 63.9933 113.757 63.3144 113.642L68.0603 116.382ZM60.8894 109.402C60.4045 109.682 60.1042 109.997 59.9887 110.346C59.8733 110.69 59.9218 111.036 60.1342 111.382C60.3467 111.729 60.7047 112.048 61.2081 112.338C61.7024 112.623 62.2497 112.83 62.8502 112.958C63.4552 113.083 64.058 113.114 64.6585 113.05C65.2635 112.983 65.8109 112.809 66.3005 112.526C66.7808 112.249 67.1019 111.925 67.2635 111.554C67.4298 111.181 67.4321 110.806 67.2704 110.43C67.1042 110.052 66.767 109.716 66.2589 109.422C65.7647 109.137 65.1943 108.946 64.5476 108.85C63.8963 108.752 63.2474 108.748 62.6007 108.838C61.9541 108.929 61.3837 109.117 60.8894 109.402ZM71.8806 110.177L64.9523 106.177L65.9222 105.617L66.8783 106.169C66.7721 105.825 66.8114 105.48 66.9961 105.133C67.1809 104.786 67.5042 104.48 67.9661 104.213C68.234 104.058 68.5273 103.929 68.846 103.825L69.4141 104.609C69.1601 104.686 68.9407 104.778 68.7559 104.885C68.3818 105.101 68.1301 105.353 68.0007 105.641C67.876 105.926 67.876 106.212 68.0007 106.497C68.1255 106.782 68.3772 107.034 68.7559 107.253L72.8506 109.617L71.8806 110.177ZM79.6018 105.927C78.9644 106.295 78.2185 106.537 77.364 106.651C76.5141 106.763 75.6573 106.751 74.7936 106.615C73.9298 106.474 73.1631 106.21 72.4933 105.823C71.9853 105.53 71.6019 105.205 71.3432 104.847C71.08 104.487 70.9391 104.121 70.9206 103.747C70.9021 103.369 71.0084 103.003 71.2393 102.651C71.4703 102.299 71.8236 101.986 72.2994 101.711C72.8121 101.416 73.3848 101.202 74.0176 101.072C74.655 100.938 75.3109 100.888 75.9852 100.92C76.6642 100.949 77.327 101.06 77.9737 101.252C78.6249 101.441 79.2208 101.707 79.7612 102.051L73.8859 105.443C74.3802 105.665 74.9113 105.811 75.4795 105.883C76.0522 105.953 76.6134 105.946 77.1631 105.863C77.7127 105.775 78.2023 105.61 78.6319 105.367C79.0938 105.101 79.3894 104.791 79.5187 104.439C79.6526 104.085 79.6226 103.721 79.4286 103.347L80.6411 102.911C80.9783 103.426 81.0637 103.958 80.8974 104.507C80.7265 105.054 80.2947 105.527 79.6018 105.927ZM73.0753 105.007L78.0014 102.163C77.5395 101.934 77.0153 101.783 76.4287 101.711C75.8421 101.634 75.2624 101.638 74.6896 101.723C74.1123 101.806 73.6088 101.971 73.1793 102.219C72.7497 102.467 72.4633 102.755 72.3201 103.083C72.1723 103.409 72.1654 103.741 72.2994 104.079C72.4287 104.415 72.6873 104.725 73.0753 105.007ZM86.3319 101.986C85.9439 102.199 85.5051 102.373 85.0155 102.506C84.5259 102.639 84.0363 102.719 83.5467 102.746C83.0571 102.773 82.6137 102.738 82.2164 102.642L82.6945 101.95C82.9485 102.011 83.2511 102.029 83.6021 102.002C83.9531 101.97 84.3042 101.906 84.6552 101.81C85.0016 101.711 85.3019 101.589 85.5559 101.442C85.8376 101.279 86.0547 101.101 86.2072 100.906C86.3596 100.711 86.4266 100.521 86.4081 100.334C86.3896 100.142 86.2626 99.9781 86.027 99.8421C85.773 99.6954 85.4912 99.6288 85.1818 99.6421C84.8677 99.6528 84.542 99.7074 84.2049 99.8061C83.8631 99.9021 83.519 100.005 83.1725 100.114C82.549 100.319 81.9693 100.483 81.4335 100.606C80.8977 100.729 80.3989 100.779 79.937 100.758C79.4751 100.731 79.0455 100.603 78.6483 100.374C78.228 100.131 77.9832 99.8541 77.9139 99.5421C77.8446 99.2248 77.9185 98.9075 78.1356 98.5902C78.3527 98.2675 78.6807 97.9796 79.1195 97.7262C79.683 97.4009 80.3181 97.1756 81.0247 97.0503C81.7361 96.9223 82.3989 96.9156 83.0132 97.0303L82.6945 97.7502C82.422 97.6889 82.1264 97.6702 81.8077 97.6942C81.4889 97.7182 81.1749 97.7742 80.8654 97.8622C80.5605 97.9476 80.288 98.0569 80.0479 98.1902C79.7476 98.3582 79.5167 98.5422 79.355 98.7422C79.1887 98.9395 79.1148 99.1342 79.1333 99.3261C79.1564 99.5155 79.295 99.6834 79.549 99.8301C79.803 99.9768 80.0733 100.045 80.3596 100.034C80.6414 100.021 80.9532 99.9634 81.295 99.8621C81.6368 99.7554 82.0247 99.6381 82.4589 99.5101C83.0132 99.3448 83.5605 99.2048 84.1009 99.0902C84.6414 98.9755 85.1517 98.9262 85.6321 98.9422C86.1125 98.9582 86.5443 99.0795 86.9277 99.3061C87.3434 99.5461 87.5813 99.8274 87.6413 100.15C87.7014 100.473 87.6159 100.797 87.385 101.122C87.1494 101.445 86.7984 101.733 86.3319 101.986ZM92.2859 98.5487C91.8979 98.762 91.4591 98.9353 90.9695 99.0687C90.4799 99.202 89.9903 99.282 89.5007 99.3086C89.0111 99.3353 88.5677 99.3006 88.1705 99.2046L88.6485 98.5127C88.9026 98.574 89.2051 98.5914 89.5562 98.5647C89.9072 98.5327 90.2582 98.4687 90.6093 98.3727C90.9557 98.274 91.2559 98.1514 91.5099 98.0047C91.7917 97.8421 92.0088 97.6634 92.1612 97.4688C92.3136 97.2741 92.3806 97.0835 92.3621 96.8968C92.3437 96.7048 92.2166 96.5408 91.9811 96.4048C91.727 96.2582 91.4453 96.1915 91.1358 96.2048C90.8217 96.2155 90.4961 96.2702 90.1589 96.3688C89.8171 96.4648 89.473 96.5675 89.1266 96.6768C88.503 96.8821 87.9234 97.0461 87.3876 97.1688C86.8518 97.2914 86.3529 97.3421 85.8911 97.3208C85.4292 97.2941 84.9996 97.1661 84.6024 96.9368C84.1821 96.6941 83.9373 96.4168 83.868 96.1048C83.7987 95.7875 83.8726 95.4702 84.0897 95.1529C84.3068 94.8303 84.6347 94.5423 85.0735 94.289C85.637 93.9637 86.2721 93.7383 86.9788 93.613C87.6901 93.485 88.3529 93.4784 88.9672 93.593L88.6485 94.313C88.376 94.2516 88.0804 94.233 87.7617 94.257C87.443 94.281 87.1289 94.337 86.8195 94.425C86.5146 94.5103 86.2421 94.6196 86.0019 94.7529C85.7017 94.9209 85.4707 95.1049 85.3091 95.3049C85.1428 95.5022 85.0689 95.6969 85.0874 95.8889C85.1105 96.0782 85.249 96.2462 85.5031 96.3928C85.7571 96.5395 86.0273 96.6075 86.3137 96.5968C86.5954 96.5835 86.9072 96.5262 87.249 96.4248C87.5908 96.3182 87.9788 96.2008 88.413 96.0729C88.9672 95.9075 89.5146 95.7675 90.055 95.6529C90.5954 95.5382 91.1058 95.4889 91.5862 95.5049C92.0665 95.5209 92.4984 95.6422 92.8818 95.8689C93.2975 96.1088 93.5353 96.3902 93.5954 96.7128C93.6554 97.0355 93.57 97.3594 93.339 97.6847C93.1035 98.0074 92.7524 98.2954 92.2859 98.5487ZM88.9715 92.3107L89.9414 91.7507L96.8698 95.7504L95.8998 96.3104L88.9715 92.3107ZM88.2509 91.3267C88.0939 91.4174 87.9091 91.4654 87.6966 91.4707C87.4842 91.4707 87.2994 91.4254 87.1424 91.3347C86.9853 91.2441 86.9091 91.1387 86.9137 91.0187C86.9184 90.8934 86.9992 90.7854 87.1562 90.6948C87.3087 90.6068 87.4911 90.5628 87.7036 90.5628C87.916 90.5574 88.1008 90.6001 88.2578 90.6908C88.4149 90.7814 88.4934 90.8881 88.4934 91.0107C88.4888 91.1307 88.408 91.2361 88.2509 91.3267ZM101.7 93.1702C101.062 93.5382 100.316 93.7795 99.4616 93.8942C98.6118 94.0062 97.755 93.9942 96.8912 93.8582C96.0275 93.7169 95.2608 93.4529 94.591 93.0662C94.0829 92.7729 93.6996 92.4476 93.4409 92.0903C93.1776 91.7303 93.0367 91.3637 93.0183 90.9904C92.9998 90.6117 93.106 90.2464 93.337 89.8944C93.5679 89.5425 93.9213 89.2292 94.397 88.9545C95.0344 88.5865 95.7781 88.3465 96.6279 88.2346C97.4824 88.1199 98.3416 88.1332 99.2053 88.2745C100.074 88.4132 100.845 88.6772 101.519 89.0665C102.023 89.3571 102.404 89.6811 102.663 90.0384C102.921 90.3957 103.06 90.7637 103.078 91.1424C103.097 91.5157 102.99 91.8783 102.76 92.2303C102.533 92.5796 102.18 92.8929 101.7 93.1702ZM100.73 92.6103C101.201 92.3383 101.501 92.0236 101.63 91.6663C101.76 91.3037 101.73 90.9424 101.54 90.5824C101.355 90.2198 101.025 89.9011 100.549 89.6265C100.064 89.3465 99.5078 89.1532 98.8797 89.0465C98.2469 88.9372 97.6187 88.9212 96.9951 88.9985C96.3762 89.0732 95.8335 89.2452 95.367 89.5145C94.8959 89.7864 94.5956 90.1038 94.4663 90.4664C94.337 90.8237 94.3647 91.1837 94.5494 91.5463C94.7388 91.9063 95.076 92.2263 95.561 92.5063C96.0598 92.7943 96.6256 92.9902 97.2584 93.0942C97.8866 93.1956 98.5101 93.2062 99.1291 93.1262C99.7434 93.0436 100.277 92.8716 100.73 92.6103ZM107.91 84.4253L112.199 86.9011L111.229 87.4611L107.134 85.0973C106.755 84.8786 106.319 84.7333 105.824 84.6613C105.33 84.5893 104.836 84.5893 104.342 84.6613C103.848 84.7333 103.411 84.8786 103.032 85.0973C102.658 85.3132 102.406 85.5652 102.277 85.8532C102.152 86.1385 102.152 86.4238 102.277 86.7092C102.402 86.9945 102.654 87.2464 103.032 87.4651L107.127 89.8289L106.157 90.3889L99.2287 86.3892L100.199 85.8292L101.155 86.3812C101.049 86.0372 101.088 85.6919 101.273 85.3452C101.457 84.9986 101.781 84.6919 102.243 84.4253C102.764 84.124 103.367 83.9227 104.051 83.8213C104.734 83.72 105.418 83.72 106.102 83.8213C106.785 83.9227 107.388 84.124 107.91 84.4253ZM115.859 84.9402C115.471 85.1535 115.032 85.3268 114.542 85.4602C114.053 85.5935 113.563 85.6735 113.073 85.7002C112.584 85.7268 112.14 85.6922 111.743 85.5962L112.221 84.9042C112.475 84.9655 112.778 84.9829 113.129 84.9562C113.48 84.9242 113.831 84.8602 114.182 84.7642C114.528 84.6656 114.829 84.5429 115.083 84.3962C115.364 84.2336 115.581 84.0549 115.734 83.8603C115.886 83.6656 115.953 83.475 115.935 83.2883C115.916 83.0963 115.789 82.9323 115.554 82.7963C115.3 82.6497 115.018 82.583 114.708 82.5964C114.394 82.607 114.069 82.6617 113.732 82.7603C113.39 82.8563 113.046 82.959 112.699 83.0683C112.076 83.2736 111.496 83.4376 110.96 83.5603C110.424 83.683 109.926 83.7336 109.464 83.7123C109.002 83.6856 108.572 83.5576 108.175 83.3283C107.755 83.0857 107.51 82.8083 107.441 82.4964C107.371 82.1791 107.445 81.8617 107.662 81.5444C107.879 81.2218 108.207 80.9338 108.646 80.6805C109.21 80.3552 109.845 80.1299 110.551 80.0045C111.263 79.8765 111.926 79.8699 112.54 79.9845L112.221 80.7045C111.949 80.6432 111.653 80.6245 111.334 80.6485C111.016 80.6725 110.702 80.7285 110.392 80.8165C110.087 80.9018 109.815 81.0111 109.575 81.1445C109.274 81.3124 109.043 81.4964 108.882 81.6964C108.715 81.8937 108.642 82.0884 108.66 82.2804C108.683 82.4697 108.822 82.6377 109.076 82.7843C109.33 82.931 109.6 82.999 109.886 82.9883C110.168 82.975 110.48 82.9177 110.822 82.8163C111.163 82.7097 111.551 82.5924 111.986 82.4644C112.54 82.299 113.087 82.1591 113.628 82.0444C114.168 81.9297 114.678 81.8804 115.159 81.8964C115.639 81.9124 116.071 82.0337 116.454 82.2604C116.87 82.5004 117.108 82.7817 117.168 83.1043C117.228 83.427 117.143 83.7509 116.912 84.0763C116.676 84.3989 116.325 84.6869 115.859 84.9402Z" fill="#9A9A9A"/>
<path d="M78.2531 138.496L64.237 130.405L62.1031 131.637L59.9449 129.467L64.237 126.989L81.2115 136.788L78.2531 138.496ZM90.0401 132.056C88.957 132.681 87.6919 133.099 86.2451 133.309C84.7982 133.519 83.3513 133.519 81.9045 133.309C80.4576 133.099 79.1845 132.676 78.0852 132.042C77.5194 131.715 77.0587 131.374 76.703 131.02C76.3554 130.66 76.0766 130.257 75.8664 129.809L72.3624 122.298L75.7937 120.317L78.1216 125.343C78.7278 124.937 79.4149 124.606 80.1828 124.349C80.9507 124.093 81.7671 123.915 82.6319 123.817C83.4968 123.719 84.3698 123.701 85.2509 123.761C86.1319 123.822 86.9806 123.967 87.797 124.195C88.6215 124.419 89.3773 124.73 90.0643 125.126C90.8888 125.602 91.5031 126.139 91.9073 126.736C92.3195 127.329 92.5297 127.945 92.5378 128.584C92.5378 129.219 92.3316 129.837 91.9194 130.439C91.4991 131.036 90.8726 131.575 90.0401 132.056ZM87.0817 130.348C87.6717 130.007 88.0557 129.622 88.2335 129.193C88.4033 128.759 88.3871 128.334 88.185 127.919C87.991 127.499 87.6354 127.14 87.1181 126.841C86.5603 126.519 85.9177 126.302 85.1902 126.19C84.4628 126.078 83.7312 126.076 82.9957 126.183C82.2682 126.286 81.6175 126.503 81.0436 126.834C80.4536 127.175 80.0736 127.562 79.9039 127.996C79.7342 128.421 79.7503 128.841 79.9524 129.256C80.1545 129.671 80.5223 130.033 81.0557 130.341C81.6296 130.672 82.2844 130.887 83.0199 130.985C83.7555 131.083 84.483 131.078 85.2024 130.971C85.9298 130.859 86.5563 130.651 87.0817 130.348ZM105.391 122.829L91.3753 114.738L89.2414 115.97L87.0832 113.8L91.3753 111.322L108.35 121.122L105.391 122.829ZM118.488 115.269L114.378 112.896L107.151 117.068L104.181 115.353L100.822 105.868L104.472 103.762L114.378 109.48L115.808 108.654L118.767 110.362L117.336 111.188L121.446 113.561L118.488 115.269ZM107.612 113.372L111.419 111.188L105.539 107.807L107.612 113.372ZM131.221 108.282C130.138 108.907 128.873 109.325 127.426 109.535C125.979 109.745 124.532 109.745 123.086 109.535C121.639 109.325 120.366 108.902 119.266 108.268C118.7 107.941 118.24 107.601 117.884 107.246C117.537 106.887 117.258 106.483 117.047 106.035L113.543 98.5245L116.975 96.5436L119.303 101.569C119.909 101.163 120.596 100.832 121.364 100.575C122.132 100.319 122.948 100.141 123.813 100.043C124.678 99.9454 125.551 99.9267 126.432 99.9874C127.313 100.048 128.162 100.193 128.978 100.421C129.803 100.645 130.558 100.956 131.245 101.352C132.07 101.828 132.684 102.365 133.088 102.962C133.501 103.555 133.711 104.171 133.719 104.81C133.719 105.445 133.513 106.063 133.1 106.665C132.68 107.262 132.054 107.801 131.221 108.282ZM128.263 106.574C128.853 106.233 129.237 105.848 129.415 105.419C129.584 104.985 129.568 104.56 129.366 104.145C129.172 103.725 128.816 103.366 128.299 103.067C127.741 102.745 127.099 102.528 126.371 102.416C125.644 102.304 124.912 102.302 124.177 102.409C123.449 102.512 122.799 102.729 122.225 103.06C121.635 103.401 121.255 103.788 121.085 104.222C120.915 104.647 120.931 105.067 121.133 105.482C121.336 105.897 121.703 106.259 122.237 106.567C122.811 106.898 123.465 107.113 124.201 107.211C124.937 107.309 125.664 107.304 126.383 107.197C127.111 107.085 127.737 106.877 128.263 106.574Z" fill="black"/>
<path d="M132.707 92.4588L130.472 91.1689L128.238 92.4588L127.51 92.0389L129.745 90.7489L127.51 89.459L128.238 89.039L130.472 90.329L132.707 89.039L133.434 89.459L131.2 90.7489L133.434 92.0389L132.707 92.4588ZM139.291 89.4136C138.848 89.6695 138.361 89.8385 137.831 89.9205C137.297 90.0005 136.771 90.0005 136.251 89.9205C135.735 89.8385 135.278 89.6825 134.879 89.4526L135.607 89.0326C135.87 89.1846 136.173 89.2896 136.516 89.3476C136.859 89.4016 137.209 89.4016 137.566 89.3476C137.919 89.2916 138.252 89.1736 138.564 88.9936C138.827 88.8416 139.009 88.6626 139.109 88.4566C139.21 88.2466 139.222 88.0376 139.146 87.8297C139.069 87.6177 138.9 87.4357 138.636 87.2837C138.307 87.0937 137.95 86.9837 137.566 86.9537C137.178 86.9217 136.785 86.9587 136.386 87.0647C135.984 87.1687 135.596 87.3287 135.222 87.5447L134.62 87.1967C135.136 86.8987 135.441 86.5967 135.534 86.2908C135.628 85.9808 135.461 85.7028 135.035 85.4568C134.803 85.3228 134.528 85.2378 134.209 85.2018C133.894 85.1638 133.577 85.1708 133.258 85.2228C132.939 85.2708 132.664 85.3618 132.432 85.4958C132.2 85.6298 132.035 85.7928 131.938 85.9848C131.841 86.1728 131.82 86.3608 131.876 86.5487C131.935 86.7347 132.08 86.8947 132.312 87.0287L131.585 87.4487C131.311 87.2907 131.112 87.1097 130.987 86.9057C130.859 86.6997 130.802 86.4867 130.816 86.2668C130.83 86.0468 130.911 85.8338 131.06 85.6278C131.209 85.4218 131.422 85.2388 131.699 85.0788C132.063 84.8688 132.491 84.7259 132.983 84.6499C133.478 84.5719 133.973 84.5639 134.469 84.6259C134.964 84.6879 135.396 84.8249 135.763 85.0368C136.12 85.2428 136.35 85.4818 136.454 85.7538C136.558 86.0258 136.513 86.2858 136.319 86.5337C136.679 86.4297 137.043 86.3778 137.41 86.3778C137.774 86.3758 138.122 86.4167 138.454 86.5007C138.787 86.5847 139.09 86.7057 139.364 86.8637C139.762 87.0937 140.022 87.3637 140.143 87.6737C140.264 87.9836 140.252 88.2946 140.107 88.6066C139.961 88.9146 139.689 89.1836 139.291 89.4136ZM144.578 86.3615C144.152 86.6075 143.665 86.7765 143.118 86.8685C142.574 86.9584 142.035 86.9694 141.502 86.9015C140.968 86.8335 140.502 86.6845 140.104 86.4545C139.716 86.2305 139.47 85.9645 139.366 85.6565C139.259 85.3466 139.288 85.0416 139.454 84.7416C139.007 84.8116 138.552 84.8186 138.088 84.7626C137.62 84.7046 137.216 84.5776 136.877 84.3816C136.513 84.1716 136.278 83.9256 136.17 83.6437C136.063 83.3577 136.082 83.0707 136.227 82.7827C136.373 82.4907 136.641 82.2318 137.033 82.0058C137.424 81.7798 137.871 81.6258 138.373 81.5438C138.876 81.4578 139.373 81.4468 139.865 81.5108C140.357 81.5708 140.785 81.7058 141.148 81.9158C141.488 82.1118 141.708 82.3447 141.808 82.6147C141.909 82.8807 141.897 83.1437 141.772 83.4037C142.298 83.3037 142.828 83.2857 143.362 83.3497C143.895 83.4097 144.356 83.5517 144.744 83.7757C145.139 84.0036 145.395 84.2736 145.513 84.5856C145.631 84.8936 145.612 85.2046 145.456 85.5185C145.3 85.8325 145.007 86.1135 144.578 86.3615ZM143.85 85.9415C144.138 85.7755 144.334 85.5885 144.437 85.3806C144.541 85.1726 144.555 84.9666 144.479 84.7626C144.399 84.5566 144.228 84.3776 143.965 84.2256C143.701 84.0736 143.393 83.9756 143.04 83.9316C142.686 83.8876 142.33 83.8956 141.969 83.9556C141.609 84.0156 141.285 84.1286 140.998 84.2946C140.717 84.4566 140.523 84.6426 140.416 84.8526C140.312 85.0606 140.296 85.2676 140.369 85.4735C140.445 85.6775 140.615 85.8555 140.878 86.0075C141.141 86.1595 141.451 86.2585 141.808 86.3045C142.165 86.3465 142.524 86.3375 142.884 86.2775C143.248 86.2155 143.57 86.1035 143.85 85.9415ZM140.27 83.8746C140.523 83.7287 140.696 83.5647 140.79 83.3827C140.88 83.1987 140.89 83.0167 140.821 82.8367C140.755 82.6547 140.606 82.4967 140.374 82.3627C140.142 82.2288 139.87 82.1438 139.558 82.1078C139.246 82.0678 138.933 82.0748 138.618 82.1288C138.299 82.1808 138.013 82.2798 137.76 82.4257C137.511 82.5697 137.339 82.7347 137.246 82.9207C137.152 83.1027 137.138 83.2847 137.204 83.4667C137.27 83.6447 137.419 83.8007 137.651 83.9346C137.883 84.0686 138.155 84.1556 138.467 84.1956C138.782 84.2336 139.099 84.2266 139.418 84.1746C139.737 84.1186 140.021 84.0186 140.27 83.8746ZM147.985 84.2384L144.909 77.6149L145.751 77.1289L148.827 83.7525L147.985 84.2384ZM144.405 81.1876C144.176 81.3196 143.913 81.4076 143.615 81.4516C143.317 81.4956 143.018 81.4966 142.716 81.4546C142.415 81.4086 142.15 81.3196 141.921 81.1876C141.686 81.0516 141.53 80.8976 141.453 80.7257C141.381 80.5517 141.382 80.3787 141.459 80.2067C141.538 80.0327 141.691 79.8807 141.916 79.7507C142.145 79.6187 142.41 79.5317 142.711 79.4897C143.009 79.4457 143.307 79.4457 143.605 79.4897C143.906 79.5317 144.173 79.6197 144.405 79.7537C144.637 79.8877 144.789 80.0417 144.862 80.2157C144.938 80.3877 144.937 80.5607 144.857 80.7347C144.781 80.9066 144.63 81.0576 144.405 81.1876ZM143.849 80.8666C144.043 80.7546 144.14 80.6227 144.14 80.4707C144.136 80.3167 144.039 80.1847 143.849 80.0747C143.655 79.9627 143.426 79.9067 143.163 79.9067C142.896 79.9047 142.666 79.9597 142.472 80.0717C142.281 80.1817 142.186 80.3147 142.186 80.4707C142.186 80.6227 142.283 80.7546 142.477 80.8666C142.668 80.9766 142.896 81.0326 143.163 81.0346C143.43 81.0326 143.658 80.9766 143.849 80.8666ZM151.836 81.6136C151.607 81.7456 151.34 81.8336 151.035 81.8776C150.731 81.9176 150.427 81.9166 150.126 81.8746C149.825 81.8286 149.563 81.7416 149.341 81.6136C149.109 81.4796 148.957 81.3256 148.884 81.1516C148.808 80.9756 148.808 80.8016 148.884 80.6297C148.964 80.4557 149.116 80.3037 149.341 80.1737C149.573 80.0397 149.84 79.9517 150.142 79.9097C150.443 79.8677 150.744 79.8697 151.046 79.9157C151.344 79.9597 151.605 80.0467 151.83 80.1767C152.059 80.3087 152.213 80.4617 152.293 80.6357C152.369 80.8076 152.369 80.9816 152.293 81.1576C152.217 81.3296 152.064 81.4816 151.836 81.6136ZM151.28 81.2926C151.467 81.1846 151.56 81.0526 151.56 80.8966C151.56 80.7407 151.465 80.6077 151.274 80.4977C151.084 80.3877 150.854 80.3327 150.583 80.3327C150.313 80.3327 150.084 80.3867 149.897 80.4947C149.707 80.6047 149.61 80.7387 149.606 80.8966C149.606 81.0526 149.702 81.1856 149.892 81.2956C150.083 81.4056 150.313 81.4606 150.583 81.4606C150.857 81.4586 151.089 81.4026 151.28 81.2926Z" fill="#02E341"/>
</g>
<defs>
<filter id="filter0_f_100_3668" x="-10" y="0" width="390.018" height="242.064" filterUnits="userSpaceOnUse" color-interpolation-filters="sRGB">
<feFlood flood-opacity="0" result="BackgroundImageFix"/>
<feBlend mode="normal" in="SourceGraphic" in2="BackgroundImageFix" result="shape"/>
<feGaussianBlur stdDeviation="10" result="effect1_foregroundBlur_100_3668"/>
</filter>
<linearGradient id="paint0_linear_100_3668" x1="117.961" y1="140.717" x2="142.034" y2="182.415" gradientUnits="userSpaceOnUse">
<stop stop-color="#5688E1"/>
<stop offset="1" stop-color="#5688E1" stop-opacity="0"/>
</linearGradient>
<clipPath id="clip0_100_3668">
<rect width="237.595" height="166.562" rx="20" transform="matrix(0.866044 -0.499967 0.866044 0.499967 10 118.789)" fill="white"/>
</clipPath>
</defs>
</svg>
