<svg width="1920" height="785" viewBox="0 0 1920 785" fill="none" xmlns="http://www.w3.org/2000/svg">
<g clip-path="url(#clip0_730_16382)">
<rect width="1920" height="785" fill="#5386E4"/>
<circle cx="1452.5" cy="712.5" r="7.5" fill="#4679D2"/>
<circle cx="1497.5" cy="712.5" r="7.5" fill="#4679D2"/>
<circle cx="1542.5" cy="712.5" r="7.5" fill="#4679D2"/>
<path d="M467.465 600.318L423.536 580.36C419.824 578.653 415.508 578.819 411.958 580.868C402.995 586.043 403.656 599.137 413.032 603.429L444.934 617.978L441.583 652.88C440.552 663.181 451.621 670.266 460.584 665.091C464.134 663.042 466.495 659.352 466.874 655.283L471.554 607.261C471.782 604.322 470.184 601.555 467.465 600.318Z" fill="#4679D2"/>
<path d="M425.354 624.63L381.485 604.638C377.713 602.966 373.397 603.131 369.847 605.181C360.883 610.356 361.485 623.484 370.921 627.742L402.823 642.291L399.472 677.193C398.441 687.494 409.51 694.579 418.473 689.403C422.023 687.354 424.384 683.665 424.763 679.596L429.443 631.574C429.671 628.635 428.073 625.868 425.354 624.63Z" fill="#4679D2"/>
<rect x="814.227" y="-284" width="1451" height="75.0844" transform="rotate(30 814.227 -284)" fill="#4679D2"/>
<rect x="776.98" y="-219.723" width="1451" height="25.9617" transform="rotate(30 776.98 -219.723)" fill="#376AC4"/>
</g>
<defs>
<clipPath id="clip0_730_16382">
<rect width="1920" height="785" fill="white"/>
</clipPath>
</defs>
</svg>
