<svg width="115" height="95" viewBox="0 0 115 95" fill="none" xmlns="http://www.w3.org/2000/svg">
<rect x="24.8188" width="100" height="56" rx="10" transform="rotate(26.3079 24.8188 0)" fill="#5386E4"/>
<path d="M32.6776 44.2858C31.6593 43.7823 30.8871 43.1239 30.3611 42.3106C29.8351 41.4972 29.5627 40.5861 29.5438 39.5773C29.5464 38.5612 29.8207 37.5009 30.3667 36.3965C30.9128 35.2921 31.5851 34.4376 32.3838 33.833C33.204 33.2211 34.0968 32.8772 35.0625 32.8013C36.0281 32.7254 37.0201 32.9392 38.0385 33.4426C39.0425 33.939 39.8075 34.5939 40.3335 35.4073C40.8738 36.2277 41.1427 37.146 41.1401 38.1621C41.1589 39.1709 40.8954 40.2275 40.3493 41.3319C39.8033 42.4363 39.1203 43.2945 38.3001 43.9064C37.5014 44.511 36.6121 44.8477 35.6321 44.9165C34.6664 44.9924 33.6816 44.7822 32.6776 44.2858ZM33.369 42.8874C34.3443 43.3696 35.2962 43.4118 36.2246 43.0141C37.1601 42.602 37.947 41.7506 38.5852 40.4597C39.2305 39.1545 39.4293 38.0123 39.1816 37.0331C38.9339 36.054 38.3224 35.3233 37.3471 34.8411C36.3574 34.3518 35.3984 34.306 34.47 34.7037C33.5559 35.1085 32.7762 35.9635 32.1309 37.2687C31.4927 38.5596 31.2867 39.6982 31.513 40.6847C31.7607 41.6639 32.3793 42.3981 33.369 42.8874ZM40.6188 47.971L48.1176 32.8035L54.1201 35.7711C55.7552 36.5795 56.8151 37.5765 57.2998 38.7621C57.7989 39.9549 57.701 41.254 57.0061 42.6596C56.453 43.7784 55.6908 44.5438 54.7195 44.9561C53.7625 45.3754 52.6715 45.416 51.4464 45.0781C51.9927 45.6338 52.2827 46.4732 52.3163 47.5965L52.5377 53.8637L50.6014 52.9064L50.3805 46.7465C50.3485 45.981 50.1705 45.3843 49.8466 44.9565C49.5227 44.5286 49.0093 44.1409 48.3065 43.7935L45.5527 42.432L42.383 48.8432L40.6188 47.971ZM46.2441 41.0335L50.2242 43.0013C52.6051 44.1784 54.2848 43.7774 55.2634 41.798C56.2278 39.8474 55.5196 38.2835 53.1386 37.1064L49.1585 35.1386L46.2441 41.0335ZM58.3124 56.7187L65.056 43.0787L59.5484 40.3557L60.3036 38.8282L73.1046 45.157L72.3494 46.6845L66.8417 43.9616L60.0981 57.6016L58.3124 56.7187ZM67.5326 61.2772L75.0314 46.1097L81.0984 49.1092C82.6618 49.8822 83.6929 50.8292 84.1916 51.9504C84.7118 53.0643 84.6635 54.2452 84.0465 55.493C83.6352 56.3249 83.0691 56.9285 82.3481 57.3038C81.627 57.6791 80.8191 57.8151 79.9242 57.7118C80.6856 58.3739 81.1577 59.1338 81.3405 59.9916C81.5376 60.8566 81.4021 61.7623 80.9341 62.709C80.2675 64.0572 79.3195 64.8736 78.09 65.1582C76.8606 65.4428 75.4498 65.1915 73.8578 64.4044L67.5326 61.2772ZM73.402 53.7376L77.4897 55.7586C79.7702 56.886 81.3501 56.5605 82.2294 54.782C83.1158 52.9892 82.4187 51.529 80.1382 50.4015L76.0505 48.3806L73.402 53.7376ZM69.9557 60.7082L74.3877 62.8994C76.6825 64.0339 78.2873 63.6761 79.2021 61.8259C80.1168 59.9757 79.4268 58.4833 77.1319 57.3487L72.7 55.1575L69.9557 60.7082Z" fill="white"/>
</svg>
