<svg width="125" height="86" viewBox="0 0 125 86" fill="none" xmlns="http://www.w3.org/2000/svg">
<rect x="15.9983" width="113" height="56" rx="10" transform="rotate(16.5998 15.9983 0)" fill="#E4536D"/>
<path d="M33.8343 43.108C32.2396 42.6326 30.9755 41.8885 30.042 40.8756C29.1085 39.8627 28.5201 38.6438 28.2771 37.219C28.0493 35.7987 28.1914 34.2299 28.7034 32.5126C29.2107 30.8106 29.9486 29.4278 30.9168 28.3641C31.9004 27.3049 33.06 26.6071 34.3958 26.2707C35.7316 25.9343 37.1968 26.0038 38.7915 26.4792C39.9108 26.8129 40.8855 27.2954 41.7157 27.9269C42.5613 28.563 43.2131 29.3166 43.6713 30.1878L42.476 31.5094C41.9672 30.6398 41.3729 29.9451 40.6931 29.4252C40.0332 28.8946 39.2432 28.4921 38.3232 28.2179C36.4986 27.6739 34.9318 27.833 33.623 28.695C32.3142 29.557 31.349 31.0307 30.7273 33.116C30.1011 35.2166 30.0996 36.9859 30.7228 38.4239C31.3459 39.8618 32.5698 40.8528 34.3945 41.3967C35.3145 41.671 36.1936 41.7744 37.0317 41.7071C37.8898 41.629 38.7698 41.3654 39.6717 40.9163L39.9483 42.6767C39.0924 43.1395 38.1343 43.4132 37.0739 43.4978C36.0335 43.5716 34.9536 43.4417 33.8343 43.108ZM45.8791 46.6987C44.7905 46.3742 43.9183 45.8554 43.2627 45.1424C42.6071 44.4293 42.1849 43.5772 41.9962 42.586C41.8275 41.584 41.919 40.4927 42.271 39.3121C42.623 38.1314 43.1416 37.1757 43.8269 36.4451C44.5321 35.7036 45.3542 35.2141 46.2933 34.9765C47.2323 34.7388 48.2461 34.7823 49.3348 35.1068C50.4081 35.4268 51.2726 35.9433 51.9282 36.6563C52.5992 37.3739 53.019 38.2337 53.1878 39.2356C53.3765 40.2269 53.2949 41.3128 52.9429 42.4934C52.5909 43.6741 52.0623 44.6351 51.3571 45.3766C50.6718 46.1072 49.852 46.5891 48.8977 46.8222C47.9586 47.0598 46.9525 47.0187 45.8791 46.6987ZM46.3248 45.2037C47.3675 45.5145 48.3128 45.3957 49.1609 44.8471C50.0135 44.2832 50.6455 43.3112 51.0569 41.9312C51.4729 40.5359 51.4762 39.3765 51.067 38.4531C50.6577 37.5297 49.9318 36.9126 48.8891 36.6018C47.8311 36.2864 46.8781 36.403 46.03 36.9516C45.1973 37.5047 44.5729 38.479 44.157 39.8743C43.7456 41.2543 43.7346 42.4113 44.1239 43.3455C44.5332 44.2689 45.2668 44.8883 46.3248 45.2037ZM58.6593 50.5086C57.5706 50.184 56.6985 49.6652 56.0429 48.9522C55.3872 48.2392 54.9651 47.3871 54.7764 46.3959C54.6076 45.3939 54.6992 44.3026 55.0511 43.1219C55.4031 41.9413 55.9217 40.9856 56.607 40.2549C57.3123 39.5135 58.1344 39.024 59.0734 38.7863C60.0124 38.5487 61.0263 38.5921 62.1149 38.9167C63.1882 39.2366 64.0527 39.7531 64.7083 40.4662C65.3793 41.1837 65.7992 42.0435 65.968 43.0455C66.1566 44.0367 66.075 45.1227 65.723 46.3033C65.3711 47.484 64.8425 48.445 64.1373 49.1864C63.452 49.9171 62.6322 50.399 61.6778 50.6321C60.7388 50.8697 59.7326 50.8285 58.6593 50.5086ZM59.1049 49.0136C60.1476 49.3244 61.093 49.2055 61.941 48.6569C62.7937 48.093 63.4257 47.1211 63.8371 45.7411C64.253 44.3458 64.2564 43.1864 63.8471 42.263C63.4379 41.3396 62.7119 40.7225 61.6692 40.4117C60.6113 40.0963 59.6582 40.2129 58.8102 40.7614C57.9774 41.3146 57.3531 42.2888 56.9371 43.6842C56.5257 45.0641 56.5147 46.2212 56.9041 47.1554C57.3133 48.0788 58.047 48.6982 59.1049 49.0136ZM66.8552 52.7264L71.689 36.5116L73.5519 37.067L70.5694 47.0719L70.6154 47.0856L77.2713 43.6603L79.6403 44.3665L72.424 48.0755L76.7911 55.6884L74.4221 54.9822L70.3274 48.0516L70.2814 48.0379L68.7182 53.2818L66.8552 52.7264ZM82.2869 42.1252L82.9108 40.0323L85.2108 40.7179L84.5869 42.8109L82.2869 42.1252ZM78.3551 56.1547L81.6873 44.9768L83.5503 45.5321L80.218 56.71L78.3551 56.1547ZM88.6759 59.4568C86.9126 58.9311 85.6704 58.0015 84.9494 56.6679C84.2329 55.319 84.1397 53.7553 84.67 51.9766C85.0128 50.8266 85.5445 49.8832 86.265 49.1463C86.9901 48.3941 87.8222 47.8992 88.7612 47.6616C89.7201 47.4132 90.7286 47.4467 91.7866 47.7621C93.3046 48.2146 94.3466 49.0595 94.9127 50.2968C95.4834 51.5188 95.5151 52.9807 95.0077 54.6827L94.7952 55.3957L86.3772 52.8863C86.0592 54.1772 86.1369 55.2606 86.6105 56.1363C87.0886 56.9968 87.9256 57.6053 89.1216 57.9618C89.7963 58.1629 90.47 58.2552 91.1427 58.2388C91.82 58.2069 92.5056 58.0356 93.1992 57.7249L93.4524 59.2278C92.8047 59.5523 92.0487 59.736 91.1845 59.7789C90.3248 59.8064 89.4886 59.6991 88.6759 59.4568ZM91.4212 49.1558C90.3632 48.8404 89.4293 48.9209 88.6194 49.3974C87.8095 49.8739 87.1909 50.6328 86.7636 51.6741L93.5486 53.6968C93.8408 52.5484 93.8047 51.5776 93.4401 50.7844C93.0908 49.9958 92.4179 49.4529 91.4212 49.1558Z" fill="white"/>
</svg>
