<svg xmlns="http://www.w3.org/2000/svg" xmlns:xlink="http://www.w3.org/1999/xlink" viewBox="0 0 299 215"><defs><style>.cls-1{fill:none;}.cls-2{isolation:isolate;}.cls-3,.cls-37{fill:#fff;}.cls-4{clip-path:url(#clip-path);}.cls-5{fill:#3a78dd;}.cls-6{fill:#1ee5ce;fill-rule:evenodd;}.cls-7{fill:#3a3a3a;}.cls-8{fill:#c4c5c6;}.cls-9{fill:#4c4c62;}.cls-10{clip-path:url(#clip-path-2);}.cls-11{fill:#f4f4f4;}.cls-12{fill:#a37c6a;}.cls-13{fill:#ffc6ae;}.cls-14{fill:#ffa893;}.cls-15{fill:#744499;}.cls-16{clip-path:url(#clip-path-3);}.cls-17{fill:#393939;}.cls-18{fill:#4678d4;}.cls-19{clip-path:url(#clip-path-4);}.cls-20{fill:#ff8e59;}.cls-21{fill:#22487f;}.cls-22{fill:#ef7840;}.cls-23,.cls-28,.cls-32,.cls-36{fill:#8d19e0;}.cls-24{fill:url(#Безымянный_градиент_32);}.cls-25,.cls-27,.cls-31,.cls-35,.cls-41,.cls-44{mix-blend-mode:multiply;}.cls-26{fill:url(#linear-gradient);}.cls-27{fill:url(#linear-gradient-2);}.cls-28{font-size:2.18px;letter-spacing:-0.03em;}.cls-28,.cls-32,.cls-36{font-family:Code-Pro-LC, Code Pro LC;}.cls-29{fill:url(#Безымянный_градиент_32-2);}.cls-30{fill:url(#linear-gradient-3);}.cls-31{fill:url(#linear-gradient-4);}.cls-32{font-size:1.67px;letter-spacing:-0.03em;}.cls-33{fill:url(#Безымянный_градиент_32-3);}.cls-34{fill:url(#linear-gradient-5);}.cls-35{fill:url(#linear-gradient-6);}.cls-36{font-size:1.24px;letter-spacing:-0.03em;}.cls-37,.cls-38{letter-spacing:-0.03em;}.cls-39{fill:url(#Безымянный_градиент_32-4);}.cls-40{fill:url(#linear-gradient-7);}.cls-41{fill:url(#linear-gradient-8);}.cls-42{fill:url(#Безымянный_градиент_32-5);}.cls-43{fill:url(#linear-gradient-9);}.cls-44{fill:url(#linear-gradient-10);}</style><clipPath id="clip-path"><rect class="cls-1" x="79.5" y="72.54" width="133.02" height="81.6"/></clipPath><clipPath id="clip-path-2"><path class="cls-1" d="M91.14,163.32a21.36,21.36,0,1,1-21.36,21.36,21.33,21.33,0,0,1,21.36-21.36Z"/></clipPath><clipPath id="clip-path-3"><path class="cls-1" d="M258.54,57.54A26.64,26.64,0,1,1,232,84.18a26.58,26.58,0,0,1,26.58-26.64Z"/></clipPath><clipPath id="clip-path-4"><path class="cls-1" d="M45.36,15A30.39,30.39,0,1,1,15,45.36,30.33,30.33,0,0,1,45.36,15Z"/></clipPath><linearGradient id="Безымянный_градиент_32" x1="112.09" y1="122.23" x2="91" y2="101.15" gradientUnits="userSpaceOnUse"><stop offset="0" stop-color="#aa2afc"/><stop offset="1" stop-color="#5f009e"/></linearGradient><linearGradient id="linear-gradient" x1="107.68" y1="116.64" x2="102.58" y2="113.71" gradientUnits="userSpaceOnUse"><stop offset="0" stop-color="#0d2b85"/><stop offset="1" stop-color="#fff"/></linearGradient><linearGradient id="linear-gradient-2" x1="99.63" y1="120.72" x2="94.59" y2="115.97" xlink:href="#linear-gradient"/><linearGradient id="Безымянный_градиент_32-2" x1="200.38" y1="76.36" x2="197.83" y2="73.8" xlink:href="#Безымянный_градиент_32"/><linearGradient id="linear-gradient-3" x1="199.85" y1="75.68" x2="199.23" y2="75.32" xlink:href="#linear-gradient"/><linearGradient id="linear-gradient-4" x1="198.87" y1="76.17" x2="198.26" y2="75.6" xlink:href="#linear-gradient"/><linearGradient id="Безымянный_градиент_32-3" x1="263.78" y1="106.08" x2="261.82" y2="104.13" xlink:href="#Безымянный_градиент_32"/><linearGradient id="linear-gradient-5" x1="263.37" y1="105.56" x2="262.9" y2="105.29" xlink:href="#linear-gradient"/><linearGradient id="linear-gradient-6" x1="262.62" y1="105.94" x2="262.16" y2="105.5" xlink:href="#linear-gradient"/><linearGradient id="Безымянный_градиент_32-4" x1="95.58" y1="202.78" x2="94.13" y2="201.33" xlink:href="#Безымянный_градиент_32"/><linearGradient id="linear-gradient-7" x1="95.28" y1="202.4" x2="94.93" y2="202.19" xlink:href="#linear-gradient"/><linearGradient id="linear-gradient-8" x1="94.72" y1="202.68" x2="94.38" y2="202.35" xlink:href="#linear-gradient"/><linearGradient id="Безымянный_градиент_32-5" x1="51.97" y1="70.52" x2="50.02" y2="68.57" xlink:href="#Безымянный_градиент_32"/><linearGradient id="linear-gradient-9" x1="51.56" y1="70" x2="51.09" y2="69.73" xlink:href="#linear-gradient"/><linearGradient id="linear-gradient-10" x1="50.82" y1="70.38" x2="50.35" y2="69.94" xlink:href="#linear-gradient"/></defs><title>advertisers-features-2_vv</title><g class="cls-2"><g id="Слой_1" data-name="Слой 1"><path class="cls-3" d="M49.26,51.54H242.52a5,5,0,0,1,5,5v113a5,5,0,0,1-5,5H49.26a5,5,0,0,1-5-5v-113a5,5,0,0,1,5-5Z"/><g class="cls-4"><rect x="79.5" y="78.84" width="133.02" height="75.24"/><rect class="cls-5" x="79.5" y="86.16" width="133.26" height="60.36"/><path class="cls-3" d="M205.14,148.86a.18.18,0,0,0,0,.24l.66.66v.06h-.54a.16.16,0,0,0-.18.18v.72a.16.16,0,0,0,.18.18h.54l.54.6a.21.21,0,0,0,.36-.12v-.78l.72.78a1.31,1.31,0,0,1-.3.18c-.06,0-.06.06-.06.12s.12.24.24.18a1.26,1.26,0,0,0,.36-.24l.24.24a.27.27,0,0,0,.3,0,.18.18,0,0,0,0-.24l-2.76-2.76a.27.27,0,0,0-.3,0Zm2.82,1.5a.87.87,0,0,1-.12.42l.3.3a1.6,1.6,0,0,0,.18-.72,1.69,1.69,0,0,0-1.08-1.5c-.06-.06-.18.06-.18.18h0a.22.22,0,0,0,.06.18,1.23,1.23,0,0,1,.84,1.14Zm-1.62-1.14v.06l.36.3v-.24a.23.23,0,0,0-.36-.12Zm1.14,1.14a.83.83,0,0,0-.42-.72v.3l.42.48v-.06Z"/><path class="cls-6" d="M79.5,153.48h45.12a.3.3,0,0,1,0,.6H79.5Z"/><path d="M196.32,74.28a1.74,1.74,0,0,1,1.74-1.74h12.78a1.74,1.74,0,0,1,1.74,1.74V79.2H196.32Z"/></g><path d="M246.84,48.54H45.66a8.34,8.34,0,0,0-5.76,2.4,8.12,8.12,0,0,0-2.4,5.82V170.88a8,8,0,0,0,2.4,5.76,8.08,8.08,0,0,0,5.76,2.4H246.84a8.08,8.08,0,0,0,5.76-2.4,8,8,0,0,0,2.4-5.76V56.76a8.12,8.12,0,0,0-2.4-5.82,8.34,8.34,0,0,0-5.76-2.4ZM45.48,171.36V56.22H247V171.36Z"/><path class="cls-7" d="M21.72,178.86v5c0,3.06,5,5.58,11.22,5.58H260c6.18,0,11.16-2.52,11.16-5.58v-5Z"/><path class="cls-8" d="M132.66,178.92v.72c0,.42.54.78,1.26.78H159c.66,0,1.2-.36,1.2-.78v-.72Z"/><rect class="cls-9" x="45.47" y="170.82" width="201.59" height="7.5"/><g class="cls-10"><path class="cls-11" d="M91.14,163.32a21.36,21.36,0,1,1-21.36,21.36,21.33,21.33,0,0,1,21.36-21.36Z"/><path class="cls-1" d="M91.14,163.32a21.36,21.36,0,1,1-21.36,21.36,21.33,21.33,0,0,1,21.36-21.36Z"/><path class="cls-12" d="M98,180.9a27.17,27.17,0,0,0,.06-5.64c-.9-4-4.08-5.64-7.5-5.64s-6.72,1.74-7.56,5.88c-.3,1.5.3,5.4.12,5.4Z"/><polygon class="cls-13" points="93.78 187.2 87.54 187.2 87.24 192.36 85.08 197.58 96.12 196.38 94.14 192.36 93.78 187.2"/><path class="cls-14" d="M87.54,187.2l-.18,3.54s6.12-.48,6.42-3.54Z"/><path class="cls-13" d="M93.66,173.4c3.9,0,3.24,6.36,3.3,7.62,0,1.68-.72,5.16-2.82,6.72a5.59,5.59,0,0,1-3.42,1.44,5.44,5.44,0,0,1-3.66-1.44c-2.1-1.56-2.82-5-2.82-6.72.06-1.26-.6-7.62,3.3-7.62Z"/><path class="cls-12" d="M88.68,179h-.06a3.07,3.07,0,0,0-1.8,0H86.7l-.12-.12a.22.22,0,0,1,.06-.18l.06-.06a3,3,0,0,1,2,0c.06,0,.06,0,.12.06v.12c0,.06,0,.12-.06.12s-.06.06-.12.06Z"/><path class="cls-12" d="M92.52,179c-.06,0-.06,0-.12-.06s-.06-.06-.06-.12v-.12c.06-.06.06-.06.12-.06a3,3,0,0,1,2,0c.06,0,.06,0,.12.06v.18l-.12.12h-.12a3.07,3.07,0,0,0-1.8,0Z"/><path class="cls-13" d="M96.12,185c1.32-.9,3-2.4,2.52-4.14a1.42,1.42,0,0,0-1.92-.84Z"/><path class="cls-13" d="M85.08,185c-1.32-.9-3-2.4-2.52-4.14a1.42,1.42,0,0,1,1.92-.84Z"/><path class="cls-5" d="M105.84,197.46c-1.8-2.46-7.08-4-9.66-4.68l-2-.42s0,3-3.48,3a3.09,3.09,0,0,1-3.42-3l-2,.42c-2.58.72-7.86,2.22-9.66,4.68-.72,1-1.2,4.32-1.56,8.76h33.36c-.3-4.44-.78-7.8-1.5-8.76Z"/><path class="cls-15" d="M79.2,206a15.49,15.49,0,0,0-1.32-5.52l-.24.12A14.54,14.54,0,0,1,79,206v.18h.24V206Z"/><path class="cls-15" d="M101.88,206a13.15,13.15,0,0,1,1.32-5.52l.24.12a14.54,14.54,0,0,0-1.32,5.4v.18h-.24V206Z"/><rect class="cls-1" x="73.26" y="168.06" width="35.22" height="38.04"/></g><g class="cls-16"><path class="cls-11" d="M258.36,57.54a26.64,26.64,0,1,1-26.58,26.64,26.58,26.58,0,0,1,26.58-26.64Z"/><path class="cls-1" d="M258.36,57.54a26.64,26.64,0,1,1-26.58,26.64,26.58,26.58,0,0,1,26.58-26.64Z"/><path class="cls-17" d="M255.78,66.36c-6.42,1.32-6.72,5.88-6.72,5.88-2.64,2.82.36,8.16.36,8.16h18.3c4-10.86-5.46-15.36-11.94-14Z"/><polygon class="cls-13" points="262.5 88.2 254.64 88.2 254.28 94.68 262.86 94.68 262.5 88.2"/><path class="cls-14" d="M254.64,88.2l-.24,4.44s7.68-.6,8.1-4.44Z"/><path class="cls-13" d="M262.26,71c4.92,0,4.14,8,4.14,9.54.06,2-.9,6.42-3.48,8.4a7.81,7.81,0,0,1-4.32,1.8,7.53,7.53,0,0,1-4.56-1.8c-2.58-2-3.54-6.36-3.48-8.4.06-1.56-.78-9.54,4.14-9.54Z"/><path class="cls-17" d="M256.08,77.94H256a3.51,3.51,0,0,0-2.22,0h-.18c-.06-.06-.12-.12-.12-.18a.11.11,0,0,1,0-.18.13.13,0,0,1,.12-.12,4.5,4.5,0,0,1,2.52,0c.06,0,.12.06.18.12v.18a.21.21,0,0,0-.06.12.22.22,0,0,1-.18.06Z"/><path class="cls-17" d="M260.88,77.94a.22.22,0,0,1-.18-.06c0-.06-.06-.12-.06-.18a.19.19,0,0,1,.06-.12.13.13,0,0,1,.12-.12,4.5,4.5,0,0,1,2.52,0,.06.06,0,0,1,.06.06c.06,0,.06,0,.06.06a.06.06,0,0,1,.06.06v.12a.06.06,0,0,1-.06.06c0,.06-.06.06-.06.12h-.18a3.7,3.7,0,0,0-2.28,0Z"/><path class="cls-13" d="M265.38,85.44c1.68-1.08,3.72-3,3.12-5.22a1.71,1.71,0,0,0-2.34-1Z"/><path class="cls-13" d="M251.58,85.44c-1.68-1.08-3.72-3-3.12-5.22a1.71,1.71,0,0,1,2.34-1Z"/><path class="cls-17" d="M249.42,78.3,251,81.12a20.66,20.66,0,0,1,.12-7.38L250,75.6Z"/><path class="cls-17" d="M267.54,78.12,265.86,81a19.22,19.22,0,0,0-.12-7.38L267,75.48Z"/><path class="cls-5" d="M277.5,101c-2.22-3.06-8.82-4.92-12.06-5.76l-2.58-.6h-8.58l-2.58.6c-3.24.84-9.84,2.7-12.06,5.76-.9,1.2-1.5,5.46-1.92,11h41.7c-.42-5.58-1-9.84-1.92-11Z"/><path class="cls-13" d="M254.28,94.68a9.88,9.88,0,0,0-1.08.24,9.77,9.77,0,0,0,11,.06l-1.38-.3Z"/><path class="cls-17" d="M249.42,74.7s1.74,2.88,7.2,1.14c0,0-4.2-1.14-1.74-5.34,0,0-3.18-1.2-5.46,4.2Z"/><path class="cls-17" d="M260.22,69.84c-.24.72,2.76,7.32,6.78,8.46l-.36-6.06-2.4-2.76Z"/><path class="cls-17" d="M252.42,70.8s7.2.36,9.06,5.64c0,0,1.26-3.84-.6-6.66s-8.46,1-8.46,1Z"/><path class="cls-17" d="M259.5,76.38c-1.14-3.36-4.26-5.22-5.34-5.22v-.3c1.32-.06,4.5,2,5.64,5.4Z"/><path d="M267.54,77.34a14.72,14.72,0,0,1-4.26-4.56l.3-.12A14.44,14.44,0,0,0,267.72,77Z"/><path d="M254.52,70.92a3.87,3.87,0,0,1-1.86-2l.3-.12a3.22,3.22,0,0,0,1.68,1.86Z"/><path d="M258.9,71.88l-.12-.3a12.43,12.43,0,0,0,3.48-2.64,1.58,1.58,0,0,0,.54-.84l.3.06a1.94,1.94,0,0,1-.6,1,11.36,11.36,0,0,1-3.6,2.7Z"/><path d="M250.2,75.54a4.79,4.79,0,0,1-1.08-1.62l.36-.12a3.09,3.09,0,0,0,1,1.5Z"/><path class="cls-18" d="M244.38,111.78a16.71,16.71,0,0,0-1.68-6.84l-.3.12a16.94,16.94,0,0,1,1.68,6.72v.3h.3v-.3Z"/><path class="cls-18" d="M272.76,111.78a16.71,16.71,0,0,1,1.68-6.84l.3.12a18.12,18.12,0,0,0-1.68,6.72v.3h-.3v-.3Z"/><rect class="cls-1" x="237.72" y="66.12" width="41.7" height="45.96"/></g><g class="cls-19"><path class="cls-11" d="M45.36,15A30.39,30.39,0,1,1,15,45.36,30.33,30.33,0,0,1,45.36,15Z"/><path class="cls-1" d="M45.36,15A30.39,30.39,0,1,1,15,45.36,30.33,30.33,0,0,1,45.36,15Z"/><path class="cls-18" d="M40.92,52.5s-1.38.42-1.26,1.26,1.26,1,1.26,1Z"/><path class="cls-18" d="M50.4,53.34a1.42,1.42,0,0,1,1.44,1.38c.12,1.32-3.06,1.92-3.06,1.92Z"/><path class="cls-20" d="M56.16,39.78c.3,0,.6-4.38.66-4.86a16.59,16.59,0,0,0-.3-3.84,8.56,8.56,0,0,0-2.94-4.92c-2.46-2-5.88-2.46-9-2.52-2.52,0-5.1,0-6.72,2.1a7.34,7.34,0,0,0-1,1.74c0,.06-.24.78-.24.78S31.68,29.34,35,39.78Z"/><polygon class="cls-13" points="50.1 48.72 41.22 48.72 40.74 56.04 46.32 66.42 50.58 56.04 50.1 48.72"/><path class="cls-14" d="M41.22,48.72l-.3,5s8.7-.66,9.18-5Z"/><path class="cls-13" d="M49.86,29.16c5.58,0,4.68,9,4.74,10.8.06,2.34-1,7.26-4,9.6a9.05,9.05,0,0,1-5,2,8.74,8.74,0,0,1-5.16-2c-2.94-2.34-4-7.26-4-9.6.06-1.8-.9-10.8,4.68-10.8Z"/><path class="cls-20" d="M40.14,37A.22.22,0,0,1,40,37c-.06,0-.12-.06-.12-.18a.22.22,0,0,1,.06-.18c0-.06.06-.06.12-.12a5.85,5.85,0,0,1,2.88,0c.06.06.12.06.18.12v.24c0,.06-.06.12-.12.18h-.24a4.5,4.5,0,0,0-2.52,0Z"/><path class="cls-20" d="M51,37h-.06a4.71,4.71,0,0,0-2.58,0h-.18c-.06-.06-.12-.12-.12-.18a.11.11,0,0,1,0-.18c0-.06.06-.12.12-.18a5.85,5.85,0,0,1,2.88,0c.06,0,.12.06.18.12s.06.12.06.18-.06.12-.12.18A.22.22,0,0,1,51,37Z"/><path class="cls-13" d="M53.4,45.6c1.92-1.26,4.26-3.48,3.6-5.94a2,2,0,0,0-2.76-1.14Z"/><path class="cls-13" d="M37.74,45.6c-1.92-1.26-4.26-3.48-3.6-5.94a1.91,1.91,0,0,1,2.7-1.14Z"/><path class="cls-20" d="M35.22,37.44l1.92,3.24a21.79,21.79,0,0,1,.12-8.4l-1.38,2.1Z"/><path class="cls-20" d="M55.86,37.26,54,40.5a23.9,23.9,0,0,0-.18-8.4l1.44,2.1Z"/><path class="cls-5" d="M70.62,71.52c-1.38-8.46-1.68-9.48-4.74-11.28s-12.48-4-12.48-4c-1-3.18-3-2.94-3-2.94,2.34.78.12,2.22-1.38,2.76s-1.86,0-1.62,1.92a10.3,10.3,0,0,1-1.08,4.5s-.48-5.88-1.14-6.42-2.34-.6-4.26-1.38c-1-.42-2.22-1.14,0-2.22,0,0-1.62-.12-2.76,2.94,0,0-10.68,3-15.06,5.94-2.1,1.44-2.94,9.54-3.78,14.22h51.9c-.18-1.44-.42-2.82-.6-4.08Z"/><path class="cls-21" d="M45.72,59.88A13,13,0,0,1,38,55.56l.3-.24a13,13,0,0,0,7.5,4.2Z"/><path class="cls-21" d="M47.28,59.88l-.06-.36a8.65,8.65,0,0,0,6.06-3.36l.3.18c-.06.12-1.8,2.82-6.3,3.54Z"/><path class="cls-21" d="M46.44,62.58l-.3-.12c-1,2-1.32,3.6-1.32,11.4,0,.6.06,1.14.06,1.74h.36V73.86c0-8,.3-9.36,1.2-11.28Z"/><path class="cls-21" d="M65.58,66l-.36-.06a97.65,97.65,0,0,0-1.56,9.66H64c.66-4.92,1.32-8.64,1.56-9.6Z"/><path class="cls-21" d="M25.5,66l.36-.06a90.32,90.32,0,0,1,1.62,9.66h-.42c-.6-4.92-1.32-8.64-1.56-9.6Z"/><path class="cls-21" d="M47.22,65.7a.58.58,0,0,0,0-.84.65.65,0,0,0-.9,0,.58.58,0,0,0,0,.84.56.56,0,0,0,.9,0Z"/><path class="cls-22" d="M39.18,29.58a5.63,5.63,0,0,1-2.4-1l.24-.3a4.62,4.62,0,0,0,2.16.9Z"/><path class="cls-22" d="M39.12,28l-.3-.24a5.8,5.8,0,0,1,2-1.56,5,5,0,0,1,2.46-.48V26a5,5,0,0,0-2.28.48A5.78,5.78,0,0,0,39.12,28Z"/><path class="cls-22" d="M35.52,38.1a7.47,7.47,0,0,1-.6-4.56l.36.06a7.41,7.41,0,0,0,.6,4.38Z"/><rect class="cls-1" x="19.32" y="23.64" width="51.9" height="51.96"/></g><path class="cls-23" d="M123.89,119.17l1.58-4h1.87L123.4,125H122l-4-9.81h1.87l1.6,4,1.19,3.42Z"/><path class="cls-3" d="M130.51,112.67a1.1,1.1,0,0,1-2.2,0A1.1,1.1,0,0,1,130.51,112.67Zm-.22,2.4h-1.76v9.85h1.76Z"/><path class="cls-3" d="M134.51,116.44a3.77,3.77,0,0,1,3.28-1.42,5,5,0,0,1,0,10.07,3.87,3.87,0,0,1-3.24-1.48v1.31h-1.76v-12.6h1.76Zm3.17,7.08a3.48,3.48,0,1,0-3.17-3.48A3.25,3.25,0,0,0,137.68,123.51Z"/><path class="cls-3" d="M153.9,120.47h-8.25a3.25,3.25,0,0,0,3.28,3.06,3.14,3.14,0,0,0,2.9-1.62h1.82a5.05,5.05,0,1,1-4.7-6.88,4.78,4.78,0,0,1,5,4.59A2.67,2.67,0,0,1,153.9,120.47ZM152.08,119a3,3,0,0,0-3.13-2.43,3.07,3.07,0,0,0-3.22,2.43Z"/><path class="cls-23" d="M160.45,119.17l1.58-4h1.87L160,125h-1.4l-4-9.81h1.87l1.6,4,1.19,3.42Z"/><path class="cls-3" d="M167.07,112.67a1.1,1.1,0,0,1-2.2,0A1.1,1.1,0,0,1,167.07,112.67Zm-.22,2.4h-1.76v9.85h1.76Z"/><path class="cls-3" d="M177.06,112.32h1.76v12.6h-1.76V123.6a3.88,3.88,0,0,1-3.26,1.48c-3.4,0-5.19-2.18-5.19-5.08a4.8,4.8,0,0,1,5.17-5,3.77,3.77,0,0,1,3.28,1.42Zm-3.31,4.25a3.38,3.38,0,0,0-3.37,3.44,3.34,3.34,0,1,0,3.37-3.44Z"/><path class="cls-3" d="M190.51,120.47h-8.25a3.25,3.25,0,0,0,3.28,3.06,3.14,3.14,0,0,0,2.9-1.62h1.82a5.05,5.05,0,1,1-4.7-6.88,4.78,4.78,0,0,1,5,4.59A2.61,2.61,0,0,1,190.51,120.47ZM188.69,119a3,3,0,0,0-3.13-2.43,3.07,3.07,0,0,0-3.22,2.43Z"/><path class="cls-3" d="M197.1,125.1a4.94,4.94,0,0,1-5.22-5c0-3.37,2.63-5,5.28-5a4.94,4.94,0,0,1,5.22,5C202.37,123.42,199.74,125.1,197.1,125.1Zm0-1.58a3.47,3.47,0,1,0-3.46-3.46A3.35,3.35,0,0,0,197.1,123.51Z"/><path class="cls-24" d="M113.65,110.84l-8.24,12.33h0l-2.29,3.36a2.58,2.58,0,0,1-4,.38l-.11-.12a2.67,2.67,0,0,1-.21-.27l-.91-1.34L87.11,109.44h1.21a12,12,0,0,1,9.89,5.23L99.88,117l3.46-5.27a4.52,4.52,0,0,0,.71-3.11c-.46-3.26-4.21-4.05-6.91-4.05h13.2A4,4,0,0,1,113.65,110.84Z"/><g class="cls-25"><path class="cls-26" d="M111.53,104.71,97.94,125.19,87.11,109.44h1.21a12,12,0,0,1,9.89,5.23L99.88,117l4-6.12c1.26-5.18-3.51-6.32-6.76-6.32h13.2A3.48,3.48,0,0,1,111.53,104.71Z"/></g><path class="cls-27" d="M99.88,117l-3.77,5.54-9-13.07h1.21a12,12,0,0,1,9.89,5.23Z"/><text class="cls-28" transform="translate(201.07 76.68)">v<tspan class="cls-3" x="1.13" y="0">ibe</tspan><tspan x="4.43" y="0">v</tspan><tspan class="cls-3" x="5.55" y="0">ideo</tspan></text><path class="cls-29" d="M200.57,75l-1,1.49h0l-.28.41a.31.31,0,0,1-.48,0h0l0,0-.11-.16-1.31-1.91h.15a1.45,1.45,0,0,1,1.2.63l.2.28.42-.64a.55.55,0,0,0,.09-.38c-.06-.39-.51-.49-.84-.49h1.6A.49.49,0,0,1,200.57,75Z"/><g class="cls-25"><path class="cls-30" d="M200.32,74.23l-1.65,2.48-1.31-1.91h.15a1.45,1.45,0,0,1,1.2.63l.2.28.49-.74c.15-.63-.43-.76-.82-.76h1.6Z"/></g><path class="cls-31" d="M198.9,75.72l-.46.67-1.09-1.58h.15a1.45,1.45,0,0,1,1.2.63Z"/><text class="cls-32" transform="translate(264.3 106.33)">v<tspan class="cls-3" x="0.86" y="0">ibe</tspan><tspan x="3.38" y="0">v</tspan><tspan class="cls-3" x="4.25" y="0">ideo</tspan></text><path class="cls-33" d="M263.92,105l-.76,1.14h0l-.21.31a.24.24,0,0,1-.37,0h0l0,0-.08-.12-1-1.46h.11a1.11,1.11,0,0,1,.92.48l.15.21.32-.49a.42.42,0,0,0,.07-.29c0-.3-.39-.38-.64-.38h1.22A.37.37,0,0,1,263.92,105Z"/><g class="cls-25"><path class="cls-34" d="M263.72,104.46l-1.26,1.9-1-1.46h.11a1.11,1.11,0,0,1,.92.48l.15.21L263,105c.12-.48-.32-.58-.63-.58h1.22Z"/></g><path class="cls-35" d="M262.65,105.59l-.35.51-.83-1.21h.11a1.11,1.11,0,0,1,.92.48Z"/><text class="cls-36" transform="translate(95.98 202.97)">v<tspan class="cls-37" x="0.64" y="0">ibe</tspan><tspan class="cls-38" x="2.52" y="0">v</tspan><tspan class="cls-3" x="3.17" y="0">ideo</tspan></text><path class="cls-39" d="M95.69,202l-.57.85h0l-.16.23a.18.18,0,0,1-.27,0h0v0l-.06-.09-.75-1.09h.08a.83.83,0,0,1,.68.36l.11.16.24-.36a.31.31,0,0,0,0-.21c0-.23-.29-.28-.48-.28h.91A.28.28,0,0,1,95.69,202Z"/><g class="cls-25"><path class="cls-40" d="M95.55,201.57,94.61,203l-.75-1.09h.08a.83.83,0,0,1,.68.36l.11.16L95,202c.09-.36-.24-.44-.47-.44h1Z"/></g><path class="cls-41" d="M94.74,202.42l-.26.38-.62-.9h.08a.83.83,0,0,1,.68.36Z"/><text class="cls-32" transform="translate(52.5 70.77)">v<tspan class="cls-3" x="0.86" y="0">ibe</tspan><tspan x="3.38" y="0">v</tspan><tspan class="cls-3" x="4.25" y="0">ideo</tspan></text><path class="cls-42" d="M52.11,69.47l-.76,1.14h0l-.21.31a.24.24,0,0,1-.37,0h0l0,0-.08-.12-1-1.46h.11a1.11,1.11,0,0,1,.92.48l.15.21.32-.49a.42.42,0,0,0,.07-.29c0-.3-.39-.38-.64-.38h1.22A.37.37,0,0,1,52.11,69.47Z"/><g class="cls-25"><path class="cls-43" d="M51.92,68.9l-1.26,1.9-1-1.46h.11a1.11,1.11,0,0,1,.92.48l.15.21.37-.57c.12-.48-.32-.58-.63-.58h1.22Z"/></g><path class="cls-44" d="M50.84,70l-.35.51-.83-1.21h.11a1.11,1.11,0,0,1,.92.48Z"/></g></g></svg>