<svg width="333" height="259" viewBox="0 0 333 259" fill="none" xmlns="http://www.w3.org/2000/svg">
<g clip-path="url(#clip0_448_25030)">
<rect x="30" y="74.7324" width="271" height="164" rx="6.67185" fill="white"/>
<rect width="270.674" height="500.036" transform="translate(30.1729 63.6348)" fill="white"/>
<rect x="40.8569" y="74.2324" width="164.879" height="6.34148" rx="1.05691" fill="#F5F5F5"/>
<rect x="209.962" y="74.2324" width="80.3254" height="6.34148" rx="1.05691" fill="#F5F5F5"/>
<rect x="209.962" y="194.725" width="80.3254" height="6.34148" rx="1.05691" fill="#F5F5F5"/>
<rect x="209.962" y="83.748" width="80.3254" height="6.34148" rx="1.05691" fill="#F5F5F5"/>
<rect x="209.962" y="204.236" width="80.3254" height="6.34148" rx="1.05691" fill="#F5F5F5"/>
<rect x="209.962" y="93.2598" width="80.3254" height="6.34148" rx="1.05691" fill="#F5F5F5"/>
<rect x="209.962" y="213.748" width="80.3254" height="6.34148" rx="1.05691" fill="#F5F5F5"/>
<rect x="209.962" y="102.771" width="80.3254" height="6.34148" rx="1.05691" fill="#F5F5F5"/>
<rect x="209.962" y="223.26" width="80.3254" height="6.34148" rx="1.05691" fill="#F5F5F5"/>
<rect x="209.962" y="112.287" width="80.3254" height="6.34148" rx="1.05691" fill="#F5F5F5"/>
<rect x="209.962" y="232.771" width="80.3254" height="6.34148" rx="1.05691" fill="#F5F5F5"/>
<rect x="209.962" y="121.795" width="80.3254" height="6.34148" rx="1.05691" fill="#F5F5F5"/>
<rect x="209.962" y="134.479" width="80.3254" height="53.9026" rx="1.05691" fill="#F5F5F5"/>
<rect x="40.8569" y="83.748" width="164.879" height="6.34148" rx="1.05691" fill="#F5F5F5"/>
<rect x="40.8569" y="93.2598" width="164.879" height="6.34148" rx="1.05691" fill="#F5F5F5"/>
<rect x="40.8569" y="102.771" width="164.879" height="6.34148" rx="1.05691" fill="#F5F5F5"/>
<rect x="40.8569" y="112.287" width="164.879" height="6.34148" rx="1.05691" fill="#F5F5F5"/>
<rect x="40.8569" y="121.795" width="80.3254" height="6.34148" rx="1.05691" fill="#F5F5F5"/>
<rect x="40.8579" y="134.869" width="164.879" height="6.34148" rx="1.05691" fill="#F5F5F5"/>
<rect x="40.8579" y="144.381" width="164.879" height="6.34148" rx="1.05691" fill="#F5F5F5"/>
<rect x="40.8579" y="153.893" width="164.879" height="6.34148" rx="1.05691" fill="#F5F5F5"/>
<rect x="40.8579" y="163.404" width="164.879" height="6.34148" rx="1.05691" fill="#F5F5F5"/>
<rect x="40.8579" y="172.92" width="164.879" height="6.34148" rx="1.05691" fill="#F5F5F5"/>
<rect x="40.8579" y="182.428" width="164.879" height="6.34148" rx="1.05691" fill="#F5F5F5"/>
<rect x="40.8579" y="197.225" width="80.3254" height="6.34148" rx="1.05691" fill="#F5F5F5"/>
<rect x="40.8579" y="206.74" width="164.879" height="74.8295" rx="1.05691" fill="#F5F5F5"/>
</g>
<path d="M300.082 70.7324H31.9183C29.0226 70.7324 26.2455 71.8821 24.1979 73.9286C22.1503 75.975 21 78.7506 21 81.6448V233.82C21.0035 236.713 22.155 239.487 24.2018 241.532C26.2486 243.578 29.0237 244.729 31.9183 244.732H300.082C302.976 244.729 305.751 243.578 307.798 241.532C309.845 239.487 310.996 236.713 311 233.82V81.6448C311 78.7506 309.85 75.975 307.802 73.9286C305.755 71.8821 302.977 70.7324 300.082 70.7324V70.7324ZM31.6792 234.504V80.9412H300.321V234.504H31.6792Z" fill="black"/>
<path d="M-0.000488281 244.459V251.09C-0.000488281 255.201 6.67144 258.536 14.9101 258.536H317.637C325.869 258.536 332.541 255.221 332.541 251.09V244.459H-0.000488281Z" fill="black"/>
<path d="M147.897 244.557V245.505C147.897 246.095 148.634 246.572 149.544 246.572H182.99C183.899 246.572 184.636 246.095 184.636 245.505V244.557H147.897Z" fill="white"/>
<g filter="url(#filter0_d_448_25030)">
<g clip-path="url(#clip1_448_25030)">
<rect width="188" height="500" transform="translate(72 25.7324)" fill="white"/>
<rect x="82.5698" y="83.8652" width="80.3254" height="6.34148" rx="1.05691" fill="#F5F5F5"/>
<rect x="82.5698" y="221.732" width="80.3254" height="6.34148" rx="1.05691" fill="#F5F5F5"/>
<rect x="82.5706" y="96.9355" width="164.879" height="6.34148" rx="1.05691" fill="#F5F5F5"/>
<rect x="82.5706" y="106.451" width="164.879" height="6.34148" rx="1.05691" fill="#F5F5F5"/>
<rect x="82.5706" y="115.959" width="164.879" height="6.34148" rx="1.05691" fill="#F5F5F5"/>
<rect x="82.5706" y="125.475" width="164.879" height="6.34148" rx="1.05691" fill="#F5F5F5"/>
<rect x="82.5706" y="134.99" width="164.879" height="6.34148" rx="1.05691" fill="#F5F5F5"/>
<rect x="82.5706" y="144.494" width="164.879" height="6.34148" rx="1.05691" fill="#F5F5F5"/>
<rect x="82.5706" y="157.732" width="164.879" height="6.34148" rx="1.05691" fill="#F5F5F5"/>
<rect x="82.5706" y="167.248" width="164.879" height="6.34148" rx="1.05691" fill="#F5F5F5"/>
<rect x="82.5706" y="176.756" width="164.879" height="6.34148" rx="1.05691" fill="#F5F5F5"/>
<rect x="82.5706" y="186.271" width="164.879" height="6.34148" rx="1.05691" fill="#F5F5F5"/>
<rect x="82.5706" y="195.787" width="164.879" height="6.34148" rx="1.05691" fill="#F5F5F5"/>
<rect x="82.5706" y="205.291" width="164.879" height="6.34148" rx="1.05691" fill="#F5F5F5"/>
<path d="M92.408 44.3324H96.904L105.048 66.7324H100.904L99.464 62.7644H89.864L88.424 66.7324H84.28L92.408 44.3324ZM91.288 58.8604H98.024L94.648 49.6284L91.288 58.8604Z" fill="#4C4C62"/>
<path d="M118.735 42.7324H122.639V66.7324H118.735V64.7324C118.223 65.4471 117.577 66.0284 116.799 66.4764C116.02 66.9244 115.119 67.1484 114.095 67.1484C112.932 67.1484 111.844 66.9298 110.831 66.4924C109.817 66.0551 108.921 65.4524 108.143 64.6844C107.375 63.9058 106.772 63.0098 106.335 61.9964C105.897 60.9831 105.679 59.8951 105.679 58.7324C105.679 57.5698 105.897 56.4818 106.335 55.4684C106.772 54.4551 107.375 53.5644 108.143 52.7964C108.921 52.0178 109.817 51.4098 110.831 50.9724C111.844 50.5351 112.932 50.3164 114.095 50.3164C115.119 50.3164 116.02 50.5404 116.799 50.9884C117.577 51.4258 118.223 52.0071 118.735 52.7324V42.7324ZM114.143 63.3884C114.975 63.3884 115.711 63.1804 116.351 62.7644C116.991 62.3484 117.492 61.7884 117.855 61.0844C118.217 60.3698 118.399 59.5858 118.399 58.7324C118.399 57.8684 118.217 57.0844 117.855 56.3804C117.492 55.6658 116.985 55.1004 116.335 54.6844C115.695 54.2684 114.964 54.0604 114.143 54.0604C113.321 54.0604 112.569 54.2738 111.887 54.7004C111.215 55.1164 110.676 55.6764 110.271 56.3804C109.876 57.0844 109.679 57.8684 109.679 58.7324C109.679 59.5964 109.881 60.3804 110.287 61.0844C110.692 61.7884 111.231 62.3484 111.903 62.7644C112.585 63.1804 113.332 63.3884 114.143 63.3884Z" fill="#4C4C62"/>
<path d="M131.203 67.0204C130.371 66.9671 129.565 66.8018 128.787 66.5244C128.019 66.2364 127.336 65.8471 126.739 65.3564C126.141 64.8658 125.683 64.2791 125.363 63.5964L128.659 62.1884C128.787 62.4018 128.995 62.6311 129.283 62.8764C129.571 63.1111 129.912 63.3084 130.307 63.4684C130.712 63.6284 131.155 63.7084 131.635 63.7084C132.04 63.7084 132.424 63.6551 132.787 63.5484C133.16 63.4311 133.459 63.2551 133.683 63.0204C133.917 62.7858 134.035 62.4818 134.035 62.1084C134.035 61.7138 133.896 61.4098 133.619 61.1964C133.352 60.9724 133.011 60.8071 132.595 60.7004C132.189 60.5831 131.795 60.4764 131.411 60.3804C130.397 60.1778 129.453 59.8631 128.579 59.4364C127.715 59.0098 127.016 58.4604 126.483 57.7884C125.96 57.1058 125.699 56.2844 125.699 55.3244C125.699 54.2684 125.976 53.3564 126.531 52.5884C127.096 51.8204 127.827 51.2284 128.723 50.8124C129.629 50.3964 130.605 50.1884 131.651 50.1884C132.92 50.1884 134.083 50.4551 135.139 50.9884C136.205 51.5111 137.048 52.2524 137.667 53.2124L134.579 55.0364C134.429 54.7804 134.221 54.5458 133.955 54.3324C133.688 54.1084 133.384 53.9271 133.043 53.7884C132.701 53.6391 132.344 53.5538 131.971 53.5324C131.491 53.5111 131.053 53.5538 130.659 53.6604C130.264 53.7671 129.944 53.9484 129.699 54.2044C129.464 54.4604 129.347 54.8018 129.347 55.2284C129.347 55.6338 129.507 55.9378 129.827 56.1404C130.147 56.3324 130.531 56.4818 130.979 56.5884C131.437 56.6951 131.875 56.8124 132.291 56.9404C133.229 57.2498 134.109 57.6284 134.931 58.0764C135.763 58.5244 136.429 59.0738 136.931 59.7244C137.432 60.3751 137.672 61.1538 137.651 62.0604C137.651 63.0951 137.341 64.0018 136.723 64.7804C136.104 65.5484 135.304 66.1351 134.323 66.5404C133.352 66.9458 132.312 67.1058 131.203 67.0204Z" fill="#4C4C62"/>
<path d="M141.624 67.1484C141.069 67.1484 140.594 66.9564 140.2 66.5724C139.816 66.1778 139.624 65.6978 139.624 65.1324C139.624 64.5884 139.816 64.1191 140.2 63.7244C140.594 63.3298 141.069 63.1324 141.624 63.1324C142.178 63.1324 142.653 63.3298 143.048 63.7244C143.442 64.1191 143.64 64.5884 143.64 65.1324C143.64 65.6978 143.442 66.1778 143.048 66.5724C142.653 66.9564 142.178 67.1484 141.624 67.1484Z" fill="#4C4C62"/>
<path d="M156.059 54.6364H152.955V66.7324H149.051V54.6364H146.683V50.7324H149.051V45.7084H152.955V50.7324H156.059V54.6364Z" fill="#4C4C62"/>
<path d="M158.311 66.7324L164.167 58.7004L158.359 50.7164H163.175L166.567 55.3724L169.975 50.7164H174.791L168.983 58.7004L174.839 66.7324H170.023L166.567 61.9964L163.127 66.7324H158.311Z" fill="#4C4C62"/>
<path d="M186.621 54.6364H183.517V66.7324H179.613V54.6364H177.245V50.7324H179.613V45.7084H183.517V50.7324H186.621V54.6364Z" fill="#4C4C62"/>
</g>
</g>
<rect x="31" y="233.732" width="270" height="10" fill="#4C4C62"/>
<rect x="242.207" y="21.0801" width="34.5862" height="22.3793" fill="white"/>
<path d="M259.5 4.30273L237.375 12.3493V30.2341C237.375 50.4433 258.844 55.9403 259.06 55.9944L259.5 56.1006L259.939 55.9944C260.155 55.9403 281.625 50.4433 281.625 30.2341V12.3493L259.5 4.30273ZM255.812 40.2162L247.133 31.5377L249.741 28.9305L255.812 35.0019L269.258 21.5555L271.866 24.1627L255.812 40.2162Z" fill="#1EE5CE"/>
<defs>
<filter id="filter0_d_448_25030" x="52" y="5.73242" width="228" height="249" filterUnits="userSpaceOnUse" color-interpolation-filters="sRGB">
<feFlood flood-opacity="0" result="BackgroundImageFix"/>
<feColorMatrix in="SourceAlpha" type="matrix" values="0 0 0 0 0 0 0 0 0 0 0 0 0 0 0 0 0 0 127 0" result="hardAlpha"/>
<feOffset/>
<feGaussianBlur stdDeviation="10"/>
<feComposite in2="hardAlpha" operator="out"/>
<feColorMatrix type="matrix" values="0 0 0 0 0 0 0 0 0 0 0 0 0 0 0 0 0 0 0.1 0"/>
<feBlend mode="normal" in2="BackgroundImageFix" result="effect1_dropShadow_448_25030"/>
<feBlend mode="normal" in="SourceGraphic" in2="effect1_dropShadow_448_25030" result="shape"/>
</filter>
<clipPath id="clip0_448_25030">
<rect x="30" y="74.7324" width="271" height="164" rx="6.67185" fill="white"/>
</clipPath>
<clipPath id="clip1_448_25030">
<path d="M72 32.4043C72 28.7195 74.9871 25.7324 78.6719 25.7324H253.328C257.013 25.7324 260 28.7195 260 32.4043V234.732H72V32.4043Z" fill="white"/>
</clipPath>
</defs>
</svg>
