<svg xmlns="http://www.w3.org/2000/svg" xmlns:xlink="http://www.w3.org/1999/xlink" viewBox="0 0 354 207.43"><defs><style>.cls-1{fill:none;}.cls-2{isolation:isolate;}.cls-3{clip-path:url(#clip-path);}.cls-30,.cls-35,.cls-4{fill:#fff;}.cls-5{fill:#f5f5f5;}.cls-6{clip-path:url(#clip-path-2);}.cls-7{fill:#3a78dd;}.cls-8{fill:#1ee5ce;fill-rule:evenodd;}.cls-9{clip-path:url(#clip-path-3);}.cls-10{fill:#3a3a3a;}.cls-11{fill:#a5a5a5;}.cls-12{clip-path:url(#clip-path-4);}.cls-13{fill:#bfbfbf;}.cls-14{fill:#b2b2b2;}.cls-15{clip-path:url(#clip-path-5);}.cls-16{clip-path:url(#clip-path-6);}.cls-17{clip-path:url(#clip-path-7);}.cls-18{fill:#2d2d3a;}.cls-19{clip-path:url(#clip-path-8);}.cls-20{clip-path:url(#clip-path-9);}.cls-21{clip-path:url(#clip-path-10);}.cls-22{clip-path:url(#clip-path-11);}.cls-23{fill:#4c4c62;}.cls-24{font-size:2.2px;letter-spacing:-0.03em;}.cls-24,.cls-29,.cls-34,.cls-39{fill:#8d19e0;}.cls-24,.cls-29,.cls-34{font-family:Code-Pro-LC, Code Pro LC;}.cls-25{fill:url(#Безымянный_градиент_32);}.cls-26,.cls-28,.cls-33,.cls-38,.cls-42,.cls-45,.cls-48{mix-blend-mode:multiply;}.cls-27{fill:url(#linear-gradient);}.cls-28{fill:url(#linear-gradient-2);}.cls-29{font-size:1.72px;letter-spacing:-0.03em;}.cls-30{letter-spacing:-0.03em;}.cls-31{fill:url(#Безымянный_градиент_32-2);}.cls-32{fill:url(#linear-gradient-3);}.cls-33{fill:url(#linear-gradient-4);}.cls-34{font-size:1.25px;letter-spacing:-0.03em;}.cls-35{letter-spacing:-0.03em;}.cls-36{fill:url(#Безымянный_градиент_32-3);}.cls-37{fill:url(#linear-gradient-5);}.cls-38{fill:url(#linear-gradient-6);}.cls-40{fill:url(#Безымянный_градиент_32-4);}.cls-41{fill:url(#linear-gradient-7);}.cls-42{fill:url(#linear-gradient-8);}.cls-43{fill:url(#Безымянный_градиент_32-5);}.cls-44{fill:url(#linear-gradient-9);}.cls-45{fill:url(#linear-gradient-10);}.cls-46{fill:url(#Безымянный_градиент_32-6);}.cls-47{fill:url(#linear-gradient-11);}.cls-48{fill:url(#linear-gradient-12);}</style><clipPath id="clip-path"><path class="cls-1" d="M43.56,23.56H251a5.36,5.36,0,0,1,5.4,5.34v123a5.38,5.38,0,0,1-5.4,5.4H43.56a5.38,5.38,0,0,1-5.4-5.4V28.9C38.16,26,40.56,16,43.56,16Z"/></clipPath><clipPath id="clip-path-2"><rect class="cls-1" x="46.74" y="68.88" width="132.78" height="81"/></clipPath><clipPath id="clip-path-3"><rect class="cls-1" x="13.74" y="21.66" width="268.2" height="151.44"/></clipPath><clipPath id="clip-path-4"><rect class="cls-1" x="198.12" y="78.18" width="144.96" height="102.66"/></clipPath><clipPath id="clip-path-5"><rect class="cls-1" x="225.3" y="102.3" width="91.2" height="54.54"/></clipPath><clipPath id="clip-path-6"><rect class="cls-1" x="312.72" y="153.54" width="2.34" height="2.4"/></clipPath><clipPath id="clip-path-7"><rect class="cls-1" x="192.84" y="72.12" width="155.52" height="113.82"/></clipPath><clipPath id="clip-path-8"><rect class="cls-1" x="172.02" y="96.66" width="46.5" height="102.72"/></clipPath><clipPath id="clip-path-9"><rect class="cls-1" x="172.02" y="167.64" width="46.68" height="31.8"/></clipPath><clipPath id="clip-path-10"><rect class="cls-1" x="212.58" y="196.92" width="1.98" height="1.98"/></clipPath><clipPath id="clip-path-11"><rect class="cls-1" x="169.26" y="94.08" width="51.78" height="108.3"/></clipPath><linearGradient id="Безымянный_градиент_32" x1="167.65" y1="72.29" x2="165.08" y2="69.72" gradientUnits="userSpaceOnUse"><stop offset="0" stop-color="#aa2afc"/><stop offset="1" stop-color="#5f009e"/></linearGradient><linearGradient id="linear-gradient" x1="167.11" y1="71.61" x2="166.49" y2="71.25" gradientUnits="userSpaceOnUse"><stop offset="0" stop-color="#0d2b85"/><stop offset="1" stop-color="#fff"/></linearGradient><linearGradient id="linear-gradient-2" x1="166.13" y1="72.11" x2="165.51" y2="71.53" xlink:href="#linear-gradient"/><linearGradient id="Безымянный_градиент_32-2" x1="228.28" y1="105.04" x2="226.26" y2="103.01" xlink:href="#Безымянный_градиент_32"/><linearGradient id="linear-gradient-3" x1="227.86" y1="104.5" x2="227.37" y2="104.22" xlink:href="#linear-gradient"/><linearGradient id="linear-gradient-4" x1="227.09" y1="104.89" x2="226.6" y2="104.44" xlink:href="#linear-gradient"/><linearGradient id="Безымянный_градиент_32-3" x1="174.25" y1="169.82" x2="172.78" y2="168.36" xlink:href="#Безымянный_градиент_32"/><linearGradient id="linear-gradient-5" x1="173.94" y1="169.43" x2="173.59" y2="169.23" xlink:href="#linear-gradient"/><linearGradient id="linear-gradient-6" x1="173.38" y1="169.72" x2="173.03" y2="169.39" xlink:href="#linear-gradient"/><linearGradient id="Безымянный_градиент_32-4" x1="79.35" y1="116.75" x2="58.73" y2="96.13" xlink:href="#Безымянный_градиент_32"/><linearGradient id="linear-gradient-7" x1="75.04" y1="111.28" x2="70.05" y2="108.42" xlink:href="#linear-gradient"/><linearGradient id="linear-gradient-8" x1="67.17" y1="115.27" x2="62.24" y2="110.63" xlink:href="#linear-gradient"/><linearGradient id="Безымянный_градиент_32-5" x1="247.45" y1="135.12" x2="232.63" y2="120.3" xlink:href="#Безымянный_градиент_32"/><linearGradient id="linear-gradient-9" x1="244.35" y1="131.19" x2="240.77" y2="129.13" xlink:href="#linear-gradient"/><linearGradient id="linear-gradient-10" x1="238.69" y1="134.06" x2="235.15" y2="130.72" xlink:href="#linear-gradient"/><linearGradient id="Безымянный_градиент_32-6" x1="182.69" y1="186.36" x2="174.9" y2="178.57" xlink:href="#Безымянный_градиент_32"/><linearGradient id="linear-gradient-11" x1="181.06" y1="184.3" x2="179.18" y2="183.22" xlink:href="#linear-gradient"/><linearGradient id="linear-gradient-12" x1="178.09" y1="185.81" x2="176.22" y2="184.05" xlink:href="#linear-gradient"/></defs><title>advertisers-features-5 21.38.43_vv</title><g class="cls-2"><g id="Слой_1" data-name="Слой 1"><g class="cls-3"><rect class="cls-4" x="38.1" y="15.9" width="218.28" height="403.26"/><path class="cls-5" d="M47.52,24.48H178.8a.82.82,0,0,1,.84.84v3.42a.82.82,0,0,1-.84.84H47.52a.86.86,0,0,1-.84-.84V25.32a.86.86,0,0,1,.84-.84Z"/><path class="cls-5" d="M183.9,24.48H247a.86.86,0,0,1,.84.84v3.42a.86.86,0,0,1-.84.84H183.9a.82.82,0,0,1-.84-.84V25.32a.82.82,0,0,1,.84-.84Z"/><path class="cls-5" d="M183.9,121.62H247a.9.9,0,0,1,.84.84v3.42a.86.86,0,0,1-.84.84H183.9a.82.82,0,0,1-.84-.84v-3.42a.86.86,0,0,1,.84-.84Z"/><path class="cls-5" d="M183.9,32.16H247a.86.86,0,0,1,.84.84v3.42a.9.9,0,0,1-.84.84H183.9a.86.86,0,0,1-.84-.84V33a.82.82,0,0,1,.84-.84Z"/><path class="cls-5" d="M183.9,129.3H247a.86.86,0,0,1,.84.84v3.42a.86.86,0,0,1-.84.84H183.9a.82.82,0,0,1-.84-.84v-3.42a.82.82,0,0,1,.84-.84Z"/><path class="cls-5" d="M183.9,39.78H247a.91.91,0,0,1,.84.9V44a.91.91,0,0,1-.84.9H183.9a.87.87,0,0,1-.84-.9V40.68a.87.87,0,0,1,.84-.9Z"/><path class="cls-5" d="M183.9,137H247a.86.86,0,0,1,.84.84v3.42a.86.86,0,0,1-.84.84H183.9a.82.82,0,0,1-.84-.84v-3.42a.82.82,0,0,1,.84-.84Z"/><path class="cls-5" d="M183.9,47.46H247a.9.9,0,0,1,.84.84v3.42a.91.91,0,0,1-.84.9H183.9a.87.87,0,0,1-.84-.9V48.3a.86.86,0,0,1,.84-.84Z"/><path class="cls-5" d="M183.9,144.66H247a.86.86,0,0,1,.84.84v3.42a.86.86,0,0,1-.84.84H183.9a.82.82,0,0,1-.84-.84V145.5a.82.82,0,0,1,.84-.84Z"/><path class="cls-5" d="M183.9,55.14H247a.86.86,0,0,1,.84.84V59.4a.86.86,0,0,1-.84.84H183.9a.82.82,0,0,1-.84-.84V56a.82.82,0,0,1,.84-.84Z"/><path class="cls-5" d="M183.9,152.34H247a.86.86,0,0,1,.84.84v3.42a.9.9,0,0,1-.84.84H183.9a.86.86,0,0,1-.84-.84v-3.42a.82.82,0,0,1,.84-.84Z"/><path class="cls-5" d="M183.9,62.82H247a.86.86,0,0,1,.84.84v3.42a.86.86,0,0,1-.84.84H183.9a.82.82,0,0,1-.84-.84V63.66a.82.82,0,0,1,.84-.84Z"/><path class="cls-5" d="M183.9,73H247a.91.91,0,0,1,.84.9v41.76a.86.86,0,0,1-.84.84H183.9a.82.82,0,0,1-.84-.84V73.92a.87.87,0,0,1,.84-.9Z"/><path class="cls-5" d="M47.52,32.16H178.8a.82.82,0,0,1,.84.84v3.42a.86.86,0,0,1-.84.84H47.52a.9.9,0,0,1-.84-.84V33a.86.86,0,0,1,.84-.84Z"/><path class="cls-5" d="M47.52,39.78H178.8a.87.87,0,0,1,.84.9V44a.87.87,0,0,1-.84.9H47.52a.91.91,0,0,1-.84-.9V40.68a.91.91,0,0,1,.84-.9Z"/><path class="cls-5" d="M47.52,47.46H178.8a.86.86,0,0,1,.84.84v3.42a.87.87,0,0,1-.84.9H47.52a.91.91,0,0,1-.84-.9V48.3a.9.9,0,0,1,.84-.84Z"/><path class="cls-5" d="M47.52,55.14H178.8a.82.82,0,0,1,.84.84V59.4a.82.82,0,0,1-.84.84H47.52a.86.86,0,0,1-.84-.84V56a.86.86,0,0,1,.84-.84Z"/><path class="cls-5" d="M47.52,62.82h63.12a.82.82,0,0,1,.84.84v3.42a.82.82,0,0,1-.84.84H47.52a.86.86,0,0,1-.84-.84V63.66a.86.86,0,0,1,.84-.84Z"/><path class="cls-5" d="M47.52,152.34H178.8a.82.82,0,0,1,.84.84v3.42a.82.82,0,0,1-.84.84H47.52a.86.86,0,0,1-.84-.84v-3.42a.86.86,0,0,1,.84-.84Z"/></g><g class="cls-6"><rect x="46.74" y="74.16" width="132.78" height="75.72"/><rect class="cls-7" x="46.74" y="81.48" width="133.26" height="60.36"/><path class="cls-4" d="M172.2,144.3a.12.12,0,0,0,0,.24l.66.66-.06.06h-.54a.16.16,0,0,0-.18.18v.72a.19.19,0,0,0,.18.18h.54l.6.6a.18.18,0,0,0,.3-.12V146l.72.78a.45.45,0,0,1-.24.12c-.12.06-.12.12-.12.18s.12.24.24.18a1.5,1.5,0,0,0,.42-.24l.24.24a.17.17,0,1,0,.24-.24l-2.76-2.76a.13.13,0,0,0-.24,0Zm2.76,1.5c0,.12-.06.3-.06.42l.24.24a1.21,1.21,0,0,0,.18-.66,1.5,1.5,0,0,0-1.08-1.5c-.06-.06-.18,0-.18.12v.06a.13.13,0,0,0,.12.12,1.35,1.35,0,0,1,.78,1.2Zm-1.56-1.14h-.06l.36.36v-.24a.17.17,0,0,0-.3-.12Zm1.08,1.14a.76.76,0,0,0-.42-.72v.3l.42.48v-.06Z"/><path class="cls-8" d="M46.5,148.86H91.62a.34.34,0,0,1,.3.36.28.28,0,0,1-.3.3H46.5Z"/><path d="M163.74,70.62a1.74,1.74,0,0,1,1.74-1.74h12.3a1.74,1.74,0,0,1,1.74,1.74v4.26H163.74Z"/></g><g class="cls-9"><path d="M255.9,21.66H39.72A8.81,8.81,0,0,0,31,30.42V153a8.66,8.66,0,0,0,2.58,6.24,8.77,8.77,0,0,0,6.18,2.58H255.9a9,9,0,0,0,6.24-2.58,8.91,8.91,0,0,0,2.58-6.24V30.42a8.52,8.52,0,0,0-2.58-6.18,8.76,8.76,0,0,0-6.24-2.58ZM39.54,153.6V29.88H256.08V153.6Z"/><path class="cls-10" d="M13.74,161.76v5.34c0,3.3,5.4,6,12,6H269.88c6.66,0,12.06-2.7,12.06-6v-5.34Z"/><path class="cls-11" d="M133,161.82v.78c0,.48.6.84,1.32.84h27c.72,0,1.32-.36,1.32-.84v-.78Z"/></g><g class="cls-12"><rect class="cls-13" x="198.12" y="78.18" width="144.96" height="102.66"/><path class="cls-14" d="M213.48,76.32H326.64a.76.76,0,0,1,.78.78v3.12a.79.79,0,0,1-.78.78H213.48a.81.81,0,0,1-.84-.78V77.1a.77.77,0,0,1,.84-.78Z"/><path class="cls-14" d="M213.48,83.4H326.64a.79.79,0,0,1,.78.78V87.3a.76.76,0,0,1-.78.78H213.48a.77.77,0,0,1-.84-.78V84.18a.81.81,0,0,1,.84-.78Z"/><path class="cls-14" d="M213.48,99.42H326.64a.79.79,0,0,1,.78.78v3.18a.79.79,0,0,1-.78.78H213.48a.81.81,0,0,1-.84-.78V100.2a.81.81,0,0,1,.84-.78Z"/><path class="cls-14" d="M213.48,106.5H326.64a.79.79,0,0,1,.78.78v3.18a.79.79,0,0,1-.78.78H213.48a.81.81,0,0,1-.84-.78v-3.18a.81.81,0,0,1,.84-.78Z"/><path class="cls-14" d="M213.48,113.58H326.64a.79.79,0,0,1,.78.78v3.18a.79.79,0,0,1-.78.78H213.48a.81.81,0,0,1-.84-.78v-3.18a.81.81,0,0,1,.84-.78Z"/><path class="cls-14" d="M213.48,120.66H326.64a.81.81,0,0,1,.78.84v3.12a.79.79,0,0,1-.78.78H213.48a.81.81,0,0,1-.84-.78V121.5a.82.82,0,0,1,.84-.84Z"/><path class="cls-14" d="M213.48,127.8H326.64a.76.76,0,0,1,.78.78v3.12a.79.79,0,0,1-.78.78H213.48a.81.81,0,0,1-.84-.78v-3.12a.77.77,0,0,1,.84-.78Z"/><path class="cls-14" d="M213.48,134.88H326.64a.76.76,0,0,1,.78.78v3.12a.79.79,0,0,1-.78.78H213.48a.81.81,0,0,1-.84-.78v-3.12a.77.77,0,0,1,.84-.78Z"/><path class="cls-14" d="M213.48,90.48H267.6a.79.79,0,0,1,.78.78v3.12a.76.76,0,0,1-.78.78H213.48a.77.77,0,0,1-.84-.78V91.26a.81.81,0,0,1,.84-.78Z"/><path class="cls-14" d="M213.48,146.16H267.6a.81.81,0,0,1,.78.84v3.12a.79.79,0,0,1-.78.78H213.48a.81.81,0,0,1-.84-.78V147a.82.82,0,0,1,.84-.84Z"/><path class="cls-14" d="M213.48,153.3H326.64a.76.76,0,0,1,.78.78v53.64a.76.76,0,0,1-.78.78H213.48a.77.77,0,0,1-.84-.78V154.08a.77.77,0,0,1,.84-.78Z"/></g><g class="cls-15"><rect x="225.3" y="106.8" width="91.2" height="50.04"/><rect class="cls-7" x="225.3" y="111.12" width="91.2" height="41.58"/><path d="M225.3,103.26a1,1,0,0,1,1-1h10.38a1,1,0,0,1,1,1v3.66H225.3Z"/><path class="cls-8" d="M225.3,156.48h35.82a.19.19,0,0,1,.18.18.16.16,0,0,1-.18.18H225.3Z"/><path d="M312,103.26a1,1,0,0,1,1-1h2.58a1,1,0,0,1,1,1v3.54H312Z"/><path class="cls-4" d="M315.06,103.74a.11.11,0,0,0-.18,0l-.6.66-.66-.66a.13.13,0,0,0-.18.18l.66.66-.66.6a.13.13,0,0,0,.18.18l.66-.6.6.6a.13.13,0,0,0,.18-.18l-.6-.6.6-.66a.11.11,0,0,0,0-.18Z"/></g><g class="cls-16"><path class="cls-4" d="M313,153.84V154l.36.36h-.3a.13.13,0,0,0-.12.12v.36a.13.13,0,0,0,.12.12h.3l.3.36c.06.06.18,0,.18-.12v-.42l.42.42c-.06.06-.12.12-.18.12l-.06.06c0,.12.12.12.18.12s.12-.06.18-.12l.18.12c0,.06.06.06.12,0s.06-.12,0-.12l-1.5-1.56Zm1.56.84c0,.06-.06.18-.06.24l.18.18c0-.12.06-.3.06-.42a.9.9,0,0,0-.6-.84.13.13,0,0,0-.12.12h0a.06.06,0,0,0,.06.06.7.7,0,0,1,.48.66Zm-.9-.6h0l.18.18v-.12c0-.12-.12-.12-.18-.06Zm.66.6c0-.18-.12-.3-.3-.42v.18l.3.3v-.06Z"/></g><g class="cls-17"><path class="cls-18" d="M211.38,73.08v.24H204.6c-5.94,0-10.74,4.56-10.74,10.14V153.9h-.18a.45.45,0,0,0-.3.06.79.79,0,0,0-.3.18.83.83,0,0,0-.18.24,2.6,2.6,0,0,0-.06.3v10.5a2.13,2.13,0,0,0,.24.54,1,1,0,0,0,.6.18h.18v10c0,5.58,4.8,10.08,10.74,10.08h133c5.94,0,10.8-4.5,10.8-10.08V83.4c0-5.58-4.86-10.08-10.8-10.08H232.68v-.24c0-.12,0-.3-.06-.36a1.25,1.25,0,0,0-.24-.36,1.3,1.3,0,0,0-.3-.18.89.89,0,0,0-.42-.06H212.34a.76.76,0,0,0-.36.06,1.3,1.3,0,0,0-.3.18,1.25,1.25,0,0,0-.24.36.76.76,0,0,0-.06.36Zm131.34,99.84a6.81,6.81,0,0,1-6.78,6.78H205.32a5.29,5.29,0,0,1-5.28-5.28V83.82a5.25,5.25,0,0,1,5.28-5.28H335.94a6.81,6.81,0,0,1,6.78,6.78Z"/></g><g class="cls-19"><rect class="cls-4" x="172.02" y="96.54" width="46.5" height="300.84"/><path class="cls-5" d="M174.66,102.6h41.22a.79.79,0,0,1,.78.78v3.12a.79.79,0,0,1-.78.78H174.66a.76.76,0,0,1-.78-.78v-3.12a.76.76,0,0,1,.78-.78Z"/><path class="cls-5" d="M174.66,109.56h41.22a.79.79,0,0,1,.78.78v3.12a.79.79,0,0,1-.78.78H174.66a.76.76,0,0,1-.78-.78v-3.12a.76.76,0,0,1,.78-.78Z"/><path class="cls-5" d="M174.66,116.52h41.22a.79.79,0,0,1,.78.78v3.12a.79.79,0,0,1-.78.78H174.66a.76.76,0,0,1-.78-.78V117.3a.76.76,0,0,1,.78-.78Z"/><path class="cls-5" d="M174.66,123.54h41.22a.79.79,0,0,1,.78.78v3.06a.79.79,0,0,1-.78.78H174.66a.76.76,0,0,1-.78-.78v-3.06a.76.76,0,0,1,.78-.78Z"/><path class="cls-5" d="M174.66,130.5h41.22a.79.79,0,0,1,.78.78v3.12a.79.79,0,0,1-.78.78H174.66a.76.76,0,0,1-.78-.78v-3.12a.76.76,0,0,1,.78-.78Z"/><path class="cls-5" d="M174.66,146.28h41.22a.79.79,0,0,1,.78.78v3.12a.79.79,0,0,1-.78.78H174.66a.76.76,0,0,1-.78-.78v-3.12a.76.76,0,0,1,.78-.78Z"/><path class="cls-5" d="M174.66,153.3h41.22a.76.76,0,0,1,.78.78v3.06a.79.79,0,0,1-.78.78H174.66a.76.76,0,0,1-.78-.78v-3.06a.72.72,0,0,1,.78-.78Z"/><path class="cls-5" d="M174.66,160.26h41.22a.79.79,0,0,1,.78.78v3.12a.74.74,0,0,1-.78.72H174.66a.71.71,0,0,1-.78-.72V161a.76.76,0,0,1,.78-.78Z"/><path class="cls-5" d="M174.66,167.22h41.22a.79.79,0,0,1,.78.78v3.12a.79.79,0,0,1-.78.78H174.66a.76.76,0,0,1-.78-.78V168a.76.76,0,0,1,.78-.78Z"/><path class="cls-5" d="M174.66,174.18h41.22a.79.79,0,0,1,.78.78v3.12a.79.79,0,0,1-.78.78H174.66a.76.76,0,0,1-.78-.78V175a.76.76,0,0,1,.78-.78Z"/><path class="cls-5" d="M174.66,181.2h41.22a.76.76,0,0,1,.78.78V185a.79.79,0,0,1-.78.78H174.66a.76.76,0,0,1-.78-.78V182a.72.72,0,0,1,.78-.78Z"/><path class="cls-5" d="M174.66,137.46h24.48a.79.79,0,0,1,.78.78v3.12a.79.79,0,0,1-.78.78H174.66a.76.76,0,0,1-.78-.78v-3.12a.76.76,0,0,1,.78-.78Z"/><path class="cls-5" d="M174.66,192.36h24.48a.74.74,0,0,1,.78.72v3.12a.79.79,0,0,1-.78.78H174.66a.76.76,0,0,1-.78-.78v-3.12a.71.71,0,0,1,.78-.72Z"/><path class="cls-5" d="M174.66,199.32h41.22a.79.79,0,0,1,.78.78V253a.79.79,0,0,1-.78.78H174.66a.76.76,0,0,1-.78-.78V200.1a.76.76,0,0,1,.78-.78Z"/></g><g class="cls-20"><rect x="172.02" y="170.82" width="46.5" height="28.62"/><rect class="cls-7" x="172.02" y="173.94" width="46.5" height="22.38"/><path d="M172,168.66a.76.76,0,0,1,.78-.78h7.38a.81.81,0,0,1,.84.78v2.22h-9Z"/><path class="cls-8" d="M172,198.84h18.24a.13.13,0,0,1,.12.12c0,.06-.06.06-.12.06H172Z"/><path d="M215.4,168.48a.77.77,0,0,1,.78-.84h1.56a.81.81,0,0,1,.78.84v2.34H215.4Z"/><path class="cls-4" d="M217.5,168.66h-.12l-.42.48-.48-.48h-.12v.12l.48.48-.48.42v.12c.06.06.12.06.12,0l.48-.42.42.42c.06.06.12.06.12,0s.06-.12,0-.12l-.42-.42.42-.48c.06,0,.06-.06,0-.12Z"/></g><g class="cls-21"><path class="cls-4" d="M212.88,197.16c-.06.06-.06.12,0,.12l.24.3v.06h-.24c-.06,0-.06,0-.06.06v.36a.06.06,0,0,0,.06.06h.24l.3.24c0,.06.12.06.12-.06V198l.36.3c-.06.06-.12.06-.18.12v.06c0,.06.06.12.12.06s.12-.06.18-.12l.06.12c.06.06.12.06.12,0s.06-.06,0-.12l-1.26-1.26Zm1.2.72v.18l.12.12a.45.45,0,0,0,.06-.3.78.78,0,0,0-.48-.72.21.21,0,0,0-.06.12h0v.06a.52.52,0,0,1,.36.54Zm-.66-.54-.06.06.18.12v-.12c0-.06-.12-.12-.12-.06Zm.48.54a.36.36,0,0,0-.18-.36v.18l.18.18Z"/></g><g class="cls-22"><path class="cls-23" d="M220.2,97.08a6,6,0,0,0-1.86-2.16,4,4,0,0,0-2.4-.84H174.36a3.72,3.72,0,0,0-1.92.54,4.8,4.8,0,0,0-1.68,1.44,9.28,9.28,0,0,0-1.14,2.16,9.56,9.56,0,0,0-.36,2.58v94.86a7.84,7.84,0,0,0,1.5,4.74,4.63,4.63,0,0,0,3.6,2h41.58a4.54,4.54,0,0,0,3.6-2,7.84,7.84,0,0,0,1.5-4.74V100.8a8.47,8.47,0,0,0-.84-3.72ZM176.64,199.2a4.69,4.69,0,0,1-4.68-4.68V100.44a3.37,3.37,0,0,1,3.42-3.36h39.54a3.37,3.37,0,0,1,3.42,3.36v94.08a4.69,4.69,0,0,1-4.68,4.68Z"/></g><text class="cls-24" transform="translate(168.35 72.62)">v<tspan class="cls-4" x="1.14" y="0">ibe</tspan><tspan x="4.47" y="0">v</tspan><tspan class="cls-4" x="5.6" y="0">ideo</tspan></text><path class="cls-25" d="M167.84,70.9l-1,1.51h0l-.28.41a.32.32,0,0,1-.48,0h0l0,0-.11-.16-1.32-1.92h.15a1.46,1.46,0,0,1,1.21.64l.2.28.42-.64a.55.55,0,0,0,.09-.38c-.06-.4-.51-.5-.84-.5h1.61A.49.49,0,0,1,167.84,70.9Z"/><g class="cls-26"><path class="cls-27" d="M167.58,70.15l-1.66,2.5-1.32-1.92h.15a1.46,1.46,0,0,1,1.21.64l.2.28.49-.75c.15-.63-.43-.77-.83-.77h1.61Z"/></g><path class="cls-28" d="M166.16,71.65l-.46.68-1.1-1.6h.15a1.46,1.46,0,0,1,1.21.64Z"/><text class="cls-29" transform="translate(228.82 105.29)">v<tspan class="cls-30" x="0.89" y="0">ibe</tspan><tspan x="3.5" y="0">v</tspan><tspan class="cls-30" x="4.39" y="0">ideo</tspan></text><path class="cls-31" d="M228.43,103.94l-.79,1.18h0l-.22.32a.25.25,0,0,1-.38,0h0l0,0-.09-.13-1-1.51H226a1.15,1.15,0,0,1,.95.5l.16.22.33-.51a.43.43,0,0,0,.07-.3c0-.31-.4-.39-.66-.39h1.26A.39.39,0,0,1,228.43,103.94Z"/><g class="cls-26"><path class="cls-32" d="M228.23,103.36l-1.3,2-1-1.51H226a1.15,1.15,0,0,1,.95.5l.16.22.38-.59c.12-.5-.34-.61-.65-.61h1.26Z"/></g><path class="cls-33" d="M227.11,104.53l-.36.53-.86-1.25H226a1.15,1.15,0,0,1,.95.5Z"/><text class="cls-34" transform="translate(174.64 170.01)">v<tspan class="cls-35" x="0.65" y="0">ibe</tspan><tspan x="2.53" y="0">v</tspan><tspan class="cls-35" x="3.18" y="0">ideo</tspan></text><path class="cls-36" d="M174.35,169l-.57.85h0l-.16.23a.18.18,0,0,1-.27,0h0v0l-.06-.09-.75-1.09h.08a.83.83,0,0,1,.69.36l.12.16.24-.37a.31.31,0,0,0,0-.22c0-.23-.29-.28-.48-.28h.91A.28.28,0,0,1,174.35,169Z"/><g class="cls-26"><path class="cls-37" d="M174.21,168.61l-.94,1.42-.75-1.09h.08a.83.83,0,0,1,.69.36l.12.16.28-.42c.09-.36-.24-.44-.47-.44h1Z"/></g><path class="cls-38" d="M173.4,169.46l-.26.38-.62-.91h.08a.83.83,0,0,1,.69.36Z"/><path class="cls-39" d="M90.89,113.76l1.55-3.91h1.83l-3.86,9.6H89l-3.87-9.6H87l1.57,3.87,1.16,3.35Z"/><path class="cls-4" d="M97.37,107.4a1.08,1.08,0,0,1-2.15,0A1.08,1.08,0,0,1,97.37,107.4Zm-.21,2.34H95.43v9.63h1.73Z"/><path class="cls-4" d="M101.27,111.08a3.68,3.68,0,0,1,3.2-1.39,4.92,4.92,0,0,1,0,9.84,3.78,3.78,0,0,1-3.17-1.44v1.29H99.55V107h1.73Zm3.1,6.92a3.41,3.41,0,1,0-3.1-3.4A3.18,3.18,0,0,0,104.37,118Z"/><path class="cls-4" d="M120.23,115h-8.06a3.18,3.18,0,0,0,3.21,3,3.07,3.07,0,0,0,2.83-1.58H120a4.94,4.94,0,1,1-4.6-6.73,4.67,4.67,0,0,1,4.88,4.49A2.57,2.57,0,0,1,120.23,115Zm-1.78-1.43a2.89,2.89,0,0,0-3.06-2.38,3,3,0,0,0-3.15,2.38Z"/><path class="cls-39" d="M126.64,113.76l1.55-3.91H130l-3.86,9.6h-1.37l-3.87-9.6h1.83l1.57,3.87,1.16,3.35Z"/><path class="cls-4" d="M133.12,107.4a1.08,1.08,0,0,1-2.15,0A1.08,1.08,0,0,1,133.12,107.4Zm-.21,2.34h-1.73v9.63h1.73Z"/><path class="cls-4" d="M142.89,107h1.73v12.33h-1.73v-1.29a3.79,3.79,0,0,1-3.19,1.44,4.92,4.92,0,1,1,0-9.84,3.68,3.68,0,0,1,3.21,1.39Zm-3.24,4.16a3.31,3.31,0,0,0-3.29,3.36,3.27,3.27,0,1,0,3.29-3.36Z"/><path class="cls-4" d="M156,115H148a3.18,3.18,0,0,0,3.2,3,3.07,3.07,0,0,0,2.84-1.58h1.78a4.94,4.94,0,1,1-4.6-6.73,4.67,4.67,0,0,1,4.88,4.49A2.57,2.57,0,0,1,156,115Zm-1.78-1.43a2.89,2.89,0,0,0-3.06-2.38A3,3,0,0,0,148,113.6Z"/><path class="cls-4" d="M162.48,119.55a4.93,4.93,0,1,1,5.16-4.93A4.84,4.84,0,0,1,162.48,119.55Zm0-1.55a3.39,3.39,0,1,0-3.38-3.38A3.27,3.27,0,0,0,162.48,118Z"/><path class="cls-40" d="M80.87,105.61l-8.06,12.06h0L70.58,121a2.53,2.53,0,0,1-3.86.38l-.11-.12a2.61,2.61,0,0,1-.2-.26l-.89-1.31-10.58-15.4h1.19a11.7,11.7,0,0,1,9.67,5.12l1.63,2.24,3.38-5.16a4.42,4.42,0,0,0,.69-3c-.45-3.19-4.11-4-6.76-4h12.9A4,4,0,0,1,80.87,105.61Z"/><g class="cls-26"><path class="cls-41" d="M78.8,99.62l-13.29,20-10.58-15.4h1.19a11.7,11.7,0,0,1,9.67,5.12l1.63,2.24,3.92-6c1.23-5.06-3.43-6.18-6.61-6.18h12.9A3.4,3.4,0,0,1,78.8,99.62Z"/></g><path class="cls-42" d="M67.41,111.6,63.72,117l-8.8-12.78h1.19a11.7,11.7,0,0,1,9.67,5.12Z"/><path class="cls-39" d="M255.75,133l1.11-2.81h1.32l-2.77,6.89h-1l-2.78-6.89h1.32l1.13,2.78.83,2.4Z"/><path class="cls-4" d="M260.4,128.41a.77.77,0,0,1-1.54,0A.77.77,0,0,1,260.4,128.41Zm-.15,1.68H259V137h1.24Z"/><path class="cls-4" d="M263.21,131a2.65,2.65,0,0,1,2.3-1,3.54,3.54,0,0,1,0,7.07,2.71,2.71,0,0,1-2.28-1V137H262v-8.85h1.24Zm2.23,5a2.45,2.45,0,1,0-2.23-2.44A2.28,2.28,0,0,0,265.44,136Z"/><path class="cls-4" d="M276.84,133.88H271a2.28,2.28,0,0,0,2.3,2.15,2.21,2.21,0,0,0,2-1.14h1.28a3.55,3.55,0,1,1-3.3-4.83,3.36,3.36,0,0,1,3.5,3.23A1.84,1.84,0,0,1,276.84,133.88Zm-1.28-1a2.08,2.08,0,0,0-2.2-1.71,2.15,2.15,0,0,0-2.26,1.71Z"/><path class="cls-39" d="M281.44,133l1.11-2.81h1.32l-2.77,6.89h-1l-2.78-6.89h1.32l1.13,2.78.83,2.4Z"/><path class="cls-4" d="M286.1,128.41a.77.77,0,0,1-1.54,0A.77.77,0,0,1,286.1,128.41Zm-.15,1.68h-1.24V137h1.24Z"/><path class="cls-4" d="M293.12,128.15h1.24V137h-1.24v-.92a2.72,2.72,0,0,1-2.29,1,3.54,3.54,0,1,1,0-7.07,2.65,2.65,0,0,1,2.3,1Zm-2.33,3a2.38,2.38,0,0,0-2.37,2.42,2.35,2.35,0,1,0,2.37-2.42Z"/><path class="cls-4" d="M302.57,133.88h-5.79a2.28,2.28,0,0,0,2.3,2.15,2.21,2.21,0,0,0,2-1.14h1.28a3.55,3.55,0,1,1-3.3-4.83,3.36,3.36,0,0,1,3.5,3.23A1.87,1.87,0,0,1,302.57,133.88Zm-1.28-1a2.08,2.08,0,0,0-2.2-1.71,2.15,2.15,0,0,0-2.26,1.71Z"/><path class="cls-4" d="M307.2,137.13a3.54,3.54,0,1,1,3.71-3.54A3.47,3.47,0,0,1,307.2,137.13Zm0-1.11a2.44,2.44,0,1,0-2.43-2.43A2.35,2.35,0,0,0,307.2,136Z"/><path class="cls-43" d="M248.55,127.11l-5.79,8.67h0l-1.61,2.36a1.82,1.82,0,0,1-2.78.27l-.08-.08-.14-.19-.64-.94-7.61-11.07h.85a8.41,8.41,0,0,1,7,3.68l1.17,1.61,2.43-3.71a3.18,3.18,0,0,0,.5-2.18c-.32-2.29-3-2.85-4.86-2.85h9.28A2.84,2.84,0,0,1,248.55,127.11Z"/><g class="cls-26"><path class="cls-44" d="M247.06,122.8l-9.56,14.4-7.61-11.07h.85a8.41,8.41,0,0,1,7,3.68l1.17,1.61,2.82-4.3c.88-3.64-2.47-4.44-4.75-4.44h9.28A2.45,2.45,0,0,1,247.06,122.8Z"/></g><path class="cls-45" d="M238.87,131.41l-2.65,3.9-6.32-9.18h.85a8.41,8.41,0,0,1,7,3.68Z"/><path class="cls-39" d="M187.05,185.24l.59-1.48h.69l-1.46,3.63h-.52l-1.46-3.63h.69l.59,1.46.44,1.26Z"/><path class="cls-4" d="M189.5,182.83a.41.41,0,0,1-.81,0A.41.41,0,0,1,189.5,182.83Zm-.08.88h-.65v3.64h.65Z"/><path class="cls-4" d="M191,184.22a1.39,1.39,0,0,1,1.21-.53,1.86,1.86,0,0,1,0,3.72,1.43,1.43,0,0,1-1.2-.54v.49h-.65V182.7H191Zm1.17,2.62a1.29,1.29,0,1,0-1.17-1.28A1.2,1.2,0,0,0,192.15,186.84Z"/><path class="cls-4" d="M198.14,185.71h-3a1.2,1.2,0,0,0,1.21,1.13,1.16,1.16,0,0,0,1.07-.6H198a1.87,1.87,0,1,1-1.74-2.54,1.77,1.77,0,0,1,1.84,1.7A1,1,0,0,1,198.14,185.71Zm-.67-.54a1.09,1.09,0,0,0-1.16-.9,1.13,1.13,0,0,0-1.19.9Z"/><path class="cls-39" d="M200.56,185.24l.59-1.48h.69l-1.46,3.63h-.52l-1.46-3.63h.69l.59,1.46.44,1.26Z"/><path class="cls-4" d="M203,182.83a.41.41,0,0,1-.81,0A.41.41,0,0,1,203,182.83Zm-.08.88h-.65v3.64h.65Z"/><path class="cls-4" d="M206.71,182.7h.65v4.66h-.65v-.49a1.43,1.43,0,0,1-1.2.54,1.86,1.86,0,1,1,0-3.72,1.39,1.39,0,0,1,1.21.53Zm-1.22,1.57a1.25,1.25,0,0,0-1.24,1.27,1.24,1.24,0,1,0,1.24-1.27Z"/><path class="cls-4" d="M211.68,185.71h-3a1.2,1.2,0,0,0,1.21,1.13,1.16,1.16,0,0,0,1.07-.6h.67a1.87,1.87,0,1,1-1.74-2.54,1.77,1.77,0,0,1,1.84,1.7A1,1,0,0,1,211.68,185.71Zm-.67-.54a1.09,1.09,0,0,0-1.16-.9,1.13,1.13,0,0,0-1.19.9Z"/><path class="cls-4" d="M214.11,187.42a1.86,1.86,0,1,1,1.95-1.86A1.83,1.83,0,0,1,214.11,187.42Zm0-.58a1.28,1.28,0,1,0-1.28-1.28A1.24,1.24,0,0,0,214.11,186.84Z"/><path class="cls-46" d="M183.27,182.15l-3,4.56h0l-.84,1.24a1,1,0,0,1-1.46.14l0,0-.08-.1-.34-.5-4-5.82h.45a4.42,4.42,0,0,1,3.66,1.93l.61.85,1.28-1.95a1.67,1.67,0,0,0,.26-1.15c-.17-1.2-1.55-1.5-2.55-1.5H182A1.49,1.49,0,0,1,183.27,182.15Z"/><g class="cls-26"><path class="cls-47" d="M182.48,179.89l-5,7.57-4-5.82h.45a4.42,4.42,0,0,1,3.66,1.93l.61.85,1.48-2.26c.47-1.91-1.3-2.34-2.5-2.34H182A1.29,1.29,0,0,1,182.48,179.89Z"/></g><path class="cls-48" d="M178.18,184.42l-1.39,2-3.32-4.83h.45a4.42,4.42,0,0,1,3.66,1.93Z"/></g></g></svg>