<svg width="115" height="87" viewBox="0 0 115 87" fill="none" xmlns="http://www.w3.org/2000/svg">
<rect y="34.0645" width="102" height="56" rx="10" transform="rotate(-19.5102 0 34.0645)" fill="#1EE5CE"/>
<path d="M37.8197 58.857L25.2013 45.3772L27.192 44.6719L37.8683 56.1917L38.8876 40.5279L40.8331 39.8386L39.4937 58.2638L37.8197 58.857ZM45.6642 56.0775L47.0488 37.6362L48.6323 37.0751L61.3186 50.5308L59.3957 51.2122L56.1885 47.7654L47.8862 50.707L47.5871 55.3962L45.6642 56.0775ZM48.5874 39.5354L48.0118 48.9057L54.9794 46.4369L48.6327 39.5194L48.5874 39.5354ZM68.7804 48.1162C67.5286 48.5597 66.3414 48.8021 65.2187 48.8434C64.0907 48.8696 63.0477 48.7045 62.0896 48.348L62.2166 46.6225C63.1942 46.9382 64.156 47.0896 65.1021 47.0769C66.0482 47.0642 67.0792 46.8602 68.1952 46.4648C69.5526 45.9838 70.4673 45.3796 70.9395 44.6522C71.4213 43.9043 71.5153 43.1156 71.2214 42.2862C70.9863 41.6226 70.558 41.1802 69.9365 40.9591C69.33 40.7326 68.4287 40.704 67.2325 40.8732L64.7115 41.2318C63.187 41.4324 61.9501 41.319 61.0008 40.8915C60.0613 40.4436 59.3884 39.6465 58.9823 38.5003C58.6457 37.5502 58.5931 36.6352 58.8245 35.7554C59.0711 34.8703 59.5622 34.0767 60.298 33.3746C61.0338 32.6726 61.9748 32.1185 63.121 31.7124C64.1917 31.333 65.2486 31.1538 66.2914 31.1747C67.3289 31.1805 68.2766 31.3879 69.1345 31.7969L68.9914 33.4771C68.0937 33.0993 67.2197 32.9082 66.3694 32.9039C65.5138 32.8845 64.6185 33.0405 63.6835 33.3718C62.492 33.794 61.6408 34.4096 61.1297 35.2188C60.6132 36.0128 60.5153 36.8623 60.8359 37.7672C61.0924 38.4911 61.5141 38.9867 62.1011 39.254C62.7032 39.516 63.5442 39.566 64.6241 39.404L67.1531 39.0681C68.7885 38.8451 70.0831 38.9296 71.0368 39.3216C72.0002 39.6932 72.6769 40.4295 73.067 41.5304C73.3823 42.4202 73.4188 43.2899 73.1767 44.1396C72.9496 44.9839 72.458 45.7522 71.7018 46.4445C70.9607 47.1315 69.9869 47.6887 68.7804 48.1162ZM81.0505 43.5395L75.9687 29.1972L70.1775 31.2491L69.6084 29.6429L83.0684 24.8738L83.6375 26.4799L77.8463 28.5319L82.9281 42.8742L81.0505 43.5395Z" fill="white"/>
</svg>
