<svg width="91" height="36" viewBox="0 0 91 36" fill="none" xmlns="http://www.w3.org/2000/svg">
<g clip-path="url(#clip0_649_589)">
<path d="M5.62419 5.60844V9.5124H10.4743V13.0914H5.62419V26.7147H2.04516V13.0914H0V9.5124H2.04516V5.60844C2.03533 4.70473 2.2733 3.81561 2.73325 3.03765C3.18185 2.27361 3.81845 1.63701 4.58249 1.18841C5.36549 0.727973 6.25933 0.490055 7.16761 0.500319C7.85891 0.501432 8.54297 0.641168 9.17932 0.911262C9.85435 1.20062 10.4566 1.6364 10.9426 2.1871L8.37655 4.71487C8.25202 4.50747 8.06922 4.34129 7.85092 4.23703C7.56382 4.09298 7.23873 4.0427 6.92152 4.09328C6.60431 4.14387 6.31098 4.29276 6.08291 4.51896C5.93483 4.65862 5.81753 4.82767 5.73854 5.01527C5.65955 5.20288 5.6206 5.40491 5.62419 5.60844Z" fill="white"/>
<path d="M13.5371 26.7145V0.911133H17.1161V26.7145H13.5371Z" fill="white"/>
<path d="M32.0826 9.5127H35.9053L26.4775 35.3161H22.6739L25.7846 26.715L19.5918 9.5127H23.4958L27.5574 21.8123L32.0826 9.5127Z" fill="#1EE5CE"/>
<path d="M51.2624 9.51243H54.8415V26.7147H51.2433L51.1287 24.2204C50.6372 25.0929 49.9339 25.8275 49.0835 26.3563C48.1601 26.9155 47.0948 27.196 46.0158 27.1639C44.793 27.1712 43.5817 26.9289 42.4558 26.4519C40.2443 25.5081 38.4862 23.7415 37.5532 21.5254C37.0768 20.3961 36.8362 19.1814 36.846 17.9559C36.8408 16.7842 37.0679 15.6231 37.514 14.5396C37.9602 13.4562 38.6167 12.4719 39.4454 11.6436C40.2581 10.8322 41.2182 10.1834 42.2743 9.73224C43.3642 9.26599 44.5388 9.0301 45.7243 9.03937C46.8849 9.01606 48.0299 9.31016 49.0357 9.88993C49.9761 10.4387 50.7902 11.1795 51.4249 12.0641L51.2624 9.51243ZM45.9297 23.7043C46.8667 23.7249 47.7885 23.4654 48.577 22.9589C49.3368 22.4571 49.9462 21.7585 50.3402 20.9376C50.7588 20.0525 50.9759 19.0855 50.9759 18.1064C50.9759 17.1273 50.7588 16.1603 50.3402 15.2752C49.9434 14.4576 49.3365 13.7601 48.5818 13.2539C47.795 12.7476 46.8747 12.488 45.9393 12.5085C44.9741 12.5001 44.0258 12.7616 43.2013 13.2635C42.3724 13.7703 41.6896 14.4838 41.2196 15.3341C40.7497 16.1843 40.5088 17.1421 40.5206 18.1136C40.5073 19.1082 40.765 20.0878 41.266 20.9472C41.7478 21.7687 42.4238 22.4595 43.2347 22.9589C44.0463 23.4529 44.9796 23.7111 45.9297 23.7043Z" fill="white"/>
<path d="M71.3369 0.911133H74.916V26.7145H71.3369V24.1868C70.7846 25.0714 70.0295 25.8118 69.1341 26.3466C68.1663 26.9093 67.0613 27.1922 65.9421 27.1637C64.7367 27.1731 63.5424 26.9322 62.4348 26.4565C61.3635 25.9955 60.3903 25.3337 59.5677 24.5069C58.741 23.6833 58.0779 22.7104 57.6134 21.6399C57.1498 20.5261 56.9111 19.3317 56.9111 18.1253C56.9111 16.919 57.1498 15.7246 57.6134 14.6108C58.5421 12.435 60.2742 10.7011 62.4491 9.7703C63.5513 9.29157 64.7405 9.04591 65.9421 9.04876C67.058 9.02207 68.1595 9.30489 69.1245 9.86587C70.0159 10.3977 70.7703 11.1308 71.3274 12.0066L71.3369 0.911133ZM65.9851 23.7041C66.9235 23.7245 67.8468 23.465 68.6371 22.9587C69.3946 22.4542 70.0034 21.7564 70.4004 20.9374C70.8237 20.0568 71.0379 19.0904 71.0264 18.1134C71.0405 17.1305 70.8228 16.1581 70.3908 15.275C69.9907 14.4581 69.3826 13.761 68.6276 13.2538C67.8414 12.746 66.9208 12.4863 65.9851 12.5083C65.0244 12.4993 64.0805 12.761 63.2614 13.2633C62.4427 13.7679 61.7666 14.4736 61.2975 15.3133C60.8077 16.1714 60.5554 17.1445 60.5664 18.1325C60.5548 19.1276 60.8142 20.1071 61.3166 20.9661C61.8007 21.784 62.4805 22.4687 63.2949 22.9587C64.1047 23.4529 65.0365 23.711 65.9851 23.7041Z" fill="white"/>
<path d="M84.2051 27.0444C83.2998 26.9861 82.4071 26.8011 81.5531 26.4949C80.7323 26.2063 79.9676 25.7779 79.2929 25.2286C78.674 24.7222 78.183 24.0772 77.8594 23.3459L80.9032 22.0367C81.0858 22.3974 81.3471 22.7126 81.6678 22.9589C82.0655 23.2688 82.5088 23.5154 82.9818 23.69C83.4875 23.8795 84.0235 23.975 84.5635 23.9719C85.0742 23.9764 85.5824 23.899 86.0687 23.7426C86.5058 23.6054 86.9006 23.3586 87.2155 23.0258C87.5085 22.7148 87.668 22.3014 87.6599 21.8742C87.6723 21.6524 87.633 21.4308 87.5451 21.2268C87.4572 21.0228 87.3231 20.842 87.1534 20.6987C86.7814 20.3998 86.352 20.1802 85.8919 20.0536C85.3854 19.9007 84.8789 19.7574 84.3771 19.6236C83.3132 19.3901 82.2781 19.0407 81.2903 18.5819C80.4246 18.1933 79.6608 17.6094 79.0588 16.876C78.4976 16.1462 78.2072 15.2444 78.2369 14.3243C78.213 13.2966 78.5269 12.2894 79.1304 11.4573C79.7361 10.6416 80.5451 9.99909 81.4766 9.59369C82.4535 9.15672 83.5125 8.93352 84.5826 8.93904C85.8964 8.92358 87.1946 9.22518 88.3671 9.81827C89.4563 10.3448 90.3705 11.1744 91 12.2075L88.1616 13.8799C87.9738 13.5185 87.7097 13.2021 87.3875 12.9529C87.0343 12.6718 86.6393 12.4477 86.2168 12.2887C85.7816 12.1255 85.3239 12.0304 84.8597 12.0068C84.3094 11.9793 83.7584 12.0456 83.2303 12.2027C82.7741 12.3356 82.3616 12.588 82.0357 12.9338C81.7324 13.288 81.5737 13.7436 81.5913 14.2096C81.5773 14.4271 81.6186 14.6446 81.7113 14.8418C81.8041 15.039 81.9453 15.2095 82.1217 15.3373C82.5367 15.6082 82.9936 15.8084 83.474 15.9299C84.0187 16.078 84.5778 16.2452 85.1512 16.4077C86.1392 16.7175 87.0985 17.1124 88.0183 17.588C88.8512 18.0031 89.5897 18.5855 90.1877 19.2986C90.7451 19.9991 91.0257 20.88 90.9761 21.7738C90.9964 22.8022 90.6585 23.8056 90.0204 24.6122C89.3545 25.4398 88.4851 26.0803 87.4974 26.471C86.4582 26.9111 85.3319 27.1073 84.2051 27.0444Z" fill="white"/>
</g>
<defs>
<clipPath id="clip0_649_589">
<rect width="91" height="35" fill="white" transform="translate(0 0.5)"/>
</clipPath>
</defs>
</svg>
