<svg data-bbox="0.48 0.474 278.75 49.734" viewBox="0 0 279.23 50.65" xmlns="http://www.w3.org/2000/svg" data-type="ugc" aria-hidden="true"><path d="M36.72 6.68a21.24 21.24 0 1 1-30 0 21.23 21.23 0 0 1 30 0z" fill="none" stroke="#fff" stroke-width=".93"/><path d="M38.71 13.93a21.24 21.24 0 1 1-30 0 21.24 21.24 0 0 1 30 0z" fill="none" stroke="#fff" stroke-width=".93"/><path d="M44 8.68a21.24 21.24 0 1 1-30 0 21.25 21.25 0 0 1 30 0z" fill="none" stroke="#fff" stroke-width=".93"/><path d="M73.57 26.72c0 4.91.13 7 .73 7.64s1.41.77 4 .77c1.77 0 3.24 0 4-1a4.69 4.69 0 0 0 .87-2c0-.27.1-.44.3-.44s.2.14.2.5a22.18 22.18 0 0 1-.5 3.34c-.23.77-.34.9-2.11.9-2.4 0-4.13-.06-5.54-.1s-2.43-.1-3.4-.1h-1.37c-.67 0-1.4.07-1.9.07s-.54-.07-.54-.26.07-.2.27-.2a4.92 4.92 0 0 0 1-.14c.67-.13.84-.86 1-1.84.16-1.4.16-4 .16-7.24v-5.84c0-5.21 0-6.14-.06-7.21s-.33-1.67-1.43-1.9a6 6 0 0 0-1.14-.1c-.13 0-.27-.07-.27-.2s.17-.27.54-.27c1.5 0 3.6.1 3.77.1s2.6-.1 3.6-.1c.37 0 .54.07.54.27s-.13.2-.27.2a7.39 7.39 0 0 0-1.1.1c-1 .16-1.24.73-1.3 1.9s-.07 2-.07 7.21zM88.59 20.78c0-5.21 0-6.14-.07-7.21s-.33-1.67-1.43-1.9a6 6 0 0 0-1.14-.1c-.13 0-.26-.07-.26-.2s.16-.27.53-.27c1.5 0 3.54.1 3.84.1s2.3-.1 3.3-.1c.37 0 .54.07.54.27s-.14.2-.27.2a4.72 4.72 0 0 0-.84.1c-.89.13-1.16.73-1.23 1.9s-.07 2-.07 7.21v4.67c0 4.8 1.07 6.88 2.51 8.24a6.51 6.51 0 0 0 5 1.84 7 7 0 0 0 5.23-2.4c1.54-1.91 1.94-4.74 1.94-8.18v-4.17c0-5.21 0-6.14-.06-7.21s-.34-1.67-1.44-1.9a5.94 5.94 0 0 0-1.13-.1c-.14 0-.27-.07-.27-.2s.17-.27.53-.27c1.5 0 3.34.1 3.54.1s1.8-.1 2.8-.1c.37 0 .54.07.54.27s-.14.2-.27.2a4.63 4.63 0 0 0-.83.1c-.9.2-1.17.73-1.24 1.9s-.07 2-.07 7.21v3.57c0 3.61-.39 7.61-3.07 10a9.79 9.79 0 0 1-6.87 2.47c-1.13 0-4.51-.13-6.88-2.37-1.63-1.57-2.9-3.91-2.9-8.78zM122.46 23.45l-5.34-9a5.28 5.28 0 0 0-2.6-2.67 5.69 5.69 0 0 0-1.4-.23c-.2 0-.3-.1-.3-.24s.14-.23.57-.23c.93 0 3.63.1 3.9.1s2-.1 3.14-.1c.47 0 .57.07.57.23s-.1.24-.3.24a3 3 0 0 0-.91.1.56.56 0 0 0-.39.57 2.47 2.47 0 0 0 .33 1.1c1.4 2.63 2.77 5.1 4.5 8 1-1.43 4.58-7.14 4.91-7.84a2.66 2.66 0 0 0 .33-1.2.72.72 0 0 0-.56-.6 3.9 3.9 0 0 0-1-.1c-.21 0-.31-.07-.31-.24s.18-.23.57-.23c1.27 0 2.67.1 3 .1s1.67-.1 2.8-.1c.37 0 .54.1.54.23s-.13.24-.36.24a3.79 3.79 0 0 0-1.11.16c-1 .3-1.6 1.27-2.57 2.71l-5.37 8.07c.63 1 6.34 10.75 7 11.65a3.69 3.69 0 0 0 2 1.51 5.51 5.51 0 0 0 1.17.2c.17 0 .26.06.26.2s-.16.26-.46.26c-2 0-3.64 0-5.34-.07-.87 0-1-.09-1-.26a.26.26 0 0 1 .21-.27c.16-.06.46-.4.16-.94-1.8-3.26-3.74-6.57-5.74-9.94l-5.21 8.84a3.39 3.39 0 0 0-.43 1.47.65.65 0 0 0 .54.64 5.05 5.05 0 0 0 .63.07.23.23 0 0 1 .26.23c0 .16-.16.23-.4.23-.8 0-2.9-.1-3.2-.1s-1.94.1-3 .1c-.26 0-.33-.1-.33-.23s.1-.23.27-.23a5.6 5.6 0 0 0 1.27-.17c1-.27 1.7-1 2.76-2.71zM139.45 20.78c0-5.21 0-6.14-.06-7.21s-.34-1.67-1.44-1.9a5.87 5.87 0 0 0-1.13-.1c-.14 0-.27-.07-.27-.2s.17-.27.53-.27c1.51 0 3.54.1 3.85.1s2.3-.1 3.3-.1c.37 0 .53.07.53.27s-.13.2-.27.2a4.63 4.63 0 0 0-.83.1c-.9.13-1.16.73-1.24 1.9s-.06 2-.06 7.21v4.67c0 4.8 1.07 6.88 2.5 8.24a6.53 6.53 0 0 0 5 1.84 7 7 0 0 0 5.24-2.4c1.53-1.91 1.94-4.74 1.94-8.18v-4.17c0-5.21 0-6.14-.07-7.21s-.34-1.67-1.44-1.9a5.87 5.87 0 0 0-1.13-.1c-.13 0-.27-.07-.27-.2s.17-.27.54-.27c1.5 0 3.33.1 3.53.1s1.81-.1 2.81-.1c.37 0 .53.07.53.27s-.13.2-.26.2a4.62 4.62 0 0 0-.84.1c-.9.2-1.16.73-1.23 1.9s-.07 2-.07 7.21v3.57c0 3.61-.4 7.61-3.07 10a9.81 9.81 0 0 1-6.88 2.47c-1.13 0-4.5-.13-6.87-2.37-1.64-1.57-2.91-3.91-2.91-8.78zM169.09 20.78c0-5.21 0-6.14-.07-7.21s-.33-1.67-1.43-1.9a5.9 5.9 0 0 0-1.14-.1c-.13 0-.26-.07-.26-.2s.17-.27.53-.27c1.51 0 3.61.1 3.77.1.37 0 2.91-.1 3.94-.1a10.26 10.26 0 0 1 6.11 1.47 5.83 5.83 0 0 1 2.3 4.54c0 2.47-1 4.94-4 7.71 2.73 3.5 5 6.47 6.94 8.54a6.81 6.81 0 0 0 4.07 2.4 7.26 7.26 0 0 0 1.3.11c.17 0 .3.09.3.2s-.2.26-.8.26h-2.37a6.77 6.77 0 0 1-3.57-.63c-1.44-.77-2.6-2.4-4.51-4.91-1.4-1.83-3-4.07-3.63-4.94a.57.57 0 0 0-.44-.2l-4.1-.07c-.17 0-.24.11-.24.27v.8c0 3.21 0 5.84.17 7.24.1 1 .3 1.71 1.3 1.84a13.94 13.94 0 0 0 1.5.14c.2 0 .27.09.27.2s-.17.26-.53.26c-1.84 0-3.94-.1-4.11-.1s-2.13.1-3.13.1c-.37 0-.54-.07-.54-.26s.07-.2.26-.2a5 5 0 0 0 1-.14c.67-.13.83-.86 1-1.84.16-1.4.16-4 .16-7.24zm2.67 2.9a.43.43 0 0 0 .24.4 8.91 8.91 0 0 0 3.5.54A4.26 4.26 0 0 0 178 24c1.17-.8 2-2.6 2-5.14 0-4.17-2.2-6.68-5.77-6.68a9.87 9.87 0 0 0-2.24.21.39.39 0 0 0-.27.4zM197.06 26.65c0 3.21 0 5.84.17 7.24.1 1 .3 1.71 1.3 1.84a13.94 13.94 0 0 0 1.5.14c.2 0 .27.09.27.2s-.17.26-.54.26c-1.83 0-3.94-.1-4.1-.1s-2.27.1-3.27.1c-.37 0-.54-.07-.54-.26s.07-.2.27-.2a4.92 4.92 0 0 0 1-.14c.67-.13.84-.86 1-1.84.17-1.4.17-4 .17-7.24v-5.87c0-5.21 0-6.14-.07-7.21s-.4-1.7-1.13-1.87a4.44 4.44 0 0 0-1-.13c-.13 0-.27-.07-.27-.2s.17-.27.54-.27c1.1 0 3.2.1 3.37.1s2.27-.1 3.27-.1c.37 0 .53.07.53.27s-.13.2-.26.2a4.62 4.62 0 0 0-.84.1c-.9.16-1.16.73-1.24 1.9s-.06 2-.06 7.21zM223.43 35.67a13.11 13.11 0 0 1-5.24 1.13c-9.25 0-13.05-7.11-13.05-13.12 0-5.4 3.94-13 13.15-13 7.51 0 13.11 4.77 13.11 12.52a13.73 13.73 0 0 1-5.9 11.21l6.84 3.54c7.31 3.77 12.38 3.94 14 3.94a18.92 18.92 0 0 0 6.57-1.3 2 2 0 0 1 .47-.13.18.18 0 0 1 .2.19c0 .14-.06.24-.26.34a25.51 25.51 0 0 1-10.59 2.3c-4 0-8.34-1.47-13.75-4.47zm-4.43-.14c3 0 9.21-1.74 9.21-11.45 0-8-4.87-12.31-10.15-12.31-5.57 0-9.74 3.67-9.74 11-.01 7.75 4.68 12.76 10.68 12.76z" fill="#fff"/><path d="M237.71 20.78c0-5.21 0-6.14-.06-7.21s-.34-1.67-1.44-1.9a5.94 5.94 0 0 0-1.13-.1c-.14 0-.27-.07-.27-.2s.16-.27.53-.27c1.51 0 3.54.1 3.84.1s2.3-.1 3.3-.1c.37 0 .54.07.54.27s-.13.2-.27.2a4.82 4.82 0 0 0-.84.1c-.89.13-1.16.73-1.23 1.9s-.06 2-.06 7.21v4.67c0 4.8 1.06 6.88 2.5 8.24a6.51 6.51 0 0 0 5 1.84 7 7 0 0 0 5.24-2.4c1.53-1.91 1.93-4.74 1.93-8.18v-4.17c0-5.21 0-6.14-.06-7.21s-.34-1.67-1.44-1.9a5.87 5.87 0 0 0-1.13-.1c-.13 0-.27-.07-.27-.2s.17-.27.53-.27c1.51 0 3.34.1 3.54.1s1.8-.1 2.81-.1c.37 0 .53.07.53.27s-.13.2-.27.2a4.63 4.63 0 0 0-.83.1c-.9.2-1.17.73-1.24 1.9s-.06 2-.06 7.21v3.57c0 3.61-.4 7.61-3.07 10a9.82 9.82 0 0 1-6.88 2.47c-1.13 0-4.5-.13-6.87-2.37-1.64-1.57-2.91-3.91-2.91-8.78zM267.35 20.78c0-5.21 0-6.14-.07-7.21s-.33-1.67-1.43-1.9a6 6 0 0 0-1.14-.1c-.13 0-.26-.07-.26-.2s.17-.27.53-.27h2.4l1.37.06h7.64a9.25 9.25 0 0 0 1.44-.17c.16 0 .3-.17.47-.17s.13.14.13.31-.17.63-.27 1.56c0 .34-.1 1.8-.17 2.2 0 .17-.09.37-.22.37s-.27-.16-.27-.43a3.52 3.52 0 0 0-.21-1.2c-.23-.54-.56-.94-2.36-1.14-.57-.07-4.21-.1-4.58-.1-.13 0-.2.1-.2.33V22c0 .23 0 .33.2.33.44 0 4.54 0 5.31-.07s1.27-.13 1.57-.47.37-.43.5-.43.17.07.17.27-.17.77-.27 1.87c-.07.67-.13 1.9-.13 2.13s0 .64-.24.64-.23-.14-.23-.3a3.22 3.22 0 0 0-.14-1.1c-.13-.47-.43-1-1.73-1.17-.9-.1-4.2-.17-4.77-.17a.22.22 0 0 0-.24.24v8.64c.1 2.3.6 2.74 3.87 2.74a9.54 9.54 0 0 0 3.21-.37c.87-.37 1.27-1 1.5-2.4.06-.37.14-.5.3-.5s.2.26.2.5a31.76 31.76 0 0 1-.44 3.23c-.23.87-.49.87-1.8.87-2.5 0-4.33-.06-5.64-.1s-2.1-.1-2.6-.1h-1.33c-.7 0-1.44.07-1.94.07s-.53-.07-.53-.26.06-.2.26-.2a4.92 4.92 0 0 0 1-.14c.67-.13.84-.86 1-1.84.17-1.4.17-4 .17-7.24z" fill="#fff"/></svg>