<svg id="Сгруппировать_14196" data-name="Сгруппировать 14196" xmlns="http://www.w3.org/2000/svg" width="216.516" height="73.489" viewBox="0 0 216.516 73.489">
  <g id="Сгруппировать_143" data-name="Сгруппировать 143" transform="translate(22.702 14.297)">
    <g id="Сгруппировать_142" data-name="Сгруппировать 142">
      <path id="Контур_285" data-name="Контур 285" d="M246.068,31.313h3.863a.457.457,0,1,0,0-.913h-3.863a.457.457,0,1,0,0,.913ZM248,65.174a2.012,2.012,0,1,0,2.011,2.013A2.014,2.014,0,0,0,248,65.174Zm-9.857-1.722H257.86V34.288H238.141Zm63.225-9.576a3.928,3.928,0,0,0-2.542.927,4.363,4.363,0,0,0-1.493,2.448,5.064,5.064,0,0,0-.173,1.161v2.841A4.538,4.538,0,0,0,298.3,64.4a3.8,3.8,0,0,0,2.965,1.276,3.88,3.88,0,0,0,3.337-1.649,7.274,7.274,0,0,0,1.19-4.358,7,7,0,0,0-1.12-4.1A3.906,3.906,0,0,0,301.365,53.876Zm69.155-.236a3.793,3.793,0,0,0-3.469,2.029,7.661,7.661,0,0,0-1.021,4.09,7.541,7.541,0,0,0,1.021,4.026,3.811,3.811,0,0,0,3.441,2.026,3.77,3.77,0,0,0,3.4-2.069,7.511,7.511,0,0,0,1.059-4.05,7.647,7.647,0,0,0-1.013-4.023A3.769,3.769,0,0,0,370.521,53.64Zm-50.407.236a3.923,3.923,0,0,0-2.543.927,4.381,4.381,0,0,0-1.5,2.448,5.039,5.039,0,0,0-.171,1.161v2.841a4.549,4.549,0,0,0,1.137,3.146A3.8,3.8,0,0,0,320,65.674a3.876,3.876,0,0,0,3.341-1.649,7.258,7.258,0,0,0,1.2-4.358,7.033,7.033,0,0,0-1.123-4.1A3.916,3.916,0,0,0,320.114,53.876Zm-39.176-6.1h-.067c-.237,1.005-.607,2.489-1.127,4.458l-1.966,6.18h6.352l-1.992-6.18Q281.815,51.278,280.938,47.772Zm118.334,5.681a3.636,3.636,0,0,0-3.018,1.552,5.634,5.634,0,0,0-1.123,2.942h7.9a5.193,5.193,0,0,0-.734-2.91A3.332,3.332,0,0,0,399.272,53.454ZM297.658,36.619a1.549,1.549,0,0,0,.053-.489V34.922c-1.57-.018-3.066.307-3.066,1.642a1.165,1.165,0,0,0,1.263,1.263A1.825,1.825,0,0,0,297.658,36.619ZM276.97,31.1c-.235-.74-.433-1.57-.613-2.274h-.038c-.178.7-.378,1.552-.577,2.274l-.936,3h3.12Zm125.8-.866c2.851,0,3.79,2.346,3.79,4.277a5.314,5.314,0,0,1-.073.937h-5.883c.054,1.588,1.282,2.273,2.707,2.273a7.07,7.07,0,0,0,2.435-.4l.324,1.516a7.892,7.892,0,0,1-3.066.559,4.157,4.157,0,0,1-4.53-4.437C398.478,32.521,399.958,30.231,402.773,30.231Zm-35.218.2.108,1.318h.055a3.223,3.223,0,0,1,2.814-1.516c1.535,0,3.123.991,3.123,3.77v5.215h-2.22V34.254c0-1.263-.469-2.22-1.677-2.22a1.866,1.866,0,0,0-1.734,1.3,2.069,2.069,0,0,0-.108.7v5.179H365.7v-6.17c0-1.012-.037-1.858-.073-2.618Zm-23.306-.2c2.851,0,3.79,2.346,3.79,4.277a5.469,5.469,0,0,1-.072.937h-5.883c.054,1.588,1.281,2.273,2.706,2.273a7.076,7.076,0,0,0,2.435-.4l.324,1.516a7.888,7.888,0,0,1-3.066.559,4.156,4.156,0,0,1-4.528-4.437C339.955,32.521,341.434,30.231,344.249,30.231Zm-9.1-3.826h2.219V39.216h-2.219Zm-17.6,5.394a4.644,4.644,0,0,0-2.364.651l-.434-1.444a6.319,6.319,0,0,1,3.175-.776c2.815,0,3.628,1.786,3.628,3.717V37.1a11.9,11.9,0,0,0,.142,2.111h-2l-.162-.973h-.054a3.217,3.217,0,0,1-2.6,1.173,2.608,2.608,0,0,1-2.761-2.618c0-2.2,1.966-3.338,5.215-3.32v-.144C319.337,32.757,319.1,31.8,317.552,31.8Zm-13.124-5.034a1.2,1.2,0,1,1-1.244,1.209A1.186,1.186,0,0,1,304.428,26.765Zm1.1,3.663v8.788H303.31V30.428ZM275,27.054h2.833l3.951,12.162h-2.4l-1.1-3.446h-3.845L273.4,39.216H271.1ZM260.224,67.383a3.889,3.889,0,0,1-3.89,3.879H239.668a3.888,3.888,0,0,1-3.891-3.879V30.347a3.892,3.892,0,0,1,3.891-3.883h16.666a3.893,3.893,0,0,1,3.89,3.883Zm26.788.889L284.8,61.327h-7.69L275,68.271h-3.927l7.61-23.659H283.4l7.656,23.659Zm.862-29.056H285.69l-3.267-8.788h2.4l1.425,4.458c.253.776.432,1.48.6,2.2h.055c.162-.722.362-1.409.6-2.2l1.408-4.458h2.328Zm4.569-2.417c0-2.2,1.966-3.338,5.215-3.32v-.144c0-.577-.236-1.535-1.786-1.535a4.648,4.648,0,0,0-2.364.651l-.433-1.444a6.315,6.315,0,0,1,3.175-.776c2.815,0,3.628,1.786,3.628,3.717V37.1a11.769,11.769,0,0,0,.144,2.111h-2l-.162-.973H297.8a3.215,3.215,0,0,1-2.6,1.173A2.608,2.608,0,0,1,292.443,36.8Zm14.843,29.619a6.949,6.949,0,0,1-5.258,2.24,5.25,5.25,0,0,1-4.871-2.426v8.961h-3.788V56.818c0-1.825-.049-3.691-.145-5.608h3.336l.209,2.7h.065a6.763,6.763,0,0,1,10.8-.662,9.421,9.421,0,0,1,2.017,6.283A9.651,9.651,0,0,1,307.287,66.417Zm3.945-27.2h-2.217V26.405h2.217Zm14.8,27.2a6.947,6.947,0,0,1-5.258,2.24,5.247,5.247,0,0,1-4.867-2.426v8.961h-3.792V56.818c0-1.825-.049-3.691-.141-5.608H315.3l.219,2.7h.065a6.755,6.755,0,0,1,10.8-.662,9.389,9.389,0,0,1,2.02,6.283A9.645,9.645,0,0,1,326.03,66.417Zm2.6-27a3.026,3.026,0,0,1-2.779-1.516h-.036l-.108,1.316h-1.894c.036-.6.072-1.568.072-2.471V26.405h2.219v5.232h.036a3.179,3.179,0,0,1,2.815-1.407c2.148,0,3.681,1.786,3.664,4.457C332.622,37.846,330.619,39.416,328.633,39.416Zm19.083,27.133a9.33,9.33,0,0,1-6.447,2.07,11.3,11.3,0,0,1-6.132-1.472l.88-3.159a10.586,10.586,0,0,0,5.47,1.475,5.2,5.2,0,0,0,3.338-.964,3.154,3.154,0,0,0,1.19-2.591,3.312,3.312,0,0,0-.98-2.414,9.265,9.265,0,0,0-3.263-1.824q-6.208-2.312-6.211-6.771a5.967,5.967,0,0,1,2.188-4.777,8.694,8.694,0,0,1,5.812-1.86,11.565,11.565,0,0,1,5.372,1.121l-.957,3.091a9.375,9.375,0,0,0-4.54-1.09,4.717,4.717,0,0,0-3.138.979,2.846,2.846,0,0,0-.947,2.149,2.929,2.929,0,0,0,1.086,2.321,12.46,12.46,0,0,0,3.437,1.819,11.542,11.542,0,0,1,4.5,2.882,6.028,6.028,0,0,1,1.439,4.1A6.319,6.319,0,0,1,347.717,66.549Zm13.365-12.5H356.9v8.294c0,2.1.744,3.148,2.219,3.148a6.893,6.893,0,0,0,1.683-.165l.108,2.873a8.579,8.579,0,0,1-2.947.422,4.52,4.52,0,0,1-3.509-1.37c-.85-.908-1.27-2.443-1.27-4.6V54.05h-2.489V51.209h2.489V48.087l3.716-1.122v4.245h4.185Zm-2.138-14.634a4.249,4.249,0,0,1-4.4-4.53,4.337,4.337,0,0,1,4.546-4.655,4.216,4.216,0,0,1,4.368,4.51A4.355,4.355,0,0,1,358.943,39.416Zm17.692,26.65a8.042,8.042,0,0,1-6.247,2.592,7.642,7.642,0,0,1-5.994-2.491,9.086,9.086,0,0,1-2.224-6.285,9.272,9.272,0,0,1,2.3-6.492,7.933,7.933,0,0,1,6.192-2.523,7.771,7.771,0,0,1,6.046,2.492,8.987,8.987,0,0,1,2.172,6.243A9.363,9.363,0,0,1,376.635,66.066Zm3.918-35.637H381.8V28.787l2.184-.614v2.256h2.11v1.66h-2.11v3.881c0,1.082.287,1.624,1.135,1.624a2.908,2.908,0,0,0,.867-.09l.036,1.677a4.871,4.871,0,0,1-1.6.236,2.549,2.549,0,0,1-1.915-.722,3.465,3.465,0,0,1-.7-2.473V32.088h-1.245Zm9.731,24.116a6.712,6.712,0,0,0-1.194-.1A3.586,3.586,0,0,0,386,55.955a5.635,5.635,0,0,0-.948,3.367v8.95h-3.791V56.577q0-2.932-.1-5.367h3.3l.141,3.266h.1a5.735,5.735,0,0,1,1.9-2.7,4.544,4.544,0,0,1,2.741-.911,5.973,5.973,0,0,1,.943.064Zm.575-20.6v5.268h-2.219V26.405h2.219V31.62h.036a2.914,2.914,0,0,1,1.1-.991,3.11,3.11,0,0,1,1.534-.4c1.5,0,3.069.991,3.069,3.806v5.179h-2.221V34.272c0-1.262-.469-2.238-1.7-2.238a1.852,1.852,0,0,0-1.733,1.247A1.991,1.991,0,0,0,390.859,33.947Zm15.648,26.714H395.131a4.928,4.928,0,0,0,1.652,3.853,5.6,5.6,0,0,0,3.718,1.2,12.387,12.387,0,0,0,4.6-.814l.6,2.637a14.157,14.157,0,0,1-5.726,1.05,8.272,8.272,0,0,1-6.225-2.329,8.622,8.622,0,0,1-2.27-6.264,9.829,9.829,0,0,1,2.107-6.432,7.293,7.293,0,0,1,5.97-2.733,6.345,6.345,0,0,1,5.583,2.733,9.257,9.257,0,0,1,1.509,5.379A9.542,9.542,0,0,1,406.507,60.661Zm-78.359-28.7a2.063,2.063,0,0,0-1.967,1.624,2.6,2.6,0,0,0-.073.578v1.425a2.394,2.394,0,0,0,.055.525,2.026,2.026,0,0,0,1.966,1.551c1.39,0,2.238-1.1,2.238-2.886C330.366,33.226,329.626,31.962,328.147,31.962Zm15.976-.215a2.17,2.17,0,0,0-2.039,2.147h3.86A1.888,1.888,0,0,0,344.123,31.747Zm14.911.09c-1.571,0-2.2,1.533-2.2,2.995,0,1.7.848,2.978,2.184,2.978,1.262,0,2.147-1.227,2.147-3.013C361.163,33.424,360.549,31.836,359.035,31.836Zm-42.71,4.727a1.165,1.165,0,0,0,1.262,1.263,1.823,1.823,0,0,0,1.751-1.208,1.515,1.515,0,0,0,.054-.489V34.922C317.822,34.9,316.324,35.228,316.324,36.563Zm86.322-4.817a2.172,2.172,0,0,0-2.039,2.147h3.861A1.887,1.887,0,0,0,402.646,31.747Z" transform="translate(-235.777 -26.405)" fill="#253d5c"/>
    </g>
  </g>
  <g id="Сгруппировать_144" data-name="Сгруппировать 144" opacity="0.2">
    <path id="Контур_286" data-name="Контур 286" d="M427.97,88.745H232.213a10.157,10.157,0,0,1-10.378-9.894V25.163a10.162,10.162,0,0,1,10.378-9.906H427.97a10.163,10.163,0,0,1,10.381,9.906V78.851A10.158,10.158,0,0,1,427.97,88.745ZM232.213,17.822a7.53,7.53,0,0,0-7.691,7.341V78.851a7.525,7.525,0,0,0,7.691,7.329H427.97a7.527,7.527,0,0,0,7.693-7.329V25.163a7.532,7.532,0,0,0-7.693-7.341Z" transform="translate(-221.835 -15.257)" fill="#253d5c"/>
  </g>
</svg>
