<svg id="Компонент_6_3" data-name="Компонент 6 – 3" xmlns="http://www.w3.org/2000/svg" width="258" height="72.134" viewBox="0 0 258 72.134">
  <g id="Компонент_4_12" data-name="Компонент 4 – 12">
    <path id="Контур_2253" data-name="Контур 2253" d="M240.039,185.683c0-11,7.606-18.394,18.463-18.394,10.719,0,18.188,7.122,18.188,18.325v11.962a4.772,4.772,0,0,1-4.773,4.771h0a4.771,4.771,0,0,1-4.771-4.771v-.9c-1.8,4.22-5.671,6.57-10.579,6.57C248.959,203.247,240.039,197.577,240.039,185.683Zm26.277-.415c0-4.909-3.18-8.3-7.884-8.3s-7.883,3.389-7.883,8.3,3.181,8.3,7.883,8.3S266.316,190.178,266.316,185.268Z" transform="translate(-177.207 -154.151)" fill="#253d5c"/>
    <path id="Контур_2254" data-name="Контур 2254" d="M277.288,185.683c0-11,7.606-18.394,18.463-18.394,10.719,0,18.187,7.122,18.187,18.325v11.962a4.772,4.772,0,0,1-4.771,4.771h0a4.772,4.772,0,0,1-4.773-4.771v-.9c-1.8,4.22-5.67,6.57-10.579,6.57C286.208,203.247,277.288,197.577,277.288,185.683Zm26.278-.415c0-4.909-3.181-8.3-7.884-8.3s-7.883,3.389-7.883,8.3,3.18,8.3,7.883,8.3S303.566,190.178,303.566,185.268Z" transform="translate(-172.419 -154.151)" fill="#253d5c"/>
    <path id="Контур_2255" data-name="Контур 2255" d="M363.359,168.882a5.033,5.033,0,0,0-4.806,3.54l-6.438,20.731-6.409-20.641a5.151,5.151,0,0,0-4.425-3.59c-.015,0-.029,0-.044,0-.153-.014-.3-.037-.46-.037-.024,0-.047,0-.071,0s-.047,0-.071,0c-.157,0-.308.023-.462.037l-.062,0a5.025,5.025,0,0,0-4.284,3.5l-6.438,20.731-6.409-20.641a5.161,5.161,0,1,0-9.788,3.272l7.644,21.334a8.939,8.939,0,0,0,16.831,0l2.948-8.226,2.947,8.226a8.94,8.94,0,0,0,16.832,0l7.706-21.505A5.033,5.033,0,0,0,363.359,168.882Z" transform="translate(-167.844 -153.946)" fill="#253d5c"/>
    <path id="Контур_2256" data-name="Контур 2256" d="M364.552,185.268c0-10.372,7.606-17.979,18.394-17.979s18.186,7.606,18.186,17.979h0a2.9,2.9,0,0,1-2.9,2.9H375.339c.831,4.011,3.873,5.809,7.607,5.809,2.379,0,4.27-.4,5.605-1.513a4.624,4.624,0,0,1,2.986-.976h0a4.586,4.586,0,0,1,2.739,8.265,18.94,18.94,0,0,1-11.33,3.491C372.158,203.247,364.552,195.641,364.552,185.268Zm25.931-3.664c-1.175-3.527-3.942-5.048-7.537-5.048s-6.362,1.59-7.4,5.048Z" transform="translate(-161.203 -154.151)" fill="#253d5c"/>
    <path id="Контур_2257" data-name="Контур 2257" d="M406.908,155.647h0a5.185,5.185,0,0,1,5.186,5.186v38.725a5.186,5.186,0,0,1-5.186,5.187h0a5.187,5.187,0,0,1-5.187-5.187V160.833A5.186,5.186,0,0,1,406.908,155.647Z" transform="translate(-156.426 -155.647)" fill="#253d5c"/>
    <g id="Сгруппировать_13777" data-name="Сгруппировать 13777" transform="translate(0 0.128)">
      <path id="Контур_2258" data-name="Контур 2258" d="M217.877,162.483c-6.969-7.333-19.085-7.148-27.009.384a20.476,20.476,0,0,0-6.479,14.054.394.394,0,0,0-.015.151c-.016.253-.011.486-.007.72l.317,21.154a5.246,5.246,0,1,0,10.492-.082l-.326-21.225c-.015-.244-.028-.508-.033-.74v-.041a9.348,9.348,0,0,1,2.949-6.729c3.589-3.421,9.094-3.5,12.227-.173l4.212,4.428,1.628,1.712a5.426,5.426,0,0,0,7.691.174h0a5.426,5.426,0,0,0,.177-7.648Z" transform="translate(-184.363 -155.588)" fill="#253d5c"/>
      <path id="Контур_2259" data-name="Контур 2259" d="M212.147,160.719l6.072-4.6c1.022-.775,2.713-.2,2.769.94l.771,15.753-10.728-7.621Z" transform="translate(-180.936 -155.76)" fill="#253d5c"/>
      <path id="Контур_2260" data-name="Контур 2260" d="M207.639,164.4l-6.011,4.683c-1.012.788-.894,2.57.2,2.917l15.024,4.8-4.6-12.328Z" transform="translate(-182.233 -154.65)" fill="#253d5c"/>
      <g id="Сгруппировать_13776" data-name="Сгруппировать 13776" transform="translate(16.624 1.266)">
        <path id="Контур_2261" data-name="Контур 2261" d="M206.113,197.713c6.745,7.539,18.86,7.718,27.007.428a20.477,20.477,0,0,0,6.9-13.853.405.405,0,0,0,.018-.151c.024-.252.026-.485.029-.719l.318-21.154a5.246,5.246,0,1,0-10.49-.232l-.313,21.225c.008.244.014.508.011.741l0,.041a9.358,9.358,0,0,1-3.15,6.638c-3.69,3.31-9.2,3.225-12.227-.2l-4.077-4.553-1.575-1.761a5.427,5.427,0,0,0-7.683-.4h0a5.425,5.425,0,0,0-.406,7.639Z" transform="translate(-199.094 -156.882)" fill="#f7ce0e"/>
        <path id="Контур_2262" data-name="Контур 2262" d="M208.354,196.248l-6.207,4.419c-1.045.744-2.719.12-2.74-1.022l-.3-15.769,10.494,7.939Z" transform="translate(-199.092 -153.412)" fill="#f7ce0e"/>
        <path id="Контур_2263" data-name="Контур 2263" d="M213.577,192.195l6.149-4.5c1.035-.757.969-2.543-.108-2.922l-14.873-5.248,4.231,12.46Z" transform="translate(-198.368 -153.972)" fill="#f7ce0e"/>
      </g>
    </g>
  </g>
  <text id="anywhere_anytime..." data-name="anywhere, anytime..." transform="translate(104 68.134)" fill="#253d5c" font-size="15" font-family="SegoeUI, Segoe UI"><tspan x="0" y="0">anywhere, anytime...</tspan></text>
</svg>
