<svg id="Сгруппировать_14197" data-name="Сгруппировать 14197" xmlns="http://www.w3.org/2000/svg" width="219.187" height="73.424" viewBox="0 0 219.187 73.424">
  <g id="Сгруппировать_146" data-name="Сгруппировать 146" opacity="0.199">
    <path id="Контур_287" data-name="Контур 287" d="M243.029,88.706H45.559A10.871,10.871,0,0,1,34.7,77.848V26.141A10.871,10.871,0,0,1,45.559,15.282H243.029a10.87,10.87,0,0,1,10.857,10.859V77.848A10.87,10.87,0,0,1,243.029,88.706ZM45.559,17.847a8.3,8.3,0,0,0-8.294,8.294V77.848a8.3,8.3,0,0,0,8.294,8.294H243.029a8.3,8.3,0,0,0,8.292-8.294V26.141a8.3,8.3,0,0,0-8.292-8.294Z" transform="translate(-34.7 -15.282)" fill="#253d5c"/>
  </g>
  <g id="Сгруппировать_147" data-name="Сгруппировать 147" transform="translate(67.068 15.372)">
    <path id="Контур_288" data-name="Контур 288" d="M92.765,33.3H91.309a9.677,9.677,0,0,0-.414-1.7h-2.1a8.8,8.8,0,0,0-.427,1.7H87q0-.177,1.062-2.911a22.948,22.948,0,0,0,1.063-3.013h1.72a25.034,25.034,0,0,0,.962,2.969A25.99,25.99,0,0,1,92.765,33.3Zm-2.1-2.57a25.646,25.646,0,0,1-.777-2.539h-.073q0,.177-.805,2.539Z" transform="translate(-86.996 -27.238)" fill="#253d5c"/>
    <path id="Контур_289" data-name="Контур 289" d="M97.144,33.3H96.02a11.1,11.1,0,0,0-1.25-1.97,10.908,10.908,0,0,1-1.493-2.57H93.2a16.061,16.061,0,0,1,.114,1.8q0,1.125.064,2.739h-1.12q.069-1.41.068-3.1,0-1.66-.068-2.825h1.352A8.542,8.542,0,0,0,94.737,29.3a11.292,11.292,0,0,1,1.374,2.425h.068a17.463,17.463,0,0,1-.109-1.82q0-1.233-.063-2.53h1.138Q97.079,28.5,97.08,30.2T97.144,33.3Z" transform="translate(-85.508 -27.238)" fill="#253d5c"/>
    <path id="Контур_290" data-name="Контур 290" d="M102.312,30.137a3.355,3.355,0,0,1-.827,2.256,2.894,2.894,0,0,1-2.321.966q-.673,0-1.856-.055.06-1.374.059-3.1,0-1.656-.059-2.825h.8c.13,0,.324,0,.582-.013s.426-.014.505-.014a3.072,3.072,0,0,1,2.382.818A2.835,2.835,0,0,1,102.312,30.137Zm-1.241.2a2.191,2.191,0,0,0-.51-1.472,1.93,1.93,0,0,0-1.556-.6,4.87,4.87,0,0,0-.536.041q.044.91.045,1.9,0,1.089.046,2.157a3.071,3.071,0,0,0,.591.059,1.719,1.719,0,0,0,1.449-.608A2.345,2.345,0,0,0,101.071,30.333Z" transform="translate(-84.083 -27.244)" fill="#253d5c"/>
    <path id="Контур_291" data-name="Контур 291" d="M107.007,33.3h-1.347a8.953,8.953,0,0,0-.809-1.988,1.064,1.064,0,0,0-.911-.378c-.176,0-.344,0-.5.005q0,1.17.04,2.361h-1.265q.06-1.374.059-3.1,0-1.656-.059-2.825H103c.091,0,.281,0,.571-.013s.558-.014.8-.014q2.089,0,2.089,1.429a1.6,1.6,0,0,1-1.193,1.579v.068a1.422,1.422,0,0,1,.805.717A15.71,15.71,0,0,1,107.007,33.3ZM105.3,29.118q0-.9-1.165-.905a3.99,3.99,0,0,0-.755.064q.05.706.05,1.838c.167.006.308.009.423.009Q105.3,30.123,105.3,29.118Z" transform="translate(-82.698 -27.244)" fill="#253d5c"/>
    <path id="Контур_292" data-name="Контур 292" d="M112.312,30.256a3.262,3.262,0,0,1-.855,2.316,2.771,2.771,0,0,1-2.115.92,2.678,2.678,0,0,1-2.011-.844,2.975,2.975,0,0,1-.811-2.146,3.272,3.272,0,0,1,.855-2.316,2.779,2.779,0,0,1,2.116-.918,2.681,2.681,0,0,1,2.011.841A2.971,2.971,0,0,1,112.312,30.256Zm-1.256.132a2.346,2.346,0,0,0-.486-1.542,1.5,1.5,0,0,0-1.2-.591,1.392,1.392,0,0,0-1.129.6,2.382,2.382,0,0,0-.463,1.507,2.342,2.342,0,0,0,.489,1.539,1.5,1.5,0,0,0,1.2.594,1.384,1.384,0,0,0,1.127-.6A2.375,2.375,0,0,0,111.056,30.388Z" transform="translate(-81.481 -27.268)" fill="#253d5c"/>
    <path id="Контур_293" data-name="Контур 293" d="M113.326,33.3h-1.288q.06-1.41.059-3.1,0-1.66-.059-2.825h1.288q-.06,1.147-.059,2.825Q113.267,31.915,113.326,33.3Z" transform="translate(-79.922 -27.238)" fill="#253d5c"/>
    <path id="Контур_294" data-name="Контур 294" d="M119.286,30.137a3.35,3.35,0,0,1-.828,2.256,2.89,2.89,0,0,1-2.32.966q-.673,0-1.856-.055.058-1.374.059-3.1,0-1.656-.059-2.825h.8c.13,0,.324,0,.582-.013s.426-.014.5-.014a3.073,3.073,0,0,1,2.383.818A2.835,2.835,0,0,1,119.286,30.137Zm-1.241.2a2.191,2.191,0,0,0-.51-1.472,1.931,1.931,0,0,0-1.556-.6,4.889,4.889,0,0,0-.537.041q.046.91.046,1.9,0,1.089.045,2.157a3.094,3.094,0,0,0,.592.059,1.715,1.715,0,0,0,1.448-.608A2.339,2.339,0,0,0,118.045,30.333Z" transform="translate(-79.288 -27.244)" fill="#253d5c"/>
    <path id="Контур_295" data-name="Контур 295" d="M126.276,33.3H124.82a9.679,9.679,0,0,0-.414-1.7h-2.1a8.808,8.808,0,0,0-.427,1.7h-1.37q0-.177,1.062-2.911a22.813,22.813,0,0,0,1.062-3.013h1.72a25.2,25.2,0,0,0,.963,2.969A25.987,25.987,0,0,1,126.276,33.3Zm-2.1-2.57a25.894,25.894,0,0,1-.778-2.539h-.072q0,.177-.805,2.539Z" transform="translate(-77.53 -27.238)" fill="#253d5c"/>
    <path id="Контур_296" data-name="Контур 296" d="M130.095,28.932a1.772,1.772,0,0,1-.808,1.606,3.582,3.582,0,0,1-1.98.519c-.144,0-.245,0-.305-.01q0,.856.05,2.257h-1.279q.06-1.314.059-3.1,0-1.637-.059-2.825h.791c.113,0,.328,0,.646-.013s.6-.014.828-.014a2.611,2.611,0,0,1,1.461.391A1.325,1.325,0,0,1,130.095,28.932Zm-1.173.25q0-.973-1.291-.973a3.727,3.727,0,0,0-.684.068c.035.573.05,1.222.05,1.947.076.006.164.009.264.009Q128.923,30.232,128.921,29.182Z" transform="translate(-76.042 -27.244)" fill="#253d5c"/>
    <path id="Контур_297" data-name="Контур 297" d="M134.35,28.932a1.772,1.772,0,0,1-.808,1.606,3.584,3.584,0,0,1-1.981.519c-.142,0-.244,0-.3-.01q0,.856.05,2.257h-1.279q.06-1.314.059-3.1,0-1.637-.059-2.825h.791c.113,0,.328,0,.646-.013s.594-.014.828-.014a2.606,2.606,0,0,1,1.459.391A1.323,1.323,0,0,1,134.35,28.932Zm-1.173.25q0-.973-1.293-.973a3.714,3.714,0,0,0-.682.068q.05.86.05,1.947c.076.006.164.009.264.009Q133.176,30.232,133.176,29.182Z" transform="translate(-74.84 -27.244)" fill="#253d5c"/>
    <path id="Контур_298" data-name="Контур 298" d="M141.63,30.256a3.262,3.262,0,0,1-.855,2.316,2.771,2.771,0,0,1-2.115.92,2.676,2.676,0,0,1-2.011-.844,2.975,2.975,0,0,1-.811-2.146,3.272,3.272,0,0,1,.855-2.316,2.779,2.779,0,0,1,2.116-.918,2.681,2.681,0,0,1,2.011.841A2.971,2.971,0,0,1,141.63,30.256Zm-1.256.132a2.346,2.346,0,0,0-.486-1.542,1.5,1.5,0,0,0-1.2-.591,1.39,1.39,0,0,0-1.129.6,2.383,2.383,0,0,0-.464,1.507,2.336,2.336,0,0,0,.49,1.539,1.5,1.5,0,0,0,1.2.594,1.384,1.384,0,0,0,1.129-.6A2.375,2.375,0,0,0,140.374,30.388Z" transform="translate(-73.199 -27.268)" fill="#253d5c"/>
    <path id="Контур_299" data-name="Контур 299" d="M146.238,33.3h-1.125a11.1,11.1,0,0,0-1.25-1.97,10.91,10.91,0,0,1-1.493-2.57H142.3a16.038,16.038,0,0,1,.113,1.8q0,1.125.064,2.739h-1.12q.069-1.41.068-3.1,0-1.66-.068-2.825h1.352a8.541,8.541,0,0,0,1.123,1.925,11.29,11.29,0,0,1,1.374,2.425h.069a17.154,17.154,0,0,1-.11-1.82q0-1.233-.063-2.53h1.138q-.065,1.129-.064,2.825T146.238,33.3Z" transform="translate(-71.641 -27.238)" fill="#253d5c"/>
  </g>
  <g id="Сгруппировать_148" data-name="Сгруппировать 148" transform="translate(66.709 28.562)">
    <path id="Контур_300" data-name="Контур 300" d="M108,49.4a9.5,9.5,0,0,1-2.616,7.027,10.2,10.2,0,0,1-7.732,3.116,10.844,10.844,0,0,1-10.937-11A10.844,10.844,0,0,1,97.653,37.553a10.847,10.847,0,0,1,4.322.881,8.667,8.667,0,0,1,3.292,2.352l-1.852,1.853a7.1,7.1,0,0,0-5.762-2.5,8.138,8.138,0,0,0-8.173,8.408A8.275,8.275,0,0,0,103.533,54.6a6.606,6.606,0,0,0,1.763-4.263H97.653V47.813h10.2A9.1,9.1,0,0,1,108,49.4Z" transform="translate(-86.716 -37.553)" fill="#253d5c"/>
    <path id="Контур_301" data-name="Контур 301" d="M106.272,44.924a7.56,7.56,0,0,1,10.643,0,8.246,8.246,0,0,1,0,10.965,7.56,7.56,0,0,1-10.643,0,8.242,8.242,0,0,1,0-10.965Zm2.014,9.259a4.547,4.547,0,0,0,6.616,0,5.811,5.811,0,0,0,0-7.555,4.55,4.55,0,0,0-6.616,0,5.811,5.811,0,0,0,0,7.555Z" transform="translate(-81.782 -36.089)" fill="#253d5c"/>
    <path id="Контур_302" data-name="Контур 302" d="M118.537,44.924a7.56,7.56,0,0,1,10.643,0,8.246,8.246,0,0,1,0,10.965,7.56,7.56,0,0,1-10.643,0,8.242,8.242,0,0,1,0-10.965Zm2.013,9.259a4.546,4.546,0,0,0,6.615,0,5.807,5.807,0,0,0,0-7.555,4.549,4.549,0,0,0-6.615,0,5.807,5.807,0,0,0,0,7.555Z" transform="translate(-78.317 -36.089)" fill="#253d5c"/>
    <path id="Контур_303" data-name="Контур 303" d="M135.8,64.431a6.522,6.522,0,0,1-4.176-1.28,7.508,7.508,0,0,1-2.323-2.925l2.47-1.029a4.049,4.049,0,0,0,1.515,1.97,4.184,4.184,0,0,0,2.514.794,4.632,4.632,0,0,0,3.513-1.338,5.036,5.036,0,0,0,1.279-3.631V55.611h-.118a5.53,5.53,0,0,1-2,1.763,5.981,5.981,0,0,1-2.911.705,6.336,6.336,0,0,1-4.821-2.2,8.382,8.382,0,0,1,0-10.938,6.339,6.339,0,0,1,4.821-2.2,6,6,0,0,1,2.911.7,5.533,5.533,0,0,1,2,1.765h.118v-2h2.588V56.875a7.181,7.181,0,0,1-2.147,5.631A7.56,7.56,0,0,1,135.8,64.431Zm.205-8.82a4.313,4.313,0,0,0,3.249-1.412,5.283,5.283,0,0,0,1.338-3.792,5.281,5.281,0,0,0-1.338-3.792,4.41,4.41,0,0,0-6.482.014,5.95,5.95,0,0,0,0,7.555A4.3,4.3,0,0,0,136.005,55.611Z" transform="translate(-74.853 -36.089)" fill="#253d5c"/>
    <path id="Контур_304" data-name="Контур 304" d="M144.69,58.97h-2.7V37.919h2.7Z" transform="translate(-71.103 -37.45)" fill="#253d5c"/>
    <path id="Контур_305" data-name="Контур 305" d="M152.683,58.08a6.945,6.945,0,0,1-5.307-2.176,7.71,7.71,0,0,1-2.043-5.5A7.932,7.932,0,0,1,147.317,45a6.446,6.446,0,0,1,5.072-2.262,6.648,6.648,0,0,1,5.13,2.087,7.917,7.917,0,0,1,1.926,5.586l-.03.5H148.038a4.883,4.883,0,0,0,1.456,3.438,4.414,4.414,0,0,0,3.131,1.266,3.882,3.882,0,0,0,3.94-2.47l2.41,1a6.453,6.453,0,0,1-2.321,2.809A6.762,6.762,0,0,1,152.683,58.08Zm3.881-9.408a3.834,3.834,0,0,0-1.131-2.352,4.046,4.046,0,0,0-3.1-1.117,3.876,3.876,0,0,0-2.6.941,4.8,4.8,0,0,0-1.513,2.528Z" transform="translate(-70.158 -36.089)" fill="#253d5c"/>
    <path id="Контур_306" data-name="Контур 306" d="M165.231,58.97h-2.7V37.919H169.7a6.657,6.657,0,0,1,4.63,1.779,6.12,6.12,0,0,1,0,8.967,6.651,6.651,0,0,1-4.63,1.779h-4.469Zm0-11.113h4.528a3.5,3.5,0,0,0,2.733-1.147,3.619,3.619,0,0,0,0-5.057,3.5,3.5,0,0,0-2.733-1.147h-4.528Z" transform="translate(-65.301 -37.45)" fill="#253d5c"/>
    <path id="Контур_307" data-name="Контур 307" d="M177.335,58.97h-2.7V37.919h2.7Z" transform="translate(-61.882 -37.45)" fill="#253d5c"/>
    <path id="Контур_308" data-name="Контур 308" d="M183.356,58.08a5.685,5.685,0,0,1-3.836-1.324,4.38,4.38,0,0,1-1.544-3.5,4.322,4.322,0,0,1,1.824-3.69,7.386,7.386,0,0,1,4.5-1.338,7.741,7.741,0,0,1,3.91.881V48.7a3.22,3.22,0,0,0-1.088-2.543,3.907,3.907,0,0,0-2.675-.955,4.149,4.149,0,0,0-2.131.559A2.881,2.881,0,0,0,181,47.289l-2.469-1.058a5.589,5.589,0,0,1,1.97-2.4,6.307,6.307,0,0,1,3.881-1.1,6.658,6.658,0,0,1,4.586,1.616,5.774,5.774,0,0,1,1.822,4.558v8.7h-2.587v-2h-.117A5.305,5.305,0,0,1,183.356,58.08Zm.441-2.469a4.411,4.411,0,0,0,3.043-1.25,3.874,3.874,0,0,0,1.367-2.955,5.335,5.335,0,0,0-3.44-.94,4.478,4.478,0,0,0-2.969.852,2.561,2.561,0,0,0-1,2,1.926,1.926,0,0,0,.912,1.676A3.639,3.639,0,0,0,183.8,55.611Z" transform="translate(-60.937 -36.089)" fill="#253d5c"/>
    <path id="Контур_309" data-name="Контур 309" d="M193.742,63.856h-2.793l3.352-7.261L188.362,43.1H191.3L195.6,53.45h.058l4.174-10.35h2.939Z" transform="translate(-58.003 -35.986)" fill="#253d5c"/>
  </g>
  <g id="Сгруппировать_149" data-name="Сгруппировать 149" transform="translate(16.247 16.059)">
    <path id="Контур_310" data-name="Контур 310" d="M47.381,50.822q0-10.086,0-20.171a3.02,3.02,0,0,1,.744-2.2c.227-.242.391-.308.669-.023q6.787,6.923,13.593,13.829,4.4,4.475,8.82,8.939c.286.287.31.44.008.741q-10.817,10.754-21.6,21.54a.742.742,0,0,1-1.168.069,2.743,2.743,0,0,1-1.064-2.33q0-5.973-.008-11.946,0-4.224,0-8.446Z" transform="translate(-47.369 -27.681)" fill="#253d5c"/>
    <path id="Контур_311" data-name="Контур 311" d="M49.393,27.8a2.486,2.486,0,0,1,1.312.364q13.812,7.741,27.63,15.472c.423.236.414.368.088.69q-3.089,3.039-6.146,6.114c-.219.221-.354.348-.649.046q-10.99-11.208-22-22.395C49.569,28.032,49.519,27.958,49.393,27.8Z" transform="translate(-46.797 -27.804)" fill="#253d5c"/>
    <path id="Контур_312" data-name="Контур 312" d="M51,67.91Q61.026,57.776,71.041,47.631c.414-.421.607-.364.977.022q2.541,2.645,5.14,5.235c.3.305.328.43-.083.655Q64.2,60.588,51.346,67.657A3.964,3.964,0,0,0,51,67.91Z" transform="translate(-46.343 -22.286)" fill="#253d5c"/>
    <path id="Контур_313" data-name="Контур 313" d="M84.432,47.4a2.105,2.105,0,0,1-.926,1.688,11.589,11.589,0,0,1-1.28.78c-2.593,1.435-5.2,2.855-7.783,4.3a.582.582,0,0,1-.846-.113q-2.764-2.855-5.571-5.669c-.273-.273-.28-.423,0-.7q3.266-3.218,6.5-6.47a.521.521,0,0,1,.754-.105c2.562,1.452,5.136,2.884,7.706,4.325A2.352,2.352,0,0,1,84.432,47.4Z" transform="translate(-41.592 -24.076)" fill="#253d5c"/>
  </g>
</svg>
