<svg xmlns="http://www.w3.org/2000/svg" width="771.958" height="463.323" viewBox="0 0 771.958 463.323">
  <g id="Сгруппировать_13809" data-name="Сгруппировать 13809" transform="translate(0)">
    <g id="Сгруппировать_13784" data-name="Сгруппировать 13784" transform="translate(468.623 20.179)">
      <rect id="Прямоугольник_2371" data-name="Прямоугольник 2371" width="124.628" height="69.057" rx="11" transform="translate(0 0)" fill="#b8c6f2"/>
      <path id="Контур_7669" data-name="Контур 7669" d="M864.77,446.368v25.708a1.962,1.962,0,0,1-3.712.889l-13.511-26.6Z" transform="translate(-757.791 -380.405)" fill="#b8c6f2"/>
      <path id="Контур_7670" data-name="Контур 7670" d="M913.55,228.163H822.591a6.334,6.334,0,0,1-6.334-6.334h0a6.334,6.334,0,0,1,6.334-6.334H913.55a6.334,6.334,0,0,1,6.334,6.334h0A6.334,6.334,0,0,1,913.55,228.163Z" transform="translate(-805.173 -206.58)" fill="#fff"/>
      <path id="Контур_7671" data-name="Контур 7671" d="M913.55,309.475H822.591a6.334,6.334,0,0,1-6.334-6.334h0a6.334,6.334,0,0,1,6.334-6.334H913.55a6.334,6.334,0,0,1,6.334,6.334h0A6.334,6.334,0,0,1,913.55,309.475Z" transform="translate(-805.173 -267.801)" fill="#fff"/>
      <path id="Прямоугольник_2372" data-name="Прямоугольник 2372" d="M6.333,0H62.846A6.334,6.334,0,0,1,69.18,6.334v0a6.334,6.334,0,0,1-6.334,6.334H6.333A6.333,6.333,0,0,1,0,6.334v0A6.333,6.333,0,0,1,6.333,0Z" transform="translate(45.532 49.099)" fill="#fff"/>
    </g>
    <g id="Сгруппировать_13797" data-name="Сгруппировать 13797" transform="translate(86.114 98.173)">
      <g id="Сгруппировать_13788" data-name="Сгруппировать 13788" transform="translate(0 29.685)">
        <path id="Контур_7672" data-name="Контур 7672" d="M215.817,792.3c.009-.992.018-1.889.024-2.686a11.353,11.353,0,0,1,2.787-7.347c21.061-24.2,109.511-129.849,137.792-156.481,8.765-8.333,23.954-10.587,49.035-10.587H825.163c26.644,0,36.191,14.405,36.191,44.867,0,21.783-2,173.121-2,173.121s-4.506,53.463-13.857,56.949c-1.907.711-620.139,4.551-624.219-2.217s-5.366-50.285-5.366-50.285c-.046-3.678-.082-7.323-.107-10.876C215.708,812.524,215.762,799.765,215.817,792.3Z" transform="translate(-215.752 -615.195)" fill="#59789f"/>
        <path id="Контур_7673" data-name="Контур 7673" d="M223.865,1486.126s-.539,50.391,2.848,55.172a24.033,24.033,0,0,0,16.09,6.988c6.7.92,59.276.491,59.276.491s542.5-4.046,551.5-4.9,12.548-6.682,12.856-15.019c0-1.778.846-29.548,1-45.364Z" transform="translate(-223.834 -1268.936)" fill="#455f7c"/>
        <g id="Сгруппировать_13785" data-name="Сгруппировать 13785" transform="translate(31.557 166.335)">
          <circle id="Эллипс_158" data-name="Эллипс 158" cx="59.796" cy="59.796" r="59.796" transform="translate(84.564 169.129) rotate(-135)" fill="#253d5c"/>
          <ellipse id="Эллипс_159" data-name="Эллипс 159" cx="43.6" cy="43.6" rx="43.6" ry="43.6" transform="translate(120.618 134.586) rotate(-170.783)" fill="#b8c6f2"/>
          <ellipse id="Эллипс_160" data-name="Эллипс 160" cx="23.506" cy="23.506" rx="23.506" ry="23.506" transform="translate(61.058 61.058)" fill="#98b0f2"/>
        </g>
        <g id="Сгруппировать_13786" data-name="Сгруппировать 13786" transform="translate(474.052 166.335)">
          <circle id="Эллипс_161" data-name="Эллипс 161" cx="59.796" cy="59.796" r="59.796" transform="translate(84.564 169.129) rotate(-135)" fill="#253d5c"/>
          <ellipse id="Эллипс_162" data-name="Эллипс 162" cx="43.6" cy="43.6" rx="43.6" ry="43.6" transform="translate(40.964 40.964)" fill="#b8c6f2"/>
          <ellipse id="Эллипс_163" data-name="Эллипс 163" cx="23.506" cy="23.506" rx="23.506" ry="23.506" transform="translate(61.058 61.058)" fill="#98b0f2"/>
        </g>
        <path id="Контур_7674" data-name="Контур 7674" d="M1904.834,826.606h119.909a6.708,6.708,0,0,0,6.708-6.708V740.214a11.03,11.03,0,0,0-11.03-11.03h-41.353a34.906,34.906,0,0,0-28.092,14.187l-52.339,70.962A7.7,7.7,0,0,0,1904.834,826.606Z" transform="translate(-1801.311 -701.018)" fill="#455f7c"/>
        <path id="Контур_7675" data-name="Контур 7675" d="M2304.5,1023.215c0,9.531,9.787,17.257,21.859,17.257s21.858-7.726,21.858-17.257-9.786-17.256-21.858-17.256S2304.5,1013.685,2304.5,1023.215Z" transform="translate(-2218.744 -909.402)" fill="#98b0f2"/>
        <path id="Контур_7676" data-name="Контур 7676" d="M2733.2,1366.377h6.276a17.228,17.228,0,1,0,0-34.456h-6.267C2733.157,1339.39,2733.1,1352.149,2733.2,1366.377Z" transform="translate(-2733.146 -1154.82)" fill="#faaf16"/>
        <path id="Прямоугольник_2373" data-name="Прямоугольник 2373" d="M38.845,0H157.324a38.846,38.846,0,0,1,38.846,38.846v133.5a38.846,38.846,0,0,1-38.846,38.846H38.846A38.846,38.846,0,0,1,0,172.349V38.845A38.845,38.845,0,0,1,38.845,0Z" transform="translate(273.255 16.667)" fill="#253d5c"/>
        <rect id="Прямоугольник_2374" data-name="Прямоугольник 2374" width="84.774" height="170.37" transform="translate(319.837 57.024)" fill="#253d5c"/>
        <rect id="Прямоугольник_2375" data-name="Прямоугольник 2375" width="84.272" height="130.836" transform="translate(353.357 96.557)" fill="#253d5c"/>
        <g id="Сгруппировать_13787" data-name="Сгруппировать 13787" transform="translate(422.814 16.198)">
          <path id="Прямоугольник_2377" data-name="Прямоугольник 2377" d="M38.846,0H157.324A38.845,38.845,0,0,1,196.17,38.845v133.5a38.846,38.846,0,0,1-38.846,38.846H38.846A38.846,38.846,0,0,1,0,172.349V38.846A38.846,38.846,0,0,1,38.846,0Z" transform="translate(0 0)" fill="#98b0f2"/>
          <rect id="Прямоугольник_2378" data-name="Прямоугольник 2378" width="196.17" height="19.47" transform="translate(0 141.433)" fill="#b8c6f2"/>
          <path id="Прямоугольник_2379" data-name="Прямоугольник 2379" d="M48.71,0h62.282A48.711,48.711,0,0,1,159.7,48.711v0a48.711,48.711,0,0,1-48.711,48.711H48.71A48.71,48.71,0,0,1,0,48.712v0A48.71,48.71,0,0,1,48.71,0Z" transform="translate(20.43 11.968)" fill="#455f7c"/>
        </g>
      </g>
      <g id="c" transform="translate(446.581)">
        <g id="Сгруппировать_13795" data-name="Сгруппировать 13795" transform="translate(52.678)">
          <path id="v-2" d="M671.943,701.924h-.01l-8.751.032-1.982,20.67,10.216,5.394,10.894-5.333-1.761-20.731Z" transform="translate(-646.035 -650.808)" fill="#febe9d"/>
          <g id="Сгруппировать_13794" data-name="Сгруппировать 13794">
            <g id="Сгруппировать_13793" data-name="Сгруппировать 13793">
              <path id="Контур_7677" data-name="Контур 7677" d="M674.466,550.484c-1.991,14.989-13.148,25.872-24.921,24.309s-19.7-14.982-17.711-29.971,13.148-25.872,24.92-24.309S676.457,535.495,674.466,550.484Z" transform="translate(-631.166 -514.111)" fill="#febe9d"/>
              <path id="Контур_7678" data-name="Контур 7678" d="M753.643,643.582c-2.165,2.821-4.9,6.254-4.9,6.254a5.42,5.42,0,0,0,4.965,3.718c-1.7-.9-3.331-2.259-2.383-4.546S753.643,643.582,753.643,643.582Z" transform="translate(-739.071 -606.882)" fill="#de9068"/>
              <path id="Контур_7679" data-name="Контур 7679" d="M660.916,519.382c1.277-14.281-11.856-18.971-11.856-18.971s2.941-1.035,2.228-5.352a11.472,11.472,0,0,1-7.036,1.625c-16.328-1.617-26.606,1.068-24.982,7.468.578,2.277-10.014,3.444-5.3,18.554,1.009-1.784,1.917-8.481,5.092-9.956s1.3,3.746,8.507,2.934c7.277-.819,12.014-3.839,17.316-.964,4.239,2.6,9.54,19.993,9.3,21.182C654.742,533.174,660.355,525.658,660.916,519.382Z" transform="translate(-612.76 -495.059)" fill="#253d5c"/>
              <path id="Контур_7680" data-name="Контур 7680" d="M641.746,639.976s1.391,8.146,3.169,10.322c.385-3.507,8.077-1.3,11.42-1.007,6.053.531,12.2-4.84,14.237,3.109,7.708.447,10.514-16.522,10.514-16.522,4.742,16.958-3.747,29.326-22.435,31.049C646.337,668.062,639.518,652.349,641.746,639.976Z" transform="translate(-641.192 -601.082)" fill="#253d5c"/>
              <path id="Контур_7681" data-name="Контур 7681" d="M706.65,627.323a2.081,2.081,0,1,0-1.937-2.216A2.082,2.082,0,0,0,706.65,627.323Z" transform="translate(-683.348 -591.51)"/>
              <path id="Контур_7682" data-name="Контур 7682" d="M776.19,624.757a2.081,2.081,0,1,0-1.937-2.216A2.081,2.081,0,0,0,776.19,624.757Z" transform="translate(-770.071 -589.579)"/>
              <g id="Сгруппировать_13789" data-name="Сгруппировать 13789" transform="translate(1.701 26.835)">
                <path id="Контур_7683" data-name="Контур 7683" d="M769.4,607.658a1.031,1.031,0,0,0,.921-.445,3.08,3.08,0,0,1,2.014-1.463,3.73,3.73,0,0,1,2.5.747,1.032,1.032,0,0,0,1.291-1.612,5.809,5.809,0,0,0-4.082-1.18,5.037,5.037,0,0,0-3.429,2.339,1.032,1.032,0,0,0,.78,1.615Z" transform="translate(-768.436 -603.658)" fill="#253d5c"/>
              </g>
              <g id="Сгруппировать_13790" data-name="Сгруппировать 13790" transform="translate(20.629 27.791)">
                <path id="Контур_7684" data-name="Контур 7684" d="M697.614,612.23a1.032,1.032,0,0,0,.916-1.62,6.463,6.463,0,0,0-4.27-3.033,5.038,5.038,0,0,0-3.624.93,1.032,1.032,0,0,0,1.281,1.619,2.974,2.974,0,0,1,2.072-.5,4.559,4.559,0,0,1,2.847,2.166A1.029,1.029,0,0,0,697.614,612.23Z" transform="translate(-690.247 -607.529)" fill="#253d5c"/>
              </g>
              <g id="Сгруппировать_13792" data-name="Сгруппировать 13792" transform="translate(37.809 32.83)">
                <path id="Контур_7685" data-name="Контур 7685" d="M609.419,629.956c-2.576,2.451-3.039,6.147-1.033,8.255s5.72,1.831,8.3-.62,3.039-6.146,1.034-8.255S612,627.505,609.419,629.956Z" transform="translate(-607.139 -627.92)" fill="#febe9d"/>
                <g id="Сгруппировать_13791" data-name="Сгруппировать 13791" transform="translate(3.174 2.939)">
                  <path id="Контур_7686" data-name="Контур 7686" d="M623.365,646.16a.784.784,0,0,1-.3-.2,3.516,3.516,0,0,1-.7-4.261,3.746,3.746,0,0,1,3.944-1.808.777.777,0,1,1-.339,1.517,2.219,2.219,0,0,0-2.259,1.068,1.991,1.991,0,0,0,.494,2.431.778.778,0,0,1-.849,1.253Z" transform="translate(-621.932 -639.813)" fill="#de9068"/>
                </g>
              </g>
              <path id="Контур_7687" data-name="Контур 7687" d="M732.117,696.617c.086-.536-.035-1.045-.573-.976a43.665,43.665,0,0,1-11.594.093c-.539-.06-.667.454-.557.985a6.408,6.408,0,0,0,6.264,4.63C728.971,701.322,731.8,698.612,732.117,696.617Z" transform="translate(-710.238 -646.073)" fill="#fff"/>
            </g>
          </g>
        </g>
        <path id="Контур_7688" data-name="Контур 7688" d="M734.03,1797.44c-7.738,10.676-26.741,4.125-26.111,18.565h40.907a105.981,105.981,0,0,0-1.276-14.271Z" transform="translate(-671.414 -1475.625)"/>
        <path id="Контур_7689" data-name="Контур 7689" d="M559.058,1797.44c-7.738,10.676-26.74,4.125-26.111,18.565h40.907a105.882,105.882,0,0,0-1.276-14.271Z" transform="translate(-453.206 -1475.625)"/>
        <path id="Контур_7690" data-name="Контур 7690" d="M674.282,1136.676s-4.692,68.428-2.786,83.641,8.655,34.717,7.89,85.036c9.42,2.358,23.068,0,23.068,0s2.023-56.9-7.935-82.312c4.049-24.686,17.044-81.226,17.044-81.226Z" transform="translate(-625.043 -978.134)" fill="#253d5c"/>
        <path id="Контур_7691" data-name="Контур 7691" d="M527.81,1144.246s9.474,76.822,14.111,91.393,8.673,25.246,17.069,74.816c9.681.484,23.663.184,23.663.184s-1.265-61.416-16.343-75.716c-.51-25.033,2.438-90.184,2.438-90.184Z" transform="translate(-460.74 -983.834)" fill="#253d5c"/>
        <g id="v" transform="translate(42.985 69.414)">
          <path id="h-5" d="M631.982,779.786s-16.454-5.761-21.941-3.119c-17.049,8.209-20.959,0-20.959,0-5.448.47-21.894,3.119-21.894,3.119,0,18.366-1.226,36.8-.892,50.694.235,12.1-2.071,45.041-2.071,45.041s18.141,4.756,35.3,4.88c17.161-.111,34.627-4.687,34.627-4.687s-.917-33.36-1.679-45.759C632.723,816.056,631.982,798.1,631.982,779.786Z" transform="translate(-564.225 -775.974)" fill="#f7ce0e"/>
        </g>
        <g id="v-2-2" data-name="v" transform="translate(42.134 69.414)">
          <path id="h-5-2" data-name="h-5" d="M631.982,779.786s-16.454-5.761-21.941-3.119c-17.049,8.209-20.959,0-20.959,0-5.448.47-21.894,3.119-21.894,3.119,0,18.366-1.226,36.8-.892,50.694.235,12.1-2.071,45.041-2.071,45.041s18.141,4.756,35.3,4.88c17.161-.111,34.627-4.687,34.627-4.687s-.917-33.36-1.679-45.759C632.723,816.056,631.982,798.1,631.982,779.786Z" transform="translate(-564.225 -775.974)" fill="#f7ce0e"/>
        </g>
        <g id="c-2" data-name="c" transform="translate(15.242 73.226)">
          <path id="c-3" data-name="c" d="M817.774,818.7c6.792-16.2,26.945-26.511,29.249-27.3l4.675,20.8a121.792,121.792,0,0,0-16.71,11.919c1.191,5.792.992,11.473,4.345,18.8,0,0-2.912-4.018-6.5-1.64-3.492,2.312-9.916-2.407-9.916-2.407S812.586,831.076,817.774,818.7Z" transform="translate(-816.316 -791.402)" fill="#f7ce0e"/>
        </g>
        <g id="c-4" data-name="c" transform="translate(0 73.212)">
          <g id="c-5" data-name="c" transform="translate(0 6.291)">
            <g id="c-6" data-name="c">
              <path id="c-7" data-name="c" d="M775.115,878.775a1.857,1.857,0,0,1-.353.072h-.386a1.839,1.839,0,0,1-1.563-1.282l-18.106-58.374a1.559,1.559,0,0,1-.074-.583c0-.046,0-.093,0-.139s.017-.08.023-.12a1.832,1.832,0,0,1,1.26-1.458,1.763,1.763,0,0,1,.737-.074h45.579l18.265,62.03H775.083Z" transform="translate(-754.63 -816.806)" fill="#253d5c"/>
              <path id="c-8" data-name="c" d="M748.891,816.889a1.84,1.84,0,0,1,2.3,1.211l17.992,58.228.041.137a1.837,1.837,0,0,1-1.2,2.294l0,0a1.84,1.84,0,0,1-2.3-1.211L747.68,819.191A1.838,1.838,0,0,1,748.891,816.889Z" transform="translate(-701.705 -816.806)" fill="#253d5c"/>
            </g>
          </g>
          <path id="c-9" data-name="c" d="M974.708,930.053a1.9,1.9,0,0,0-.546-.237c.02-.028.041-.055.06-.084,1.134-1.71,1.058-3.756-.169-4.569a1.968,1.968,0,0,0-.655-.274,2.746,2.746,0,0,0-.843-3.056,2.061,2.061,0,0,0-1.177-.329,2.746,2.746,0,0,0-.9-3.2,3.22,3.22,0,0,0-3.5,5.287,2.3,2.3,0,0,0,1.016.366c-.817,1.592-.652,3.335.458,4.069a1.974,1.974,0,0,0,.654.274,2.747,2.747,0,0,0,.843,3.056,2.045,2.045,0,0,0,1.086.329,2.347,2.347,0,0,0,.715,2.832,2.719,2.719,0,0,0,2.96-4.465Z" transform="translate(-961.957 -886.644)" fill="#febe9d"/>
          <path id="Контур_7692" data-name="Контур 7692" d="M771.967,926.363l-4.155-2.407a7.852,7.852,0,0,0-7.822-6.035l1.865,6.035s-3.284,2.55-11.073-1.814c-7.614-1.711-4.362,3.84-6.885,4.239-3.724.588,2.714,7.905,10.317,9.025,9.837,1.449,11-.565,11-.565l5.566,1.945Z" transform="translate(-703.181 -886.644)" fill="#febe9d"/>
          <path id="c-10" data-name="c" d="M519.895,837.919c-13.887-.97-41.621-8.388-41.621-8.388-3.791,5.815-2.743,13.538-2.743,13.538,21.566,18.908,54.023,25.02,63.982,20.469,9.092-4.155,2.633-59.515-20.194-72.193Z" transform="translate(-408.617 -791.346)" fill="#eac413"/>
        </g>
        <path id="Контур_7693" data-name="Контур 7693" d="M841.83,837.741a3.364,3.364,0,1,0,1.668-4.8A3.614,3.614,0,0,0,841.83,837.741Z" transform="translate(-803.932 -749.291)" fill="#253d5c"/>
        <path id="Контур_7694" data-name="Контур 7694" d="M875.86,841.193a2.007,2.007,0,1,0,.995-2.866A2.155,2.155,0,0,0,875.86,841.193Z" transform="translate(-843.78 -753.413)" fill="#253d5c"/>
      </g>
      <rect id="Прямоугольник_2380" data-name="Прямоугольник 2380" width="92.781" height="115.007" transform="translate(311.328 225.374)" fill="#e2b90e"/>
      <rect id="Прямоугольник_2381" data-name="Прямоугольник 2381" width="94.966" height="142.246" transform="translate(384.993 198.135)" fill="#f7ce0e"/>
      <g id="Сгруппировать_13796" data-name="Сгруппировать 13796" transform="translate(347.005 243.405)">
        <rect id="Прямоугольник_2382" data-name="Прямоугольник 2382" width="96.975" height="96.976" fill="#faaf16"/>
        <rect id="Прямоугольник_2383" data-name="Прямоугольник 2383" width="45.013" height="18.433" transform="translate(12.593 15.898)" fill="#fac352"/>
        <rect id="Прямоугольник_2384" data-name="Прямоугольник 2384" width="19.648" height="19.648" transform="matrix(-0.875, -0.484, 0.484, -0.875, 81.17, 58.389)" fill="#ff9a16"/>
        <path id="Контур_7695" data-name="Контур 7695" d="M1139.942,1668.066a11.283,11.283,0,1,1-11.283-11.283A11.283,11.283,0,0,1,1139.942,1668.066Z" transform="translate(-1064.134 -1613.129)" fill="#fac352"/>
      </g>
    </g>
    <path id="Контур_7696" data-name="Контур 7696" d="M1799.467,137.4a30.754,30.754,0,0,0-46.024-25.269h0a15.474,15.474,0,0,0-30.5-2.431h0a26.033,26.033,0,0,0-30.361,15.914,19.414,19.414,0,0,0-22.131,5.746,3.711,3.711,0,0,0,2.9,6.039Z" transform="translate(-1426.995 -97.753)" fill="#e3eaff"/>
    <path id="Контур_7697" data-name="Контур 7697" d="M2942.2,362.522q0,.252.006.5h58.012a13.609,13.609,0,0,0-17.119-9.179,21.371,21.371,0,0,0-40.9,8.676Z" transform="translate(-2942.201 -281.01)" fill="#e3eaff"/>
    <path id="Контур_7698" data-name="Контур 7698" d="M2358.554,478.954c0,.221,0,.443.014.663h100.1c.01-.22.014-.442.014-.663a17.716,17.716,0,0,0-23-16.9,27.851,27.851,0,0,0-51.369,1.124,17.713,17.713,0,0,0-25.756,15.775Z" transform="translate(-2256.446 -359.586)" fill="#e3eaff"/>
    <path id="Контур_7699" data-name="Контур 7699" d="M52.9,390.495c0,.222,0,.444.014.663h100.1c.01-.22.014-.441.014-.663a17.716,17.716,0,0,0-23-16.9,27.85,27.85,0,0,0-51.369,1.124A17.713,17.713,0,0,0,52.9,390.495Z" transform="translate(618.932 -292.985)" fill="#e3eaff"/>
    <g id="Сгруппировать_13800" data-name="Сгруппировать 13800" transform="translate(159.462 126.761)">
      <path id="Контур_7700" data-name="Контур 7700" d="M2329.052,760.447c-1.237,11.746,10.861,47.674,50,48.942a158.033,158.033,0,0,0-4-15.5s-2.074-5.154-16.835-24.732C2345.325,752.058,2329.833,753.025,2329.052,760.447Z" transform="translate(-2328.967 -719.636)" fill="#f7ce0e"/>
      <path id="Контур_7701" data-name="Контур 7701" d="M2314.177,730.427s-3.758,30.17-3.938,46.435c5.179,5.951,7.6,12.094,15.127,13.746,5.985-15.118,5.758-34.725,1.643-56.474Z" transform="translate(-2275.281 -700.856)" fill="#f7ce0e"/>
      <g id="Сгруппировать_13799" data-name="Сгруппировать 13799" transform="translate(29.464)">
        <g id="Сгруппировать_13798" data-name="Сгруппировать 13798" transform="translate(3.744 3.042)">
          <path id="Контур_7702" data-name="Контур 7702" d="M2285.148,623.064l5.069,5.27,7.105,7.387,5.394,5.61-9.39,11.7-6.646-4.049-8.752-5.334-6.243-3.805Z" transform="translate(-2271.685 -623.064)" fill="#5487ff"/>
        </g>
        <path id="Контур_7703" data-name="Контур 7703" d="M2339.165,632.259l16.162-20.146-2.377-1.361-15.629,19.481Z" transform="translate(-2336.769 -610.752)" fill="#2f61d6"/>
        <path id="Контур_7704" data-name="Контур 7704" d="M2366.881,612.976l-13.16,16.4-1.785-1.978,12.627-15.739Z" transform="translate(-2351.936 -611.437)" fill="#2f61d6"/>
        <path id="Контур_7705" data-name="Контур 7705" d="M2273.418,696.99l1.891,1.966-8.952,11.159-2.33-1.42Z" transform="translate(-2238.642 -675.681)" fill="#2f61d6"/>
        <path id="Контур_7706" data-name="Контур 7706" d="M2305.8,644.39l7.105,7.387-10.642,13.265-8.752-5.334Z" transform="translate(-2283.528 -636.078)" fill="#2f61d6"/>
      </g>
      <path id="c-11" data-name="c" d="M2290.8,644.125a1.823,1.823,0,0,1,.062-.562c-.032,0-.064.008-.1.01-1.945.127-3.6-.9-3.686-2.3a1.88,1.88,0,0,1,.083-.669,2.609,2.609,0,0,1-2.121-2.139,1.959,1.959,0,0,1,.285-1.125,2.609,2.609,0,0,1-2.214-2.253,3.059,3.059,0,0,1,6.014-.392,2.18,2.18,0,0,1-.178,1.01c1.7.079,3.056,1.038,3.138,2.3a1.868,1.868,0,0,1-.083.669,2.609,2.609,0,0,1,2.121,2.139,1.93,1.93,0,0,1-.242,1.05,2.231,2.231,0,0,1,2,1.927,2.584,2.584,0,0,1-5.08.331Z" transform="translate(-2234.461 -627.021)" fill="#febe9d"/>
      <path id="Контур_7707" data-name="Контур 7707" d="M2329.241,681.88c.215-1.165-.2-3.075-1.952-5.035s.006-7.846-2.276-6.762-4.781,7.211-1.287,12.325a10.467,10.467,0,0,1,.4,2.678l11.621,3.337.71-1.952Z" transform="translate(-2284.652 -655.323)" fill="#febe9d"/>
    </g>
    <path id="Контур_7708" data-name="Контур 7708" d="M2306.865,1792.554l3.952,9.036,12.167-6.833-1.465-6.8Z" transform="translate(-2107.976 -1370.313)" fill="#fff"/>
    <path id="Контур_7709" data-name="Контур 7709" d="M2895.534,1699.021l6.619-6.537,12.207,8.722-6.865,4.312Z" transform="translate(-2844.81 -1298.43)" fill="#fff"/>
    <path id="Контур_7710" data-name="Контур 7710" d="M2209.375,1814.03c9.019,10.189,26.153-.773,27.47,14.342-28.367,3.285-40.121,4.924-40.121,4.924a117.758,117.758,0,0,1-.66-15.016Z" transform="translate(-1994.442 -1389.942)" fill="#253d5c"/>
    <path id="Контур_7711" data-name="Контур 7711" d="M2900.464,1725.437c-1.61,13.59,18.892,19.819,8.246,30.91-21.929-19.133-31.227-26.876-31.227-26.876a119.012,119.012,0,0,1,11.02-10.531Z" transform="translate(-2837.779 -1318.348)" fill="#253d5c"/>
    <path id="Контур_7712" data-name="Контур 7712" d="M2370.718,1109.415l-35.839,24.309s31.45,56.781,50.686,74.287c3.349,3.047,26.123-2.871,27.053-6.955C2416.01,1186.17,2370.718,1109.415,2370.718,1109.415Z" transform="translate(-2204.714 -859.436)" fill="#253d5c"/>
    <path id="Контур_7713" data-name="Контур 7713" d="M2288.834,1454.751c-1.485,28.536,20.082,78.873,20.082,78.873s13.2-1.616,21.328-6.878c-9.107-46.61-6.44-61.693-11.589-78.344C2311.427,1439.068,2290.99,1438.672,2288.834,1454.751Z" transform="translate(-2110.762 -1109.775)" fill="#253d5c"/>
    <path id="Контур_7714" data-name="Контур 7714" d="M2577.73,1113.911l-43.831-7.2s-10.039,49.441-7.488,87.435c.312,4.643,21.229,19.067,24.444,16.573C2562.573,1201.623,2577.73,1113.911,2577.73,1113.911Z" transform="translate(-2416.869 -857.4)" fill="#253d5c"/>
    <path id="Контур_7715" data-name="Контур 7715" d="M2685.328,1434.409c-25.149,13.747-56.2,62.85-56.2,62.85a50.236,50.236,0,0,0,12.291,12.292c37.62-29.679,55.484-44.119,67.512-54.685C2706.094,1442.74,2700.2,1427.824,2685.328,1434.409Z" transform="translate(-2573.557 -1102.91)" fill="#253d5c"/>
    <path id="Контур_7716" data-name="Контур 7716" d="M2490.135,686.088c1.842,3.616-17.888,3.458-19.211-3.586s6.468-24.268,6.468-24.268l16.7,6.968S2487.738,681.382,2490.135,686.088Z" transform="translate(-2319.59 -519.74)" fill="#febe9d"/>
    <g id="Сгруппировать_13805" data-name="Сгруппировать 13805" transform="translate(142.349 91.981)">
      <path id="Контур_7717" data-name="Контур 7717" d="M2401.3,519.009c.406,14.278,12.81,25.813,24.023,25.493s16.991-12.371,16.585-26.649-9.827-25.594-21.041-25.274S2400.894,504.731,2401.3,519.009Z" transform="translate(-2392.601 -486.995)" fill="#febe9d"/>
      <path id="Контур_7718" data-name="Контур 7718" d="M2432.124,613.483c.886,3.24,2.047,7.218,2.047,7.218a5.121,5.121,0,0,1-5.67,1.478c1.806-.182,3.719-.785,3.708-3.124S2432.124,613.483,2432.124,613.483Z" transform="translate(-2391.569 -578.029)" fill="#de9068"/>
      <path id="Контур_7719" data-name="Контур 7719" d="M2362.184,510.479c6.469-7.073,2.786-16.195,2.786-16.195,3.564-.241,4.755,1.137,4.755,1.137,2.4-3.642,1.3-6.621,1.3-6.621,7.545-1.858,10.511,3.258,16.782,5.671,8.588,3.306,20.006,1.2,22.449-9.491a1.865,1.865,0,0,0-2.66-2.084,8.221,8.221,0,0,1-5.016.78,8.779,8.779,0,0,0,2.607-4.74,1.863,1.863,0,0,0-2.864-1.838c-2.044,1.293-5.655,2.3-11.6.355-3.959-1.292-11.682-7.937-17.636-7.425-4.868.419-9.869,2.883-12.24,8.435,0,0-9.7-.278-12.5,12.378-4.074,18.364,14.4,27.387,14.4,27.387A72.513,72.513,0,0,0,2362.184,510.479Z" transform="translate(-2347.753 -470)" fill="#253d5c"/>
      <g id="Сгруппировать_13802" data-name="Сгруппировать 13802" transform="translate(9.382 29.991)">
        <path id="Контур_7720" data-name="Контур 7720" d="M2525.454,592.8c2.683,2.021,3.517,5.439,1.863,7.634s-5.17,2.337-7.853.316-3.516-5.439-1.863-7.635S2522.771,590.779,2525.454,592.8Z" transform="translate(-2516.752 -591.372)" fill="#febe9d"/>
        <g id="Сгруппировать_13801" data-name="Сгруппировать 13801" transform="translate(3.36 2.748)">
          <path id="Контур_7721" data-name="Контур 7721" d="M2533.056,608.228a.733.733,0,0,0,.256-.22,3.319,3.319,0,0,0,.192-4.074,3.538,3.538,0,0,0-3.9-1.271.735.735,0,0,0,.483,1.388,2.1,2.1,0,0,1,2.235.758,1.88,1.88,0,0,1-.2,2.335.735.735,0,0,0,.932,1.084Z" transform="translate(-2529.114 -602.492)" fill="#de9068"/>
        </g>
      </g>
      <path id="Контур_7722" data-name="Контур 7722" d="M2464.769,605.268c-.089.761-1.04,1.276-2.125,1.149s-1.891-.846-1.8-1.607,1.041-1.276,2.125-1.15S2464.858,604.507,2464.769,605.268Z" transform="translate(-2430.162 -570.619)"/>
      <path id="Контур_7723" data-name="Контур 7723" d="M2411.1,611.491c-.084.718-.982,1.2-2.005,1.085s-1.785-.8-1.7-1.517.981-1.2,2-1.084S2411.182,610.773,2411.1,611.491Z" transform="translate(-2363.284 -575.373)"/>
      <g id="Сгруппировать_13803" data-name="Сгруппировать 13803" transform="translate(28.528 28.567)">
        <path id="Контур_7724" data-name="Контур 7724" d="M2455.508,588.5a1.03,1.03,0,0,1-.284-1.971,12.878,12.878,0,0,1,6.113-.826,1.03,1.03,0,0,1-.289,2.04,10.923,10.923,0,0,0-5.023.685A1.028,1.028,0,0,1,2455.508,588.5Z" transform="translate(-2454.596 -585.61)" fill="#253d5c"/>
      </g>
      <g id="Сгруппировать_13804" data-name="Сгруппировать 13804" transform="translate(43.015 29.637)">
        <path id="Контур_7725" data-name="Контур 7725" d="M2405.951,593.846a1.02,1.02,0,0,1-.593-.28,5.3,5.3,0,0,0-3.65-1.565,1.03,1.03,0,0,1-.123-2.056,7.367,7.367,0,0,1,5.2,2.134,1.03,1.03,0,0,1-.833,1.767Z" transform="translate(-2400.625 -589.94)" fill="#253d5c"/>
      </g>
      <path id="Контур_7726" data-name="Контур 7726" d="M2444.687,665.18a2.221,2.221,0,1,1-2.06-2.042A2.062,2.062,0,0,1,2444.687,665.18Z" transform="translate(-2405.004 -615.409)" fill="#de9068"/>
    </g>
    <path id="Контур_7727" data-name="Контур 7727" d="M2495.573,816.637c-10.821,10.461-40.555-3.272-54.082-7.375-4.786-11.4,2.613-47.267,4.917-59,4.016-20.449,13.458-34.635,30.722-38.622,1.8,3.719,12.263,18.209,17.567,9.022,11.094,3.784,11.833,24.333,11.9,36.435.062,12.272-3.935,25.615-5.992,37.713C2498.316,808.246,2495.573,814.178,2495.573,816.637Z" transform="translate(-2324.46 -559.951)" fill="#f7ce0e"/>
    <g id="Сгруппировать_13808" data-name="Сгруппировать 13808" transform="translate(117.842 159.05)">
      <g id="Сгруппировать_13807" data-name="Сгруппировать 13807" transform="translate(6.26 119.759)">
        <path id="Контур_7728" data-name="Контур 7728" d="M2436.346,1305.908l-62.8,8.55a4.613,4.613,0,0,1-5.192-3.948l-3.851-28.287-1.061-7.789a4.613,4.613,0,0,1,3.948-5.191l62.8-8.549a4.612,4.612,0,0,1,5.192,3.946l1.062,7.8,3.85,28.28A4.61,4.61,0,0,1,2436.346,1305.908Z" transform="translate(-2363.401 -1252.112)" fill="#2e4966"/>
        <path id="Контур_7729" data-name="Контур 7729" d="M2452.2,1272.436l-31.891,16.087a6.277,6.277,0,0,1-4.055.552c-7.878-1.572-35.05-6.937-35.618-6.3l-.375-.554-1.061-7.789a4.612,4.612,0,0,1,3.948-5.191l62.8-8.549a4.612,4.612,0,0,1,5.192,3.946Z" transform="translate(-2379.154 -1252.112)" fill="#284259"/>
        <g id="Сгруппировать_13806" data-name="Сгруппировать 13806" transform="translate(19.438)">
          <path id="Контур_7730" data-name="Контур 7730" d="M2480.472,1243.406c-.068-.249-.145-.513-.226-.79-.73-2.506-1.834-6.292.288-9.838,1.768-2.953,5.311-4.956,10.832-6.125,5.765-1.22,10.191-.463,13.154,2.251,4.345,3.978,3.606,10.548,3.573,10.825l-4.107-.489c.005-.047.506-4.774-2.274-7.3-1.924-1.748-5.117-2.165-9.49-1.24-4.273.9-7.01,2.318-8.138,4.2-1.2,2-.459,4.525.134,6.556.087.3.171.589.245.86Z" transform="translate(-2479.3 -1226.089)" fill="#284259"/>
        </g>
      </g>
      <path id="Контур_7731" data-name="Контур 7731" d="M2539.162,1200.184c-1.77.437-3.833-.115-4.462-2.272-.744-2.546,4.019-1.636,4.019-1.636-.425-3.246-5.448-5.116-7.542-4.053l-2.991-5.881-9.26,6.892,3.726,4.989c-.1,10.826,8.713,9.506,12.7,7.582C2538.652,1204.216,2540.638,1202.2,2539.162,1200.184Z" transform="translate(-2494.89 -1076.404)" fill="#febe9d"/>
      <path id="Контур_7732" data-name="Контур 7732" d="M2566.505,741.972c-11.307,4.789-24.174,20.968-27.048,62.225,14.9,7.228,25.592,3.444,25.592,3.444s6.271-16.228,12.233-37.681S2573.65,738.945,2566.505,741.972Z" transform="translate(-2539.458 -741.425)" fill="#f7ce0e"/>
      <path id="Контур_7733" data-name="Контур 7733" d="M2591.467,1042.69s-10.788-32.137-9.865-48.98c-7.868-3.638-17.5-3.524-25.786-1.8.8,17.848,7.454,42.522,25.755,57.87C2584.5,1044.476,2591.467,1042.69,2591.467,1042.69Z" transform="translate(-2555.816 -929.142)" fill="#f7ce0e"/>
    </g>
  </g>
</svg>
