<svg xmlns="http://www.w3.org/2000/svg" width="334" height="334" viewBox="0 0 334 334">
  <g id="Сгруппировать_13811" data-name="Сгруппировать 13811" transform="translate(-225 -1502)">
    <circle id="Эллипс_51" data-name="Эллипс 51" cx="167" cy="167" r="167" transform="translate(225 1502)" fill="#f7ce0e" opacity="0.116"/>
    <g id="Сгруппировать_13779" data-name="Сгруппировать 13779" transform="translate(231.82 1520.192)">
      <ellipse id="Эллипс_154" data-name="Эллипс 154" cx="148.397" cy="11.593" rx="148.397" ry="11.593" transform="translate(3.567 218.805)" fill="#3f3d56" opacity="0.014"/>
      <path id="Контур_7654" data-name="Контур 7654" d="M764.32,582.992l1.391,10.2-9.736.927,1.391-12.518Z" transform="translate(-486.301 -374.131)" fill="#a0616a"/>
      <path id="Контур_7655" data-name="Контур 7655" d="M812.237,303.812s.927,12.518.927,12.981-6.491,32.453-6.491,32.453-9.272,17.618,0,17.154,6.491-16.69,6.491-16.69l9.736-26.89-4.173-19.008Z" transform="translate(-580.117 -234.965)" fill="#a0616a"/>
      <path id="Контур_7656" data-name="Контур 7656" d="M691.083,582.992l-1.391,10.2,9.736.927L698.037,581.6Z" transform="translate(-443.663 -374.131)" fill="#a0616a"/>
      <path id="Контур_7657" data-name="Контур 7657" d="M837.4,424.4l-2.318,3.245s-1.391,13.909,0,18.545,4.173,25.963,4.173,27.354.464,2.318,0,2.782-1.854.464-.927,1.391.927,3.709.927,3.709v2.318l6.027,34.308s-3.709,4.173-.927,4.173,12.981,0,12.518-4.636l-.927-.464s-1.391-30.6-.927-31.99a11.837,11.837,0,0,0,0-4.173s-.927-1.391,0-1.854.927-4.173.927-4.173l4.173-28.281s3.709,19.008,6.027,20.863S868,474.008,868,474.008l1.854,40.8s-1.854,4.636,0,5.563,9.736,4.173,10.2-.464,2.782-44.971,2.782-46.826-.464-2.782,0-4.173-.464-1.391,0-1.391-.927-1.391-.927-2.318V442.482s.464-4.636.927-5.563-.464-1.854,0-3.245-.927-6.027-.927-6.027l-20.863-5.563Z" transform="translate(-600.647 -311.045)" fill="#2f2e41"/>
      <path id="Контур_7658" data-name="Контур 7658" d="M864.432,715.526s2.318-2.318-.927-2.318a15.09,15.09,0,0,0-6.027,1.391l-2.318,8.345s-9.5,7.65,1.159,6.723,9.041-.232,9.041-.232,3.245-.927,3.709-1.854-.927-14.372-.927-14.372S866.75,716.917,864.432,715.526Z" transform="translate(-611.449 -498.319)" fill="#2f2e41"/>
      <path id="Контур_7659" data-name="Контур 7659" d="M933.11,715.526s-2.318-2.318.927-2.318a15.089,15.089,0,0,1,6.027,1.391l2.318,8.345s9.5,7.65-1.159,6.722-10.432-.232-10.432-.232-3.245-.927-3.709-1.854,2.318-14.372,2.318-14.372S930.792,716.917,933.11,715.526Z" transform="translate(-660.191 -498.319)" fill="#2f2e41"/>
      <circle id="Эллипс_155" data-name="Эллипс 155" cx="12.054" cy="12.054" r="12.054" transform="translate(230.729 8.113)" fill="#a0616a"/>
      <path id="Контур_7660" data-name="Контур 7660" d="M847.9,183.681s1.854,9.272,1.854,10.663,7.882,5.563,7.882,5.563l8.809-11.127s-5.563-7.882-5.563-9.736Z" transform="translate(-609.286 -154.704)" fill="#a0616a"/>
      <path id="Контур_7661" data-name="Контур 7661" d="M834.786,208.329s-4.041-1.076-5.266-2.856c0,0-12.816,12.592-12.816,14.91l10.2,18.081s0,6.491.927,6.954,0,0,0,1.854-2.782,13.909-1.854,15.763,1.854.464.927,3.245-3.245,17.618-3.245,17.618,8.345-2.782,20.4,1.854,26.426-1.854,26.426-1.854-3.709-8.345-2.782-11.127-2.318-7.882-2.318-7.882l-2.318-42.653s3.245-19.008.927-19.936l-4.636-1.855-14.847-1.825S840.813,207.865,834.786,208.329Z" transform="translate(-589.221 -167.299)" fill="#d0cde1"/>
      <path id="Контур_7662" data-name="Контур 7662" d="M819.483,250.526l-4.636,3.245s-2.318,6.954,0,10.2a23.776,23.776,0,0,1,3.245,7.882l9.272-.927Z" transform="translate(-587.363 -200.687)" fill="#d0cde1"/>
      <path id="Контур_7663" data-name="Контур 7663" d="M826.486,118.24,824.4,117.4s4.372-4.813,10.455-4.395l-1.711-1.883s4.182-1.674,7.984,2.721a37.1,37.1,0,0,1,5.752,8.085h2.239l-.935,2.058,3.271,2.058-3.357-.37a11.387,11.387,0,0,1-.318,5.33l.09,1.627s-3.892-6.021-3.892-6.858v2.093s-2.091-1.883-2.091-3.139l-1.141,1.465-.57-2.3-7.033,2.3,1.141-1.883-4.372.628,1.711-2.3s-4.942,2.721-5.132,5.023-2.661,5.232-2.661,5.232l-1.14-2.093S820.974,121.379,826.486,118.24Z" transform="translate(-592.906 -110.812)" fill="#2f2e41"/>
      <rect id="Прямоугольник_2332" data-name="Прямоугольник 2332" width="184.234" height="129.418" transform="translate(52.142 100.893)" fill="#f2f2f2"/>
      <rect id="Прямоугольник_2333" data-name="Прямоугольник 2333" width="46.259" height="80.753" transform="translate(67.651 150.272)" fill="#3f3d56"/>
      <rect id="Прямоугольник_2334" data-name="Прямоугольник 2334" width="12.461" height="11.616" transform="translate(76.207 155.116)" fill="#f2f2f2"/>
      <rect id="Прямоугольник_2335" data-name="Прямоугольник 2335" width="12.461" height="11.616" transform="translate(92.892 155.116)" fill="#f2f2f2"/>
      <rect id="Прямоугольник_2336" data-name="Прямоугольник 2336" width="12.461" height="12.039" transform="translate(76.207 170.956)" fill="#f2f2f2"/>
      <rect id="Прямоугольник_2337" data-name="Прямоугольник 2337" width="12.461" height="12.039" transform="translate(92.892 170.956)" fill="#f2f2f2"/>
      <circle id="Эллипс_156" data-name="Эллипс 156" cx="2.941" cy="2.941" r="2.941" transform="translate(105.086 193.143)" fill="#f7ce0e"/>
      <rect id="Прямоугольник_2338" data-name="Прямоугольник 2338" width="91.449" height="76.742" transform="translate(129.419 142.606)" fill="#3f3d56"/>
      <path id="Контур_7664" data-name="Контур 7664" d="M314.938,239.15H92.2L107.05,208.1l3.324-6.952,4.348-9.091,3.324-6.952,3.853-8.054h175.49l2.276,8.054,1.965,6.952,2.57,9.091,1.965,6.952Z" transform="translate(-59.31 -113.893)" fill="#3f3d56"/>
      <rect id="Прямоугольник_2339" data-name="Прямоугольник 2339" width="3.209" height="19.787" transform="translate(132.627 174.426)" fill="#f7ce0e"/>
      <rect id="Прямоугольник_2340" data-name="Прямоугольник 2340" width="3.209" height="2.407" transform="translate(132.627 177.367)" fill="#f2f2f2"/>
      <rect id="Прямоугольник_2341" data-name="Прямоугольник 2341" width="3.209" height="2.407" transform="translate(132.627 188.865)" fill="#f2f2f2"/>
      <rect id="Прямоугольник_2342" data-name="Прямоугольник 2342" width="7.754" height="19.787" transform="translate(137.44 174.426)" fill="#f7ce0e"/>
      <rect id="Прямоугольник_2343" data-name="Прямоугольник 2343" width="7.754" height="2.407" transform="translate(137.44 177.367)" fill="#f2f2f2"/>
      <rect id="Прямоугольник_2344" data-name="Прямоугольник 2344" width="7.754" height="2.407" transform="translate(137.44 188.865)" fill="#f2f2f2"/>
      <rect id="Прямоугольник_2345" data-name="Прямоугольник 2345" width="3.209" height="19.787" transform="translate(147.067 174.426)" fill="#f7ce0e"/>
      <rect id="Прямоугольник_2346" data-name="Прямоугольник 2346" width="3.209" height="2.407" transform="translate(147.067 177.367)" fill="#f2f2f2"/>
      <rect id="Прямоугольник_2347" data-name="Прямоугольник 2347" width="3.209" height="2.407" transform="translate(147.067 188.865)" fill="#f2f2f2"/>
      <rect id="Прямоугольник_2348" data-name="Прямоугольник 2348" width="3.209" height="19.787" transform="translate(151.88 174.426)" fill="#f7ce0e"/>
      <rect id="Прямоугольник_2349" data-name="Прямоугольник 2349" width="3.209" height="2.407" transform="translate(151.88 177.367)" fill="#f2f2f2"/>
      <rect id="Прямоугольник_2350" data-name="Прямоугольник 2350" width="3.209" height="2.407" transform="translate(151.88 188.865)" fill="#f2f2f2"/>
      <rect id="Прямоугольник_2351" data-name="Прямоугольник 2351" width="3.209" height="19.787" transform="translate(155.18 175.627) rotate(-20.654)" fill="#f7ce0e"/>
      <rect id="Прямоугольник_2352" data-name="Прямоугольник 2352" width="3.209" height="2.407" transform="translate(156.217 178.38) rotate(-20.654)" fill="#f2f2f2"/>
      <rect id="Прямоугольник_2353" data-name="Прямоугольник 2353" width="3.209" height="2.407" transform="translate(160.273 189.138) rotate(-20.654)" fill="#f2f2f2"/>
      <rect id="Прямоугольник_2354" data-name="Прямоугольник 2354" width="7.754" height="19.787" transform="translate(210.171 174.426)" fill="#f7ce0e"/>
      <rect id="Прямоугольник_2355" data-name="Прямоугольник 2355" width="7.754" height="2.407" transform="translate(210.171 177.367)" fill="#f2f2f2"/>
      <rect id="Прямоугольник_2356" data-name="Прямоугольник 2356" width="7.754" height="2.407" transform="translate(210.171 188.865)" fill="#f2f2f2"/>
      <rect id="Прямоугольник_2357" data-name="Прямоугольник 2357" width="3.209" height="19.787" transform="translate(205.091 174.426)" fill="#f7ce0e"/>
      <rect id="Прямоугольник_2358" data-name="Прямоугольник 2358" width="3.209" height="2.407" transform="translate(205.091 177.367)" fill="#f2f2f2"/>
      <rect id="Прямоугольник_2359" data-name="Прямоугольник 2359" width="3.209" height="2.407" transform="translate(205.091 188.865)" fill="#f2f2f2"/>
      <rect id="Прямоугольник_2360" data-name="Прямоугольник 2360" width="3.209" height="19.787" transform="translate(200.278 174.426)" fill="#f7ce0e"/>
      <rect id="Прямоугольник_2361" data-name="Прямоугольник 2361" width="3.209" height="2.407" transform="translate(200.278 177.367)" fill="#f2f2f2"/>
      <rect id="Прямоугольник_2362" data-name="Прямоугольник 2362" width="3.209" height="2.407" transform="translate(200.278 188.865)" fill="#f2f2f2"/>
      <rect id="Прямоугольник_2363" data-name="Прямоугольник 2363" width="19.787" height="3.209" transform="translate(190.208 193.011) rotate(-69.346)" fill="#f7ce0e"/>
      <rect id="Прямоугольник_2364" data-name="Прямоугольник 2364" width="2.407" height="3.209" transform="translate(195.301 179.5) rotate(-69.346)" fill="#f2f2f2"/>
      <rect id="Прямоугольник_2365" data-name="Прямоугольник 2365" width="2.407" height="3.209" transform="translate(191.246 190.259) rotate(-69.346)" fill="#f2f2f2"/>
      <rect id="Прямоугольник_2366" data-name="Прямоугольник 2366" width="91.449" height="1.872" transform="translate(129.419 194.213)" fill="#f2f2f2"/>
      <rect id="Прямоугольник_2367" data-name="Прямоугольник 2367" width="16.846" height="19.787" transform="translate(169.26 174.426)" fill="#f7ce0e"/>
      <rect id="Прямоугольник_2368" data-name="Прямоугольник 2368" width="8.557" height="3.744" transform="translate(173.405 178.704)" fill="#f2f2f2"/>
      <rect id="Прямоугольник_2369" data-name="Прямоугольник 2369" width="1.604" height="17.113" transform="translate(174.341 142.606)" fill="#f2f2f2"/>
      <circle id="Эллипс_157" data-name="Эллипс 157" cx="2.674" cy="2.674" r="2.674" transform="translate(172.469 157.045)" fill="#f2f2f2"/>
      <path id="Контур_7665" data-name="Контур 7665" d="M342.245,206.58H155.337l3.324-6.952H340.28Z" transform="translate(-99.925 -128.416)" fill="#f7ce0e"/>
      <path id="Контур_7666" data-name="Контур 7666" d="M332.945,251.555H133.831l3.324-6.952H330.98Z" transform="translate(-86.09 -157.348)" fill="#f7ce0e"/>
      <path id="Контур_7667" data-name="Контур 7667" d="M843.708,262.223a35.462,35.462,0,0,0-2.124,13.734,7.238,7.238,0,0,0,1.2,3.42h0L809.89,294.992s-14.862,1.539-11.153,8.029,17.154-3.245,17.154-3.245,35.235-5.1,38.017-10.2,4.636-26.426,4.636-26.426Z" transform="translate(-577.28 -208.211)" fill="#a0616a"/>
      <path id="Контур_7668" data-name="Контур 7668" d="M923.924,208.937h6.954s5.1.927,6.491,10.2,2.782,11.591,1.391,11.591-18.081-.464-18.081-.927S923.924,208.937,923.924,208.937Z" transform="translate(-656.105 -173.933)" fill="#d0cde1"/>
    </g>
  </g>
</svg>
