<svg id="Компонент_6_2" data-name="Компонент 6 – 2" xmlns="http://www.w3.org/2000/svg" width="336" height="94.134" viewBox="0 0 336 94.134">
  <g id="Компонент_4_12" data-name="Компонент 4 – 12">
    <path id="Контур_2253" data-name="Контур 2253" d="M240.039,191.293c0-14.349,9.906-24,24.045-24,13.959,0,23.686,9.294,23.686,23.914v15.611a6.221,6.221,0,0,1-6.215,6.227h0a6.22,6.22,0,0,1-6.214-6.227V205.64c-2.341,5.507-7.385,8.574-13.777,8.574C251.656,214.214,240.039,206.814,240.039,191.293Zm34.221-.542c0-6.406-4.142-10.829-10.267-10.829s-10.266,4.423-10.266,10.829,4.143,10.83,10.266,10.83S274.26,197.159,274.26,190.751Z" transform="translate(-158.211 -150.144)" fill="#fff"/>
    <path id="Контур_2254" data-name="Контур 2254" d="M277.288,191.293c0-14.349,9.906-24,24.045-24,13.959,0,23.686,9.294,23.686,23.914v15.611a6.22,6.22,0,0,1-6.214,6.227h0a6.221,6.221,0,0,1-6.215-6.227V205.64c-2.341,5.507-7.384,8.574-13.777,8.574C288.9,214.214,277.288,206.814,277.288,191.293Zm34.222-.542c0-6.406-4.143-10.829-10.267-10.829s-10.266,4.423-10.266,10.829,4.142,10.83,10.266,10.83S311.51,197.159,311.51,190.751Z" transform="translate(-140.715 -150.144)" fill="#fff"/>
    <path id="Контур_2255" data-name="Контур 2255" d="M378.618,168.882a6.557,6.557,0,0,0-6.259,4.62l-8.385,27.054-8.347-26.936a6.712,6.712,0,0,0-5.763-4.685c-.019,0-.038,0-.057,0-.2-.018-.4-.049-.6-.049-.031,0-.062.006-.093.006s-.062-.006-.093-.006c-.2,0-.4.029-.6.049-.026,0-.054,0-.081.006a6.547,6.547,0,0,0-5.579,4.565l-8.385,27.054-8.346-26.936a6.723,6.723,0,1,0-12.747,4.269l9.954,27.84a11.633,11.633,0,0,0,21.919,0L349,194.995l3.837,10.735a11.635,11.635,0,0,0,21.921,0l10.035-28.064A6.567,6.567,0,0,0,378.618,168.882Z" transform="translate(-123.995 -149.39)" fill="#fff"/>
    <path id="Контур_2256" data-name="Контур 2256" d="M364.552,190.751c0-13.536,9.906-23.462,23.955-23.462s23.685,9.926,23.685,23.462h0a3.786,3.786,0,0,1-3.783,3.791H378.6c1.082,5.234,5.044,7.58,9.907,7.58,3.1,0,5.561-.52,7.3-1.975a6.014,6.014,0,0,1,3.889-1.274h0a5.986,5.986,0,0,1,3.567,10.786,24.631,24.631,0,0,1-14.756,4.555C374.458,214.214,364.552,204.288,364.552,190.751Zm33.771-4.782c-1.53-4.6-5.134-6.587-9.816-6.587s-8.285,2.075-9.635,6.587Z" transform="translate(-99.725 -150.144)" fill="#fff"/>
    <path id="Контур_2257" data-name="Контур 2257" d="M408.476,155.647h0a6.76,6.76,0,0,1,6.753,6.767v50.535a6.761,6.761,0,0,1-6.753,6.769h0a6.762,6.762,0,0,1-6.755-6.769V162.414A6.761,6.761,0,0,1,408.476,155.647Z" transform="translate(-82.266 -155.647)" fill="#fff"/>
    <g id="Сгруппировать_13777" data-name="Сгруппировать 13777" transform="translate(0 0.167)">
      <path id="Контур_2258" data-name="Контур 2258" d="M228.009,164.126c-9.076-9.57-24.854-9.328-35.175.5a26.744,26.744,0,0,0-8.438,18.34.515.515,0,0,0-.019.2c-.021.33-.015.635-.009.94l.413,27.606a6.832,6.832,0,1,0,13.664-.107l-.425-27.7c-.019-.318-.037-.663-.043-.966v-.053a12.21,12.21,0,0,1,3.84-8.782c4.674-4.464,11.843-4.568,15.923-.225l5.485,5.779,2.121,2.234a7.057,7.057,0,0,0,10.016.227h0a7.091,7.091,0,0,0,.231-9.981Z" transform="translate(-184.363 -155.127)" fill="#fff"/>
      <path id="Контур_2259" data-name="Контур 2259" d="M212.485,162.231l7.907-6.007c1.332-1.012,3.533-.262,3.607,1.227l1,20.558-13.971-9.945Z" transform="translate(-171.837 -155.76)" fill="#fff"/>
      <path id="Контур_2260" data-name="Контур 2260" d="M209.666,164.4l-7.828,6.112c-1.318,1.028-1.164,3.353.254,3.807l19.566,6.262-6-16.088Z" transform="translate(-176.58 -151.677)" fill="#fff"/>
      <g id="Сгруппировать_13776" data-name="Сгруппировать 13776" transform="translate(21.65 1.652)">
        <path id="Контур_2261" data-name="Контур 2261" d="M208.236,210.167c8.785,9.838,24.562,10.072,35.172.558a26.742,26.742,0,0,0,8.986-18.078.53.53,0,0,0,.024-.2c.031-.328.034-.633.038-.938l.414-27.606a6.832,6.832,0,1,0-13.661-.3l-.407,27.7c.01.318.018.663.015.968l0,.053a12.222,12.222,0,0,1-4.1,8.663c-4.806,4.319-11.975,4.209-15.923-.256l-5.31-5.941-2.052-2.3a7.058,7.058,0,0,0-10.006-.527h0a7.09,7.09,0,0,0-.529,9.969Z" transform="translate(-199.094 -156.882)" fill="#f7ce0e"/>
        <path id="Контур_2262" data-name="Контур 2262" d="M211.148,200.021l-8.083,5.767c-1.361.971-3.541.156-3.568-1.334l-.387-20.578,13.667,10.361Z" transform="translate(-199.087 -144.121)" fill="#f7ce0e"/>
        <path id="Контур_2263" data-name="Контур 2263" d="M216.247,196.059l8.009-5.872c1.348-.988,1.262-3.318-.141-3.813l-19.369-6.848,5.51,16.26Z" transform="translate(-196.44 -146.178)" fill="#f7ce0e"/>
      </g>
    </g>
  </g>
  <text id="anywhere_anytime..." data-name="anywhere, anytime..." transform="translate(182 90.134)" fill="#fff" font-size="15" font-family="SegoeUI, Segoe UI"><tspan x="0" y="0">anywhere, anytime...</tspan></text>
</svg>
