<svg width="30" height="24" viewBox="0 0 30 24" fill="none" xmlns="http://www.w3.org/2000/svg">
<path d="M29.6995 5.63953C29.6995 5.53935 29.399 3.33571 28.4474 2.28396C27.2955 1.03189 26.0434 0.881644 25.3924 0.831522H25.192C21.1353 0.531021 15.0752 0.480957 14.975 0.480957C14.925 0.480957 8.81476 0.531021 4.80807 0.931708H4.65782C3.95657 0.981772 2.70451 1.13202 1.60269 2.38409C0.601001 3.43584 0.300501 5.6896 0.300501 5.78978C0.300501 5.78978 0 8.34404 0 10.8983V13.2522C0 15.7564 0.300501 18.3107 0.300501 18.3607C0.300501 18.4609 0.601001 20.6646 1.55257 21.7163C2.60432 22.9183 3.85639 23.0686 4.65776 23.1688C4.80801 23.1688 4.9082 23.1688 5.05845 23.2188C7.36227 23.4191 14.6745 23.5193 14.975 23.5193C15.025 23.5193 21.1352 23.5193 25.192 23.0686H25.3422C26.0434 23.0185 27.2955 22.8683 28.3973 21.6161C29.399 20.5644 29.6995 18.3106 29.6995 18.2104C29.6995 18.2104 30 15.6562 30 13.1019V10.748C30 8.24385 29.6995 5.6896 29.6995 5.63953ZM28.9983 13.2021C28.9983 15.7063 28.6978 18.2104 28.6978 18.2104C28.5976 18.7614 28.2971 20.364 27.6461 21.0652C26.7946 22.0669 25.793 22.167 25.2421 22.2171H25.0918C21.0851 22.5176 15.025 22.5176 14.975 22.5176C14.9249 22.5176 7.41239 22.4174 5.2087 22.1671C5.05845 22.1671 4.9082 22.117 4.75795 22.117C4.05676 22.0669 3.05513 21.9167 2.25375 21.0152C1.65275 20.3641 1.30219 18.7614 1.25207 18.2105C1.25207 18.1604 0.951566 15.6562 0.951566 13.2022V10.8482C0.951566 8.34404 1.25207 5.8399 1.25207 5.8399C1.30213 5.28897 1.65275 3.68634 2.25375 2.98515C3.15526 1.98346 4.10682 1.88327 4.70782 1.83321H4.85807C8.86477 1.53271 14.9248 1.48265 14.9749 1.48265C15.025 1.48265 21.0851 1.53271 25.0917 1.83321H25.2921C25.843 1.88327 26.8446 1.98346 27.6961 2.98515C28.2971 3.68634 28.5976 5.28897 28.6978 5.8399C28.7478 5.94009 28.9983 8.44422 28.9983 10.8482V13.2021H28.9983Z" fill="white"/>
<path d="M21.2353 12.0502L11.7195 6.49091C11.5693 6.39072 11.3689 6.39072 11.2187 6.49091C11.0684 6.5911 10.9683 6.74135 10.9683 6.94166V17.8097C10.9683 18.0101 11.0684 18.1603 11.2187 18.2605C11.3189 18.3106 11.3689 18.3106 11.4691 18.3106C11.5693 18.3106 11.6194 18.3106 11.7196 18.2605L21.2354 12.9517C21.3857 12.8515 21.4858 12.7012 21.4858 12.5009C21.4858 12.3006 21.3856 12.1503 21.2353 12.0502ZM11.97 16.9583V7.79304L19.9833 12.5009L11.97 16.9583Z" fill="white"/>
</svg>
