<svg width="26" height="27" viewBox="0 0 26 27" fill="none" xmlns="http://www.w3.org/2000/svg">
<path d="M23.8333 0.879883H2.16668C0.953317 0.879883 0 1.8332 0 3.04657V24.7133C0 25.9266 0.953317 26.8799 2.16668 26.8799H12.1334H17.3334H23.8334C25.0467 26.8799 26 25.9266 26 24.7132V3.04657C26 1.8332 25.0467 0.879883 23.8333 0.879883ZM13 26.0132V17.3466H9.53332V13.8799H13V10.8466C13 8.37657 14.9067 6.29657 17.3333 6.07988H21.2333V9.54657H17.7666C17.0299 9.54657 16.4666 10.1099 16.4666 10.8466V13.8799H20.8V17.3466H16.4667V26.0133L13 26.0132ZM25.1333 24.7132C25.1333 25.4499 24.57 26.0132 23.8333 26.0132H17.3333V18.2132H21.6666V13.0132H17.3333V10.8465C17.3333 10.5865 17.5066 10.4132 17.7666 10.4132H22.1V5.2132H17.29C14.3867 5.4732 12.1333 7.9432 12.1333 10.8465V13.0132H8.66663V18.2132H12.1333V26.0132H2.16668C1.43 26.0132 0.866684 25.4499 0.866684 24.7132V3.04657C0.866684 2.30988 1.43 1.74657 2.16668 1.74657H23.8334C24.5701 1.74657 25.1334 2.30988 25.1334 3.04657L25.1333 24.7132Z" fill="white"/>
</svg>
