<svg width="27" height="23" viewBox="0 0 27 23" fill="none" xmlns="http://www.w3.org/2000/svg">
<path d="M1.46875 12.5937L23.2885 12.5937L14.9334 20.5519C14.4959 20.9686 14.4789 21.6609 14.8956 22.0984C15.3118 22.5354 16.0041 22.5529 16.4422 22.1362L25.9841 13.0471C26.397 12.6337 26.625 12.0846 26.625 11.5C26.625 10.9159 26.397 10.3663 25.9649 9.93484L16.4416 0.864368C16.23 0.662571 15.9587 0.562494 15.6875 0.562494C15.3988 0.562494 15.11 0.676245 14.8951 0.902103C14.4784 1.3396 14.4953 2.0314 14.9328 2.44812L23.323 10.4062L1.46875 10.4062C0.865 10.4062 0.375 10.8962 0.375 11.5C0.375 12.1037 0.865 12.5937 1.46875 12.5937Z" fill="#454545"/>
</svg>
