<svg width="21" height="21" viewBox="0 0 21 21" fill="none" xmlns="http://www.w3.org/2000/svg">
<path d="M4.125 21L17.625 21C19.4859 21 21 19.4859 21 17.625L21 14.25C21 13.7842 20.622 13.4062 20.1563 13.4062C19.6905 13.4062 19.3125 13.7842 19.3125 14.25L19.3125 17.625C19.3125 18.5557 18.5557 19.3125 17.625 19.3125L4.125 19.3125C3.19434 19.3125 2.4375 18.5557 2.4375 17.625L2.4375 4.125C2.4375 3.19434 3.19435 2.4375 4.125 2.4375L17.625 2.4375C18.5557 2.4375 19.3125 3.19434 19.3125 4.125L19.3125 7.5C19.3125 7.96575 19.6905 8.34375 20.1563 8.34375C20.622 8.34375 21 7.96575 21 7.5L21 4.125C21 2.26411 19.4859 0.75 17.625 0.75L4.125 0.749999C2.26411 0.749998 0.750002 2.26411 0.750001 4.125L0.75 17.625C0.75 19.4859 2.26411 21 4.125 21Z" fill="white"/>
<path d="M12.7299 6.89628C12.5658 6.73639 12.3536 6.65708 12.1409 6.65708C11.9211 6.65708 11.7018 6.7423 11.5364 6.91189L8.83808 9.68235C8.51956 10.0017 8.34406 10.4253 8.34406 10.8758C8.34406 11.3268 8.51998 11.7508 8.83048 12.0613L11.5364 14.8398C11.8612 15.1735 12.3957 15.1811 12.7294 14.8554C13.0631 14.5301 13.0703 13.996 12.7451 13.6623L10.0392 10.8682L12.7451 8.08977C13.0707 7.75564 13.0636 7.22155 12.7299 6.89628Z" fill="white"/>
</svg>
