<svg width="40" height="38" viewBox="0 0 40 38" fill="none" xmlns="http://www.w3.org/2000/svg">
<path d="M39.7563 16.0854C39.7238 15.9031 39.6306 15.7379 39.4924 15.6182C38.1986 14.4971 37.9802 13.2608 37.8046 12.2675L37.7817 12.1381C37.721 11.7991 37.4553 11.5379 37.1221 11.4899C37.0071 11.4733 36.8854 11.4648 36.7603 11.4648C36.0168 11.4648 34.9693 11.7858 34.3052 12.5026C34.1919 12.625 34.1192 12.7809 34.0974 12.948C34.0416 13.3781 34.0128 13.7717 33.9875 14.119C33.8918 15.4276 33.8072 15.5663 33.4181 15.6925C33.1742 15.7715 32.9835 15.9679 32.9077 16.218C32.5412 17.4267 32.0549 18.5833 31.4663 19.6745C31.1756 19.106 30.8543 18.5946 30.5553 18.1187C29.8241 16.9549 29.2464 16.0355 29.4438 14.8961C30.0833 11.2031 29.7587 8.42125 28.4787 6.62759C27.7659 5.62872 26.7504 4.94773 25.5163 4.62961C25.762 2.66629 27.0938 1.77618 27.8311 1.57378C28.2479 1.45942 28.4953 1.02052 28.3835 0.593558C28.2718 0.166672 27.8434 -0.0869464 27.4267 0.0276582C25.9045 0.445501 24.2785 1.97946 23.9679 4.42953C22.721 4.42593 21.5886 4.816 20.6567 5.5787C18.9539 6.97244 17.9251 9.56241 17.5988 13.2765C17.5006 14.3941 16.7948 15.0462 15.8178 15.9486C15.0204 16.6852 14.1321 17.5076 13.4206 18.7509C12.5342 18.3811 11.5834 18.1413 10.5906 18.0544C10.872 16.1695 12.1662 15.3089 12.8891 15.1105C13.3059 14.9961 13.5533 14.5572 13.4416 14.1303C13.3299 13.7034 12.9014 13.4498 12.4848 13.5644C12.0922 13.6722 11.6929 13.855 11.3108 14.1078C11.1331 13.2091 10.7031 12.3662 10.052 11.6993C9.17962 10.8057 8.01969 10.3136 6.78594 10.3136C6.38211 10.3136 5.97993 10.3676 5.59047 10.474C5.32039 10.5479 5.10938 10.7641 5.03727 11.0407C4.61282 12.6691 5.0711 14.4203 6.23329 15.6111C7.04196 16.4395 8.09813 16.9221 9.23094 16.9883C9.13219 17.3194 9.05876 17.6719 9.0161 18.0456C3.98102 18.4331 0 22.7535 0 28.0087C0 33.518 4.37539 38.0001 9.75337 38.0001C11.7521 38.0001 13.656 37.3916 15.2859 36.2372C15.5427 36.3526 15.8002 36.4637 16.059 36.5682C18.4102 37.5183 20.7865 38 23.1216 38C26.8775 38 30.3635 36.7429 33.2025 34.3645C36.1699 31.8785 38.357 28.2 39.527 23.7267C39.9088 22.2678 40.2456 18.8301 39.7563 16.0854ZM16.8643 17.1374C17.9152 16.1666 19.0018 15.1628 19.155 13.4201C19.4417 10.1576 20.275 7.9401 21.6321 6.82935C22.4377 6.16997 23.4335 5.91571 24.5921 6.07433C25.7363 6.23079 26.6196 6.73475 27.2174 7.57236C28.2361 8.99995 28.4676 11.37 27.9053 14.6165C27.6008 16.3741 28.4349 17.7014 29.2414 18.9851C29.6935 19.7045 30.1588 20.4463 30.4752 21.3097C27.8421 25.2048 23.8467 28.0454 19.4504 29.0855C19.4879 28.7284 19.507 28.3687 19.507 28.0087C19.507 24.3986 17.628 21.2296 14.8194 19.4736C15.4039 18.4881 16.1441 17.8027 16.8643 17.1374ZM7.33797 14.4792C6.68165 13.8068 6.36461 12.8639 6.46039 11.9317C6.56836 11.92 6.67688 11.914 6.78579 11.914C7.60211 11.914 8.36969 12.2397 8.94688 12.831C9.60329 13.5034 9.9204 14.4463 9.82454 15.3784C9.71665 15.3901 9.60805 15.396 9.49938 15.396H9.49922C8.68266 15.3961 7.91516 15.0705 7.33797 14.4792ZM9.75337 36.3995C5.23688 36.3995 1.5625 32.6355 1.5625 28.0087C1.5625 23.382 5.23688 19.6179 9.75337 19.6179C14.2699 19.6179 17.9444 23.382 17.9444 28.0087C17.9444 28.47 17.9076 28.9305 17.8349 29.3836C17.3323 29.45 16.8263 29.4922 16.3179 29.5099C16.4249 29.0191 16.4809 28.5175 16.4809 28.0087C16.4809 27.1074 16.3116 26.2275 15.9777 25.3937C15.8141 24.9849 15.3579 24.7891 14.9584 24.957C14.5593 25.1247 14.3684 25.5922 14.5321 26.0011C14.7884 26.6413 14.9184 27.3167 14.9184 28.0087C14.9184 28.5119 14.8488 29.0063 14.7127 29.485C13.5945 29.4113 12.4748 29.222 11.3715 28.9191C11.1468 28.8574 10.9068 28.9016 10.717 29.0396C10.0227 29.5446 9.32282 30.1798 8.90782 31.3977C8.80087 31.7116 8.89446 32.0605 9.14297 32.2744C10.5781 33.5093 12.0776 34.5562 13.6221 35.4061C12.4399 36.0584 11.1234 36.3995 9.75337 36.3995ZM38.0178 23.3126C35.8742 31.5072 30.3056 36.3995 23.1217 36.3995C18.9277 36.3995 14.5008 34.6381 10.5988 31.428C10.8056 31.0477 11.0613 30.786 11.3361 30.5625C12.8031 30.9333 14.295 31.121 15.7765 31.121C19.9694 31.121 24.0123 29.6574 27.4681 26.8882C29.225 25.4804 30.7478 23.7839 31.9675 21.9029C31.9821 21.8827 31.9957 21.8619 32.0083 21.8405C32.9712 20.344 33.7424 18.7316 34.2864 17.0549C35.3813 16.4905 35.4648 15.3474 35.5458 14.2385C35.5643 13.985 35.5833 13.7251 35.6123 13.4508C35.8201 13.2967 36.0955 13.1746 36.3716 13.1119C36.5798 14.1295 36.9846 15.4357 38.2639 16.6418C38.6259 18.9997 38.3631 21.9923 38.0178 23.3126Z" fill="#00A82F"/>
</svg>
