<svg width="21" height="21" viewBox="0 0 21 21" fill="none" xmlns="http://www.w3.org/2000/svg">
<path d="M16.875 0H3.375C1.51411 0 0 1.51411 0 3.375V6.75C0 7.21575 0.378 7.59375 0.84375 7.59375C1.3095 7.59375 1.6875 7.21575 1.6875 6.75V3.375C1.6875 2.44434 2.44434 1.6875 3.375 1.6875H16.875C17.8057 1.6875 18.5625 2.44434 18.5625 3.375V16.875C18.5625 17.8057 17.8057 18.5625 16.875 18.5625H3.375C2.44434 18.5625 1.6875 17.8057 1.6875 16.875V13.5C1.6875 13.0343 1.3095 12.6562 0.84375 12.6562C0.378 12.6562 0 13.0343 0 13.5V16.875C0 18.7359 1.51411 20.25 3.375 20.25H16.875C18.7359 20.25 20.25 18.7359 20.25 16.875V3.375C20.25 1.51411 18.7359 0 16.875 0Z" fill="white"/>
<path d="M8.27019 14.1037C8.4343 14.2636 8.64651 14.3429 8.85913 14.3429C9.07893 14.3429 9.2983 14.2577 9.46368 14.0881L12.162 11.3177C12.4805 10.9983 12.656 10.5747 12.656 10.1242C12.656 9.67318 12.4801 9.2492 12.1696 8.9387L9.46368 6.16023C9.13883 5.82652 8.60432 5.81893 8.27062 6.14462C7.93691 6.46988 7.92974 7.00398 8.25501 7.33768L10.9609 10.1318L8.25501 12.9102C7.92932 13.2444 7.93649 13.7785 8.27019 14.1037Z" fill="white"/>
</svg>
