<svg width="20" height="20" viewBox="0 0 20 20" fill="none" xmlns="http://www.w3.org/2000/svg">
<path d="M14.3 0H5.7C2.56668 0 0 2.56668 0 5.7V14.3C0 17.4333 2.56668 20 5.7 20H14.3C17.4333 20 20 17.4333 20 14.3V5.7C20 2.56668 17.4333 0 14.3 0ZM19.3333 14.3C19.3333 17.0667 17.0666 19.3333 14.3 19.3333H5.7C2.93332 19.3333 0.66668 17.0666 0.66668 14.3V5.7C0.66668 2.93332 2.93336 0.66668 5.7 0.66668H14.3C17.0667 0.66668 19.3333 2.93336 19.3333 5.7V14.3Z" fill="#313333"/>
<path d="M14.3 2.00005H5.7C3.66668 2.00005 2 3.66673 2 5.70005V14.3C2 16.3334 3.66668 18 5.7 18H14.3C16.3333 18 18 16.3334 18 14.3V5.70005C18 3.66673 16.3333 2.00005 14.3 2.00005ZM17.3333 14.3C17.3333 15.9667 15.9666 17.3334 14.3 17.3334H5.7C4.03332 17.3334 2.66668 15.9667 2.66668 14.3V5.70005C2.66668 4.03337 4.03336 2.66673 5.7 2.66673H14.3C15.9667 2.66673 17.3333 4.03341 17.3333 5.70005V14.3Z" fill="#313333"/>
<path d="M9.99982 4.66666C7.0665 4.66666 4.6665 7.06666 4.6665 9.99998C4.6665 12.9333 7.0665 15.3333 9.99982 15.3333C12.9331 15.3333 15.3331 12.9333 15.3331 9.99998C15.3331 7.06666 12.9331 4.66666 9.99982 4.66666ZM9.99982 14.6667C7.43314 14.6667 5.33314 12.5667 5.33314 9.99998C5.33314 7.4333 7.43314 5.3333 9.99982 5.3333C12.5665 5.3333 14.6665 7.4333 14.6665 9.99998C14.6665 12.5667 12.5665 14.6667 9.99982 14.6667Z" fill="#313333"/>
<path d="M10.0002 6.33325C7.96686 6.33325 6.3335 7.96657 6.3335 9.99993C6.3335 12.0333 7.96682 13.6666 10.0002 13.6666C12.0335 13.6666 13.6669 12.0333 13.6669 9.99993C13.6669 7.96657 12.0335 6.33325 10.0002 6.33325ZM10.0002 12.9999C8.3335 12.9999 7.00018 11.6666 7.00018 9.99993C7.00018 8.33325 8.3335 6.99993 10.0002 6.99993C11.6669 6.99993 13.0002 8.33325 13.0002 9.99993C13.0002 11.6666 11.6669 12.9999 10.0002 12.9999Z" fill="#313333"/>
<path d="M15.3335 3.66673C14.7668 3.66673 14.3335 4.10005 14.3335 4.66673C14.3335 5.23341 14.7668 5.66673 15.3335 5.66673C15.9002 5.66673 16.3335 5.23341 16.3335 4.66673C16.3335 4.10005 15.9002 3.66673 15.3335 3.66673Z" fill="#313333"/>
</svg>
