<svg width="24" height="24" viewBox="0 0 24 24" fill="none" xmlns="http://www.w3.org/2000/svg">
<path d="M18.45 0H5.55C2.50002 0 0 2.50002 0 5.55V18.45C0 21.5 2.50002 24 5.55 24H18.45C21.5 24 24 21.5 24 18.45V5.55C24 2.50002 21.5 0 18.45 0ZM23 18.45C23 20.95 20.95 23 18.45 23H5.55C3.04998 23 1.00002 20.95 1.00002 18.45V5.55C1.00002 3.04998 3.05004 1.00002 5.55 1.00002H18.45C20.95 1.00002 23 3.05004 23 5.55V18.45Z" fill="white"/>
<path d="M12 4C7.6 4 4 7.6 4 12C4 16.4 7.6 20 12 20C16.4 20 20 16.4 20 12C20 7.6 16.4 4 12 4ZM12 19C8.14996 19 4.99996 15.85 4.99996 12C4.99996 8.14996 8.14996 4.99996 12 4.99996C15.85 4.99996 19 8.14996 19 12C19 15.85 15.85 19 12 19Z" fill="white"/>
<path d="M12 6.49988C8.95004 6.49988 6.5 8.94986 6.5 11.9999C6.5 15.0499 8.94998 17.4999 12 17.4999C15.0501 17.4999 17.5 15.0499 17.5 11.9999C17.5 8.94986 15.05 6.49988 12 6.49988ZM12 16.4999C9.5 16.4999 7.50002 14.4999 7.50002 11.9999C7.50002 9.49988 9.5 7.4999 12 7.4999C14.5 7.4999 16.5 9.49988 16.5 11.9999C16.5 14.4999 14.5 16.4999 12 16.4999Z" fill="white"/>
<path d="M20 2.50012C19.15 2.50012 18.5 3.1501 18.5 4.00012C18.5 4.85014 19.15 5.50012 20 5.50012C20.85 5.50012 21.5 4.85014 21.5 4.00012C21.5 3.1501 20.85 2.50012 20 2.50012Z" fill="white"/>
</svg>
