<svg width="12" height="20" viewBox="0 0 12 20" fill="none" xmlns="http://www.w3.org/2000/svg">
<path d="M11.0001 0H1.00012C0.447856 0 0.00012207 0.447695 0.00012207 1V19C0.00012207 19.5523 0.447817 20 1.00012 20H11.0001C11.5524 20 12.0001 19.5523 12.0001 19V1C12.0001 0.447695 11.5524 0 11.0001 0ZM11.3334 2.66668H3.6668C3.4827 2.66668 3.33348 2.8159 3.33348 3C3.33348 3.1841 3.4827 3.33332 3.6668 3.33332H11.3335V16.3333H10.3335C10.1494 16.3333 10.0002 16.4825 10.0002 16.6666C10.0002 16.8507 10.1494 17 10.3335 17H11.3335V19C11.3335 19.1841 11.1843 19.3333 11.0002 19.3333H1.00012C0.81602 19.3333 0.666802 19.1841 0.666802 19V17H8.33348C8.51758 17 8.6668 16.8507 8.6668 16.6666C8.6668 16.4825 8.51758 16.3333 8.33348 16.3333H0.666802V3.33332H1.6668C1.8509 3.33332 2.00012 3.1841 2.00012 3C2.00012 2.8159 1.8509 2.66668 1.6668 2.66668H0.666802V1C0.666802 0.815898 0.81602 0.66668 1.00012 0.66668H11.0001C11.1842 0.66668 11.3334 0.815898 11.3334 1V2.66668Z" fill="black"/>
<path d="M6.33326 18.0001H5.66658C5.48247 18.0001 5.33325 18.1493 5.33325 18.3334C5.33325 18.5175 5.48247 18.6668 5.66658 18.6668H6.33326C6.51737 18.6668 6.66659 18.5175 6.66659 18.3334C6.66659 18.1493 6.51737 18.0001 6.33326 18.0001Z" fill="black"/>
</svg>
