<svg width="30" height="30" viewBox="0 0 30 30" fill="none" xmlns="http://www.w3.org/2000/svg">
<path d="M15 0C9.14125 0 4.375 4.76625 4.375 10.625C4.375 16.2912 14.0887 29.205 14.5012 29.7525C14.62 29.9088 14.8038 30 15 30C15.1962 30 15.38 29.9088 15.4987 29.7525C15.9112 29.205 25.625 16.2912 25.625 10.625C25.625 4.76625 20.8587 0 15 0ZM15 28.3237C12.9937 25.5788 5.62498 15.185 5.62498 10.625C5.62498 5.45496 9.82996 1.24998 15 1.24998C20.17 1.24998 24.375 5.45496 24.375 10.625C24.375 15.1825 17.0062 25.5775 15 28.3237Z" fill="white"/>
<path d="M15 4.99994C11.8987 4.99994 9.375 7.52369 9.375 10.6249C9.375 13.7262 11.8987 16.2499 15 16.2499C18.1012 16.2499 20.625 13.7262 20.625 10.6249C20.625 7.52369 18.1012 4.99994 15 4.99994ZM15 15C12.5875 15 10.625 13.0375 10.625 10.6249C10.625 8.21246 12.5875 6.24992 15 6.24992C17.4125 6.24992 19.375 8.2124 19.375 10.6249C19.375 13.0375 17.4125 15 15 15Z" fill="white"/>
</svg>
