<svg width="27" height="23" viewBox="0 0 27 23" fill="none" xmlns="http://www.w3.org/2000/svg">
<path d="M25.5312 10.4063H3.71148L12.0666 2.44813C12.5041 2.03141 12.5211 1.33907 12.1044 0.90157C11.6882 0.464617 10.9959 0.447117 10.5578 0.863835L1.01594 9.9529C0.603047 10.3663 0.375 10.9154 0.375 11.5C0.375 12.0841 0.603047 12.6337 1.03508 13.0652L10.5584 22.1356C10.77 22.3374 11.0413 22.4375 11.3125 22.4375C11.6012 22.4375 11.89 22.3238 12.1049 22.0979C12.5216 21.6604 12.5047 20.9686 12.0672 20.5519L3.67703 12.5938H25.5312C26.135 12.5938 26.625 12.1038 26.625 11.5C26.625 10.8963 26.135 10.4063 25.5312 10.4063Z" fill="#454545"/>
</svg>
