<svg width="37" height="38" viewBox="0 0 37 38" fill="none" xmlns="http://www.w3.org/2000/svg">
<path d="M5.41859 32.4351C5.43135 32.4475 5.44666 32.4515 5.45941 32.4633C8.80728 35.8833 13.417 38.0001 18.5 38.0001H18.5019H18.5026C28.7018 37.9988 37 29.4757 37 19.0001C37 13.7797 34.9388 9.04478 31.6082 5.60709C31.5974 5.59398 31.5935 5.5776 31.5814 5.56581C31.5693 5.55402 31.5533 5.54943 31.5412 5.53829C28.1934 2.11764 23.5837 0.00012207 18.5 0.00012207C8.29948 0.00012207 0 8.52326 0 19.0001C0 24.2205 2.06116 28.9548 5.39116 32.3925C5.40264 32.4063 5.40647 32.4226 5.41859 32.4351ZM15.9164 11.7932C15.9272 11.7932 15.9355 11.7991 15.9464 11.7991C17.0015 11.7991 17.8602 12.681 17.8602 13.7646C17.8602 13.7712 17.864 13.7771 17.864 13.7836V15.096C17.3377 14.6852 16.6896 14.4323 15.9814 14.4244C15.9706 14.4244 15.9623 14.4185 15.9515 14.4185C14.8963 14.4185 14.0377 13.5366 14.0377 12.453C14.0377 12.453 14.0377 12.453 14.0377 12.4523C14.0377 12.4517 14.0377 12.4523 14.0377 12.4517V11.1249C14.5633 11.5338 15.2096 11.7854 15.9164 11.7932ZM21.0536 11.7998C21.0645 11.7998 21.0728 11.7939 21.0836 11.7939C21.7904 11.786 22.4367 11.5344 22.9623 11.1256V12.4523V12.453C22.9623 12.453 22.9623 12.453 22.9623 12.4536C22.9623 13.5373 22.1037 14.4192 21.0485 14.4192C21.0377 14.4192 21.0294 14.4251 21.0186 14.4251C20.3117 14.4329 19.6655 14.6845 19.1398 15.0933V13.7653C19.1398 12.681 19.9985 11.7998 21.0536 11.7998ZM21.0485 26.2175C21.0377 26.2175 21.0294 26.2234 21.0186 26.2241C20.3117 26.2319 19.6655 26.4835 19.1398 26.8923V25.5649C19.1398 24.4813 19.9985 23.5988 21.0536 23.5988C21.0645 23.5988 21.0728 23.5929 21.0836 23.5922C21.7904 23.5844 22.4367 23.3328 22.9623 22.9233V24.2415C22.9623 24.2435 22.9636 24.2448 22.9636 24.2467C22.9636 24.2487 22.9623 24.25 22.9623 24.252C22.9623 25.3356 22.1037 26.2175 21.0485 26.2175ZM15.9814 26.2234C15.9706 26.2227 15.9623 26.2168 15.9515 26.2168C14.9742 26.2168 14.1755 25.4582 14.0606 24.4852L15.0673 23.4514C15.3391 23.5326 15.6204 23.5883 15.9164 23.5916C15.9272 23.5922 15.9355 23.5981 15.9464 23.5981C17.0015 23.5981 17.8602 24.4806 17.8602 25.5643C17.8602 25.5715 17.864 25.5767 17.864 25.5833V26.8943C17.3377 26.4842 16.6902 26.2313 15.9814 26.2234ZM15.9164 15.7256C15.9272 15.7256 15.9355 15.7315 15.9464 15.7315C17.0015 15.7315 17.8602 16.6133 17.8602 17.697C17.8602 17.7035 17.864 17.7094 17.864 17.716V18.7263L17.6981 18.8966C17.2044 18.5612 16.6149 18.3639 15.9814 18.3567C15.9706 18.3567 15.9623 18.3508 15.9515 18.3508C14.8963 18.3508 14.0377 17.469 14.0377 16.3853C14.0377 16.3853 14.0377 16.3853 14.0377 16.3847C14.0377 16.384 14.0377 16.3847 14.0377 16.384V15.0573C14.5633 15.4661 15.2096 15.7177 15.9164 15.7256ZM20.7493 15.7636L19.1698 17.3851C19.3012 16.5524 19.9392 15.8979 20.7493 15.7636ZM21.0536 19.6645C21.0645 19.6645 21.0728 19.6586 21.0836 19.6579C21.7904 19.6501 22.4367 19.3985 22.9623 18.9896V20.317V20.3177V20.3183C22.9623 21.4026 22.1037 22.2852 21.0485 22.2852C21.0377 22.2852 21.0294 22.2911 21.0186 22.2917C20.3117 22.2996 19.6655 22.5512 19.1398 22.96V21.6313C19.1398 20.5463 19.9985 19.6645 21.0536 19.6645ZM16.1773 22.312L17.6656 20.7835C17.7862 21.0416 17.8602 21.3266 17.8602 21.6313C17.8602 21.6385 17.864 21.6437 17.864 21.6503V22.9633C17.3874 22.5911 16.8095 22.3598 16.1773 22.312ZM14.0377 20.3177V18.9903C14.5633 19.3991 15.2096 19.6507 15.9164 19.6586C15.9272 19.6592 15.9355 19.6651 15.9464 19.6651C16.2392 19.6651 16.5135 19.7385 16.7616 19.8597L14.7968 21.8776C14.3381 21.5179 14.0377 20.9571 14.0377 20.3196V20.3177ZM22.9623 16.3853C22.9623 17.4696 22.1037 18.3515 21.0485 18.3515C21.0377 18.3515 21.0294 18.3574 21.0186 18.3574C20.5624 18.3626 20.1318 18.4694 19.7401 18.6522L22.9623 15.3436V16.3853C22.9623 16.3847 22.9623 16.3847 22.9623 16.3853ZM13.0253 25.5492C13.5114 26.701 14.622 27.5095 15.9164 27.5239C15.9272 27.5246 15.9355 27.5305 15.9464 27.5305C17.0015 27.5305 17.8602 28.4123 17.8602 29.496C17.8602 29.5032 17.864 29.5084 17.864 29.515V36.6734C13.5949 36.5135 9.71888 34.7511 6.78822 31.9555L13.0253 25.5492ZM19.1398 36.6734V29.496C19.1398 28.4123 19.9985 27.5305 21.0536 27.5305C21.0645 27.5305 21.0728 27.5246 21.0836 27.5239C22.8258 27.5049 24.2382 26.0458 24.2382 24.252C24.2382 24.25 24.2369 24.2487 24.2369 24.2467C24.2369 24.2448 24.2382 24.2435 24.2382 24.2415V20.319V20.3183V20.3177V16.386C24.2382 16.386 24.2382 16.386 24.2382 16.3853C24.2382 16.3847 24.2382 16.3853 24.2382 16.3847V14.0333L31.1138 6.97181C33.9717 10.1304 35.7241 14.3582 35.7241 19.0001C35.7241 28.5342 28.3414 36.3255 19.1398 36.6734ZM18.5 1.31047C23.0197 1.31047 27.1357 3.11023 30.2118 6.0454L24.2382 12.1804V8.52129C24.2382 8.15964 23.953 7.86612 23.6003 7.86612C23.2475 7.86612 22.9623 8.15964 22.9623 8.52129C22.9623 9.37236 22.4297 10.0917 21.6916 10.3643V7.20964C21.6916 6.84798 21.4064 6.55447 21.0536 6.55447C20.7009 6.55447 20.4157 6.84798 20.4157 7.20964V10.5556C19.9417 10.6545 19.5124 10.8714 19.1398 11.161V5.24478C19.1398 4.88312 18.8547 4.5896 18.5019 4.5896C18.1491 4.5896 17.864 4.88312 17.864 5.24478V11.1643C17.4921 10.874 17.0634 10.6565 16.5894 10.5563V7.20964C16.5894 6.84798 16.3042 6.55447 15.9515 6.55447C15.5987 6.55447 15.3135 6.84798 15.3135 7.20964V10.3656C14.5729 10.0944 14.0377 9.37367 14.0377 8.52129C14.0377 8.15964 13.7525 7.86612 13.3997 7.86612C13.047 7.86612 12.7618 8.15964 12.7618 8.52129V12.4523V12.453C12.7618 12.453 12.7618 12.453 12.7618 12.4536V16.3847V16.3853C12.7618 16.3853 12.7618 16.3853 12.7618 16.386V20.3177V20.3183V20.319V23.967L5.88619 31.0284C3.02826 27.8692 1.27586 23.642 1.27586 19.0001C1.27586 9.24592 9.00248 1.31047 18.5 1.31047Z" fill="#00A82F"/>
</svg>
