<svg width="37" height="38" viewBox="0 0 37 38" fill="none" xmlns="http://www.w3.org/2000/svg">
<path d="M18.5 38.0001C8.29948 38.0001 0 29.4763 0 19.0001C0 8.52392 8.29948 0.00012207 18.5 0.00012207C28.7005 0.00012207 37 8.52392 37 19.0001C37 29.4763 28.7005 38.0001 18.5 38.0001ZM18.5 1.31047C9.00248 1.31047 1.27586 9.24592 1.27586 19.0001C1.27586 28.755 9.00248 36.6898 18.5 36.6898C27.9982 36.6898 35.7241 28.755 35.7241 19.0001C35.7241 9.24592 27.9982 1.31047 18.5 1.31047Z" fill="#00A82F"/>
<path d="M5.86954 32.6271C5.70623 32.6271 5.54291 32.5629 5.41852 32.4351C5.16909 32.179 5.16909 31.7649 5.41852 31.5087L30.6793 5.56521C30.9287 5.30904 31.3319 5.30904 31.5813 5.56521C31.8308 5.82139 31.8308 6.23546 31.5813 6.49163L6.32055 32.4351C6.19616 32.5629 6.03285 32.6271 5.86954 32.6271Z" fill="#00A82F"/>
<path d="M11.4801 16.3807C11.1273 16.3807 10.8422 16.0879 10.8422 15.7255C10.8422 14.2802 9.69774 13.1048 8.29047 13.1048C6.88319 13.1048 5.73875 14.2802 5.73875 15.7255C5.73875 16.0879 5.45359 16.3807 5.10082 16.3807C4.74805 16.3807 4.46289 16.0879 4.46289 15.7255C4.46289 13.5576 6.17956 11.7945 8.29047 11.7945C10.4014 11.7945 12.118 13.5576 12.118 15.7255C12.118 16.0879 11.8329 16.3807 11.4801 16.3807Z" fill="#00A82F"/>
<path d="M8.29048 26.2057C6.17957 26.2057 4.46289 24.4426 4.46289 22.2747C4.46289 21.9124 4.74805 21.6195 5.10082 21.6195C5.4536 21.6195 5.73875 21.9124 5.73875 22.2747C5.73875 23.72 6.8832 24.8954 8.29048 24.8954C9.69776 24.8954 10.8422 23.72 10.8422 22.2747C10.8422 21.9124 11.1274 21.6195 11.4801 21.6195C11.8329 21.6195 12.1181 21.9124 12.1181 22.2747C12.1181 24.4426 10.4014 26.2057 8.29048 26.2057Z" fill="#00A82F"/>
<path d="M5.10278 22.9311C4.75 22.9311 4.46484 22.6383 4.46484 22.2759V15.7242C4.46484 15.3619 4.75 15.069 5.10278 15.069C5.45556 15.069 5.74072 15.3619 5.74072 15.7242V22.2759C5.74072 22.6383 5.45556 22.9311 5.10278 22.9311Z" fill="#00A82F"/>
<path d="M11.4787 22.9312C11.126 22.9312 10.8408 22.6383 10.8408 22.276V18.9988C10.8408 18.6365 11.126 18.3437 11.4787 18.3437C11.8315 18.3437 12.1167 18.6365 12.1167 18.9988V22.276C12.1167 22.6383 11.8315 22.9312 11.4787 22.9312Z" fill="#00A82F"/>
<path d="M11.4794 19.654H9.56566C9.21289 19.654 8.92773 19.3612 8.92773 18.9989C8.92773 18.6365 9.21289 18.3437 9.56566 18.3437H11.4794C11.8322 18.3437 12.1174 18.6365 12.1174 18.9989C12.1174 19.3612 11.8322 19.654 11.4794 19.654Z" fill="#00A82F"/>
<path d="M31.8981 16.3808C31.5453 16.3808 31.2602 16.088 31.2602 15.7257C31.2602 14.2803 30.1157 13.105 28.7084 13.105C27.3012 13.105 26.1567 14.2803 26.1567 15.7257C26.1567 16.088 25.8716 16.3808 25.5188 16.3808C25.166 16.3808 24.8809 16.088 24.8809 15.7257C24.8809 13.5577 26.5975 11.7946 28.7084 11.7946C30.8193 11.7946 32.536 13.5577 32.536 15.7257C32.536 16.088 32.2509 16.3808 31.8981 16.3808Z" fill="#00A82F"/>
<path d="M28.7084 26.2057C26.5975 26.2057 24.8809 24.4426 24.8809 22.2747C24.8809 21.9124 25.166 21.6195 25.5188 21.6195C25.8716 21.6195 26.1567 21.9124 26.1567 22.2747C26.1567 23.72 27.3012 24.8954 28.7084 24.8954C30.1157 24.8954 31.2602 23.72 31.2602 22.2747C31.2602 21.9124 31.5453 21.6195 31.8981 21.6195C32.2509 21.6195 32.536 21.9124 32.536 22.2747C32.536 24.4426 30.8193 26.2057 28.7084 26.2057Z" fill="#00A82F"/>
<path d="M25.5207 22.9311C25.168 22.9311 24.8828 22.6383 24.8828 22.2759V15.7242C24.8828 15.3619 25.168 15.069 25.5207 15.069C25.8735 15.069 26.1587 15.3619 26.1587 15.7242V22.2759C26.1587 22.6383 25.8735 22.9311 25.5207 22.9311Z" fill="#00A82F"/>
<path d="M31.8977 22.9311C31.5449 22.9311 31.2598 22.6383 31.2598 22.2759V15.7196C31.2598 15.3573 31.5449 15.0645 31.8977 15.0645C32.2505 15.0645 32.5356 15.3573 32.5356 15.7196V22.2759C32.5356 22.6383 32.2505 22.9311 31.8977 22.9311Z" fill="#00A82F"/>
<path d="M14.6711 26.2051C14.3184 26.2051 14.0332 25.9123 14.0332 25.5499V12.4498C14.0332 12.0875 14.3184 11.7946 14.6711 11.7946C15.0239 11.7946 15.3091 12.0875 15.3091 12.4498V25.5499C15.3091 25.9123 15.0239 26.2051 14.6711 26.2051Z" fill="#00A82F"/>
<path d="M22.3264 26.2051C21.973 26.2051 21.6885 25.9123 21.6885 25.5499V12.4498C21.6885 12.0875 21.973 11.7946 22.3264 11.7946C22.6792 11.7946 22.9644 12.0875 22.9644 12.4498V25.5499C22.9644 25.9123 22.6792 26.2051 22.3264 26.2051Z" fill="#00A82F"/>
<path d="M18.4986 23.5943C18.424 23.5943 18.3487 23.5805 18.2747 23.553C17.9443 23.4259 17.7778 23.0479 17.9009 22.7098L21.7285 12.2205C21.851 11.8805 22.221 11.7108 22.5495 11.8366C22.88 11.9637 23.0458 12.3417 22.9234 12.6798L19.0958 23.1691C19.0001 23.4331 18.757 23.5943 18.4986 23.5943Z" fill="#00A82F"/>
<path d="M18.4991 23.5942C18.2407 23.5942 17.9977 23.433 17.9013 23.1696L14.0738 12.6803C13.9506 12.3415 14.1171 11.9642 14.4476 11.8371C14.7761 11.7113 15.1448 11.881 15.2686 12.221L19.0962 22.7103C19.2187 23.0497 19.0528 23.4264 18.7224 23.5535C18.649 23.5804 18.5737 23.5942 18.4991 23.5942Z" fill="#00A82F"/>
</svg>
