<svg width="20" height="20" viewBox="0 0 20 20" fill="none" xmlns="http://www.w3.org/2000/svg">
<path d="M18.75 3.33325H1.25C0.56082 3.33325 0 3.89407 0 4.58325V15.4166C0 16.1058 0.56082 16.6666 1.25 16.6666H18.75C19.4392 16.6666 20 16.1058 20 15.4166V4.58325C20 3.89411 19.4392 3.33325 18.75 3.33325ZM19.1667 15.4166C19.1667 15.6466 18.98 15.8333 18.75 15.8333H1.25C1.02 15.8333 0.83332 15.6466 0.83332 15.4166V4.58325C0.83332 4.35325 1.02 4.16657 1.25 4.16657H18.75C18.98 4.16657 19.1667 4.35325 19.1667 4.58325V15.4166Z" fill="black"/>
<path d="M19.7109 3.78572C19.5759 3.59904 19.3142 3.5574 19.1292 3.6924L10.7351 9.76073C10.2951 10.0799 9.70428 10.0807 9.26342 9.75991L0.872602 3.6924C0.685923 3.5574 0.425103 3.59908 0.290923 3.78572C0.156743 3.9724 0.198423 4.23322 0.384243 4.36822L8.77424 10.4349C9.14092 10.7016 9.57006 10.8349 10.0001 10.8349C10.4292 10.8349 10.8584 10.7016 11.2242 10.4349L19.6176 4.3674C19.8034 4.23322 19.8459 3.9724 19.7109 3.78572Z" fill="black"/>
<path d="M9.22252 9.75502C9.0867 9.5692 8.82752 9.5267 8.64002 9.66252L0.395842 15.6467C0.210022 15.7825 0.168342 16.0425 0.303342 16.2292C0.385022 16.3417 0.511663 16.4009 0.640842 16.4009C0.725022 16.4009 0.810842 16.3751 0.885842 16.3217L9.13002 10.3375C9.31584 10.2017 9.35752 9.9417 9.22252 9.75502Z" fill="black"/>
<path d="M19.6041 15.6467L11.3607 9.66252C11.1724 9.5267 10.9132 9.56834 10.7782 9.75502C10.6432 9.9417 10.6849 10.2017 10.8707 10.3375L19.114 16.3217C19.1873 16.375 19.2732 16.4009 19.3582 16.4009C19.4874 16.4009 19.6149 16.3417 19.6965 16.2292C19.8316 16.0425 19.7899 15.7825 19.6041 15.6467Z" fill="black"/>
</svg>
