<svg width="20" height="20" viewBox="0 0 20 20" fill="none" xmlns="http://www.w3.org/2000/svg">
<g clip-path="url(#clip0)">
<path d="M9.91634 15.8332C8.76801 15.8332 7.83301 14.899 7.83301 13.7498V11.2498C7.83301 10.1015 8.76801 9.1665 9.91634 9.1665C11.0647 9.1665 11.9997 10.1015 11.9997 11.2498V11.4582C11.9997 11.8032 11.7197 12.0832 11.3747 12.0832C11.0297 12.0832 10.7497 11.8032 10.7497 11.4582V11.2498C10.7497 10.7907 10.3755 10.4165 9.91634 10.4165C9.45717 10.4165 9.08301 10.7907 9.08301 11.2498V13.7498C9.08301 14.2098 9.45717 14.5832 9.91634 14.5832C10.3755 14.5832 10.7497 14.2098 10.7497 13.7498H10.1247C9.77967 13.7498 9.49967 13.4698 9.49967 13.1248C9.49967 12.7798 9.77967 12.4998 10.1247 12.4998H11.3747C11.7197 12.4998 11.9997 12.7798 11.9997 13.1248V13.7498C11.9997 14.899 11.0647 15.8332 9.91634 15.8332Z" fill="black"/>
<path d="M16.3771 20H3.62377C3.18961 20 2.78211 19.8092 2.50377 19.4758C2.22544 19.1425 2.11127 18.7067 2.18877 18.28L4.38544 6.19667C4.51211 5.50333 5.11544 5 5.82044 5H14.1796C14.8846 5 15.4879 5.50333 15.6146 6.1975L17.8113 18.2808C17.8888 18.7067 17.7746 19.1425 17.4963 19.4758C17.2179 19.8092 16.8104 20 16.3771 20ZM5.82044 6.25C5.71961 6.25 5.63377 6.32167 5.61544 6.42167L3.41877 18.505C3.40377 18.5892 3.44044 18.6483 3.46377 18.6758C3.48711 18.7033 3.53877 18.7508 3.62377 18.7508H16.3771C16.4621 18.7508 16.5138 18.7033 16.5371 18.6758C16.5604 18.6483 16.5971 18.5892 16.5821 18.5058L14.3854 6.4225C14.3671 6.32167 14.2813 6.25 14.1804 6.25H5.82044Z" fill="black"/>
<path d="M9.99968 5.83333C8.39134 5.83333 7.08301 4.52499 7.08301 2.91666C7.08301 1.30833 8.39134 -7.62939e-06 9.99968 -7.62939e-06C11.608 -7.62939e-06 12.9163 1.30833 12.9163 2.91666C12.9163 4.52499 11.608 5.83333 9.99968 5.83333ZM9.99968 1.24999C9.08051 1.24999 8.33301 1.99749 8.33301 2.91666C8.33301 3.83583 9.08051 4.58333 9.99968 4.58333C10.9188 4.58333 11.6663 3.83583 11.6663 2.91666C11.6663 1.99749 10.9188 1.24999 9.99968 1.24999Z" fill="black"/>
</g>
<defs>
<clipPath id="clip0">
<rect width="20" height="20" fill="white"/>
</clipPath>
</defs>
</svg>
