<svg width="20" height="20" viewBox="0 0 20 20" fill="none" xmlns="http://www.w3.org/2000/svg">
<g clip-path="url(#clip0)">
<path d="M5.625 15.8333C5.28 15.8333 5 15.5533 5 15.2083V9.79162C5 9.44662 5.28 9.16662 5.625 9.16662C5.97 9.16662 6.25 9.44662 6.25 9.79162V15.2083C6.25 15.5533 5.97 15.8333 5.625 15.8333Z" fill="black"/>
<path d="M12.9163 15.8333C11.768 15.8333 10.833 14.8991 10.833 13.7499V11.2499C10.833 10.1016 11.768 9.16662 12.9163 9.16662C14.0647 9.16662 14.9997 10.1016 14.9997 11.2499V11.4583C14.9997 11.8033 14.7197 12.0833 14.3747 12.0833C14.0297 12.0833 13.7497 11.8033 13.7497 11.4583V11.2499C13.7497 10.7908 13.3755 10.4166 12.9163 10.4166C12.4572 10.4166 12.083 10.7908 12.083 11.2499V13.7499C12.083 14.2099 12.4572 14.5833 12.9163 14.5833C13.3755 14.5833 13.7497 14.2099 13.7497 13.7499H13.1247C12.7797 13.7499 12.4997 13.4699 12.4997 13.1249C12.4997 12.7799 12.7797 12.4999 13.1247 12.4999H14.3747C14.7197 12.4999 14.9997 12.7799 14.9997 13.1249V13.7499C14.9997 14.8991 14.0647 15.8333 12.9163 15.8333Z" fill="black"/>
<path d="M8.54167 15.8849C8.38751 15.8849 8.23251 15.8283 8.11167 15.7141L5.19501 12.9541C5.07001 12.8349 4.99917 12.6699 5.00001 12.4966C5.00084 12.3241 5.07334 12.1599 5.20001 12.0416L8.11667 9.33327C8.37001 9.09911 8.76501 9.11244 9.00001 9.36661C9.23501 9.61911 9.22001 10.0149 8.96667 10.2499L6.53834 12.5041L8.97084 14.8066C9.22167 15.0441 9.23251 15.4399 8.99501 15.6908C8.87251 15.8191 8.70751 15.8849 8.54167 15.8849Z" fill="black"/>
<path d="M18.3771 20H1.62377C1.18961 20 0.782107 19.8092 0.503774 19.4758C0.225441 19.1425 0.111274 18.7067 0.188774 18.28L2.38544 6.19667C2.51211 5.50333 3.11544 5 3.82044 5H16.1796C16.8846 5 17.4879 5.50333 17.6146 6.1975L19.8113 18.2808C19.8888 18.7067 19.7746 19.1425 19.4963 19.4758C19.2179 19.8092 18.8104 20 18.3771 20ZM3.82044 6.25C3.71961 6.25 3.63377 6.32167 3.61544 6.42167L1.41877 18.505C1.40377 18.5892 1.44044 18.6483 1.46377 18.6758C1.48711 18.7033 1.53877 18.7508 1.62377 18.7508H18.3771C18.4621 18.7508 18.5138 18.7033 18.5371 18.6758C18.5604 18.6483 18.5971 18.5892 18.5821 18.5058L16.3854 6.4225C16.3671 6.32167 16.2813 6.25 16.1804 6.25H3.82044Z" fill="black"/>
<path d="M9.99968 5.83333C8.39134 5.83333 7.08301 4.52499 7.08301 2.91666C7.08301 1.30833 8.39134 -7.62939e-06 9.99968 -7.62939e-06C11.608 -7.62939e-06 12.9163 1.30833 12.9163 2.91666C12.9163 4.52499 11.608 5.83333 9.99968 5.83333ZM9.99968 1.24999C9.08051 1.24999 8.33301 1.99749 8.33301 2.91666C8.33301 3.83583 9.08051 4.58333 9.99968 4.58333C10.9188 4.58333 11.6663 3.83583 11.6663 2.91666C11.6663 1.99749 10.9188 1.24999 9.99968 1.24999Z" fill="black"/>
</g>
<defs>
<clipPath id="clip0">
<rect width="20" height="20" fill="white"/>
</clipPath>
</defs>
</svg>
