<svg xmlns="http://www.w3.org/2000/svg" xmlns:xlink="http://www.w3.org/1999/xlink" viewBox="0 0 169.55 233.24"><defs><style>.cls-1{isolation:isolate;}.cls-2{fill:#baa696;}.cls-3{fill:#e8e8e8;}.cls-12,.cls-4{fill:#18192b;}.cls-5{fill:#d6d6d6;}.cls-5,.cls-6{fill-rule:evenodd;}.cls-6{fill:#2d2d2d;}.cls-7,.cls-8,.cls-9{fill:none;}.cls-7{stroke:#8c9399;stroke-width:0.78px;}.cls-8,.cls-9{stroke:#000;stroke-linecap:round;stroke-linejoin:round;stroke-width:0.36px;}.cls-8{stroke-dasharray:0.06 0.18;}.cls-9{stroke-dasharray:0.06 0.12;}.cls-10{fill:#fff;}.cls-11{fill:#dcdfe2;}.cls-12{opacity:0.94;}.cls-13{opacity:0.95;}.cls-14{fill:#8d19e0;}.cls-15{fill:url(#Безымянный_градиент_32);}.cls-16,.cls-18{mix-blend-mode:multiply;}.cls-17{fill:url(#linear-gradient);}.cls-18{fill:url(#linear-gradient-2);}</style><linearGradient id="Безымянный_градиент_32" x1="57.94" y1="128.51" x2="40.29" y2="110.85" gradientUnits="userSpaceOnUse"><stop offset="0" stop-color="#aa2afc"/><stop offset="1" stop-color="#5f009e"/></linearGradient><linearGradient id="linear-gradient" x1="54.25" y1="123.83" x2="49.98" y2="121.38" gradientUnits="userSpaceOnUse"><stop offset="0" stop-color="#0d2b85"/><stop offset="1" stop-color="#fff"/></linearGradient><linearGradient id="linear-gradient-2" x1="47.51" y1="127.24" x2="43.29" y2="123.26" xlink:href="#linear-gradient"/></defs><title>in-text-device-tablet</title><g class="cls-1"><g id="Слой_1" data-name="Слой 1"><rect class="cls-2" x="5.96" y="4.71" width="158.64" height="224.58" rx="9.36" ry="9.36"/><rect class="cls-3" x="5.96" y="4.71" width="158.64" height="224.58" rx="9.36" ry="9.36"/><rect class="cls-4" x="5.96" y="4.71" width="158.64" height="224.58" rx="9.36" ry="9.36"/><path d="M13.52,228.63H157a.39.39,0,0,1,.36.36h0a.39.39,0,0,1-.36.36H13.52a.35.35,0,0,1-.36-.36h0a.35.35,0,0,1,.36-.36Z"/><path class="cls-5" d="M80.24,219.69a5,5,0,1,0,5-5,5,5,0,0,0-5,5Zm9.54,0a4.5,4.5,0,1,1-4.5-4.5,4.48,4.48,0,0,1,4.5,4.5Z"/><path class="cls-6" d="M85.1,16.53a1.23,1.23,0,1,0,0-2.46,1.23,1.23,0,1,0,0,2.46Z"/><path class="cls-7" d="M85.1,16.53a1.23,1.23,0,1,0,0-2.46,1.23,1.23,0,1,0,0,2.46Z"/><path class="cls-8" d="M81.2,16a.63.63,0,0,0,0-1.26.63.63,0,0,0,0,1.26Z"/><path class="cls-8" d="M81.2,15.81h0a.45.45,0,0,0,0-.9.45.45,0,0,0,0,.9Z"/><path class="cls-8" d="M81.2,15.63h0c.42.06.42-.54,0-.54s-.3.54,0,.54Z"/><path class="cls-9" d="M81.2,15.45h0a.06.06,0,0,1-.06-.06.21.21,0,0,1,.06-.12.13.13,0,0,1,.12.12c0,.06-.06.06-.12.06Z"/><rect class="cls-10" x="16.46" y="25.71" width="138" height="183.78"/><rect class="cls-11" x="23.96" y="31.71" width="123" height="13.5"/><path class="cls-10" d="M28.46,36.21H48v4.5H28.46Zm87.78,0h26.22v4.5H116.24Zm-64.5,0h24v4.5h-24Zm27.72,0H96v4.5H79.46Zm20.28,0h12.72v4.5H99.74Z"/><rect class="cls-11" x="23.96" y="51.21" width="123" height="158.28"/><rect class="cls-12" x="28.46" y="96.93" width="114" height="59.1"/><path class="cls-10" d="M28.46,55.71h72v4.5h-72Zm0,8.28H123v4.5H28.46Zm0,8.22h114v4.5h-114Zm0,8.28H63V85H28.46Zm0,8.22h102v4.5h-102Zm0,71.28H123v4.5H28.46Zm0,8.22h114v4.5h-114Zm0,8.28h42V181h-42Zm0,8.22h102v4.5h-102Zm0,8.28H123v4.5H28.46Zm0,8.22H137.24v4.5H28.46Z"/><g class="cls-13"><path class="cls-14" d="M67.82,125.94l1.33-3.35h1.57l-3.3,8.22H66.24l-3.32-8.22h1.57l1.34,3.32,1,2.86Z"/><path class="cls-10" d="M73.37,120.5a.92.92,0,0,1-1.84,0A.92.92,0,0,1,73.37,120.5Zm-.18,2H71.71v8.25h1.48Z"/><path class="cls-10" d="M76.71,123.65a3.15,3.15,0,0,1,2.74-1.19,4.21,4.21,0,0,1,0,8.43,3.23,3.23,0,0,1-2.71-1.24v1.1H75.23V120.2h1.48Zm2.65,5.93a2.92,2.92,0,1,0-2.65-2.91A2.72,2.72,0,0,0,79.37,129.58Z"/><path class="cls-10" d="M92.95,127H86a2.72,2.72,0,0,0,2.74,2.56,2.63,2.63,0,0,0,2.43-1.36h1.52a4.23,4.23,0,1,1-3.93-5.76A4,4,0,0,1,93,126.32,2.2,2.2,0,0,1,92.95,127Zm-1.52-1.22a2.48,2.48,0,0,0-2.62-2,2.57,2.57,0,0,0-2.7,2Z"/><path class="cls-14" d="M98.43,125.94l1.33-3.35h1.57L98,130.81H96.85l-3.32-8.22H95.1l1.34,3.32,1,2.86Z"/><path class="cls-10" d="M104,120.5a.92.92,0,0,1-1.84,0A.92.92,0,0,1,104,120.5Zm-.18,2h-1.48v8.25h1.48Z"/><path class="cls-10" d="M112.34,120.2h1.48v10.55h-1.48v-1.1a3.24,3.24,0,0,1-2.73,1.24,4.22,4.22,0,1,1,0-8.43,3.15,3.15,0,0,1,2.74,1.19Zm-2.77,3.56a2.83,2.83,0,0,0-2.82,2.88,2.8,2.8,0,1,0,2.82-2.88Z"/><path class="cls-10" d="M123.6,127H116.7a2.72,2.72,0,0,0,2.74,2.56,2.63,2.63,0,0,0,2.43-1.36h1.52a4.23,4.23,0,1,1-3.93-5.76,4,4,0,0,1,4.18,3.84A2.2,2.2,0,0,1,123.6,127Zm-1.52-1.22a2.48,2.48,0,0,0-2.62-2,2.57,2.57,0,0,0-2.7,2Z"/><path class="cls-10" d="M129.11,130.9a4.22,4.22,0,1,1,4.42-4.22A4.14,4.14,0,0,1,129.11,130.9Zm0-1.33a2.9,2.9,0,1,0-2.89-2.89A2.8,2.8,0,0,0,129.11,129.58Z"/></g><g class="cls-13"><path class="cls-15" d="M59.25,119l-6.9,10.32h0l-1.91,2.81a2.16,2.16,0,0,1-3.31.32l-.09-.1a2.24,2.24,0,0,1-.17-.22L46.09,131,37,117.79h1a10,10,0,0,1,8.28,4.38l1.39,1.92,2.9-4.42a3.79,3.79,0,0,0,.59-2.6c-.38-2.73-3.52-3.39-5.79-3.39h11A3.38,3.38,0,0,1,59.25,119Z"/><g class="cls-16"><path class="cls-17" d="M57.47,113.84,46.09,131,37,117.79h1a10,10,0,0,1,8.28,4.38l1.39,1.92L51.08,119c1.05-4.34-2.94-5.29-5.66-5.29h11A2.91,2.91,0,0,1,57.47,113.84Z"/></g><path class="cls-18" d="M47.72,124.09l-3.16,4.64L37,117.79h1a10,10,0,0,1,8.28,4.38Z"/></g></g></g></svg>