<svg xmlns="http://www.w3.org/2000/svg" xmlns:xlink="http://www.w3.org/1999/xlink" viewBox="0 0 389.24 230.99"><defs><style>.cls-1{isolation:isolate;}.cls-15,.cls-2{fill:#18192b;}.cls-10,.cls-11,.cls-2,.cls-3,.cls-4,.cls-5,.cls-6,.cls-8,.cls-9{fill-rule:evenodd;}.cls-3{fill:#aaa;}.cls-4{fill:#f0f0f0;}.cls-5{fill:#f6f6f6;}.cls-6{fill:#3a3a3a;}.cls-7{fill:none;}.cls-8{fill:#f7f7f7;}.cls-9{fill:#cbcbcb;}.cls-10{fill:#b2b2b2;}.cls-11{fill:#e4e4e4;}.cls-12{fill:#fff;}.cls-13{fill:#dcdfe2;}.cls-14{fill:#9eacb7;}.cls-16{fill:#8d19e0;}.cls-17{fill:url(#Безымянный_градиент_32);}.cls-18,.cls-20{mix-blend-mode:multiply;}.cls-19{fill:url(#linear-gradient);}.cls-20{fill:url(#linear-gradient-2);}</style><linearGradient id="Безымянный_градиент_32" x1="113.99" y1="148.19" x2="93.37" y2="127.58" gradientUnits="userSpaceOnUse"><stop offset="0" stop-color="#aa2afc"/><stop offset="1" stop-color="#5f009e"/></linearGradient><linearGradient id="linear-gradient" x1="109.68" y1="142.73" x2="104.69" y2="139.87" gradientUnits="userSpaceOnUse"><stop offset="0" stop-color="#0d2b85"/><stop offset="1" stop-color="#fff"/></linearGradient><linearGradient id="linear-gradient-2" x1="101.81" y1="146.72" x2="96.88" y2="142.07" xlink:href="#linear-gradient"/></defs><title>in-text-device-desktop</title><g class="cls-1"><g id="Слой_1" data-name="Слой 1"><path class="cls-2" d="M343,213.5H378.6a.41.41,0,0,1,.42.42v5.46c-2.58.66-10.86,4.5-31.74,4.5q-20.79-.09-154.38,0h-155c-24.12,0-30.84-3.66-33.9-4.5v-5.46a.41.41,0,0,1,.42-.42h36a29.63,29.63,0,0,1-.78-8V23.84c0-6.72.48-9.6,2.46-11.82C44.4,9.5,48.06,7.94,55.2,7.94H329.46c6.3,0,9.24,1.32,11.46,3.6s3.06,5.4,3.06,12.3V205.46a25.67,25.67,0,0,1-1,8Z"/><path class="cls-3" d="M191.82,18.14a1.41,1.41,0,0,0,0-2.82,1.41,1.41,0,1,0,0,2.82Z"/><path class="cls-4" d="M191.82,17.48a.72.72,0,1,0,0-1.44.72.72,0,1,0,0,1.44Z"/><path class="cls-5" d="M4,219.38v-5.46a.41.41,0,0,1,.42-.42H378.6a.41.41,0,0,1,.42.42v5.46c-2.58.66-10.86,4.5-31.74,4.5s-154.38,0-154.38,0h-155c-24.12,0-30.84-3.66-33.9-4.5Z"/><path class="cls-2" d="M4,219.38v-5.46a.41.41,0,0,1,.42-.42H378.6a.41.41,0,0,1,.42.42v5.46c-2.58.66-10.86,4.5-31.74,4.5s-154.38,0-154.38,0h-155c-24.12,0-30.84-3.66-33.9-4.5Z"/><polygon class="cls-6" points="3.66 219.08 379.02 219.26 377.89 220.46 3.66 220.46 3.66 219.08"/><polygon class="cls-7" points="3.84 219.08 379.02 219.08 376.99 220 3.84 220.46 3.84 219.08"/><path class="cls-8" d="M378.6,213.5a.41.41,0,0,1,.42.42v5.34H4v-5.34a.41.41,0,0,1,.42-.42Z"/><path class="cls-2" d="M378.6,213.5a.41.41,0,0,1,.42.42v5.34H4v-5.34a.41.41,0,0,1,.42-.42Z"/><path class="cls-9" d="M164.22,213.5h54.6c0,1.74-1.38,4.2-4.92,4.2H168.84a4.64,4.64,0,0,1-4.62-4.2Z"/><path class="cls-6" d="M164.22,213.5h54.6c0,1.74-1.38,4.2-4.92,4.2H168.84a4.64,4.64,0,0,1-4.62-4.2Z"/><path class="cls-4" d="M368.34,222c1-.06,1.68-.24,1.68-.42s-.78-.24-1.74-.18-1.68.3-1.68.48.78.24,1.74.12Z"/><path class="cls-10" d="M368.34,222c1-.06,1.68-.24,1.68-.42s-.78-.24-1.74-.18-1.68.3-1.68.48.78.24,1.74.12Z"/><polygon class="cls-11" points="367.92 221.72 367.5 221.66 368.16 221.6 368.4 221.48 368.7 221.54 369.3 221.54 368.88 221.66 369.06 221.72 368.4 221.72 367.8 221.84 367.92 221.72"/><path class="cls-4" d="M243.54,222.68c1,0,1.74-.12,1.74-.3s-.78-.3-1.74-.3-1.68.12-1.68.3.72.3,1.68.3Z"/><path class="cls-10" d="M243.54,222.68c1,0,1.74-.12,1.74-.3s-.78-.3-1.74-.3-1.68.12-1.68.3.72.3,1.68.3Z"/><polygon class="cls-11" points="243.18 222.32 242.76 222.26 243.42 222.26 243.66 222.14 243.96 222.26 244.56 222.26 244.14 222.32 244.32 222.44 243.66 222.38 243 222.44 243.18 222.32"/><path class="cls-4" d="M139.38,222.68c1,0,1.74-.12,1.74-.3s-.78-.3-1.74-.3-1.68.12-1.68.3.72.3,1.68.3Z"/><path class="cls-10" d="M139.38,222.68c1,0,1.74-.12,1.74-.3s-.78-.3-1.74-.3-1.68.12-1.68.3.72.3,1.68.3Z"/><polygon class="cls-11" points="138.66 222.32 138.24 222.26 138.9 222.26 139.14 222.14 139.44 222.26 140.04 222.26 139.62 222.32 139.8 222.44 139.14 222.38 138.48 222.44 138.66 222.32"/><path class="cls-4" d="M14.7,221.84c1,.06,1.74,0,1.74-.18s-.72-.36-1.68-.42-1.74-.06-1.74.12.72.42,1.68.48Z"/><path class="cls-10" d="M14.7,221.84c1,.06,1.74,0,1.74-.18s-.72-.36-1.68-.42-1.74-.06-1.74.12.72.42,1.68.48Z"/><polygon class="cls-11" points="14.4 221.48 13.98 221.36 14.58 221.36 14.88 221.3 15.12 221.42 15.78 221.48 15.36 221.54 15.48 221.66 14.88 221.54 14.22 221.54 14.4 221.48 14.4 221.48"/><rect class="cls-12" x="49.02" y="21.44" width="286.5" height="180"/><rect class="cls-13" x="67.8" y="28.94" width="249" height="13.5"/><path class="cls-12" d="M72.3,33.44H91.8v4.5H72.3Zm71.22,0H175v4.5h-31.5Zm-48,0h24v4.5h-24Zm83.28,0H193v4.5H178.8Zm92.22,0h4.5v4.5H271Zm-147.72,0h16.5v4.5H123.3Zm73.5,0h19.5v4.5H196.8Zm23.22,0h24v4.5H220Zm27.78,0h19.5v4.5H247.8Z"/><path class="cls-13" d="M238.8,95.72h78V57.44h-78Zm0-41.28H283v-4.5H238.8Zm65.22,0h4.5v-4.5H304Zm8.28,0h4.5v-4.5h-4.5Z"/><path class="cls-12" d="M243.3,61.94h43.5v4.5H243.3Zm0,8.28h69v4.5h-69Zm0,8.22h61.5v4.5H243.3Zm0,8.28h36v4.5h-36Z"/><path class="cls-13" d="M238.8,201.44h78v-37.5h-78Zm0-40.5h36.72v-4.5H238.8Z"/><path class="cls-12" d="M243.3,168.44h21v4.5h-21Zm0,8.28h39v4.5h-39Zm0,8.22h69v4.5h-69Zm0,8.28h28.5v4.5H243.3Z"/><rect class="cls-13" x="238.8" y="110.72" width="78" height="38.22"/><rect class="cls-12" x="243.3" y="139.94" width="34.5" height="4.5"/><path class="cls-13" d="M238.8,107.72H268v-4.5H238.8Zm65.22,0h4.5v-4.5H304Zm8.28,0h4.5v-4.5h-4.5Z"/><rect class="cls-14" x="304.8" y="115.22" width="7.5" height="7.5"/><rect class="cls-12" x="243.3" y="115.22" width="13.5" height="4.5"/><rect class="cls-13" x="67.8" y="49.94" width="163.5" height="151.5"/><rect class="cls-15" x="72.3" y="103.94" width="154.5" height="77.28"/><path class="cls-12" d="M72.3,54.44h79.5v4.5H72.3Zm0,8.28H226.8v4.5H72.3Zm0,8.22H211.8v4.5H72.3Zm0,8.28h37.5v4.5H72.3Zm0,8.22h94.5v4.5H72.3Zm0,8.28H220v4.5H72.3Zm0,89.22H226.8v4.5H72.3Zm0,8.28h117v4.5H72.3Z"/><path class="cls-16" d="M125.53,145.2l1.55-3.91h1.83l-3.86,9.6h-1.37l-3.87-9.6h1.83l1.57,3.87,1.16,3.35Z"/><path class="cls-12" d="M132,138.84a1.08,1.08,0,0,1-2.15,0A1.08,1.08,0,0,1,132,138.84Zm-.21,2.34h-1.73v9.63h1.73Z"/><path class="cls-12" d="M135.91,142.52a3.68,3.68,0,0,1,3.2-1.39,4.92,4.92,0,0,1,0,9.84,3.78,3.78,0,0,1-3.17-1.44v1.29h-1.73V138.49h1.73Zm3.1,6.92a3.41,3.41,0,1,0-3.1-3.4A3.18,3.18,0,0,0,139,149.45Z"/><path class="cls-12" d="M154.87,146.47h-8.06a3.18,3.18,0,0,0,3.21,3,3.07,3.07,0,0,0,2.83-1.58h1.78a4.94,4.94,0,1,1-4.6-6.73,4.67,4.67,0,0,1,4.88,4.49A2.57,2.57,0,0,1,154.87,146.47ZM153.09,145a2.89,2.89,0,0,0-3.06-2.38,3,3,0,0,0-3.15,2.38Z"/><path class="cls-16" d="M161.28,145.2l1.55-3.91h1.83l-3.86,9.6h-1.37l-3.87-9.6h1.83l1.57,3.87,1.16,3.35Z"/><path class="cls-12" d="M167.75,138.84a1.08,1.08,0,0,1-2.15,0A1.08,1.08,0,0,1,167.75,138.84Zm-.21,2.34h-1.73v9.63h1.73Z"/><path class="cls-12" d="M177.53,138.49h1.73v12.33h-1.73v-1.29a3.79,3.79,0,0,1-3.19,1.44,4.92,4.92,0,1,1,0-9.84,3.68,3.68,0,0,1,3.21,1.39Zm-3.24,4.16A3.31,3.31,0,0,0,171,146a3.27,3.27,0,1,0,3.29-3.36Z"/><path class="cls-12" d="M190.68,146.47h-8.06a3.18,3.18,0,0,0,3.2,3,3.07,3.07,0,0,0,2.84-1.58h1.78a4.94,4.94,0,1,1-4.6-6.73,4.67,4.67,0,0,1,4.88,4.49A2.57,2.57,0,0,1,190.68,146.47ZM188.9,145a2.89,2.89,0,0,0-3.06-2.38,3,3,0,0,0-3.15,2.38Z"/><path class="cls-12" d="M197.12,151a4.93,4.93,0,1,1,5.16-4.93A4.84,4.84,0,0,1,197.12,151Zm0-1.55a3.39,3.39,0,1,0-3.38-3.38A3.27,3.27,0,0,0,197.12,149.45Z"/><path class="cls-17" d="M115.51,137.06l-8.06,12.06h0l-2.23,3.29a2.53,2.53,0,0,1-3.86.38l-.11-.12a2.61,2.61,0,0,1-.2-.26l-.89-1.31-10.58-15.4h1.19a11.7,11.7,0,0,1,9.67,5.12l1.63,2.24,3.38-5.16a4.42,4.42,0,0,0,.69-3c-.45-3.19-4.11-4-6.76-4h12.9A4,4,0,0,1,115.51,137.06Z"/><g class="cls-18"><path class="cls-19" d="M113.44,131.06l-13.29,20-10.58-15.4h1.19a11.7,11.7,0,0,1,9.67,5.12l1.63,2.24,3.92-6c1.23-5.06-3.43-6.18-6.61-6.18h12.9A3.4,3.4,0,0,1,113.44,131.06Z"/></g><path class="cls-20" d="M102.05,143l-3.69,5.42-8.8-12.78h1.19a11.7,11.7,0,0,1,9.67,5.12Z"/></g></g></svg>