<svg xmlns="http://www.w3.org/2000/svg" xmlns:xlink="http://www.w3.org/1999/xlink" viewBox="0 0 93.84 187.5"><defs><style>.cls-1{isolation:isolate;}.cls-19,.cls-2{fill:#18192b;}.cls-10,.cls-12,.cls-13,.cls-14,.cls-18,.cls-2,.cls-3,.cls-5,.cls-7,.cls-8,.cls-9{fill-rule:evenodd;}.cls-3{fill:#303743;}.cls-11,.cls-4{fill:none;stroke-width:0.36px;}.cls-4{stroke:#bfbfbf;}.cls-5{fill:#18192c;}.cls-6{fill:#545557;}.cls-7{fill:#4c5461;}.cls-8{fill:#272e3a;}.cls-9{fill:#304453;}.cls-10,.cls-15{fill:#fff;}.cls-11{stroke:#b2b2b2;}.cls-12{fill:#1e242c;}.cls-13{fill:#2b2e32;}.cls-14{fill:#4a90e2;}.cls-16,.cls-18{fill:#9eacb7;}.cls-17{fill:#dcdfe2;}.cls-20{opacity:0.95;}.cls-21{fill:#8d19e0;}.cls-22{fill:url(#Безымянный_градиент_32);}.cls-23,.cls-25{mix-blend-mode:multiply;}.cls-24{fill:url(#linear-gradient);}.cls-25{fill:url(#linear-gradient-2);}</style><linearGradient id="Безымянный_градиент_32" x1="28.55" y1="93.99" x2="16.93" y2="82.37" gradientUnits="userSpaceOnUse"><stop offset="0" stop-color="#aa2afc"/><stop offset="1" stop-color="#5f009e"/></linearGradient><linearGradient id="linear-gradient" x1="26.13" y1="90.91" x2="23.31" y2="89.29" gradientUnits="userSpaceOnUse"><stop offset="0" stop-color="#0d2b85"/><stop offset="1" stop-color="#fff"/></linearGradient><linearGradient id="linear-gradient-2" x1="21.69" y1="93.15" x2="18.91" y2="90.54" xlink:href="#linear-gradient"/></defs><title>in-text-device-phone</title><g class="cls-1"><g id="Слой_1" data-name="Слой 1"><path class="cls-2" d="M93.42,16.32C93.42,5.64,87.78,0,77.16,0H17C6.36,0,.66,5.64.66,16.32v9a9.94,9.94,0,0,1,.24,2.4v2.94a2.25,2.25,0,0,0-.06.66A5.89,5.89,0,0,1,.66,32.7v6.12c.12.06.18.18.18.48H.9V51.84c0,.42-.12.66-.24.72V56c.12.06.18.18.18.48H.9V69c0,.42-.12.66-.24.72V171.18c0,10.68,5.7,16.32,16.32,16.32H41.46a3.1,3.1,0,0,1,1.26-.24h8.76a4.12,4.12,0,0,1,1.14.24H77.16c10.62,0,16.26-5.7,16.26-16.32V65.1a.51.51,0,0,1-.12-.36l-.06-.66V43.8h0a1,1,0,0,1,.18-.72V16.32Z"/><path class="cls-3" d="M76.08,1.5c10.74,0,15.84,4.44,15.84,15.24V171.18c0,10.8-5.1,15-15.84,15H18c-10.74,0-16-4.2-16-15V16.74C2,5.94,7.26,1.5,18,1.5Z"/><path class="cls-4" d="M76.08,1.5c10.74,0,15.84,4.44,15.84,15.24V171.18c0,10.8-5.1,15-15.84,15H18c-10.74,0-16-4.2-16-15V16.74C2,5.94,7.26,1.5,18,1.5Z"/><path class="cls-5" d="M76.14,2.16C86.94,2.16,91,6.54,91,17.28V170.4c0,10.8-4.08,14.94-15.3,14.94H17.94c-10.56,0-15.12-4.14-15.12-14.7V17.28C2.82,6.54,7.2,2.16,17.94,2.16Z"/><rect class="cls-6" x="0.66" y="168.36" width="1.5" height="1.32"/><rect class="cls-6" x="91.68" y="168.36" width="1.74" height="1.32"/><rect class="cls-6" x="0.66" y="18.06" width="1.5" height="1.26"/><rect class="cls-6" x="91.68" y="18.06" width="1.74" height="1.26"/><path class="cls-7" d="M93.12,44.64a4.31,4.31,0,0,1,.18-1.26c.48.12.54.06.54.06V64.56a.69.69,0,0,1-.54.3c-.06-.06-.18-.24-.18-1.2v-19Z"/><path class="cls-8" d="M1,57.48a3.17,3.17,0,0,0-.12-1.2c0-.12-.06-.12-.18-.12a1.11,1.11,0,0,0-.42.12V69.36a1.38,1.38,0,0,0,.42.18c.06.06.18,0,.24-.06a3.49,3.49,0,0,0,.06-1c0-.84.06-10.38,0-11Z"/><path class="cls-8" d="M1,40.32A5.68,5.68,0,0,0,.84,39a.06.06,0,0,0-.06-.06,2.4,2.4,0,0,0-.54.18V52.2s0,.12.48.24c.06,0,.06-.06.12-.06A2.64,2.64,0,0,0,1,51.3c0-.84.06-10.38,0-11Z"/><path class="cls-8" d="M.9,26.28a2.06,2.06,0,0,0-.18-.84H.24L0,25.62v6.6l.24.24H.72a4.22,4.22,0,0,0,.18-1.2Z"/><path class="cls-9" d="M42.06,6.72a.78.78,0,0,0,0,1.56h9.78a.78.78,0,0,0,0-1.56Z"/><path class="cls-10" d="M42.06,6.72a.78.78,0,0,0,0,1.56h9.78a.78.78,0,0,0,0-1.56Z"/><path class="cls-10" d="M42.06,6.72a.78.78,0,0,0,0,1.56h9.78a.78.78,0,0,0,0-1.56Z"/><path class="cls-11" d="M51.84,8H42.06a.57.57,0,1,1,0-1.14h9.78a.57.57,0,0,1,0,1.14Z"/><path class="cls-12" d="M58.2,7.86a1.31,1.31,0,1,0-2.52-.72,1.31,1.31,0,1,0,2.52.72Z"/><path class="cls-13" d="M57.78,7.74a.87.87,0,1,0-1.68-.48.87.87,0,0,0,1.68.48Z"/><path class="cls-14" d="M23.1,5.28a1.08,1.08,0,0,1,1.08,1.08V7a4.81,4.81,0,0,0,4.8,4.8h36.3A4.83,4.83,0,0,0,70.14,7v-.6a1.13,1.13,0,0,1,1.08-1.14H79.8a8.66,8.66,0,0,1,8.64,8.52V173a8.55,8.55,0,0,1-8.58,8.46H14.52A8.51,8.51,0,0,1,5.94,173V13.74a8.51,8.51,0,0,1,8.58-8.46Z"/><rect class="cls-15" x="5.94" y="5.28" width="82.5" height="176.22" rx="9.46" ry="9.46"/><rect class="cls-16" x="26.94" y="16.5" width="40.5" height="9"/><rect class="cls-17" x="78.66" y="18" width="6" height="6"/><path class="cls-18" d="M9.66,19.5h5.28v.78H9.66Zm0,1.5h5.28v.78H9.66Zm5.28,1.5H9.66v.78h5.28Z"/><path class="cls-17" d="M5.94,29.28h82.5V30H5.94ZM9.66,37.5h45V33.78h-45Zm0,7.5h60V41.28h-60Zm0,7.5h75V48.78h-75Zm0,74.28h37.5V123H9.66Zm0,7.5h67.5V130.5H9.66Zm0,7.5h22.5V138H9.66Zm0,7.5h52.5V145.5H9.66Zm0,7.5h60V153h-60Zm0,7.5h75V160.5h-75ZM9.66,60h37.5V56.28H9.66Zm0,7.5h67.5V63.78H9.66Zm0,51.78h60V115.5h-60Zm0,60h37.5V175.5H9.66Zm0-7.5h60V168h-60Z"/><rect class="cls-19" x="9.66" y="71.28" width="75" height="40.5"/><g class="cls-20"><path class="cls-21" d="M35.06,92.3l.87-2.2h1l-2.17,5.41H34L31.83,90.1h1l.88,2.18.65,1.89Z"/><path class="cls-15" d="M38.71,88.72a.61.61,0,0,1-1.21,0A.61.61,0,0,1,38.71,88.72ZM38.59,90h-1v5.43h1Z"/><path class="cls-15" d="M40.91,90.79A2.08,2.08,0,0,1,42.72,90a2.77,2.77,0,0,1,0,5.55,2.13,2.13,0,0,1-1.79-.81v.72h-1V88.52h1Zm1.75,3.9a1.92,1.92,0,1,0-1.75-1.92A1.79,1.79,0,0,0,42.66,94.69Z"/><path class="cls-15" d="M51.59,93H47a1.79,1.79,0,0,0,1.81,1.69,1.73,1.73,0,0,0,1.6-.89h1A2.78,2.78,0,1,1,48.87,90a2.63,2.63,0,0,1,2.75,2.53A1.45,1.45,0,0,1,51.59,93Zm-1-.8a1.63,1.63,0,0,0-1.73-1.34,1.69,1.69,0,0,0-1.78,1.34Z"/><path class="cls-21" d="M55.2,92.3l.87-2.2h1l-2.17,5.41h-.77L52,90.1h1l.88,2.18.65,1.89Z"/><path class="cls-15" d="M58.85,88.72a.61.61,0,0,1-1.21,0A.61.61,0,0,1,58.85,88.72ZM58.73,90h-1v5.43h1Z"/><path class="cls-15" d="M64.36,88.52h1v6.95h-1v-.72a2.14,2.14,0,0,1-1.8.81,2.77,2.77,0,1,1,0-5.55,2.08,2.08,0,0,1,1.81.78Zm-1.83,2.34a1.86,1.86,0,0,0-1.86,1.89,1.84,1.84,0,1,0,1.86-1.89Z"/><path class="cls-15" d="M71.77,93H67.23A1.79,1.79,0,0,0,69,94.7a1.73,1.73,0,0,0,1.6-.89h1A2.78,2.78,0,1,1,69,90a2.63,2.63,0,0,1,2.75,2.53A1.45,1.45,0,0,1,71.77,93Zm-1-.8A1.63,1.63,0,0,0,69,90.87a1.69,1.69,0,0,0-1.78,1.34Z"/><path class="cls-15" d="M75.4,95.56a2.78,2.78,0,1,1,2.91-2.78A2.72,2.72,0,0,1,75.4,95.56Zm0-.87a1.91,1.91,0,1,0-1.91-1.91A1.85,1.85,0,0,0,75.4,94.69Z"/></g><g class="cls-20"><path class="cls-22" d="M29.41,87.71,24.87,94.5h0l-1.26,1.85a1.42,1.42,0,0,1-2.18.21l-.06-.07-.11-.15-.5-.74-6-8.68h.67a6.59,6.59,0,0,1,5.45,2.88l.92,1.26,1.91-2.91a2.49,2.49,0,0,0,.39-1.71c-.25-1.8-2.32-2.23-3.81-2.23h7.27A2.23,2.23,0,0,1,29.41,87.71Z"/><g class="cls-23"><path class="cls-24" d="M28.25,84.33,20.76,95.62l-6-8.68h.67a6.59,6.59,0,0,1,5.45,2.88l.92,1.26L24,87.71c.69-2.85-1.93-3.48-3.72-3.48h7.27A1.92,1.92,0,0,1,28.25,84.33Z"/></g><path class="cls-25" d="M21.83,91.08l-2.08,3.05-5-7.2h.67a6.59,6.59,0,0,1,5.45,2.88Z"/></g></g></g></svg>