<svg xmlns="http://www.w3.org/2000/svg" xmlns:xlink="http://www.w3.org/1999/xlink" viewBox="0 0 169.95 236.16"><defs><style>.cls-1{isolation:isolate;}.cls-2{fill:#baa696;}.cls-3{fill:#e8e8e8;}.cls-4{fill:#18192b;}.cls-5{fill:#d6d6d6;}.cls-5,.cls-6{fill-rule:evenodd;}.cls-6{fill:#2d2d2d;}.cls-7,.cls-8,.cls-9{fill:none;}.cls-7{stroke:#8c9399;stroke-width:0.78px;}.cls-8,.cls-9{stroke:#000;stroke-linecap:round;stroke-linejoin:round;stroke-width:0.36px;}.cls-8{stroke-dasharray:0.06 0.18;}.cls-9{stroke-dasharray:0.06 0.12;}.cls-10{fill:#fff;}.cls-11{fill:#9eacb7;}.cls-12{fill:#dcdfe2;}.cls-13{opacity:0.95;}.cls-14{fill:#8d19e0;}.cls-15{fill:url(#Безымянный_градиент_32);}.cls-16,.cls-18{mix-blend-mode:multiply;}.cls-17{fill:url(#linear-gradient);}.cls-18{fill:url(#linear-gradient-2);}</style><linearGradient id="Безымянный_градиент_32" x1="55.87" y1="117.78" x2="37.08" y2="98.99" gradientUnits="userSpaceOnUse"><stop offset="0" stop-color="#aa2afc"/><stop offset="1" stop-color="#5f009e"/></linearGradient><linearGradient id="linear-gradient" x1="51.95" y1="112.8" x2="47.4" y2="110.19" gradientUnits="userSpaceOnUse"><stop offset="0" stop-color="#0d2b85"/><stop offset="1" stop-color="#fff"/></linearGradient><linearGradient id="linear-gradient-2" x1="44.77" y1="116.44" x2="40.28" y2="112.2" xlink:href="#linear-gradient"/></defs><title>instream-device-tablet</title><g class="cls-1"><g id="Слой_1" data-name="Слой 1"><rect class="cls-2" x="5.27" y="5.83" width="158.64" height="224.58" rx="9.36" ry="9.36"/><rect class="cls-3" x="5.27" y="5.83" width="158.64" height="224.58" rx="9.36" ry="9.36"/><rect class="cls-4" x="5.27" y="5.83" width="158.64" height="224.58" rx="9.36" ry="9.36"/><path d="M12.83,229.75H156.35a.39.39,0,0,1,.36.36h0a.39.39,0,0,1-.36.36H12.83a.35.35,0,0,1-.36-.36h0a.35.35,0,0,1,.36-.36Z"/><path class="cls-5" d="M79.55,220.81a5,5,0,1,0,5-5,5,5,0,0,0-5,5Zm9.54,0a4.5,4.5,0,1,1-4.5-4.5,4.48,4.48,0,0,1,4.5,4.5Z"/><path class="cls-6" d="M84.41,17.65a1.23,1.23,0,1,0,0-2.46,1.23,1.23,0,1,0,0,2.46Z"/><path class="cls-7" d="M84.41,17.65a1.23,1.23,0,1,0,0-2.46,1.23,1.23,0,1,0,0,2.46Z"/><path class="cls-8" d="M80.51,17.11a.63.63,0,0,0,0-1.26.63.63,0,0,0,0,1.26Z"/><path class="cls-8" d="M80.51,16.93h0a.45.45,0,0,0,0-.9.45.45,0,0,0,0,.9Z"/><path class="cls-8" d="M80.51,16.75h0a.27.27,0,0,0,0-.54c-.3,0-.3.54,0,.54Z"/><path class="cls-9" d="M80.51,16.57h0a.06.06,0,0,1-.06-.06.21.21,0,0,1,.06-.12.13.13,0,0,1,.12.12c0,.06-.06.06-.12.06Z"/><rect class="cls-10" x="15.77" y="26.83" width="138" height="183.78"/><rect class="cls-11" x="23.27" y="32.83" width="48" height="12"/><rect class="cls-12" x="23.27" y="50.83" width="123" height="13.5"/><path class="cls-10" d="M27.77,55.33h19.5v4.5H27.77Zm87.78,0h26.22v4.5H115.55Zm-64.5,0h24v4.5h-24Zm27.72,0h16.5v4.5H78.77Zm20.28,0h12.72v4.5H99.05Z"/><rect class="cls-11" x="23.27" y="70.33" width="123" height="6"/><rect class="cls-4" x="23.27" y="82.33" width="123" height="63.78"/><rect class="cls-12" x="23.27" y="152.11" width="58.5" height="33.72"/><rect class="cls-11" x="69.77" y="156.61" width="7.5" height="7.5"/><path class="cls-10" d="M27.77,156.61h19.5v4.5H27.77Zm0,20.22h34.5v4.5H27.77Z"/><rect class="cls-12" x="23.27" y="191.83" width="123" height="18.78"/><rect class="cls-11" x="134.27" y="196.33" width="7.5" height="7.5"/><rect class="cls-10" x="27.77" y="196.33" width="19.5" height="4.5"/><rect class="cls-12" x="87.77" y="152.11" width="58.5" height="33.72"/><rect class="cls-11" x="134.27" y="156.61" width="7.5" height="7.5"/><path class="cls-10" d="M92.27,156.61h13.5v4.5H92.27Zm0,20.22h42v4.5h-42Z"/><rect class="cls-11" x="138.77" y="35.11" width="7.5" height="7.5"/><rect class="cls-12" x="127.55" y="35.11" width="7.5" height="7.5"/><rect class="cls-11" x="116.27" y="35.11" width="7.5" height="7.5"/><rect class="cls-12" x="105.05" y="35.11" width="7.5" height="7.5"/><g class="cls-13"><path class="cls-14" d="M66.39,115.06l1.41-3.56h1.67L66,120.24H64.71l-3.53-8.75h1.67L64.27,115l1.06,3Z"/><path class="cls-10" d="M72.29,109.26a1,1,0,0,1-2,0A1,1,0,0,1,72.29,109.26Zm-.19,2.13H70.53v8.78H72.1Z"/><path class="cls-10" d="M75.86,112.62a3.36,3.36,0,0,1,2.92-1.27,4.49,4.49,0,0,1,0,9A3.44,3.44,0,0,1,75.86,119v1.17H74.28V108.94h1.57Zm2.82,6.31a3.11,3.11,0,1,0-2.82-3.1A2.9,2.9,0,0,0,78.68,118.92Z"/><path class="cls-10" d="M93.13,116.21H85.78a2.9,2.9,0,0,0,2.92,2.73,2.8,2.8,0,0,0,2.58-1.44h1.62a4.5,4.5,0,1,1-4.19-6.13,4.26,4.26,0,0,1,4.44,4.09A2.34,2.34,0,0,1,93.13,116.21Zm-1.62-1.3a2.64,2.64,0,0,0-2.79-2.17,2.73,2.73,0,0,0-2.87,2.17Z"/><path class="cls-14" d="M99,115.06l1.41-3.56h1.67l-3.51,8.75H97.29l-3.53-8.75h1.67L96.85,115l1.06,3Z"/><path class="cls-10" d="M104.87,109.26a1,1,0,0,1-2,0A1,1,0,0,1,104.87,109.26Zm-.19,2.13h-1.57v8.78h1.57Z"/><path class="cls-10" d="M113.78,108.94h1.57v11.23h-1.57V119a3.45,3.45,0,0,1-2.9,1.32,4.49,4.49,0,1,1,0-9,3.36,3.36,0,0,1,2.92,1.27Zm-3,3.79a3,3,0,0,0-3,3.06,3,3,0,1,0,3-3.06Z"/><path class="cls-10" d="M125.76,116.21h-7.35a2.9,2.9,0,0,0,2.92,2.73,2.8,2.8,0,0,0,2.58-1.44h1.62a4.5,4.5,0,1,1-4.19-6.13,4.26,4.26,0,0,1,4.44,4.09A2.34,2.34,0,0,1,125.76,116.21Zm-1.62-1.3a2.64,2.64,0,0,0-2.79-2.17,2.73,2.73,0,0,0-2.87,2.17Z"/><path class="cls-10" d="M131.63,120.33a4.5,4.5,0,1,1,4.7-4.49A4.41,4.41,0,0,1,131.63,120.33Zm0-1.41a3.09,3.09,0,1,0-3.08-3.08A3,3,0,0,0,131.63,118.92Z"/></g><g class="cls-13"><path class="cls-15" d="M57.26,107.63l-7.34,11h0l-2,3a2.3,2.3,0,0,1-3.52.34l-.1-.11a2.38,2.38,0,0,1-.18-.24l-.81-1.19-9.65-14H34.7A10.66,10.66,0,0,1,43.51,111l1.48,2,3.08-4.7a4,4,0,0,0,.63-2.77C48.3,102.71,45,102,42.55,102H54.31A3.6,3.6,0,0,1,57.26,107.63Z"/><g class="cls-16"><path class="cls-17" d="M55.38,102.17,43.26,120.42l-9.65-14H34.7A10.66,10.66,0,0,1,43.51,111l1.48,2,3.58-5.45c1.12-4.61-3.13-5.63-6-5.63H54.31A3.1,3.1,0,0,1,55.38,102.17Z"/></g><path class="cls-18" d="M45,113.08,41.64,118l-8-11.64H34.7A10.66,10.66,0,0,1,43.51,111Z"/></g></g></g></svg>