<svg xmlns="http://www.w3.org/2000/svg" xmlns:xlink="http://www.w3.org/1999/xlink" viewBox="0 0 93.84 187.5"><defs><style>.cls-1{isolation:isolate;}.cls-19,.cls-2{fill:#18192b;}.cls-10,.cls-12,.cls-13,.cls-14,.cls-18,.cls-2,.cls-3,.cls-5,.cls-7,.cls-8,.cls-9{fill-rule:evenodd;}.cls-3{fill:#303743;}.cls-11,.cls-4{fill:none;stroke-width:0.36px;}.cls-4{stroke:#bfbfbf;}.cls-5{fill:#18192c;}.cls-6{fill:#545557;}.cls-7{fill:#4c5461;}.cls-8{fill:#272e3a;}.cls-9{fill:#304453;}.cls-10,.cls-15{fill:#fff;}.cls-11{stroke:#b2b2b2;}.cls-12{fill:#1e242c;}.cls-13{fill:#2b2e32;}.cls-14{fill:#4a90e2;}.cls-16,.cls-18{fill:#9eacb7;}.cls-17{fill:#dcdfe2;}.cls-20{opacity:0.95;}.cls-21{fill:#8d19e0;}.cls-22{fill:url(#Безымянный_градиент_32);}.cls-23,.cls-25{mix-blend-mode:multiply;}.cls-24{fill:url(#linear-gradient);}.cls-25{fill:url(#linear-gradient-2);}</style><linearGradient id="Безымянный_градиент_32" x1="29.21" y1="79.34" x2="17.78" y2="67.9" gradientUnits="userSpaceOnUse"><stop offset="0" stop-color="#aa2afc"/><stop offset="1" stop-color="#5f009e"/></linearGradient><linearGradient id="linear-gradient" x1="26.82" y1="76.31" x2="24.06" y2="74.72" gradientUnits="userSpaceOnUse"><stop offset="0" stop-color="#0d2b85"/><stop offset="1" stop-color="#fff"/></linearGradient><linearGradient id="linear-gradient-2" x1="22.46" y1="78.52" x2="19.73" y2="75.94" xlink:href="#linear-gradient"/></defs><title>instream-device-phone</title><g class="cls-1"><g id="Слой_1" data-name="Слой 1"><path class="cls-2" d="M93.42,16.32C93.42,5.64,87.78,0,77.16,0H17C6.36,0,.66,5.64.66,16.32v9a9.94,9.94,0,0,1,.24,2.4v2.94a2.25,2.25,0,0,0-.06.66A5.89,5.89,0,0,1,.66,32.7v6.12c.12.06.18.18.18.48H.9V51.84c0,.42-.12.66-.24.72V56c.12.06.18.18.18.48H.9V69c0,.42-.12.66-.24.72V171.18c0,10.68,5.7,16.32,16.32,16.32H41.46a3.1,3.1,0,0,1,1.26-.24h8.76a4.12,4.12,0,0,1,1.14.24H77.16c10.62,0,16.26-5.7,16.26-16.32V65.1a.51.51,0,0,1-.12-.36l-.06-.66V43.8h0a1,1,0,0,1,.18-.72V16.32Z"/><path class="cls-3" d="M76.08,1.5c10.74,0,15.84,4.44,15.84,15.24V171.18c0,10.8-5.1,15-15.84,15H18c-10.74,0-16-4.2-16-15V16.74C2,5.94,7.26,1.5,18,1.5Z"/><path class="cls-4" d="M76.08,1.5c10.74,0,15.84,4.44,15.84,15.24V171.18c0,10.8-5.1,15-15.84,15H18c-10.74,0-16-4.2-16-15V16.74C2,5.94,7.26,1.5,18,1.5Z"/><path class="cls-5" d="M76.14,2.16C86.94,2.16,91,6.54,91,17.28V170.4c0,10.8-4.08,14.94-15.3,14.94H17.94c-10.56,0-15.12-4.14-15.12-14.7V17.28C2.82,6.54,7.2,2.16,17.94,2.16Z"/><rect class="cls-6" x="0.66" y="168.36" width="1.5" height="1.32"/><rect class="cls-6" x="91.68" y="168.36" width="1.74" height="1.32"/><rect class="cls-6" x="0.66" y="18.06" width="1.5" height="1.26"/><rect class="cls-6" x="91.68" y="18.06" width="1.74" height="1.26"/><path class="cls-7" d="M93.12,44.64a4.31,4.31,0,0,1,.18-1.26c.48.12.54.06.54.06V64.56a.69.69,0,0,1-.54.3c-.06-.06-.18-.24-.18-1.2v-19Z"/><path class="cls-8" d="M1,57.48a3.17,3.17,0,0,0-.12-1.2c0-.12-.06-.12-.18-.12a1.11,1.11,0,0,0-.42.12V69.36a1.38,1.38,0,0,0,.42.18c.06.06.18,0,.24-.06a3.49,3.49,0,0,0,.06-1c0-.84.06-10.38,0-11Z"/><path class="cls-8" d="M1,40.32A5.68,5.68,0,0,0,.84,39a.06.06,0,0,0-.06-.06,2.4,2.4,0,0,0-.54.18V52.2s0,.12.48.24c.06,0,.06-.06.12-.06A2.64,2.64,0,0,0,1,51.3c0-.84.06-10.38,0-11Z"/><path class="cls-8" d="M.9,26.28a2.06,2.06,0,0,0-.18-.84H.24L0,25.62v6.6l.24.24H.72a4.22,4.22,0,0,0,.18-1.2Z"/><path class="cls-9" d="M42.06,6.72a.78.78,0,0,0,0,1.56h9.78a.78.78,0,0,0,0-1.56Z"/><path class="cls-10" d="M42.06,6.72a.78.78,0,0,0,0,1.56h9.78a.78.78,0,0,0,0-1.56Z"/><path class="cls-10" d="M42.06,6.72a.78.78,0,0,0,0,1.56h9.78a.78.78,0,0,0,0-1.56Z"/><path class="cls-11" d="M51.84,8H42.06a.57.57,0,1,1,0-1.14h9.78a.57.57,0,0,1,0,1.14Z"/><path class="cls-12" d="M58.2,7.86a1.31,1.31,0,1,0-2.52-.72,1.31,1.31,0,1,0,2.52.72Z"/><path class="cls-13" d="M57.78,7.74a.87.87,0,1,0-1.68-.48.87.87,0,0,0,1.68.48Z"/><path class="cls-14" d="M23.1,5.28a1.08,1.08,0,0,1,1.08,1.08V7a4.81,4.81,0,0,0,4.8,4.8h36.3A4.83,4.83,0,0,0,70.14,7v-.6a1.13,1.13,0,0,1,1.08-1.14H79.8a8.66,8.66,0,0,1,8.64,8.52V173a8.55,8.55,0,0,1-8.58,8.46H14.52A8.51,8.51,0,0,1,5.94,173V13.74a8.51,8.51,0,0,1,8.58-8.46Z"/><rect class="cls-15" x="5.94" y="5.28" width="82.5" height="176.22" rx="5.53" ry="5.53"/><rect class="cls-16" x="26.94" y="16.5" width="40.5" height="9"/><rect class="cls-17" x="78.66" y="18" width="6" height="6"/><path class="cls-18" d="M9.66,19.5h5.28v.78H9.66Zm0,1.5h5.28v.78H9.66Zm5.28,1.5H9.66v.78h5.28Z"/><path class="cls-17" d="M5.94,29.28h82.5V30H5.94Zm3.72,4.5h75V43.5h-75Z"/><rect class="cls-16" x="9.66" y="47.28" width="75" height="5.22"/><rect class="cls-19" x="9.66" y="56.28" width="75" height="40.5"/><rect class="cls-17" x="9.66" y="100.5" width="35.28" height="28.5"/><path class="cls-15" d="M13.44,104.28H24.66V108H13.44Zm0,17.22H38.16v3.78H13.44Z"/><rect class="cls-16" x="35.16" y="104.28" width="6" height="6"/><rect class="cls-17" x="9.66" y="132.78" width="75" height="28.5"/><path class="cls-15" d="M13.44,136.5H32.16v3.78H13.44Zm0,17.28H68.16v3.72H13.44Z"/><rect class="cls-16" x="74.94" y="136.5" width="6" height="6"/><rect class="cls-17" x="49.44" y="100.5" width="35.22" height="28.5"/><path class="cls-15" d="M53.16,104.28H67.44V108H53.16Zm0,17.22h19.5v3.78H53.16Z"/><rect class="cls-16" x="74.94" y="104.28" width="6" height="6"/><rect class="cls-17" x="9.66" y="164.69" width="35.28" height="16.5"/><rect class="cls-15" x="13.44" y="168.78" width="6.72" height="3.72"/><rect class="cls-16" x="35.16" y="168.78" width="6" height="6"/><rect class="cls-17" x="49.44" y="164.69" width="35.22" height="16.5"/><rect class="cls-15" x="53.16" y="168.78" width="17.28" height="3.72"/><rect class="cls-16" x="74.94" y="168.78" width="6" height="6"/><path class="cls-15" d="M13.44,36.78h19.5V40.5H13.44Zm23.22,0h24V40.5h-24Zm27.78,0h16.5V40.5H64.44Z"/><g class="cls-20"><path class="cls-21" d="M35.61,77.68l.86-2.17h1l-2.14,5.32h-.76l-2.15-5.32h1l.87,2.15L35,79.51Z"/><path class="cls-15" d="M39.2,74.15a.6.6,0,0,1-1.19,0A.6.6,0,0,1,39.2,74.15Zm-.12,1.3h-1v5.34h1Z"/><path class="cls-15" d="M41.37,76.19a2,2,0,0,1,1.78-.77,2.73,2.73,0,0,1,0,5.46,2.09,2.09,0,0,1-1.76-.8v.71h-1V74h1ZM43.09,80a1.89,1.89,0,1,0-1.72-1.88A1.76,1.76,0,0,0,43.09,80Z"/><path class="cls-15" d="M51.88,78.38H47.41A1.76,1.76,0,0,0,49.19,80a1.7,1.7,0,0,0,1.57-.88h1a2.74,2.74,0,1,1-2.55-3.73,2.59,2.59,0,0,1,2.7,2.49A1.43,1.43,0,0,1,51.88,78.38Zm-1-.79a1.6,1.6,0,0,0-1.7-1.32,1.66,1.66,0,0,0-1.75,1.32Z"/><path class="cls-21" d="M55.44,77.68l.86-2.17h1l-2.14,5.32h-.76l-2.15-5.32h1l.87,2.15.64,1.86Z"/><path class="cls-15" d="M59,74.15a.6.6,0,0,1-1.19,0A.6.6,0,0,1,59,74.15Zm-.12,1.3H58v5.34h1Z"/><path class="cls-15" d="M64.45,74h1v6.84h-1v-.71a2.1,2.1,0,0,1-1.77.8,2.73,2.73,0,1,1,0-5.46,2,2,0,0,1,1.78.77Zm-1.8,2.3a1.83,1.83,0,0,0-1.83,1.86,1.81,1.81,0,1,0,1.83-1.86Z"/><path class="cls-15" d="M71.74,78.38H67.27A1.76,1.76,0,0,0,69,80a1.7,1.7,0,0,0,1.57-.88h1a2.74,2.74,0,1,1-2.55-3.73,2.59,2.59,0,0,1,2.7,2.49A1.43,1.43,0,0,1,71.74,78.38Zm-1-.79a1.6,1.6,0,0,0-1.7-1.32,1.66,1.66,0,0,0-1.75,1.32Z"/><path class="cls-15" d="M75.31,80.89a2.74,2.74,0,1,1,2.86-2.73A2.68,2.68,0,0,1,75.31,80.89Zm0-.86a1.88,1.88,0,1,0-1.87-1.87A1.82,1.82,0,0,0,75.31,80Z"/></g><g class="cls-20"><path class="cls-22" d="M30.06,73.16l-4.47,6.69h0l-1.24,1.82a1.4,1.4,0,0,1-2.14.21l-.06-.06L22,81.67l-.49-.73L15.67,72.4h.66a6.49,6.49,0,0,1,5.36,2.84l.9,1.24,1.88-2.86a2.45,2.45,0,0,0,.38-1.68c-.25-1.77-2.28-2.2-3.75-2.2h7.16A2.19,2.19,0,0,1,30.06,73.16Z"/><g class="cls-23"><path class="cls-24" d="M28.91,69.84,21.54,80.94,15.67,72.4h.66a6.49,6.49,0,0,1,5.36,2.84l.9,1.24,2.18-3.32c.68-2.81-1.9-3.43-3.66-3.43h7.16A1.89,1.89,0,0,1,28.91,69.84Z"/></g><path class="cls-25" d="M22.59,76.48l-2,3L15.67,72.4h.66a6.49,6.49,0,0,1,5.36,2.84Z"/></g></g></g></svg>