<svg xmlns="http://www.w3.org/2000/svg" xmlns:xlink="http://www.w3.org/1999/xlink" viewBox="0 0 385.03 231.02"><defs><style>.cls-1{isolation:isolate;}.cls-16,.cls-2{fill:#18192b;}.cls-10,.cls-11,.cls-12,.cls-2,.cls-3,.cls-4,.cls-5,.cls-8,.cls-9{fill-rule:evenodd;}.cls-3{fill:#aaa;}.cls-4{fill:#f0f0f0;}.cls-5{fill:#f6f6f6;}.cls-6{fill:#e5e5e5;}.cls-10,.cls-7{fill:#393939;}.cls-7{stroke:#000;stroke-width:0.36px;}.cls-8{fill:#f7f7f7;}.cls-9{fill:#cbcbcb;}.cls-11{fill:#b2b2b2;}.cls-12{fill:#e4e4e4;}.cls-13{fill:#fff;}.cls-14{fill:#dcdfe2;}.cls-15{fill:#9eacb7;}.cls-17{fill:#8d19e0;}.cls-18{fill:url(#Безымянный_градиент_32);}.cls-19,.cls-21{mix-blend-mode:multiply;}.cls-20{fill:url(#linear-gradient);}.cls-21{fill:url(#linear-gradient-2);}</style><linearGradient id="Безымянный_градиент_32" x1="113" y1="133.63" x2="89.27" y2="109.9" gradientUnits="userSpaceOnUse"><stop offset="0" stop-color="#aa2afc"/><stop offset="1" stop-color="#5f009e"/></linearGradient><linearGradient id="linear-gradient" x1="108.04" y1="127.34" x2="102.3" y2="124.05" gradientUnits="userSpaceOnUse"><stop offset="0" stop-color="#0d2b85"/><stop offset="1" stop-color="#fff"/></linearGradient><linearGradient id="linear-gradient-2" x1="98.98" y1="131.93" x2="93.31" y2="126.58" xlink:href="#linear-gradient"/></defs><title>instream-device-desktop</title><g class="cls-1"><g id="Слой_1" data-name="Слой 1"><path class="cls-2" d="M343.65,214.08h35.58a.41.41,0,0,1,.42.42V220c-2.58.66-10.86,4.5-31.74,4.5q-20.79-.09-154.38,0h-155c-24.12,0-30.84-3.66-33.9-4.5V214.5a.41.41,0,0,1,.42-.42h36a29.63,29.63,0,0,1-.78-8V24.42c0-6.72.48-9.6,2.46-11.82C45,10.08,48.69,8.52,55.83,8.52H330.09c6.3,0,9.24,1.32,11.46,3.6s3.06,5.4,3.06,12.3V206a25.67,25.67,0,0,1-1,8Z"/><path class="cls-3" d="M192.45,18.72a1.41,1.41,0,0,0,0-2.82,1.41,1.41,0,1,0,0,2.82Z"/><path class="cls-4" d="M192.45,18.06a.72.72,0,1,0,0-1.44.72.72,0,1,0,0,1.44Z"/><path class="cls-5" d="M4.65,220V214.5a.41.41,0,0,1,.42-.42H379.23a.41.41,0,0,1,.42.42V220c-2.58.66-10.86,4.5-31.74,4.5s-154.38,0-154.38,0h-155c-24.12,0-30.84-3.66-33.9-4.5Z"/><path class="cls-2" d="M4.65,220V214.5a.41.41,0,0,1,.42-.42H379.23a.41.41,0,0,1,.42.42V220c-2.58.66-10.86,4.5-31.74,4.5s-154.38,0-154.38,0h-155c-24.12,0-30.84-3.66-33.9-4.5Z"/><rect class="cls-6" x="4.47" y="219.66" width="375.36" height="1.38"/><rect class="cls-7" x="4.47" y="219.66" width="375.36" height="1.38"/><path class="cls-8" d="M379.23,214.08a.41.41,0,0,1,.42.42v5.34H4.65V214.5a.41.41,0,0,1,.42-.42Z"/><path class="cls-2" d="M379.23,214.08a.41.41,0,0,1,.42.42v5.34H4.65V214.5a.41.41,0,0,1,.42-.42Z"/><path class="cls-9" d="M164.85,214.08h54.6c0,1.74-1.38,4.2-4.92,4.2H169.47a4.64,4.64,0,0,1-4.62-4.2Z"/><path class="cls-10" d="M164.85,214.08h54.6c0,1.74-1.38,4.2-4.92,4.2H169.47a4.64,4.64,0,0,1-4.62-4.2Z"/><path class="cls-4" d="M369,222.6c1-.06,1.68-.24,1.68-.42s-.78-.24-1.74-.18-1.68.3-1.68.48.78.24,1.74.12Z"/><path class="cls-11" d="M369,222.6c1-.06,1.68-.24,1.68-.42s-.78-.24-1.74-.18-1.68.3-1.68.48.78.24,1.74.12Z"/><polygon class="cls-12" points="368.55 222.3 368.13 222.24 368.79 222.18 369.03 222.06 369.33 222.12 369.93 222.12 369.51 222.24 369.69 222.3 369.03 222.3 368.43 222.42 368.55 222.3"/><path class="cls-4" d="M244.17,223.26c1,0,1.74-.12,1.74-.3s-.78-.3-1.74-.3-1.68.12-1.68.3.72.3,1.68.3Z"/><path class="cls-11" d="M244.17,223.26c1,0,1.74-.12,1.74-.3s-.78-.3-1.74-.3-1.68.12-1.68.3.72.3,1.68.3Z"/><polygon class="cls-12" points="243.81 222.9 243.39 222.84 244.05 222.84 244.29 222.72 244.59 222.84 245.19 222.84 244.77 222.9 244.95 223.02 244.29 222.96 243.63 223.02 243.81 222.9"/><path class="cls-4" d="M140,223.26c1,0,1.74-.12,1.74-.3s-.78-.3-1.74-.3-1.68.12-1.68.3.72.3,1.68.3Z"/><path class="cls-11" d="M140,223.26c1,0,1.74-.12,1.74-.3s-.78-.3-1.74-.3-1.68.12-1.68.3.72.3,1.68.3Z"/><polygon class="cls-12" points="139.29 222.9 138.87 222.84 139.53 222.84 139.77 222.72 140.07 222.84 140.67 222.84 140.25 222.9 140.43 223.02 139.77 222.96 139.11 223.02 139.29 222.9"/><path class="cls-4" d="M15.33,222.42c1,.06,1.74,0,1.74-.18s-.72-.36-1.68-.42-1.74-.06-1.74.12.72.42,1.68.48Z"/><path class="cls-11" d="M15.33,222.42c1,.06,1.74,0,1.74-.18s-.72-.36-1.68-.42-1.74-.06-1.74.12.72.42,1.68.48Z"/><polygon class="cls-12" points="15.03 222.06 14.61 221.94 15.21 221.94 15.51 221.88 15.75 222 16.41 222.06 15.99 222.12 16.11 222.24 15.51 222.12 14.85 222.12 15.03 222.06 15.03 222.06"/><rect class="cls-13" x="49.65" y="22.02" width="286.5" height="180"/><rect class="cls-14" x="68.43" y="49.02" width="249" height="13.5"/><path class="cls-13" d="M72.93,53.52h19.5V58H72.93Zm71.22,0h31.5V58h-31.5Zm-48,0h24V58h-24Zm83.28,0h14.22V58H179.43Zm92.22,0h4.5V58h-4.5Zm-147.72,0h16.5V58h-16.5Zm73.5,0h19.5V58h-19.5Zm23.22,0h24V58h-24Zm27.78,0h19.5V58h-19.5Z"/><path class="cls-15" d="M68.43,29.52h48v12h-48Zm0,46.5H189.15V70H68.43Z"/><rect class="cls-14" x="196.65" y="70.02" width="120.78" height="6"/><rect class="cls-16" x="68.43" y="83.52" width="163.5" height="90.78"/><path class="cls-14" d="M68.43,202h78V189.3h-78Zm0-15.72H97.65v-4.5H68.43Zm65.22,0h4.5v-4.5h-4.5Zm8.28,0h4.5v-4.5h-4.5Z"/><rect class="cls-15" x="134.43" y="193.8" width="7.5" height="7.5"/><rect class="cls-13" x="72.93" y="193.8" width="13.5" height="4.5"/><path class="cls-14" d="M153.93,202h78V189.3h-78Zm0-15.72h48v-4.5h-48Zm65.22,0h4.5v-4.5h-4.5Zm8.28,0h4.5v-4.5h-4.5Z"/><rect class="cls-15" x="219.93" y="193.8" width="7.5" height="7.5"/><rect class="cls-13" x="158.43" y="193.8" width="25.5" height="4.5"/><path class="cls-14" d="M239.43,202h78V189.3h-78Zm0-15.72h30v-4.5h-30Zm65.22,0h4.5v-4.5h-4.5Zm8.28,0h4.5v-4.5h-4.5Z"/><rect class="cls-15" x="305.43" y="193.8" width="7.5" height="7.5"/><rect class="cls-13" x="243.93" y="193.8" width="42" height="4.5"/><path class="cls-14" d="M239.43,121h78V91h-78Zm0-33h44.22v-4.5H239.43Zm65.22,0h4.5v-4.5h-4.5Zm8.28,0h4.5v-4.5h-4.5Z"/><path class="cls-13" d="M243.93,95.52h43.5V100h-43.5Zm0,8.28h69v4.5h-69Zm0,8.22h61.5v4.5h-61.5Z"/><rect class="cls-14" x="239.43" y="136.02" width="78" height="38.28"/><rect class="cls-13" x="243.93" y="165.3" width="57" height="4.5"/><path class="cls-14" d="M239.43,133h29.22v-4.5H239.43Zm65.22,0h4.5v-4.5h-4.5Zm8.28,0h4.5v-4.5h-4.5Z"/><rect class="cls-15" x="305.43" y="140.52" width="7.5" height="7.5"/><rect class="cls-13" x="243.93" y="140.52" width="13.5" height="4.5"/><rect class="cls-14" x="279.93" y="31.8" width="37.5" height="7.5"/><rect class="cls-15" x="268.65" y="31.8" width="7.5" height="7.5"/><rect class="cls-14" x="257.43" y="31.8" width="7.5" height="7.5"/><rect class="cls-15" x="246.15" y="31.8" width="7.5" height="7.5"/><rect class="cls-14" x="234.93" y="31.8" width="7.5" height="7.5"/><path class="cls-17" d="M126.28,130.19l1.78-4.5h2.11l-4.44,11h-1.58l-4.46-11h2.11l1.8,4.46,1.34,3.85Z"/><path class="cls-13" d="M133.73,122.87a1.24,1.24,0,0,1-2.47,0A1.24,1.24,0,0,1,133.73,122.87Zm-.24,2.69h-2v11.08h2Z"/><path class="cls-13" d="M138.23,127.11a4.24,4.24,0,0,1,3.69-1.6,5.66,5.66,0,0,1,0,11.33,4.35,4.35,0,0,1-3.65-1.66v1.48h-2V122.47h2Zm3.57,8a3.92,3.92,0,1,0-3.57-3.91A3.66,3.66,0,0,0,141.79,135.07Z"/><path class="cls-13" d="M160,131.64h-9.28a3.66,3.66,0,0,0,3.69,3.45,3.54,3.54,0,0,0,3.26-1.82h2a5.68,5.68,0,1,1-5.29-7.74,5.38,5.38,0,0,1,5.61,5.17A3,3,0,0,1,160,131.64ZM158,130a3.33,3.33,0,0,0-3.53-2.74,3.45,3.45,0,0,0-3.63,2.74Z"/><path class="cls-17" d="M167.42,130.19l1.78-4.5h2.11l-4.44,11h-1.58l-4.46-11h2.11l1.8,4.46,1.34,3.85Z"/><path class="cls-13" d="M174.87,122.87a1.24,1.24,0,0,1-2.47,0A1.24,1.24,0,0,1,174.87,122.87Zm-.24,2.69h-2v11.08h2Z"/><path class="cls-13" d="M186.12,122.47h2v14.19h-2v-1.48a4.36,4.36,0,0,1-3.67,1.66c-3.83,0-5.84-2.45-5.84-5.71a5.4,5.4,0,0,1,5.82-5.61,4.24,4.24,0,0,1,3.69,1.6Zm-3.73,4.78a3.81,3.81,0,0,0-3.79,3.87,3.76,3.76,0,1,0,3.79-3.87Z"/><path class="cls-13" d="M201.25,131.64H192a3.66,3.66,0,0,0,3.69,3.45,3.54,3.54,0,0,0,3.26-1.82h2a5.68,5.68,0,1,1-5.29-7.74,5.38,5.38,0,0,1,5.61,5.17A3,3,0,0,1,201.25,131.64Zm-2-1.64a3.33,3.33,0,0,0-3.53-2.74,3.45,3.45,0,0,0-3.63,2.74Z"/><path class="cls-13" d="M208.66,136.85a5.56,5.56,0,0,1-5.88-5.67c0-3.79,3-5.67,5.94-5.67s5.88,1.9,5.88,5.67S211.64,136.85,208.66,136.85Zm0-1.78a3.9,3.9,0,1,0-3.89-3.89A3.77,3.77,0,0,0,208.66,135.07Z"/><path class="cls-18" d="M114.75,120.81l-9.27,13.87h0l-2.57,3.78a2.91,2.91,0,0,1-4.45.43l-.13-.13a3,3,0,0,1-.23-.3l-1-1.51L84.89,119.23h1.37a13.46,13.46,0,0,1,11.13,5.89l1.87,2.58,3.89-5.93a5.09,5.09,0,0,0,.8-3.5c-.52-3.67-4.73-4.56-7.78-4.56H111A4.55,4.55,0,0,1,114.75,120.81Z"/><g class="cls-19"><path class="cls-20" d="M112.37,113.91l-15.3,23L84.89,119.23h1.37a13.46,13.46,0,0,1,11.13,5.89l1.87,2.58,4.52-6.88c1.42-5.83-4-7.11-7.6-7.11H111A3.92,3.92,0,0,1,112.37,113.91Z"/></g><path class="cls-21" d="M99.26,127.7,95,133.94l-10.12-14.7h1.37a13.46,13.46,0,0,1,11.13,5.89Z"/></g></g></svg>