<svg xmlns="http://www.w3.org/2000/svg" xmlns:xlink="http://www.w3.org/1999/xlink" viewBox="0 0 93.84 187.5"><defs><style>.cls-1{isolation:isolate;}.cls-19,.cls-2,.cls-20{fill:#18192b;}.cls-10,.cls-12,.cls-13,.cls-14,.cls-18,.cls-2,.cls-3,.cls-5,.cls-7,.cls-8,.cls-9{fill-rule:evenodd;}.cls-3{fill:#303743;}.cls-11,.cls-4{fill:none;stroke-width:0.36px;}.cls-4{stroke:#bfbfbf;}.cls-5{fill:#18192c;}.cls-6{fill:#545557;}.cls-7{fill:#4c5461;}.cls-8{fill:#272e3a;}.cls-9{fill:#304453;}.cls-10,.cls-15{fill:#fff;}.cls-11{stroke:#b2b2b2;}.cls-12{fill:#1e242c;}.cls-13{fill:#2b2e32;}.cls-14{fill:#4a90e2;}.cls-16,.cls-18{fill:#9eacb7;}.cls-17{fill:#dcdfe2;}.cls-19{opacity:0.84;}.cls-21{opacity:0.95;}.cls-22{fill:#8d19e0;}.cls-23{fill:url(#Безымянный_градиент_32);}.cls-24,.cls-26{mix-blend-mode:multiply;}.cls-25{fill:url(#linear-gradient);}.cls-26{fill:url(#linear-gradient-2);}</style><linearGradient id="Безымянный_градиент_32" x1="28.07" y1="95.74" x2="15.72" y2="83.39" gradientUnits="userSpaceOnUse"><stop offset="0" stop-color="#aa2afc"/><stop offset="1" stop-color="#5f009e"/></linearGradient><linearGradient id="linear-gradient" x1="25.49" y1="92.46" x2="22.5" y2="90.75" gradientUnits="userSpaceOnUse"><stop offset="0" stop-color="#0d2b85"/><stop offset="1" stop-color="#fff"/></linearGradient><linearGradient id="linear-gradient-2" x1="20.77" y1="94.85" x2="17.82" y2="92.07" xlink:href="#linear-gradient"/></defs><title>interstital-device-phone</title><g class="cls-1"><g id="Слой_1" data-name="Слой 1"><path class="cls-2" d="M93.42,16.32C93.42,5.64,87.78,0,77.16,0H17C6.36,0,.66,5.64.66,16.32v9a9.94,9.94,0,0,1,.24,2.4v2.94a2.25,2.25,0,0,0-.06.66A5.89,5.89,0,0,1,.66,32.7v6.12c.12.06.18.18.18.48H.9V51.84c0,.42-.12.66-.24.72V56c.12.06.18.18.18.48H.9V69c0,.42-.12.66-.24.72V171.18c0,10.68,5.7,16.32,16.32,16.32H41.46a3.1,3.1,0,0,1,1.26-.24h8.76a4.12,4.12,0,0,1,1.14.24H77.16c10.62,0,16.26-5.7,16.26-16.32V65.1a.51.51,0,0,1-.12-.36l-.06-.66V43.8h0a1,1,0,0,1,.18-.72V16.32Z"/><path class="cls-3" d="M76.08,1.5c10.74,0,15.84,4.44,15.84,15.24V171.18c0,10.8-5.1,15-15.84,15H18c-10.74,0-16-4.2-16-15V16.74C2,5.94,7.26,1.5,18,1.5Z"/><path class="cls-4" d="M76.08,1.5c10.74,0,15.84,4.44,15.84,15.24V171.18c0,10.8-5.1,15-15.84,15H18c-10.74,0-16-4.2-16-15V16.74C2,5.94,7.26,1.5,18,1.5Z"/><path class="cls-5" d="M76.14,2.16C86.94,2.16,91,6.54,91,17.28V170.4c0,10.8-4.08,14.94-15.3,14.94H17.94c-10.56,0-15.12-4.14-15.12-14.7V17.28C2.82,6.54,7.2,2.16,17.94,2.16Z"/><rect class="cls-6" x="0.66" y="168.36" width="1.5" height="1.32"/><rect class="cls-6" x="91.68" y="168.36" width="1.74" height="1.32"/><rect class="cls-6" x="0.66" y="18.06" width="1.5" height="1.26"/><rect class="cls-6" x="91.68" y="18.06" width="1.74" height="1.26"/><path class="cls-7" d="M93.12,44.64a4.31,4.31,0,0,1,.18-1.26c.48.12.54.06.54.06V64.56a.69.69,0,0,1-.54.3c-.06-.06-.18-.24-.18-1.2v-19Z"/><path class="cls-8" d="M1,57.48a3.17,3.17,0,0,0-.12-1.2c0-.12-.06-.12-.18-.12a1.11,1.11,0,0,0-.42.12V69.36a1.38,1.38,0,0,0,.42.18c.06.06.18,0,.24-.06a3.49,3.49,0,0,0,.06-1c0-.84.06-10.38,0-11Z"/><path class="cls-8" d="M1,40.32A5.68,5.68,0,0,0,.84,39a.06.06,0,0,0-.06-.06,2.4,2.4,0,0,0-.54.18V52.2s0,.12.48.24c.06,0,.06-.06.12-.06A2.64,2.64,0,0,0,1,51.3c0-.84.06-10.38,0-11Z"/><path class="cls-8" d="M.9,26.28a2.06,2.06,0,0,0-.18-.84H.24L0,25.62v6.6l.24.24H.72a4.22,4.22,0,0,0,.18-1.2Z"/><path class="cls-9" d="M42.06,6.72a.78.78,0,0,0,0,1.56h9.78a.78.78,0,0,0,0-1.56Z"/><path class="cls-10" d="M42.06,6.72a.78.78,0,0,0,0,1.56h9.78a.78.78,0,0,0,0-1.56Z"/><path class="cls-10" d="M42.06,6.72a.78.78,0,0,0,0,1.56h9.78a.78.78,0,0,0,0-1.56Z"/><path class="cls-11" d="M51.84,8H42.06a.57.57,0,1,1,0-1.14h9.78a.57.57,0,0,1,0,1.14Z"/><path class="cls-12" d="M58.2,7.86a1.31,1.31,0,1,0-2.52-.72,1.31,1.31,0,1,0,2.52.72Z"/><path class="cls-13" d="M57.78,7.74a.87.87,0,1,0-1.68-.48.87.87,0,0,0,1.68.48Z"/><path class="cls-14" d="M23.1,5.28a1.08,1.08,0,0,1,1.08,1.08V7a4.81,4.81,0,0,0,4.8,4.8h36.3A4.83,4.83,0,0,0,70.14,7v-.6a1.13,1.13,0,0,1,1.08-1.14H79.8a8.66,8.66,0,0,1,8.64,8.52V173a8.55,8.55,0,0,1-8.58,8.46H14.52A8.51,8.51,0,0,1,5.94,173V13.74a8.51,8.51,0,0,1,8.58-8.46Z"/><rect class="cls-15" x="5.94" y="5.28" width="82.5" height="176.22" rx="7.01" ry="7.01"/><rect class="cls-16" x="26.94" y="16.5" width="40.5" height="9"/><rect class="cls-17" x="78.66" y="18" width="6" height="6"/><path class="cls-18" d="M9.66,19.5h5.28v.78H9.66Zm0,1.5h5.28v.78H9.66Zm5.28,1.5H9.66v.78h5.28Z"/><path class="cls-17" d="M5.94,29.28h82.5V30H5.94Zm3.72,4.5h75V43.5h-75Z"/><rect class="cls-16" x="9.66" y="47.28" width="75" height="5.22"/><rect class="cls-17" x="9.66" y="56.28" width="75" height="49.5"/><path class="cls-15" d="M13.44,60h19.5v3.78H13.44Zm0,23.28h60V87h-60Z"/><rect class="cls-16" x="13.44" y="98.28" width="3.72" height="3.72"/><path class="cls-15" d="M20.94,98.28h30V102h-30Zm-7.5-7.5h67.5V94.5H13.44Z"/><rect class="cls-16" x="74.94" y="60" width="6" height="6"/><rect class="cls-17" x="9.66" y="109.5" width="35.28" height="28.5"/><path class="cls-15" d="M13.44,113.28H24.66V117H13.44Zm0,17.22H38.16v3.78H13.44Z"/><rect class="cls-16" x="35.16" y="113.28" width="6" height="6"/><rect class="cls-17" x="9.66" y="141.78" width="75" height="28.5"/><path class="cls-15" d="M13.44,145.5H32.16v3.78H13.44Zm0,17.28H68.16v3.72H13.44Z"/><rect class="cls-16" x="74.94" y="145.5" width="6" height="6"/><path class="cls-17" d="M9.66,178.5H38.94V174H9.66Zm33,0h4.5V174h-4.5Zm8.28,0h4.5V174h-4.5ZM49.44,138H84.66V109.5H49.44Z"/><path class="cls-15" d="M53.16,113.28H67.44V117H53.16Zm0,17.22h19.5v3.78H53.16Z"/><rect class="cls-16" x="74.94" y="113.28" width="6" height="6"/><path class="cls-15" d="M13.44,36.78h19.5V40.5H13.44Zm23.22,0h24V40.5h-24Zm27.78,0h16.5V40.5H64.44Z"/><rect class="cls-19" x="5.94" y="5.28" width="82.5" height="176.22" rx="6.85" ry="6.85"/><rect class="cls-20" x="5.94" y="70.5" width="82.5" height="45.84"/><g class="cls-21"><path class="cls-22" d="M35,93.95l.93-2.34H37l-2.31,5.75h-.82l-2.32-5.75h1.1l.94,2.32.7,2Z"/><path class="cls-15" d="M38.86,90.14a.64.64,0,0,1-1.29,0A.64.64,0,0,1,38.86,90.14Zm-.13,1.4h-1v5.77h1Z"/><path class="cls-15" d="M41.2,92.34a2.21,2.21,0,0,1,1.92-.83,2.95,2.95,0,0,1,0,5.89,2.26,2.26,0,0,1-1.9-.86v.77h-1V89.93h1Zm1.86,4.14a2,2,0,1,0-1.86-2A1.9,1.9,0,0,0,43.05,96.49Z"/><path class="cls-15" d="M52.55,94.71H47.72a1.9,1.9,0,0,0,1.92,1.79,1.84,1.84,0,0,0,1.7-.95H52.4a3,3,0,1,1-2.75-4,2.8,2.8,0,0,1,2.92,2.69A1.54,1.54,0,0,1,52.55,94.71Zm-1.07-.85a1.73,1.73,0,0,0-1.83-1.42,1.8,1.8,0,0,0-1.89,1.42Z"/><path class="cls-22" d="M56.39,93.95l.93-2.34h1.1L56.1,97.35h-.82L53,91.61h1.1L55,93.93l.7,2Z"/><path class="cls-15" d="M60.27,90.14a.64.64,0,0,1-1.29,0A.64.64,0,0,1,60.27,90.14Zm-.13,1.4h-1v5.77h1Z"/><path class="cls-15" d="M66.12,89.93h1v7.38h-1v-.77a2.27,2.27,0,0,1-1.91.86,2.95,2.95,0,1,1,0-5.89,2.21,2.21,0,0,1,1.92.83Zm-1.94,2.49a2,2,0,0,0-2,2,2,2,0,1,0,2-2Z"/><path class="cls-15" d="M74,94.71H69.16a1.9,1.9,0,0,0,1.92,1.79,1.84,1.84,0,0,0,1.7-.95h1.06a3,3,0,1,1-2.75-4A2.8,2.8,0,0,1,74,94.21,1.54,1.54,0,0,1,74,94.71Zm-1.07-.85a1.73,1.73,0,0,0-1.83-1.42,1.8,1.8,0,0,0-1.89,1.42Z"/><path class="cls-15" d="M77.85,97.42a3,3,0,1,1,3.09-3A2.9,2.9,0,0,1,77.85,97.42Zm0-.93a2,2,0,1,0-2-2A2,2,0,0,0,77.85,96.49Z"/></g><g class="cls-21"><path class="cls-23" d="M29,89.07l-4.82,7.22h0l-1.34,2a1.51,1.51,0,0,1-2.31.23l-.07-.07-.12-.16-.53-.78-6.34-9.23h.71a7,7,0,0,1,5.79,3.06l1,1.34,2-3.09a2.65,2.65,0,0,0,.41-1.82c-.27-1.91-2.46-2.37-4-2.37H27A2.37,2.37,0,0,1,29,89.07Z"/><g class="cls-24"><path class="cls-25" d="M27.74,85.48l-8,12-6.34-9.23h.71a7,7,0,0,1,5.79,3.06l1,1.34,2.35-3.58c.74-3-2.06-3.7-4-3.7H27A2,2,0,0,1,27.74,85.48Z"/></g><path class="cls-26" d="M20.92,92.65,18.71,95.9l-5.27-7.65h.71a7,7,0,0,1,5.79,3.06Z"/></g></g></g></svg>