<svg xmlns="http://www.w3.org/2000/svg" xmlns:xlink="http://www.w3.org/1999/xlink" viewBox="0 0 396.29 236.13"><defs><style>.cls-1{isolation:isolate;}.cls-18,.cls-2{fill:#18192b;}.cls-10,.cls-11,.cls-12,.cls-2,.cls-3,.cls-4,.cls-5,.cls-8,.cls-9{fill-rule:evenodd;}.cls-3{fill:#aaa;}.cls-4{fill:#f0f0f0;}.cls-5{fill:#f6f6f6;}.cls-10,.cls-6{fill:#2d2d2d;}.cls-17,.cls-7{fill:none;stroke:#000;}.cls-7{stroke-width:0.36px;}.cls-8{fill:#f7f7f7;}.cls-9{fill:#cbcbcb;}.cls-11{fill:#b2b2b2;}.cls-12{fill:#e4e4e4;}.cls-13{fill:#fff;}.cls-14{fill:#dcdfe2;}.cls-15{fill:#9eacb7;}.cls-16{fill:#2b2d47;}.cls-17{stroke-width:0.78px;}.cls-19{fill:#8d19e0;}.cls-20{fill:url(#Безымянный_градиент_32);}.cls-21,.cls-23{mix-blend-mode:multiply;}.cls-22{fill:url(#linear-gradient);}.cls-23{fill:url(#linear-gradient-2);}</style><linearGradient id="Безымянный_градиент_32" x1="129.44" y1="120.41" x2="86.36" y2="77.33" gradientUnits="userSpaceOnUse"><stop offset="0" stop-color="#aa2afc"/><stop offset="1" stop-color="#5f009e"/></linearGradient><linearGradient id="linear-gradient" x1="120.44" y1="108.98" x2="110.01" y2="103" gradientUnits="userSpaceOnUse"><stop offset="0" stop-color="#0d2b85"/><stop offset="1" stop-color="#fff"/></linearGradient><linearGradient id="linear-gradient-2" x1="103.99" y1="117.32" x2="93.7" y2="107.61" xlink:href="#linear-gradient"/></defs><title>interstital-device-desktop</title><g class="cls-1"><g id="Слой_1" data-name="Слой 1"><path class="cls-2" d="M348.08,215.45h35.58a.41.41,0,0,1,.42.42v5.46c-2.58.66-10.86,4.5-31.74,4.5q-20.79-.09-154.38,0H43c-24.12,0-30.84-3.66-33.9-4.5v-5.46a.41.41,0,0,1,.42-.42h36a29.63,29.63,0,0,1-.78-8V25.79c0-6.72.48-9.6,2.46-11.82,2.28-2.52,5.94-4.08,13.08-4.08H334.52c6.3,0,9.24,1.32,11.46,3.6s3.06,5.4,3.06,12.3V207.41a25.67,25.67,0,0,1-1,8Z"/><path class="cls-3" d="M196.88,20.09a1.41,1.41,0,0,0,0-2.82,1.41,1.41,0,1,0,0,2.82Z"/><path class="cls-4" d="M196.88,19.43a.72.72,0,1,0,0-1.44.72.72,0,1,0,0,1.44Z"/><path class="cls-5" d="M9.08,221.33v-5.46a.41.41,0,0,1,.42-.42H383.66a.41.41,0,0,1,.42.42v5.46c-2.58.66-10.86,4.5-31.74,4.5s-154.38,0-154.38,0H43c-24.12,0-30.84-3.66-33.9-4.5Z"/><path class="cls-2" d="M9.08,221.33v-5.46a.41.41,0,0,1,.42-.42H383.66a.41.41,0,0,1,.42.42v5.46c-2.58.66-10.86,4.5-31.74,4.5s-154.38,0-154.38,0H43c-24.12,0-30.84-3.66-33.9-4.5Z"/><rect class="cls-6" x="8.9" y="221.03" width="375.36" height="1.38"/><rect class="cls-7" x="8.9" y="221.03" width="375.36" height="1.38"/><path class="cls-8" d="M383.66,215.45a.41.41,0,0,1,.42.42v5.34H9.08v-5.34a.41.41,0,0,1,.42-.42Z"/><path class="cls-2" d="M383.66,215.45a.41.41,0,0,1,.42.42v5.34H9.08v-5.34a.41.41,0,0,1,.42-.42Z"/><path class="cls-9" d="M169.28,215.45h54.6c0,1.74-1.38,4.2-4.92,4.2H173.9a4.64,4.64,0,0,1-4.62-4.2Z"/><path class="cls-10" d="M169.28,215.45h54.6c0,1.74-1.38,4.2-4.92,4.2H173.9a4.64,4.64,0,0,1-4.62-4.2Z"/><path class="cls-4" d="M373.4,224c1-.06,1.68-.24,1.68-.42s-.78-.24-1.74-.18-1.68.3-1.68.48.78.24,1.74.12Z"/><path class="cls-11" d="M373.4,224c1-.06,1.68-.24,1.68-.42s-.78-.24-1.74-.18-1.68.3-1.68.48.78.24,1.74.12Z"/><polygon class="cls-12" points="372.98 223.67 372.56 223.61 373.22 223.55 373.46 223.43 373.76 223.49 374.36 223.49 373.94 223.61 374.12 223.67 373.46 223.67 372.86 223.79 372.98 223.67"/><path class="cls-4" d="M248.6,224.63c1,0,1.74-.12,1.74-.3s-.78-.3-1.74-.3-1.68.12-1.68.3.72.3,1.68.3Z"/><path class="cls-11" d="M248.6,224.63c1,0,1.74-.12,1.74-.3s-.78-.3-1.74-.3-1.68.12-1.68.3.72.3,1.68.3Z"/><polygon class="cls-12" points="248.24 224.27 247.82 224.21 248.48 224.21 248.72 224.09 249.02 224.21 249.62 224.21 249.2 224.27 249.38 224.39 248.72 224.33 248.06 224.39 248.24 224.27"/><path class="cls-4" d="M144.44,224.63c1,0,1.74-.12,1.74-.3s-.78-.3-1.74-.3-1.68.12-1.68.3.72.3,1.68.3Z"/><path class="cls-11" d="M144.44,224.63c1,0,1.74-.12,1.74-.3s-.78-.3-1.74-.3-1.68.12-1.68.3.72.3,1.68.3Z"/><polygon class="cls-12" points="143.72 224.27 143.3 224.21 143.96 224.21 144.2 224.09 144.5 224.21 145.1 224.21 144.68 224.27 144.86 224.39 144.2 224.33 143.54 224.39 143.72 224.27"/><path class="cls-4" d="M19.76,223.79c1,.06,1.74,0,1.74-.18s-.72-.36-1.68-.42-1.74-.06-1.74.12.72.42,1.68.48Z"/><path class="cls-11" d="M19.76,223.79c1,.06,1.74,0,1.74-.18s-.72-.36-1.68-.42-1.74-.06-1.74.12.72.42,1.68.48Z"/><polygon class="cls-12" points="19.46 223.43 19.04 223.31 19.64 223.31 19.94 223.25 20.18 223.37 20.84 223.43 20.42 223.49 20.54 223.61 19.94 223.49 19.28 223.49 19.46 223.43 19.46 223.43"/><rect class="cls-13" x="54.08" y="23.39" width="286.5" height="180"/><rect class="cls-14" x="72.86" y="50.39" width="249" height="13.5"/><path class="cls-13" d="M77.36,54.89h19.5v4.5H77.36Zm71.22,0h31.5v4.5h-31.5Zm-48,0h24v4.5h-24Zm83.28,0h14.22v4.5H183.86Zm92.22,0h4.5v4.5h-4.5Zm-147.72,0h16.5v4.5h-16.5Zm73.5,0h19.5v4.5h-19.5Zm23.22,0h24v4.5h-24Zm27.78,0h19.5v4.5h-19.5Z"/><path class="cls-15" d="M72.86,30.89h48v12h-48Zm0,46.5H193.58v-6H72.86Z"/><path class="cls-14" d="M201.08,77.39H321.86v-6H201.08ZM72.86,159.89H193.58v-75H72.86Z"/><path class="cls-13" d="M77.36,89.39h19.5v4.5H77.36Zm0,37.5h60v4.5h-60Z"/><rect class="cls-15" x="77.36" y="151.67" width="4.5" height="4.5"/><path class="cls-13" d="M85.58,151.67h30v4.5h-30Zm-8.22-8.28h60v4.5h-60Zm0-8.22H189.08v4.5H77.36Z"/><rect class="cls-15" x="181.58" y="89.39" width="7.5" height="7.5"/><path class="cls-14" d="M72.86,203.39h78v-28.5h-78Zm0-31.5h29.22v-4.5H72.86Zm65.22,0h4.5v-4.5h-4.5Zm8.28,0h4.5v-4.5h-4.5Z"/><rect class="cls-15" x="138.86" y="179.39" width="7.5" height="7.5"/><rect class="cls-13" x="77.36" y="179.39" width="13.5" height="4.5"/><path class="cls-14" d="M158.36,203.39h78v-28.5h-78Zm0-31.5h48v-4.5h-48Zm65.22,0h4.5v-4.5h-4.5Zm8.28,0h4.5v-4.5h-4.5Z"/><rect class="cls-15" x="224.36" y="179.39" width="7.5" height="7.5"/><rect class="cls-13" x="162.86" y="179.39" width="25.5" height="4.5"/><path class="cls-14" d="M243.86,203.39h78v-28.5h-78Zm0-31.5h30v-4.5h-30Zm65.22,0h4.5v-4.5h-4.5Zm8.28,0h4.5v-4.5h-4.5Z"/><rect class="cls-15" x="309.86" y="179.39" width="7.5" height="7.5"/><rect class="cls-13" x="248.36" y="179.39" width="42" height="4.5"/><rect class="cls-14" x="201.08" y="84.89" width="56.28" height="33.78"/><rect class="cls-15" x="245.36" y="89.39" width="7.5" height="7.5"/><path class="cls-13" d="M205.58,89.39h19.5v4.5h-19.5Zm0,20.28h34.5v4.5h-34.5Z"/><rect class="cls-14" x="201.08" y="126.17" width="120.78" height="33.72"/><rect class="cls-15" x="309.86" y="130.67" width="7.5" height="7.5"/><path class="cls-13" d="M205.58,130.67h19.5v4.5h-19.5Zm0,20.22h94.5v4.5h-94.5Z"/><rect class="cls-14" x="265.58" y="84.89" width="56.28" height="33.78"/><rect class="cls-15" x="309.86" y="89.39" width="7.5" height="7.5"/><path class="cls-13" d="M270.08,89.39h19.5v4.5h-19.5Zm0,20.28h47.28v4.5H270.08Z"/><rect class="cls-14" x="284.36" y="33.17" width="37.5" height="7.5"/><rect class="cls-15" x="273.08" y="33.17" width="7.5" height="7.5"/><rect class="cls-14" x="261.86" y="33.17" width="7.5" height="7.5"/><rect class="cls-15" x="250.58" y="33.17" width="7.5" height="7.5"/><rect class="cls-14" x="239.36" y="33.17" width="7.5" height="7.5"/><rect class="cls-16" x="54.08" y="23.39" width="286.5" height="180"/><rect class="cls-17" x="53.72" y="23.03" width="287.22" height="180.72"/><rect class="cls-18" x="55.76" y="36.17" width="283.35" height="154.26"/><path class="cls-19" d="M153.55,114.15l3.24-8.17h3.83L152.56,126h-2.87L141.59,106h3.83l3.27,8.09,2.43,7Z"/><path class="cls-13" d="M167.08,100.87c0,2.8-4.49,2.8-4.49,0S167.08,98.07,167.08,100.87Zm-.44,4.89H163v20.12h3.61Z"/><path class="cls-13" d="M175.25,108.56c1.73-2.35,4.23-2.91,6.7-2.91,6.73,0,10.23,4.82,10.23,10.19s-3.35,10.38-10.3,10.38c-2.46,0-5.19-.84-6.62-3v2.69h-3.61V100.13h3.61ZM181.72,123c4.56.11,6.88-3.53,6.84-7.18s-2.21-7-6.55-7c-3.38,0-6.77,2.32-6.77,7.1S178.45,122.95,181.72,123Z"/><path class="cls-13" d="M214.86,116.8H198c0,3.9,3.72,6.26,6.7,6.26a6.42,6.42,0,0,0,5.92-3.31h3.72a9.94,9.94,0,0,1-9.68,6.51c-5.11,0-10.26-3.46-10.26-10.3s5.08-10.27,10.34-10.27c4.93,0,9.79,3.13,10.19,9.38A5.38,5.38,0,0,1,214.86,116.8Zm-3.72-3c-.7-3.57-3.53-5-6.4-5s-5.85,1.43-6.59,5Z"/><path class="cls-19" d="M228.25,114.15l3.24-8.17h3.83L227.25,126h-2.87L216.29,106h3.83l3.27,8.09,2.43,7Z"/><path class="cls-13" d="M241.78,100.87c0,2.8-4.49,2.8-4.49,0S241.78,98.07,241.78,100.87Zm-.44,4.89h-3.61v20.12h3.61Z"/><path class="cls-13" d="M262.19,100.13h3.61v25.75h-3.61V123.2c-1.44,2.17-4.16,3-6.66,3-7,0-10.6-4.45-10.6-10.38,0-5.7,3.83-10.19,10.56-10.19,2.47,0,5,.55,6.7,2.91Zm-6.77,8.68a6.91,6.91,0,0,0-6.88,7c0,4.2,2.57,7.29,7.14,7.18,3.31-.07,6.51-2.43,6.51-7.1S258.81,108.78,255.42,108.82Z"/><path class="cls-13" d="M289.67,116.8H272.82c0,3.9,3.72,6.26,6.7,6.26a6.42,6.42,0,0,0,5.92-3.31h3.72a9.94,9.94,0,0,1-9.68,6.51c-5.11,0-10.26-3.46-10.26-10.3s5.08-10.27,10.34-10.27c4.93,0,9.79,3.13,10.19,9.38A5.38,5.38,0,0,1,289.67,116.8Zm-3.72-3c-.7-3.57-3.53-5-6.4-5s-5.85,1.43-6.59,5Z"/><path class="cls-13" d="M303.12,126.25c-5.33,0-10.67-3.46-10.67-10.3s5.37-10.3,10.78-10.3,10.67,3.46,10.67,10.3S308.53,126.25,303.12,126.25Zm0-3.24a7.08,7.08,0,1,0,.11-14.16c-3.61,0-7.17,2.35-7.17,7.1A6.83,6.83,0,0,0,303.12,123Z"/><path class="cls-20" d="M132.62,97.14l-16.83,25.19h0l-4.67,6.86A5.28,5.28,0,0,1,103,130l-.23-.24a5.46,5.46,0,0,1-.42-.54l-1.86-2.74L78.41,94.27H80.9A24.44,24.44,0,0,1,101.1,105l3.4,4.68,7.07-10.77A9.24,9.24,0,0,0,113,92.51c-.94-6.66-8.59-8.28-14.12-8.28h27A8.26,8.26,0,0,1,132.62,97.14Z"/><g class="cls-21"><path class="cls-22" d="M128.3,84.61l-27.78,41.85L78.41,94.27H80.9A24.44,24.44,0,0,1,101.1,105l3.4,4.68,8.2-12.5c2.57-10.58-7.17-12.91-13.81-12.91h27A7.11,7.11,0,0,1,128.3,84.61Z"/></g><path class="cls-23" d="M104.5,109.63,96.79,121,78.41,94.27H80.9A24.44,24.44,0,0,1,101.1,105Z"/></g></g></svg>