<svg xmlns="http://www.w3.org/2000/svg" xmlns:xlink="http://www.w3.org/1999/xlink" viewBox="0 0 175.21 239.32"><defs><style>.cls-1{isolation:isolate;}.cls-2{fill:#baa696;}.cls-3{fill:#e8e8e8;}.cls-13,.cls-4{fill:#18192b;}.cls-5{fill:#d6d6d6;}.cls-5,.cls-6{fill-rule:evenodd;}.cls-6{fill:#2d2d2d;}.cls-14,.cls-7,.cls-8,.cls-9{fill:none;}.cls-7{stroke:#8c9399;}.cls-14,.cls-7{stroke-width:0.78px;}.cls-8,.cls-9{stroke:#000;stroke-linecap:round;stroke-linejoin:round;stroke-width:0.36px;}.cls-8{stroke-dasharray:0.06 0.18;}.cls-9{stroke-dasharray:0.06 0.12;}.cls-10{fill:#fff;}.cls-11{fill:#9eacb7;}.cls-12{fill:#dcdfe2;}.cls-13{opacity:0.86;}.cls-14{stroke:#4c4c4c;}.cls-15{opacity:0.95;}.cls-16{fill:#8d19e0;}.cls-17{fill:url(#Безымянный_градиент_32);}.cls-18,.cls-20{mix-blend-mode:multiply;}.cls-19{fill:url(#linear-gradient);}.cls-20{fill:url(#linear-gradient-2);}</style><linearGradient id="Безымянный_градиент_32" x1="53.72" y1="124.84" x2="32.55" y2="103.68" gradientUnits="userSpaceOnUse"><stop offset="0" stop-color="#aa2afc"/><stop offset="1" stop-color="#5f009e"/></linearGradient><linearGradient id="linear-gradient" x1="49.3" y1="119.23" x2="44.17" y2="116.29" gradientUnits="userSpaceOnUse"><stop offset="0" stop-color="#0d2b85"/><stop offset="1" stop-color="#fff"/></linearGradient><linearGradient id="linear-gradient-2" x1="41.21" y1="123.32" x2="36.16" y2="118.55" xlink:href="#linear-gradient"/></defs><title>interstital-device-tablet</title><g class="cls-1"><g id="Слой_1" data-name="Слой 1"><rect class="cls-2" x="8.22" y="7.67" width="158.64" height="224.58" rx="9.36" ry="9.36"/><rect class="cls-3" x="8.22" y="7.67" width="158.64" height="224.58" rx="9.36" ry="9.36"/><rect class="cls-4" x="8.22" y="7.67" width="158.64" height="224.58" rx="9.36" ry="9.36"/><path d="M15.78,231.59H159.3a.39.39,0,0,1,.36.36h0a.39.39,0,0,1-.36.36H15.78a.35.35,0,0,1-.36-.36h0a.35.35,0,0,1,.36-.36Z"/><path class="cls-5" d="M82.5,222.65a5,5,0,1,0,5-5,5,5,0,0,0-5,5Zm9.54,0a4.5,4.5,0,1,1-4.5-4.5,4.48,4.48,0,0,1,4.5,4.5Z"/><path class="cls-6" d="M87.36,19.49a1.23,1.23,0,1,0,0-2.46,1.23,1.23,0,1,0,0,2.46Z"/><path class="cls-7" d="M87.36,19.49a1.23,1.23,0,1,0,0-2.46,1.23,1.23,0,1,0,0,2.46Z"/><path class="cls-8" d="M83.46,18.95a.63.63,0,0,0,0-1.26.63.63,0,0,0,0,1.26Z"/><path class="cls-8" d="M83.46,18.77h0a.45.45,0,0,0,0-.9.45.45,0,0,0,0,.9Z"/><path class="cls-8" d="M83.46,18.59h0c.42.06.42-.54,0-.54s-.3.54,0,.54Z"/><path class="cls-9" d="M83.46,18.41h0a.06.06,0,0,1-.06-.06.21.21,0,0,1,.06-.12.13.13,0,0,1,.12.12c0,.06-.06.06-.12.06Z"/><rect class="cls-10" x="18.72" y="28.67" width="138" height="183.78"/><rect class="cls-11" x="26.22" y="34.67" width="48" height="12"/><rect class="cls-12" x="26.22" y="52.67" width="123" height="13.5"/><path class="cls-10" d="M30.72,57.17h19.5v4.5H30.72Zm87.78,0h26.22v4.5H118.5Zm-64.5,0H78v4.5H54Zm27.72,0h16.5v4.5H81.72Zm20.28,0h12.72v4.5H102Z"/><rect class="cls-11" x="26.22" y="72.17" width="123" height="6"/><rect class="cls-12" x="26.22" y="84.17" width="123" height="63.78"/><path class="cls-10" d="M30.72,88.67h19.5v4.5H30.72Zm0,34.5h60v4.5h-60Z"/><rect class="cls-11" x="30.72" y="139.67" width="4.5" height="4.5"/><path class="cls-10" d="M39,139.67H69v4.5H39Zm-8.28-8.22h114v4.5h-114Z"/><rect class="cls-11" x="137.22" y="88.67" width="7.5" height="7.5"/><rect class="cls-12" x="26.22" y="153.95" width="58.5" height="33.72"/><rect class="cls-11" x="72.72" y="158.45" width="7.5" height="7.5"/><path class="cls-10" d="M30.72,158.45h19.5v4.5H30.72Zm0,20.22h34.5v4.5H30.72Z"/><rect class="cls-12" x="26.22" y="193.67" width="123" height="18.78"/><rect class="cls-11" x="137.22" y="198.17" width="7.5" height="7.5"/><rect class="cls-10" x="30.72" y="198.17" width="19.5" height="4.5"/><rect class="cls-12" x="90.72" y="153.95" width="58.5" height="33.72"/><rect class="cls-11" x="137.22" y="158.45" width="7.5" height="7.5"/><path class="cls-10" d="M95.22,158.45h13.5v4.5H95.22Zm0,20.22h42v4.5h-42Z"/><rect class="cls-11" x="141.72" y="36.95" width="7.5" height="7.5"/><rect class="cls-12" x="130.5" y="36.95" width="7.5" height="7.5"/><rect class="cls-11" x="119.22" y="36.95" width="7.5" height="7.5"/><rect class="cls-12" x="108" y="36.95" width="7.5" height="7.5"/><rect class="cls-13" x="18.72" y="28.67" width="138" height="183.78"/><rect class="cls-14" x="18.36" y="28.31" width="138.72" height="184.5"/><rect class="cls-4" x="18.72" y="83.45" width="138" height="74.28"/><g class="cls-15"><path class="cls-16" d="M65.56,121.77l1.59-4H69l-4,9.85H63.67l-4-9.85h1.88l1.61,4,1.19,3.43Z"/><path class="cls-10" d="M72.21,115.24a1.11,1.11,0,0,1-2.21,0A1.11,1.11,0,0,1,72.21,115.24Zm-.22,2.4H70.22v9.89H72Z"/><path class="cls-10" d="M76.22,119a3.78,3.78,0,0,1,3.29-1.43,5.05,5.05,0,0,1,0,10.1,3.88,3.88,0,0,1-3.25-1.48v1.32H74.45V114.88h1.77Zm3.18,7.1a3.5,3.5,0,1,0-3.18-3.49A3.26,3.26,0,0,0,79.41,126.12Z"/><path class="cls-10" d="M95.69,123.07H87.41a3.26,3.26,0,0,0,3.29,3.07,3.15,3.15,0,0,0,2.91-1.63h1.83a5.07,5.07,0,1,1-4.72-6.9,4.8,4.8,0,0,1,5,4.61A2.64,2.64,0,0,1,95.69,123.07Zm-1.83-1.46a3,3,0,0,0-3.14-2.44,3.08,3.08,0,0,0-3.24,2.44Z"/><path class="cls-16" d="M102.26,121.77l1.59-4h1.88l-4,9.85h-1.41l-4-9.85h1.88l1.61,4,1.19,3.43Z"/><path class="cls-10" d="M108.91,115.24a1.11,1.11,0,0,1-2.21,0A1.11,1.11,0,0,1,108.91,115.24Zm-.22,2.4h-1.77v9.89h1.77Z"/><path class="cls-10" d="M118.94,114.88h1.77v12.65h-1.77v-1.32a3.89,3.89,0,0,1-3.27,1.48c-3.42,0-5.21-2.19-5.21-5.1a4.82,4.82,0,0,1,5.19-5,3.78,3.78,0,0,1,3.29,1.43Zm-3.33,4.27a3.39,3.39,0,0,0-3.38,3.45,3.35,3.35,0,1,0,3.38-3.45Z"/><path class="cls-10" d="M132.44,123.07h-8.28a3.26,3.26,0,0,0,3.29,3.07,3.15,3.15,0,0,0,2.91-1.63h1.83a5.07,5.07,0,1,1-4.72-6.9,4.8,4.8,0,0,1,5,4.61A2.64,2.64,0,0,1,132.44,123.07Zm-1.83-1.46a3,3,0,0,0-3.14-2.44,3.08,3.08,0,0,0-3.24,2.44Z"/><path class="cls-10" d="M139,127.71a5,5,0,0,1-5.24-5.06c0-3.38,2.64-5.06,5.3-5.06a5,5,0,0,1,5.24,5.06C144.35,126,141.71,127.71,139,127.71Zm0-1.59a3.48,3.48,0,1,0-3.47-3.47A3.36,3.36,0,0,0,139,126.12Z"/></g><g class="cls-15"><path class="cls-17" d="M55.28,113.41,47,125.78h0l-2.29,3.37a2.59,2.59,0,0,1-4,.39l-.11-.12a2.68,2.68,0,0,1-.21-.27l-.92-1.35L28.65,112h1.22a12,12,0,0,1,9.93,5.25l1.67,2.3,3.47-5.29a4.54,4.54,0,0,0,.71-3.12c-.46-3.27-4.22-4.07-6.94-4.07H52A4.06,4.06,0,0,1,55.28,113.41Z"/><g class="cls-18"><path class="cls-19" d="M53.16,107.25,39.51,127.81,28.65,112h1.22a12,12,0,0,1,9.93,5.25l1.67,2.3,4-6.14c1.26-5.2-3.52-6.34-6.78-6.34H52A3.49,3.49,0,0,1,53.16,107.25Z"/></g><path class="cls-20" d="M41.47,119.55l-3.79,5.56-9-13.11h1.22a12,12,0,0,1,9.93,5.25Z"/></g></g></g></svg>