<svg xmlns="http://www.w3.org/2000/svg" xmlns:xlink="http://www.w3.org/1999/xlink" viewBox="0 0 399.48 239.36"><defs><style>.cls-1{isolation:isolate;}.cls-16,.cls-2{fill:#18192b;}.cls-10,.cls-11,.cls-12,.cls-18,.cls-2,.cls-3,.cls-4,.cls-5,.cls-8,.cls-9{fill-rule:evenodd;}.cls-3{fill:#aaa;}.cls-4{fill:#f0f0f0;}.cls-5{fill:#f6f6f6;}.cls-10,.cls-6{fill:#353535;}.cls-7{fill:none;stroke:#000;stroke-width:0.36px;}.cls-8{fill:#f7f7f7;}.cls-9{fill:#cbcbcb;}.cls-11{fill:#b2b2b2;}.cls-12{fill:#e4e4e4;}.cls-13,.cls-17{fill:#fff;}.cls-14{fill:#dcdfe2;}.cls-15{fill:#9eacb7;}.cls-16{opacity:0.93;}.cls-17{stroke:#18192b;stroke-miterlimit:10;stroke-width:0.2px;}.cls-18{fill:#434456;}.cls-19{fill:#8d19e0;}.cls-20{fill:url(#Безымянный_градиент_32);}.cls-21,.cls-23{mix-blend-mode:multiply;}.cls-22{fill:url(#linear-gradient);}.cls-23{fill:url(#linear-gradient-2);}</style><linearGradient id="Безымянный_градиент_32" x1="267.08" y1="181.65" x2="252.09" y2="166.67" gradientUnits="userSpaceOnUse"><stop offset="0" stop-color="#aa2afc"/><stop offset="1" stop-color="#5f009e"/></linearGradient><linearGradient id="linear-gradient" x1="263.94" y1="177.68" x2="260.32" y2="175.6" gradientUnits="userSpaceOnUse"><stop offset="0" stop-color="#0d2b85"/><stop offset="1" stop-color="#fff"/></linearGradient><linearGradient id="linear-gradient-2" x1="258.22" y1="180.58" x2="254.64" y2="177.2" xlink:href="#linear-gradient"/></defs><title>video-slider-device-desktop</title><g class="cls-1"><g id="Слой_1" data-name="Слой 1"><path class="cls-2" d="M350.26,219.18h35.58a.41.41,0,0,1,.42.42v5.46c-2.58.66-10.86,4.5-31.74,4.5q-20.79-.09-154.38,0h-155c-24.12,0-30.84-3.66-33.9-4.5V219.6a.41.41,0,0,1,.42-.42h36a29.63,29.63,0,0,1-.78-8V29.52c0-6.72.48-9.6,2.46-11.82,2.28-2.52,5.94-4.08,13.08-4.08H336.7c6.3,0,9.24,1.32,11.46,3.6s3.06,5.4,3.06,12.3V211.14a25.67,25.67,0,0,1-1,8Z"/><path class="cls-3" d="M199.06,23.82a1.41,1.41,0,0,0,0-2.82,1.41,1.41,0,1,0,0,2.82Z"/><path class="cls-4" d="M199.06,23.16a.72.72,0,1,0,0-1.44.72.72,0,1,0,0,1.44Z"/><path class="cls-5" d="M11.26,225.06V219.6a.41.41,0,0,1,.42-.42H385.84a.41.41,0,0,1,.42.42v5.46c-2.58.66-10.86,4.5-31.74,4.5s-154.38,0-154.38,0h-155c-24.12,0-30.84-3.66-33.9-4.5Z"/><path class="cls-2" d="M11.26,225.06V219.6a.41.41,0,0,1,.42-.42H385.84a.41.41,0,0,1,.42.42v5.46c-2.58.66-10.86,4.5-31.74,4.5s-154.38,0-154.38,0h-155c-24.12,0-30.84-3.66-33.9-4.5Z"/><rect class="cls-6" x="11.08" y="224.76" width="375.36" height="1.38"/><rect class="cls-7" x="11.08" y="224.76" width="375.36" height="1.38"/><path class="cls-8" d="M385.84,219.18a.41.41,0,0,1,.42.42v5.34h-375V219.6a.41.41,0,0,1,.42-.42Z"/><path class="cls-2" d="M385.84,219.18a.41.41,0,0,1,.42.42v5.34h-375V219.6a.41.41,0,0,1,.42-.42Z"/><path class="cls-9" d="M171.46,219.18h54.6c0,1.74-1.38,4.2-4.92,4.2H176.08a4.64,4.64,0,0,1-4.62-4.2Z"/><path class="cls-10" d="M171.46,219.18h54.6c0,1.74-1.38,4.2-4.92,4.2H176.08a4.64,4.64,0,0,1-4.62-4.2Z"/><path class="cls-4" d="M375.58,227.7c1-.06,1.68-.24,1.68-.42s-.78-.24-1.74-.18-1.68.3-1.68.48.78.24,1.74.12Z"/><path class="cls-11" d="M375.58,227.7c1-.06,1.68-.24,1.68-.42s-.78-.24-1.74-.18-1.68.3-1.68.48.78.24,1.74.12Z"/><polygon class="cls-12" points="375.16 227.4 374.74 227.34 375.4 227.28 375.64 227.16 375.94 227.22 376.54 227.22 376.12 227.34 376.3 227.4 375.64 227.4 375.04 227.52 375.16 227.4"/><path class="cls-4" d="M250.78,228.36c1,0,1.74-.12,1.74-.3s-.78-.3-1.74-.3-1.68.12-1.68.3.72.3,1.68.3Z"/><path class="cls-11" d="M250.78,228.36c1,0,1.74-.12,1.74-.3s-.78-.3-1.74-.3-1.68.12-1.68.3.72.3,1.68.3Z"/><polygon class="cls-12" points="250.42 228 250 227.94 250.66 227.94 250.9 227.82 251.2 227.94 251.8 227.94 251.38 228 251.56 228.12 250.9 228.06 250.24 228.12 250.42 228"/><path class="cls-4" d="M146.62,228.36c1,0,1.74-.12,1.74-.3s-.78-.3-1.74-.3-1.68.12-1.68.3.72.3,1.68.3Z"/><path class="cls-11" d="M146.62,228.36c1,0,1.74-.12,1.74-.3s-.78-.3-1.74-.3-1.68.12-1.68.3.72.3,1.68.3Z"/><polygon class="cls-12" points="145.9 228 145.48 227.94 146.14 227.94 146.38 227.82 146.68 227.94 147.28 227.94 146.86 228 147.04 228.12 146.38 228.06 145.72 228.12 145.9 228"/><path class="cls-4" d="M21.94,227.52c1,.06,1.74,0,1.74-.18S23,227,22,226.92s-1.74-.06-1.74.12.72.42,1.68.48Z"/><path class="cls-11" d="M21.94,227.52c1,.06,1.74,0,1.74-.18S23,227,22,226.92s-1.74-.06-1.74.12.72.42,1.68.48Z"/><polygon class="cls-12" points="21.64 227.16 21.22 227.04 21.82 227.04 22.12 226.98 22.36 227.1 23.02 227.16 22.6 227.22 22.72 227.34 22.12 227.22 21.46 227.22 21.64 227.16 21.64 227.16"/><rect class="cls-13" x="56.26" y="27.12" width="286.5" height="180"/><rect class="cls-14" x="75.04" y="54.12" width="249" height="13.5"/><path class="cls-13" d="M79.54,58.62H99v4.5H79.54Zm71.22,0h31.5v4.5h-31.5Zm-48,0h24v4.5h-24Zm83.28,0h14.22v4.5H186Zm92.22,0h4.5v4.5h-4.5Zm-147.72,0H147v4.5h-16.5Zm73.5,0h19.5v4.5H204Zm23.22,0h24v4.5h-24Zm27.78,0h19.5v4.5H255Z"/><path class="cls-15" d="M75,34.62h48v12H75Zm0,46.5H195.76v-6H75Z"/><path class="cls-14" d="M203.26,81.12H324v-6H203.26ZM75,163.62H195.76v-75H75Z"/><path class="cls-13" d="M79.54,93.12H99v4.5H79.54Zm0,37.5h60v4.5h-60Z"/><rect class="cls-15" x="79.54" y="155.4" width="4.5" height="4.5"/><path class="cls-13" d="M87.76,155.4h30v4.5h-30Zm-8.22-8.28h60v4.5h-60Zm0-8.22H191.26v4.5H79.54Z"/><rect class="cls-15" x="183.76" y="93.12" width="7.5" height="7.5"/><path class="cls-14" d="M75,207.12h78v-28.5H75Zm0-31.5h29.22v-4.5H75Zm65.22,0h4.5v-4.5h-4.5Zm8.28,0H153v-4.5h-4.5Z"/><rect class="cls-15" x="141.04" y="183.12" width="7.5" height="7.5"/><rect class="cls-13" x="79.54" y="183.12" width="13.5" height="4.5"/><path class="cls-14" d="M160.54,207.12h78v-28.5h-78Zm0-31.5h48v-4.5h-48Zm65.22,0h4.5v-4.5h-4.5Zm8.28,0h4.5v-4.5H234Z"/><rect class="cls-15" x="226.54" y="183.12" width="7.5" height="7.5"/><rect class="cls-13" x="165.04" y="183.12" width="25.5" height="4.5"/><path class="cls-14" d="M246,207.12h78v-28.5H246Zm0-31.5h30v-4.5H246Zm65.22,0h4.5v-4.5h-4.5Zm8.28,0H324v-4.5h-4.5Z"/><rect class="cls-15" x="312.04" y="183.12" width="7.5" height="7.5"/><rect class="cls-13" x="250.54" y="183.12" width="42" height="4.5"/><rect class="cls-14" x="203.26" y="88.62" width="56.28" height="33.78"/><rect class="cls-15" x="247.54" y="93.12" width="7.5" height="7.5"/><path class="cls-13" d="M207.76,93.12h19.5v4.5h-19.5Zm0,20.28h34.5v4.5h-34.5Z"/><rect class="cls-14" x="203.26" y="129.9" width="120.78" height="33.72"/><rect class="cls-15" x="312.04" y="134.4" width="7.5" height="7.5"/><path class="cls-13" d="M207.76,134.4h19.5v4.5h-19.5Zm0,20.22h94.5v4.5h-94.5Z"/><rect class="cls-14" x="267.76" y="88.62" width="56.28" height="33.78"/><rect class="cls-15" x="312.04" y="93.12" width="7.5" height="7.5"/><path class="cls-13" d="M272.26,93.12h19.5v4.5h-19.5Zm0,20.28h47.28v4.5H272.26Z"/><rect class="cls-14" x="286.54" y="36.9" width="37.5" height="7.5"/><rect class="cls-15" x="275.26" y="36.9" width="7.5" height="7.5"/><rect class="cls-14" x="264.04" y="36.9" width="7.5" height="7.5"/><rect class="cls-15" x="252.76" y="36.9" width="7.5" height="7.5"/><rect class="cls-14" x="241.54" y="36.9" width="7.5" height="7.5"/><rect class="cls-16" x="241.54" y="150.9" width="97.5" height="52.5"/><rect class="cls-17" x="319.43" y="144.12" width="19.5" height="6.78"/><path class="cls-18" d="M320.63,145.62l1.44,1.38,1.38-1.38.48.48-1.38,1.38,1.38,1.44-.48.48L322.07,148l-1.44,1.44-.42-.48,1.38-1.44-1.38-1.38Zm7.74,2.88a1.2,1.2,0,0,0,.12-.54h-.6a.45.45,0,0,1-.54.54.46.46,0,0,1-.3-.12.33.33,0,0,1-.18-.3,1.32,1.32,0,0,1-.06-.48v-.18a2.24,2.24,0,0,1,.12-.72.54.54,0,0,1,.42-.18.87.87,0,0,1,.42.12.7.7,0,0,1,.12.42h.6a1.2,1.2,0,0,0-.12-.54,1.4,1.4,0,0,0-.42-.42,1.77,1.77,0,0,0-.6-.12,1,1,0,0,0-.6.18,1.07,1.07,0,0,0-.42.48,1.66,1.66,0,0,0-.18.78v.18a1.28,1.28,0,0,0,.18.72.83.83,0,0,0,.42.48,1,1,0,0,0,.6.18,1,1,0,0,0,.6-.12.81.81,0,0,0,.42-.36Zm2.34.48v-.54h-1.2V146h-.66V149Zm2.7-1.44a1.66,1.66,0,0,1-.18.78,1.07,1.07,0,0,1-.42.48,1.21,1.21,0,0,1-.66.18,1,1,0,0,1-.6-.18,1.07,1.07,0,0,1-.42-.48,1.66,1.66,0,0,1-.18-.78v-.12a1.28,1.28,0,0,1,.18-.72,1,1,0,0,1,.42-.54,1,1,0,0,1,.6-.18,1.21,1.21,0,0,1,.66.18,1.31,1.31,0,0,1,.42.54,1.28,1.28,0,0,1,.18.72Zm-.78-.78c.12.12.12.36.12.66v.12a1.3,1.3,0,0,1-.12.72.74.74,0,0,1-.48.24.61.61,0,0,1-.42-.24,1.28,1.28,0,0,1-.18-.72v-.12a1,1,0,0,1,.18-.66.45.45,0,0,1,.42-.24.49.49,0,0,1,.48.24Zm2.1,1a4.13,4.13,0,0,1-.48-.18,1.58,1.58,0,0,1-.36-.3,1.11,1.11,0,0,1-.12-.42.87.87,0,0,1,.12-.42,1.08,1.08,0,0,1,.42-.3,1.43,1.43,0,0,1,.54-.12,1.75,1.75,0,0,1,.54.12.61.61,0,0,1,.36.3,1.41,1.41,0,0,1,.12.48h-.6c0-.12-.06-.18-.12-.3a.45.45,0,0,0-.3-.06h-.24c-.06.06-.12.06-.18.12s-.06.12-.06.18a.32.32,0,0,0,.18.24c.06.06.12.06.24.12l.12.06a1.33,1.33,0,0,1,.72.36.77.77,0,0,1,.24.6.87.87,0,0,1-.12.42.88.88,0,0,1-.36.3,1.66,1.66,0,0,1-.54.06.81.81,0,0,1-.54-.12,1.31,1.31,0,0,1-.48-.3.89.89,0,0,1-.12-.54h.6a.51.51,0,0,0,.12.36.87.87,0,0,0,.42.12,2.61,2.61,0,0,0,.3-.06.46.46,0,0,0,.12-.24.22.22,0,0,0-.06-.18.13.13,0,0,0-.12-.12l-.36-.18Zm3.42,1.26v-.54h-1.26v-.72H338v-.54h-1.08v-.66h1.26V146h-1.86V149Z"/><path class="cls-19" d="M275.46,179.48l1.13-2.84h1.33l-2.8,7h-1l-2.82-7h1.33l1.14,2.82.84,2.43Z"/><path class="cls-13" d="M280.17,174.86a.78.78,0,0,1-1.56,0A.78.78,0,0,1,280.17,174.86Zm-.15,1.7h-1.25v7H280Z"/><path class="cls-13" d="M283,177.53a2.68,2.68,0,0,1,2.33-1,3.58,3.58,0,0,1,0,7.16,2.75,2.75,0,0,1-2.3-1v.93h-1.25v-9H283Zm2.25,5a2.48,2.48,0,1,0-2.25-2.47A2.31,2.31,0,0,0,285.27,182.56Z"/><path class="cls-13" d="M296.8,180.4h-5.86a2.31,2.31,0,0,0,2.33,2.18,2.23,2.23,0,0,0,2.06-1.15h1.29a3.59,3.59,0,1,1-3.34-4.89,3.4,3.4,0,0,1,3.55,3.26A1.87,1.87,0,0,1,296.8,180.4Zm-1.29-1a2.1,2.1,0,0,0-2.23-1.73,2.18,2.18,0,0,0-2.29,1.73Z"/><path class="cls-19" d="M301.45,179.48l1.13-2.84h1.33l-2.8,7h-1l-2.82-7h1.33l1.14,2.82.84,2.43Z"/><path class="cls-13" d="M306.16,174.86a.78.78,0,0,1-1.56,0A.78.78,0,0,1,306.16,174.86Zm-.15,1.7h-1.25v7H306Z"/><path class="cls-13" d="M313.26,174.6h1.25v9h-1.25v-.93a2.75,2.75,0,0,1-2.32,1,3.58,3.58,0,1,1,0-7.16,2.68,2.68,0,0,1,2.33,1Zm-2.36,3a2.4,2.4,0,0,0-2.39,2.44,2.38,2.38,0,1,0,2.39-2.44Z"/><path class="cls-13" d="M322.82,180.4H317a2.31,2.31,0,0,0,2.33,2.18,2.23,2.23,0,0,0,2.06-1.15h1.29a3.59,3.59,0,1,1-3.34-4.89,3.4,3.4,0,0,1,3.55,3.26A1.87,1.87,0,0,1,322.82,180.4Zm-1.29-1a2.1,2.1,0,0,0-2.23-1.73,2.18,2.18,0,0,0-2.29,1.73Z"/><path class="cls-13" d="M327.5,183.69a3.59,3.59,0,1,1,3.75-3.58A3.51,3.51,0,0,1,327.5,183.69Zm0-1.13A2.46,2.46,0,1,0,325,180.1,2.38,2.38,0,0,0,327.5,182.56Z"/><path class="cls-20" d="M268.18,173.56l-5.86,8.76h0l-1.62,2.39a1.84,1.84,0,0,1-2.81.27l-.08-.08-.15-.19-.65-1-7.69-11.2h.86a8.5,8.5,0,0,1,7,3.72l1.18,1.63,2.46-3.75a3.22,3.22,0,0,0,.5-2.21c-.33-2.32-3-2.88-4.91-2.88h9.38A2.87,2.87,0,0,1,268.18,173.56Z"/><g class="cls-21"><path class="cls-22" d="M266.68,169.2,257,183.76l-7.69-11.2h.86a8.5,8.5,0,0,1,7,3.72l1.18,1.63,2.85-4.35c.89-3.68-2.5-4.49-4.8-4.49h9.38A2.47,2.47,0,0,1,266.68,169.2Z"/></g><path class="cls-23" d="M258.4,177.91l-2.68,3.94-6.39-9.29h.86a8.5,8.5,0,0,1,7,3.72Z"/></g></g></svg>