<svg xmlns="http://www.w3.org/2000/svg" xmlns:xlink="http://www.w3.org/1999/xlink" viewBox="0 0 174.38 233.27"><defs><style>.cls-1{isolation:isolate;}.cls-2{fill:#baa696;}.cls-3{fill:#e8e8e8;}.cls-13,.cls-4{fill:#18192b;}.cls-5{fill:#d6d6d6;}.cls-14,.cls-5,.cls-6{fill-rule:evenodd;}.cls-6{fill:#2d2d2d;}.cls-7,.cls-8,.cls-9{fill:none;}.cls-7{stroke:#8c9399;stroke-width:0.78px;}.cls-8,.cls-9{stroke:#000;stroke-linecap:round;stroke-linejoin:round;stroke-width:0.36px;}.cls-8{stroke-dasharray:0.06 0.18;}.cls-9{stroke-dasharray:0.06 0.12;}.cls-10{fill:#fff;}.cls-11{fill:#9eacb7;}.cls-12{fill:#dcdfe2;}.cls-13{opacity:0.94;}.cls-14{fill:#434456;}.cls-15{opacity:0.95;}.cls-16{fill:#8d19e0;}.cls-17{fill:url(#Безымянный_градиент_32);}.cls-18,.cls-20{mix-blend-mode:multiply;}.cls-19{fill:url(#linear-gradient);}.cls-20{fill:url(#linear-gradient-2);}</style><linearGradient id="Безымянный_градиент_32" x1="92.94" y1="184.44" x2="80.87" y2="172.37" gradientUnits="userSpaceOnUse"><stop offset="0" stop-color="#aa2afc"/><stop offset="1" stop-color="#5f009e"/></linearGradient><linearGradient id="linear-gradient" x1="90.42" y1="181.24" x2="87.49" y2="179.57" gradientUnits="userSpaceOnUse"><stop offset="0" stop-color="#0d2b85"/><stop offset="1" stop-color="#fff"/></linearGradient><linearGradient id="linear-gradient-2" x1="85.81" y1="183.58" x2="82.92" y2="180.86" xlink:href="#linear-gradient"/></defs><title>video-slider-device-tablet</title><g class="cls-1"><g id="Слой_1" data-name="Слой 1"><rect class="cls-2" x="8.1" y="4.22" width="158.64" height="224.58" rx="9.36" ry="9.36"/><rect class="cls-3" x="8.1" y="4.22" width="158.64" height="224.58" rx="9.36" ry="9.36"/><rect class="cls-4" x="8.1" y="4.22" width="158.64" height="224.58" rx="9.36" ry="9.36"/><path d="M15.66,228.14H159.18a.39.39,0,0,1,.36.36h0a.39.39,0,0,1-.36.36H15.66a.35.35,0,0,1-.36-.36h0a.35.35,0,0,1,.36-.36Z"/><path class="cls-5" d="M82.38,219.2a5,5,0,1,0,5-5,5,5,0,0,0-5,5Zm9.54,0a4.5,4.5,0,1,1-4.5-4.5,4.48,4.48,0,0,1,4.5,4.5Z"/><path class="cls-6" d="M87.24,16a1.23,1.23,0,1,0,0-2.46,1.23,1.23,0,1,0,0,2.46Z"/><path class="cls-7" d="M87.24,16a1.23,1.23,0,1,0,0-2.46,1.23,1.23,0,1,0,0,2.46Z"/><path class="cls-8" d="M83.34,15.5a.63.63,0,0,0,0-1.26.63.63,0,0,0,0,1.26Z"/><path class="cls-8" d="M83.34,15.32h0a.45.45,0,0,0,0-.9.45.45,0,0,0,0,.9Z"/><path class="cls-8" d="M83.34,15.14h0c.42.06.42-.54,0-.54s-.3.54,0,.54Z"/><path class="cls-9" d="M83.34,15h0a.06.06,0,0,1-.06-.06.21.21,0,0,1,.06-.12.13.13,0,0,1,.12.12c0,.06-.06.06-.12.06Z"/><rect class="cls-10" x="18.6" y="25.22" width="138" height="183.78"/><rect class="cls-11" x="26.1" y="31.22" width="48" height="12"/><rect class="cls-12" x="26.1" y="49.22" width="123" height="13.5"/><path class="cls-10" d="M30.6,53.72H50.1v4.5H30.6Zm87.78,0H144.6v4.5H118.38Zm-64.5,0h24v4.5h-24Zm27.72,0H98.1v4.5H81.6Zm20.28,0H114.6v4.5H101.88Z"/><rect class="cls-11" x="26.1" y="68.72" width="123" height="6"/><rect class="cls-12" x="26.1" y="80.72" width="123" height="63.78"/><path class="cls-10" d="M30.6,85.22H50.1v4.5H30.6Zm0,34.5h60v4.5h-60Z"/><rect class="cls-11" x="30.6" y="136.22" width="4.5" height="4.5"/><path class="cls-10" d="M38.88,136.22h30v4.5h-30ZM30.6,128h114v4.5H30.6Z"/><rect class="cls-11" x="137.1" y="85.22" width="7.5" height="7.5"/><rect class="cls-12" x="26.1" y="150.5" width="58.5" height="33.72"/><rect class="cls-11" x="72.6" y="155" width="7.5" height="7.5"/><path class="cls-10" d="M30.6,155H50.1v4.5H30.6Zm0,20.22H65.1v4.5H30.6Z"/><rect class="cls-12" x="26.1" y="190.22" width="123" height="18.78"/><rect class="cls-11" x="137.1" y="194.72" width="7.5" height="7.5"/><rect class="cls-10" x="30.6" y="194.72" width="19.5" height="4.5"/><rect class="cls-12" x="90.6" y="150.5" width="58.5" height="33.72"/><rect class="cls-11" x="137.1" y="155" width="7.5" height="7.5"/><path class="cls-10" d="M95.1,155h13.5v4.5H95.1Zm0,20.22h42v4.5h-42Z"/><rect class="cls-11" x="141.6" y="33.5" width="7.5" height="7.5"/><rect class="cls-12" x="130.38" y="33.5" width="7.5" height="7.5"/><rect class="cls-11" x="119.1" y="33.5" width="7.5" height="7.5"/><rect class="cls-12" x="107.88" y="33.5" width="7.5" height="7.5"/><rect class="cls-13" x="70.38" y="160.22" width="82.5" height="44.4"/><rect class="cls-10" x="133.38" y="153.5" width="19.5" height="6.72"/><path class="cls-14" d="M135.3,155l1.44,1.38,1.38-1.38.48.42-1.38,1.44,1.38,1.38-.48.48-1.38-1.38-1.44,1.38-.42-.48,1.38-1.38-1.38-1.44Zm7.74,2.88a1.75,1.75,0,0,0,.12-.54h-.6a.51.51,0,0,1-.12.36.87.87,0,0,1-.42.12.45.45,0,0,1-.3-.06c-.12-.12-.18-.18-.18-.3a1.66,1.66,0,0,1-.06-.54v-.18a1.6,1.6,0,0,1,.12-.66.61.61,0,0,1,.42-.24.45.45,0,0,1,.54.54h.6a1.75,1.75,0,0,0-.12-.54.81.81,0,0,0-.42-.36,1,1,0,0,0-.6-.12,1,1,0,0,0-.6.18.83.83,0,0,0-.42.48,1.41,1.41,0,0,0-.12.72v.18a1.65,1.65,0,0,0,.12.78,1.07,1.07,0,0,0,.42.48,1,1,0,0,0,.6.18,1.77,1.77,0,0,0,.6-.12,2.61,2.61,0,0,0,.42-.36Zm2.34.42v-.48h-1.2v-2.46h-.66v2.94Zm2.7-1.38a1.66,1.66,0,0,1-.18.78,1.07,1.07,0,0,1-.42.48,1.21,1.21,0,0,1-.66.18,1.16,1.16,0,0,1-.6-.18,1.07,1.07,0,0,1-.42-.48,1.85,1.85,0,0,1-.18-.78v-.12a1.66,1.66,0,0,1,.18-.78.83.83,0,0,1,.42-.48,1,1,0,0,1,.6-.18,1.21,1.21,0,0,1,.66.18,1.11,1.11,0,0,1,.42.48,1.66,1.66,0,0,1,.18.78Zm-.78-.84a1.3,1.3,0,0,1,.12.72v.12c0,.3,0,.54-.12.66a.55.55,0,0,1-.48.24.45.45,0,0,1-.42-.24,1,1,0,0,1-.18-.66v-.12a1.28,1.28,0,0,1,.18-.72.61.61,0,0,1,.42-.24.62.62,0,0,1,.48.24Zm2.1,1a1.2,1.2,0,0,1-.48-.24,1.59,1.59,0,0,1-.36-.3.87.87,0,0,1-.12-.42,1.11,1.11,0,0,1,.12-.42,2.54,2.54,0,0,1,.42-.3,1.49,1.49,0,0,1,.54-.06.89.89,0,0,1,.54.12.88.88,0,0,1,.36.3,1.13,1.13,0,0,1,.12.48h-.6a.41.41,0,0,0-.42-.42c-.12,0-.18,0-.24.06s-.12.06-.18.12-.06.06-.06.12.06.18.18.24a.83.83,0,0,0,.24.18h.12a1.34,1.34,0,0,1,.72.42.58.58,0,0,1,.24.54.87.87,0,0,1-.12.42c-.06.18-.24.24-.36.3a1.75,1.75,0,0,1-.54.12,1.43,1.43,0,0,1-.54-.12,1.31,1.31,0,0,1-.48-.3.89.89,0,0,1-.12-.54h.6a.85.85,0,0,0,.12.36.89.89,0,0,0,.42.06.45.45,0,0,0,.3-.06.31.31,0,0,0,.12-.24.22.22,0,0,0-.06-.18c0-.06-.06-.06-.12-.12a.85.85,0,0,0-.36-.12Zm3.48,1.2v-.48h-1.32V157h1.08v-.48h-1.08v-.66h1.26v-.54H151v2.94Z"/><g class="cls-15"><path class="cls-16" d="M99.69,182.69l.91-2.29h1.07L99.42,186h-.8l-2.27-5.62h1.07l.92,2.27.68,2Z"/><path class="cls-10" d="M103.49,179a.63.63,0,0,1-1.26,0A.63.63,0,0,1,103.49,179Zm-.12,1.37h-1V186h1Z"/><path class="cls-10" d="M105.77,181.12a2.16,2.16,0,0,1,1.88-.81,2.88,2.88,0,0,1,0,5.76,2.21,2.21,0,0,1-1.86-.85V186h-1v-7.22h1Zm1.81,4.05a2,2,0,1,0-1.81-2A1.86,1.86,0,0,0,107.59,185.18Z"/><path class="cls-10" d="M116.88,183.43h-4.72a1.86,1.86,0,0,0,1.88,1.75,1.8,1.8,0,0,0,1.66-.93h1a2.89,2.89,0,1,1-2.69-3.94,2.74,2.74,0,0,1,2.86,2.63A1.51,1.51,0,0,1,116.88,183.43Zm-1-.83a1.69,1.69,0,0,0-1.79-1.39,1.76,1.76,0,0,0-1.85,1.39Z"/><path class="cls-16" d="M120.63,182.69l.91-2.29h1.07L120.35,186h-.8l-2.27-5.62h1.07l.92,2.27.68,2Z"/><path class="cls-10" d="M124.42,179a.63.63,0,0,1-1.26,0A.63.63,0,0,1,124.42,179Zm-.12,1.37h-1V186h1Z"/><path class="cls-10" d="M130.14,178.76h1V186h-1v-.75a2.22,2.22,0,0,1-1.87.85,2.88,2.88,0,1,1,0-5.76,2.16,2.16,0,0,1,1.88.81Zm-1.9,2.43a1.94,1.94,0,0,0-1.93,2,1.91,1.91,0,1,0,1.93-2Z"/><path class="cls-10" d="M137.84,183.43h-4.72a1.86,1.86,0,0,0,1.88,1.75,1.8,1.8,0,0,0,1.66-.93h1a2.89,2.89,0,1,1-2.69-3.94,2.74,2.74,0,0,1,2.86,2.63A1.51,1.51,0,0,1,137.84,183.43Zm-1-.83a1.69,1.69,0,0,0-1.79-1.39,1.76,1.76,0,0,0-1.85,1.39Z"/><path class="cls-10" d="M141.61,186.08a2.89,2.89,0,1,1,3-2.89A2.83,2.83,0,0,1,141.61,186.08Zm0-.91a2,2,0,1,0-2-2A1.92,1.92,0,0,0,141.61,185.18Z"/></g><g class="cls-15"><path class="cls-17" d="M93.83,177.92,89.11,185h0l-1.31,1.92a1.48,1.48,0,0,1-2.26.22l-.06-.07-.12-.15-.52-.77-6.2-9h.7a6.85,6.85,0,0,1,5.66,3l1,1.31,2-3a2.59,2.59,0,0,0,.4-1.78c-.26-1.87-2.41-2.32-4-2.32h7.56A2.31,2.31,0,0,1,93.83,177.92Z"/><g class="cls-18"><path class="cls-19" d="M92.62,174.41l-7.78,11.73-6.2-9h.7a6.85,6.85,0,0,1,5.66,3l1,1.31,2.3-3.5c.72-3-2-3.62-3.87-3.62h7.56A2,2,0,0,1,92.62,174.41Z"/></g><path class="cls-20" d="M85.95,181.43l-2.16,3.17-5.15-7.48h.7a6.85,6.85,0,0,1,5.66,3Z"/></g></g></g></svg>