<svg xmlns="http://www.w3.org/2000/svg" xmlns:xlink="http://www.w3.org/1999/xlink" viewBox="0 0 93.84 187.5"><defs><style>.cls-1{isolation:isolate;}.cls-19,.cls-2{fill:#18192b;}.cls-10,.cls-12,.cls-13,.cls-14,.cls-18,.cls-2,.cls-20,.cls-3,.cls-5,.cls-7,.cls-8,.cls-9{fill-rule:evenodd;}.cls-3{fill:#303743;}.cls-11,.cls-4{fill:none;stroke-width:0.36px;}.cls-4{stroke:#bfbfbf;}.cls-5{fill:#18192c;}.cls-6{fill:#545557;}.cls-7{fill:#4c5461;}.cls-8{fill:#272e3a;}.cls-9{fill:#304453;}.cls-10,.cls-15{fill:#fff;}.cls-11{stroke:#b2b2b2;}.cls-12{fill:#1e242c;}.cls-13{fill:#2b2e32;}.cls-14{fill:#4a90e2;}.cls-16,.cls-18{fill:#9eacb7;}.cls-17{fill:#dcdfe2;}.cls-19,.cls-21{opacity:0.95;}.cls-20{fill:#434456;}.cls-22{fill:#8d19e0;}.cls-23{fill:url(#Безымянный_градиент_32);}.cls-24,.cls-26{mix-blend-mode:multiply;}.cls-25{fill:url(#linear-gradient);}.cls-26{fill:url(#linear-gradient-2);}</style><linearGradient id="Безымянный_градиент_32" x1="30.92" y1="161.84" x2="20.42" y2="151.34" gradientUnits="userSpaceOnUse"><stop offset="0" stop-color="#aa2afc"/><stop offset="1" stop-color="#5f009e"/></linearGradient><linearGradient id="linear-gradient" x1="28.73" y1="159.06" x2="26.19" y2="157.6" gradientUnits="userSpaceOnUse"><stop offset="0" stop-color="#0d2b85"/><stop offset="1" stop-color="#fff"/></linearGradient><linearGradient id="linear-gradient-2" x1="24.72" y1="161.09" x2="22.21" y2="158.72" xlink:href="#linear-gradient"/></defs><title>video-slider-device-phone_2</title><g class="cls-1"><g id="Слой_1" data-name="Слой 1"><path class="cls-2" d="M93.42,16.32C93.42,5.64,87.78,0,77.16,0H17C6.36,0,.66,5.64.66,16.32v9a9.94,9.94,0,0,1,.24,2.4v2.94a2.25,2.25,0,0,0-.06.66A5.89,5.89,0,0,1,.66,32.7v6.12c.12.06.18.18.18.48H.9V51.84c0,.42-.12.66-.24.72V56c.12.06.18.18.18.48H.9V69c0,.42-.12.66-.24.72V171.18c0,10.68,5.7,16.32,16.32,16.32H41.46a3.1,3.1,0,0,1,1.26-.24h8.76a4.12,4.12,0,0,1,1.14.24H77.16c10.62,0,16.26-5.7,16.26-16.32V65.1a.51.51,0,0,1-.12-.36l-.06-.66V43.8h0a1,1,0,0,1,.18-.72V16.32Z"/><path class="cls-3" d="M76.08,1.5c10.74,0,15.84,4.44,15.84,15.24V171.18c0,10.8-5.1,15-15.84,15H18c-10.74,0-16-4.2-16-15V16.74C2,5.94,7.26,1.5,18,1.5Z"/><path class="cls-4" d="M76.08,1.5c10.74,0,15.84,4.44,15.84,15.24V171.18c0,10.8-5.1,15-15.84,15H18c-10.74,0-16-4.2-16-15V16.74C2,5.94,7.26,1.5,18,1.5Z"/><path class="cls-5" d="M76.14,2.16C86.94,2.16,91,6.54,91,17.28V170.4c0,10.8-4.08,14.94-15.3,14.94H17.94c-10.56,0-15.12-4.14-15.12-14.7V17.28C2.82,6.54,7.2,2.16,17.94,2.16Z"/><rect class="cls-6" x="0.66" y="168.36" width="1.5" height="1.32"/><rect class="cls-6" x="91.68" y="168.36" width="1.74" height="1.32"/><rect class="cls-6" x="0.66" y="18.06" width="1.5" height="1.26"/><rect class="cls-6" x="91.68" y="18.06" width="1.74" height="1.26"/><path class="cls-7" d="M93.12,44.64a4.31,4.31,0,0,1,.18-1.26c.48.12.54.06.54.06V64.56a.69.69,0,0,1-.54.3c-.06-.06-.18-.24-.18-1.2v-19Z"/><path class="cls-8" d="M1,57.48a3.17,3.17,0,0,0-.12-1.2c0-.12-.06-.12-.18-.12a1.11,1.11,0,0,0-.42.12V69.36a1.38,1.38,0,0,0,.42.18c.06.06.18,0,.24-.06a3.49,3.49,0,0,0,.06-1c0-.84.06-10.38,0-11Z"/><path class="cls-8" d="M1,40.32A5.68,5.68,0,0,0,.84,39a.06.06,0,0,0-.06-.06,2.4,2.4,0,0,0-.54.18V52.2s0,.12.48.24c.06,0,.06-.06.12-.06A2.64,2.64,0,0,0,1,51.3c0-.84.06-10.38,0-11Z"/><path class="cls-8" d="M.9,26.28a2.06,2.06,0,0,0-.18-.84H.24L0,25.62v6.6l.24.24H.72a4.22,4.22,0,0,0,.18-1.2Z"/><path class="cls-9" d="M42.06,6.72a.78.78,0,0,0,0,1.56h9.78a.78.78,0,0,0,0-1.56Z"/><path class="cls-10" d="M42.06,6.72a.78.78,0,0,0,0,1.56h9.78a.78.78,0,0,0,0-1.56Z"/><path class="cls-10" d="M42.06,6.72a.78.78,0,0,0,0,1.56h9.78a.78.78,0,0,0,0-1.56Z"/><path class="cls-11" d="M51.84,8H42.06a.57.57,0,1,1,0-1.14h9.78a.57.57,0,0,1,0,1.14Z"/><path class="cls-12" d="M58.2,7.86a1.31,1.31,0,1,0-2.52-.72,1.31,1.31,0,1,0,2.52.72Z"/><path class="cls-13" d="M57.78,7.74a.87.87,0,1,0-1.68-.48.87.87,0,0,0,1.68.48Z"/><path class="cls-14" d="M23.1,5.28a1.08,1.08,0,0,1,1.08,1.08V7a4.81,4.81,0,0,0,4.8,4.8h36.3A4.83,4.83,0,0,0,70.14,7v-.6a1.13,1.13,0,0,1,1.08-1.14H79.8a8.66,8.66,0,0,1,8.64,8.52V173a8.55,8.55,0,0,1-8.58,8.46H14.52A8.51,8.51,0,0,1,5.94,173V13.74a8.51,8.51,0,0,1,8.58-8.46Z"/><rect class="cls-15" x="5.94" y="5.28" width="82.5" height="176.22" rx="7.2" ry="7.2"/><rect class="cls-16" x="26.94" y="16.5" width="40.5" height="9"/><rect class="cls-17" x="78.66" y="18" width="6" height="6"/><path class="cls-18" d="M9.66,19.5h5.28v.78H9.66Zm0,1.5h5.28v.78H9.66Zm5.28,1.5H9.66v.78h5.28Z"/><path class="cls-17" d="M5.94,29.28h82.5V30H5.94Zm3.72,4.5h75V43.5h-75Z"/><rect class="cls-16" x="9.66" y="47.28" width="75" height="5.22"/><rect class="cls-17" x="9.66" y="56.28" width="75" height="49.5"/><path class="cls-15" d="M13.44,60h19.5v3.78H13.44Zm0,23.28h60V87h-60Z"/><rect class="cls-16" x="13.44" y="98.28" width="3.72" height="3.72"/><path class="cls-15" d="M20.94,98.28h30V102h-30Zm-7.5-7.5h67.5V94.5H13.44Z"/><rect class="cls-16" x="74.94" y="60" width="6" height="6"/><rect class="cls-17" x="9.66" y="109.5" width="35.28" height="28.5"/><path class="cls-15" d="M13.44,113.28H24.66V117H13.44Zm0,17.22H38.16v3.78H13.44Z"/><rect class="cls-16" x="35.16" y="113.28" width="6" height="6"/><rect class="cls-17" x="9.66" y="141.78" width="75" height="28.5"/><path class="cls-15" d="M13.44,145.5H32.16v3.78H13.44Zm0,17.28H68.16v3.72H13.44Z"/><rect class="cls-16" x="74.94" y="145.5" width="6" height="6"/><path class="cls-17" d="M9.66,178.5H38.94V174H9.66Zm33,0h4.5V174h-4.5Zm8.28,0h4.5V174h-4.5ZM49.44,138H84.66V109.5H49.44Z"/><path class="cls-15" d="M53.16,113.28H67.44V117H53.16Zm0,17.22h19.5v3.78H53.16Z"/><rect class="cls-16" x="74.94" y="113.28" width="6" height="6"/><path class="cls-15" d="M13.44,36.78h19.5V40.5H13.44Zm23.22,0h24V40.5h-24Zm27.78,0h16.5V40.5H64.44Z"/><rect class="cls-19" x="13.44" y="141" width="67.5" height="37.5"/><rect class="cls-15" x="65.94" y="136.5" width="15" height="4.5"/><path class="cls-20" d="M67,137.28l1.08,1.08,1.14-1.08.36.36-1.14,1.08,1.14,1.08-.36.36-1.14-1.08L67,140.16l-.36-.36,1.08-1.08-1.08-1.08Zm6,2.22a.87.87,0,0,0,.12-.42h-.48a.38.38,0,0,1-.66.3c-.06-.06-.12-.12-.12-.18a1.17,1.17,0,0,1-.06-.42v-.12c0-.24,0-.42.12-.54a.33.33,0,0,1,.3-.18.41.41,0,0,1,.42.42h.48a.87.87,0,0,0-.12-.42.72.72,0,0,0-.3-.3,1.42,1.42,0,0,0-.48-.12.68.68,0,0,0-.48.18.61.61,0,0,0-.3.36,1,1,0,0,0-.12.6v.12a1,1,0,0,0,.12.6.88.88,0,0,0,.3.36.65.65,0,0,0,.48.12,1.17,1.17,0,0,0,.48-.06.72.72,0,0,0,.3-.3Zm1.86.36v-.42h-1v-1.86h-.48v2.28Zm2-1.08a1.08,1.08,0,0,1-.12.6,1.59,1.59,0,0,1-.3.36.72.72,0,0,1-.48.12.89.89,0,0,1-.54-.12,1.59,1.59,0,0,1-.3-.36,1.19,1.19,0,0,1-.12-.6v-.12a1,1,0,0,1,.12-.6.61.61,0,0,1,.3-.36.8.8,0,0,1,.48-.18.84.84,0,0,1,.54.18.61.61,0,0,1,.3.36,1,1,0,0,1,.12.6Zm-.6-.66c.12.12.12.3.12.54v.12a.65.65,0,0,1-.12.48.4.4,0,0,1-.3.24.41.41,0,0,1-.36-.24.65.65,0,0,1-.12-.48v-.12c0-.24,0-.42.12-.54a.33.33,0,0,1,.3-.18.36.36,0,0,1,.36.18Zm1.68.78a2.9,2.9,0,0,1-.42-.18.47.47,0,0,1-.24-.24.46.46,0,0,1-.12-.3.85.85,0,0,1,.12-.36.51.51,0,0,1,.3-.18,1.12,1.12,0,0,1,.42-.12.87.87,0,0,1,.42.12.72.72,0,0,1,.42.6h-.48a.45.45,0,0,0-.12-.24c-.06-.06-.12-.06-.24-.06h-.18c-.06.06-.12.06-.12.12s-.06.06-.06.12.06.12.12.18.12.06.24.12h.06a5.57,5.57,0,0,1,.6.3.68.68,0,0,1,.18.48.46.46,0,0,1-.12.3.6.6,0,0,1-.3.24.89.89,0,0,1-.42.06,1,1,0,0,1-.42-.06,1.26,1.26,0,0,1-.36-.24,1.11,1.11,0,0,1-.12-.42h.48a.31.31,0,0,0,.12.24.46.46,0,0,0,.3.12c.12,0,.18-.06.24-.06s.12-.12.12-.18a.21.21,0,0,0-.06-.12.13.13,0,0,0-.12-.12.45.45,0,0,0-.24-.12Zm2.64,1v-.42h-1v-.6h.9v-.36h-.9V138h1v-.42H79.2v2.28Z"/><g class="cls-21"><path class="cls-22" d="M36.8,160.32l.79-2h.93l-2,4.89h-.7l-2-4.89h.93l.8,2,.59,1.7Z"/><path class="cls-15" d="M40.1,157.08a.55.55,0,0,1-1.09,0A.55.55,0,0,1,40.1,157.08ZM40,158.27h-.88v4.91H40Z"/><path class="cls-15" d="M42.09,159a1.88,1.88,0,0,1,1.63-.71,2.51,2.51,0,0,1,0,5,1.92,1.92,0,0,1-1.61-.74v.65h-.88V156.9h.88Zm1.58,3.53a1.74,1.74,0,1,0-1.58-1.73A1.62,1.62,0,0,0,43.67,162.48Z"/><path class="cls-15" d="M51.75,161H47.64a1.62,1.62,0,0,0,1.63,1.53,1.56,1.56,0,0,0,1.44-.81h.91a2.52,2.52,0,1,1-2.34-3.43,2.38,2.38,0,0,1,2.48,2.29A1.31,1.31,0,0,1,51.75,161Zm-.91-.73A1.47,1.47,0,0,0,49.28,159a1.53,1.53,0,0,0-1.61,1.21Z"/><path class="cls-22" d="M55,160.32l.79-2h.93l-2,4.89h-.7l-2-4.89H53l.8,2,.59,1.7Z"/><path class="cls-15" d="M58.31,157.08a.55.55,0,0,1-1.09,0A.55.55,0,0,1,58.31,157.08Zm-.11,1.19h-.88v4.91h.88Z"/><path class="cls-15" d="M63.29,156.9h.88v6.28h-.88v-.65a1.93,1.93,0,0,1-1.62.74,2.51,2.51,0,1,1,0-5,1.88,1.88,0,0,1,1.63.71ZM61.64,159A1.68,1.68,0,0,0,60,160.73,1.66,1.66,0,1,0,61.64,159Z"/><path class="cls-15" d="M70,161H65.88a1.62,1.62,0,0,0,1.63,1.53,1.56,1.56,0,0,0,1.44-.81h.91a2.52,2.52,0,1,1-2.34-3.43A2.38,2.38,0,0,1,70,160.54,1.31,1.31,0,0,1,70,161Zm-.91-.73A1.47,1.47,0,0,0,67.52,159a1.53,1.53,0,0,0-1.61,1.21Z"/><path class="cls-15" d="M73.27,163.27a2.51,2.51,0,1,1,2.63-2.51A2.46,2.46,0,0,1,73.27,163.27Zm0-.79a1.73,1.73,0,1,0-1.72-1.72A1.67,1.67,0,0,0,73.27,162.48Z"/></g><g class="cls-21"><path class="cls-23" d="M31.7,156.17l-4.1,6.14h0L26.46,164a1.29,1.29,0,0,1-2,.19l-.06-.06-.1-.13-.45-.67-5.39-7.85h.61A6,6,0,0,1,24,158.07l.83,1.14,1.72-2.63a2.25,2.25,0,0,0,.35-1.55c-.23-1.62-2.1-2-3.44-2H30A2,2,0,0,1,31.7,156.17Z"/><g class="cls-24"><path class="cls-25" d="M30.65,153.11l-6.77,10.2-5.39-7.85h.61A6,6,0,0,1,24,158.07l.83,1.14,2-3c.63-2.58-1.75-3.15-3.37-3.15H30A1.73,1.73,0,0,1,30.65,153.11Z"/></g><path class="cls-26" d="M24.84,159.22,23,162l-4.48-6.51h.61A6,6,0,0,1,24,158.07Z"/></g></g></g></svg>