<svg id="Слой_1" data-name="Слой 1" xmlns="http://www.w3.org/2000/svg" xmlns:xlink="http://www.w3.org/1999/xlink" viewBox="0 0 458 388"><defs><style>.cls-1{fill:none;}.cls-2{fill:#fff;}.cls-3{clip-path:url(#clip-path);}.cls-4{clip-path:url(#clip-path-2);}.cls-5{fill:#b16855;}.cls-6{fill:#ffc6b0;}.cls-7{fill:#8488ad;}.cls-8{fill:#ffa795;}.cls-9{fill:#636897;}.cls-10{fill:#a6523c;}.cls-11{fill:#f0f3f7;}.cls-12{clip-path:url(#clip-path-3);}.cls-13{clip-path:url(#clip-path-4);}.cls-14{fill:#e7bb6f;}.cls-15{fill:#ffd7cf;}.cls-16{fill:#ffada6;}.cls-17{fill:#fff3e9;}.cls-18{fill:#cc9643;}.cls-19{fill:#a17c61;}.cls-20{fill:#926748;}.cls-21{clip-path:url(#clip-path-5);}.cls-22{clip-path:url(#clip-path-6);}.cls-23{fill:#fadee1;}.cls-24{fill:#674f3f;}.cls-25{fill:#ea9572;}.cls-26{fill:#db7d50;}.cls-27{fill:#4d311d;}.cls-28{fill:#f6c6cb;}.cls-29{clip-path:url(#clip-path-7);}.cls-30{clip-path:url(#clip-path-8);}.cls-31{fill:#ffeadf;}.cls-32{fill:#8a9cbf;}.cls-33{fill:#687fac;}.cls-34{fill:#666;}</style><clipPath id="clip-path"><path class="cls-1" d="M292.82,24.52A24.21,24.21,0,1,1,268.64,48.7a24.16,24.16,0,0,1,24.18-24.18Z"/></clipPath><clipPath id="clip-path-2"><rect class="cls-1" x="274.1" y="29.98" width="37.62" height="42.96"/></clipPath><clipPath id="clip-path-3"><path class="cls-1" d="M131.24,111.82A24.21,24.21,0,1,1,107,136a24.15,24.15,0,0,1,24.24-24.18Z"/></clipPath><clipPath id="clip-path-4"><rect class="cls-1" x="110.06" y="117.28" width="42.18" height="42.96"/></clipPath><clipPath id="clip-path-5"><path class="cls-1" d="M281.18,194.08a24.21,24.21,0,1,1-24.24,24.24,24.16,24.16,0,0,1,24.24-24.24Z"/></clipPath><clipPath id="clip-path-6"><rect class="cls-1" x="260.6" y="200.14" width="41.1" height="42.48"/></clipPath><clipPath id="clip-path-7"><path class="cls-1" d="M385.76,127.84a24.21,24.21,0,1,1-24.18,24.24,24.12,24.12,0,0,1,24.18-24.24Z"/></clipPath><clipPath id="clip-path-8"><rect class="cls-1" x="363.98" y="132.1" width="42.96" height="44.16"/></clipPath></defs><title>img-referral-mobile</title><path class="cls-2" d="M102.5,208.9,169.7,94.84l.18.3,54.36,114.12H224ZM169.7,95.62,103.16,208.54,223.7,209Z"/><path class="cls-2" d="M223.94,209.44l-.12-.3L169.4,95l.36.06,116.58,13-.12.24ZM170,95.44l54,113.34,61.74-100.44Z"/><path class="cls-2" d="M286.34,108.4l-.3-.06-116.82-13,.42-.24,87.12-59.34.12.24ZM170.18,95.08,285.8,108l-29.16-71.7Z"/><path class="cls-2" d="M169.64,95.5l-.06-.18L144.32,44h.24l112.8-8.22ZM144.86,44.38,169.76,95,256,36.22Z"/><path class="cls-2" d="M144.56,44.38V44l76.68-14.64h0l36.84,6.72Zm76.68-14.64-73.68,14L255.32,36Z"/><path class="cls-2" d="M343.34,112.06l-57.42-3.72-.06-.12L256.28,35.44ZM286.16,108l56.16,3.66-85.2-75Z"/><path class="cls-2" d="M343.22,112.6,255.86,35.5l58.26,22v.06ZM257.54,36.52,342,111l-28.2-53.28Z"/><path class="cls-2" d="M342.74,112.06,313.28,56.68,361.76,105ZM314.66,58.54l28.26,53.1,18.18-6.78Z"/><path class="cls-2" d="M376.94,129.7l-34.56-17.88,19.14-7.08Zm-33.72-17.88,32.7,17L361.4,105.16Z"/><path class="cls-2" d="M351.5,210.94h-.36l-127.5-1.68.18-.24L286,107.86l.18.24Zm-127.2-2,126.54,1.56-64.8-102Z"/><path class="cls-2" d="M276.68,323l-.12-.3L223.7,208.9l127.8,1.68-.18.3Zm-52.44-113.7,52.5,113,74.1-111.36Z"/><path class="cls-2" d="M166.46,306.76l-.12-.24-63.84-98h.3l121.5.48-.18.3Zm-63.3-97.86,63.3,97.2,57.24-96.66Z"/><path class="cls-2" d="M93.68,310.66v-.18l9-102.24.3.36,63.78,98h-.3Zm9.3-101.4-8.88,101,72.06-4Z"/><path class="cls-2" d="M192.74,370.54,93.32,310.36l.6-.06,72.66-4.08.06.12ZM94.46,310.6l97.56,59-25.68-63.06Z"/><path class="cls-2" d="M193.76,370.66,138,353.2l-45.3-43.68ZM138.2,352.9l52.86,16.56-95.88-58Z"/><path class="cls-2" d="M94.64,311.62,73,285,47.9,208.78l.36-.12ZM73.4,284.86l19.8,24.48-43.86-97.5Z"/><path class="cls-2" d="M221.24,374.32h0L190.82,370l105.78-8.64v.36ZM194,370.12,221.24,374l71.16-11.88Z"/><path class="cls-2" d="M192.32,370.3l-26.16-64.08.36.06,110.7,16.26-.42.24Zm-25.56-63.66,25.74,63.18,83.7-47.1Z"/><path class="cls-2" d="M191.6,370.3l.72-.36,84.48-47.52.06.12,20,39.18h-.3Zm85-47.4-83.46,46.92,103.14-8.4Z"/><path class="cls-2" d="M296.54,361.84l-.12-.18-20-38.94.24-.06,85.38-23.88-.48.48ZM277,323l19.68,38.34,64.2-61.8Z"/><path class="cls-2" d="M94,311.2,47.84,208.54H103v.18ZM48.38,208.9,93.8,309.82l8.82-100.92Z"/><path class="cls-2" d="M78.5,120.7l.42-.48,65.7-76.32.12.18L170,95.32Zm66.06-76.2L79.52,120l89.94-25Z"/><path class="cls-2" d="M103,208.9H47.84l.06-.24L79,119.74Zm-54.72-.36h54.24L79,120.94Z"/><path class="cls-2" d="M48.26,208.78l-.36-.12,18.3-74.58V134l13.32-14.4ZM66.5,134.2l-17.4,71,29.46-84.12Z"/><path class="cls-2" d="M65.66,135.1l9.66-20.28,69.12-70.74.24.24L79.16,120.46Zm10-20L67,133.18l11.94-13,61.92-71.94Z"/><path class="cls-2" d="M102.74,209.2l-.12-.42L78.8,120.22l.18-.06L170.06,94.9l-.18.42ZM79.28,120.46l23.58,87.84L169.34,95.5Z"/><path class="cls-2" d="M277,322.84h-.3L166.22,306.58l.12-.24L224,208.84l.18.3ZM166.76,306.28l109.68,16.14L224,209.62Z"/><path class="cls-2" d="M276.32,323l.24-.42,74.7-111.9.06.48,10.32,88.14h-.12ZM351,211.66,277.1,322.36,361.28,299Z"/><path class="cls-2" d="M361.34,299.8,351,210.52l45.9,1.26.06.24Zm-10-88.92,10.14,87.54,34.92-86.28Z"/><path class="cls-2" d="M351.38,211.84l-.36-.6L285.74,108,343,111.7v.12Zm-65-103.44,64.5,102.06L342.68,112Z"/><path class="cls-2" d="M396.74,212.14,351,210.88,342.56,111Zm-45.42-1.62,45.12,1.26L343,112.66Z"/><path class="cls-2" d="M396.92,212h-.36L342.38,111.4l34.2,17.76v.06Zm-53.64-99.78,53,98.4-20-81.24Z"/><polygon class="cls-2" points="119 142.12 118.64 142.06 144.38 44.44 144.68 44.56 119 142.12"/><polygon class="cls-2" points="118.94 142.24 118.7 141.94 256.88 35.8 257.12 36.1 118.94 142.24"/><polygon class="cls-2" points="118.94 141.94 118.7 142.24 173 179.56 173.18 179.32 118.94 141.94"/><polygon class="cls-2" points="173.18 179.56 173 179.32 243.62 130.48 243.8 130.78 173.18 179.56"/><polygon class="cls-2" points="243.92 130.66 243.56 130.6 256.82 35.92 257.18 35.98 243.92 130.66"/><polygon class="cls-2" points="144.62 44.38 144.44 44.62 243.62 130.72 243.86 130.48 144.62 44.38"/><polygon class="cls-2" points="243.86 130.54 243.56 130.66 280.7 224.86 281.06 224.74 243.86 130.54"/><polygon class="cls-2" points="280.82 224.98 173.06 179.62 173.18 179.26 280.94 224.68 280.82 224.98"/><polygon class="cls-2" points="172.88 179.38 162.56 252.46 162.92 252.46 173.24 179.44 172.88 179.38"/><polygon class="cls-2" points="280.88 224.68 162.68 252.22 162.74 252.58 280.94 225.04 280.88 224.68"/><polygon class="cls-2" points="48.2 208.9 47.96 208.66 118.7 142 118.94 142.24 48.2 208.9"/><polygon class="cls-2" points="119 142.06 118.64 142.18 162.56 252.52 162.86 252.4 119 142.06"/><polygon class="cls-2" points="328.7 148.96 243.68 130.78 243.74 130.42 328.76 148.6 328.7 148.96"/><polygon class="cls-2" points="281 224.92 280.76 224.74 328.58 148.72 328.88 148.9 281 224.92"/><polygon class="cls-2" points="256.16 34.96 255.86 35.2 328.1 147.52 328.4 147.28 256.16 34.96"/><polygon class="cls-2" points="342.8 111.76 328.58 148.72 328.88 148.84 343.1 111.88 342.8 111.76"/><polygon class="cls-2" points="396.5 212.26 328.58 148.9 328.82 148.66 396.74 212.02 396.5 212.26"/><polygon class="cls-2" points="280.88 224.98 280.88 224.62 396.62 211.96 396.68 212.32 280.88 224.98"/><polygon class="cls-2" points="284.06 283.72 280.7 224.86 281.06 224.8 284.36 283.72 284.06 283.72"/><polygon class="cls-2" points="284.24 283.54 284.18 283.9 361.64 298.96 361.7 298.6 284.24 283.54"/><polygon class="cls-2" points="284.3 283.9 284.12 283.6 396.56 211.96 396.74 212.26 284.3 283.9"/><polygon class="cls-2" points="296.42 361.42 284.06 283.78 284.36 283.72 296.78 361.36 296.42 361.42"/><polygon class="cls-2" points="284.06 283.54 192.2 370.18 192.5 370.48 284.3 283.84 284.06 283.54"/><polygon class="cls-2" points="162.74 252.34 162.68 252.64 284.18 283.9 284.24 283.6 162.74 252.34"/><polygon class="cls-2" points="162.5 252.46 147.44 322.36 147.74 322.48 162.86 252.52 162.5 252.46"/><polygon class="cls-2" points="192.2 370.42 147.44 322.54 147.68 322.3 192.44 370.18 192.2 370.42"/><polygon class="cls-2" points="147.38 322.3 137.78 353.02 138.14 353.14 147.68 322.42 147.38 322.3"/><polygon class="cls-2" points="147.5 322.54 93.98 310.48 94.1 310.12 147.62 322.24 147.5 322.54"/><polygon class="cls-2" points="284.18 283.6 147.5 322.18 147.56 322.54 284.24 283.9 284.18 283.6"/><polygon class="cls-2" points="147.44 322.54 89.84 255.28 90.14 255.1 147.68 322.3 147.44 322.54"/><polygon class="cls-2" points="162.74 252.28 89.96 254.98 90.02 255.34 162.74 252.64 162.74 252.28"/><polygon class="cls-2" points="118.58 142.06 89.84 255.16 90.2 255.22 118.94 142.12 118.58 142.06"/><polygon class="cls-2" points="89.84 255.28 47.96 208.9 48.26 208.66 90.14 255.1 89.84 255.28"/><polygon class="cls-2" points="73.28 285.04 72.98 284.92 89.84 255.1 90.14 255.28 73.28 285.04"/><polygon class="cls-2" points="118.7 142.24 75.38 114.94 75.56 114.64 118.94 141.94 118.7 142.24"/><polygon class="cls-2" points="191.78 85.96 191.48 85.78 221.24 29.38 221.54 29.56 191.78 85.96"/><polygon class="cls-2" points="243.86 130.72 243.56 130.48 313.7 57.22 313.94 57.46 243.86 130.72"/><path class="cls-2" d="M175.7,179.08a3.22,3.22,0,0,1-.48,1.68,3.47,3.47,0,0,1-1.38,1.08,2.72,2.72,0,0,1-1.68.18,3.06,3.06,0,0,1-1.56-.84,2.8,2.8,0,0,1-.78-1.5,3,3,0,0,1,1.26-3.06,3.18,3.18,0,0,1,1.62-.48,3,3,0,0,1,2.1.84,2.91,2.91,0,0,1,.9,2.1Z"/><path class="cls-2" d="M121.82,141.94A3.06,3.06,0,0,1,120,144.7a2.73,2.73,0,0,1-1.68.18,3.06,3.06,0,0,1-1.56-.84,3,3,0,0,1-.78-1.5,3.4,3.4,0,0,1,.12-1.74,3.06,3.06,0,0,1,1.14-1.32,3,3,0,0,1,1.62-.48,3.49,3.49,0,0,1,1.14.18,3.87,3.87,0,0,1,1,.66,3.44,3.44,0,0,1,.66,1,3.88,3.88,0,0,1,.24,1.14Z"/><path class="cls-2" d="M165.74,252.1a3,3,0,0,1-.48,1.62,2.71,2.71,0,0,1-1.32,1.14,3.39,3.39,0,0,1-1.74.12,2.61,2.61,0,0,1-1.5-.78,3.14,3.14,0,0,1-.84-1.5A2.87,2.87,0,0,1,160,251a3.06,3.06,0,0,1,2.76-1.86,3.06,3.06,0,0,1,2.1.9,3,3,0,0,1,.84,2.1Z"/><path class="cls-2" d="M93,255.1a3.06,3.06,0,0,1-1.86,2.76,2.72,2.72,0,0,1-1.68.18,3.06,3.06,0,0,1-1.56-.84,3,3,0,0,1-.78-1.5A3.4,3.4,0,0,1,87.2,254a3.06,3.06,0,0,1,1.14-1.32,3,3,0,0,1,3.72.36,3.06,3.06,0,0,1,.9,2.1Z"/><path class="cls-2" d="M147.74,325.06a3,3,0,1,0-3-3,3,3,0,0,0,3,3Z"/><path class="cls-2" d="M287.24,283.36a3,3,0,0,1-.48,1.62,3.06,3.06,0,0,1-1.32,1.14,3.4,3.4,0,0,1-1.74.12,3,3,0,0,1-1.5-.78,3.13,3.13,0,0,1-.84-1.5,2.87,2.87,0,0,1,.18-1.74,2.94,2.94,0,0,1,1.08-1.32,2.81,2.81,0,0,1,1.68-.54,3.18,3.18,0,0,1,2.1.9,3,3,0,0,1,.84,2.1Z"/><path class="cls-2" d="M283.82,224.44a2.81,2.81,0,0,1-.54,1.68A2.94,2.94,0,0,1,282,227.2a2.73,2.73,0,0,1-1.68.18,3.06,3.06,0,0,1-1.56-.84,2.79,2.79,0,0,1-.78-1.5,2.92,2.92,0,0,1,.18-1.74A2.86,2.86,0,0,1,279.2,222a3,3,0,0,1,3.72.36,2.91,2.91,0,0,1,.9,2.1Z"/><path class="cls-2" d="M246.32,130.42a3.23,3.23,0,0,1-.48,1.68,3.1,3.1,0,0,1-1.38,1.08,2.81,2.81,0,0,1-3.18-.66,3.13,3.13,0,0,1-.84-1.5,2.87,2.87,0,0,1,.18-1.74A3.29,3.29,0,0,1,241.7,128a3.23,3.23,0,0,1,1.68-.48,2.87,2.87,0,0,1,2.94,2.94Z"/><path class="cls-2" d="M331.64,148.66a3,3,0,0,1-.48,1.62,2.85,2.85,0,0,1-1.38,1.14,3.17,3.17,0,0,1-1.68.12,2.29,2.29,0,0,1-1.5-.78,3.13,3.13,0,0,1-.84-1.5,2.87,2.87,0,0,1,.18-1.74A2.93,2.93,0,0,1,327,146.2a2.8,2.8,0,0,1,1.68-.54,3.17,3.17,0,0,1,2.1.9,3,3,0,0,1,.84,2.1Z"/><path class="cls-2" d="M194.72,85.18a2.58,2.58,0,0,1-.48,1.62,3.06,3.06,0,0,1-1.32,1.14,3.39,3.39,0,0,1-1.74.12,2.61,2.61,0,0,1-1.5-.78,3.13,3.13,0,0,1-.84-1.5A2.87,2.87,0,0,1,189,84a3.06,3.06,0,0,1,2.76-1.86,3.87,3.87,0,0,1,1.14.24,3.43,3.43,0,0,1,1,.66,3.87,3.87,0,0,1,.66,1,3.49,3.49,0,0,1,.18,1.14Z"/><path class="cls-2" d="M14.06,113.2H81.2a6,6,0,0,1,6.06,6.06V145.9a6,6,0,0,1-6.06,6H14.06a6,6,0,0,1-6.06-6V119.26a6,6,0,0,1,6.06-6.06Z"/><path class="cls-2" d="M136.76,10H205.1a6,6,0,0,1,6.06,6.06V42.64a6,6,0,0,1-6.06,6.06H136.76a6,6,0,0,1-6.06-6.06V16.06A6,6,0,0,1,136.76,10Z"/><g class="cls-3"><path class="cls-2" d="M292.82,24.52A24.21,24.21,0,1,1,268.64,48.7a24.16,24.16,0,0,1,24.18-24.18Z"/><g class="cls-4"><path class="cls-5" d="M302.48,56.08c-.24-3.12.78-13.68-.12-18.54S297.2,30,292.64,30s-8.76,2.58-9.66,7.56.12,15.42-.12,18.54c-.3,3.42-1,4.32-1,4.32h21.54s-.66-.9-1-4.32Z"/><rect class="cls-2" x="287.48" y="62.38" width="10.98" height="10.56"/><path class="cls-6" d="M299,62.74c-6.36,2.64-10.92,0-10.92,0v-6.3H299s1.44,5.64,0,6.3Z"/><path class="cls-7" d="M290.48,59.86,286.7,56.5s-7.08,2.58-10.2,5.16c-1.2,1-1.92,5.64-2.4,11.28h17.7c.12-7.14.12-13.08.12-13.08Z"/><polygon class="cls-6" points="296.3 51.28 289.22 51.28 288.8 56.44 292.94 57.76 296.72 56.44 296.3 51.28"/><path class="cls-8" d="M289.22,51.28l-.3,3.66s5.58-1.2,7.38-3.66Z"/><path class="cls-6" d="M300,39.46c0,1.5.06,2.88.06,3.48.06,2.28-.18,5.64-3.06,7.92a8,8,0,0,1-4.26,1.86,7.9,7.9,0,0,1-4.44-1.86c-2.88-2.28-3.12-5.64-3.06-7.92,0-.6.06-2.22.12-3.84.06-2.4,2.58-4.86,7.38-4.86S300,37.18,300,39.46Z"/><path class="cls-5" d="M290.48,40.78h-.06a4.64,4.64,0,0,0-2.22,0H288c-.06-.06-.12-.12-.12-.18a.11.11,0,0,1,0-.18c0-.06.06-.06.12-.12a4.5,4.5,0,0,1,2.52,0,.13.13,0,0,1,.12.12.22.22,0,0,1,.06.18.13.13,0,0,1-.12.12c0,.06-.06.06-.12.06Z"/><path class="cls-5" d="M297.38,40.78h-.06a4.64,4.64,0,0,0-2.22,0h-.18c-.06-.06-.12-.12-.12-.18v-.18l.12-.12a4.5,4.5,0,0,1,2.52,0c.06,0,.12.06.18.12v.18c0,.06,0,.12-.06.12a.22.22,0,0,1-.18.06Z"/><path class="cls-6" d="M302.06,42.7a1.66,1.66,0,0,0-2.28-1l-.36,5.82c1.56-1,3.18-2.82,2.64-4.86Z"/><path class="cls-6" d="M285.56,41.74a1.66,1.66,0,0,0-2.28,1c-.54,2,1.08,3.84,2.64,4.86Z"/><path class="cls-7" d="M309.32,61.66c-3.12-2.58-10.2-5.16-10.2-5.16l-3.78,3.36H293.9s0,5.94.12,13.08h17.7c-.48-5.64-1.26-10.32-2.4-11.28Z"/><rect class="cls-9" x="293.96" y="68.62" width="13.68" height="0.3"/><polygon class="cls-9" points="301.04 71.92 304.64 70.96 304.58 70.66 301.04 71.56 297.56 70.66 297.44 70.96 301.04 71.92"/><path class="cls-2" d="M301.16,71.14a.58.58,0,0,0,.42-.66.48.48,0,0,0-.66-.36.5.5,0,0,0-.36.6.52.52,0,0,0,.6.42Z"/><path class="cls-9" d="M289,54.22a18,18,0,0,0-3.06,2.28c-.78.9,1,6.24,1.44,6.36.72.18,3.12-3,3.12-3s-1.68-1.92-1.68-3.42Z"/><path class="cls-9" d="M296.54,54.22a18,18,0,0,1,3.06,2.28c.78.9-1.08,6.24-1.5,6.36-.72.18-3.06-3-3.06-3s1.68-1.92,1.68-3.42Z"/><path class="cls-2" d="M290.78,63.1a.57.57,0,0,0-.36-.66.55.55,0,0,0-.66.42.52.52,0,0,0,.42.6.53.53,0,0,0,.6-.36Z"/><path class="cls-2" d="M290.18,72.22a.54.54,0,0,0,.54-.54.54.54,0,0,0-1.08,0,.54.54,0,0,0,.54.54Z"/><rect class="cls-9" x="278.18" y="68.62" width="13.68" height="0.3"/><polygon class="cls-9" points="284.78 71.92 281.12 70.96 281.24 70.66 284.78 71.56 288.26 70.66 288.38 70.96 284.78 71.92"/><path class="cls-2" d="M285.14,71a.55.55,0,0,0,0-.72.63.63,0,0,0-.78,0,.55.55,0,0,0,0,.72.51.51,0,0,0,.78,0Z"/><path class="cls-5" d="M285.8,46.18s.18-10.08,7-11.94c0,0-1.8-1.86-5.28-.54-5.58,2.16-1.68,12.48-1.68,12.48Z"/><path class="cls-5" d="M299.66,46.18s-.12-10.08-6.9-11.94c0,0,1.8-1.86,5.28-.54,5.58,2.16,1.62,12.48,1.62,12.48Z"/><rect class="cls-10" x="292.58" y="30.7" width="0.36" height="3.54"/><path class="cls-10" d="M301,41.5l-.36-.06a8.58,8.58,0,0,0-.6-6l.3-.18A9.3,9.3,0,0,1,301,41.5Z"/><path class="cls-10" d="M284.48,41.14a11.85,11.85,0,0,1,.36-4.38l.3.06a11.3,11.3,0,0,0-.3,4.26Z"/><path class="cls-10" d="M300,55.24a23.84,23.84,0,0,1-.3-6.54l.3.06a25.5,25.5,0,0,0,.3,6.42Z"/><path class="cls-10" d="M297.44,35.5a4.33,4.33,0,0,0-1.26-1.5,5.08,5.08,0,0,0-1.8-.9l.06-.3a5.15,5.15,0,0,1,1.92.9,4.62,4.62,0,0,1,1.38,1.68Z"/><path class="cls-10" d="M284,57.16l-.3-.12c1-2.16,2-4.56,1.92-7.08H286c.12,2.58-1,5-2,7.2Z"/><path class="cls-11" d="M285.74,47.92c0,.12,0,.18-.06.24s-.06.12-.12.18-.12.12-.18.12a.22.22,0,0,1-.18.06c-.12,0-.18,0-.24-.06s-.12-.06-.18-.12-.12-.12-.12-.18-.06-.12-.06-.24c0-.3.24-1.32.6-1.32s.54,1,.54,1.32Z"/><path class="cls-11" d="M300.74,47.92c0,.12,0,.18-.06.24s-.06.12-.12.18-.12.12-.18.12-.12.06-.24.06a.22.22,0,0,1-.18-.06c-.12,0-.18-.06-.18-.12s-.12-.12-.12-.18-.06-.12-.06-.24c0-.3.24-1.32.54-1.32s.6,1,.6,1.32Z"/><polygon class="cls-9" points="307.22 72.34 308.12 66.28 307.76 66.22 306.86 72.34 306.86 72.94 307.22 72.94 307.22 72.34"/><rect class="cls-9" x="297.32" y="68.8" width="0.36" height="4.14"/><rect class="cls-9" x="304.46" y="68.8" width="0.3" height="4.14"/><polygon class="cls-9" points="278.06 66.22 277.7 66.28 278.6 72.34 278.6 72.94 278.96 72.94 278.96 72.34 278.06 66.22"/><rect class="cls-9" x="281" y="68.8" width="0.36" height="4.14"/><rect class="cls-9" x="288.14" y="68.8" width="0.36" height="4.14"/></g></g><g class="cls-12"><path class="cls-2" d="M131.24,111.82A24.21,24.21,0,1,1,107,136a24.15,24.15,0,0,1,24.24-24.18Z"/><g class="cls-13"><path class="cls-14" d="M148.4,149a96.87,96.87,0,0,0-11-4.38v.6l-2.16-.84H127.1l-2.16,1-.06-.72A93.05,93.05,0,0,0,114,149c-2.28,1.2-3.36,6.12-3.9,11.22h42.18c-.48-5.1-1.62-10-3.84-11.22Z"/><polygon class="cls-15" points="134.9 138.28 127.52 138.28 127.1 144.4 135.26 144.4 134.9 138.28"/><path class="cls-16" d="M127.52,138.28l-.3,4.2s7.26-.54,7.68-4.2Z"/><path class="cls-17" d="M126.5,144.4h9.66s-2.76,14.58-5.1,15.84a33.08,33.08,0,0,1-4.56-15.84Z"/><path class="cls-18" d="M140.66,148.6,137.72,147l2.1-.66s-.6-.84-1.44-1.92-3.24-1.92-3.24-1.92l.12,1.92c0,3.66-2.46,11.28-4.08,15.78h2.22a73.34,73.34,0,0,0,7.26-11.58Z"/><path class="cls-18" d="M127.1,144.4l.12-1.92A10,10,0,0,0,124,144.4l-1.38,1.92,2.1.66-3,1.62A81.22,81.22,0,0,0,129,160.24h2.28c-1.62-4.56-4.14-12.18-4.14-15.84Z"/><path class="cls-17" d="M127.1,144.4v-2.7a20.77,20.77,0,0,0,8.16,0v2.7l-4.14,1.68Z"/><path class="cls-19" d="M140.3,131.62c3.24-9.36-2.88-11.34-2.88-11.34s-.72-2.64-4.68-2.94c-5.52-.54-12.18,2.4-9.6,12.78Z"/><path class="cls-15" d="M135.92,122.38c4.62.42,3.18,7.86,3.06,9.3-.12,2-1.38,5.94-4,7.62a6.75,6.75,0,0,1-4.26,1.32,7.14,7.14,0,0,1-4.14-2c-2.22-2.1-2.76-6.3-2.52-8.22.18-1.44.06-9,4.68-8.58Z"/><path class="cls-19" d="M129.5,128.44a.06.06,0,0,1-.06-.06,4.14,4.14,0,0,0-2.1-.18h-.18c-.06-.06-.06-.12-.12-.18a.22.22,0,0,1,.06-.18.21.21,0,0,1,.12-.06,4.13,4.13,0,0,1,2.4.18c.06,0,.06.06.12.12v.12c0,.06-.06.12-.06.18s-.12.06-.18.06Z"/><path class="cls-19" d="M136.28,129c-.06,0-.06,0-.12-.06a4.14,4.14,0,0,0-2.1-.18h-.12c-.06-.06-.12-.12-.12-.18v-.18c.06,0,.12-.06.18-.06a3.89,3.89,0,0,1,2.34.18.13.13,0,0,1,.12.12.19.19,0,0,1,.06.12c-.06.06-.06.12-.12.18a.21.21,0,0,1-.12.06Z"/><path class="cls-15" d="M137.6,136.24c1.68-.9,3.78-2.52,3.36-4.62a1.53,1.53,0,0,0-2.1-1.14Z"/><path class="cls-15" d="M124.64,135.1c-1.5-1.2-3.24-3.18-2.52-5.16a1.66,1.66,0,0,1,2.34-.78Z"/><path class="cls-19" d="M123.2,128.2l1.32,2.76a18.91,18.91,0,0,1,.72-6.9l-1.32,1.62Z"/><path class="cls-19" d="M140.24,129.58l-1.8,2.52a19.16,19.16,0,0,0,.48-7l1,1.86Z"/><path class="cls-19" d="M136.94,121.48a6.78,6.78,0,0,1-4.5,1.56c-3.06,0-6.72-.6-7.74.42s1.8-4.44,5.28-3.9a41.38,41.38,0,0,1,7,1.92Z"/><path class="cls-19" d="M140.48,127.18s-.72-3.9-1.92-4.92a2.18,2.18,0,0,0-2.64.12,4.19,4.19,0,0,1,2,.9L138,126l.9,1.62a26.32,26.32,0,0,1-.42,4.5Z"/><path class="cls-19" d="M123.32,125.62s1.38-3.72,2.7-4.5a2.19,2.19,0,0,1,2.58.6,4.37,4.37,0,0,0-2.1.54L126,124.9l-1.14,1.44a24.28,24.28,0,0,0-.42,4.5Z"/><path class="cls-19" d="M135.62,122.38s1.8,2.82,4.44,3c0,0-.66-2.64-2.28-3a3.18,3.18,0,0,0-2.16,0Z"/><path class="cls-20" d="M136.16,122.2,136,122a3.39,3.39,0,0,0,1.32-1.44l.24.12a3.18,3.18,0,0,1-1.38,1.56Z"/><path class="cls-20" d="M125.54,123a5.85,5.85,0,0,1-2-.36l.12-.3a5.47,5.47,0,0,0,2.58.3l.06.3a2.92,2.92,0,0,1-.72.06Z"/><path class="cls-20" d="M133.64,122a3.06,3.06,0,0,0-1-2.1,3.9,3.9,0,0,0-2.46-.9,2,2,0,0,1-.6-.06l.06-.3c.18,0,.36.06.54.06a4.32,4.32,0,0,1,2.64,1A3.86,3.86,0,0,1,134,122Z"/><path class="cls-20" d="M132.56,122.32a6.3,6.3,0,0,0-6.72-1.32l-.12-.3a6.68,6.68,0,0,1,7,1.38Z"/><path class="cls-20" d="M140.12,125.8a3.8,3.8,0,0,1-1.92-.6l.18-.24a3.22,3.22,0,0,0,2.1.48l.06.3c-.12,0-.3.06-.42.06Z"/><path class="cls-20" d="M139.1,124.18a3.87,3.87,0,0,1-2.28-.78l.18-.24a3.15,3.15,0,0,0,2.88.6l.12.3a4.63,4.63,0,0,1-.9.12Z"/><path class="cls-19" d="M129.92,124.48h-.42l.06-.3a14.24,14.24,0,0,0,3.9-.54,3.8,3.8,0,0,0,2-1.44l.24.18a4,4,0,0,1-2.16,1.56,15.23,15.23,0,0,1-3.66.54Z"/><path class="cls-18" d="M115.52,154.6a49.24,49.24,0,0,1,.54,5.64h.36a47.15,47.15,0,0,0-.6-5.7Z"/><path class="cls-18" d="M146.36,154.6l-.3-.06c-.18,1-.36,3.18-.54,5.7h.3c.18-2.52.36-4.68.54-5.64Z"/></g></g><g class="cls-21"><path class="cls-2" d="M281.18,194.08a24.21,24.21,0,1,1-24.24,24.24,24.16,24.16,0,0,1,24.24-24.24Z"/><g class="cls-22"><path class="cls-23" d="M275.84,233.14l1-4.86s-7.14,1.2-10.38,3.3a9.05,9.05,0,0,0-3.06,3.54c-.3.9-1.5,4-2.82,7.5h17.76Z"/><path class="cls-24" d="M288.8,215.8c1.68-7.86-2.82-11-7.68-11s-9.36,3.18-7.68,11Z"/><path class="cls-25" d="M284.42,222.94h-6.48l-.3,5.34-.78,1.74s.9,2.46,4.32,2.46A4.74,4.74,0,0,0,285.5,230l-.78-1.74Z"/><path class="cls-26" d="M277.94,222.94l-.24,3.66s6.36-.48,6.72-3.66Z"/><path class="cls-25" d="M284.24,208.72c4.08,0,3.36,6.54,3.42,7.86.06,1.68-.72,5.28-2.88,7a6.07,6.07,0,0,1-3.6,1.44,6,6,0,0,1-3.78-1.44c-2.1-1.68-2.88-5.28-2.82-7,0-1.32-.66-7.86,3.36-7.86Z"/><path class="cls-24" d="M277.16,214.42H277a.19.19,0,0,1-.06-.12c-.06-.06,0-.12,0-.18a.21.21,0,0,1,.12-.06,3.15,3.15,0,0,1,2.1,0,.21.21,0,0,0,.12.06v.18a.13.13,0,0,1-.12.12c-.06,0-.06.06-.12,0a3.27,3.27,0,0,0-1.86,0Z"/><path class="cls-24" d="M285.08,214.42H285a3.27,3.27,0,0,0-1.86,0H283a.21.21,0,0,1-.06-.12.08.08,0,0,1,0-.12.13.13,0,0,1,.12-.12,3.15,3.15,0,0,1,2.1,0l.06.06a.22.22,0,0,1,.06.18.21.21,0,0,0-.06.12Z"/><path class="cls-25" d="M286.82,220.66c1.38-.9,3.06-2.52,2.58-4.32a1.46,1.46,0,0,0-2-.84Z"/><path class="cls-25" d="M275.42,220.66c-1.38-.9-3.12-2.52-2.58-4.32a1.4,1.4,0,0,1,1.92-.84Z"/><path class="cls-24" d="M277.52,208.12a1.85,1.85,0,0,1-.6-.06.88.88,0,0,1-.54-.36,1.21,1.21,0,0,1-.24-.48,2,2,0,0,1,.06-.6.61.61,0,0,1-.3-.36.72.72,0,0,1-.12-.48.65.65,0,0,1,.12-.48.7.7,0,0,1,.3-.42.57.57,0,0,1-.12-.42.65.65,0,0,1,.12-.48,1.08,1.08,0,0,1,.3-.42,1.27,1.27,0,0,1,.42-.18c.06-.18.06-.36.18-.48a.54.54,0,0,1,.36-.36.65.65,0,0,1,.42-.18,1.17,1.17,0,0,1,.48.06c.06-.18.18-.24.3-.36l.42-.18a1.2,1.2,0,0,1,.78.12,1,1,0,0,1,.66-.3.74.74,0,0,1,.6.12,1.42,1.42,0,0,1,.54-.36.89.89,0,0,1,.42-.06.45.45,0,0,1,.12-.24.72.72,0,0,1,.3-.3,2.87,2.87,0,0,1,.42-.18h.42l.36.18a1.19,1.19,0,0,1,.48.72.91.91,0,0,1-.18.78.81.81,0,0,1-.42.36.89.89,0,0,1-.54.12,1.57,1.57,0,0,1-.72.72,1,1,0,0,1-.84-.12,1.11,1.11,0,0,1-.72.42,1.21,1.21,0,0,1-.66-.18,1.25,1.25,0,0,1-.6.36A1.66,1.66,0,0,1,279,204a.54.54,0,0,1-.36.36l-.36.18a1.53,1.53,0,0,1-.12.42,1.58,1.58,0,0,1-.3.36,1.13,1.13,0,0,1,.12.48.76.76,0,0,1-.06.36l.24.24a.06.06,0,0,0,.06.06h.48l.36.18a.72.72,0,0,1,.3.3.55.55,0,0,1,.18.42.51.51,0,0,1,0,.42.52.52,0,0,1-.18.36.73.73,0,0,1-.3.3l-.36.18h-.24a1.75,1.75,0,0,1-.54-.12c-.12-.12-.3-.24-.36-.36Z"/><path class="cls-24" d="M280.58,207.76a1,1,0,0,1,.18-.84.93.93,0,0,1,.66-.48.71.71,0,0,1,.6.06,1.62,1.62,0,0,1,.48-.42,1,1,0,0,1,.6-.06,1.44,1.44,0,0,1,.36-.48.65.65,0,0,1,.42-.18c.06-.12.06-.3.12-.42h0c0-.06,0-.06-.06-.06a1.79,1.79,0,0,1-.24-.48.77.77,0,0,1-.6-.24,1,1,0,0,1-.42-.54.83.83,0,0,1-.66-.12,1.07,1.07,0,0,1-.42-.48.82.82,0,0,1-.66-.06.93.93,0,0,1-.48-.36,1.23,1.23,0,0,1-.66,0,.8.8,0,0,1-.6-.36,1.05,1.05,0,0,1-1.44-.48,1,1,0,0,1-.06-.84,2,2,0,0,1,.18-.36,1.59,1.59,0,0,1,.36-.3,3.94,3.94,0,0,1,.42-.12,1.17,1.17,0,0,1,.42.06.93.93,0,0,1,.48.36,1.48,1.48,0,0,1,.72-.06,1.55,1.55,0,0,1,.66.42,1.17,1.17,0,0,1,.78.06.9.9,0,0,1,.6.54.92.92,0,0,1,.78.12.82.82,0,0,1,.48.6.79.79,0,0,1,.72.18,1,1,0,0,1,.48.6,1.11,1.11,0,0,1,.42.12.61.61,0,0,1,.36.3,1,1,0,0,1,.3.54,1,1,0,0,1-.12.6.83.83,0,0,1,.3.6.87.87,0,0,1-.06.66h0a1.81,1.81,0,0,1-.3.42,1.14,1.14,0,0,1-.48.18,1.13,1.13,0,0,1-.12.48.61.61,0,0,1-.3.36.65.65,0,0,1-.42.18.51.51,0,0,1-.42,0,1.07,1.07,0,0,1-.54.6,1.38,1.38,0,0,1-.84.06,1.14,1.14,0,0,1-.66.42.45.45,0,0,1-.24.06,1.7,1.7,0,0,1-.72-.24,1.24,1.24,0,0,1-.36-.6Z"/><path class="cls-24" d="M281.24,206.86c1.92,0,3.48-.9,3.48-2s-1.56-2-3.48-2-3.54.9-3.54,2,1.62,2,3.54,2Z"/><path class="cls-27" d="M280.46,207.94c-.06,0-.18-.06-.24-.06a5.77,5.77,0,0,1-1.08-.42,1.23,1.23,0,0,1-.9.18,1.44,1.44,0,0,1-.78-.42,1.14,1.14,0,0,1-.48.12,1.49,1.49,0,0,1-.48-.06,1.58,1.58,0,0,1-.36-.3.8.8,0,0,1-.18-.48l.24-.06.18.36a.6.6,0,0,0,.3.24.89.89,0,0,0,.42.06,1.31,1.31,0,0,0,.3-.18h.18a.06.06,0,0,1,.06.06,1.31,1.31,0,0,0,.3.24.51.51,0,0,0,.36.12.38.38,0,0,0,.36,0,.86.86,0,0,0,.36-.12.06.06,0,0,1,.06-.06h.12a3.51,3.51,0,0,0,1.08.48h.24c.06-.06.12-.06.12-.12s.18-.18.3-.18a.76.76,0,0,1,.36.06.06.06,0,0,0,.06.06.53.53,0,0,0,.48-.12c.18-.12.24-.36.36-.54l.24.18a1.87,1.87,0,0,1-.42.54.78.78,0,0,1-.78.18.19.19,0,0,1-.12-.06.21.21,0,0,0-.12-.06c-.06,0-.06.06-.12.12a.84.84,0,0,1-.24.18c-.06,0-.12.06-.18.06Z"/><path class="cls-27" d="M283.22,207.58a1.13,1.13,0,0,1-.48-.12,1.71,1.71,0,0,1-.66-.66,2.19,2.19,0,0,1-1.08,0,1,1,0,0,1-.6-.84,1.54,1.54,0,0,1-.9-.06c-.06,0-.12-.06-.18-.06-.24-.06-.54-.18-.54-.54h.3c0,.18.06.18.36.3a.19.19,0,0,1,.12.06,5.16,5.16,0,0,0,1,.06c0-.06.06,0,.06,0h.06v.06a.06.06,0,0,1,.06.06.61.61,0,0,0,.42.66,1.31,1.31,0,0,0,1,0h.06c.06,0,.06,0,.12.06a1.63,1.63,0,0,0,.6.66.64.64,0,0,0,.72-.06l.18-.18c.12-.12.18-.24.36-.3a.66.66,0,0,1,.48,0h.18c.3,0,.48-.3.6-.78l.24.06c-.12.6-.42,1-.78,1a.45.45,0,0,1-.3-.06h-.3a.47.47,0,0,0-.24.24c-.06.06-.12.18-.24.24a.84.84,0,0,1-.54.18Z"/><path class="cls-27" d="M277.52,205.9l-.3-.06c.12-.48.66-.72,1.56-.66h.12c.06-.06.06-.12.12-.18v-.06a1.3,1.3,0,0,1,1.26-.72,1.64,1.64,0,0,1,.54-.72,1.76,1.76,0,0,1,1-.24,2.14,2.14,0,0,1,2-1l-.06.3a1.49,1.49,0,0,0-1,.18,1.82,1.82,0,0,0-.72.78l-.06.06h-.12a.51.51,0,0,0-.42,0,.52.52,0,0,0-.36.18.72.72,0,0,0-.3.3c-.12.12-.12.24-.18.36v.06l-.06.06h-.12a1,1,0,0,0-.6.06,1.23,1.23,0,0,0-.48.48v.06c-.06.06-.12.24-.24.3s-.18.06-.3,0c-.42,0-1.14,0-1.2.48Z"/><path class="cls-27" d="M278.66,202.18l-.24-.12a.46.46,0,0,1,.12-.24c.12-.06.18-.12.24-.12a1.85,1.85,0,0,1,.48-.12,1,1,0,0,1,.6.06,1.75,1.75,0,0,1,1-.84l.12.24a1.25,1.25,0,0,0-.6.36,2.1,2.1,0,0,0-.36.54L280,202h-.12a.06.06,0,0,1-.06-.06c-.06-.12-.3-.12-.48-.06a1,1,0,0,0-.42.06.47.47,0,0,0-.24.24Z"/><path class="cls-24" d="M285.44,209.38a2,2,0,0,0,0,1,.83.83,0,0,0,.66.66.22.22,0,0,1,.18.06c.12,0,.18.12.18.24a2.48,2.48,0,0,0,.42.66.78.78,0,0,0,.78.18.9.9,0,0,0,.24-1,3.56,3.56,0,0,0-.78-1.38c-.48-.6-1.32-1.86-2.28-1.74-1.14.18-.18,1.26.6,1.32Z"/><path class="cls-2" d="M287.72,215.26l-.06-.3-1.26.42c-.36-.6-1.26-.72-2.16-.72s-1.92.12-2.22,1a3.48,3.48,0,0,0-1.92,0c-.24-.84-1.2-1-2.22-1-.84,0-1.74.12-2.1.72l-1.2-.36-.12.24,1.2.36c0,.18-.06.3-.06.48a2.21,2.21,0,0,0,2.28,2.1,2.26,2.26,0,0,0,2.34-2.1c0-.12-.06-.18-.06-.24a4.54,4.54,0,0,1,1.8,0v.24a2.29,2.29,0,0,0,4.56,0v-.42Zm-9.84,2.64a1.93,1.93,0,0,1-2-1.8c0-.84.54-1.2,2-1.2s2,.36,2,1.2a2,2,0,0,1-2,1.8Zm6.36,0a1.93,1.93,0,0,1-2-1.8c0-.84.54-1.2,2-1.2s2,.36,2,1.2a2,2,0,0,1-2,1.8Z"/><path class="cls-23" d="M298.88,235.12a8.44,8.44,0,0,0-3-3.54c-3.24-2.1-10.38-3.3-10.38-3.3l1,4.86L284,242.62h17.7c-1.32-3.54-2.46-6.54-2.82-7.5Z"/><path class="cls-28" d="M277.7,226.6a6.71,6.71,0,0,1-2.52,1.68c-1.74.72-2.1,3.72-2.1,3.72h1.44l-2.34,2.1a74.42,74.42,0,0,0,4.14,8.52h3.18c-.54-4.2-1.92-8-1.86-14.34Z"/><path class="cls-28" d="M290.18,234.1l-2.34-2.1h1.44s-.36-3-2.1-3.72a6.71,6.71,0,0,1-2.52-1.68l.06,1.68c.06,6.36-1.32,10.14-1.92,14.34H286a66,66,0,0,0,4.2-8.52Z"/><path class="cls-28" d="M266.36,239.08c.06,1,.18,2.28.24,3.54h.3c-.12-1.26-.18-2.52-.3-3.54Z"/><path class="cls-28" d="M296,239.08h-.24c-.12,1-.24,2.28-.3,3.54h.24c.12-1.26.18-2.46.3-3.54Z"/></g></g><path class="cls-2" d="M354.38,64.78H439a6,6,0,0,1,6.06,6.06v35.28a6,6,0,0,1-6.06,6.06H354.38a6,6,0,0,1-6.06-6.06V70.84a6,6,0,0,1,6.06-6.06Z"/><g class="cls-29"><path class="cls-2" d="M385.76,127.84a24.21,24.21,0,1,1-24.18,24.24,24.12,24.12,0,0,1,24.18-24.24Z"/><g class="cls-30"><path class="cls-24" d="M377.54,146.8c-.36-.36-.42-6.24-.48-7.08a3.51,3.51,0,0,1-.12-.78c0-.66.72-1.14,1-1.8.18-.42.12-1,.48-1.38a2.84,2.84,0,0,1,.54-.36c.42-.36.42-1.08.9-1.44a6,6,0,0,1,1.2-.24c.6-.3.9-1.08,1.56-1.26.48-.18,1,.12,1.56.06s1.08-.54,1.62-.42c.3.12.48.36.78.42.72.3,1.68-.36,2.28.12.12.12.18.24.3.36.3.3.84.24,1.32.24a1.3,1.3,0,0,1,1.2.48,2.28,2.28,0,0,0,.18.6c.3.48,1.08.24,1.56.54s.42,1.08.72,1.62.84.84,1,1.44a4.88,4.88,0,0,1-.06,1.32c0,1.5-.12,2.94-.12,4.38,0,.6.24,2.94-.3,3.24Z"/><rect class="cls-31" x="379.1" y="163.6" width="16.14" height="12.66"/><path class="cls-25" d="M389.84,153.82H382.4L382,160l-2.64,2.94s1.74,3.12,6.72,3.12a12.22,12.22,0,0,0,7.68-3.12L390.2,160Z"/><path class="cls-26" d="M382.4,153.82l-.24,4.26s7.26-.6,7.68-4.26Z"/><path class="cls-25" d="M389.66,138.16c4.62,0,3.84,6.9,3.9,8.4.06,1.92-.84,6.06-3.3,8a7.12,7.12,0,0,1-4.14,1.68,6.88,6.88,0,0,1-4.32-1.68c-2.46-1.92-3.36-6.06-3.3-8,.06-1.5-.72-8.4,3.9-8.4Z"/><path class="cls-24" d="M383.78,144.1h-.12a4.15,4.15,0,0,0-2.1,0h-.18c-.06-.06-.06-.12-.12-.18v-.12c.06-.06.12-.12.18-.12a4.65,4.65,0,0,1,2.4-.06l.12.12c0,.06.06.12,0,.18s0,.12-.06.12a.19.19,0,0,1-.12.06Z"/><path class="cls-24" d="M388.34,144.1a.22.22,0,0,1-.18-.06c-.06,0-.06-.06-.06-.12v-.18c.06-.06.06-.06.12-.06a4.65,4.65,0,0,1,2.4-.06c.06.06.12.06.12.12a.22.22,0,0,1,.06.18c-.06.06-.06.12-.12.18h-.18a4.15,4.15,0,0,0-2.1,0Z"/><path class="cls-25" d="M392.6,151.24c1.56-1,3.54-2.88,2.94-5a1.62,1.62,0,0,0-2.22-1Z"/><path class="cls-25" d="M379.46,151.24c-1.56-1-3.54-2.88-2.94-5a1.62,1.62,0,0,1,2.22-1Z"/><path class="cls-24" d="M377.42,144.46l1.56,2.7a18.73,18.73,0,0,1,.12-7L378,141.88Z"/><path class="cls-24" d="M394.64,144.28l-1.56,2.7a19,19,0,0,0-.18-7l1.2,1.74Z"/><path class="cls-32" d="M382.64,173.44l-1.8-12.36-1.68,1,.3-1.8a63.39,63.39,0,0,0-11,4.26c-2.22,1.26-3.6,6.18-4.44,11.76H382.7c0-1.14-.06-2.1-.06-2.82Z"/><path class="cls-33" d="M382,160l.12-1.92s-1.8.18-4.14,3a7.88,7.88,0,0,0-1.86,5.64l3.3.66-1.56,1.5s3.9,2.34,4.74,5.22c0,0-.36-8.64-.6-14.1Z"/><path class="cls-32" d="M405.26,166.42a11.56,11.56,0,0,0-4.2-3.06v-.06l-.18-.06a38.68,38.68,0,0,0-6.72-2.28l-2.46-.6.42.9-.72-.18-1.8,12.36c-.06.72-.06,1.68-.06,2.82h17.4c-.36-5-.9-8.76-1.68-9.84Z"/><path class="cls-33" d="M390.2,160l-.12-2.1s1.8.3,4.08,3.18a7.78,7.78,0,0,1,1.92,5.64l-3.3.66,1.56,1.5s-3.9,2.28-4.74,5.22c0,0,.36-8.64.6-14.1Z"/><polygon class="cls-33" points="402.62 170.8 402.32 170.8 401.72 176.26 402.02 176.26 402.62 170.8"/><path class="cls-33" d="M371.48,168.88l-.3.18c.78,1.74.6,4.38.48,6.66a1.66,1.66,0,0,0-.06.54h.3c0-.18.06-.3.06-.48.12-2.4.3-5-.48-6.9Z"/><rect class="cls-33" x="371.84" y="175" width="10.68" height="0.3"/><rect class="cls-33" x="389.54" y="175" width="12.42" height="0.3"/><path class="cls-24" d="M378.74,145.3l.72-1.8v-2.88a3.12,3.12,0,0,1,2.94-2.46l-1.8-1.62L378,140Z"/><path class="cls-24" d="M393.26,145.3l-.72-1.8v-2.88a3.12,3.12,0,0,0-2.94-2.46l1.86-1.62L394.1,140Z"/><path class="cls-24" d="M393.38,145.3s-1.26,6.66-2.46,7.68a7.44,7.44,0,0,1-9.84,0c-1.26-1-2.52-7.68-2.52-7.68s-.12,6.06,2.22,9.06a6.65,6.65,0,0,0,5.22,2.28c1.38,0,3.9-.48,5.22-2.28,2.28-3,2.16-9.06,2.16-9.06Z"/><path class="cls-24" d="M389.3,150.64a9.62,9.62,0,0,0-3.24-.48,9.93,9.93,0,0,0-3.3.48c-.78.54-.66,3.54-.66,3.54a10.78,10.78,0,0,1,1.08-2.82c.48-.42,2-.42,2.88-.42s2.34,0,2.82.42a10.06,10.06,0,0,1,1.08,2.82s.12-3-.66-3.54Z"/><path class="cls-24" d="M384.8,152.74a3.39,3.39,0,0,0,2.46,0s-.42,1.5-1.32,1.44-1.14-1.44-1.14-1.44Z"/></g></g><polygon points="161.04 17.89 160.75 19.06 161.58 19.06 161.58 24.73 162.8 24.73 162.8 17.89 161.04 17.89"/><path d="M137.82,24.73V17.36h1.46v6.06h2.27V17.36H143v6.06h2.28V17.36h1.46v7.37Z"/><path d="M147.82,22.34a2.36,2.36,0,0,1,2.3-2.5,2,2,0,0,1,1.53.65h0V20h1.41v4.78h-1.41v-.56h0a2,2,0,0,1-1.52.69A2.37,2.37,0,0,1,147.82,22.34Zm3.9,0a1.24,1.24,0,1,0-2.47,0,1.21,1.21,0,0,0,1.22,1.33A1.24,1.24,0,0,0,151.72,22.35Z"/><path d="M154.33,24.73V19.94h3.16v1.19h-1.75v3.6Z"/><path class="cls-34" d="M137.84,29h3.29v4.56h-.6v-4h-2.09v4h-.6Z"/><path class="cls-34" d="M144.77,33.12a1.73,1.73,0,0,1-2.42,0,1.76,1.76,0,0,1,0-2.44,1.73,1.73,0,0,1,2.42,0,1.74,1.74,0,0,1,0,2.44Zm-1.21-.06a1.1,1.1,0,0,0,.82-.33,1.2,1.2,0,0,0,0-1.66,1.16,1.16,0,0,0-1.63,0,1.2,1.2,0,0,0,0,1.66A1.1,1.1,0,0,0,143.56,33.06Z"/><path class="cls-34" d="M148.59,30.27V33H149v1.41h-.56v-.87h-2.43v.87h-.56V33h.4a2,2,0,0,0,.31-1.21V30.27ZM146.53,33H148V30.8h-1.28v1A2.86,2.86,0,0,1,146.53,33Z"/><path class="cls-34" d="M152.63,32.16h-2.71a1.09,1.09,0,0,0,.4.67,1.22,1.22,0,0,0,.78.24,1,1,0,0,0,.93-.48l.48.27a1.59,1.59,0,0,1-1.42.74,1.65,1.65,0,0,1-1.74-1.71,1.68,1.68,0,0,1,.47-1.23,1.62,1.62,0,0,1,1.22-.49,1.47,1.47,0,0,1,1.16.51,1.73,1.73,0,0,1,.45,1.21A1.71,1.71,0,0,1,152.63,32.16ZM151,30.72a1.12,1.12,0,0,0-.75.25,1.1,1.1,0,0,0-.37.69h2.16a1.12,1.12,0,0,0-.36-.7A1,1,0,0,0,151,30.72Z"/><path class="cls-34" d="M153.46,30.27h2.4v3.26h-.56V30.82H154v1.33a1.6,1.6,0,0,1-.31,1.11,1,1,0,0,1-.91.27V33a.51.51,0,0,0,.5-.15,1.15,1.15,0,0,0,.16-.71Z"/><path class="cls-34" d="M157.28,32.56l1.79-2.29h.45v3.26H159V31.24l-1.79,2.29h-.45V30.27h.56Z"/><path class="cls-34" d="M161.9,33.62a1.64,1.64,0,0,1-1.22-.49,1.68,1.68,0,0,1-.49-1.23,1.66,1.66,0,0,1,.49-1.22,1.74,1.74,0,0,1,2.08-.26,1.45,1.45,0,0,1,.57.62l-.47.27a1,1,0,0,0-.38-.42,1.09,1.09,0,0,0-.58-.16,1.1,1.1,0,0,0-.82.33,1.21,1.21,0,0,0,0,1.65,1.1,1.1,0,0,0,.82.33,1.12,1.12,0,0,0,.58-.15,1,1,0,0,0,.39-.41l.48.28a1.59,1.59,0,0,1-.6.62A1.66,1.66,0,0,1,161.9,33.62Z"/><path class="cls-34" d="M164.49,31.45h.8a1.13,1.13,0,0,1,.8.29,1,1,0,0,1,.32.75,1,1,0,0,1-.32.76,1.17,1.17,0,0,1-.8.29h-1.37V30.27h.56Zm0,1.56h.8a.59.59,0,0,0,.41-.14.47.47,0,0,0,.16-.37.48.48,0,0,0-.17-.37.59.59,0,0,0-.4-.15h-.8Z"/><path class="cls-34" d="M170.17,33.62a1.64,1.64,0,0,1-1.22-.49,1.68,1.68,0,0,1-.49-1.23,1.66,1.66,0,0,1,.49-1.22,1.74,1.74,0,0,1,2.08-.26,1.45,1.45,0,0,1,.57.62l-.47.27a1,1,0,0,0-.38-.42,1.09,1.09,0,0,0-.58-.16,1.1,1.1,0,0,0-.82.33,1.21,1.21,0,0,0,0,1.65,1.1,1.1,0,0,0,.82.33,1.12,1.12,0,0,0,.58-.15,1,1,0,0,0,.39-.41l.48.28a1.59,1.59,0,0,1-.6.62A1.66,1.66,0,0,1,170.17,33.62Z"/><path class="cls-34" d="M174.34,31.86a.76.76,0,0,1,.5.76.87.87,0,0,1-.27.67,1.09,1.09,0,0,1-.76.25h-1.62V30.27h1.49a1.08,1.08,0,0,1,.75.24.83.83,0,0,1,.27.65A.78.78,0,0,1,174.34,31.86Zm-.69-1.08h-.91v.85h.91q.49,0,.49-.44T173.65,30.78ZM172.74,33h1a.55.55,0,0,0,.38-.12.42.42,0,0,0,.13-.33.4.4,0,0,0-.13-.32.57.57,0,0,0-.38-.11h-1Z"/><path class="cls-34" d="M178.18,33.12a1.73,1.73,0,0,1-2.42,0,1.76,1.76,0,0,1,0-2.44,1.73,1.73,0,0,1,2.42,0,1.74,1.74,0,0,1,0,2.44ZM177,33.06a1.1,1.1,0,0,0,.82-.33,1.2,1.2,0,0,0,0-1.66,1.16,1.16,0,0,0-1.63,0,1.2,1.2,0,0,0,0,1.66A1.1,1.1,0,0,0,177,33.06Z"/><path class="cls-34" d="M182.46,32.16h-2.71a1.09,1.09,0,0,0,.4.67,1.22,1.22,0,0,0,.78.24,1,1,0,0,0,.93-.48l.48.27a1.59,1.59,0,0,1-1.42.74,1.65,1.65,0,0,1-1.74-1.71,1.68,1.68,0,0,1,.47-1.23,1.62,1.62,0,0,1,1.22-.49,1.47,1.47,0,0,1,1.16.51,1.73,1.73,0,0,1,.45,1.21A1.71,1.71,0,0,1,182.46,32.16Zm-1.59-1.44a1.12,1.12,0,0,0-.75.25,1.1,1.1,0,0,0-.37.69h2.16a1.12,1.12,0,0,0-.36-.7A1,1,0,0,0,180.86,30.72Z"/><path class="cls-34" d="M183.68,32.56l1.79-2.29h.45v3.26h-.56V31.24l-1.79,2.29h-.45V30.27h.56Zm1.72-2.78h-1.75v-.5h1.75Z"/><path class="cls-34" d="M139.57,35.89a1.54,1.54,0,0,1,1.16.5,1.78,1.78,0,0,1,0,2.43,1.54,1.54,0,0,1-1.16.5,1.37,1.37,0,0,1-1.22-.65v1.86h-.56V36h.56v.56A1.37,1.37,0,0,1,139.57,35.89Zm-.07,2.88a1.11,1.11,0,0,0,.82-.33,1.17,1.17,0,0,0,.33-.83,1.13,1.13,0,0,0-.33-.83,1.16,1.16,0,0,0-1.64,0,1.13,1.13,0,0,0-.33.83,1.17,1.17,0,0,0,.33.83A1.11,1.11,0,0,0,139.5,38.77Z"/><path class="cls-34" d="M145,37.87h-2.71a1.09,1.09,0,0,0,.4.67,1.22,1.22,0,0,0,.78.24,1,1,0,0,0,.93-.48l.48.27a1.59,1.59,0,0,1-1.42.74,1.65,1.65,0,0,1-1.74-1.71,1.68,1.68,0,0,1,.47-1.23,1.62,1.62,0,0,1,1.22-.49,1.47,1.47,0,0,1,1.16.51,1.73,1.73,0,0,1,.45,1.21A1.71,1.71,0,0,1,145,37.87Zm-1.59-1.44a1.12,1.12,0,0,0-.75.25,1.1,1.1,0,0,0-.37.69h2.16a1.12,1.12,0,0,0-.36-.7A1,1,0,0,0,143.39,36.43Z"/><path class="cls-34" d="M147.69,39.3v1.24h-.56V39.3a1.92,1.92,0,0,1-1.21-.55,1.66,1.66,0,0,1,0-2.28,1.92,1.92,0,0,1,1.21-.55V34.67h.56v1.24a1.92,1.92,0,0,1,1.21.55,1.66,1.66,0,0,1,0,2.28A1.92,1.92,0,0,1,147.69,39.3ZM146,37.61a1.07,1.07,0,0,0,.29.77,1.33,1.33,0,0,0,.81.38v-2.3a1.32,1.32,0,0,0-.81.37A1.07,1.07,0,0,0,146,37.61Zm1.66-1.15v2.3a1.33,1.33,0,0,0,.81-.38,1.14,1.14,0,0,0,0-1.53A1.33,1.33,0,0,0,147.69,36.46Z"/><path class="cls-34" d="M153.13,37.87h-2.71a1.09,1.09,0,0,0,.4.67,1.22,1.22,0,0,0,.78.24,1,1,0,0,0,.93-.48l.48.27a1.59,1.59,0,0,1-1.42.74,1.65,1.65,0,0,1-1.74-1.71,1.68,1.68,0,0,1,.47-1.23,1.62,1.62,0,0,1,1.22-.49,1.47,1.47,0,0,1,1.16.51,1.73,1.73,0,0,1,.45,1.21A1.71,1.71,0,0,1,153.13,37.87Zm-1.59-1.44a1.12,1.12,0,0,0-.75.25,1.1,1.1,0,0,0-.37.69h2.16a1.12,1.12,0,0,0-.36-.7A1,1,0,0,0,151.53,36.43Z"/><path class="cls-34" d="M155.58,35.89a1.54,1.54,0,0,1,1.16.5,1.78,1.78,0,0,1,0,2.43,1.54,1.54,0,0,1-1.16.5,1.37,1.37,0,0,1-1.22-.65v1.86h-.56V36h.56v.56A1.37,1.37,0,0,1,155.58,35.89Zm-.07,2.88a1.11,1.11,0,0,0,.82-.33,1.17,1.17,0,0,0,.33-.83,1.13,1.13,0,0,0-.33-.83,1.16,1.16,0,0,0-1.64,0,1.13,1.13,0,0,0-.33.83,1.17,1.17,0,0,0,.33.83A1.11,1.11,0,0,0,155.51,38.77Z"/><path class="cls-34" d="M160.57,36.54V36h.56v3.26h-.56v-.56a1.36,1.36,0,0,1-1.22.65,1.54,1.54,0,0,1-1.16-.5,1.78,1.78,0,0,1,0-2.43,1.54,1.54,0,0,1,1.16-.5A1.36,1.36,0,0,1,160.57,36.54Zm-1.15,2.24a1.11,1.11,0,0,0,.82-.33,1.17,1.17,0,0,0,.33-.83,1.13,1.13,0,0,0-.33-.83,1.16,1.16,0,0,0-1.64,0,1.13,1.13,0,0,0-.33.83,1.17,1.17,0,0,0,.33.83A1.11,1.11,0,0,0,159.42,38.77Z"/><path class="cls-34" d="M162.29,36h2.4v3.26h-.56V36.52h-1.28v1.33a1.6,1.6,0,0,1-.31,1.11,1,1,0,0,1-.91.27V38.7a.51.51,0,0,0,.5-.15,1.15,1.15,0,0,0,.16-.71Z"/><path class="cls-34" d="M166.11,37.15h.8a1.13,1.13,0,0,1,.8.29,1,1,0,0,1,.32.75,1,1,0,0,1-.32.76,1.17,1.17,0,0,1-.8.29h-1.37V36h.56Zm0,1.56h.8a.59.59,0,0,0,.41-.14.47.47,0,0,0,.16-.37.48.48,0,0,0-.17-.37.59.59,0,0,0-.4-.15h-.8Z"/><path class="cls-34" d="M170.89,37.33V36h.56v3.26h-.56V37.87h-1.68v1.36h-.56V36h.56v1.36Z"/><path class="cls-34" d="M175,38.83a1.73,1.73,0,0,1-2.42,0,1.76,1.76,0,0,1,0-2.44,1.73,1.73,0,0,1,2.42,0,1.74,1.74,0,0,1,0,2.44Zm-1.21-.06a1.1,1.1,0,0,0,.82-.33,1.2,1.2,0,0,0,0-1.66,1.16,1.16,0,0,0-1.63,0,1.2,1.2,0,0,0,0,1.66A1.1,1.1,0,0,0,173.83,38.77Z"/><path class="cls-34" d="M176.76,38.26,178.56,36H179v3.26h-.56V36.95l-1.79,2.29h-.45V36h.56Zm1.72-2.78h-1.75V35h1.75Z"/><path class="cls-34" d="M183,39.32a1.64,1.64,0,0,1-1.22-.49,1.68,1.68,0,0,1-.49-1.23,1.66,1.66,0,0,1,.49-1.22,1.74,1.74,0,0,1,2.08-.26,1.45,1.45,0,0,1,.57.62L184,37a1,1,0,0,0-.38-.42,1.09,1.09,0,0,0-.58-.16,1.1,1.1,0,0,0-.82.33,1.21,1.21,0,0,0,0,1.65,1.1,1.1,0,0,0,.82.33,1.12,1.12,0,0,0,.58-.15,1,1,0,0,0,.39-.41l.48.28a1.59,1.59,0,0,1-.6.62A1.66,1.66,0,0,1,183,39.32Z"/><path class="cls-34" d="M186.5,39.32a1.64,1.64,0,0,1-1.22-.49,1.68,1.68,0,0,1-.49-1.23,1.66,1.66,0,0,1,.49-1.22,1.74,1.74,0,0,1,2.08-.26,1.45,1.45,0,0,1,.57.62l-.47.27a1,1,0,0,0-.38-.42,1.09,1.09,0,0,0-.58-.16,1.1,1.1,0,0,0-.82.33,1.21,1.21,0,0,0,0,1.65,1.1,1.1,0,0,0,.82.33,1.12,1.12,0,0,0,.58-.15,1,1,0,0,0,.39-.41l.48.28a1.59,1.59,0,0,1-.6.62A1.66,1.66,0,0,1,186.5,39.32Z"/><path class="cls-34" d="M189.08,37.15h.8a1.13,1.13,0,0,1,.8.29,1,1,0,0,1,.32.75,1,1,0,0,1-.32.76,1.17,1.17,0,0,1-.8.29h-1.37V36h.56Zm0,1.56h.8a.59.59,0,0,0,.41-.14.47.47,0,0,0,.16-.37.48.48,0,0,0-.17-.37.59.59,0,0,0-.4-.15h-.8Zm2.35.53V36H192v3.26Z"/><path class="cls-34" d="M193.15,36h2.4v3.26H195V36.52h-1.28v1.33a1.6,1.6,0,0,1-.31,1.11,1,1,0,0,1-.91.27V38.7a.51.51,0,0,0,.5-.15,1.15,1.15,0,0,0,.16-.71Z"/><path class="cls-34" d="M197.55,37.55l1.6,1.68h-.7L197,37.69v1.55h-.56V36H197v1.44l1.4-1.44h.73Z"/><path class="cls-34" d="M202.11,38.83a1.73,1.73,0,0,1-2.42,0,1.76,1.76,0,0,1,0-2.44,1.73,1.73,0,0,1,2.42,0,1.74,1.74,0,0,1,0,2.44Zm-1.21-.06a1.1,1.1,0,0,0,.82-.33,1.2,1.2,0,0,0,0-1.66,1.16,1.16,0,0,0-1.63,0,1.2,1.2,0,0,0,0,1.66A1.1,1.1,0,0,0,200.9,38.77Z"/><path class="cls-34" d="M203.83,38.26,205.63,36h.45v3.26h-.56V36.95l-1.79,2.29h-.45V36h.56Zm1.72-2.78h-1.75V35h1.75Z"/><path d="M40.77,127.15c.29-.24.53-.49.78-.73a8.44,8.44,0,0,0,.63-.73,6.53,6.53,0,0,0,.53-.68,4.45,4.45,0,0,0,.34-.68,1.43,1.43,0,0,0,.1-.63,2.31,2.31,0,0,0-.29-1.17,2.24,2.24,0,0,0-3.89,0,2.34,2.34,0,0,0-.34,1.17h1.21a1.16,1.16,0,0,1,.15-.58,1.48,1.48,0,0,1,.39-.39,1.05,1.05,0,0,1,1.07,0,1.48,1.48,0,0,1,.39.39,1.16,1.16,0,0,1,.15.58,1.49,1.49,0,0,1-.24.63,7.41,7.41,0,0,1-.63.78,7.2,7.2,0,0,1-.87.83c-.29.29-.58.53-.87.78a4.78,4.78,0,0,0-.73.58v1.07H43.2v-1.21Z"/><path d="M15.31,128.37V121h1.45v6H19v-6h1.45v6h2.26v-6h1.45v7.32Z"/><path d="M25.24,126a2.34,2.34,0,0,1,2.28-2.49,2,2,0,0,1,1.53.65h0v-.53h1.4v4.75h-1.4v-.55h0a2,2,0,0,1-1.52.69A2.35,2.35,0,0,1,25.24,126Zm3.88,0a1.23,1.23,0,1,0-2.46,0,1.2,1.2,0,0,0,1.21,1.32A1.23,1.23,0,0,0,29.12,126Z"/><path d="M31.72,128.37V123.6h3.14v1.19H33.11v3.57Z"/><path class="cls-34" d="M17.93,134.74a1.22,1.22,0,0,1,.5.43,1.15,1.15,0,0,1,.18.64,1.22,1.22,0,0,1-.38.91,1.28,1.28,0,0,1-.93.37H15.35v-4.54h1.8a1.22,1.22,0,0,1,.89.36,1.18,1.18,0,0,1,.37.88A1.08,1.08,0,0,1,17.93,134.74Zm-.77-1.62H16v1.39h1.2a.63.63,0,0,0,.48-.2.68.68,0,0,0,.19-.49.67.67,0,0,0-.2-.49A.62.62,0,0,0,17.16,133.12ZM16,136.53H17.3a.68.68,0,0,0,.51-.21.73.73,0,0,0,.21-.53.71.71,0,0,0-.21-.52.66.66,0,0,0-.5-.21H16Z"/><path class="cls-34" d="M21.94,134.41v-.56h.56v3.24h-.56v-.56a1.35,1.35,0,0,1-1.22.64,1.53,1.53,0,0,1-1.15-.49,1.77,1.77,0,0,1,0-2.42,1.54,1.54,0,0,1,1.15-.5A1.35,1.35,0,0,1,21.94,134.41Zm-1.15,2.22a1.11,1.11,0,0,0,.82-.33,1.16,1.16,0,0,0,.33-.83,1.12,1.12,0,0,0-.33-.82,1.15,1.15,0,0,0-1.63,0,1.12,1.12,0,0,0-.33.82,1.16,1.16,0,0,0,.33.83A1.1,1.1,0,0,0,20.79,136.63Z"/><path class="cls-34" d="M27.2,136.56v-2.7h.56v3.24H23.35v-3.24h.56v2.7h1.36v-2.7h.56v2.7Z"/><path class="cls-34" d="M30.22,133.85H33v3.24h-.56v-2.7H30.78v2.7h-.56Z"/><path class="cls-34" d="M36.57,136.69a1.72,1.72,0,0,1-2.41,0,1.75,1.75,0,0,1,0-2.42,1.72,1.72,0,0,1,2.41,0,1.73,1.73,0,0,1,0,2.42Zm-1.2-.06a1.1,1.1,0,0,0,.81-.33,1.19,1.19,0,0,0,0-1.65,1.15,1.15,0,0,0-1.62,0,1.19,1.19,0,0,0,0,1.65A1.09,1.09,0,0,0,35.37,136.63Z"/><path class="cls-34" d="M40.37,133.85v2.7h.44V138h-.55v-.87H37.85V138h-.55v-1.41h.39a2,2,0,0,0,.31-1.2v-1.5Zm-2,2.7h1.49v-2.18H38.55v1A2.84,2.84,0,0,1,38.32,136.56Z"/><path class="cls-34" d="M41.42,133.85h2.79v3.24h-.56v-2.7H42v2.7h-.56Z"/><path class="cls-34" d="M45.61,136.13l1.78-2.27h.45v3.24h-.55v-2.27l-1.78,2.27h-.45v-3.24h.55Z"/><path class="cls-34" d="M50.2,137.18a1.63,1.63,0,0,1-1.21-.49,1.67,1.67,0,0,1-.48-1.22,1.65,1.65,0,0,1,.48-1.21,1.73,1.73,0,0,1,2.07-.26,1.44,1.44,0,0,1,.57.62l-.47.27a1,1,0,0,0-.38-.42,1.08,1.08,0,0,0-.58-.16,1.1,1.1,0,0,0-.81.33,1.2,1.2,0,0,0,0,1.64,1.1,1.1,0,0,0,.81.33,1.11,1.11,0,0,0,.58-.15,1,1,0,0,0,.39-.41l.48.28a1.58,1.58,0,0,1-.6.62A1.65,1.65,0,0,1,50.2,137.18Z"/><path class="cls-34" d="M54.17,135.4v-1.55h.56v3.24h-.56v-1.17a2.17,2.17,0,0,1-.87.17,1.4,1.4,0,0,1-1-.3,1.1,1.1,0,0,1-.33-.87v-1.08h.56v1a.64.64,0,0,0,.19.51.89.89,0,0,0,.58.16A2.05,2.05,0,0,0,54.17,135.4Z"/><path class="cls-34" d="M56.13,136.13l1.78-2.27h.45v3.24h-.55v-2.27L56,137.09h-.45v-3.24h.55Z"/><path class="cls-34" d="M60.35,135.42l1.59,1.67h-.69l-1.47-1.54v1.54h-.56v-3.24h.56v1.43l1.39-1.43h.72Z"/><path class="cls-34" d="M15.29,139.52h2.79v3.24h-.56v-2.7H15.85v2.7h-.56Z"/><path class="cls-34" d="M20.71,139.44a1.54,1.54,0,0,1,1.15.5,1.77,1.77,0,0,1,0,2.42,1.53,1.53,0,0,1-1.15.49,1.36,1.36,0,0,1-1.22-.64v1.85h-.56v-4.54h.56v.56A1.36,1.36,0,0,1,20.71,139.44Zm-.07,2.86a1.1,1.1,0,0,0,.81-.33,1.16,1.16,0,0,0,.33-.83,1.12,1.12,0,0,0-.33-.82,1.15,1.15,0,0,0-1.63,0,1.12,1.12,0,0,0-.33.82,1.16,1.16,0,0,0,.33.83A1.11,1.11,0,0,0,20.64,142.3Z"/><path class="cls-34" d="M23.56,141.8l1.78-2.27h.45v3.24h-.55v-2.27l-1.78,2.27H23v-3.24h.55Z"/><path class="cls-34" d="M28.15,142.85a1.63,1.63,0,0,1-1.21-.49,1.67,1.67,0,0,1-.48-1.22,1.65,1.65,0,0,1,.48-1.21,1.73,1.73,0,0,1,2.07-.26,1.44,1.44,0,0,1,.57.62l-.47.27a1,1,0,0,0-.38-.42,1.08,1.08,0,0,0-.58-.16,1.1,1.1,0,0,0-.81.33,1.2,1.2,0,0,0,0,1.64,1.1,1.1,0,0,0,.81.33,1.11,1.11,0,0,0,.58-.15,1,1,0,0,0,.39-.41l.48.28a1.58,1.58,0,0,1-.6.62A1.65,1.65,0,0,1,28.15,142.85Z"/><path class="cls-34" d="M32.83,142.36a1.72,1.72,0,0,1-2.41,0,1.75,1.75,0,0,1,0-2.42,1.72,1.72,0,0,1,2.41,0,1.73,1.73,0,0,1,0,2.42Zm-1.2-.06a1.1,1.1,0,0,0,.81-.33,1.19,1.19,0,0,0,0-1.65,1.15,1.15,0,0,0-1.62,0,1.19,1.19,0,0,0,0,1.65A1.09,1.09,0,0,0,31.62,142.3Z"/><path class="cls-34" d="M37.07,141.4h-2.7a1.09,1.09,0,0,0,.39.67,1.21,1.21,0,0,0,.77.24,1,1,0,0,0,.93-.47l.48.27a1.58,1.58,0,0,1-1.42.73,1.64,1.64,0,0,1-1.73-1.7,1.67,1.67,0,0,1,.47-1.22,1.61,1.61,0,0,1,1.22-.49,1.46,1.46,0,0,1,1.15.5,1.72,1.72,0,0,1,.45,1.21A1.7,1.7,0,0,1,37.07,141.4ZM35.49,140a1.11,1.11,0,0,0-.74.25,1.09,1.09,0,0,0-.37.69h2.15a1.11,1.11,0,0,0-.35-.69A1,1,0,0,0,35.49,140Z"/><path class="cls-34" d="M40.38,139.52v2.7h.44v1.41h-.55v-.87H37.85v.87H37.3v-1.41h.39A2,2,0,0,0,38,141v-1.5Zm-2,2.7h1.49V140H38.56v1A2.84,2.84,0,0,1,38.33,142.23Z"/><path class="cls-34" d="M42,141.8l1.78-2.27h.45v3.24h-.55v-2.27l-1.78,2.27h-.45v-3.24H42Z"/><path class="cls-34" d="M47.29,140.87v-1.35h.56v3.24h-.56v-1.35H45.62v1.35h-.56v-3.24h.56v1.35Z"/><path class="cls-34" d="M49.25,141.8,51,139.52h.45v3.24h-.55v-2.27l-1.78,2.27H48.7v-3.24h.55Z"/><path class="cls-34" d="M52.63,139.52H55v3.24h-.56v-2.7H53.19v1.32a1.59,1.59,0,0,1-.31,1.1,1,1,0,0,1-.91.27v-.53a.51.51,0,0,0,.5-.15,1.15,1.15,0,0,0,.16-.7Z"/><path class="cls-34" d="M57.38,142.85a1.63,1.63,0,0,1-1.21-.49,1.67,1.67,0,0,1-.48-1.22,1.65,1.65,0,0,1,.48-1.21,1.73,1.73,0,0,1,2.07-.26,1.44,1.44,0,0,1,.57.62l-.47.27a1,1,0,0,0-.38-.42,1.08,1.08,0,0,0-.58-.16,1.1,1.1,0,0,0-.81.33,1.2,1.2,0,0,0,0,1.64,1.1,1.1,0,0,0,.81.33,1.11,1.11,0,0,0,.58-.15,1,1,0,0,0,.39-.41l.48.28a1.58,1.58,0,0,1-.6.62A1.65,1.65,0,0,1,57.38,142.85Z"/><path class="cls-34" d="M60.35,139.52h1.37v3.24h-.55V141.6H60.7l-.9,1.17h-.68l.94-1.2a1.06,1.06,0,0,1-.59-.36,1,1,0,0,1,.09-1.38A1.11,1.11,0,0,1,60.35,139.52Zm0,1.57h.8v-1h-.8a.59.59,0,0,0-.41.15.48.48,0,0,0-.16.38.48.48,0,0,0,.16.37A.59.59,0,0,0,60.37,141.09Z"/><path class="cls-34" d="M65.32,141.09l1.59,1.67h-.69l-1.47-1.54v1.54h-.56v-3.24h.56V141l1.39-1.43h.72Z"/><path class="cls-34" d="M71.26,140.87v-1.35h.56v3.24h-.56v-1.35H69.6v1.35H69v-3.24h.56v1.35Z"/><path class="cls-34" d="M75.34,140.08v-.56h.56v3.24h-.56v-.56a1.35,1.35,0,0,1-1.22.64,1.53,1.53,0,0,1-1.15-.49,1.77,1.77,0,0,1,0-2.42,1.54,1.54,0,0,1,1.15-.5A1.35,1.35,0,0,1,75.34,140.08Zm-1.15,2.22A1.11,1.11,0,0,0,75,142a1.16,1.16,0,0,0,.33-.83,1.12,1.12,0,0,0-.33-.82,1.15,1.15,0,0,0-1.63,0,1.12,1.12,0,0,0-.33.82,1.16,1.16,0,0,0,.33.83A1.1,1.1,0,0,0,74.19,142.3Z"/><path class="cls-34" d="M79.37,139.52H80v3.24h-.55v-2.35l-1,1.66h-.07l-1-1.66v2.35h-.55v-3.24h.6l1,1.64Z"/><path d="M385.14,80.15a3.3,3.3,0,0,0-.3-.6,1,1,0,0,0-.55-.35,1,1,0,0,0,.55-.55,1.57,1.57,0,0,0,.2-.79,1.83,1.83,0,0,0-.3-1,2.66,2.66,0,0,0-.74-.74,2.09,2.09,0,0,0-1-.3,1.75,1.75,0,0,0-.84.2,4.91,4.91,0,0,0-.69.4,2.53,2.53,0,0,0-.65,1.49H382a.8.8,0,0,1,.15-.45,1.08,1.08,0,0,1,.35-.3,1.05,1.05,0,0,1,.89,0,.84.84,0,0,1,.3.3.8.8,0,0,1,.15.45.85.85,0,0,1-.4.69,1.67,1.67,0,0,1-.94.2v.94a2.06,2.06,0,0,1,.79.15,1,1,0,0,1,.55.35,1.07,1.07,0,0,1,.2.6.84.84,0,0,1-.15.5,1.52,1.52,0,0,1-.4.4,1.47,1.47,0,0,1-.5.1,1.78,1.78,0,0,1-.55-.1,1.34,1.34,0,0,1-.35-.4.84.84,0,0,1-.15-.5h-1.19a2.3,2.3,0,0,0,.3,1.14,2.42,2.42,0,0,0,.79.79A2.17,2.17,0,0,0,383,83a2,2,0,0,0,1.09-.3,2.29,2.29,0,0,0,.84-.84,2,2,0,0,0,.3-1.09A2.9,2.9,0,0,0,385.14,80.15Z"/><path d="M356.81,83V75.55h1.48V81.7h2.3V75.55h1.48V81.7h2.31V75.55h1.48V83Z"/><path d="M367,80.6a2.39,2.39,0,0,1,2.33-2.54,2,2,0,0,1,1.56.66h0v-.55h1.43V83h-1.43v-.57h0a2.07,2.07,0,0,1-1.55.7A2.4,2.4,0,0,1,367,80.6Zm4,0a1.26,1.26,0,1,0-2.51,0,1.23,1.23,0,0,0,1.24,1.35A1.25,1.25,0,0,0,370.91,80.61Z"/><path d="M373.56,83V78.17h3.2v1.21H375V83Z"/><path class="cls-34" d="M356.76,88.94h3.34v4.63h-.61v-4h-2.12v4h-.61Z"/><path class="cls-34" d="M363.8,93.15a1.75,1.75,0,0,1-2.46,0,1.78,1.78,0,0,1,0-2.47,1.75,1.75,0,0,1,2.46,0,1.77,1.77,0,0,1,0,2.47Zm-1.23-.06a1.12,1.12,0,0,0,.83-.34,1.22,1.22,0,0,0,0-1.68,1.18,1.18,0,0,0-1.65,0,1.22,1.22,0,0,0,0,1.68A1.11,1.11,0,0,0,362.57,93.09Z"/><path class="cls-34" d="M365.17,90.26h2.44v3.31H367V90.82h-1.29v1.35a1.62,1.62,0,0,1-.32,1.13,1.06,1.06,0,0,1-.93.27V93a.52.52,0,0,0,.51-.16,1.17,1.17,0,0,0,.16-.72Z"/><path class="cls-34" d="M369.82,92.86l.95-2.59h.61L370,93.78a1.89,1.89,0,0,1-.59.86,1.23,1.23,0,0,1-.87.26v-.54q.6,0,.89-.66l.05-.12-1.43-3.31h.6Z"/><path class="cls-34" d="M373.93,91.84V90.26h.57v3.31h-.57V92.38a2.21,2.21,0,0,1-.89.17,1.43,1.43,0,0,1-1-.3,1.13,1.13,0,0,1-.34-.89v-1.1h.57v1.07a.65.65,0,0,0,.19.53.91.91,0,0,0,.59.16A2.1,2.1,0,0,0,373.93,91.84Z"/><path class="cls-34" d="M378.09,90.83v-.57h.57v3.31h-.57V93a1.38,1.38,0,0,1-1.24.65,1.56,1.56,0,0,1-1.18-.5,1.81,1.81,0,0,1,0-2.47,1.57,1.57,0,0,1,1.18-.51A1.38,1.38,0,0,1,378.09,90.83Zm-1.17,2.27a1.13,1.13,0,0,0,.83-.34,1.18,1.18,0,0,0,.34-.85,1.14,1.14,0,0,0-.34-.84,1.18,1.18,0,0,0-1.66,0,1.14,1.14,0,0,0-.34.84,1.18,1.18,0,0,0,.34.85A1.12,1.12,0,0,0,376.92,93.1Z"/><path class="cls-34" d="M380.09,92.58l1.82-2.32h.46v3.31h-.56V91.25L380,93.57h-.46V90.26h.57Zm1.75-2.82h-1.77v-.5h1.77Z"/><path class="cls-34" d="M385.85,90.9a1,1,0,0,1-.74-.3,1,1,0,0,1,0-1.45,1.07,1.07,0,0,1,1.49,0,1,1,0,0,1-.74,1.75Zm-.41,2.2-.32-.18,3.06-3.44.32.18Zm-.11-3.22a.54.54,0,0,0,.15.39.5.5,0,0,0,.38.16.49.49,0,0,0,.38-.16.54.54,0,0,0,.15-.38.53.53,0,0,0-.15-.38.54.54,0,0,0-.76,0A.53.53,0,0,0,385.33,89.88Zm3.55,2.75a1,1,0,0,1-.3.73,1.08,1.08,0,0,1-1.49,0,1,1,0,0,1,0-1.46,1,1,0,0,1,1.78.73Zm-1.42.38a.52.52,0,0,0,.38.15.51.51,0,0,0,.37-.15.54.54,0,0,0,.15-.38.51.51,0,0,0-.15-.38.48.48,0,0,0-.37-.16.5.5,0,0,0-.38.16.52.52,0,0,0-.14.38A.55.55,0,0,0,387.45,93Z"/><path class="cls-34" d="M394.09,93.15a1.75,1.75,0,0,1-2.46,0,1.78,1.78,0,0,1,0-2.47,1.75,1.75,0,0,1,2.46,0,1.77,1.77,0,0,1,0,2.47Zm-1.23-.06a1.12,1.12,0,0,0,.83-.34,1.22,1.22,0,0,0,0-1.68,1.18,1.18,0,0,0-1.65,0,1.22,1.22,0,0,0,0,1.68A1.11,1.11,0,0,0,392.86,93.09Z"/><path class="cls-34" d="M394.77,90.26h2.81v.56h-1.12v2.75h-.57V90.82h-1.12Z"/><path class="cls-34" d="M402.88,92.18h-2.75a1.11,1.11,0,0,0,.4.68,1.24,1.24,0,0,0,.79.25,1,1,0,0,0,.95-.48l.49.28a1.61,1.61,0,0,1-1.45.75,1.67,1.67,0,0,1-1.76-1.74,1.7,1.7,0,0,1,.48-1.24,1.65,1.65,0,0,1,1.24-.5,1.49,1.49,0,0,1,1.18.52,1.76,1.76,0,0,1,.46,1.23A1.74,1.74,0,0,1,402.88,92.18Zm-1.62-1.46a1.14,1.14,0,0,0-.76.26,1.12,1.12,0,0,0-.38.7h2.2A1.14,1.14,0,0,0,402,91,1,1,0,0,0,401.26,90.72Z"/><path class="cls-34" d="M403.56,90.26h2.16v.56h-1.58v2.75h-.57Z"/><path class="cls-34" d="M408.85,93.15a1.75,1.75,0,0,1-2.46,0,1.78,1.78,0,0,1,0-2.47,1.75,1.75,0,0,1,2.46,0,1.77,1.77,0,0,1,0,2.47Zm-1.23-.06a1.12,1.12,0,0,0,.83-.34,1.22,1.22,0,0,0,0-1.68,1.18,1.18,0,0,0-1.65,0,1.22,1.22,0,0,0,0,1.68A1.11,1.11,0,0,0,407.62,93.09Z"/><path class="cls-34" d="M411.68,90.26h2.85v3.31H414V90.81h-1.7v2.76h-.57Z"/><path class="cls-34" d="M417.21,90.18a1.57,1.57,0,0,1,1.18.51,1.81,1.81,0,0,1,0,2.47,1.56,1.56,0,0,1-1.18.5A1.39,1.39,0,0,1,416,93v1.89h-.57V90.26H416v.57A1.39,1.39,0,0,1,417.21,90.18Zm-.07,2.92a1.12,1.12,0,0,0,.83-.34,1.18,1.18,0,0,0,.34-.85,1.14,1.14,0,0,0-.34-.84,1.18,1.18,0,0,0-1.66,0,1.14,1.14,0,0,0-.34.84,1.18,1.18,0,0,0,.34.85A1.13,1.13,0,0,0,417.13,93.1Z"/><path class="cls-34" d="M420.12,92.58l1.82-2.32h.46v3.31h-.56V91.25L420,93.57h-.46V90.26h.57Z"/><path class="cls-34" d="M424.76,93.66a1.61,1.61,0,0,1-1.2-.48,1.72,1.72,0,0,1-.47-1.24,2.79,2.79,0,0,1,.24-1.3,2.19,2.19,0,0,1,1-.83l.1,0,.14-.06.14-.06.35-.16c.35-.18.54-.39.56-.63l.46.26a.9.9,0,0,1-.15.37l0,.06,0,.06,0,0-.06.06-.08.05-.35.2-.08,0-.07,0,0,0-.22.09-.21.09a2.31,2.31,0,0,0-.65.39,1.12,1.12,0,0,0-.3.5,1.32,1.32,0,0,1,.52-.38,1.63,1.63,0,0,1,.64-.13,1.41,1.41,0,0,1,1,.42,1.47,1.47,0,0,1,.43,1.09,1.49,1.49,0,0,1-.46,1.12A1.65,1.65,0,0,1,424.76,93.66Zm1.06-1.55a1,1,0,0,0-.29-.72,1,1,0,0,0-.75-.28,1.21,1.21,0,0,0-.76.27.86.86,0,0,0-.34.7,1,1,0,0,0,.31.74,1.08,1.08,0,0,0,.77.29,1,1,0,0,0,.76-.28A.94.94,0,0,0,425.82,92.1Z"/><path class="cls-34" d="M427.56,91.45h.81a1.15,1.15,0,0,1,.81.3,1,1,0,0,1,.33.76,1,1,0,0,1-.33.77,1.18,1.18,0,0,1-.81.29H427V90.26h.57Zm0,1.58h.81a.6.6,0,0,0,.41-.15.48.48,0,0,0,.16-.38.49.49,0,0,0-.17-.38.6.6,0,0,0-.41-.15h-.81Zm2.39.54V90.26h.57v3.31Z"/><path class="cls-34" d="M431.7,90.26h2.44v3.31h-.57V90.82h-1.29v1.35A1.62,1.62,0,0,1,432,93.3a1.06,1.06,0,0,1-.93.27V93a.52.52,0,0,0,.51-.16,1.17,1.17,0,0,0,.16-.72Z"/><path class="cls-34" d="M435.57,91.45h.81a1.15,1.15,0,0,1,.81.3,1,1,0,0,1,.33.76,1,1,0,0,1-.33.77,1.18,1.18,0,0,1-.81.29H435V90.26h.57Zm0,1.58h.81a.6.6,0,0,0,.41-.15.48.48,0,0,0,.16-.38.49.49,0,0,0-.17-.38.6.6,0,0,0-.41-.15h-.81Z"/><path class="cls-34" d="M438.28,92.89h.66l-.43,1.61H438Z"/><path class="cls-34" d="M356.7,96.05h2.85v3.31H359V96.6h-1.7v2.76h-.57Z"/><path class="cls-34" d="M363.19,98.94a1.75,1.75,0,0,1-2.46,0,1.78,1.78,0,0,1,0-2.47,1.75,1.75,0,0,1,2.46,0,1.77,1.77,0,0,1,0,2.47ZM362,98.88a1.12,1.12,0,0,0,.83-.34,1.22,1.22,0,0,0,0-1.68,1.18,1.18,0,0,0-1.65,0,1.22,1.22,0,0,0,0,1.68A1.11,1.11,0,0,0,362,98.88Z"/><path class="cls-34" d="M365.53,97.65l1.62,1.71h-.71l-1.5-1.57v1.57h-.57V96.05h.57v1.46l1.42-1.46h.74Z"/><path class="cls-34" d="M370.1,96.62v-.57h.57v3.31h-.57v-.57a1.38,1.38,0,0,1-1.24.65,1.56,1.56,0,0,1-1.18-.5,1.81,1.81,0,0,1,0-2.47,1.57,1.57,0,0,1,1.18-.51A1.38,1.38,0,0,1,370.1,96.62Zm-1.17,2.27a1.13,1.13,0,0,0,.83-.34,1.18,1.18,0,0,0,.34-.85,1.14,1.14,0,0,0-.34-.84,1.18,1.18,0,0,0-1.66,0,1.14,1.14,0,0,0-.34.84,1.18,1.18,0,0,0,.34.85A1.12,1.12,0,0,0,368.93,98.89Z"/><path class="cls-34" d="M376,98.94a1.75,1.75,0,0,1-2.46,0,1.78,1.78,0,0,1,0-2.47,1.75,1.75,0,0,1,2.46,0,1.77,1.77,0,0,1,0,2.47Zm-1.23-.06a1.12,1.12,0,0,0,.83-.34,1.22,1.22,0,0,0,0-1.68,1.18,1.18,0,0,0-1.65,0,1.22,1.22,0,0,0,0,1.68A1.11,1.11,0,0,0,374.73,98.88Z"/><path class="cls-34" d="M379.42,97.43V96.05H380v3.31h-.57V98h-1.7v1.38h-.57V96.05h.57v1.38Z"/><path class="cls-34" d="M384.31,96a1.57,1.57,0,0,1,1.18.51,1.81,1.81,0,0,1,0,2.47,1.56,1.56,0,0,1-1.18.5,1.39,1.39,0,0,1-1.24-.65v1.89h-.57V96.05h.57v.57A1.39,1.39,0,0,1,384.31,96Zm-.07,2.92a1.12,1.12,0,0,0,.83-.34,1.18,1.18,0,0,0,.34-.85,1.14,1.14,0,0,0-.34-.84,1.18,1.18,0,0,0-1.66,0,1.14,1.14,0,0,0-.34.84,1.18,1.18,0,0,0,.34.85A1.13,1.13,0,0,0,384.24,98.89Z"/><path class="cls-34" d="M389.38,96.62v-.57H390v3.31h-.57v-.57a1.38,1.38,0,0,1-1.24.65,1.56,1.56,0,0,1-1.18-.5,1.81,1.81,0,0,1,0-2.47,1.57,1.57,0,0,1,1.18-.51A1.38,1.38,0,0,1,389.38,96.62Zm-1.17,2.27a1.13,1.13,0,0,0,.83-.34,1.18,1.18,0,0,0,.34-.85,1.14,1.14,0,0,0-.34-.84,1.18,1.18,0,0,0-1.66,0,1.14,1.14,0,0,0-.34.84,1.18,1.18,0,0,0,.34.85A1.12,1.12,0,0,0,388.21,98.89Z"/><path class="cls-34" d="M392.31,99.45a1.61,1.61,0,0,1-1.2-.48,1.72,1.72,0,0,1-.47-1.24,2.79,2.79,0,0,1,.24-1.3,2.19,2.19,0,0,1,1-.83l.1,0,.14-.06.14-.06.35-.16c.35-.18.54-.39.56-.63l.46.26a.9.9,0,0,1-.15.37l0,.06,0,.06,0,0-.06.06-.08.05-.35.2-.08,0-.07,0,0,0-.22.09-.21.09a2.31,2.31,0,0,0-.65.39,1.12,1.12,0,0,0-.3.5,1.32,1.32,0,0,1,.52-.38,1.63,1.63,0,0,1,.64-.13,1.41,1.41,0,0,1,1,.42,1.47,1.47,0,0,1,.43,1.09,1.49,1.49,0,0,1-.46,1.12A1.65,1.65,0,0,1,392.31,99.45Zm1.06-1.55a1,1,0,0,0-.29-.72,1,1,0,0,0-.75-.28,1.21,1.21,0,0,0-.76.27.86.86,0,0,0-.34.7,1,1,0,0,0,.31.74,1.08,1.08,0,0,0,.77.29,1,1,0,0,0,.76-.28A.94.94,0,0,0,393.37,97.89Z"/><path class="cls-34" d="M397.32,98.94a1.75,1.75,0,0,1-2.46,0,1.78,1.78,0,0,1,0-2.47,1.75,1.75,0,0,1,2.46,0,1.77,1.77,0,0,1,0,2.47Zm-1.23-.06a1.12,1.12,0,0,0,.83-.34,1.22,1.22,0,0,0,0-1.68,1.18,1.18,0,0,0-1.65,0,1.22,1.22,0,0,0,0,1.68A1.11,1.11,0,0,0,396.09,98.88Z"/><path class="cls-34" d="M398,96.05h2.81v.56H399.7v2.75h-.57V96.61H398Z"/><path class="cls-34" d="M403.9,96.62v-.57h.57v3.31h-.57v-.57a1.38,1.38,0,0,1-1.24.65,1.56,1.56,0,0,1-1.18-.5,1.81,1.81,0,0,1,0-2.47,1.57,1.57,0,0,1,1.18-.51A1.38,1.38,0,0,1,403.9,96.62Zm-1.17,2.27a1.13,1.13,0,0,0,.83-.34,1.18,1.18,0,0,0,.34-.85,1.14,1.14,0,0,0-.34-.84,1.18,1.18,0,0,0-1.66,0,1.14,1.14,0,0,0-.34.84,1.18,1.18,0,0,0,.34.85A1.12,1.12,0,0,0,402.73,98.89Z"/><path class="cls-34" d="M408.5,98h-2.75a1.11,1.11,0,0,0,.4.68,1.24,1.24,0,0,0,.79.25,1,1,0,0,0,.95-.48l.49.28a1.61,1.61,0,0,1-1.45.75,1.67,1.67,0,0,1-1.76-1.74,1.7,1.7,0,0,1,.48-1.24,1.65,1.65,0,0,1,1.24-.5,1.49,1.49,0,0,1,1.18.52,1.76,1.76,0,0,1,.46,1.23A1.74,1.74,0,0,1,408.5,98Zm-1.62-1.46a1.14,1.14,0,0,0-.76.26,1.12,1.12,0,0,0-.38.7h2.2a1.14,1.14,0,0,0-.36-.71A1,1,0,0,0,406.88,96.51Z"/><path class="cls-34" d="M408.68,96.05h2.81v.56h-1.12v2.75h-.57V96.61h-1.12Z"/><path class="cls-34" d="M415.18,99.45a1.67,1.67,0,0,1-1.24-.5,1.71,1.71,0,0,1-.49-1.24,1.68,1.68,0,0,1,.49-1.24A1.76,1.76,0,0,1,416,96.2a1.47,1.47,0,0,1,.58.63l-.48.28a1,1,0,0,0-.38-.42,1.1,1.1,0,0,0-.59-.16,1.12,1.12,0,0,0-.83.34,1.23,1.23,0,0,0,0,1.67,1.12,1.12,0,0,0,.83.34,1.14,1.14,0,0,0,.59-.16,1,1,0,0,0,.4-.42l.49.29a1.62,1.62,0,0,1-.61.63A1.68,1.68,0,0,1,415.18,99.45Z"/><path class="cls-34" d="M421.14,97.43V96.05h.57v3.31h-.57V98h-1.7v1.38h-.57V96.05h.57v1.38Z"/><path class="cls-34" d="M425.3,96.62v-.57h.57v3.31h-.57v-.57a1.38,1.38,0,0,1-1.24.65,1.56,1.56,0,0,1-1.18-.5,1.81,1.81,0,0,1,0-2.47,1.57,1.57,0,0,1,1.18-.51A1.38,1.38,0,0,1,425.3,96.62Zm-1.17,2.27a1.13,1.13,0,0,0,.83-.34,1.18,1.18,0,0,0,.34-.85,1.14,1.14,0,0,0-.34-.84,1.18,1.18,0,0,0-1.66,0,1.14,1.14,0,0,0-.34.84,1.18,1.18,0,0,0,.34.85A1.12,1.12,0,0,0,424.13,98.89Z"/><path class="cls-34" d="M429.42,96.05H430v3.31h-.56V97l-1,1.69h-.07l-1-1.69v2.4h-.57V96.05h.61l1,1.67Z"/><path class="cls-34" d="M431.47,98.37l1.82-2.32h.46v3.31h-.56V97l-1.82,2.32h-.46V96.05h.57Z"/></svg>