<svg id="Слой_1" data-name="Слой 1" xmlns="http://www.w3.org/2000/svg" xmlns:xlink="http://www.w3.org/1999/xlink" viewBox="0 0 477 470"><defs><style>.cls-1{fill:none;}.cls-2{fill:#fff;}.cls-3{clip-path:url(#clip-path);}.cls-4{clip-path:url(#clip-path-2);}.cls-5{fill:#b16855;}.cls-6{fill:#ffc6b0;}.cls-7{fill:#8488ad;}.cls-8{fill:#ffa795;}.cls-9{fill:#636897;}.cls-10{fill:#a6523c;}.cls-11{fill:#f0f3f7;}.cls-12{clip-path:url(#clip-path-3);}.cls-13{clip-path:url(#clip-path-4);}.cls-14{fill:#95ceec;}.cls-15{fill:#71624e;}.cls-16{fill:#ffc6ae;}.cls-17{fill:#ffa893;}.cls-18{fill:#5f4e36;}.cls-19{fill:#6f6666;}.cls-20{fill:#79c1e7;}.cls-21{clip-path:url(#clip-path-5);}.cls-22{clip-path:url(#clip-path-6);}.cls-23{fill:#e7bb6f;}.cls-24{fill:#ffd7cf;}.cls-25{fill:#ffada6;}.cls-26{fill:#fff3e9;}.cls-27{fill:#cc9643;}.cls-28{fill:#a17c61;}.cls-29{fill:#926748;}.cls-30{clip-path:url(#clip-path-7);}.cls-31{clip-path:url(#clip-path-8);}.cls-32{fill:#fadee1;}.cls-33{fill:#674f3f;}.cls-34{fill:#ea9572;}.cls-35{fill:#db7d50;}.cls-36{fill:#4d311d;}.cls-37{fill:#f6c6cb;}.cls-38{clip-path:url(#clip-path-9);}.cls-39{clip-path:url(#clip-path-10);}.cls-40{fill:#777ba7;}.cls-41{fill:#654f3f;}.cls-42{fill:#e69574;}.cls-43{fill:#d77b52;}.cls-44{fill:#f5f6f5;}.cls-45{fill:#62678f;}.cls-46{fill:#f3c869;}.cls-47{fill:#4d3422;}.cls-48{clip-path:url(#clip-path-11);}.cls-49{clip-path:url(#clip-path-12);}.cls-50{fill:#ffeadf;}.cls-51{fill:#8a9cbf;}.cls-52{fill:#687fac;}.cls-53{fill:#666;}</style><clipPath id="clip-path"><path class="cls-1" d="M339.5,26a30,30,0,1,1-30,30,29.93,29.93,0,0,1,30-30Z"/></clipPath><clipPath id="clip-path-2"><rect class="cls-1" x="316.28" y="32.78" width="46.62" height="53.22"/></clipPath><clipPath id="clip-path-3"><path class="cls-1" d="M274.28,119a30,30,0,1,1-30,30,29.93,29.93,0,0,1,30-30Z"/></clipPath><clipPath id="clip-path-4"><rect class="cls-1" x="249.5" y="125.78" width="50.1" height="53.22"/></clipPath><clipPath id="clip-path-5"><path class="cls-1" d="M173,269a30,30,0,1,1-30,30,29.93,29.93,0,0,1,30-30Z"/></clipPath><clipPath id="clip-path-6"><rect class="cls-1" x="146.78" y="275.78" width="52.32" height="53.22"/></clipPath><clipPath id="clip-path-7"><path class="cls-1" d="M319.28,257.78a30,30,0,1,1-30,30,29.93,29.93,0,0,1,30-30Z"/></clipPath><clipPath id="clip-path-8"><rect class="cls-1" x="293.78" y="265.28" width="51" height="52.62"/></clipPath><clipPath id="clip-path-9"><path class="cls-1" d="M137,107.78a30,30,0,1,1-30,30,29.93,29.93,0,0,1,30-30Z"/></clipPath><clipPath id="clip-path-10"><rect class="cls-1" x="112.28" y="114.5" width="49.02" height="53.28"/></clipPath><clipPath id="clip-path-11"><path class="cls-1" d="M339.5,403.28a30,30,0,1,1-30,30,29.93,29.93,0,0,1,30-30Z"/></clipPath><clipPath id="clip-path-12"><rect class="cls-1" x="312.5" y="408.5" width="53.28" height="54.78"/></clipPath></defs><title>img-referral</title><path class="cls-2" d="M103.52,254.6l83.34-141.42.18.36L254.48,255h-.3Zm83.34-140.52-82.5,140,149.46.48Z"/><path class="cls-2" d="M254.12,255.26l-.18-.36L186.5,113.42h.36l144.6,16.14-.18.3ZM187.22,113.9l67,140.46,76.5-124.5Z"/><path class="cls-2" d="M331.46,130l-.42-.06L186.26,113.78l.48-.3L294.8,39.92l.12.24Zm-144-16.5,143.28,16L294.62,40.58Z"/><path class="cls-2" d="M186.8,114l-.12-.24L155.36,50.18h.3L295.52,40ZM156,50.6l30.9,62.76,107-72.84Z"/><path class="cls-2" d="M155.72,50.6l-.06-.42L250.76,32h0l45.66,8.34Zm95-18.18L159.44,49.88,293,40.16Z"/><path class="cls-2" d="M402.08,134.54l-71.16-4.68-.06-.12L294.2,39.5Zm-70.86-5,69.6,4.5L295.22,41.06Z"/><path class="cls-2" d="M402,135.2,293.66,39.62l72.18,27.24.06.06ZM295.76,40.88l104.7,92.4L365.54,67.22Z"/><path class="cls-2" d="M401.36,134.54l-36.54-68.7L425,125.78Zm-34.8-66.36,35,65.82,22.62-8.4Z"/><path class="cls-2" d="M443.72,156.38l-42.84-22.2,23.76-8.7ZM402,134.24l40.56,21.06L424.46,126Z"/><path class="cls-2" d="M412.22,257.12l-.42-.06-158-2,.18-.3,77.16-125.4.18.3Zm-157.68-2.46,156.84,1.92L331.1,130.1Z"/><path class="cls-2" d="M319.46,396l-.18-.36L253.82,254.54l158.4,2.16-.24.3Zm-65-140.94,65,140,91.86-138.06Z"/><path class="cls-2" d="M182.84,375.92l-.18-.3L103.52,254.18h.42l150.6.6-.18.3ZM104.3,254.54,182.84,375,253.76,255.2Z"/><path class="cls-2" d="M92.66,380.72v-.24l11.1-126.78.36.54L183.2,375.68h-.36ZM104.12,255l-11,125.22,89.28-5Z"/><path class="cls-2" d="M215.42,454.94,92.18,380.3h.66l90.12-5,.06.12ZM93.62,380.66l120.9,73.14-31.8-78.12Z"/><path class="cls-2" d="M216.68,455.12,147.5,433.4,91.34,379.28Zm-68.94-22,65.58,20.52L94.46,381.68Z"/><path class="cls-2" d="M93.74,381.92l-26.7-33L35.9,254.42l.36-.18ZM67.46,348.74,92,379,37.58,258.26Z"/><path class="cls-2" d="M250.76,459.62h-.06L213,454.34l131.1-10.74.06.42ZM217,454.46l33.78,4.74L339,444.44Z"/><path class="cls-2" d="M214.88,454.7l-32.4-79.5.42.06,137.28,20.22-.54.3Zm-31.68-79L215.12,454l103.74-58.38Z"/><path class="cls-2" d="M214,454.64l.84-.48,104.7-58.86.12.18L344.48,444h-.3ZM319.4,395.9,216,454.1l127.86-10.44Z"/><path class="cls-2" d="M344.12,444.2l-.18-.3-24.78-48.24.3-.06L425.36,366l-.66.6ZM319.82,396l24.36,47.52,79.62-76.62Z"/><path class="cls-2" d="M93,381.38,35.78,254.12h68.4v.24ZM36.44,254.6l56.28,125,11-125Z"/><path class="cls-2" d="M73.82,145.22l.48-.54L155.78,50l.12.3,31.32,63.48Zm81.84-94.44-80.58,93.6,111.48-30.9Z"/><path class="cls-2" d="M104.24,254.6H35.78l.12-.3L74.48,144Zm-67.86-.48h67.26L74.42,145.52Z"/><path class="cls-2" d="M36.32,254.42l-.42-.12,22.62-92.52v-.06L75,143.84ZM58.94,162,37.34,250,73.88,145.7Z"/><path class="cls-2" d="M57.92,163.1,69.86,138l85.68-87.72.3.3L74.6,144.92Zm12.3-24.9L59.54,160.7,74.3,144.62,151,55.46Z"/><path class="cls-2" d="M103.88,254.9l-.18-.48L74.18,144.62l.24-.06L187.34,113.3l-.3.42Zm-29.16-110L104,253.82,186.38,114Z"/><path class="cls-2" d="M319.88,395.84l-.42-.06-137-20.16.18-.24,71.52-120.9.18.42ZM183.2,375.32l136,20-65-139.86Z"/><path class="cls-2" d="M319,396l.36-.54,92.58-138.66.12.54,12.78,109.26-.18.06Zm92.7-138L320,395.18l104.34-28.92Z"/><path class="cls-2" d="M424.46,367.28l-12.9-110.7,56.88,1.56.06.3ZM412,257.06,424.7,365.54l43.26-107Z"/><path class="cls-2" d="M412.1,258.26l-.48-.78-80.94-128,71,4.56v.18ZM331.52,130l80,126.48-10.26-122Z"/><path class="cls-2" d="M468.32,258.62l-56.7-1.56L401.18,133.22Zm-56.34-2,56,1.56L401.78,135.26Z"/><path class="cls-2" d="M468.5,258.44h-.42L400.94,133.7l42.42,22v.06ZM402,134.78l65.64,122L442.94,156Z"/><polygon class="cls-2" points="123.98 171.8 123.56 171.68 155.42 50.72 155.84 50.84 123.98 171.8"/><polygon class="cls-2" points="123.92 171.92 123.62 171.62 294.92 39.98 295.22 40.34 123.92 171.92"/><polygon class="cls-2" points="123.86 171.56 123.62 171.92 190.94 218.24 191.18 217.88 123.86 171.56"/><polygon class="cls-2" points="191.18 218.24 190.94 217.88 278.48 157.34 278.72 157.7 191.18 218.24"/><polygon class="cls-2" points="278.84 157.52 278.36 157.46 294.86 40.1 295.28 40.16 278.84 157.52"/><polygon class="cls-2" points="155.78 50.6 155.48 50.9 278.48 157.64 278.72 157.34 155.78 50.6"/><polygon class="cls-2" points="278.78 157.4 278.42 157.58 324.5 274.34 324.86 274.22 278.78 157.4"/><polygon class="cls-2" points="324.56 274.52 191 218.24 191.12 217.82 324.74 274.1 324.56 274.52"/><polygon class="cls-2" points="190.82 218 177.98 308.54 178.4 308.6 191.24 218.06 190.82 218"/><polygon class="cls-2" points="324.62 274.16 178.16 308.3 178.22 308.72 324.74 274.58 324.62 274.16"/><polygon class="cls-2" points="36.26 254.6 35.96 254.24 123.62 171.62 123.92 171.92 36.26 254.6"/><polygon class="cls-2" points="123.98 171.68 123.56 171.86 177.98 308.66 178.4 308.48 123.98 171.68"/><polygon class="cls-2" points="383.96 180.26 278.54 157.7 278.66 157.28 384.02 179.84 383.96 180.26"/><polygon class="cls-2" points="324.86 274.4 324.5 274.16 383.78 179.96 384.2 180.2 324.86 274.4"/><polygon class="cls-2" points="294.02 38.96 293.66 39.2 383.18 178.46 383.54 178.22 294.02 38.96"/><polygon class="cls-2" points="401.42 134.12 383.78 179.96 384.2 180.14 401.84 134.3 401.42 134.12"/><polygon class="cls-2" points="468.02 258.74 383.84 180.2 384.14 179.9 468.32 258.44 468.02 258.74"/><polygon class="cls-2" points="324.68 274.52 324.68 274.1 468.14 258.38 468.2 258.8 324.68 274.52"/><polygon class="cls-2" points="328.58 347.36 324.44 274.34 324.92 274.28 329 347.3 328.58 347.36"/><polygon class="cls-2" points="328.88 347.12 328.76 347.54 424.76 366.2 424.88 365.78 328.88 347.12"/><polygon class="cls-2" points="328.94 347.54 328.7 347.12 468.08 258.38 468.26 258.74 328.94 347.54"/><polygon class="cls-2" points="344 443.66 328.58 347.36 329 347.3 344.42 443.54 344 443.66"/><polygon class="cls-2" points="328.64 347.12 214.76 454.52 215.06 454.88 328.94 347.42 328.64 347.12"/><polygon class="cls-2" points="178.28 308.42 178.16 308.84 328.76 347.6 328.88 347.12 178.28 308.42"/><polygon class="cls-2" points="177.92 308.54 159.2 395.24 159.62 395.36 178.4 308.66 177.92 308.54"/><polygon class="cls-2" points="214.7 454.82 159.26 395.42 159.56 395.12 215.06 454.52 214.7 454.82"/><polygon class="cls-2" points="159.14 395.18 147.32 433.28 147.74 433.4 159.56 395.3 159.14 395.18"/><polygon class="cls-2" points="159.32 395.48 93.02 380.48 93.08 380.06 159.44 395.06 159.32 395.48"/><polygon class="cls-2" points="328.76 347.18 159.32 395.06 159.44 395.48 328.88 347.6 328.76 347.18"/><polygon class="cls-2" points="159.2 395.42 87.86 312.08 88.22 311.84 159.56 395.12 159.2 395.42"/><polygon class="cls-2" points="178.16 308.36 88.04 311.72 88.04 312.14 178.22 308.78 178.16 308.36"/><polygon class="cls-2" points="123.5 171.68 87.86 311.9 88.28 312.02 123.92 171.8 123.5 171.68"/><polygon class="cls-2" points="87.86 312.08 35.96 254.6 36.26 254.3 88.22 311.78 87.86 312.08"/><polygon class="cls-2" points="67.34 348.98 66.92 348.8 87.86 311.84 88.22 312.08 67.34 348.98"/><polygon class="cls-2" points="123.62 171.92 69.86 138.08 70.1 137.66 123.86 171.56 123.62 171.92"/><polygon class="cls-2" points="214.22 102.14 213.86 101.96 250.76 32 251.12 32.18 214.22 102.14"/><polygon class="cls-2" points="278.78 157.64 278.42 157.34 365.36 66.5 365.66 66.8 278.78 157.64"/><path class="cls-2" d="M194.3,217.64a3.59,3.59,0,0,1-.66,2A3.46,3.46,0,0,1,192,221a3.85,3.85,0,0,1-2.16.24,3.56,3.56,0,0,1-1.86-1,3.38,3.38,0,0,1-1-1.86,3.79,3.79,0,0,1,.24-2.16,3.19,3.19,0,0,1,1.32-1.62,3.59,3.59,0,0,1,2-.66,4,4,0,0,1,2.64,1.08,3.88,3.88,0,0,1,1.08,2.64Z"/><path class="cls-2" d="M127.46,171.56a4,4,0,0,1-.6,2,4.17,4.17,0,0,1-1.68,1.38,3.78,3.78,0,0,1-4-.84,3.48,3.48,0,0,1-1-1.86,3.15,3.15,0,0,1,.18-2.1,3.81,3.81,0,0,1,1.38-1.68,3.89,3.89,0,0,1,3.42-.36,4.31,4.31,0,0,1,1.2.84,2.79,2.79,0,0,1,.78,1.2,2.73,2.73,0,0,1,.3,1.38Z"/><path class="cls-2" d="M181.94,308.12a3.53,3.53,0,0,1-.6,2,3.81,3.81,0,0,1-1.68,1.38,4.14,4.14,0,0,1-2.1.18,3.79,3.79,0,0,1-2.88-2.88,4.43,4.43,0,0,1,.18-2.16,4,4,0,0,1,1.38-1.62,3.53,3.53,0,0,1,2-.6,3.69,3.69,0,0,1,3.66,3.66Z"/><path class="cls-2" d="M91.7,311.84a3.59,3.59,0,0,1-.66,2,3.65,3.65,0,0,1-1.62,1.38,3.33,3.33,0,0,1-2.16.18,3.58,3.58,0,0,1-2.88-2.88,3.9,3.9,0,0,1,1.56-3.78,3.53,3.53,0,0,1,2-.6,3.62,3.62,0,0,1,2.64,1.08,3.73,3.73,0,0,1,1.08,2.58Z"/><path class="cls-2" d="M159.56,398.54a3.66,3.66,0,1,0-3.66-3.66,3.69,3.69,0,0,0,3.66,3.66Z"/><path class="cls-2" d="M332.6,346.88a3.59,3.59,0,0,1-.66,2,3.2,3.2,0,0,1-1.62,1.32,3.79,3.79,0,0,1-2.16.24,3.6,3.6,0,0,1-1.86-1,3.56,3.56,0,0,1-1-1.86,3.85,3.85,0,0,1,.24-2.16,3.46,3.46,0,0,1,1.32-1.62,3.59,3.59,0,0,1,2-.66,3.69,3.69,0,0,1,3.72,3.72Z"/><path class="cls-2" d="M328.28,273.86a3.53,3.53,0,0,1-.6,2,3.81,3.81,0,0,1-1.68,1.38,3.57,3.57,0,0,1-2.1.18,3.79,3.79,0,0,1-2.88-2.88,3.58,3.58,0,0,1,.18-2.1,3.81,3.81,0,0,1,1.38-1.68,3.53,3.53,0,0,1,2-.6,3.69,3.69,0,0,1,3.66,3.66Z"/><path class="cls-2" d="M281.84,157.28a4,4,0,0,1-.6,2,4.18,4.18,0,0,1-1.68,1.38,3.15,3.15,0,0,1-2.1.18,3.89,3.89,0,0,1-1.92-1,4.57,4.57,0,0,1-1-1.92,3.59,3.59,0,0,1,.24-2.1,4,4,0,0,1,1.32-1.68,4.26,4.26,0,0,1,2.1-.6,3.59,3.59,0,0,1,2.58,1.08,3.73,3.73,0,0,1,1.08,2.58Z"/><path class="cls-2" d="M387.62,179.9a3.59,3.59,0,0,1-.66,2,3.19,3.19,0,0,1-1.62,1.32,3.79,3.79,0,0,1-2.16.24,3.6,3.6,0,0,1-1.86-1,3.56,3.56,0,0,1-1-1.86,3.79,3.79,0,0,1,.24-2.16,3.2,3.2,0,0,1,1.32-1.62,3.59,3.59,0,0,1,2-.66,3.69,3.69,0,0,1,3.72,3.72Z"/><path class="cls-2" d="M217.88,101.18a3.53,3.53,0,0,1-.6,2,3.81,3.81,0,0,1-1.68,1.38,3.58,3.58,0,0,1-2.1.18,3.79,3.79,0,0,1-2.88-2.88,3.58,3.58,0,0,1,.18-2.1,3.81,3.81,0,0,1,1.38-1.68,3.89,3.89,0,0,1,3.42-.36,2.9,2.9,0,0,1,1.2.84,3.09,3.09,0,0,1,1.08,2.58Z"/><path class="cls-2" d="M15.5,217.28H98.78a7.46,7.46,0,0,1,7.5,7.5v33a7.5,7.5,0,0,1-7.5,7.5H15.5a7.5,7.5,0,0,1-7.5-7.5v-33a7.46,7.46,0,0,1,7.5-7.5Z"/><path d="M47.78,238.28c.36-.3.66-.6,1-.9a10.42,10.42,0,0,0,.78-.9,8.06,8.06,0,0,0,.66-.84,5.49,5.49,0,0,0,.42-.84,1.77,1.77,0,0,0,.12-.78,2.85,2.85,0,0,0-.36-1.44,2.77,2.77,0,0,0-4.8,0,2.89,2.89,0,0,0-.42,1.44h1.5a1.43,1.43,0,0,1,.18-.72,1.83,1.83,0,0,1,.48-.48,1.3,1.3,0,0,1,1.32,0,1.83,1.83,0,0,1,.48.48,1.43,1.43,0,0,1,.18.72,1.84,1.84,0,0,1-.3.78,9.15,9.15,0,0,1-.78,1,8.88,8.88,0,0,1-1.08,1c-.36.36-.72.66-1.08,1a5.9,5.9,0,0,0-.9.72v1.32h5.64v-1.5Z"/><path class="cls-2" d="M146,8h84.78a7.5,7.5,0,0,1,7.5,7.5v33a7.5,7.5,0,0,1-7.5,7.5H146a7.5,7.5,0,0,1-7.5-7.5v-33A7.5,7.5,0,0,1,146,8Z"/><polygon points="176 22.1 175.64 23.54 176.66 23.54 176.66 30.5 178.16 30.5 178.16 22.1 176 22.1"/><g class="cls-3"><path class="cls-2" d="M339.5,26a30,30,0,1,1-30,30,29.93,29.93,0,0,1,30-30Z"/><g class="cls-4"><path class="cls-5" d="M351.5,65.12c-.36-3.9,1-16.92-.18-23s-6.42-9.36-12.06-9.36-10.86,3.18-12,9.36.18,19.08-.18,23c-.36,4.26-1.14,5.34-1.14,5.34h26.7s-.78-1.08-1.14-5.34Z"/><rect class="cls-2" x="332.84" y="72.92" width="13.62" height="13.08"/><path class="cls-6" d="M347.12,73.34c-7.86,3.3-13.5,0-13.5,0v-7.8h13.5s1.8,7,0,7.8Z"/><path class="cls-7" d="M336.56,69.8l-4.68-4.14s-8.76,3.18-12.6,6.36c-1.5,1.2-2.46,7-3,14h21.9c.18-8.82.18-16.2.18-16.2Z"/><polygon class="cls-6" points="343.82 59.18 335 59.18 334.52 65.54 339.62 67.22 344.3 65.54 343.82 59.18"/><path class="cls-8" d="M335,59.18l-.36,4.5s6.9-1.5,9.18-4.5Z"/><path class="cls-6" d="M348.38,44.54c0,1.86.06,3.6.12,4.32.06,2.82-.24,7-3.84,9.78a9.09,9.09,0,0,1-5.28,2.28,8.85,8.85,0,0,1-5.46-2.28c-3.6-2.82-3.9-7-3.84-9.78.06-.78.06-2.76.12-4.74.12-3,3.24-6.06,9.18-6.06s9,3.66,9,6.48Z"/><path class="cls-5" d="M336.56,46.16h-.12a5.15,5.15,0,0,0-2.7,0h-.24c-.06-.06-.12-.12-.12-.18s-.06-.18,0-.24.06-.12.18-.18a5.31,5.31,0,0,1,3.06,0c.12,0,.18.06.18.12a.36.36,0,0,1,.06.24c0,.06-.06.12-.12.18a.22.22,0,0,1-.18.06Z"/><path class="cls-5" d="M345.14,46.16H345a5.15,5.15,0,0,0-2.7,0h-.24C342,46.1,342,46,342,46s-.06-.18,0-.24.06-.12.18-.18a5.31,5.31,0,0,1,3.06,0c.12,0,.18.06.18.12a.36.36,0,0,1,.06.24c0,.06-.06.12-.12.18a.22.22,0,0,1-.18.06Z"/><path class="cls-6" d="M350.9,48.5a2,2,0,0,0-2.76-1.14l-.48,7.2c2-1.26,4-3.48,3.24-6.06Z"/><path class="cls-6" d="M330.44,47.36a2.07,2.07,0,0,0-2.82,1.14c-.66,2.58,1.32,4.8,3.3,6.06Z"/><path class="cls-7" d="M359.9,72c-3.84-3.18-12.6-6.36-12.6-6.36l-4.68,4.14h-1.8s0,7.38.18,16.2h21.9c-.54-7-1.5-12.78-3-14Z"/><rect class="cls-9" x="340.88" y="80.66" width="16.98" height="0.42"/><polygon class="cls-9" points="349.7 84.74 354.14 83.54 354.08 83.18 349.7 84.32 345.32 83.18 345.2 83.54 349.7 84.74"/><path class="cls-2" d="M349.82,83.78a.65.65,0,0,0,.48-.78.6.6,0,0,0-.78-.48.69.69,0,0,0-.48.78.77.77,0,0,0,.78.48Z"/><path class="cls-9" d="M334.76,62.78a25.43,25.43,0,0,0-3.84,2.88c-1,1.14,1.26,7.74,1.8,7.86.9.24,3.84-3.72,3.84-3.72s-2-2.34-2-4.26Z"/><path class="cls-9" d="M344.06,62.78a25.85,25.85,0,0,1,3.78,2.88c1,1.14-1.26,7.74-1.8,7.86-.9.24-3.84-3.72-3.84-3.72s2.1-2.34,2.1-4.26Z"/><path class="cls-2" d="M337,73.82a.69.69,0,0,0-.48-.78.6.6,0,0,0-.78.48.57.57,0,0,0,.48.72.66.66,0,0,0,.78-.42Z"/><path class="cls-2" d="M336.2,85.16a.66.66,0,1,0-.66-.66.67.67,0,0,0,.66.66Z"/><rect class="cls-9" x="321.32" y="80.66" width="16.98" height="0.42"/><polygon class="cls-9" points="329.48 84.74 324.98 83.54 325.1 83.18 329.48 84.32 333.86 83.18 333.92 83.54 329.48 84.74"/><path class="cls-2" d="M330,83.6a.65.65,0,0,0,0-.9.62.62,0,0,0-1,0,.65.65,0,0,0,0,.9.73.73,0,0,0,1,0Z"/><path class="cls-5" d="M330.8,52.82s.18-12.48,8.58-14.76c0,0-2.22-2.34-6.54-.66-6.9,2.7-2,15.42-2,15.42Z"/><path class="cls-5" d="M348,52.82s-.18-12.48-8.58-14.76c0,0,2.22-2.34,6.54-.66,6.9,2.7,2,15.42,2,15.42Z"/><rect class="cls-10" x="339.2" y="33.68" width="0.42" height="4.38"/><path class="cls-10" d="M349.64,47.06l-.42-.12a10.86,10.86,0,0,0-.72-7.44l.36-.18a11.32,11.32,0,0,1,.78,7.74Z"/><path class="cls-10" d="M329.18,46.58a14.06,14.06,0,0,1,.42-5.46l.36.12a13.13,13.13,0,0,0-.36,5.28Z"/><path class="cls-10" d="M348.32,64.1A30.6,30.6,0,0,1,348,56l.42.06a29.15,29.15,0,0,0,.36,7.92Z"/><path class="cls-10" d="M345.2,39.62a5.19,5.19,0,0,0-1.56-1.86,5.47,5.47,0,0,0-2.22-1.08l.06-.42a5.93,5.93,0,0,1,2.4,1.14,6.32,6.32,0,0,1,1.74,2Z"/><path class="cls-10" d="M328.52,66.5l-.36-.18c1.2-2.64,2.52-5.64,2.4-8.76H331c.12,3.18-1.2,6.24-2.46,8.94Z"/><path class="cls-11" d="M330.68,55v.3a.83.83,0,0,0-.18.24.31.31,0,0,1-.24.12.36.36,0,0,1-.24.06,1.07,1.07,0,0,1-.54-.18c-.06-.12-.12-.18-.12-.24a.54.54,0,0,1-.06-.3c0-.36.3-1.62.72-1.62s.66,1.26.66,1.62Z"/><path class="cls-11" d="M349.28,55a.54.54,0,0,1-.06.3c0,.06-.06.12-.12.24a.45.45,0,0,1-.24.12.54.54,0,0,1-.3.06.36.36,0,0,1-.24-.06.31.31,0,0,1-.24-.12.83.83,0,0,0-.18-.24V55c0-.36.3-1.62.66-1.62s.72,1.26.72,1.62Z"/><polygon class="cls-9" points="357.32 85.34 358.46 77.78 358.04 77.72 356.9 85.28 356.9 86 357.32 86 357.32 85.34"/><rect class="cls-9" x="345.08" y="80.84" width="0.42" height="5.16"/><rect class="cls-9" x="353.9" y="80.84" width="0.42" height="5.16"/><polygon class="cls-9" points="321.14 77.72 320.72 77.78 321.86 85.34 321.86 86 322.28 86 322.28 85.28 321.14 77.72"/><rect class="cls-9" x="324.86" y="80.84" width="0.42" height="5.16"/><rect class="cls-9" x="333.68" y="80.84" width="0.42" height="5.16"/></g></g><g class="cls-12"><path class="cls-2" d="M274.28,119a30,30,0,1,1-30,30,29.93,29.93,0,0,1,30-30Z"/><g class="cls-13"><path class="cls-14" d="M294.62,163.58c-2.76-2.34-14.76-4.14-14.76-4.14H270s-12.72,1.8-15.48,4.14c-1.62,1.38-3.66,9.24-5,15.42h50.1c-1.44-6.48-3.42-14.1-5-15.42Z"/><path class="cls-15" d="M264,143.54c-2.34-4.8-1.8-8.34.18-11.16a3,3,0,0,0,.48-.72c.12-.18.18-.42.3-.6a8.33,8.33,0,0,1,5.16-4.68,13.78,13.78,0,0,1,7.32-.24,12.62,12.62,0,0,1,7.2,4.08,10,10,0,0,1,2.1,6.3,16.55,16.55,0,0,1-1.32,6.54Z"/><path class="cls-15" d="M285.5,142.94c2.34-11.52-3.9-16.14-10.68-16.14s-13,4.62-10.62,16.14Z"/><polygon class="cls-16" points="279.44 152 270.44 152 270.02 159.44 275.06 165.74 279.86 159.44 279.44 152"/><path class="cls-17" d="M270.44,152l-.3,5.1s8.82-.66,9.3-5.1Z"/><path class="cls-16" d="M279.2,132.26c5.64,0,4.68,9.12,4.74,10.92.06,2.34-1,7.32-4,9.66a8.56,8.56,0,0,1-5,2,8.67,8.67,0,0,1-5.22-2c-2.94-2.34-4-7.32-4-9.66.06-1.8-.9-10.92,4.74-10.92Z"/><path class="cls-15" d="M272.06,140.24l-.06-.06a4.49,4.49,0,0,0-2.52,0c-.12.06-.18.06-.24,0s-.12-.06-.12-.18a.11.11,0,0,1,0-.18c0-.06.06-.12.12-.18a6.09,6.09,0,0,1,2.94,0c.06.06.12.06.12.12s.06.12.06.24a.21.21,0,0,1-.06.12.31.31,0,0,1-.24.12Z"/><path class="cls-15" d="M280.34,140.24c-.06,0-.06,0-.12-.06a4.49,4.49,0,0,0-2.52,0,.18.18,0,0,1-.24,0c-.06,0-.12-.06-.12-.18s0-.12,0-.18l.18-.18a5.84,5.84,0,0,1,2.88,0c.06.06.12.06.18.12s.06.12,0,.24,0,.12-.06.12-.12.12-.18.12Z"/><path class="cls-16" d="M282.74,148.82c1.92-1.26,4.32-3.48,3.6-5.94a1.93,1.93,0,0,0-2.7-1.2Z"/><path class="cls-16" d="M266.9,148.82c-1.92-1.26-4.26-3.48-3.54-5.94a1.92,1.92,0,0,1,2.7-1.2Z"/><path class="cls-15" d="M264.44,140.6l1.86,3.3a23.56,23.56,0,0,1,.12-8.46l-1.38,2.1Z"/><path class="cls-15" d="M285.2,140.42l-1.86,3.3a22.75,22.75,0,0,0-.18-8.46l1.44,2.1Z"/><path class="cls-15" d="M265.46,135.8s-.48,4,4.68,3.06c0,0-1-.3-.78-2.28,0,0,2.1,3.24,7.32,2.88,0,0-1.86-3.66-.66-6.24,0,0,3.84,4.56,8.58,5.52,0,0,1.56-8-9.54-8s-9.6,5.1-9.6,5.1Z"/><path class="cls-18" d="M271.4,137.3a5.35,5.35,0,0,1-2.16-5.94l.36.12a5,5,0,0,0,2,5.52Z"/><path class="cls-18" d="M264.08,141.38a8.92,8.92,0,0,1-.24-4.86l.36.12a8.66,8.66,0,0,0,.24,4.62Z"/><path class="cls-18" d="M284.48,138.92l-.24-.24a3.34,3.34,0,0,0,.84-2.1,4.75,4.75,0,0,0-.42-2.28l.36-.12a6.38,6.38,0,0,1,.48,2.46,3.37,3.37,0,0,1-1,2.28Z"/><path class="cls-15" d="M280.88,138.92c-3.12-1-3.9-2.7-4.86-4.86a8.54,8.54,0,0,0-.72-1.5l.36-.18c.24.54.48,1,.72,1.5.9,2.1,1.62,3.72,4.56,4.68Z"/><path class="cls-18" d="M276.08,133.34h-.42a6.15,6.15,0,0,0-3.84-5.76l.12-.36a6.61,6.61,0,0,1,4.14,6.12Z"/><path class="cls-19" d="M274.94,172a2.26,2.26,0,0,1,2.34,2.34,2.36,2.36,0,0,1-2.34,2.4c-1.32,0-1.56-1.08-1.56-2.4s.24-2.34,1.56-2.34Z"/><path class="cls-19" d="M274.94,176.9c-1.56,0-1.74-1.38-1.74-2.58s.18-2.58,1.74-2.58a2.89,2.89,0,0,1,1.8.78,2.61,2.61,0,0,1,0,3.6,2.6,2.6,0,0,1-1.8.78Zm0-4.74c-1,0-1.38.6-1.38,2.16s.36,2.22,1.38,2.22a2.29,2.29,0,0,0,1.56-.66,2.4,2.4,0,0,0,.6-1.56,2.06,2.06,0,0,0-2.16-2.16Z"/><path class="cls-19" d="M274.94,164.9a2.65,2.65,0,0,1,1.68.72,2.46,2.46,0,0,1,.66,1.68,2.36,2.36,0,0,1-.66,1.68,2.65,2.65,0,0,1-1.68.72c-1.32,0-1.56-1.08-1.56-2.4s.24-2.4,1.56-2.4Z"/><path class="cls-19" d="M274.94,169.88c-1.56,0-1.74-1.38-1.74-2.58s.18-2.58,1.74-2.58a2.6,2.6,0,0,1,1.8.78,2.61,2.61,0,0,1,0,3.6,2.6,2.6,0,0,1-1.8.78Zm0-4.74c-1,0-1.38.6-1.38,2.16s.36,2.22,1.38,2.22a2.29,2.29,0,0,0,1.56-.66,2.33,2.33,0,0,0,0-3.12,2.22,2.22,0,0,0-1.56-.6Z"/><path class="cls-19" d="M274.4,172a3.47,3.47,0,0,1,0-2.46l.36.12a3.33,3.33,0,0,0,0,2.16Z"/><path class="cls-20" d="M290.9,176.72l1-5.4-.36-.06-1.08,5.4V179h.36c0-1.38.06-2.28.06-2.28Z"/><path class="cls-20" d="M255.92,171.26l-.36.06,1.08,5.4V179h.42c-.06-1.38-.06-2.34-.06-2.34Z"/></g></g><g class="cls-21"><path class="cls-2" d="M173,269a30,30,0,1,1-30,30,29.93,29.93,0,0,1,30-30Z"/><g class="cls-22"><path class="cls-23" d="M194.24,315.14c-4.44-2.4-13.56-5.46-13.56-5.46v.72l-2.7-1H167.9l-2.7,1.2-.06-.9s-9.12,3.06-13.56,5.46c-2.82,1.5-4.2,7.56-4.8,13.86H199.1c-.66-6.3-2-12.36-4.86-13.86Z"/><polygon class="cls-24" points="177.5 301.82 168.38 301.82 167.9 309.38 177.98 309.38 177.5 301.82"/><path class="cls-25" d="M168.38,301.82l-.3,5.22s8.94-.72,9.42-5.22Z"/><path class="cls-26" d="M167.12,309.44h12s-3.42,18-6.3,19.56c0,0-5.7-8.88-5.7-19.56Z"/><path class="cls-27" d="M184.7,314.6l-3.66-2,2.58-.84s-.72-1.08-1.74-2.34-4-2.4-4-2.4l.12,2.34c0,4.56-3.06,14-5,19.62h2.76a95.9,95.9,0,0,0,9-14.4Z"/><path class="cls-27" d="M167.9,309.38l.18-2.34s-3,1.08-4,2.4-1.74,2.34-1.74,2.34l2.58.84-3.72,2a95.9,95.9,0,0,0,9,14.4H173c-2-5.64-5.1-15.06-5.1-19.62Z"/><path class="cls-26" d="M167.9,309.38V306A25.9,25.9,0,0,0,178,306v3.36l-5.16,2.1Z"/><path class="cls-28" d="M184.22,293.6c4-11.7-3.54-14.1-3.54-14.1s-.9-3.24-5.76-3.66c-6.9-.66-15.12,3-11.94,15.84Z"/><path class="cls-24" d="M178.82,282.14c5.7.48,3.9,9.66,3.78,11.52-.12,2.4-1.68,7.38-4.92,9.42a8.26,8.26,0,0,1-5.22,1.62,8.76,8.76,0,0,1-5.16-2.52c-2.76-2.64-3.42-7.8-3.18-10.2.24-1.8.12-11.16,5.82-10.62Z"/><path class="cls-28" d="M170.9,289.58h-.12a4.27,4.27,0,0,0-2.58-.24c-.12,0-.18,0-.24-.06s-.12-.12-.12-.18v-.18l.18-.18a5.4,5.4,0,0,1,2.94.3c.06,0,.12.06.18.12s.06.12,0,.18a.21.21,0,0,1-.24.24Z"/><path class="cls-28" d="M179.24,290.3h-.12a4.67,4.67,0,0,0-2.58-.24c-.06.06-.12,0-.24,0s-.06-.12-.12-.18,0-.18.06-.24.12-.12.18-.12a5,5,0,0,1,2.94.24c.06.06.12.06.12.12s.06.12.06.24a.13.13,0,0,1-.12.12.22.22,0,0,1-.18.06Z"/><path class="cls-24" d="M180.92,299.3c2-1.08,4.62-3.12,4.2-5.76a2.07,2.07,0,0,0-2.7-1.44Z"/><path class="cls-24" d="M164.84,297.86c-1.86-1.44-4-3.9-3.12-6.42a2,2,0,0,1,2.88-.9Z"/><path class="cls-28" d="M163,289.28l1.62,3.48a22.67,22.67,0,0,1,.9-8.58l-1.62,2Z"/><path class="cls-28" d="M184.16,291l-2.22,3.12a22.34,22.34,0,0,0,.6-8.58l1.26,2.28Z"/><path class="cls-28" d="M180.08,281a8.35,8.35,0,0,1-5.58,1.92c-3.78.06-8.34-.78-9.6.54s2.28-5.52,6.6-4.8a45.77,45.77,0,0,1,8.58,2.34Z"/><path class="cls-28" d="M184.46,288s-.9-4.8-2.4-6.12-3.24.24-3.24.24a4.83,4.83,0,0,1,2.46,1.08l.12,3.36,1.08,2a31.44,31.44,0,0,1-.54,5.58Z"/><path class="cls-28" d="M163.16,286.16s1.74-4.62,3.42-5.64,3.18.78,3.18.78a5.4,5.4,0,0,0-2.64.66l-.66,3.24L165,287a33.71,33.71,0,0,0-.48,5.58Z"/><path class="cls-28" d="M178.4,282.08s2.28,3.48,5.52,3.78c0,0-.78-3.3-2.76-3.78a4.44,4.44,0,0,0-2.76,0Z"/><path class="cls-29" d="M179.12,281.9l-.24-.36a3.64,3.64,0,0,0,1.62-1.8l.36.18a4.29,4.29,0,0,1-1.74,2Z"/><path class="cls-29" d="M165.92,282.92a6.9,6.9,0,0,1-2.46-.48l.12-.36a6.41,6.41,0,0,0,3.18.42l.06.36a4.54,4.54,0,0,1-.9.06Z"/><path class="cls-29" d="M176,281.66a3.76,3.76,0,0,0-1.32-2.64,4.61,4.61,0,0,0-3-1.08c-.24,0-.48-.06-.72-.06l.06-.36a2.46,2.46,0,0,1,.66.06,5.25,5.25,0,0,1,3.3,1.14,4.9,4.9,0,0,1,1.44,2.88Z"/><path class="cls-29" d="M174.68,282.08c-2.7-2.28-5.34-2.82-8.4-1.74l-.12-.36c3.18-1.08,5.94-.54,8.76,1.8Z"/><path class="cls-29" d="M184,286.28a4.27,4.27,0,0,1-2.4-.66l.24-.3a4.33,4.33,0,0,0,2.58.6l.06.36Z"/><path class="cls-29" d="M182.72,284.36a4.24,4.24,0,0,1-2.76-1l.24-.3a4.43,4.43,0,0,0,1.68.84,3.9,3.9,0,0,0,1.86-.06l.12.36a3.78,3.78,0,0,1-1.14.18Z"/><path class="cls-28" d="M171.38,284.72a1.17,1.17,0,0,1-.48-.06v-.36a18.93,18.93,0,0,0,4.86-.6,5.36,5.36,0,0,0,2.52-1.8l.3.18a5.2,5.2,0,0,1-2.7,2,18.8,18.8,0,0,1-4.5.66Z"/><path class="cls-27" d="M153.56,322a66.57,66.57,0,0,1,.66,7h.42c-.24-3.12-.48-5.82-.72-7Z"/><path class="cls-27" d="M191.78,322.1l-.36-.12a66.41,66.41,0,0,0-.66,7h.36a63.27,63.27,0,0,1,.66-6.9Z"/></g></g><g class="cls-30"><path class="cls-2" d="M319.28,257.78a30,30,0,1,1-30,30,29.93,29.93,0,0,1,30-30Z"/><g class="cls-31"><path class="cls-32" d="M312.68,306.14l1.26-6s-8.88,1.5-12.9,4.08a10.59,10.59,0,0,0-3.78,4.38c-.36,1.14-1.86,4.86-3.48,9.3h22Z"/><path class="cls-33" d="M328.7,284.66c2.1-9.78-3.48-13.68-9.54-13.68s-11.58,3.9-9.48,13.68Z"/><path class="cls-34" d="M323.3,293.48h-8l-.42,6.6-.9,2.22s1.14,3,5.34,3a5.91,5.91,0,0,0,5.34-3l-1-2.22Z"/><path class="cls-35" d="M315.26,293.48,315,298s7.92-.6,8.34-4.56Z"/><path class="cls-34" d="M323.06,275.84c5,0,4.2,8.16,4.26,9.78.06,2.1-.9,6.54-3.6,8.58a6.52,6.52,0,0,1-9.12,0c-2.64-2-3.6-6.48-3.54-8.58.06-1.62-.78-9.78,4.26-9.78Z"/><path class="cls-33" d="M314.3,283c-.06,0-.12-.06-.18-.06a.22.22,0,0,1-.06-.18c-.06-.06,0-.12,0-.18s.06-.06.12-.06a4.4,4.4,0,0,1,2.64-.06c.06.06.06.12.12.18s.06.12,0,.18a.13.13,0,0,1-.12.12.22.22,0,0,1-.18.06,4.2,4.2,0,0,0-2.28-.06.06.06,0,0,1-.06.06Z"/><path class="cls-33" d="M324.08,283H324a3.7,3.7,0,0,0-2.28,0,.22.22,0,0,1-.18-.06.13.13,0,0,1-.12-.12.11.11,0,0,1,0-.18.13.13,0,0,1,.12-.12,4.22,4.22,0,0,1,2.58-.06c.06.06.12.06.18.12v.18c0,.06-.06.12-.06.18s-.12.06-.18.06Z"/><path class="cls-34" d="M326.24,290.66c1.74-1.14,3.84-3.12,3.24-5.34a1.75,1.75,0,0,0-2.46-1Z"/><path class="cls-34" d="M312.08,290.66c-1.68-1.14-3.78-3.12-3.18-5.34a1.75,1.75,0,0,1,2.46-1Z"/><path class="cls-33" d="M314.72,275.06a1.71,1.71,0,0,1-.78,0,1.37,1.37,0,0,1-.6-.42,1.33,1.33,0,0,1-.3-.66,1.19,1.19,0,0,1,.12-.66c-.18-.18-.36-.3-.42-.48a1.37,1.37,0,0,1-.18-.66,1.75,1.75,0,0,1,.12-.54,1.65,1.65,0,0,1,.36-.48,2.13,2.13,0,0,1-.12-.6,1.16,1.16,0,0,1,.18-.6.93.93,0,0,1,.36-.48,2.11,2.11,0,0,1,.54-.24c.06-.24.12-.42.18-.6a1.82,1.82,0,0,1,.48-.48,1.43,1.43,0,0,1,.54-.18,1,1,0,0,1,.6.06c.06-.18.24-.3.36-.42a2.13,2.13,0,0,1,.54-.24,1.39,1.39,0,0,1,1,.18,1.25,1.25,0,0,1,.78-.42,1.65,1.65,0,0,1,.78.12,1.43,1.43,0,0,1,.66-.36,1.13,1.13,0,0,1,.48-.12,1.3,1.3,0,0,0,.18-.3l.36-.36a.8.8,0,0,1,.48-.18.83.83,0,0,1,.54,0,1.14,1.14,0,0,1,.48.18,1.84,1.84,0,0,1,.6.9,1.37,1.37,0,0,1-.24,1,1.06,1.06,0,0,1-.54.48,1.19,1.19,0,0,1-.66.12,1.42,1.42,0,0,1-.36.54,1.16,1.16,0,0,1-.54.3,1.22,1.22,0,0,1-1-.06,1.71,1.71,0,0,1-.84.48,2.41,2.41,0,0,1-.9-.18,1.43,1.43,0,0,1-.66.36,1.46,1.46,0,0,1-.72,0,1.4,1.4,0,0,1-.42.42.68.68,0,0,1-.48.18,1.76,1.76,0,0,1-.12.54,2.63,2.63,0,0,1-.36.42,2.13,2.13,0,0,1,.12.6c0,.18-.06.36-.06.48a1.31,1.31,0,0,1,.24.3c.06,0,.06.06.12.12h.06a.83.83,0,0,1,.54,0,.8.8,0,0,1,.48.18l.36.36a.8.8,0,0,1,.18.48.83.83,0,0,1,0,.54.68.68,0,0,1-.18.48,1,1,0,0,1-.36.36,3.54,3.54,0,0,1-.48.24h-.3a1.37,1.37,0,0,1-.66-.18,1.23,1.23,0,0,1-.48-.48Z"/><path class="cls-33" d="M318.56,274.64a1,1,0,0,1,.18-1,1.46,1.46,0,0,1,.84-.6,1.48,1.48,0,0,1,.72.06,2.35,2.35,0,0,1,.6-.48,1.65,1.65,0,0,1,.78-.12,1.37,1.37,0,0,1,.42-.6,1.9,1.9,0,0,1,.54-.18,1.13,1.13,0,0,1,.12-.48.06.06,0,0,1,.06-.06c-.06-.06-.06-.06-.12-.06a2.8,2.8,0,0,1-.3-.6,2,2,0,0,1-.78-.24,1.26,1.26,0,0,1-.48-.66,1.91,1.91,0,0,1-.84-.18,1.7,1.7,0,0,1-.54-.6,1.73,1.73,0,0,1-.78-.06,1.31,1.31,0,0,1-.6-.54,1.2,1.2,0,0,1-.78.06,1.17,1.17,0,0,1-.78-.48,1.38,1.38,0,0,1-1.8-.6,1.2,1.2,0,0,1-.06-1,1.79,1.79,0,0,1,.24-.48,1.08,1.08,0,0,1,.42-.3,1.41,1.41,0,0,1,.48-.12.85.85,0,0,1,.54.06,1.56,1.56,0,0,1,.66.42,1,1,0,0,1,.84-.06,1.16,1.16,0,0,1,.84.54,1.49,1.49,0,0,1,1,0,1.53,1.53,0,0,1,.72.66,1.39,1.39,0,0,1,1,.18,1.45,1.45,0,0,1,.6.72,1.29,1.29,0,0,1,.9.24,1.43,1.43,0,0,1,.54.78,1.75,1.75,0,0,1,.54.12.93.93,0,0,1,.48.36,1,1,0,0,1,.3.72,1,1,0,0,1-.12.72,1.51,1.51,0,0,1,.42.72,1.15,1.15,0,0,1-.12.78h0a.87.87,0,0,1-.36.54,1.88,1.88,0,0,1-.6.3,1,1,0,0,1-.18.54.93.93,0,0,1-.36.48,1.79,1.79,0,0,1-.48.24h-.54a1.22,1.22,0,0,1-.72.72,1.2,1.2,0,0,1-1,.06,1.38,1.38,0,0,1-.84.54.45.45,0,0,1-.3.06,1.43,1.43,0,0,1-.84-.3,1.25,1.25,0,0,1-.42-.78Z"/><path class="cls-33" d="M319.34,273.56c2.4,0,4.32-1.08,4.32-2.46s-1.92-2.52-4.32-2.52S315,269.72,315,271.1s2,2.46,4.38,2.46Z"/><path class="cls-36" d="M318.38,274.88a.54.54,0,0,1-.3-.06,6.54,6.54,0,0,1-1.38-.54,1.34,1.34,0,0,1-1.08.24,1.74,1.74,0,0,1-1-.54,1,1,0,0,1-.54.18,1,1,0,0,1-.6-.12.93.93,0,0,1-.48-.36,1.08,1.08,0,0,1-.24-.54l.3-.06a1.5,1.5,0,0,0,.24.42.88.88,0,0,0,.36.3.66.66,0,0,0,.48,0,.54.54,0,0,0,.42-.18h.24a.06.06,0,0,0,.06.06,1.6,1.6,0,0,0,.3.36l.48.18a1.32,1.32,0,0,0,.48-.06.9.9,0,0,0,.42-.18c.06,0,.06-.06.12-.06a.19.19,0,0,1,.12.06,5.09,5.09,0,0,0,1.32.54c.12,0,.24.06.36,0s.12-.06.12-.12.24-.24.36-.24a.89.89,0,0,1,.42.06.06.06,0,0,0,.06.06.93.93,0,0,0,.66-.12,2.48,2.48,0,0,0,.42-.66l.3.18a2.07,2.07,0,0,1-.54.72,1,1,0,0,1-1,.18.19.19,0,0,1-.12-.06c-.06,0-.12-.06-.18-.06s-.12.06-.18.18a.83.83,0,0,1-.24.18.36.36,0,0,1-.24.06Z"/><path class="cls-36" d="M321.8,274.46a1,1,0,0,1-.6-.18,1.89,1.89,0,0,1-.84-.84,1.82,1.82,0,0,1-1.26,0,1.07,1.07,0,0,1-.78-1,3.69,3.69,0,0,1-1.14-.12c-.06,0-.12-.06-.18-.06-.36-.12-.66-.18-.66-.72l.36.06c-.06.18.06.24.42.36a.19.19,0,0,1,.12.06,4.13,4.13,0,0,0,1.2.06h.12l.06.06v.12a.83.83,0,0,0,.6.84,1.47,1.47,0,0,0,1.14-.06h.12c.06,0,.06.06.12.12a2.3,2.3,0,0,0,.72.78.81.81,0,0,0,1-.06l.18-.18a1.07,1.07,0,0,1,.48-.42,1.63,1.63,0,0,1,.54,0c.12,0,.18.06.3.06.3-.06.54-.42.72-1l.3.06c-.18.78-.54,1.26-1,1.26h-.36a.76.76,0,0,0-.36-.06.72.72,0,0,0-.3.3,1.05,1.05,0,0,0-.24.3,1.71,1.71,0,0,1-.72.24Z"/><path class="cls-36" d="M314.72,272.42l-.36-.12c.18-.6.84-.9,1.92-.84h.18c0-.06.06-.12.12-.24v-.06a1.69,1.69,0,0,1,1.56-.84,1.66,1.66,0,0,1,.72-1,1.88,1.88,0,0,1,1.14-.24,2.57,2.57,0,0,1,2.46-1.26l-.06.3a2.31,2.31,0,0,0-1.26.3,1.87,1.87,0,0,0-.9.9c0,.06-.06.06-.12.12h-.06a.83.83,0,0,0-.54,0,.68.68,0,0,0-.48.18,1,1,0,0,0-.36.36,1.8,1.8,0,0,0-.24.48v.06c0,.06,0,.06-.06.06s0,.06-.06.06h-.06a1.17,1.17,0,0,0-.78.06,1.44,1.44,0,0,0-.6.6v.06c-.06.12-.12.3-.3.36a.76.76,0,0,1-.36.06c-.48-.06-1.38,0-1.5.6Z"/><path class="cls-36" d="M316.16,267.74l-.36-.12a.6.6,0,0,1,.24-.3,1.31,1.31,0,0,1,.3-.18,1.77,1.77,0,0,1,.6-.12,1.58,1.58,0,0,1,.72.06,2.5,2.5,0,0,1,1.26-1.08l.12.36a1.76,1.76,0,0,0-.72.42,1.56,1.56,0,0,0-.42.66.06.06,0,0,0-.06.06c-.06,0-.06.06-.12.06a.06.06,0,0,1-.06-.06h-.06c-.12-.18-.42-.18-.66-.12a1.49,1.49,0,0,0-.48.06.72.72,0,0,0-.3.3Z"/><path class="cls-33" d="M324.5,276.68a4.43,4.43,0,0,0,0,1.26,1.19,1.19,0,0,0,.84.84c.12,0,.18,0,.24.06s.18.18.24.3a4,4,0,0,0,.54.84,1,1,0,0,0,.9.18c.42-.18.48-.78.36-1.26a5.27,5.27,0,0,0-1-1.68c-.6-.72-1.68-2.34-2.82-2.16-1.44.18-.24,1.56.66,1.62Z"/><path class="cls-2" d="M327.38,283.94l-.12-.3-1.5.48c-.48-.78-1.56-.9-2.64-.9s-2.46.18-2.76,1.2a4.09,4.09,0,0,0-2.4,0c-.3-1-1.56-1.2-2.76-1.2s-2.16.12-2.58.9l-1.56-.42-.06.3,1.44.42c0,.18-.06.36-.06.54a2.83,2.83,0,0,0,5.64,0v-.24a4.87,4.87,0,0,1,2.28,0,.36.36,0,0,0-.06.24,2.8,2.8,0,0,0,2.88,2.64,2.74,2.74,0,0,0,2.82-2.64c0-.18-.06-.3-.06-.48Zm-12.18,3.3a2.36,2.36,0,0,1-2.46-2.28c0-1,.66-1.38,2.46-1.38s2.52.36,2.52,1.38a2.42,2.42,0,0,1-2.52,2.28Zm7.92,0A2.42,2.42,0,0,1,320.6,285c0-1,.72-1.38,2.52-1.38s2.46.36,2.46,1.38a2.36,2.36,0,0,1-2.46,2.28Z"/><path class="cls-32" d="M341.24,308.6a10.18,10.18,0,0,0-3.78-4.38c-4-2.58-12.84-4.08-12.84-4.08l1.2,6-3.06,11.76h22c-1.62-4.38-3.06-8.1-3.48-9.3Z"/><path class="cls-37" d="M315,298a7.79,7.79,0,0,1-3.12,2c-2.16.9-2.64,4.62-2.64,4.62H311l-2.88,2.64a85.89,85.89,0,0,0,5.16,10.56h4c-.72-5.28-2.46-9.84-2.4-17.82Z"/><path class="cls-37" d="M330.44,307.34l-2.94-2.64h1.8s-.48-3.72-2.64-4.62a7.79,7.79,0,0,1-3.12-2l.12,2c.06,8-1.62,12.54-2.34,17.82h4a95.46,95.46,0,0,0,5.16-10.56Z"/><path class="cls-37" d="M300.86,313.52c.12,1.26.24,2.82.36,4.38h.36c-.12-1.56-.24-3.12-.36-4.44Z"/><path class="cls-37" d="M337.64,313.52l-.3-.06c-.18,1.32-.3,2.88-.36,4.44h.3c.12-1.56.24-3.06.36-4.38Z"/></g></g><g class="cls-38"><path class="cls-2" d="M137,107.78a30,30,0,1,1-30,30,29.93,29.93,0,0,1,30-30Z"/><g class="cls-39"><path class="cls-40" d="M160.82,164.42c-1.8-11.7-3.3-11.82-5.28-12.48-2.16-1.26-10.5-2.82-10.5-2.82l-3.6,15.3-2.28,3.36H161.3c-.12-1.08-.24-2.22-.48-3.36Z"/><path class="cls-41" d="M145.7,141.8c.06.12.06.3.18.42a1.26,1.26,0,0,0,.24.36,2.25,2.25,0,0,1,1,1.26,2,2,0,0,1-.12,1c-.42.78,1.08.6.9,1.86-.06.18-.42.6-.42.84s.12.24.24.36a1.62,1.62,0,0,1,.06,2,3.79,3.79,0,0,1-1.8,1.44,10.38,10.38,0,0,1-5,.78,6.2,6.2,0,0,1-3.06-1,6,6,0,0,1-1.38-1.62,8.39,8.39,0,0,1-1.08-6.84c.78-2.28,3.06-3.42,5.16-4.32,1.5-.66,3.54-.42,3.84,1.38a1,1,0,0,0,.18.54,2.63,2.63,0,0,0,.42.36,1.33,1.33,0,0,1,.72,1.2Z"/><path class="cls-41" d="M127.7,141.8c-.06.12-.06.3-.18.42a1.6,1.6,0,0,1-.3.36,2.45,2.45,0,0,0-.9,1.26,1.93,1.93,0,0,0,.12,1c.42.78-1.08.6-.9,1.86.06.18.42.6.42.84s-.12.24-.24.36a1.62,1.62,0,0,0-.06,2,3.31,3.31,0,0,0,1.8,1.44,10.27,10.27,0,0,0,5,.78,6.2,6.2,0,0,0,3.06-1,5.79,5.79,0,0,0,1.32-1.62,8.2,8.2,0,0,0,1.14-6.84c-.78-2.28-3.12-3.42-5.16-4.32-1.56-.66-3.54-.42-3.84,1.38a1,1,0,0,1-.18.54,2.63,2.63,0,0,1-.42.36,1.23,1.23,0,0,0-.72,1.2Z"/><path class="cls-41" d="M148.52,130.64c2.58-11.22-4.32-16.14-11.82-16.14s-14.46,4.92-11.82,16.14Z"/><path class="cls-42" d="M141.26,141.32h-8.88l-.54,6.42s-1,16.2,4.86,16.2,5-16.2,5-16.2Z"/><path class="cls-43" d="M132.38,141.32l-.36,4.5s7-1.44,9.24-4.5Z"/><path class="cls-42" d="M145.94,126.44c0,1.86.06,3.66.06,4.38.06,2.88-.18,7.08-3.84,9.9-1.56,1.2-3.48,2.34-5.34,2.34s-4-1.08-5.58-2.34c-3.66-2.82-4-7-3.84-9.9,0-.78.06-2.76.12-4.8.06-3.06,3.24-6.12,9.3-6.12s9.12,3.66,9.12,6.54Z"/><path class="cls-41" d="M133.94,128.12h-.12a4.8,4.8,0,0,0-2.76-.06c-.06.06-.12.06-.24,0s-.12-.12-.12-.18-.06-.12,0-.24.12-.12.18-.12a4.64,4.64,0,0,1,3.12,0c.12,0,.18.06.18.12a.22.22,0,0,1,.06.18c0,.12-.06.18-.12.18s-.12.12-.18.12Z"/><path class="cls-41" d="M142.64,128.12h-.12a4.8,4.8,0,0,0-2.76-.06.18.18,0,0,1-.24,0c-.06,0-.12-.06-.12-.18s-.06-.12,0-.24.06-.12.18-.12a4.64,4.64,0,0,1,3.12,0c.06,0,.12.06.18.12a.22.22,0,0,1,.06.18.31.31,0,0,1-.12.24c-.06,0-.12.06-.18.06Z"/><path class="cls-42" d="M148.52,130.46a2.14,2.14,0,0,0-2.88-1.2l-.42,7.38c1.92-1.32,4-3.6,3.3-6.18Z"/><path class="cls-42" d="M127.76,129.26a2.12,2.12,0,0,0-2.88,1.2c-.66,2.58,1.32,4.86,3.3,6.18Z"/><path class="cls-44" d="M144.38,154.1,137,157.82l-7.74-3.72s1.44,8.82,4,13.68h6.78c2.7-4.86,4.32-13.68,4.32-13.68Z"/><path class="cls-40" d="M131.78,164.42l-3.6-15.3s-8.34,1.56-10.5,2.82c-2.22.78-4.14,8-5.4,15.84h21.78Z"/><path class="cls-45" d="M131.84,147.74l.24-3.18s-3.54,1.74-4.74,3.18a28.3,28.3,0,0,0-2.58,5l3.42-.24-3.9,2.46a65.08,65.08,0,0,0,6.48,12.78h5.34c-2.1-5.58-4.26-12.9-4.26-20Z"/><path class="cls-45" d="M149.3,154.94l-3.84-2.46,3.42.24a25.9,25.9,0,0,0-2.64-5c-1.14-1.44-4.74-3.18-4.74-3.18l.24,3.18c0,7.08-2.1,14.4-4.2,20h5.34a62.88,62.88,0,0,0,6.42-12.78Z"/><path class="cls-45" d="M117.92,161l-.42.06c.24,2.1.54,4.44.9,6.72h.48c-.36-2.34-.72-4.62-1-6.78Z"/><path class="cls-46" d="M127.88,136.76a1,1,0,0,0,0-1.44,1,1,0,0,0-1.38,0,1,1,0,0,0,0,1.44,1,1,0,0,0,1.38,0Z"/><path class="cls-46" d="M128.18,137.84a1,1,0,1,0-1.2.78,1,1,0,0,0,1.2-.78Z"/><path class="cls-46" d="M127.88,139.94a1,1,0,0,0,0-1.44,1,1,0,0,0-1.38,0,1,1,0,0,0,0,1.44,1,1,0,0,0,1.38,0Z"/><path class="cls-46" d="M147.2,136.28a1,1,0,0,0-.78-1.2,1,1,0,1,0-.48,1.92,1.07,1.07,0,0,0,1.26-.72Z"/><path class="cls-46" d="M146.9,138.32a.91.91,0,0,0,0-1.38,1,1,0,0,0-1.44,0,1,1,0,0,0,0,1.38,1,1,0,0,0,1.44,0Z"/><path class="cls-46" d="M147.2,139.46a1,1,0,0,0-.78-1.2,1,1,0,0,0-.48,1.92,1.08,1.08,0,0,0,1.26-.72Z"/><path class="cls-41" d="M140.36,126.32l-.24-.36a.81.81,0,0,0,.36-.42,1.91,1.91,0,0,0,.18-.54,1.75,1.75,0,0,0-.12-.54,2.1,2.1,0,0,0-.3-.48c-.06-.06-.18-.12-.3-.24s-.3-.24-.42-.36a1.64,1.64,0,0,1-.18-1.5,2.72,2.72,0,0,1,.9-1.08l.24.36a1.73,1.73,0,0,0-.72.9.89.89,0,0,0,.12,1,1,1,0,0,0,.36.36c.12.06.18.18.3.24a2.47,2.47,0,0,1,.42.66,2.58,2.58,0,0,1,.12.72,2.15,2.15,0,0,1-.24.66,1.52,1.52,0,0,1-.48.6Z"/><path class="cls-41" d="M136.82,118.64c-13.26,0-9.48,10.5-9.48,10.5s1.86-6,9.48-9.24c0,0,6.78,3,9.18,9.24,0,0,4-10.5-9.18-10.5Z"/><path class="cls-47" d="M137,119.42h-.42a16.36,16.36,0,0,0-.18-3.42l.42-.06a16.72,16.72,0,0,1,.18,3.48Z"/><path class="cls-47" d="M126.8,127.7a5.13,5.13,0,0,1,0-1,1.79,1.79,0,0,0,.06-.78c-.06-.12-.06-.24-.12-.36a1.17,1.17,0,0,1-.18-.78,1.72,1.72,0,0,1,.36-.66,1.08,1.08,0,0,0,.3-.42,1.58,1.58,0,0,0-.06-.72c0-.12-.06-.24-.06-.36a1.69,1.69,0,0,1,.24-1.2,2,2,0,0,1,.9-.84l.18.36a1.91,1.91,0,0,0-.72.66,1.39,1.39,0,0,0-.18,1,.76.76,0,0,0,.06.36,1.71,1.71,0,0,1,.06,1,1.62,1.62,0,0,1-.42.48c-.12.18-.24.3-.24.48a.61.61,0,0,0,.12.54c.06.12.12.3.18.42a2.52,2.52,0,0,1-.06,1,1.71,1.71,0,0,0,0,.78Z"/><path class="cls-47" d="M147.08,126l-.42-.06a3.45,3.45,0,0,0-.12-2.22v-.06c-.12-.12-.12-.24-.18-.36s-.06-.24,0-.36a3.42,3.42,0,0,0-.06-.78c0-.24-.06-.72-.42-.84l.12-.36c.42.06.66.54.72,1.2a3.17,3.17,0,0,1,.06.78c-.06.06,0,.18,0,.3s.06.12.12.24l.06.06a3.88,3.88,0,0,1,.12,2.46Z"/><path class="cls-45" d="M156,159l-.36-.06c-.3,2.64-.72,5.82-1.2,8.82h.42c.48-3,.9-6.12,1.14-8.76Z"/></g></g><g class="cls-48"><path class="cls-2" d="M339.5,403.28a30,30,0,1,1-30,30,29.93,29.93,0,0,1,30-30Z"/><g class="cls-49"><path class="cls-33" d="M329.3,426.74c-.48-.48-.54-7.74-.6-8.76a6.06,6.06,0,0,1-.18-1c.06-.84.9-1.38,1.2-2.16.24-.6.18-1.32.66-1.74a6.22,6.22,0,0,1,.66-.48c.48-.48.48-1.32,1.08-1.74.42-.3,1-.18,1.44-.36.78-.3,1.14-1.32,2-1.56.6-.18,1.26.18,1.92.12s1.38-.72,2-.48c.36.06.6.36,1,.48.9.36,2.1-.48,2.82.18l.36.36a2.19,2.19,0,0,0,1.62.36c.54,0,1.26.06,1.5.6.12.24.12.48.24.72.36.6,1.32.3,1.92.66s.54,1.38.9,2,1.08,1,1.26,1.74a5.27,5.27,0,0,1-.06,1.68c0,1.8-.12,3.6-.12,5.46,0,.66.3,3.6-.42,4Z"/><rect class="cls-50" x="331.22" y="447.56" width="20.04" height="15.72"/><path class="cls-34" d="M344.54,435.44H335.3l-.42,7.62-3.3,3.72s2.16,3.84,8.34,3.84a15.23,15.23,0,0,0,9.54-3.84L345,443.06Z"/><path class="cls-35" d="M335.36,435.44l-.36,5.22s9.06-.66,9.54-5.22Z"/><path class="cls-34" d="M344.3,416c5.76,0,4.8,8.58,4.86,10.44.06,2.4-1,7.5-4.08,9.9a9.23,9.23,0,0,1-5.1,2.1,9.1,9.1,0,0,1-5.4-2.1c-3.06-2.4-4.14-7.5-4.08-9.9.06-1.86-.9-10.44,4.86-10.44Z"/><path class="cls-33" d="M337,423.38h-.06a4.93,4.93,0,0,0-2.64,0h-.18l-.18-.18V423c.06-.06.12-.12.18-.12a5.12,5.12,0,0,1,3,0,.13.13,0,0,1,.12.12.22.22,0,0,1,.06.18c0,.06-.06.12-.06.18s-.12.06-.24.06Z"/><path class="cls-33" d="M342.68,423.38c-.12,0-.18,0-.24-.06s-.06-.12-.06-.18V423c.06-.06.12-.12.18-.12a5.11,5.11,0,0,1,3,0,.13.13,0,0,1,.12.12.36.36,0,0,1,.06.24c-.06.06-.06.12-.18.18h-.18a4.94,4.94,0,0,0-2.64,0Z"/><path class="cls-34" d="M348,432.26c2-1.32,4.38-3.6,3.66-6.18a2,2,0,0,0-2.76-1.2Z"/><path class="cls-34" d="M331.7,432.26c-2-1.32-4.38-3.6-3.66-6.18a2,2,0,0,1,2.76-1.2Z"/><path class="cls-33" d="M329.18,423.8l1.92,3.36a23.38,23.38,0,0,1,.12-8.7l-1.44,2.22Z"/><path class="cls-33" d="M350.48,423.62,348.56,427a24,24,0,0,0-.18-8.7l1.44,2.22Z"/><path class="cls-51" d="M335.6,459.74l-2.22-15.3-2.1,1.14.42-2.22s-8.52,2.4-13.68,5.34c-2.76,1.56-4.5,7.62-5.52,14.58h23.22c0-1.38-.06-2.58-.12-3.54Z"/><path class="cls-52" d="M334.88,443.06l.12-2.34s-2.22.18-5,3.72a9.63,9.63,0,0,0-2.34,7l4.08.78-1.92,1.86s4.8,2.88,5.82,6.48c0,0-.48-10.74-.72-17.52Z"/><path class="cls-51" d="M363.68,451.1a13.17,13.17,0,0,0-5.22-3.84.06.06,0,0,0-.06-.06l-.18-.06a47.83,47.83,0,0,0-8.34-2.88l-3-.72.48,1.08-.84-.18-2.22,15.3c-.06,1-.12,2.16-.12,3.54h21.6c-.48-6.24-1.14-10.92-2.1-12.18Z"/><path class="cls-52" d="M345,443.06l-.18-2.58s2.22.42,5.1,4a9.63,9.63,0,0,1,2.34,7l-4.14.78,2,1.86s-4.86,2.88-5.82,6.48c0,0,.42-10.74.72-17.52Z"/><polygon class="cls-52" points="360.44 456.5 360.02 456.44 359.24 463.28 359.66 463.28 360.44 456.5"/><path class="cls-52" d="M321.74,454.16l-.36.12c1,2.16.78,5.46.6,8.34a2.46,2.46,0,0,1-.06.66h.42v-.66c.18-2.88.42-6.24-.6-8.46Z"/><rect class="cls-52" x="322.22" y="461.66" width="13.26" height="0.42"/><rect class="cls-52" x="344.18" y="461.66" width="15.36" height="0.42"/><path class="cls-33" d="M330.8,424.88l.9-2.22v-3.6c0-1.2,1.74-3.06,3.66-3.06l-2.28-2-3.3,4.26Z"/><path class="cls-33" d="M348.8,424.88l-.9-2.22v-3.6c0-1.2-1.68-3.06-3.6-3.06l2.22-2,3.3,4.26Z"/><path class="cls-33" d="M349,424.88s-1.56,8.28-3.06,9.54a10.24,10.24,0,0,1-6.12,2.34,10,10,0,0,1-6.12-2.34c-1.5-1.26-3.12-9.54-3.12-9.54s-.12,7.5,2.76,11.22c1.62,2.22,4.68,2.82,6.48,2.82s4.8-.6,6.48-2.82c2.82-3.72,2.7-11.22,2.7-11.22Z"/><path class="cls-33" d="M343.88,431.54c-.9-.66-4.08-.66-4.08-.66s-3.12,0-4,.66-.78,4.32-.78,4.32.72-2.94,1.32-3.48,2.52-.48,3.54-.48,2.88-.06,3.48.48,1.32,3.48,1.32,3.48.18-3.66-.78-4.32Z"/><path class="cls-33" d="M338.3,434.06a4.22,4.22,0,0,0,3.06,0s-.48,1.92-1.68,1.8-1.38-1.8-1.38-1.8Z"/></g></g><path class="cls-2" d="M116,386H221a7.5,7.5,0,0,1,7.5,7.5v44.28a7.5,7.5,0,0,1-7.5,7.5H116a7.5,7.5,0,0,1-7.5-7.5V393.5A7.5,7.5,0,0,1,116,386Z"/><path d="M150.8,405.2a4,4,0,0,0-.36-.72,1.26,1.26,0,0,0-.66-.42,1.19,1.19,0,0,0,.66-.66,1.9,1.9,0,0,0,.24-1,2.22,2.22,0,0,0-.36-1.26,3.21,3.21,0,0,0-.9-.9,2.52,2.52,0,0,0-1.26-.36,2.12,2.12,0,0,0-1,.24,5.94,5.94,0,0,0-.84.48,3.06,3.06,0,0,0-.78,1.8H147a1,1,0,0,1,.18-.54,1.3,1.3,0,0,1,.42-.36,1.27,1.27,0,0,1,1.08,0,1,1,0,0,1,.36.36,1,1,0,0,1,.18.54,1,1,0,0,1-.48.84,2,2,0,0,1-1.14.24v1.14a2.49,2.49,0,0,1,1,.18,1.26,1.26,0,0,1,.66.42,1.29,1.29,0,0,1,.24.72,1,1,0,0,1-.18.6,1.83,1.83,0,0,1-.48.48,1.77,1.77,0,0,1-.6.12,2.15,2.15,0,0,1-.66-.12,1.62,1.62,0,0,1-.42-.48,1,1,0,0,1-.18-.6h-1.44a2.79,2.79,0,0,0,.36,1.38,2.93,2.93,0,0,0,1,1,2.63,2.63,0,0,0,1.38.36,2.42,2.42,0,0,0,1.32-.36,2.77,2.77,0,0,0,1-1,2.42,2.42,0,0,0,.36-1.32A3.51,3.51,0,0,0,150.8,405.2Z"/><path d="M147.5,30.5v-9h1.79v7.44h2.78V21.46h1.79v7.44h2.79V21.46h1.79v9Z"/><path d="M159.77,27.56a2.89,2.89,0,0,1,2.82-3.07,2.44,2.44,0,0,1,1.88.8h0v-.66h1.73V30.5h-1.73v-.68h0a2.5,2.5,0,0,1-1.87.85A2.9,2.9,0,0,1,159.77,27.56Zm4.79,0a1.52,1.52,0,1,0-3,0,1.49,1.49,0,0,0,1.5,1.63A1.52,1.52,0,0,0,164.55,27.57Z"/><path d="M167.76,30.5V24.62h3.87v1.46h-2.15V30.5Z"/><path d="M16.34,239.78v-9h1.79v7.44h2.78v-7.44H22.7v7.44h2.79v-7.44h1.79v9Z"/><path d="M28.6,236.84a2.89,2.89,0,0,1,2.82-3.07,2.44,2.44,0,0,1,1.88.8h0v-.66H35v5.87H33.3v-.68h0a2.5,2.5,0,0,1-1.87.85A2.91,2.91,0,0,1,28.6,236.84Zm4.79,0a1.52,1.52,0,1,0-3,0,1.49,1.49,0,0,0,1.5,1.63A1.52,1.52,0,0,0,33.39,236.85Z"/><path d="M36.59,239.78V233.9h3.87v1.46H38.32v4.41Z"/><path d="M116.55,408.68v-9h1.79v7.44h2.78v-7.44h1.79v7.44h2.79v-7.44h1.79v9Z"/><path d="M128.81,405.74a2.89,2.89,0,0,1,2.82-3.07,2.44,2.44,0,0,1,1.88.8h0v-.66h1.73v5.87h-1.73V408h0a2.5,2.5,0,0,1-1.87.85A2.91,2.91,0,0,1,128.81,405.74Zm4.79,0a1.52,1.52,0,1,0-3,0,1.49,1.49,0,0,0,1.5,1.63A1.52,1.52,0,0,0,133.6,405.75Z"/><path d="M136.8,408.68V402.8h3.87v1.46h-2.15v4.41Z"/><path class="cls-53" d="M116.49,415.83h4v5.6h-.74v-4.9h-2.56v4.9h-.74Z"/><path class="cls-53" d="M125,420.92a2.12,2.12,0,0,1-3,0,2.15,2.15,0,0,1,0-3,2.12,2.12,0,0,1,3,0,2.14,2.14,0,0,1,0,3Zm-1.49-.07a1.35,1.35,0,0,0,1-.41,1.48,1.48,0,0,0,0-2,1.42,1.42,0,0,0-2,0,1.48,1.48,0,0,0,0,2A1.35,1.35,0,0,0,123.51,420.85Z"/><path class="cls-53" d="M126.65,417.43h2.95v4h-.69V418.1h-1.57v1.63a2,2,0,0,1-.38,1.36,1.29,1.29,0,0,1-1.12.33v-.66a.62.62,0,0,0,.61-.19,1.42,1.42,0,0,0,.2-.87Z"/><path class="cls-53" d="M132.28,420.56l1.14-3.14h.74l-1.62,4.25a2.28,2.28,0,0,1-.72,1,1.49,1.49,0,0,1-1,.32v-.65q.72.06,1.07-.8l.06-.14-1.72-4h.73Z"/><path class="cls-53" d="M137.25,419.34v-1.91h.69v4h-.69V420a2.68,2.68,0,0,1-1.07.21,1.72,1.72,0,0,1-1.18-.37,1.36,1.36,0,0,1-.41-1.07v-1.33h.69v1.29a.79.79,0,0,0,.23.64,1.1,1.1,0,0,0,.72.2A2.54,2.54,0,0,0,137.25,419.34Z"/><path class="cls-53" d="M142.28,418.12v-.69H143v4h-.69v-.69a1.67,1.67,0,0,1-1.5.79,1.89,1.89,0,0,1-1.42-.61,2.19,2.19,0,0,1,0-3,1.9,1.9,0,0,1,1.42-.62A1.67,1.67,0,0,1,142.28,418.12Zm-1.41,2.74a1.37,1.37,0,0,0,1-.41,1.43,1.43,0,0,0,.41-1,1.38,1.38,0,0,0-.41-1,1.42,1.42,0,0,0-2,0,1.38,1.38,0,0,0-.41,1,1.43,1.43,0,0,0,.41,1A1.36,1.36,0,0,0,140.86,420.86Z"/><path class="cls-53" d="M144.7,420.24l2.2-2.81h.56v4h-.68v-2.81l-2.2,2.81H144v-4h.68Zm2.11-3.41h-2.15v-.61h2.15Z"/><path class="cls-53" d="M151.66,418.2a1.21,1.21,0,0,1-.9-.36,1.25,1.25,0,0,1,0-1.75,1.29,1.29,0,0,1,1.8,0,1.24,1.24,0,0,1-.9,2.12Zm-.5,2.66-.38-.22,3.7-4.16.39.22ZM151,417a.65.65,0,0,0,.18.47.6.6,0,0,0,.46.19.6.6,0,0,0,.46-.19.65.65,0,0,0,.18-.46.64.64,0,0,0-.18-.46.65.65,0,0,0-.91,0A.64.64,0,0,0,151,417Zm4.29,3.32a1.2,1.2,0,0,1-.36.88,1.3,1.3,0,0,1-1.8,0,1.26,1.26,0,0,1,0-1.76,1.26,1.26,0,0,1,2.15.88Zm-1.72.46a.62.62,0,0,0,.46.18.61.61,0,0,0,.45-.18.65.65,0,0,0,.18-.46.62.62,0,0,0-.18-.46.58.58,0,0,0-.45-.19.61.61,0,0,0-.46.19.63.63,0,0,0-.17.46A.66.66,0,0,0,153.6,420.75Z"/><path class="cls-53" d="M161.62,420.92a2.12,2.12,0,0,1-3,0,2.15,2.15,0,0,1,0-3,2.12,2.12,0,0,1,3,0,2.14,2.14,0,0,1,0,3Zm-1.49-.07a1.35,1.35,0,0,0,1-.41,1.48,1.48,0,0,0,0-2,1.42,1.42,0,0,0-2,0,1.48,1.48,0,0,0,0,2A1.35,1.35,0,0,0,160.13,420.85Z"/><path class="cls-53" d="M162.44,417.43h3.4v.67h-1.35v3.33h-.69V418.1h-1.36Z"/><path class="cls-53" d="M172.25,419.75h-3.33a1.34,1.34,0,0,0,.48.83,1.5,1.5,0,0,0,1,.3,1.24,1.24,0,0,0,1.14-.58l.59.34a2,2,0,0,1-1.75.9,2,2,0,0,1-2.13-2.1,2.06,2.06,0,0,1,.58-1.5,2,2,0,0,1,1.5-.6,1.8,1.8,0,0,1,1.42.62,2.13,2.13,0,0,1,.56,1.49A2.1,2.1,0,0,1,172.25,419.75Zm-2-1.77a1.37,1.37,0,0,0-.92.31,1.35,1.35,0,0,0-.46.85h2.65a1.37,1.37,0,0,0-.44-.86A1.24,1.24,0,0,0,170.29,418Z"/><path class="cls-53" d="M173.07,417.43h2.61v.67h-1.92v3.33h-.69Z"/><path class="cls-53" d="M179.47,420.92a2.12,2.12,0,0,1-3,0,2.15,2.15,0,0,1,0-3,2.12,2.12,0,0,1,3,0,2.14,2.14,0,0,1,0,3Zm-1.49-.07a1.35,1.35,0,0,0,1-.41,1.48,1.48,0,0,0,0-2,1.42,1.42,0,0,0-2,0,1.48,1.48,0,0,0,0,2A1.35,1.35,0,0,0,178,420.85Z"/><path class="cls-53" d="M182.89,417.43h3.44v4h-.69v-3.34h-2.06v3.34h-.69Z"/><path class="cls-53" d="M189.57,417.32a1.9,1.9,0,0,1,1.42.62,2.19,2.19,0,0,1,0,3,1.89,1.89,0,0,1-1.42.61,1.68,1.68,0,0,1-1.5-.79V423h-.69v-5.6h.69v.69A1.68,1.68,0,0,1,189.57,417.32Zm-.09,3.54a1.36,1.36,0,0,0,1-.41,1.43,1.43,0,0,0,.41-1,1.38,1.38,0,0,0-.41-1,1.42,1.42,0,0,0-2,0,1.38,1.38,0,0,0-.41,1,1.43,1.43,0,0,0,.41,1A1.37,1.37,0,0,0,189.49,420.86Z"/><path class="cls-53" d="M193.09,420.24l2.2-2.81h.56v4h-.68v-2.81l-2.2,2.81h-.56v-4h.68Z"/><path class="cls-53" d="M198.71,421.53a2,2,0,0,1-1.45-.58,2.08,2.08,0,0,1-.57-1.5,3.38,3.38,0,0,1,.29-1.58,2.65,2.65,0,0,1,1.22-1l.12-.06.17-.08.17-.08.43-.19c.42-.21.65-.47.68-.77l.56.32a1.09,1.09,0,0,1-.18.45l0,.07-.06.07-.05.06-.07.07-.09.06a4,4,0,0,1-.42.24l-.1,0-.08,0,0,0-.26.11-.25.1a2.79,2.79,0,0,0-.79.47,1.36,1.36,0,0,0-.37.61,1.6,1.6,0,0,1,.62-.46,2,2,0,0,1,.77-.16,1.71,1.71,0,0,1,1.26.51,1.78,1.78,0,0,1,.52,1.32,1.8,1.8,0,0,1-.56,1.35A2,2,0,0,1,198.71,421.53Zm1.28-1.88a1.18,1.18,0,0,0-.35-.88,1.24,1.24,0,0,0-.91-.34,1.47,1.47,0,0,0-.92.33,1,1,0,0,0-.41.85,1.18,1.18,0,0,0,.37.9,1.3,1.3,0,0,0,.93.35,1.25,1.25,0,0,0,.91-.34A1.14,1.14,0,0,0,200,419.65Z"/><path class="cls-53" d="M202.1,418.87h1a1.39,1.39,0,0,1,1,.36,1.17,1.17,0,0,1,.4.92,1.2,1.2,0,0,1-.4.93,1.43,1.43,0,0,1-1,.35h-1.68v-4h.69Zm0,1.91h1a.73.73,0,0,0,.5-.18.58.58,0,0,0,.2-.46.59.59,0,0,0-.2-.46.72.72,0,0,0-.5-.18h-1Zm2.88.65v-4h.69v4Z"/><path class="cls-53" d="M207.1,417.43H210v4h-.69V418.1h-1.57v1.63a2,2,0,0,1-.38,1.36,1.29,1.29,0,0,1-1.12.33v-.66a.62.62,0,0,0,.61-.19,1.42,1.42,0,0,0,.2-.87Z"/><path class="cls-53" d="M211.78,418.87h1a1.39,1.39,0,0,1,1,.36,1.17,1.17,0,0,1,.4.92,1.2,1.2,0,0,1-.4.93,1.43,1.43,0,0,1-1,.35h-1.68v-4h.69Zm0,1.91h1a.73.73,0,0,0,.5-.18.58.58,0,0,0,.2-.46.59.59,0,0,0-.2-.46.72.72,0,0,0-.5-.18h-1Z"/><path class="cls-53" d="M215.05,420.6h.79l-.52,1.94h-.6Z"/><path class="cls-53" d="M116.42,424.43h3.44v4h-.69v-3.34h-2.06v3.34h-.69Z"/><path class="cls-53" d="M124.26,427.92a2.12,2.12,0,0,1-3,0,2.15,2.15,0,0,1,0-3,2.12,2.12,0,0,1,3,0,2.14,2.14,0,0,1,0,3Zm-1.49-.07a1.35,1.35,0,0,0,1-.41,1.48,1.48,0,0,0,0-2,1.42,1.42,0,0,0-2,0,1.48,1.48,0,0,0,0,2A1.35,1.35,0,0,0,122.77,427.85Z"/><path class="cls-53" d="M127.09,426.36l2,2.06h-.86l-1.81-1.9v1.9h-.69v-4h.69v1.77l1.72-1.77H129Z"/><path class="cls-53" d="M132.62,425.12v-.69h.69v4h-.69v-.69a1.67,1.67,0,0,1-1.5.79,1.89,1.89,0,0,1-1.42-.61,2.19,2.19,0,0,1,0-3,1.9,1.9,0,0,1,1.42-.62A1.67,1.67,0,0,1,132.62,425.12Zm-1.41,2.74a1.37,1.37,0,0,0,1-.41,1.43,1.43,0,0,0,.41-1,1.38,1.38,0,0,0-.41-1,1.42,1.42,0,0,0-2,0,1.38,1.38,0,0,0-.41,1,1.43,1.43,0,0,0,.41,1A1.36,1.36,0,0,0,131.21,427.86Z"/><path class="cls-53" d="M139.7,427.92a2.12,2.12,0,0,1-3,0,2.15,2.15,0,0,1,0-3,2.12,2.12,0,0,1,3,0,2.14,2.14,0,0,1,0,3Zm-1.49-.07a1.35,1.35,0,0,0,1-.41,1.48,1.48,0,0,0,0-2,1.42,1.42,0,0,0-2,0,1.48,1.48,0,0,0,0,2A1.35,1.35,0,0,0,138.21,427.85Z"/><path class="cls-53" d="M143.88,426.09v-1.66h.69v4h-.69v-1.67h-2.06v1.67h-.69v-4h.69v1.66Z"/><path class="cls-53" d="M149.8,424.32a1.9,1.9,0,0,1,1.42.62,2.19,2.19,0,0,1,0,3,1.89,1.89,0,0,1-1.42.61,1.68,1.68,0,0,1-1.5-.79V430h-.69v-5.6h.69v.69A1.68,1.68,0,0,1,149.8,424.32Zm-.09,3.54a1.36,1.36,0,0,0,1-.41,1.43,1.43,0,0,0,.41-1,1.38,1.38,0,0,0-.41-1,1.42,1.42,0,0,0-2,0,1.38,1.38,0,0,0-.41,1,1.43,1.43,0,0,0,.41,1A1.37,1.37,0,0,0,149.71,427.86Z"/><path class="cls-53" d="M155.93,425.12v-.69h.69v4h-.69v-.69a1.67,1.67,0,0,1-1.5.79,1.89,1.89,0,0,1-1.42-.61,2.19,2.19,0,0,1,0-3,1.9,1.9,0,0,1,1.42-.62A1.67,1.67,0,0,1,155.93,425.12Zm-1.41,2.74a1.37,1.37,0,0,0,1-.41,1.43,1.43,0,0,0,.41-1,1.38,1.38,0,0,0-.41-1,1.42,1.42,0,0,0-2,0,1.38,1.38,0,0,0-.41,1,1.43,1.43,0,0,0,.41,1A1.36,1.36,0,0,0,154.51,427.86Z"/><path class="cls-53" d="M159.47,428.53a2,2,0,0,1-1.45-.58,2.08,2.08,0,0,1-.57-1.5,3.38,3.38,0,0,1,.29-1.58,2.65,2.65,0,0,1,1.22-1l.12-.06.17-.08.17-.08.43-.19c.42-.21.65-.47.68-.77l.56.32a1.09,1.09,0,0,1-.18.45l0,.07-.06.07-.05.06-.07.07-.09.06a4,4,0,0,1-.42.24l-.1,0-.08,0,0,0-.26.11-.25.1a2.79,2.79,0,0,0-.79.47,1.36,1.36,0,0,0-.37.61,1.6,1.6,0,0,1,.62-.46,2,2,0,0,1,.77-.16,1.71,1.71,0,0,1,1.26.51,1.78,1.78,0,0,1,.52,1.32,1.8,1.8,0,0,1-.56,1.35A2,2,0,0,1,159.47,428.53Zm1.28-1.88a1.18,1.18,0,0,0-.35-.88,1.24,1.24,0,0,0-.91-.34,1.47,1.47,0,0,0-.92.33,1,1,0,0,0-.41.85,1.18,1.18,0,0,0,.37.9,1.3,1.3,0,0,0,.93.35,1.25,1.25,0,0,0,.91-.34A1.14,1.14,0,0,0,160.75,426.65Z"/><path class="cls-53" d="M165.53,427.92a2.12,2.12,0,0,1-3,0,2.15,2.15,0,0,1,0-3,2.12,2.12,0,0,1,3,0,2.14,2.14,0,0,1,0,3Zm-1.49-.07a1.35,1.35,0,0,0,1-.41,1.48,1.48,0,0,0,0-2,1.42,1.42,0,0,0-2,0,1.48,1.48,0,0,0,0,2A1.35,1.35,0,0,0,164,427.85Z"/><path class="cls-53" d="M166.35,424.43h3.4v.67H168.4v3.33h-.69V425.1h-1.36Z"/><path class="cls-53" d="M173.49,425.12v-.69h.69v4h-.69v-.69a1.67,1.67,0,0,1-1.5.79,1.89,1.89,0,0,1-1.42-.61,2.19,2.19,0,0,1,0-3,1.9,1.9,0,0,1,1.42-.62A1.67,1.67,0,0,1,173.49,425.12Zm-1.41,2.74a1.37,1.37,0,0,0,1-.41,1.43,1.43,0,0,0,.41-1,1.38,1.38,0,0,0-.41-1,1.42,1.42,0,0,0-2,0,1.38,1.38,0,0,0-.41,1,1.43,1.43,0,0,0,.41,1A1.36,1.36,0,0,0,172.08,427.86Z"/><path class="cls-53" d="M179,426.75h-3.33a1.34,1.34,0,0,0,.48.83,1.5,1.5,0,0,0,1,.3,1.24,1.24,0,0,0,1.14-.58l.59.34a2,2,0,0,1-1.75.9,2,2,0,0,1-2.13-2.1,2.06,2.06,0,0,1,.58-1.5,2,2,0,0,1,1.5-.6,1.8,1.8,0,0,1,1.42.62,2.13,2.13,0,0,1,.56,1.49A2.1,2.1,0,0,1,179,426.75Zm-2-1.77a1.37,1.37,0,0,0-.92.31,1.35,1.35,0,0,0-.46.85h2.65a1.37,1.37,0,0,0-.44-.86A1.24,1.24,0,0,0,177.09,425Z"/><path class="cls-53" d="M179.26,424.43h3.4v.67h-1.35v3.33h-.69V425.1h-1.36Z"/><path class="cls-53" d="M187.12,428.53a2,2,0,0,1-1.49-.6,2.06,2.06,0,0,1-.6-1.5,2,2,0,0,1,.6-1.5,2.13,2.13,0,0,1,2.55-.32,1.78,1.78,0,0,1,.7.76l-.58.34a1.18,1.18,0,0,0-.46-.51,1.33,1.33,0,0,0-.71-.19,1.35,1.35,0,0,0-1,.41,1.49,1.49,0,0,0,0,2,1.35,1.35,0,0,0,1,.41,1.37,1.37,0,0,0,.72-.19,1.25,1.25,0,0,0,.48-.51l.59.34a2,2,0,0,1-.74.76A2,2,0,0,1,187.12,428.53Z"/><path class="cls-53" d="M194.33,426.09v-1.66H195v4h-.69v-1.67h-2.06v1.67h-.69v-4h.69v1.66Z"/><path class="cls-53" d="M199.36,425.12v-.69h.69v4h-.69v-.69a1.67,1.67,0,0,1-1.5.79,1.89,1.89,0,0,1-1.42-.61,2.19,2.19,0,0,1,0-3,1.9,1.9,0,0,1,1.42-.62A1.67,1.67,0,0,1,199.36,425.12Zm-1.41,2.74a1.37,1.37,0,0,0,1-.41,1.43,1.43,0,0,0,.41-1,1.38,1.38,0,0,0-.41-1,1.42,1.42,0,0,0-2,0,1.38,1.38,0,0,0-.41,1,1.43,1.43,0,0,0,.41,1A1.36,1.36,0,0,0,197.95,427.86Z"/><path class="cls-53" d="M204.34,424.43h.74v4h-.68v-2.9l-1.26,2h-.09l-1.26-2v2.9h-.68v-4h.74l1.25,2Z"/><path class="cls-53" d="M206.82,427.24l2.2-2.81h.56v4h-.68v-2.81l-2.2,2.81h-.56v-4h.68Z"/><path class="cls-53" d="M19.57,247.65a1.5,1.5,0,0,1,.61.54,1.42,1.42,0,0,1,.22.78,1.51,1.51,0,0,1-.47,1.13,1.58,1.58,0,0,1-1.14.46h-2.4V245h2.23a1.51,1.51,0,0,1,1.1.44,1.46,1.46,0,0,1,.45,1.09A1.34,1.34,0,0,1,19.57,247.65Zm-1-2H17.13v1.71h1.49a.78.78,0,0,0,.59-.25.84.84,0,0,0,.24-.61.82.82,0,0,0-.25-.6A.77.77,0,0,0,18.62,245.65Zm-1.49,4.21h1.66a.84.84,0,0,0,.63-.26.9.9,0,0,0,.25-.65.87.87,0,0,0-.26-.64.81.81,0,0,0-.62-.26H17.13Z"/><path class="cls-53" d="M24.52,247.25v-.69h.69v4h-.69v-.69a1.67,1.67,0,0,1-1.5.79,1.89,1.89,0,0,1-1.42-.61,2.19,2.19,0,0,1,0-3,1.9,1.9,0,0,1,1.42-.62A1.67,1.67,0,0,1,24.52,247.25ZM23.11,250a1.37,1.37,0,0,0,1-.41,1.43,1.43,0,0,0,.41-1,1.38,1.38,0,0,0-.41-1,1.42,1.42,0,0,0-2,0,1.38,1.38,0,0,0-.41,1,1.43,1.43,0,0,0,.41,1A1.36,1.36,0,0,0,23.11,250Z"/><path class="cls-53" d="M31,249.89v-3.34h.69v4H26.26v-4H27v3.34h1.68v-3.34h.69v3.34Z"/><path class="cls-53" d="M34.75,246.56h3.44v4H37.5v-3.34H35.44v3.34h-.69Z"/><path class="cls-53" d="M42.59,250.05a2.12,2.12,0,0,1-3,0,2.15,2.15,0,0,1,0-3,2.12,2.12,0,0,1,3,0,2.14,2.14,0,0,1,0,3ZM41.11,250a1.35,1.35,0,0,0,1-.41,1.48,1.48,0,0,0,0-2,1.42,1.42,0,0,0-2,0,1.48,1.48,0,0,0,0,2A1.35,1.35,0,0,0,41.11,250Z"/><path class="cls-53" d="M47.28,246.56v3.34h.55v1.74h-.68v-1.07h-3v1.07h-.68v-1.74H44a2.49,2.49,0,0,0,.38-1.48v-1.86Zm-2.53,3.34H46.6v-2.69H45v1.21A3.51,3.51,0,0,1,44.75,249.89Z"/><path class="cls-53" d="M48.58,246.56H52v4h-.69v-3.34H49.27v3.34h-.69Z"/><path class="cls-53" d="M53.75,249.37l2.2-2.81h.56v4h-.68v-2.81l-2.2,2.81h-.56v-4h.68Z"/><path class="cls-53" d="M59.42,250.66a2,2,0,0,1-1.49-.6,2.06,2.06,0,0,1-.6-1.5,2,2,0,0,1,.6-1.5,2.13,2.13,0,0,1,2.55-.32,1.78,1.78,0,0,1,.7.76l-.58.34a1.18,1.18,0,0,0-.46-.51,1.33,1.33,0,0,0-.71-.19,1.35,1.35,0,0,0-1,.41,1.49,1.49,0,0,0,0,2,1.35,1.35,0,0,0,1,.41,1.37,1.37,0,0,0,.72-.19,1.25,1.25,0,0,0,.48-.51l.59.34a2,2,0,0,1-.74.76A2,2,0,0,1,59.42,250.66Z"/><path class="cls-53" d="M64.32,248.47v-1.91H65v4h-.69v-1.44a2.68,2.68,0,0,1-1.07.21,1.72,1.72,0,0,1-1.18-.37,1.36,1.36,0,0,1-.41-1.07v-1.33h.69v1.29a.79.79,0,0,0,.23.64,1.1,1.1,0,0,0,.72.2A2.54,2.54,0,0,0,64.32,248.47Z"/><path class="cls-53" d="M66.74,249.37l2.2-2.81h.56v4h-.68v-2.81l-2.2,2.81h-.56v-4h.68Z"/><path class="cls-53" d="M71.95,248.49l2,2.06h-.86l-1.81-1.9v1.9h-.69v-4h.69v1.77L73,246.56h.89Z"/><path class="cls-53" d="M16.32,253.56h3.44v4h-.69v-3.34H17v3.34h-.69Z"/><path class="cls-53" d="M23,253.46a1.9,1.9,0,0,1,1.42.62,2.19,2.19,0,0,1,0,3,1.89,1.89,0,0,1-1.42.61,1.68,1.68,0,0,1-1.5-.79v2.29h-.69v-5.6h.69v.69A1.68,1.68,0,0,1,23,253.46ZM22.92,257a1.36,1.36,0,0,0,1-.41,1.43,1.43,0,0,0,.41-1,1.38,1.38,0,0,0-.41-1,1.42,1.42,0,0,0-2,0,1.38,1.38,0,0,0-.41,1,1.43,1.43,0,0,0,.41,1A1.37,1.37,0,0,0,22.92,257Z"/><path class="cls-53" d="M26.52,256.37l2.2-2.81h.56v4H28.6v-2.81l-2.2,2.81h-.56v-4h.68Z"/><path class="cls-53" d="M32.2,257.66a2,2,0,0,1-1.49-.6,2.06,2.06,0,0,1-.6-1.5,2,2,0,0,1,.6-1.5,2.13,2.13,0,0,1,2.55-.32,1.78,1.78,0,0,1,.7.76l-.58.34a1.18,1.18,0,0,0-.46-.51,1.33,1.33,0,0,0-.71-.19,1.35,1.35,0,0,0-1,.41,1.49,1.49,0,0,0,0,2,1.35,1.35,0,0,0,1,.41,1.37,1.37,0,0,0,.72-.19,1.25,1.25,0,0,0,.48-.51l.59.34a2,2,0,0,1-.74.76A2,2,0,0,1,32.2,257.66Z"/><path class="cls-53" d="M38,257.05a2.12,2.12,0,0,1-3,0,2.15,2.15,0,0,1,0-3,2.12,2.12,0,0,1,3,0,2.14,2.14,0,0,1,0,3ZM36.48,257a1.35,1.35,0,0,0,1-.41,1.48,1.48,0,0,0,0-2,1.42,1.42,0,0,0-2,0,1.48,1.48,0,0,0,0,2A1.35,1.35,0,0,0,36.48,257Z"/><path class="cls-53" d="M43.21,255.88H39.88a1.34,1.34,0,0,0,.48.83,1.5,1.5,0,0,0,1,.3,1.24,1.24,0,0,0,1.14-.58l.59.34a2,2,0,0,1-1.75.9,2,2,0,0,1-2.13-2.1,2.06,2.06,0,0,1,.58-1.5,2,2,0,0,1,1.5-.6,1.8,1.8,0,0,1,1.42.62,2.13,2.13,0,0,1,.56,1.49A2.1,2.1,0,0,1,43.21,255.88Zm-2-1.77a1.37,1.37,0,0,0-.92.31,1.35,1.35,0,0,0-.46.85h2.65a1.37,1.37,0,0,0-.44-.86A1.24,1.24,0,0,0,41.26,254.11Z"/><path class="cls-53" d="M47.29,253.56v3.34h.55v1.74h-.68v-1.07h-3v1.07h-.68v-1.74H44a2.49,2.49,0,0,0,.38-1.48v-1.86Zm-2.53,3.34H46.6v-2.69H45v1.21A3.51,3.51,0,0,1,44.76,256.89Z"/><path class="cls-53" d="M49.27,256.37l2.2-2.81H52v4h-.68v-2.81l-2.2,2.81h-.56v-4h.68Z"/><path class="cls-53" d="M55.82,255.22v-1.66h.69v4h-.69v-1.67H53.76v1.67h-.69v-4h.69v1.66Z"/><path class="cls-53" d="M58.25,256.37l2.2-2.81H61v4h-.68v-2.81l-2.2,2.81h-.56v-4h.68Z"/><path class="cls-53" d="M62.42,253.56h2.95v4h-.69v-3.33H63.11v1.63a2,2,0,0,1-.38,1.36,1.29,1.29,0,0,1-1.12.33v-.66a.62.62,0,0,0,.61-.19,1.42,1.42,0,0,0,.2-.87Z"/><path class="cls-53" d="M68.28,257.66a2,2,0,0,1-1.49-.6,2.06,2.06,0,0,1-.6-1.5,2,2,0,0,1,.6-1.5,2.13,2.13,0,0,1,2.55-.32,1.78,1.78,0,0,1,.7.76l-.58.34a1.18,1.18,0,0,0-.46-.51,1.33,1.33,0,0,0-.71-.19,1.35,1.35,0,0,0-1,.41,1.49,1.49,0,0,0,0,2,1.35,1.35,0,0,0,1,.41,1.37,1.37,0,0,0,.72-.19,1.25,1.25,0,0,0,.48-.51l.59.34a2,2,0,0,1-.74.76A2,2,0,0,1,68.28,257.66Z"/><path class="cls-53" d="M72,253.56h1.69v4H73v-1.44h-.58l-1.11,1.44h-.84l1.16-1.48a1.31,1.31,0,0,1-.73-.45,1.27,1.27,0,0,1,.12-1.7A1.37,1.37,0,0,1,72,253.56Zm0,1.94h1v-1.29H72a.73.73,0,0,0-.5.18.6.6,0,0,0-.2.47.59.59,0,0,0,.2.46A.73.73,0,0,0,72,255.49Z"/><path class="cls-53" d="M78.08,255.49l2,2.06h-.86l-1.81-1.9v1.9h-.69v-4h.69v1.77l1.72-1.77H80Z"/><path class="cls-53" d="M85.42,255.22v-1.66h.69v4h-.69v-1.67H83.37v1.67h-.69v-4h.69v1.66Z"/><path class="cls-53" d="M90.45,254.25v-.69h.69v4h-.69v-.69a1.67,1.67,0,0,1-1.5.79,1.89,1.89,0,0,1-1.42-.61,2.19,2.19,0,0,1,0-3,1.9,1.9,0,0,1,1.42-.62A1.67,1.67,0,0,1,90.45,254.25ZM89,257a1.37,1.37,0,0,0,1-.41,1.43,1.43,0,0,0,.41-1,1.38,1.38,0,0,0-.41-1,1.42,1.42,0,0,0-2,0,1.38,1.38,0,0,0-.41,1,1.43,1.43,0,0,0,.41,1A1.36,1.36,0,0,0,89,257Z"/><path class="cls-53" d="M95.43,253.56h.74v4h-.68v-2.9l-1.26,2h-.09l-1.26-2v2.9h-.68v-4h.74l1.25,2Z"/><path class="cls-53" d="M147.52,35.7h4v5.6h-.74V36.4h-2.56v4.9h-.74Z"/><path class="cls-53" d="M156,40.8a2.12,2.12,0,0,1-3,0,2.15,2.15,0,0,1,0-3,2.12,2.12,0,0,1,3,0,2.14,2.14,0,0,1,0,3Zm-1.49-.07a1.35,1.35,0,0,0,1-.41,1.48,1.48,0,0,0,0-2,1.42,1.42,0,0,0-2,0,1.48,1.48,0,0,0,0,2A1.35,1.35,0,0,0,154.55,40.72Z"/><path class="cls-53" d="M160.72,37.3v3.34h.55v1.74h-.68V41.3h-3v1.07h-.68V40.64h.48a2.49,2.49,0,0,0,.38-1.48V37.3Zm-2.53,3.34H160V37.95h-1.57v1.21A3.51,3.51,0,0,1,158.2,40.64Z"/><path class="cls-53" d="M165.67,39.62h-3.33a1.34,1.34,0,0,0,.48.83,1.5,1.5,0,0,0,1,.3,1.24,1.24,0,0,0,1.14-.58l.59.34a2,2,0,0,1-1.75.9,2,2,0,0,1-2.13-2.1,2.06,2.06,0,0,1,.58-1.5,2,2,0,0,1,1.5-.6,1.8,1.8,0,0,1,1.42.62,2.13,2.13,0,0,1,.56,1.49A2.1,2.1,0,0,1,165.67,39.62Zm-2-1.77a1.37,1.37,0,0,0-.92.31,1.35,1.35,0,0,0-.46.85H165a1.37,1.37,0,0,0-.44-.86A1.24,1.24,0,0,0,163.72,37.85Z"/><path class="cls-53" d="M166.7,37.3h2.95v4H169V38h-1.57V39.6A2,2,0,0,1,167,41a1.29,1.29,0,0,1-1.12.33v-.66a.62.62,0,0,0,.61-.19,1.42,1.42,0,0,0,.2-.87Z"/><path class="cls-53" d="M171.38,40.11l2.2-2.81h.56v4h-.68V38.49l-2.2,2.81h-.56v-4h.68Z"/><path class="cls-53" d="M177.05,41.4a2,2,0,0,1-1.49-.6,2.06,2.06,0,0,1-.6-1.5,2,2,0,0,1,.6-1.5,2.13,2.13,0,0,1,2.55-.32,1.78,1.78,0,0,1,.7.76l-.58.34a1.18,1.18,0,0,0-.46-.51,1.33,1.33,0,0,0-.71-.19,1.35,1.35,0,0,0-1,.41,1.49,1.49,0,0,0,0,2,1.35,1.35,0,0,0,1,.41,1.37,1.37,0,0,0,.72-.19,1.25,1.25,0,0,0,.48-.51l.59.34a2,2,0,0,1-.74.76A2,2,0,0,1,177.05,41.4Z"/><path class="cls-53" d="M180.22,38.74h1a1.39,1.39,0,0,1,1,.36,1.17,1.17,0,0,1,.4.92,1.2,1.2,0,0,1-.4.93,1.43,1.43,0,0,1-1,.35h-1.68v-4h.69Zm0,1.91h1a.73.73,0,0,0,.5-.18.58.58,0,0,0,.2-.46.59.59,0,0,0-.2-.46.72.72,0,0,0-.5-.18h-1Z"/><path class="cls-53" d="M187.19,41.4a2,2,0,0,1-1.49-.6,2.06,2.06,0,0,1-.6-1.5,2,2,0,0,1,.6-1.5,2.13,2.13,0,0,1,2.55-.32,1.78,1.78,0,0,1,.7.76l-.58.34a1.18,1.18,0,0,0-.46-.51,1.33,1.33,0,0,0-.71-.19,1.35,1.35,0,0,0-1,.41,1.49,1.49,0,0,0,0,2,1.35,1.35,0,0,0,1,.41,1.37,1.37,0,0,0,.72-.19,1.25,1.25,0,0,0,.48-.51l.59.34a2,2,0,0,1-.74.76A2,2,0,0,1,187.19,41.4Z"/><path class="cls-53" d="M192.32,39.24a.93.93,0,0,1,.61.93,1.06,1.06,0,0,1-.33.82,1.33,1.33,0,0,1-.94.31h-2v-4h1.83a1.33,1.33,0,0,1,.92.3,1,1,0,0,1,.33.79A1,1,0,0,1,192.32,39.24Zm-.85-1.32h-1.12v1h1.12q.6,0,.6-.54T191.47,37.92Zm-1.12,2.74h1.27a.68.68,0,0,0,.46-.14.51.51,0,0,0,.16-.41.49.49,0,0,0-.16-.39.7.7,0,0,0-.46-.14h-1.27Z"/><path class="cls-53" d="M197,40.8a2.12,2.12,0,0,1-3,0,2.15,2.15,0,0,1,0-3,2.12,2.12,0,0,1,3,0,2.14,2.14,0,0,1,0,3Zm-1.49-.07a1.35,1.35,0,0,0,1-.41,1.48,1.48,0,0,0,0-2,1.42,1.42,0,0,0-2,0,1.48,1.48,0,0,0,0,2A1.35,1.35,0,0,0,195.55,40.72Z"/><path class="cls-53" d="M202.28,39.62h-3.33a1.34,1.34,0,0,0,.48.83,1.5,1.5,0,0,0,1,.3,1.24,1.24,0,0,0,1.14-.58l.59.34a2,2,0,0,1-1.75.9,2,2,0,0,1-2.13-2.1,2.06,2.06,0,0,1,.58-1.5,2,2,0,0,1,1.5-.6,1.8,1.8,0,0,1,1.42.62,2.13,2.13,0,0,1,.56,1.49A2.1,2.1,0,0,1,202.28,39.62Zm-2-1.77a1.37,1.37,0,0,0-.92.31,1.35,1.35,0,0,0-.46.85h2.65a1.37,1.37,0,0,0-.44-.86A1.24,1.24,0,0,0,200.32,37.85Z"/><path class="cls-53" d="M203.78,40.11,206,37.3h.56v4h-.68V38.49l-2.2,2.81h-.56v-4h.68Zm2.11-3.41h-2.15v-.61h2.15Z"/><path class="cls-53" d="M149.65,44.2a1.9,1.9,0,0,1,1.42.62,2.19,2.19,0,0,1,0,3,1.89,1.89,0,0,1-1.42.61,1.68,1.68,0,0,1-1.5-.79V49.9h-.69V44.3h.69V45A1.68,1.68,0,0,1,149.65,44.2Zm-.09,3.54a1.36,1.36,0,0,0,1-.41,1.43,1.43,0,0,0,.41-1,1.38,1.38,0,0,0-.41-1,1.42,1.42,0,0,0-2,0,1.38,1.38,0,0,0-.41,1,1.43,1.43,0,0,0,.41,1A1.37,1.37,0,0,0,149.56,47.73Z"/><path class="cls-53" d="M156.3,46.62H153a1.34,1.34,0,0,0,.48.83,1.5,1.5,0,0,0,1,.3,1.24,1.24,0,0,0,1.14-.58l.59.34a2,2,0,0,1-1.75.9,2,2,0,0,1-2.13-2.1,2.06,2.06,0,0,1,.58-1.5,2,2,0,0,1,1.5-.6,1.8,1.8,0,0,1,1.42.62,2.13,2.13,0,0,1,.56,1.49A2.1,2.1,0,0,1,156.3,46.62Zm-2-1.77a1.37,1.37,0,0,0-.92.31A1.35,1.35,0,0,0,153,46h2.65a1.37,1.37,0,0,0-.44-.86A1.24,1.24,0,0,0,154.34,44.85Z"/><path class="cls-53" d="M159.61,48.38V49.9h-.68V48.38a2.35,2.35,0,0,1-1.49-.68,2,2,0,0,1,0-2.8,2.35,2.35,0,0,1,1.49-.68V42.7h.68v1.52a2.35,2.35,0,0,1,1.49.68,2,2,0,0,1,0,2.8A2.35,2.35,0,0,1,159.61,48.38Zm-2-2.08a1.31,1.31,0,0,0,.36.94,1.64,1.64,0,0,0,1,.47V44.89a1.61,1.61,0,0,0-1,.46A1.31,1.31,0,0,0,157.57,46.3Zm2-1.41v2.82a1.63,1.63,0,0,0,1-.47,1.4,1.4,0,0,0,0-1.88A1.63,1.63,0,0,0,159.61,44.89Z"/><path class="cls-53" d="M166.29,46.62H163a1.34,1.34,0,0,0,.48.83,1.5,1.5,0,0,0,1,.3,1.24,1.24,0,0,0,1.14-.58l.59.34a2,2,0,0,1-1.75.9,2,2,0,0,1-2.13-2.1,2.06,2.06,0,0,1,.58-1.5,2,2,0,0,1,1.5-.6,1.8,1.8,0,0,1,1.42.62,2.13,2.13,0,0,1,.56,1.49A2.1,2.1,0,0,1,166.29,46.62Zm-2-1.77a1.37,1.37,0,0,0-.92.31A1.35,1.35,0,0,0,163,46h2.65a1.37,1.37,0,0,0-.44-.86A1.24,1.24,0,0,0,164.33,44.85Z"/><path class="cls-53" d="M169.3,44.2a1.9,1.9,0,0,1,1.42.62,2.19,2.19,0,0,1,0,3,1.89,1.89,0,0,1-1.42.61,1.68,1.68,0,0,1-1.5-.79V49.9h-.69V44.3h.69V45A1.68,1.68,0,0,1,169.3,44.2Zm-.09,3.54a1.36,1.36,0,0,0,1-.41,1.43,1.43,0,0,0,.41-1,1.38,1.38,0,0,0-.41-1,1.42,1.42,0,0,0-2,0,1.38,1.38,0,0,0-.41,1,1.43,1.43,0,0,0,.41,1A1.37,1.37,0,0,0,169.21,47.73Z"/><path class="cls-53" d="M175.42,45V44.3h.69v4h-.69v-.69a1.67,1.67,0,0,1-1.5.79,1.89,1.89,0,0,1-1.42-.61,2.19,2.19,0,0,1,0-3,1.9,1.9,0,0,1,1.42-.62A1.67,1.67,0,0,1,175.42,45ZM174,47.73a1.37,1.37,0,0,0,1-.41,1.43,1.43,0,0,0,.41-1,1.38,1.38,0,0,0-.41-1,1.42,1.42,0,0,0-2,0,1.38,1.38,0,0,0-.41,1,1.43,1.43,0,0,0,.41,1A1.36,1.36,0,0,0,174,47.73Z"/><path class="cls-53" d="M177.53,44.3h2.95v4h-.69V45h-1.57V46.6a2,2,0,0,1-.38,1.36,1.29,1.29,0,0,1-1.12.33v-.66a.62.62,0,0,0,.61-.19,1.42,1.42,0,0,0,.2-.87Z"/><path class="cls-53" d="M182.22,45.74h1a1.39,1.39,0,0,1,1,.36,1.17,1.17,0,0,1,.4.92,1.2,1.2,0,0,1-.4.93,1.43,1.43,0,0,1-1,.35h-1.68v-4h.69Zm0,1.91h1a.73.73,0,0,0,.5-.18.58.58,0,0,0,.2-.46.59.59,0,0,0-.2-.46.72.72,0,0,0-.5-.18h-1Z"/><path class="cls-53" d="M188.08,46V44.3h.69v4h-.69V46.63H186V48.3h-.69v-4H186V46Z"/><path class="cls-53" d="M193.18,47.8a2.12,2.12,0,0,1-3,0,2.15,2.15,0,0,1,0-3,2.12,2.12,0,0,1,3,0,2.14,2.14,0,0,1,0,3Zm-1.49-.07a1.35,1.35,0,0,0,1-.41,1.48,1.48,0,0,0,0-2,1.42,1.42,0,0,0-2,0,1.48,1.48,0,0,0,0,2A1.35,1.35,0,0,0,191.69,47.72Z"/><path class="cls-53" d="M195.29,47.11l2.2-2.81H198v4h-.68V45.49l-2.2,2.81h-.56v-4h.68Zm2.11-3.41h-2.15v-.61h2.15Z"/><path class="cls-53" d="M203,48.4a2,2,0,0,1-1.49-.6,2.06,2.06,0,0,1-.6-1.5,2,2,0,0,1,.6-1.5,2.13,2.13,0,0,1,2.55-.32,1.78,1.78,0,0,1,.7.76l-.58.34a1.18,1.18,0,0,0-.46-.51,1.33,1.33,0,0,0-.71-.19,1.35,1.35,0,0,0-1,.41,1.49,1.49,0,0,0,0,2,1.35,1.35,0,0,0,1,.41,1.37,1.37,0,0,0,.72-.19,1.25,1.25,0,0,0,.48-.51l.59.34a2,2,0,0,1-.74.76A2,2,0,0,1,203,48.4Z"/><path class="cls-53" d="M207.23,48.4a2,2,0,0,1-1.49-.6,2.06,2.06,0,0,1-.6-1.5,2,2,0,0,1,.6-1.5,2.13,2.13,0,0,1,2.55-.32,1.78,1.78,0,0,1,.7.76l-.58.34a1.18,1.18,0,0,0-.46-.51,1.33,1.33,0,0,0-.71-.19,1.35,1.35,0,0,0-1,.41,1.49,1.49,0,0,0,0,2,1.35,1.35,0,0,0,1,.41,1.37,1.37,0,0,0,.72-.19,1.25,1.25,0,0,0,.48-.51l.59.34a2,2,0,0,1-.74.76A2,2,0,0,1,207.23,48.4Z"/><path class="cls-53" d="M210.41,45.74h1a1.39,1.39,0,0,1,1,.36,1.17,1.17,0,0,1,.4.92,1.2,1.2,0,0,1-.4.93,1.43,1.43,0,0,1-1,.35h-1.68v-4h.69Zm0,1.91h1a.73.73,0,0,0,.5-.18.58.58,0,0,0,.2-.46.59.59,0,0,0-.2-.46.72.72,0,0,0-.5-.18h-1Zm2.88.65v-4H214v4Z"/><path class="cls-53" d="M215.4,44.3h2.95v4h-.69V45H216.1V46.6a2,2,0,0,1-.38,1.36,1.29,1.29,0,0,1-1.12.33v-.66a.62.62,0,0,0,.61-.19,1.42,1.42,0,0,0,.2-.87Z"/><path class="cls-53" d="M220.8,46.24l2,2.06h-.86l-1.81-1.9v1.9h-.69v-4h.69v1.77l1.72-1.77h.89Z"/><path class="cls-53" d="M226.39,47.8a2.12,2.12,0,0,1-3,0,2.15,2.15,0,0,1,0-3,2.12,2.12,0,0,1,3,0,2.14,2.14,0,0,1,0,3Zm-1.49-.07a1.35,1.35,0,0,0,1-.41,1.48,1.48,0,0,0,0-2,1.42,1.42,0,0,0-2,0,1.48,1.48,0,0,0,0,2A1.35,1.35,0,0,0,224.91,47.72Z"/><path class="cls-53" d="M228.51,47.11l2.2-2.81h.56v4h-.68V45.49l-2.2,2.81h-.56v-4h.68Zm2.11-3.41h-2.15v-.61h2.15Z"/></svg>