<svg xmlns="http://www.w3.org/2000/svg" xmlns:xlink="http://www.w3.org/1999/xlink" viewBox="0 0 307.94 231.55"><defs><style>.cls-1{fill:none;}.cls-2{isolation:isolate;}.cls-3{clip-path:url(#clip-path);}.cls-37,.cls-4{fill:#fff;}.cls-5{fill:#f5f5f5;}.cls-6{clip-path:url(#clip-path-2);}.cls-7{fill:#7f7dae;}.cls-10,.cls-8{fill:#1ee5ce;}.cls-9{clip-path:url(#clip-path-3);}.cls-10{fill-rule:evenodd;}.cls-11{clip-path:url(#clip-path-5);}.cls-12{fill:#3a3a3a;}.cls-13{fill:#898989;}.cls-14{clip-path:url(#clip-path-6);}.cls-15{fill:#dd873f;}.cls-16{fill:#d39d91;}.cls-17{fill:#ffd7d0;}.cls-18{fill:#ffbbb8;}.cls-19{fill:#c37969;}.cls-20{fill:#d7721d;}.cls-21{clip-path:url(#clip-path-7);}.cls-22{fill:#b47b55;}.cls-23{fill:#f2f0eb;}.cls-24{fill:#ecd08f;}.cls-25{fill:#a8663a;}.cls-26{fill:#6e6666;}.cls-27{fill:#e5be64;}.cls-28{clip-path:url(#clip-path-8);}.cls-29{fill:#afc0d4;}.cls-30{fill:#a37c6a;}.cls-31{fill:#ffc6ae;}.cls-32{fill:#ffa893;}.cls-33{fill:#c7d3e1;}.cls-34{fill:#91624c;}.cls-35{font-size:2.03px;fill:#8d19e0;font-family:Code-Pro-LC, Code Pro LC;letter-spacing:-0.03em;}.cls-36{letter-spacing:-0.03em;}.cls-37{letter-spacing:-0.03em;}.cls-38{fill:url(#Безымянный_градиент_32);}.cls-39,.cls-41{mix-blend-mode:multiply;}.cls-40{fill:url(#linear-gradient);}.cls-41{fill:url(#linear-gradient-2);}</style><clipPath id="clip-path"><path class="cls-1" d="M62.06,44.87H250.52a4.85,4.85,0,0,1,4.92,4.86V168.41a4.9,4.9,0,0,1-4.92,4.92H62.06a4.94,4.94,0,0,1-4.92-4.92V49.73a4.89,4.89,0,0,1,4.92-4.86Z"/></clipPath><clipPath id="clip-path-2"><rect class="cls-1" x="64.76" y="92.15" width="120.9" height="74.1"/></clipPath><clipPath id="clip-path-3"><rect class="cls-1" x="178.34" y="160.91" width="3.96" height="3.96"/></clipPath><clipPath id="clip-path-5"><rect class="cls-1" x="34.94" y="50.03" width="243.72" height="137.64"/></clipPath><clipPath id="clip-path-6"><path class="cls-1" d="M217.37,164.39a27.15,27.15,0,1,1-27.12,27.12,27.1,27.1,0,0,1,27.12-27.12Z"/></clipPath><clipPath id="clip-path-7"><path class="cls-1" d="M37,44.93a26,26,0,1,1-26,26,25.91,25.91,0,0,1,26-26Z"/></clipPath><clipPath id="clip-path-8"><path class="cls-1" d="M258.14,11.63A36.84,36.84,0,1,1,221.3,48.47a36.77,36.77,0,0,1,36.84-36.84Z"/></clipPath><linearGradient id="Безымянный_градиент_32" x1="174.57" y1="95.43" x2="172.2" y2="93.06" gradientUnits="userSpaceOnUse"><stop offset="0" stop-color="#aa2afc"/><stop offset="1" stop-color="#5f009e"/></linearGradient><linearGradient id="linear-gradient" x1="174.08" y1="94.8" x2="173.5" y2="94.47" gradientUnits="userSpaceOnUse"><stop offset="0" stop-color="#0d2b85"/><stop offset="1" stop-color="#fff"/></linearGradient><linearGradient id="linear-gradient-2" x1="173.17" y1="95.26" x2="172.6" y2="94.73" xlink:href="#linear-gradient"/></defs><title>publishers-features-6_vv</title><g class="cls-2"><g id="Слой_1" data-name="Слой 1"><g class="cls-3"><rect class="cls-4" x="57.08" y="44.81" width="198.36" height="366.48"/><path class="cls-5" d="M65.66,52.61H184.94a.79.79,0,0,1,.78.78v3.06a.76.76,0,0,1-.78.78H65.66a.76.76,0,0,1-.78-.78V53.39a.79.79,0,0,1,.78-.78Z"/><path class="cls-5" d="M189.62,52.61h57.3a.79.79,0,0,1,.78.78v3.06a.76.76,0,0,1-.78.78h-57.3a.72.72,0,0,1-.78-.78V53.39a.76.76,0,0,1,.78-.78Z"/><path class="cls-5" d="M189.62,140.87h57.3a.79.79,0,0,1,.78.78v3.12a.79.79,0,0,1-.78.78h-57.3a.76.76,0,0,1-.78-.78v-3.12a.76.76,0,0,1,.78-.78Z"/><path class="cls-5" d="M189.62,59.57h57.3a.79.79,0,0,1,.78.78v3.12a.74.74,0,0,1-.78.72h-57.3a.71.71,0,0,1-.78-.72V60.35a.76.76,0,0,1,.78-.78Z"/><path class="cls-5" d="M189.62,147.89h57.3a.76.76,0,0,1,.78.78v3.06a.79.79,0,0,1-.78.78h-57.3a.76.76,0,0,1-.78-.78v-3.06a.72.72,0,0,1,.78-.78Z"/><path class="cls-5" d="M189.62,66.53h57.3a.79.79,0,0,1,.78.78v3.12a.79.79,0,0,1-.78.78h-57.3a.76.76,0,0,1-.78-.78V67.31a.76.76,0,0,1,.78-.78Z"/><path class="cls-5" d="M189.62,154.85h57.3a.79.79,0,0,1,.78.78v3.06a.79.79,0,0,1-.78.78h-57.3a.76.76,0,0,1-.78-.78v-3.06a.76.76,0,0,1,.78-.78Z"/><path class="cls-5" d="M189.62,73.49h57.3a.79.79,0,0,1,.78.78v3.12a.79.79,0,0,1-.78.78h-57.3a.76.76,0,0,1-.78-.78V74.27a.76.76,0,0,1,.78-.78Z"/><path class="cls-5" d="M189.62,161.81h57.3a.79.79,0,0,1,.78.78v3.12a.74.74,0,0,1-.78.72h-57.3a.71.71,0,0,1-.78-.72v-3.12a.76.76,0,0,1,.78-.78Z"/><path class="cls-5" d="M189.62,80.51h57.3a.74.74,0,0,1,.78.72v3.12a.79.79,0,0,1-.78.78h-57.3a.76.76,0,0,1-.78-.78V81.23a.71.71,0,0,1,.78-.72Z"/><path class="cls-5" d="M189.62,168.77h57.3a.79.79,0,0,1,.78.78v3.12a.79.79,0,0,1-.78.78h-57.3a.76.76,0,0,1-.78-.78v-3.12a.76.76,0,0,1,.78-.78Z"/><path class="cls-5" d="M189.62,87.47h57.3a.76.76,0,0,1,.78.78v3.06a.79.79,0,0,1-.78.78h-57.3a.76.76,0,0,1-.78-.78V88.25a.72.72,0,0,1,.78-.78Z"/><path class="cls-5" d="M189.62,96.77h57.3a.76.76,0,0,1,.78.78v37.92a.79.79,0,0,1-.78.78h-57.3a.76.76,0,0,1-.78-.78V97.55a.72.72,0,0,1,.78-.78Z"/><path class="cls-5" d="M65.66,59.57H184.94a.79.79,0,0,1,.78.78v3.12a.74.74,0,0,1-.78.72H65.66a.74.74,0,0,1-.78-.72V60.35a.79.79,0,0,1,.78-.78Z"/><path class="cls-5" d="M65.66,66.53H184.94a.79.79,0,0,1,.78.78v3.12a.79.79,0,0,1-.78.78H65.66a.79.79,0,0,1-.78-.78V67.31a.79.79,0,0,1,.78-.78Z"/><path class="cls-5" d="M65.66,73.49H184.94a.79.79,0,0,1,.78.78v3.12a.79.79,0,0,1-.78.78H65.66a.79.79,0,0,1-.78-.78V74.27a.79.79,0,0,1,.78-.78Z"/><path class="cls-5" d="M65.66,80.51H184.94a.74.74,0,0,1,.78.72v3.12a.79.79,0,0,1-.78.78H65.66a.79.79,0,0,1-.78-.78V81.23a.74.74,0,0,1,.78-.72Z"/><path class="cls-5" d="M65.66,87.47H123a.72.72,0,0,1,.78.78v3.06a.76.76,0,0,1-.78.78H65.66a.79.79,0,0,1-.78-.78V88.25a.76.76,0,0,1,.78-.78Z"/><path class="cls-5" d="M65.66,168.83H184.94a.74.74,0,0,1,.78.72v3.12a.79.79,0,0,1-.78.78H65.66a.79.79,0,0,1-.78-.78v-3.12a.74.74,0,0,1,.78-.72Z"/></g><g class="cls-6"><rect x="64.76" y="97.85" width="120.9" height="68.4"/><rect class="cls-7" x="64.76" y="104.51" width="121.08" height="54.84"/><rect class="cls-4" x="79.47" y="128.18" width="14.46" height="9.36"/><path class="cls-8" d="M86.73,121.16l-9.3,3.36V132c0,8.46,9,10.8,9.06,10.8l.24.06.18-.06c.06,0,9.06-2.34,9.06-10.8v-7.5Zm-1.56,15.06-3.66-3.66,1.08-1.08L85.17,134l5.64-5.64,1.08,1.14Z"/></g><g class="cls-9"><path class="cls-4" d="M178.94,161.45c-.06.12-.06.18,0,.24l.6.6-.06.06H179a.16.16,0,0,0-.18.18v.66c0,.06.06.12.18.12h.48l.54.54c.12.12.3.06.3-.06v-.72l.66.72c-.06.06-.18.06-.24.12s-.12.06-.12.18.12.18.24.12a1.26,1.26,0,0,0,.36-.24l.24.24a.11.11,0,0,0,.18,0,.12.12,0,0,0,0-.24l-2.46-2.52a.18.18,0,0,0-.24,0Zm2.52,1.38c0,.18-.06.3-.06.42l.24.24a2.16,2.16,0,0,0,.12-.66,1.48,1.48,0,0,0-1-1.38.19.19,0,0,0-.18.18h0c0,.06.06.12.12.18a1,1,0,0,1,.72,1Zm-1.44-1v.06l.3.3v-.24a.18.18,0,0,0-.3-.12Zm1,1a.74.74,0,0,0-.42-.66v.3l.42.42v-.06Z"/></g><g class="cls-6"><path class="cls-10" d="M64.76,165.65h41a.3.3,0,0,1,0,.6h-41Z"/><path d="M170.9,93.71a1.55,1.55,0,0,1,1.56-1.56h11.76a1.55,1.55,0,0,1,1.56,1.56v4.14H170.9Z"/></g><g class="cls-11"><path d="M255,50H58.58a8,8,0,0,0-8,8V169.43a8,8,0,0,0,8,8H255a8,8,0,0,0,8-8V58a8,8,0,0,0-8-8ZM58.4,169.91V57.53H255.2V169.91Z"/><path class="cls-12" d="M34.94,177.35v4.86c0,3,4.92,5.46,10.92,5.46H267.74c6,0,10.92-2.46,10.92-5.46v-4.86Z"/><path class="cls-13" d="M143.36,177.41v.72c0,.42.54.78,1.2.78H169c.66,0,1.2-.36,1.2-.78v-.72Z"/></g><g class="cls-14"><path class="cls-7" d="M217.4,164.39a27.15,27.15,0,1,1-27.12,27.12,27.1,27.1,0,0,1,27.12-27.12Z"/><path class="cls-1" d="M217.4,164.39a27.15,27.15,0,1,1-27.12,27.12,27.1,27.1,0,0,1,27.12-27.12Z"/><path class="cls-15" d="M206.06,193.67a10,10,0,0,1,.36,2.28,2.41,2.41,0,0,1-1,2,32.41,32.41,0,0,0,7.62.6,4.45,4.45,0,0,0,1.5-.3,3.8,3.8,0,0,0,1.56-2.94c.24-1.8.36-3.6.42-5.4.12-2.64.24-5.34.36-8,.06-1.38.06-2.94-.9-4a5,5,0,0,0-2.7-1.14c-1.56-.24-3.42-2.76-4.44-1.44a15.11,15.11,0,0,0-2.7,5.94,26.09,26.09,0,0,0-.06,12.36Z"/><path class="cls-15" d="M228.62,193.67a7.54,7.54,0,0,0-.36,2.28,2.34,2.34,0,0,0,1,2,32.66,32.66,0,0,1-7.62.6,4.5,4.5,0,0,1-1.56-.3,3.58,3.58,0,0,1-1.5-2.94,40.91,40.91,0,0,1-.42-5.4c-.12-2.64-.24-5.34-.36-8-.06-1.38-.06-2.94.9-4a5,5,0,0,1,2.7-1.14c1.56-.24,3.36-2.76,4.38-1.44a13.51,13.51,0,0,1,2.7,5.94,25.34,25.34,0,0,1,.12,12.36Z"/><path class="cls-16" d="M236.66,206.87c-2.1-2.28-8.46-4.08-8.46-4.08l-6.42-1.56h-8.7l-4.68,1.08s-5.94.72-9.3,3.6c-1.14,1-3.42,8.46-3.42,12.78h43.44c-.72-6.18-1.5-10.8-2.46-11.82Z"/><path class="cls-17" d="M223.4,204.83l-1.62-3.6h-8.7l-.9,3.66a27,27,0,0,0,11.22-.06Z"/><path class="cls-4" d="M212.18,204.89v13.8H223.4V204.83a27,27,0,0,1-11.22.06Z"/><path class="cls-15" d="M227.72,186.17c2.28-9.9-3.84-14.16-10.38-14.16s-12.66,4.26-10.38,14.16Z"/><polygon class="cls-17" points="221.36 195.53 213.5 195.53 213.08 201.23 221.78 201.23 221.36 195.53"/><path class="cls-18" d="M213.5,195.53l-.3,4s6.18-1.32,8.16-4Z"/><path class="cls-17" d="M225.44,182.45c0,1.68.06,3.24.06,3.9.06,2.52-.18,6.18-3.36,8.7a8.2,8.2,0,0,1-4.74,2c-1.68.06-3.42-1-4.86-2-3.18-2.52-3.42-6.18-3.36-8.7,0-.72.06-2.46.06-4.26.12-2.64,2.88-5.4,8.16-5.4s8,3.3,8,5.76Z"/><path class="cls-15" d="M214.88,183.95h-.06a4.09,4.09,0,0,0-2.4,0,.36.36,0,0,1-.24-.06.13.13,0,0,1-.12-.12v-.24c.06-.06.12-.12.18-.12a4.8,4.8,0,0,1,2.76,0,.13.13,0,0,1,.12.12.22.22,0,0,1,.06.18c0,.06-.06.12-.12.18s-.06.06-.18.06Z"/><path class="cls-15" d="M222.5,183.95h-.06a4.09,4.09,0,0,0-2.4,0,.36.36,0,0,1-.24-.06.13.13,0,0,1-.12-.12v-.24c.06-.06.12-.12.18-.12a4.8,4.8,0,0,1,2.76,0,.13.13,0,0,1,.12.12.22.22,0,0,1,.06.18c0,.06-.06.12-.12.18s-.06.06-.18.06Z"/><path class="cls-17" d="M227.66,186A1.76,1.76,0,0,0,225.2,185l-.42,6.48c1.74-1.14,3.48-3.18,2.88-5.4Z"/><path class="cls-19" d="M232.94,214.37l-.36-.06c-.06,1.14-.12,2.64-.24,4.38h.36c.12-1.74.18-3.24.24-4.32Z"/><path class="cls-19" d="M201.5,213.53c.24,1.56.42,3.42.54,5.16h.42c-.18-1.74-.36-3.66-.6-5.22Z"/><path class="cls-15" d="M226.7,183.65l-1.26,1.26s-3-6.48-6-8.22a4,4,0,0,1,4.56.3c2.16,1.8,2.7,6.66,2.7,6.66Z"/><path class="cls-20" d="M219.32,176.87a13.42,13.42,0,0,0-5.64.42,4.58,4.58,0,0,1,3.18-1.68,2.63,2.63,0,0,1,2.46,1.26Z"/><path class="cls-15" d="M217.22,176a6.73,6.73,0,0,0-4.2,2.1,11.46,11.46,0,0,0-2.76,6.12,29,29,0,0,0,.12,6.84,7.3,7.3,0,0,1-.3,3.78,2.41,2.41,0,0,1-3.18,1.26c.84-1.62,2-3.84,1.44-5.58-1.5-4.8-2.28-10.08,1.08-13.86a7.8,7.8,0,0,1,4-2.58c1.56-.3,5.76.78,5.88,2.82a2.64,2.64,0,0,0-2.1-.9Z"/><path class="cls-20" d="M220.22,176.87l-.24-.3a15.69,15.69,0,0,0,2.22-2.64l.3.24a19.41,19.41,0,0,1-2.28,2.7Z"/><path class="cls-20" d="M226,183.17c-.36-2.22-1-4.92-2.52-6.3l.3-.3c1.56,1.5,2.16,4.26,2.58,6.54Z"/><path class="cls-20" d="M219.26,176.33a6.47,6.47,0,0,0-6.48-2.16l-.06-.36a6.67,6.67,0,0,1,6.78,2.34Z"/><path class="cls-20" d="M207.38,195.77l-.06-.06a.06.06,0,0,1-.06-.06c-.06-.06-.06-.06-.06-.12l.06-.06c.9-1.2,1.14-2.82.84-4.92-.12-.84-.3-1.62-.48-2.46a17.55,17.55,0,0,1-.66-3.54,9.14,9.14,0,0,1,.6-4.14l.3.18a8.8,8.8,0,0,0-.54,3.9A17.55,17.55,0,0,0,208,188c.18.78.36,1.62.48,2.46a7,7,0,0,1-.72,4.86,2.92,2.92,0,0,0,2.58-2.1l.36.12c-.6,2.34-3.24,2.4-3.3,2.4Z"/><path class="cls-20" d="M226.7,195.95a6.59,6.59,0,0,1-1.92-3.66l.36-.06a6.51,6.51,0,0,0,1.8,3.48Z"/><rect class="cls-1" x="195.68" y="172.01" width="43.44" height="46.68"/></g><path class="cls-8" d="M239.66,204.71l-7.74,2.82v6.3c0,7,7.56,8.94,7.62,9h.3c.06-.06,7.56-2,7.56-9v-6.3Zm-1.26,12.6-3.06-3.06,1-.9,2.1,2.1,4.68-4.68,1,.9Z"/><g class="cls-21"><path class="cls-7" d="M37,44.93a26,26,0,1,1-26,26,25.91,25.91,0,0,1,26-26Z"/><path class="cls-1" d="M37,44.93a26,26,0,1,1-26,26,25.91,25.91,0,0,1,26-26Z"/><path class="cls-22" d="M26.84,59.69c-.48,6.84,1.26,19.86-1.5,22.26l25.08.72s-1.56-.9-1.56-5.76c0-2.46.48-14.76-1.56-19.38Z"/><path class="cls-23" d="M46.94,81.35s-1.92-.72-3.78-1.26c-1.08,1-3.24,1.68-5.64,1.68S33,81.11,31.88,80l-1.5.36-4.5,11.22s-.42,2.16-.84,5.28H46.28Z"/><polygon class="cls-17" points="36.08 80.99 39.2 80.99 37.52 84.59 36.08 80.99"/><path class="cls-17" d="M37.52,81.77c2.4,0,4.56-.66,5.64-1.68a6.71,6.71,0,0,0-1.38-.36H33.26s-.6.12-1.38.3c1.08,1.08,3.18,1.74,5.64,1.74Z"/><path class="cls-22" d="M47.6,65.09c1.8-10.86-4.86-12-4.86-12a5.89,5.89,0,0,0-5-2.46c-6.42,0-12.78,4.92-10.56,14.46Z"/><polygon class="cls-17" points="41.36 74.21 33.68 74.21 33.26 79.73 41.84 80.33 41.36 74.21"/><path class="cls-18" d="M33.68,74.21,33.38,78s6-1.26,8-3.84Z"/><path class="cls-17" d="M45.38,61.55c0,1.56.06,3.06.06,3.72.06,2.46-.18,6-3.3,8.46a8.35,8.35,0,0,1-4.62,2,8.13,8.13,0,0,1-4.8-2c-3.18-2.46-3.42-6-3.36-8.46.06-.66.12-2.34.12-4.08.12-2.64,2.82-5.28,8-5.28s7.86,3.18,7.86,5.64Z"/><path class="cls-22" d="M35.06,62.93h-.12a3.89,3.89,0,0,0-2.34,0h-.24l-.06-.06c-.06-.06-.06-.06-.06-.12v-.18a.06.06,0,0,1,.06-.06c.06-.06.06-.06.12-.06a4.16,4.16,0,0,1,2.7,0,.21.21,0,0,1,.12.06c.06.06.06.12.06.24a.13.13,0,0,1-.12.12c0,.06-.06.06-.12.06Z"/><path class="cls-22" d="M42.5,62.93h-.06a4.09,4.09,0,0,0-2.4,0c-.06.06-.12,0-.18,0s-.12-.12-.12-.18a.11.11,0,0,1,0-.18.13.13,0,0,1,.12-.12,4.34,4.34,0,0,1,2.76,0c.06,0,.06.06.12.12s.06.12.06.18a.13.13,0,0,1-.12.12.22.22,0,0,1-.18.06Z"/><path class="cls-17" d="M47.6,65a1.83,1.83,0,0,0-2.46-1l-.42,6.24c1.68-1.08,3.48-3,2.88-5.22Z"/><path class="cls-24" d="M54.86,84.89a21.35,21.35,0,0,0-5-2.88,35.77,35.77,0,0,0-6.66-1.92s.12,7.56.12,13.62c0,.9-.06,2-.12,3.18H57.32c-.42-6.18-1.14-11-2.46-12Z"/><path class="cls-24" d="M30.38,80.39s-7.44,1.44-10.32,4.38c-1.26,1.32-2.16,6.48-3.3,12.12h14.1c.42-12.9,1-16.86,1-16.86Z"/><path class="cls-25" d="M39.2,56.51s-5.64-.48-7.62,1.74a5.27,5.27,0,0,1,4.56-3.12c3.18,0,3.06,1.38,3.06,1.38Z"/><path class="cls-26" d="M33.5,67.79A2.67,2.67,0,0,1,30.74,65c0-1.62,1.38-1.86,2.76-1.86s2.82.24,2.82,1.86a2.77,2.77,0,0,1-2.82,2.76Zm0-4.26c-1.74,0-2.4.42-2.4,1.5a2.49,2.49,0,0,0,.18,1,3.4,3.4,0,0,0,.48.78,2.52,2.52,0,0,0,.84.54,2.41,2.41,0,0,0,.9.18,2.49,2.49,0,0,0,1-.18,1.83,1.83,0,0,0,.78-.54,2.28,2.28,0,0,0,.54-.78A2.49,2.49,0,0,0,36,65c0-1.08-.66-1.5-2.46-1.5Z"/><path class="cls-26" d="M41.24,67.79A2.67,2.67,0,0,1,38.48,65c0-1.62,1.38-1.86,2.76-1.86s2.82.24,2.82,1.86a2.77,2.77,0,0,1-2.82,2.76Zm0-4.26c-1.74,0-2.4.42-2.4,1.5A2.49,2.49,0,0,0,39,66a3.4,3.4,0,0,0,.48.78,2.52,2.52,0,0,0,.84.54,2.41,2.41,0,0,0,.9.18,2.49,2.49,0,0,0,1-.18,1.83,1.83,0,0,0,.78-.54,2.28,2.28,0,0,0,.54-.78,2.49,2.49,0,0,0,.18-1c0-1.08-.66-1.5-2.46-1.5Z"/><path class="cls-26" d="M38.6,64.79a4.09,4.09,0,0,0-2.4,0l-.12-.3a4,4,0,0,1,2.64,0Z"/><polygon class="cls-26" points="45.38 63.59 43.82 64.19 43.94 64.49 45.5 63.95 45.38 63.59"/><polygon class="cls-26" points="29.48 63.65 29.36 64.01 30.98 64.49 31.1 64.19 29.48 63.65"/><path class="cls-22" d="M39.2,56.51c-.66-.6-1.68-1.68-3.06-1.38a7.23,7.23,0,0,0-5.76,7.38c0,2.52,1.32,5.58,1.2,8.1a4,4,0,0,1-1.68,2.64,3,3,0,0,1-1.92.42s1.68-.12,1-2.58-2.52-11.22.24-14.4,7.74-3.48,9.72-1.56Z"/><path class="cls-25" d="M39.32,56.21l-.24-.3a8.71,8.71,0,0,0,2.7-2.64l.3.24a9.86,9.86,0,0,1-2.76,2.7Z"/><path class="cls-25" d="M28.64,73.67l-.24-.24a2.92,2.92,0,0,0,1-2.76,9.6,9.6,0,0,0-.72-2.22c-.12-.24-.18-.48-.3-.78a14.94,14.94,0,0,1-.42-8.88l.36.12a14.19,14.19,0,0,0,.42,8.64,4.17,4.17,0,0,0,.3.78,9.67,9.67,0,0,1,.72,2.34,3.1,3.1,0,0,1-1.08,3Z"/><path class="cls-25" d="M38.6,54.41l-.06-.06c-1.26-.72-2.52-1.44-4-.9l-.12-.36c1.62-.54,2.94.24,4.26,1l.06.06Z"/><path class="cls-25" d="M47.06,79.19a10.89,10.89,0,0,1-1.5-6.84h.36A10.71,10.71,0,0,0,47.36,79Z"/><path class="cls-22" d="M26.84,76.91C26.24,80.33,24.44,81,24,84a4.76,4.76,0,0,0,3.72,5.28s-3.12-4.56,2.7-8.94l.36-1.86Z"/><path class="cls-25" d="M29,80.09l-.24-.3a7.78,7.78,0,0,0,2-1.86,4,4,0,0,0,.9-2.46h.36a4.78,4.78,0,0,1-1,2.7A8.26,8.26,0,0,1,29,80.09Z"/><path class="cls-27" d="M22.34,89l-.36.06c.06,1.68.06,5,.06,7.8h.36c0-2.76,0-6.12-.06-7.86Z"/><path class="cls-27" d="M51.74,89.33h-.36c0,.18,0,3.6-.06,7.56h.36c.06-3.84.06-7.26.06-7.56Z"/><path class="cls-22" d="M39.2,56.51s5.88,2,5.52,10.5c0,0,2.28-5.58.72-7.92s-6.12-4.26-6.12-4.26l-1,.84Z"/><path class="cls-25" d="M45.26,61.19a7.81,7.81,0,0,0-2.82-5.1l.24-.3a8.25,8.25,0,0,1,2.94,5.34Z"/><rect class="cls-1" x="16.76" y="50.63" width="40.56" height="46.26"/></g><rect class="cls-4" x="52.52" y="87.77" width="11.4" height="9.3"/><path class="cls-8" d="M58.34,83.51,51,86.21v6c0,6.78,7.2,8.58,7.26,8.64h.3c.06-.06,7.26-1.86,7.26-8.64v-6Zm-1.2,12.06L54.2,92.63l.9-.84,2,2,4.5-4.5.84.84Z"/><g class="cls-28"><path class="cls-7" d="M257.84,11.63A36.84,36.84,0,1,1,221,48.47a36.77,36.77,0,0,1,36.84-36.84Z"/><path class="cls-1" d="M257.84,11.63A36.84,36.84,0,1,1,221,48.47a36.77,36.77,0,0,1,36.84-36.84Z"/><path class="cls-29" d="M252.26,55.85s-1.68.54-1.56,1.62,1.56,1.2,1.56,1.2Z"/><path class="cls-29" d="M264.38,56.87a2,2,0,0,1,1.92,1.8c.12,1.68-4,2.46-4,2.46Z"/><path class="cls-30" d="M271.76,39.59c.36,0,.84-5.58.84-6.18a19.24,19.24,0,0,0-.36-4.92,11.35,11.35,0,0,0-3.72-6.3C265.28,19.61,261,19.07,257,19c-3.24-.06-6.6,0-8.64,2.7a8.15,8.15,0,0,0-1.26,2.22c-.06.06-.3,1-.36,1s-6.3,1.38-2,14.7Z"/><polygon class="cls-31" points="264.02 50.99 252.68 50.99 252.08 60.41 259.16 73.61 264.62 60.41 264.02 50.99"/><path class="cls-32" d="M252.68,51l-.42,6.48S263.42,56.63,264,51Z"/><path class="cls-31" d="M263.72,26c7.2,0,6,11.52,6.06,13.8.06,3-1.32,9.3-5.1,12.24a10.56,10.56,0,0,1-6.3,2.58,10.93,10.93,0,0,1-6.66-2.58c-3.72-2.94-5.1-9.24-5-12.24.06-2.28-1.14-13.8,6-13.8Z"/><path class="cls-30" d="M251.3,36.11a.31.31,0,0,1-.24-.12c-.06-.06-.12-.12-.12-.18s0-.18,0-.24a.83.83,0,0,1,.24-.18,6.33,6.33,0,0,1,3.66,0c.06.06.18.12.18.18a.36.36,0,0,1,.06.24.82.82,0,0,1-.18.24.45.45,0,0,1-.3.06,5.24,5.24,0,0,0-3.18-.06.19.19,0,0,1-.12.06Z"/><path class="cls-30" d="M265.16,36.11h-.06a5.44,5.44,0,0,0-3.24-.06.27.27,0,0,1-.3,0l-.18-.18v-.3a.83.83,0,0,1,.24-.18,6.33,6.33,0,0,1,3.66,0c.06.06.18.06.18.18s.06.12.06.24-.06.12-.12.18a.31.31,0,0,1-.24.12Z"/><path class="cls-31" d="M268.28,47c2.4-1.62,5.4-4.44,4.56-7.62A2.54,2.54,0,0,0,269.36,38Z"/><path class="cls-31" d="M248.18,47c-2.4-1.62-5.4-4.44-4.56-7.62A2.52,2.52,0,0,1,247.1,38Z"/><path class="cls-30" d="M245.06,36.59l2.34,4.14s-1.08-5.88.18-10.68l-1.74,2.64Z"/><path class="cls-30" d="M271.4,36.41,269,40.49s1-5.88-.24-10.68l1.86,2.7Z"/><path class="cls-33" d="M290.24,80.09c-1.74-10.74-2.1-12.06-6.06-14.34s-15.9-5.1-15.9-5.1c-1.32-4.08-3.9-3.78-3.9-3.78,3,1,.18,2.94-1.74,3.54s-2.34,0-2.1,2.46-1.38,5.76-1.38,5.76-.6-7.5-1.44-8.22-3-.78-5.46-1.74c-1.26-.54-2.82-1.44,0-2.82,0,0-2-.12-3.54,3.72,0,0-13.62,3.84-19.2,7.62-2.7,1.86-3.78,12.18-4.86,18.12H291c-.24-1.8-.48-3.54-.78-5.22Z"/><path class="cls-29" d="M258.44,65.27c-6.84-1.38-9.78-5.34-9.9-5.52l.42-.3c0,.06,2.94,4,9.54,5.34Z"/><path class="cls-29" d="M260.42,65.27l-.06-.48c5.58-.84,7.68-4.2,7.68-4.26l.42.24c-.06.18-2.28,3.6-8,4.5Z"/><path class="cls-29" d="M259.4,68.75l-.42-.24c-1.32,2.7-1.68,4.68-1.68,14.64,0,.72,0,1.44.06,2.16h.48c-.06-.72-.06-1.44-.06-2.16,0-10.32.42-11.94,1.62-14.4Z"/><path class="cls-29" d="M283.82,73.13,283.4,73a109,109,0,0,0-2,12.3h.48c.78-6.24,1.68-11,2-12.18Z"/><path class="cls-29" d="M232.58,73.13l.48-.12c.3,1.14,1.2,6,2,12.3h-.54a113.71,113.71,0,0,0-2-12.18Z"/><path class="cls-29" d="M260.36,72.71a.76.76,0,0,0,0-1.08.74.74,0,0,0-1.14,0,.76.76,0,0,0,0,1.08.74.74,0,0,0,1.14,0Z"/><path class="cls-29" d="M279.68,81.77H268.16l-.06-.06-.06-.06V79.49l.06-.06.06-.06h11.52a.21.21,0,0,1,.24.24v2l-.06.06-.06.06Zm-11.16-.48h10.92V79.85H268.52Z"/><path class="cls-34" d="M251,26.27h9.3s-.9-2.52-4.62-2.52S251,26.27,251,26.27Z"/><path class="cls-30" d="M251,26.27c1.68-2.1,5.76-2.46,7.44-1,1.5,1.26,1.92,3.3,3.18,4.74a7,7,0,0,0,8.16,1.86s-2.94-9.9-11.82-9.9c-5.28,0-7.86.12-7,4.32Z"/><path class="cls-34" d="M250,26.57A6.92,6.92,0,0,1,247,25.31l.3-.36a6.11,6.11,0,0,0,2.82,1.14Z"/><path class="cls-34" d="M250,24.53l-.36-.3a6.93,6.93,0,0,1,2.58-2,7.45,7.45,0,0,1,3.18-.72V22a7.51,7.51,0,0,0-3,.66,7.2,7.2,0,0,0-2.4,1.86Z"/><path class="cls-34" d="M265.64,30.17a13.63,13.63,0,0,1-2.7-2.28,7.33,7.33,0,0,1-1.68-3.24l.48-.06a5.88,5.88,0,0,0,1.56,2.94,12.41,12.41,0,0,0,2.58,2.22Z"/><path class="cls-34" d="M245.36,37.49a10.45,10.45,0,0,1-.78-5.88l.48.06a9.39,9.39,0,0,0,.78,5.58Z"/><path class="cls-30" d="M253,32.15a6.34,6.34,0,0,1-2.28-6.36l.48.12a5.75,5.75,0,0,0,2.1,5.82Z"/><path class="cls-30" d="M250.76,26.33s-.54,4.8-2.16,6.78-1.62,4.14-1.2,7.2c0,0-2.88-7.62-1.56-10.26s4.92-3.72,4.92-3.72Z"/><path class="cls-30" d="M265.64,26.33s.54,4.8,2.16,6.78,1.56,4.32,1.2,7.38c0,0,2.88-7.8,1.56-10.44s-4.92-3.72-4.92-3.72Z"/><path class="cls-34" d="M268.28,32.21l-.06-.48a5.26,5.26,0,0,0,3.3-1.8l.36.24a5.17,5.17,0,0,1-3.6,2Z"/></g><path class="cls-8" d="M288.08,66.41l-10.5,3.78v8.52c0,9.6,10.14,12.18,10.26,12.24h.42c.12-.06,10.32-2.64,10.32-12.24V70.19Zm-1.8,17-4.08-4.14,1.2-1.2L286.28,81l6.42-6.42,1.2,1.26Z"/><text class="cls-35" transform="translate(175.21 95.74)">v<tspan class="cls-4" x="1.05" y="0">ibe</tspan><tspan class="cls-36" x="4.12" y="0">v</tspan><tspan class="cls-37" x="5.17" y="0">ideo</tspan></text><path class="cls-38" d="M174.75,94.15l-.93,1.39h0l-.26.38a.29.29,0,0,1-.45,0h0l0,0-.1-.15L171.76,94h.14a1.35,1.35,0,0,1,1.11.59l.19.26.39-.59a.51.51,0,0,0,.08-.35c-.05-.37-.47-.46-.78-.46h1.49A.46.46,0,0,1,174.75,94.15Z"/><g class="cls-39"><path class="cls-40" d="M174.51,93.46,173,95.77,171.76,94h.14a1.35,1.35,0,0,1,1.11.59l.19.26.45-.69c.14-.58-.4-.71-.76-.71h1.49Z"/></g><path class="cls-41" d="M173.2,94.84l-.42.62-1-1.47h.14a1.35,1.35,0,0,1,1.11.59Z"/><path class="cls-4" d="M105.69,131.09l1.36-3.44h1.61l-3.39,8.44h-1.21l-3.41-8.44h1.61l1.38,3.41,1,2.94Z"/><path class="cls-4" d="M111.39,125.5a1,1,0,0,1-1.89,0A.95.95,0,0,1,111.39,125.5Zm-.19,2.06h-1.52V136h1.52Z"/><path class="cls-4" d="M114.83,128.73a3.24,3.24,0,0,1,2.82-1.22,4.33,4.33,0,0,1,0,8.66,3.33,3.33,0,0,1-2.79-1.27V136h-1.52V125.19h1.52Zm2.73,6.09a3,3,0,1,0-2.73-3A2.8,2.8,0,0,0,117.55,134.82Z"/><path class="cls-4" d="M131.5,132.2h-7.09a2.79,2.79,0,0,0,2.82,2.63,2.7,2.7,0,0,0,2.49-1.39h1.56a4.34,4.34,0,1,1-4-5.92,4.11,4.11,0,0,1,4.29,3.95A2.27,2.27,0,0,1,131.5,132.2Zm-1.56-1.25a2.54,2.54,0,0,0-2.7-2.09,2.64,2.64,0,0,0-2.77,2.09Z"/><path class="cls-4" d="M137.14,131.09l1.36-3.44h1.61l-3.39,8.44h-1.21l-3.41-8.44h1.61l1.38,3.41,1,2.94Z"/><path class="cls-4" d="M142.83,125.5a1,1,0,0,1-1.89,0A.95.95,0,0,1,142.83,125.5Zm-.19,2.06h-1.52V136h1.52Z"/><path class="cls-4" d="M151.43,125.19h1.52V136h-1.52V134.9a3.33,3.33,0,0,1-2.8,1.27,4.33,4.33,0,1,1,0-8.66,3.24,3.24,0,0,1,2.82,1.22Zm-2.85,3.66a2.91,2.91,0,0,0-2.9,3,2.87,2.87,0,1,0,2.9-3Z"/><path class="cls-4" d="M163,132.2H155.9a2.8,2.8,0,0,0,2.82,2.63,2.7,2.7,0,0,0,2.49-1.39h1.56a4.34,4.34,0,1,1-4-5.92,4.11,4.11,0,0,1,4.29,3.95A2.27,2.27,0,0,1,163,132.2Zm-1.56-1.25a2.54,2.54,0,0,0-2.69-2.09,2.64,2.64,0,0,0-2.77,2.09Z"/><path class="cls-4" d="M168.66,136.18a4.34,4.34,0,1,1,4.54-4.34A4.25,4.25,0,0,1,168.66,136.18Zm0-1.36a3,3,0,1,0-3-3A2.88,2.88,0,0,0,168.66,134.82Z"/></g></g></svg>