<svg id="Слой_1" data-name="Слой 1" xmlns="http://www.w3.org/2000/svg" xmlns:xlink="http://www.w3.org/1999/xlink" viewBox="0 0 330 215"><defs><style>.cls-1{fill:none;}.cls-2{clip-path:url(#clip-path);}.cls-3{fill:#3a3a3a;}.cls-4{fill:#999;}.cls-5{fill:#4c4c62;}.cls-6{clip-path:url(#clip-path-2);}.cls-7{fill:#8324ce;}.cls-8{fill:#aa81d3;fill-rule:evenodd;}.cls-9{fill:#7f7dae;}.cls-10{fill:#fff;}</style><clipPath id="clip-path"><rect class="cls-1" x="38.72" y="45.72" width="277.62" height="156.78"/></clipPath><clipPath id="clip-path-2"><rect class="cls-1" x="112.7" y="62.04" width="129.66" height="118.14"/></clipPath></defs><title>publishers-features-4_vv</title><g class="cls-2"><path d="M289.4,45.72H65.66a9.22,9.22,0,0,0-9.12,9.12v126.9a8.94,8.94,0,0,0,2.7,6.42,9.13,9.13,0,0,0,6.42,2.64H289.4a9.38,9.38,0,0,0,6.48-2.64,9.13,9.13,0,0,0,2.64-6.42V54.84a9.12,9.12,0,0,0-9.12-9.12ZM65.48,182.28v-128H289.64v128Z"/><path class="cls-3" d="M38.72,190.74v5.52c0,3.48,5.58,6.24,12.48,6.24H303.86c6.9,0,12.48-2.76,12.48-6.24v-5.52Z"/><path class="cls-4" d="M162.2,190.8v.84c0,.48.6.84,1.38.84h27.9c.78,0,1.38-.36,1.38-.84v-.84Z"/><path class="cls-5" d="M158.66,160.14v2.46h3.12v2.76h-3.12v8.76h-2.82v-8.76h-1.26V162.6h1.26v-2.46a3.66,3.66,0,0,1,.48-1.8,4,4,0,0,1,1.32-1.32,3.72,3.72,0,0,1,1.86-.48,4.12,4.12,0,0,1,1.44.3,3.06,3.06,0,0,1,1.26.9l-2,2a.72.72,0,0,0-.3-.3.94.94,0,0,0-1,.18.58.58,0,0,0-.24.54Zm4.92,2.46h2.82v11.52h-2.82Zm1.44-1.5a1.24,1.24,0,0,1-1-.42,1.32,1.32,0,0,1-.42-1,1.43,1.43,0,0,1,1.44-1.44,1.32,1.32,0,0,1,1,.42,1.24,1.24,0,0,1,.42,1,1.32,1.32,0,0,1-.42,1,1.24,1.24,0,0,1-1,.42Zm4.2,13V156.78H172v17.34Zm5.58,0V156.78h2.82v17.34Zm11.16,0V162.6h2.76l.06,1a3.94,3.94,0,0,1,1.38-1,4.3,4.3,0,0,1,1.74-.36,5,5,0,0,1,1.32.18l-1.14,2.82a4.7,4.7,0,0,0-.84-.12,2.19,2.19,0,0,0-1.26.3,3.21,3.21,0,0,0-.9.9,2.19,2.19,0,0,0-.3,1.26v6.54Zm16.68-11.52h2.82v11.52h-2.82l-.12-1.44a4.2,4.2,0,0,1-1.26,1.26,3.72,3.72,0,0,1-1.86.48,6.58,6.58,0,0,1-2.4-.48,6.27,6.27,0,0,1-1.92-1.38,5.87,5.87,0,0,1-1.38-2,6.11,6.11,0,0,1-.42-2.4,5.94,5.94,0,0,1,5.88-5.94,3.84,3.84,0,0,1,2,.54,4.53,4.53,0,0,1,1.56,1.26Zm-3.3,9.06a3,3,0,0,0,1.62-.42A4.18,4.18,0,0,0,202,170a4,4,0,0,0,.36-1.68,4.1,4.1,0,0,0-.36-1.74,4.18,4.18,0,0,0-1.08-1.2,3,3,0,0,0-3.24,0,3.63,3.63,0,0,0-1.14,1.2,3.4,3.4,0,0,0-.42,1.74,3.33,3.33,0,0,0,.42,1.68,3.64,3.64,0,0,0,1.14,1.2,3.11,3.11,0,0,0,1.62.42Zm14.58-6.3H211.7v8.76h-2.82v-8.76H207.2V162.6h1.68v-3.66h2.82v3.66h2.22Zm6.9,9.06a5.6,5.6,0,0,1-5-3.06,5.81,5.81,0,0,1-.78-3.06,6,6,0,0,1,.42-2.34,5.93,5.93,0,0,1,1.26-1.92,5.84,5.84,0,0,1,1.86-1.32,5.45,5.45,0,0,1,2.22-.48,4.82,4.82,0,0,1,2.46.6,6,6,0,0,1,1.92,1.56,6,6,0,0,1,1.14,2.22,6.71,6.71,0,0,1,.18,2.7h-8.46a4,4,0,0,0,.54,1.14,3,3,0,0,0,.9.84,3.27,3.27,0,0,0,1.32.3,2.57,2.57,0,0,0,1.32-.36,2.77,2.77,0,0,0,1-1l2.88.72a6,6,0,0,1-2.1,2.46,5.38,5.38,0,0,1-3.12,1ZM218,167.16h5.64a2.42,2.42,0,0,0-.54-1.2,2.12,2.12,0,0,0-1-.9,2.36,2.36,0,0,0-1.26-.36,2.95,2.95,0,0,0-2.28,1.2,2.87,2.87,0,0,0-.54,1.26Z"/></g><g class="cls-6"><path class="cls-7" d="M227.66,115.8l13.26-2.34a66.76,66.76,0,0,0-7-18.54l-12.66,7.68a56,56,0,0,1,6.42,13.2Z"/><path class="cls-7" d="M209.36,89.4l10.86-11.22a62.85,62.85,0,0,0-16.5-10.56L197.66,82a56.56,56.56,0,0,1,11.7,7.38Z"/><path class="cls-7" d="M196,81.24l6.84-14A65.56,65.56,0,0,0,184,62.4l-1.26,14.88a57.58,57.58,0,0,1,13.2,4Z"/><path class="cls-8" d="M241.1,114.42l-13,3.06a59.09,59.09,0,0,1,2.52,15.18L242,134.28a64.94,64.94,0,0,0-.9-19.86Z"/><path class="cls-7" d="M116.84,121.14l-3.78-.54a63.63,63.63,0,0,0,.78,18.78l1.68-.36a59.59,59.59,0,0,1,1.32-17.88Z"/><path class="cls-7" d="M213.44,93.06a62.4,62.4,0,0,1,6.78,8l13.14-7a64.35,64.35,0,0,0-12.42-15.24L210.8,90.6c.9.78,1.74,1.62,2.64,2.46Z"/><path class="cls-7" d="M145,70.8l6,10a56.5,56.5,0,0,1,14-3.78l-2.34-13.26a65.3,65.3,0,0,0-17.7,7Z"/><path class="cls-7" d="M118.52,100.2l6.12,2.64a58.62,58.62,0,0,1,7.26-9.06c1.08-1.08,2.16-2.16,3.36-3.18l-6.54-6.3a67.13,67.13,0,0,0-10.2,15.9Z"/><path class="cls-7" d="M134.78,78.24a62,62,0,0,0-5.28,5.22l7,6.12a55.91,55.91,0,0,1,13-8.1L144.08,71.4a60.81,60.81,0,0,0-9.3,6.84Z"/><path class="cls-7" d="M113.18,119.46l4,.36a56.9,56.9,0,0,1,6.66-15.72L118,101.22a66.14,66.14,0,0,0-4.86,18.24Z"/><path class="cls-7" d="M183,62.28a64.51,64.51,0,0,0-19.2,1.26l3.06,13.26a57.86,57.86,0,0,1,14,.18Z"/><path class="cls-7" d="M114.08,140.52A64.9,64.9,0,0,0,120,157.2a57,57,0,0,1-4.32-17Z"/><path class="cls-9" d="M172,138.48a4.23,4.23,0,1,0,4.14-7.38,4.16,4.16,0,0,0-5.7,1.62,4.26,4.26,0,0,0,1.56,5.76Z"/><path class="cls-9" d="M145.28,175.2A51.24,51.24,0,0,1,132,157.56a51.42,51.42,0,0,1,73.2-65.82,54.17,54.17,0,0,0-86,44.22,54.58,54.58,0,0,0,22.56,44.28Z"/><path class="cls-9" d="M179.42,129.72a7.19,7.19,0,0,1,1.74,3,7.59,7.59,0,0,1,.12,3.48l43.38-10.14Z"/></g><path class="cls-7" d="M27.68,15H120.8a13.64,13.64,0,0,1,13.68,13.68V68.52A13.65,13.65,0,0,1,120.8,82.26H27.68A13.69,13.69,0,0,1,14,68.52V28.68A13.67,13.67,0,0,1,27.68,15Z"/><path class="cls-10" d="M38.06,58.74l4.14-7.2a7.61,7.61,0,0,1-2.88-.36,7.14,7.14,0,0,1-2.46-1.56,7.28,7.28,0,0,1-1.68-2.34,7,7,0,0,1-.6-2.94,7.77,7.77,0,0,1,.54-2.94A9.38,9.38,0,0,1,36.74,39a9.39,9.39,0,0,1,2.4-1.62,8,8,0,0,1,2.94-.6,7.06,7.06,0,0,1,3.72,1,8.1,8.1,0,0,1,2.76,2.76,7.12,7.12,0,0,1,1,3.78,6.76,6.76,0,0,1-.3,1.92,6.86,6.86,0,0,1-.78,1.86L42.44,58.74Zm4-10.68A3.43,3.43,0,0,0,44,47.52a3.25,3.25,0,0,0,1.32-1.38,3.45,3.45,0,0,0,.48-1.86A3.5,3.5,0,0,0,43.94,41a4.08,4.08,0,0,0-1.86-.48,3.78,3.78,0,0,0-2,.54,3.64,3.64,0,0,0-1.32,1.38,3.85,3.85,0,0,0-.48,1.8,4.14,4.14,0,0,0,.48,1.92,4.33,4.33,0,0,0,1.38,1.38,4,4,0,0,0,1.92.48Z"/><path class="cls-10" d="M55,58.74l4.14-7.2a7.93,7.93,0,0,1-2.94-.36,7.14,7.14,0,0,1-2.46-1.56A7.28,7.28,0,0,1,52,47.28a7,7,0,0,1-.6-2.94A7.77,7.77,0,0,1,52,41.4,9.38,9.38,0,0,1,53.6,39,9.39,9.39,0,0,1,56,37.38a8,8,0,0,1,2.94-.6,7.06,7.06,0,0,1,3.72,1,8.1,8.1,0,0,1,2.76,2.76,7.12,7.12,0,0,1,1,3.78,9.89,9.89,0,0,1-.24,1.92,15.5,15.5,0,0,1-.78,1.86L59.3,58.74Zm4-10.68a3.43,3.43,0,0,0,1.92-.54,3.25,3.25,0,0,0,1.32-1.38,3.45,3.45,0,0,0,.48-1.86,3.52,3.52,0,0,0-.48-1.92A4.14,4.14,0,0,0,60.8,41a4.08,4.08,0,0,0-1.86-.48,3.78,3.78,0,0,0-2,.54,4.16,4.16,0,0,0-1.32,1.38,3.85,3.85,0,0,0-.48,1.8,4.14,4.14,0,0,0,.48,1.92A4.33,4.33,0,0,0,57,47.58a4,4,0,0,0,1.92.48Z"/><polygon class="cls-10" points="68.6 60.42 69.56 55.26 73.28 55.26 71.12 60.42 68.6 60.42"/><path class="cls-10" d="M79.58,58.74l4.14-7.2a7.61,7.61,0,0,1-2.88-.36,7.14,7.14,0,0,1-2.46-1.56,7.28,7.28,0,0,1-1.68-2.34A7,7,0,0,1,76,44.34a7.79,7.79,0,0,1,.6-2.94A9.38,9.38,0,0,1,78.26,39a9.39,9.39,0,0,1,2.4-1.62,7.79,7.79,0,0,1,2.94-.6,7.21,7.21,0,0,1,3.72,1A7.45,7.45,0,0,1,90,40.56a6.65,6.65,0,0,1,1.08,3.78,6.76,6.76,0,0,1-.3,1.92A6.86,6.86,0,0,1,90,48.12L84,58.74Zm4-10.68a3.49,3.49,0,0,0,2-.54,3.65,3.65,0,0,0,1.32-1.38,4.08,4.08,0,0,0,.48-1.86,3.57,3.57,0,0,0-.54-1.92A3.26,3.26,0,0,0,85.4,41a3.66,3.66,0,0,0-1.8-.48,3.78,3.78,0,0,0-2,.54,3.64,3.64,0,0,0-1.32,1.38,3.25,3.25,0,0,0-.48,1.8,3.52,3.52,0,0,0,.48,1.92,4.14,4.14,0,0,0,1.32,1.38,4.33,4.33,0,0,0,1.92.48Z"/><path class="cls-10" d="M95.24,58.74,107.66,37.2H112L99.56,58.74ZM97.88,46.5a4.54,4.54,0,0,1-2.34-.6,4.36,4.36,0,0,1-1.68-1.62,4.54,4.54,0,0,1-.6-2.34,4.6,4.6,0,0,1,.6-2.4,5.41,5.41,0,0,1,1.68-1.62,4.54,4.54,0,0,1,2.34-.6,4.18,4.18,0,0,1,2.28.6,4.74,4.74,0,0,1,1.68,6.36,4.34,4.34,0,0,1-1.68,1.62,4.47,4.47,0,0,1-2.28.6Zm0-2.52a2,2,0,0,0,2-2,2,2,0,0,0-.6-1.44,2,2,0,0,0-1.44-.6,2,2,0,0,0-2.1,2,2.21,2.21,0,0,0,.6,1.44,2.24,2.24,0,0,0,1.5.6Zm11.46,14.64A4.59,4.59,0,0,1,107,58a4.53,4.53,0,0,1-2.28-4,4.28,4.28,0,0,1,.66-2.34A4.51,4.51,0,0,1,107.06,50a4.33,4.33,0,0,1,2.28-.6,4.28,4.28,0,0,1,2.34.66,4.51,4.51,0,0,1,1.68,1.68A5.17,5.17,0,0,1,114,54a4.59,4.59,0,0,1-.66,2.34A4.51,4.51,0,0,1,111.62,58a4.78,4.78,0,0,1-2.28.6Zm0-2.58a2,2,0,0,0,2-2,1.86,1.86,0,0,0-.6-1.44,2,2,0,0,0-2.88,0,1.86,1.86,0,0,0-.6,1.44,2,2,0,0,0,2,2Z"/></svg>