<svg id="Слой_1" data-name="Слой 1" xmlns="http://www.w3.org/2000/svg" xmlns:xlink="http://www.w3.org/1999/xlink" viewBox="0 0 306 212"><defs><style>.cls-1{fill:none;}.cls-2{clip-path:url(#clip-path);}.cls-3{fill:#fff;}.cls-4{fill:#f5f5f5;}.cls-5{clip-path:url(#clip-path-2);}.cls-6{fill:#3a3a3a;}.cls-7{fill:#929293;}.cls-8{fill:#ffcd74;}.cls-9{fill:#ffba4b;}.cls-10{fill:#e9e9e9;}.cls-11{fill:#8324ce;}.cls-12{fill:#dbdbdb;}.cls-13{fill:#fea618;}</style><clipPath id="clip-path"><path class="cls-1" d="M61.74,41.31h192.9a5,5,0,0,1,5,5V161.9a5,5,0,0,1-5,5H61.74a5,5,0,0,1-5-5V46.29a5,5,0,0,1,5-5Z"/></clipPath><clipPath id="clip-path-2"><rect class="cls-1" x="34.02" y="40.76" width="249.42" height="140.82"/></clipPath></defs><title>publishers-features-5_vv</title><g class="cls-2"><rect class="cls-3" x="56.64" y="35.42" width="203.04" height="375.06"/><path class="cls-4" d="M65.46,43.4h122.1a.79.79,0,0,1,.78.78v3.18a.79.79,0,0,1-.78.78H65.46a.79.79,0,0,1-.78-.78V44.18a.79.79,0,0,1,.78-.78Z"/><path class="cls-4" d="M192.3,43.4h58.62a.81.81,0,0,1,.84.78v3.18a.81.81,0,0,1-.84.78H192.3a.79.79,0,0,1-.78-.78V44.18a.79.79,0,0,1,.78-.78Z"/><path class="cls-4" d="M192.3,133.76h58.62a.81.81,0,0,1,.84.78v3.18a.81.81,0,0,1-.84.78H192.3a.79.79,0,0,1-.78-.78v-3.18a.79.79,0,0,1,.78-.78Z"/><path class="cls-4" d="M192.3,50.54h58.62a.77.77,0,0,1,.84.78V54.5a.81.81,0,0,1-.84.78H192.3a.79.79,0,0,1-.78-.78V51.32a.76.76,0,0,1,.78-.78Z"/><path class="cls-4" d="M192.3,140.9h58.62a.81.81,0,0,1,.84.78v3.18a.81.81,0,0,1-.84.78H192.3a.79.79,0,0,1-.78-.78v-3.18a.79.79,0,0,1,.78-.78Z"/><path class="cls-4" d="M192.3,57.62h58.62a.82.82,0,0,1,.84.84v3.12a.82.82,0,0,1-.84.84H192.3a.81.81,0,0,1-.78-.84V58.46a.81.81,0,0,1,.78-.84Z"/><path class="cls-4" d="M192.3,148h58.62a.77.77,0,0,1,.84.78V152a.81.81,0,0,1-.84.78H192.3a.79.79,0,0,1-.78-.78v-3.18a.76.76,0,0,1,.78-.78Z"/><path class="cls-4" d="M192.3,64.76h58.62a.82.82,0,0,1,.84.84v3.12a.82.82,0,0,1-.84.84H192.3a.81.81,0,0,1-.78-.84V65.6a.81.81,0,0,1,.78-.84Z"/><path class="cls-4" d="M192.3,155.12h58.62a.82.82,0,0,1,.84.84v3.12a.82.82,0,0,1-.84.84H192.3a.81.81,0,0,1-.78-.84V156a.81.81,0,0,1,.78-.84Z"/><path class="cls-4" d="M192.3,71.9h58.62a.81.81,0,0,1,.84.78v3.18a.82.82,0,0,1-.84.84H192.3a.81.81,0,0,1-.78-.84V72.68a.79.79,0,0,1,.78-.78Z"/><path class="cls-4" d="M192.3,162.26h58.62a.82.82,0,0,1,.84.84v3.12a.82.82,0,0,1-.84.84H192.3a.81.81,0,0,1-.78-.84V163.1a.81.81,0,0,1,.78-.84Z"/><path class="cls-4" d="M192.3,79h58.62a.81.81,0,0,1,.84.78V83a.77.77,0,0,1-.84.78H192.3a.76.76,0,0,1-.78-.78V79.82a.79.79,0,0,1,.78-.78Z"/><path class="cls-4" d="M192.3,88.58h58.62a.81.81,0,0,1,.84.78v38.82a.77.77,0,0,1-.84.78H192.3a.76.76,0,0,1-.78-.78V89.36a.79.79,0,0,1,.78-.78Z"/><path class="cls-4" d="M65.46,50.54h122.1a.76.76,0,0,1,.78.78V54.5a.79.79,0,0,1-.78.78H65.46a.79.79,0,0,1-.78-.78V51.32a.76.76,0,0,1,.78-.78Z"/><path class="cls-4" d="M65.46,57.62h122.1a.81.81,0,0,1,.78.84v3.12a.81.81,0,0,1-.78.84H65.46a.81.81,0,0,1-.78-.84V58.46a.81.81,0,0,1,.78-.84Z"/><path class="cls-4" d="M65.46,64.76h122.1a.81.81,0,0,1,.78.84v3.12a.81.81,0,0,1-.78.84H65.46a.81.81,0,0,1-.78-.84V65.6a.81.81,0,0,1,.78-.84Z"/><path class="cls-4" d="M65.46,71.9h122.1a.79.79,0,0,1,.78.78v3.18a.81.81,0,0,1-.78.84H65.46a.81.81,0,0,1-.78-.84V72.68a.79.79,0,0,1,.78-.78Z"/><path class="cls-4" d="M65.46,79h58.68a.79.79,0,0,1,.78.78V83a.76.76,0,0,1-.78.78H65.46a.76.76,0,0,1-.78-.78V79.82a.79.79,0,0,1,.78-.78Z"/><path class="cls-4" d="M65.46,88.88h122.1a.76.76,0,0,1,.78.78v3.18a.79.79,0,0,1-.78.78H65.46a.79.79,0,0,1-.78-.78V89.66a.76.76,0,0,1,.78-.78Z"/><path class="cls-4" d="M65.46,96h122.1a.81.81,0,0,1,.78.84V100a.79.79,0,0,1-.78.78H65.46a.79.79,0,0,1-.78-.78V96.8a.81.81,0,0,1,.78-.84Z"/><path class="cls-4" d="M65.46,103.1h122.1a.81.81,0,0,1,.78.84v3.12a.81.81,0,0,1-.78.84H65.46a.81.81,0,0,1-.78-.84v-3.12a.81.81,0,0,1,.78-.84Z"/><path class="cls-4" d="M65.46,110.24h122.1a.79.79,0,0,1,.78.78v3.18a.81.81,0,0,1-.78.84H65.46a.81.81,0,0,1-.78-.84V111a.79.79,0,0,1,.78-.78Z"/><path class="cls-4" d="M65.46,117.38h122.1a.79.79,0,0,1,.78.78v3.18a.76.76,0,0,1-.78.78H65.46a.76.76,0,0,1-.78-.78v-3.18a.79.79,0,0,1,.78-.78Z"/><path class="cls-4" d="M65.46,124.52h122.1a.79.79,0,0,1,.78.78v3.18a.79.79,0,0,1-.78.78H65.46a.79.79,0,0,1-.78-.78V125.3a.79.79,0,0,1,.78-.78Z"/><path class="cls-4" d="M65.46,135.62h58.68a.79.79,0,0,1,.78.78v3.18a.79.79,0,0,1-.78.78H65.46a.79.79,0,0,1-.78-.78V136.4a.79.79,0,0,1,.78-.78Z"/><path class="cls-4" d="M65.46,142.76h122.1a.79.79,0,0,1,.78.78v54.54a.79.79,0,0,1-.78.78H65.46a.79.79,0,0,1-.78-.78V143.54a.79.79,0,0,1,.78-.78Z"/></g><g class="cls-5"><path d="M259.26,40.76H58.2A8.19,8.19,0,0,0,50,48.92v114a8.19,8.19,0,0,0,8.16,8.22H259.26a8.19,8.19,0,0,0,8.16-8.22v-114a8.19,8.19,0,0,0-8.16-8.16ZM58,163.46V48.38H259.44V163.46Z"/><path class="cls-6" d="M34,171v5c0,3.12,5,5.58,11.16,5.58h227.1c6.12,0,11.16-2.46,11.16-5.58v-5Z"/><path class="cls-7" d="M145,171.14v.66c0,.48.54.84,1.2.84H171.3c.66,0,1.2-.36,1.2-.84v-.66Z"/></g><path class="cls-8" d="M10.8,198.26v3.6a1.11,1.11,0,0,0,.3.72,1.83,1.83,0,0,0,.78.54.45.45,0,0,0,.3.06H80.52a1.29,1.29,0,0,0,1-.3,1.24,1.24,0,0,0,.6-.84v-4a1.51,1.51,0,0,0-.6-.9,2,2,0,0,0-1-.3H12.18c-.12.06-.24.06-.3.12a1.33,1.33,0,0,0-.78.48,1.43,1.43,0,0,0-.3.84Z"/><path class="cls-9" d="M44.22,203.24H80.7a1.78,1.78,0,0,0,.9-.3,1.64,1.64,0,0,0,.54-.72V197.9a1.83,1.83,0,0,0-.54-.78,1.69,1.69,0,0,0-.9-.24h-32a11.21,11.21,0,0,1-4.5,6.36Z"/><rect class="cls-9" x="19.08" y="196.88" width="0.78" height="6.36"/><rect class="cls-9" x="21.72" y="196.88" width="0.78" height="6.36"/><rect class="cls-9" x="24.84" y="196.88" width="0.78" height="6.36"/><rect class="cls-9" x="29.64" y="196.88" width="0.78" height="6.36"/><rect class="cls-9" x="34.74" y="196.88" width="0.78" height="6.36"/><rect class="cls-9" x="42.54" y="196.88" width="0.78" height="6.36"/><rect class="cls-9" x="49.86" y="196.88" width="0.78" height="6.36"/><rect class="cls-9" x="56.4" y="196.88" width="0.78" height="6.36"/><rect class="cls-9" x="16.62" y="196.88" width="0.78" height="6.36"/><rect class="cls-9" x="14.94" y="196.88" width="0.78" height="6.36"/><rect class="cls-9" x="13.38" y="196.88" width="0.72" height="6.36"/><path class="cls-9" d="M12.18,196.88v6.3H13v-6.36h-.48a2.6,2.6,0,0,0-.3.06Z"/><path class="cls-9" d="M11.1,197.48v5.1a1.83,1.83,0,0,0,.78.54v-6.18a1.83,1.83,0,0,0-.78.54Z"/><path class="cls-8" d="M18.06,191.9v3.6a1.11,1.11,0,0,0,.3.72l.18.18a1.24,1.24,0,0,0,.6.36.54.54,0,0,0,.3.06h68.4a1.29,1.29,0,0,0,1-.3,1.46,1.46,0,0,0,.6-.84v-4a1.84,1.84,0,0,0-.6-.9,2,2,0,0,0-1-.3H19.5c-.12.06-.24.06-.3.12l-.18.06H18.9l-.06.06h-.06l-.18.18h-.06v.06l-.06.06a1.08,1.08,0,0,0-.3.42,1.13,1.13,0,0,0-.12.48Z"/><path class="cls-9" d="M51.54,196.88H88a1.47,1.47,0,0,0,.9-.3,1.64,1.64,0,0,0,.54-.72l.06-.18v-4l-.06-.12a1.83,1.83,0,0,0-.54-.78,1.45,1.45,0,0,0-.9-.24H56l-.06.12a11,11,0,0,1-4.38,6.24Z"/><rect class="cls-9" x="26.34" y="190.52" width="0.78" height="6.36"/><rect class="cls-9" x="28.98" y="190.52" width="0.78" height="6.36"/><rect class="cls-9" x="32.1" y="190.52" width="0.78" height="6.36"/><rect class="cls-9" x="36.96" y="190.52" width="0.78" height="6.36"/><rect class="cls-9" x="42.06" y="190.52" width="0.72" height="6.36"/><rect class="cls-9" x="49.86" y="190.52" width="0.78" height="6.36"/><rect class="cls-9" x="57.12" y="190.52" width="0.78" height="6.36"/><rect class="cls-9" x="63.66" y="190.52" width="0.78" height="6.36"/><rect class="cls-9" x="23.88" y="190.52" width="0.78" height="6.36"/><rect class="cls-9" x="22.2" y="190.52" width="0.78" height="6.36"/><rect class="cls-9" x="20.64" y="190.52" width="0.78" height="6.36"/><path class="cls-9" d="M19.44,190.52v6.3h.78v-6.36h-.48c-.12,0-.18.06-.3.06Z"/><path class="cls-9" d="M18.36,191.12v5.1a1.83,1.83,0,0,0,.78.54v-6.12a1.55,1.55,0,0,0-.78.48Z"/><path class="cls-8" d="M14.58,185.66v3.6a1.26,1.26,0,0,0,.3.78,1.64,1.64,0,0,0,.72.54,2.6,2.6,0,0,1,.3.06H84.24a1.66,1.66,0,0,0,.78-.18,1.08,1.08,0,0,0,.54-.36,1,1,0,0,0,.3-.66v-4a1.51,1.51,0,0,0-.6-.9,2,2,0,0,0-1-.3H15.9c-.06.06-.18.06-.3.12a1.55,1.55,0,0,0-.78.48,1.32,1.32,0,0,0-.24.78Z"/><path class="cls-9" d="M48,190.64H84.48a2.16,2.16,0,0,0,.66-.12,3.31,3.31,0,0,0,.54-.42,1.8,1.8,0,0,0,.24-.6v-4c0-.06,0-.12-.06-.12a1.18,1.18,0,0,0-.54-.78,1.43,1.43,0,0,0-.84-.3h-32a11.12,11.12,0,0,1-4.26,6.24c-.06.06-.12.12-.18.12Z"/><rect class="cls-9" x="22.86" y="184.28" width="0.78" height="6.36"/><rect class="cls-9" x="25.44" y="184.28" width="0.78" height="6.36"/><rect class="cls-9" x="28.62" y="184.28" width="0.78" height="6.36"/><rect class="cls-9" x="33.42" y="184.28" width="0.78" height="6.36"/><rect class="cls-9" x="38.52" y="184.28" width="0.78" height="6.36"/><rect class="cls-9" x="46.32" y="184.28" width="0.78" height="6.36"/><rect class="cls-9" x="53.64" y="184.28" width="0.78" height="6.36"/><rect class="cls-9" x="60.18" y="184.28" width="0.72" height="6.36"/><rect class="cls-9" x="20.34" y="184.28" width="0.78" height="6.36"/><rect class="cls-9" x="18.72" y="184.28" width="0.78" height="6.36"/><rect class="cls-9" x="17.1" y="184.28" width="0.78" height="6.36"/><path class="cls-9" d="M15.9,184.34v6.3h.78v-6.36H16.2a.65.65,0,0,0-.3.06Z"/><path class="cls-9" d="M14.82,184.94V190a2.29,2.29,0,0,0,.78.54V184.4a1.33,1.33,0,0,0-.78.54Z"/><path class="cls-8" d="M13,179.3v3.6a1.21,1.21,0,0,0,.24.78l.12.12a1.08,1.08,0,0,0,.42.3l.24.12c.12,0,.18.06.3.06h68.4a1.57,1.57,0,0,0,1-.3,1.84,1.84,0,0,0,.6-.9v-3.84a1.65,1.65,0,0,0-.48-.9,1.47,1.47,0,0,0-1-.36H14.28a.54.54,0,0,0-.3.06,1.55,1.55,0,0,0-.78.48,1.32,1.32,0,0,0-.24.78Z"/><path class="cls-9" d="M46.38,184.28H82.86a1.38,1.38,0,0,0,.84-.24,1.43,1.43,0,0,0,.54-.78c.06-.06.06-.06.06-.12v-3.9a1.41,1.41,0,0,0-.42-.84A1.28,1.28,0,0,0,83,178H50.82a11.06,11.06,0,0,1-4.44,6.3Z"/><rect class="cls-9" x="21.24" y="177.92" width="0.78" height="6.36"/><rect class="cls-9" x="23.82" y="177.92" width="0.78" height="6.36"/><rect class="cls-9" x="27" y="177.92" width="0.72" height="6.36"/><rect class="cls-9" x="31.8" y="177.92" width="0.78" height="6.36"/><rect class="cls-9" x="36.9" y="177.92" width="0.78" height="6.36"/><rect class="cls-9" x="44.7" y="177.92" width="0.78" height="6.36"/><rect class="cls-9" x="52.02" y="177.92" width="0.72" height="6.36"/><rect class="cls-9" x="58.5" y="177.92" width="0.78" height="6.36"/><rect class="cls-9" x="18.72" y="177.92" width="0.78" height="6.36"/><rect class="cls-9" x="17.1" y="177.92" width="0.72" height="6.36"/><rect class="cls-9" x="15.48" y="177.92" width="0.78" height="6.36"/><path class="cls-9" d="M14.28,178v6.3h.78v-6.36h-.48a.54.54,0,0,0-.3.06Z"/><path class="cls-9" d="M13.2,178.58v5.1a2.28,2.28,0,0,0,.78.54V178a2.28,2.28,0,0,0-.78.54Z"/><path class="cls-8" d="M17.94,173v3.6a1.41,1.41,0,0,0,.3.78,1.33,1.33,0,0,0,.78.48.45.45,0,0,0,.3.06H87.66a1.43,1.43,0,0,0,1.08-.3,1.55,1.55,0,0,0,.54-1v-3.78a1.54,1.54,0,0,0-1.2-1.2H19.32a.45.45,0,0,0-.3.06,1.33,1.33,0,0,0-.78.48,1.43,1.43,0,0,0-.3.84Z"/><path class="cls-9" d="M51.36,178H87.84a1.63,1.63,0,0,0,1-.36,1.83,1.83,0,0,0,.48-1v-3.78a1.6,1.6,0,0,0-.42-.84,1.64,1.64,0,0,0-.78-.42H55.86v.06a11.16,11.16,0,0,1-4.5,6.3Z"/><rect class="cls-9" x="26.22" y="171.62" width="0.78" height="6.36"/><rect class="cls-9" x="28.86" y="171.62" width="0.78" height="6.36"/><rect class="cls-9" x="31.98" y="171.62" width="0.78" height="6.36"/><rect class="cls-9" x="36.78" y="171.62" width="0.78" height="6.36"/><rect class="cls-9" x="41.88" y="171.62" width="0.78" height="6.36"/><rect class="cls-9" x="49.68" y="171.62" width="0.78" height="6.36"/><rect class="cls-9" x="57" y="171.62" width="0.78" height="6.36"/><rect class="cls-9" x="63.54" y="171.62" width="0.78" height="6.36"/><rect class="cls-9" x="23.7" y="171.62" width="0.78" height="6.36"/><rect class="cls-9" x="22.08" y="171.62" width="0.78" height="6.36"/><rect class="cls-9" x="20.52" y="171.62" width="0.72" height="6.36"/><path class="cls-9" d="M19.32,171.62v6.3h.78v-6.36h-.48a2.6,2.6,0,0,0-.3.06Z"/><path class="cls-9" d="M18.24,172.22v5.16a1.17,1.17,0,0,0,.78.48v-6.18a1.52,1.52,0,0,0-.78.54Z"/><path class="cls-8" d="M18.06,166.7v3.54a1.14,1.14,0,0,0,.3.78l.18.18a1.24,1.24,0,0,0,.6.36c.06,0,.18.06.24.06h68.7a2,2,0,0,0,.9-.36,1.49,1.49,0,0,0,.48-.84v-4a1.46,1.46,0,0,0-.6-.84,1.29,1.29,0,0,0-1-.3H19.5a.45.45,0,0,0-.3.06l-.18.06a2.82,2.82,0,0,0-.54.36l-.06.06a2.1,2.1,0,0,0-.36.84Z"/><path class="cls-9" d="M51.54,171.68h36.6a1.35,1.35,0,0,0,.84-.36,1.71,1.71,0,0,0,.48-.84v-4l-.06-.12a1.83,1.83,0,0,0-.54-.78,1.15,1.15,0,0,0-.9-.24H56l-.06.12a11.07,11.07,0,0,1-4.32,6.18Z"/><rect class="cls-9" x="26.34" y="165.32" width="0.78" height="6.3"/><rect class="cls-9" x="28.98" y="165.32" width="0.78" height="6.3"/><rect class="cls-9" x="32.1" y="165.32" width="0.78" height="6.3"/><rect class="cls-9" x="36.96" y="165.32" width="0.78" height="6.3"/><rect class="cls-9" x="42.06" y="165.32" width="0.72" height="6.3"/><rect class="cls-9" x="49.86" y="165.32" width="0.78" height="6.3"/><rect class="cls-9" x="57.12" y="165.32" width="0.78" height="6.3"/><rect class="cls-9" x="63.66" y="165.32" width="0.78" height="6.3"/><rect class="cls-9" x="23.88" y="165.32" width="0.78" height="6.3"/><rect class="cls-9" x="22.2" y="165.32" width="0.78" height="6.3"/><rect class="cls-9" x="20.64" y="165.32" width="0.78" height="6.3"/><path class="cls-9" d="M19.44,165.32v6.3h.78v-6.36h-.48c-.12,0-.18.06-.3.06Z"/><path class="cls-9" d="M18.36,165.92V171a1.83,1.83,0,0,0,.78.54v-6.18a1.83,1.83,0,0,0-.78.54Z"/><path class="cls-8" d="M14.58,160.46v3.6a1.26,1.26,0,0,0,.3.78,1.64,1.64,0,0,0,.72.54,2.61,2.61,0,0,1,.3.06H84.24a1.66,1.66,0,0,0,.78-.18,1.7,1.7,0,0,0,.54-.36,1,1,0,0,0,.3-.66v-4a1.24,1.24,0,0,0-.6-.84,1.29,1.29,0,0,0-1-.3H15.9a1.65,1.65,0,0,0-1.08.6,1.11,1.11,0,0,0-.24.78Z"/><path class="cls-9" d="M48,165.44H84.48a2.16,2.16,0,0,0,.66-.12,3.3,3.3,0,0,0,.54-.42,2.51,2.51,0,0,0,.24-.6v-4a.22.22,0,0,0-.06-.18,1.07,1.07,0,0,0-.54-.72,1.43,1.43,0,0,0-.84-.3h-32a11.32,11.32,0,0,1-4.26,6.24Z"/><rect class="cls-9" x="22.86" y="159.08" width="0.78" height="6.36"/><rect class="cls-9" x="25.44" y="159.08" width="0.78" height="6.36"/><rect class="cls-9" x="28.62" y="159.08" width="0.78" height="6.36"/><rect class="cls-9" x="33.42" y="159.08" width="0.78" height="6.36"/><rect class="cls-9" x="38.52" y="159.08" width="0.78" height="6.36"/><rect class="cls-9" x="46.32" y="159.08" width="0.78" height="6.36"/><rect class="cls-9" x="53.64" y="159.08" width="0.78" height="6.36"/><rect class="cls-9" x="60.18" y="159.08" width="0.72" height="6.36"/><rect class="cls-9" x="20.34" y="159.08" width="0.78" height="6.36"/><rect class="cls-9" x="18.72" y="159.08" width="0.78" height="6.36"/><rect class="cls-9" x="17.1" y="159.08" width="0.78" height="6.36"/><path class="cls-9" d="M15.9,159.14v6.3h.78v-6.36H16.2a.65.65,0,0,0-.3.06Z"/><path class="cls-9" d="M14.82,159.68v5.16a2.29,2.29,0,0,0,.78.54V159.2a1.55,1.55,0,0,0-.78.48Z"/><path class="cls-8" d="M9,154.1v3.6a1.41,1.41,0,0,0,.3.78l.06.06a1.6,1.6,0,0,0,.36.3c.06,0,.12.06.24.06l.12.06a.45.45,0,0,0,.3.06H78.72a1.29,1.29,0,0,0,1-.3,1.24,1.24,0,0,0,.6-.84V154a1.34,1.34,0,0,0-.48-.9,1.36,1.36,0,0,0-1-.36.11.11,0,0,0-.18,0H10.38a.45.45,0,0,0-.3.06,1.44,1.44,0,0,0-.72.42l-.06.06a1.43,1.43,0,0,0-.3.84Z"/><path class="cls-9" d="M42.42,159.08H78.9a1.69,1.69,0,0,0,.9-.24,2.28,2.28,0,0,0,.54-.78v-4a1.4,1.4,0,0,0-.42-.9,1.09,1.09,0,0,0-.84-.36.11.11,0,0,0-.18,0h-32a11.16,11.16,0,0,1-4.5,6.3Z"/><rect class="cls-9" x="17.28" y="152.72" width="0.78" height="6.36"/><rect class="cls-9" x="19.92" y="152.72" width="0.78" height="6.36"/><rect class="cls-9" x="23.04" y="152.72" width="0.78" height="6.36"/><rect class="cls-9" x="27.84" y="152.72" width="0.78" height="6.36"/><rect class="cls-9" x="32.94" y="152.72" width="0.78" height="6.36"/><rect class="cls-9" x="40.74" y="152.72" width="0.78" height="6.36"/><rect class="cls-9" x="48.06" y="152.72" width="0.78" height="6.36"/><rect class="cls-9" x="54.6" y="152.72" width="0.78" height="6.36"/><rect class="cls-9" x="14.82" y="152.72" width="0.72" height="6.36"/><rect class="cls-9" x="13.14" y="152.72" width="0.78" height="6.36"/><rect class="cls-9" x="11.58" y="152.72" width="0.72" height="6.36"/><path class="cls-9" d="M10.38,152.72v6.36h.78v-6.36h-.78Z"/><path class="cls-9" d="M9.3,153.32v5.16a1.83,1.83,0,0,0,.78.54v-6.18a1.33,1.33,0,0,0-.78.48Z"/><path class="cls-8" d="M17.94,147.8v3.6a1.26,1.26,0,0,0,.3.78,1.33,1.33,0,0,0,.78.48.45.45,0,0,0,.3.06H87.66a1.2,1.2,0,0,0,.78-.12,1.7,1.7,0,0,0,.6-.54.9.9,0,0,0,.24-.66v-3.72a2.1,2.1,0,0,0-.36-.84,1.43,1.43,0,0,0-.78-.42,1.5,1.5,0,0,0-.48-.06H19.32a.45.45,0,0,0-.3.06l-.18.06a2.1,2.1,0,0,0-.48.3,1.08,1.08,0,0,0-.3.42,1.13,1.13,0,0,0-.12.48Z"/><path class="cls-9" d="M51.36,152.72H87.84a3,3,0,0,0,.72-.12,1.83,1.83,0,0,0,.48-.48.9.9,0,0,0,.24-.66v-3.78a1.18,1.18,0,0,0-.36-.84,1.26,1.26,0,0,0-.78-.42.54.54,0,0,1-.3-.06h-32l-.06.18a11.06,11.06,0,0,1-4.44,6.18Z"/><rect class="cls-9" x="26.22" y="146.42" width="0.78" height="6.3"/><rect class="cls-9" x="28.86" y="146.42" width="0.78" height="6.3"/><rect class="cls-9" x="31.98" y="146.42" width="0.78" height="6.3"/><rect class="cls-9" x="36.78" y="146.42" width="0.78" height="6.3"/><rect class="cls-9" x="41.88" y="146.42" width="0.78" height="6.3"/><rect class="cls-9" x="49.68" y="146.42" width="0.78" height="6.3"/><rect class="cls-9" x="57" y="146.42" width="0.78" height="6.3"/><rect class="cls-9" x="63.54" y="146.42" width="0.78" height="6.3"/><rect class="cls-9" x="23.7" y="146.42" width="0.78" height="6.3"/><rect class="cls-9" x="22.08" y="146.42" width="0.78" height="6.3"/><rect class="cls-9" x="20.52" y="146.42" width="0.72" height="6.3"/><path class="cls-9" d="M19.32,146.42v6.3h.78v-6.36h-.48a2.61,2.61,0,0,0-.3.06Z"/><path class="cls-9" d="M18.24,147v5.1a1.52,1.52,0,0,0,.78.54v-6.18a1.83,1.83,0,0,0-.78.54Z"/><path class="cls-8" d="M13,141.56v3.6a1.21,1.21,0,0,0,.24.78,1.55,1.55,0,0,0,.78.48c.12.06.18.06.3.12h68.4a1.6,1.6,0,0,0,.72-.18,1.37,1.37,0,0,0,.6-.42,1.33,1.33,0,0,0,.3-.66V141.5a1.83,1.83,0,0,0-.48-1,1.47,1.47,0,0,0-1-.36H14.28c-.12,0-.18.06-.3.06a1.83,1.83,0,0,0-.78.54.94.94,0,0,0-.24.78Z"/><path class="cls-9" d="M46.38,146.54H82.86a2.55,2.55,0,0,0,.66-.12,1.41,1.41,0,0,0,.54-.48,1.26,1.26,0,0,0,.24-.66V141.5a1.28,1.28,0,0,0-.42-.9,1.41,1.41,0,0,0-.84-.42H50.88a11.42,11.42,0,0,1-4.32,6.24Z"/><rect class="cls-9" x="21.24" y="140.18" width="0.78" height="6.36"/><rect class="cls-9" x="23.82" y="140.18" width="0.78" height="6.36"/><rect class="cls-9" x="27" y="140.18" width="0.72" height="6.36"/><rect class="cls-9" x="31.8" y="140.18" width="0.78" height="6.36"/><rect class="cls-9" x="36.9" y="140.18" width="0.78" height="6.36"/><rect class="cls-9" x="44.7" y="140.18" width="0.78" height="6.36"/><rect class="cls-9" x="52.02" y="140.18" width="0.72" height="6.36"/><rect class="cls-9" x="58.5" y="140.18" width="0.78" height="6.36"/><rect class="cls-9" x="18.72" y="140.18" width="0.78" height="6.36"/><rect class="cls-9" x="17.1" y="140.18" width="0.72" height="6.36"/><rect class="cls-9" x="15.48" y="140.18" width="0.78" height="6.36"/><path class="cls-9" d="M14.28,140.18v6.36h.78v-6.36h-.78Z"/><path class="cls-9" d="M13.2,140.78v5.16a1.55,1.55,0,0,0,.78.48V140.3a1.55,1.55,0,0,0-.78.48Z"/><path class="cls-8" d="M10.8,135.2v3.6a1.26,1.26,0,0,0,.3.78,1.83,1.83,0,0,0,.78.54,2.61,2.61,0,0,0,.3.06H80.52a1.68,1.68,0,0,0,1.08-.36,1.65,1.65,0,0,0,.6-1v-3.72a1.65,1.65,0,0,0-.6-1,1.68,1.68,0,0,0-1.08-.36H12.18a2.6,2.6,0,0,0-.3.06,1.83,1.83,0,0,0-.78.54,1.26,1.26,0,0,0-.3.78Z"/><path class="cls-9" d="M44.22,140.18H80.7a1.63,1.63,0,0,0,1-.36,1.83,1.83,0,0,0,.48-1v-3.72a1.83,1.83,0,0,0-.48-1,1.63,1.63,0,0,0-1-.36h-32a11.2,11.2,0,0,1-4.44,6.36Z"/><rect class="cls-9" x="19.08" y="133.82" width="0.78" height="6.36"/><rect class="cls-9" x="21.72" y="133.82" width="0.78" height="6.36"/><rect class="cls-9" x="24.84" y="133.82" width="0.78" height="6.36"/><rect class="cls-9" x="29.64" y="133.82" width="0.78" height="6.36"/><rect class="cls-9" x="34.74" y="133.82" width="0.78" height="6.36"/><rect class="cls-9" x="42.54" y="133.82" width="0.78" height="6.36"/><rect class="cls-9" x="49.86" y="133.82" width="0.78" height="6.36"/><rect class="cls-9" x="56.4" y="133.82" width="0.78" height="6.36"/><rect class="cls-9" x="16.62" y="133.82" width="0.78" height="6.36"/><rect class="cls-9" x="14.94" y="133.82" width="0.78" height="6.36"/><rect class="cls-9" x="13.38" y="133.82" width="0.72" height="6.36"/><path class="cls-9" d="M12.18,133.88v6.3H13v-6.36h-.48a.45.45,0,0,0-.3.06Z"/><path class="cls-9" d="M11.1,134.48v5.16a1.72,1.72,0,0,0,.78.48v-6.18a1.83,1.83,0,0,0-.78.54Z"/><path class="cls-10" d="M32.4,97.64s3.54,5,6.84,5.1,8.28-2.34,8.28-2.34,3-6.72,1-9.36a4.61,4.61,0,0,0-2.22-.18,4.25,4.25,0,0,0-2,.9,5.86,5.86,0,0,0-1.08,1A3.81,3.81,0,0,1,41.46,94c-2.34.72-5.1-1-6.18.66a10.14,10.14,0,0,1-1.8,2.16,13.22,13.22,0,0,1-1.08.84Z"/><path class="cls-10" d="M79,133.94s-12.66-30.66-35.4-31.2c0,0-21,2.34-22.2,31.2Z"/><path class="cls-11" d="M49.86,103.64s-9.12,2-11.94.84c0,0-.42-3.78,3.36-3.24a7.79,7.79,0,0,0,5.34-1.44c1.5-.72,3.6,2.28,3.24,3.84Z"/><path class="cls-12" d="M41.94,97.94c.54.42,2.34-6.18,2.34-6.18a4.61,4.61,0,0,0-1.08,1.08A3.68,3.68,0,0,1,41.46,94c0,.18-.12,3.48.48,4Z"/><path class="cls-12" d="M33.54,96.8c.12.06,4.32,2.58,4.92,2.58s-3.12-4.74-3.12-4.74a15.63,15.63,0,0,1-1.8,2.16Z"/><path class="cls-8" d="M84.12,198.32l1.26.72a1.8,1.8,0,0,0,.48.24c.3.18.66.36,1,.54a33.49,33.49,0,0,0,34.32-57.24,33,33,0,0,0-3.42-2.16,12.68,12.68,0,0,0-1.26-.66c-.48-.24-.9-.42-1.32-.6a28.43,28.43,0,0,0-4-1.5A33.4,33.4,0,0,0,71,156.14a33.45,33.45,0,0,0,13.14,42.18Z"/><path class="cls-9" d="M101.34,200.12a30.89,30.89,0,0,0,8.4-1.2,29.81,29.81,0,1,0-8.4,1.2Zm.06-59.22a29.19,29.19,0,0,1,28.14,21.54,29.27,29.27,0,0,1-1.14,18.66,28.94,28.94,0,0,1-12.24,14.1A28.58,28.58,0,0,1,97.92,199,28.89,28.89,0,0,1,81,191a29.27,29.27,0,0,1-8.52-16.62A29.83,29.83,0,0,1,75.78,156a29.19,29.19,0,0,1,10.74-11,28.87,28.87,0,0,1,14.88-4Z"/><path class="cls-13" d="M113,176.24a7.49,7.49,0,0,1-2.34,5.52,11.77,11.77,0,0,1-6.84,2.82v4.32h-4v-4.2a23.64,23.64,0,0,1-5.52-1,16.56,16.56,0,0,1-4.26-2.1l2.16-4.8a14.09,14.09,0,0,0,3.54,1.86,16,16,0,0,0,4.08.9v-6.48a33.31,33.31,0,0,1-4.68-1.5,7.66,7.66,0,0,1-3.24-2.4A6.19,6.19,0,0,1,90.6,165a7.23,7.23,0,0,1,2.4-5.52,11.42,11.42,0,0,1,6.84-2.88v-4.32h4v4.26a17.16,17.16,0,0,1,8,2.4l-1.92,4.8a15.78,15.78,0,0,0-6.06-2v6.6a27.31,27.31,0,0,1,4.68,1.44,7.86,7.86,0,0,1,3.18,2.4,6.13,6.13,0,0,1,1.32,4.14ZM97,164.66a2.05,2.05,0,0,0,.72,1.62,7.25,7.25,0,0,0,2.16,1v-5.52a4.13,4.13,0,0,0-2.16,1.14,2.4,2.4,0,0,0-.72,1.74Zm6.84,14.76a4.54,4.54,0,0,0,2.16-1,2.46,2.46,0,0,0,.66-1.68,2.05,2.05,0,0,0-.72-1.62,6.21,6.21,0,0,0-2.1-1.08Z"/><path class="cls-11" d="M211.86,14h66a14.65,14.65,0,0,1,14.7,14.7V59.9a14.65,14.65,0,0,1-14.7,14.7h-66A14.7,14.7,0,0,1,197.1,59.9V28.7A14.7,14.7,0,0,1,211.86,14Z"/><polygon class="cls-3" points="236.46 53.48 219.24 48.56 219.24 41.6 236.46 36.62 236.46 41 222.3 45.08 236.46 49.1 236.46 53.48"/><polygon class="cls-3" points="250.44 31.28 243.48 57.38 239.22 57.38 246.24 31.28 250.44 31.28"/><polygon class="cls-3" points="253.26 53.36 253.26 48.98 267.42 45.08 253.26 41.18 253.26 36.8 270.48 41.6 270.48 48.56 253.26 53.36"/></svg>