<svg width="486" height="282" viewBox="0 0 486 282" fill="none" xmlns="http://www.w3.org/2000/svg">
<g clip-path="url(#clip0_820_12312)">
<rect width="323.152" height="237.487" rx="20.7763" transform="matrix(0.866044 -0.499967 0.866044 0.499967 0 162.486)" fill="white"/>
<path d="M45.3426 170.007L35.2664 164.19L38.4908 162.328C39.0282 162.018 39.6448 161.815 40.3405 161.718C41.0315 161.618 41.7272 161.623 42.4277 161.734C43.1283 161.839 43.7544 162.051 44.3062 162.37C44.8628 162.691 45.2323 163.057 45.4146 163.467C45.6017 163.874 45.6065 164.278 45.429 164.68C45.2563 165.079 44.9084 165.429 44.3854 165.731L42.1686 167.011L46.3502 169.425L45.3426 170.007ZM41.161 166.429L43.2986 165.195C43.6537 164.99 43.8912 164.753 44.0111 164.485C44.1311 164.211 44.1287 163.938 44.0039 163.666C43.8792 163.389 43.6273 163.141 43.2482 162.923C42.8692 162.704 42.4421 162.56 41.9671 162.49C41.4921 162.416 41.0195 162.414 40.5492 162.486C40.079 162.553 39.6664 162.688 39.3113 162.893L37.1737 164.127L41.161 166.429ZM52.7367 165.738L45.5394 161.583L46.547 161.001L47.5403 161.575C47.4299 161.218 47.4707 160.859 47.6626 160.499C47.8545 160.139 48.1904 159.82 48.6702 159.543C48.9485 159.382 49.2532 159.248 49.5843 159.14L50.1745 159.954C49.9106 160.035 49.6826 160.13 49.4907 160.241C49.1021 160.466 48.8406 160.727 48.7062 161.026C48.5767 161.323 48.5767 161.619 48.7062 161.916C48.8358 162.212 49.0973 162.474 49.4907 162.701L53.7443 165.156L52.7367 165.738ZM60.7576 161.324C60.0954 161.706 59.3205 161.957 58.4329 162.076C57.55 162.192 56.6599 162.18 55.7627 162.038C54.8654 161.892 54.0689 161.617 53.3732 161.216C52.8454 160.911 52.4471 160.573 52.1784 160.202C51.905 159.828 51.7586 159.447 51.7394 159.059C51.7202 158.666 51.8306 158.286 52.0705 157.921C52.3104 157.555 52.6775 157.23 53.1717 156.944C53.8338 156.562 54.6063 156.313 55.4892 156.197C56.3769 156.077 57.2693 156.091 58.1666 156.238C59.0686 156.382 59.8699 156.656 60.5705 157.061C61.0935 157.363 61.4893 157.699 61.758 158.07C62.0267 158.442 62.1707 158.824 62.1898 159.217C62.209 159.605 62.0987 159.982 61.8588 160.347C61.6237 160.71 61.2566 161.036 60.7576 161.324ZM59.75 160.742C60.2394 160.46 60.5513 160.133 60.6856 159.761C60.82 159.385 60.7888 159.009 60.5921 158.635C60.4001 158.259 60.0571 157.928 59.5628 157.642C59.059 157.352 58.4809 157.151 57.8283 157.04C57.171 156.926 56.5184 156.91 55.8706 156.99C55.2277 157.068 54.6639 157.246 54.1793 157.526C53.6899 157.809 53.378 158.138 53.2436 158.515C53.1093 158.886 53.1381 159.26 53.33 159.637C53.5267 160.011 53.877 160.343 54.3808 160.634C54.899 160.933 55.4868 161.137 56.1441 161.245C56.7967 161.35 57.4444 161.361 58.0874 161.278C58.7256 161.192 59.2798 161.014 59.75 160.742ZM57.8725 152.294L59.751 153.379L61.9102 152.132L62.9178 152.714L60.7586 153.961L66.9483 157.534L65.9406 158.116L59.751 154.542L58.765 155.111L57.7573 154.53L58.7434 153.961L56.8649 152.876C56.5146 152.674 56.2819 152.443 56.1667 152.182C56.0516 151.916 56.054 151.652 56.1739 151.389C56.2891 151.123 56.5218 150.889 56.8721 150.686C57.1264 150.54 57.4215 150.427 57.7573 150.35C58.098 150.27 58.4603 150.232 58.8441 150.238L58.8369 151.065C58.6642 151.053 58.4915 151.067 58.3187 151.106C58.1508 151.142 58.0044 151.196 57.8797 151.268C57.635 151.409 57.5102 151.581 57.5054 151.783C57.5054 151.983 57.6278 152.153 57.8725 152.294ZM63.0125 151.496L64.0201 150.914L71.2174 155.069L70.2097 155.651L63.0125 151.496ZM62.264 150.474C62.1008 150.568 61.9089 150.618 61.6882 150.623C61.4675 150.623 61.2755 150.576 61.1124 150.482C60.9493 150.388 60.8701 150.279 60.8749 150.154C60.8797 150.024 60.9636 149.912 61.1268 149.817C61.2851 149.726 61.4747 149.68 61.6954 149.68C61.9161 149.675 62.108 149.719 62.2712 149.813C62.4343 149.907 62.5159 150.018 62.5159 150.146C62.5111 150.27 62.4271 150.38 62.264 150.474ZM70.439 148.372L68.7189 149.365L74.9013 152.943L73.8937 153.524L67.7113 149.947L66.4086 150.699L65.401 150.117L66.7037 149.365L64.4365 148.065L65.4441 147.483L67.7113 148.783L69.4314 147.79L70.439 148.372Z" fill="#9A9A9A"/>
<path d="M77.9212 186.089L63.3611 177.683L61.1444 178.963L58.9024 176.709L63.3611 174.135L80.9944 184.315L77.9212 186.089ZM90.4487 178.857L84.2897 165.601L75.007 170.96L71.9338 169.186L84.7809 161.769L87.8541 163.544L93.988 176.814L90.4487 178.857ZM109.533 167.839L105.263 165.374L97.7567 169.708L94.6709 167.927L91.182 158.074L94.9732 155.885L105.263 161.826L106.75 160.968L109.823 162.742L108.337 163.6L112.606 166.065L109.533 167.839ZM98.2353 165.869L102.19 163.6L96.0815 160.088L98.2353 165.869ZM122.761 160.581C121.636 161.231 120.322 161.665 118.818 161.883C117.315 162.101 115.812 162.101 114.309 161.883C112.806 161.665 111.484 161.226 110.342 160.567C109.754 160.227 109.275 159.873 108.906 159.505C108.545 159.132 108.255 158.712 108.037 158.247L104.397 150.445L107.961 148.387L110.38 153.608C111.009 153.186 111.723 152.842 112.521 152.576C113.319 152.309 114.167 152.125 115.065 152.023C115.964 151.921 116.87 151.902 117.786 151.965C118.701 152.028 119.583 152.178 120.431 152.416C121.287 152.648 122.072 152.971 122.786 153.383C123.642 153.877 124.281 154.435 124.7 155.055C125.129 155.671 125.347 156.31 125.355 156.975C125.355 157.634 125.141 158.276 124.713 158.901C124.276 159.522 123.626 160.082 122.761 160.581ZM119.688 158.807C120.301 158.453 120.699 158.053 120.884 157.607C121.06 157.156 121.044 156.715 120.834 156.284C120.632 155.848 120.263 155.474 119.725 155.164C119.146 154.83 118.478 154.604 117.723 154.488C116.967 154.371 116.207 154.369 115.443 154.481C114.687 154.587 114.011 154.813 113.415 155.157C112.802 155.511 112.408 155.913 112.231 156.364C112.055 156.805 112.072 157.241 112.282 157.673C112.491 158.104 112.874 158.48 113.428 158.8C114.024 159.144 114.704 159.367 115.468 159.469C116.232 159.57 116.988 159.566 117.735 159.454C118.491 159.338 119.142 159.122 119.688 158.807ZM128.241 139.894C127.637 140.233 127.166 140.616 126.831 141.042C126.495 141.459 126.327 141.862 126.327 142.249C126.327 142.637 126.545 142.957 126.982 143.209C127.544 143.534 128.124 143.689 128.72 143.675C129.324 143.655 129.958 143.532 130.622 143.304C131.277 143.071 131.982 142.8 132.738 142.489C134.098 141.917 135.496 141.469 136.932 141.144C138.368 140.819 139.753 140.693 141.088 140.766C142.415 140.834 143.603 141.171 144.653 141.777C145.61 142.329 146.215 142.964 146.467 143.682C146.71 144.394 146.647 145.129 146.278 145.885C145.917 146.636 145.291 147.342 144.401 148.001L146.97 149.484L144.867 150.699L142.298 149.215C141.349 149.647 140.337 149.984 139.262 150.226C138.187 150.468 137.108 150.597 136.025 150.611C134.95 150.621 133.93 150.497 132.964 150.241L134.791 147.965C135.244 148.091 135.79 148.129 136.428 148.081C137.066 148.033 137.73 147.906 138.418 147.703C139.107 147.499 139.749 147.225 140.345 146.881C140.958 146.527 141.437 146.144 141.781 145.732C142.125 145.311 142.293 144.908 142.285 144.525C142.268 144.138 142.033 143.813 141.58 143.551C141.118 143.284 140.568 143.166 139.93 143.195C139.283 143.219 138.603 143.335 137.889 143.544C137.175 143.752 136.487 143.995 135.824 144.271C134.379 144.882 132.96 145.357 131.566 145.696C130.173 146.035 128.829 146.166 127.536 146.089C126.251 146.006 125.042 145.638 123.909 144.983C122.951 144.431 122.347 143.796 122.095 143.078C121.851 142.356 121.914 141.622 122.284 140.875C122.653 140.119 123.283 139.411 124.173 138.752L121.591 137.261L123.694 136.047L126.276 137.538C127.208 137.116 128.212 136.784 129.287 136.542C130.361 136.299 131.445 136.173 132.536 136.163C133.628 136.144 134.661 136.265 135.635 136.527L133.783 138.803C133.33 138.677 132.784 138.638 132.146 138.687C131.508 138.735 130.848 138.863 130.168 139.072C129.48 139.276 128.837 139.549 128.241 139.894Z" fill="black"/>
<path d="M144.889 131.806L142.568 130.466L140.247 131.806L139.491 131.369L141.812 130.03L139.491 128.69L140.247 128.253L142.568 129.593L144.889 128.253L145.645 128.69L143.324 130.03L145.645 131.369L144.889 131.806ZM149.37 129.842L148.701 129.456C148.722 129.127 148.748 128.768 148.776 128.377C148.802 127.985 148.814 127.589 148.814 127.19C148.814 126.787 148.789 126.405 148.739 126.043C148.685 125.68 148.593 125.361 148.463 125.087C148.334 124.808 148.152 124.602 147.918 124.467C147.634 124.302 147.305 124.193 146.93 124.139C146.556 124.081 146.182 124.079 145.808 124.133C145.433 124.183 145.104 124.29 144.82 124.454C144.535 124.618 144.347 124.81 144.253 125.031C144.159 125.247 144.161 125.464 144.258 125.682C144.352 125.898 144.541 126.088 144.825 126.252L144.069 126.688C143.638 126.439 143.351 126.153 143.211 125.831C143.074 125.507 143.078 125.185 143.222 124.865C143.362 124.543 143.643 124.261 144.064 124.018C144.485 123.775 144.973 123.614 145.527 123.535C146.085 123.454 146.641 123.455 147.195 123.538C147.753 123.619 148.246 123.783 148.674 124.03C148.929 124.178 149.142 124.379 149.311 124.635C149.48 124.886 149.613 125.173 149.71 125.495C149.804 125.815 149.872 126.153 149.915 126.511C149.959 126.868 149.982 127.229 149.986 127.592C149.986 127.954 149.977 128.3 149.959 128.63L153.413 126.635L154.169 127.072L149.37 129.842ZM157.817 125.128C157.357 125.394 156.826 125.571 156.225 125.661C155.627 125.748 155.032 125.747 154.438 125.657C153.841 125.566 153.317 125.39 152.867 125.131L153.623 124.695C153.936 124.875 154.301 124.997 154.719 125.059C155.133 125.119 155.546 125.119 155.96 125.059C156.378 124.997 156.745 124.874 157.061 124.691C157.375 124.511 157.583 124.301 157.688 124.062C157.792 123.823 157.792 123.584 157.688 123.345C157.583 123.102 157.375 122.89 157.061 122.709C156.745 122.527 156.381 122.404 155.971 122.342C155.561 122.275 155.142 122.276 154.713 122.345C154.285 122.409 153.884 122.55 153.51 122.766L151.674 123.825L148.889 121.394L152.425 119.353L153.18 119.79L150.255 121.479L151.847 122.853L152.732 122.348C153.254 122.055 153.815 121.858 154.416 121.756C155.021 121.652 155.618 121.644 156.209 121.731C156.799 121.814 157.335 121.995 157.817 122.273C158.155 122.468 158.409 122.69 158.578 122.937C158.751 123.182 158.837 123.438 158.837 123.704C158.837 123.965 158.753 124.22 158.584 124.467C158.415 124.71 158.159 124.93 157.817 125.128ZM161.636 122.761L158.44 115.88L159.315 115.376L162.51 122.256L161.636 122.761ZM157.917 119.592C157.679 119.729 157.406 119.82 157.096 119.866C156.787 119.912 156.475 119.913 156.162 119.869C155.849 119.821 155.574 119.729 155.336 119.592C155.092 119.451 154.93 119.291 154.851 119.112C154.775 118.931 154.777 118.752 154.856 118.573C154.939 118.392 155.097 118.234 155.331 118.099C155.568 117.962 155.844 117.872 156.157 117.828C156.466 117.782 156.776 117.782 157.085 117.828C157.398 117.872 157.675 117.963 157.917 118.102C158.158 118.242 158.316 118.402 158.392 118.582C158.471 118.761 158.469 118.941 158.386 119.121C158.307 119.3 158.151 119.457 157.917 119.592ZM157.339 119.258C157.541 119.142 157.641 119.005 157.641 118.847C157.638 118.687 157.537 118.55 157.339 118.436C157.137 118.319 156.9 118.261 156.626 118.261C156.349 118.259 156.11 118.316 155.909 118.433C155.711 118.547 155.612 118.685 155.612 118.847C155.612 119.005 155.712 119.142 155.914 119.258C156.112 119.373 156.349 119.431 156.626 119.433C156.904 119.431 157.141 119.373 157.339 119.258ZM165.636 120.034C165.398 120.172 165.121 120.263 164.804 120.309C164.488 120.35 164.173 120.349 163.86 120.306C163.547 120.258 163.275 120.167 163.045 120.034C162.804 119.895 162.645 119.735 162.57 119.555C162.49 119.372 162.49 119.191 162.57 119.012C162.652 118.832 162.811 118.674 163.045 118.539C163.286 118.399 163.563 118.308 163.876 118.264C164.189 118.221 164.502 118.223 164.815 118.271C165.125 118.316 165.396 118.407 165.63 118.542C165.868 118.679 166.028 118.838 166.111 119.019C166.19 119.197 166.19 119.378 166.111 119.561C166.032 119.739 165.873 119.897 165.636 120.034ZM165.058 119.701C165.252 119.589 165.35 119.452 165.35 119.29C165.35 119.128 165.251 118.989 165.053 118.875C164.855 118.761 164.615 118.704 164.335 118.704C164.054 118.704 163.817 118.76 163.622 118.872C163.424 118.986 163.324 119.126 163.32 119.29C163.32 119.452 163.419 119.59 163.617 119.704C163.815 119.818 164.054 119.875 164.335 119.875C164.619 119.873 164.86 119.815 165.058 119.701Z" fill="#02E341"/>
<path d="M93.7978 200.266L93.3516 200.009L93.2148 197.927C93.1908 197.631 93.1212 197.388 93.0061 197.2C92.8957 197.009 92.7254 196.847 92.4951 196.714C91.9049 196.373 91.2667 196.401 90.5806 196.797C90.0672 197.093 89.8057 197.466 89.7961 197.915L89.1124 197.778C89.1076 197.559 89.1915 197.333 89.3643 197.1C89.537 196.862 89.7841 196.65 90.1056 196.465C90.6142 196.171 91.1228 196.016 91.6314 195.999C92.14 195.977 92.6126 196.092 93.0493 196.344C93.3516 196.519 93.5747 196.733 93.7186 196.988C93.8578 197.24 93.9369 197.549 93.9561 197.915L94.0497 199.539L96.5256 198.11L97.0294 198.401L93.7978 200.266ZM99.6895 196.94C99.109 197.275 98.4444 197.401 97.6959 197.318C96.9474 197.235 96.1509 196.95 95.3064 196.462C94.4571 195.972 93.9629 195.512 93.8238 195.083C93.6846 194.653 93.9053 194.271 94.4859 193.936C95.0713 193.598 95.7334 193.47 96.4724 193.554C97.2113 193.631 98.0054 193.915 98.8547 194.405C99.7039 194.896 100.198 195.358 100.337 195.793C100.481 196.225 100.265 196.607 99.6895 196.94ZM99.1785 196.645C99.5816 196.412 99.7087 196.142 99.56 195.835C99.416 195.524 98.9842 195.162 98.2645 194.746C97.5448 194.331 96.9234 194.083 96.4004 194.002C95.8726 193.919 95.4048 193.995 94.9969 194.231C94.5939 194.464 94.4619 194.734 94.6011 195.041C94.745 195.346 95.1745 195.704 95.8894 196.117C96.6091 196.533 97.2353 196.783 97.7679 196.869C98.3053 196.952 98.7755 196.878 99.1785 196.645ZM104.005 194.449C103.425 194.784 102.76 194.91 102.011 194.827C101.263 194.744 100.466 194.458 99.622 193.971C98.7727 193.48 98.2785 193.021 98.1393 192.591C98.0002 192.162 98.2209 191.78 98.8015 191.444C99.3868 191.107 100.049 190.979 100.788 191.062C101.527 191.14 102.321 191.424 103.17 191.914C104.019 192.404 104.514 192.867 104.653 193.302C104.797 193.734 104.581 194.116 104.005 194.449ZM103.494 194.154C103.897 193.921 104.024 193.651 103.876 193.343C103.732 193.033 103.3 192.67 102.58 192.255C101.86 191.839 101.239 191.591 100.716 191.511C100.188 191.428 99.7203 191.504 99.3125 191.739C98.9094 191.972 98.7775 192.242 98.9166 192.55C99.0606 192.854 99.49 193.213 100.205 193.626C100.925 194.041 101.551 194.292 102.083 194.378C102.621 194.461 103.091 194.386 103.494 194.154ZM108.321 191.957C107.74 192.292 107.076 192.418 106.327 192.335C105.578 192.252 104.782 191.967 103.938 191.479C103.088 190.989 102.594 190.529 102.455 190.1C102.316 189.671 102.536 189.288 103.117 188.953C103.702 188.615 104.365 188.488 105.103 188.571C105.842 188.648 106.636 188.932 107.486 189.423C108.335 189.913 108.829 190.376 108.968 190.81C109.112 191.243 108.896 191.625 108.321 191.957ZM107.81 191.662C108.213 191.429 108.34 191.159 108.191 190.852C108.047 190.542 107.615 190.179 106.896 189.763C106.176 189.348 105.554 189.1 105.031 189.02C104.504 188.936 104.036 189.013 103.628 189.248C103.225 189.481 103.093 189.751 103.232 190.058C103.376 190.363 103.806 190.722 104.52 191.134C105.24 191.55 105.866 191.801 106.399 191.887C106.936 191.97 107.407 191.895 107.81 191.662Z" fill="#6D6D6D"/>
<path d="M120.18 215.215L119.676 214.924L120.835 214.255L116.977 212.028L116.639 212.888L115.948 212.78L116.43 211.521L116.855 211.276L121.425 213.914L122.512 213.287L123.016 213.578L120.18 215.215ZM125.935 211.967C125.609 212.156 125.244 212.305 124.841 212.416C124.438 212.527 124.038 212.587 123.639 212.595L123.395 212.196C124.205 212.149 124.875 211.973 125.403 211.668C125.753 211.466 125.93 211.25 125.935 211.02C125.94 210.79 125.782 210.582 125.46 210.397C125.129 210.206 124.762 210.105 124.359 210.094C123.956 210.082 123.586 210.174 123.251 210.368C122.766 210.648 122.586 210.984 122.711 211.377L122.279 211.627L119.263 209.886L122.207 208.186L122.711 208.477L120.35 209.84L122.164 210.887C122.164 210.566 122.392 210.274 122.848 210.01C123.164 209.828 123.507 209.707 123.877 209.649C124.246 209.591 124.616 209.596 124.985 209.666C125.355 209.729 125.7 209.854 126.022 210.04C126.338 210.222 126.549 210.425 126.655 210.646C126.76 210.868 126.753 211.093 126.633 211.323C126.518 211.551 126.285 211.765 125.935 211.967ZM130.143 209.538C129.562 209.874 128.898 210 128.149 209.916C127.401 209.833 126.604 209.548 125.76 209.061C124.91 208.57 124.416 208.11 124.277 207.681C124.138 207.252 124.359 206.869 124.939 206.534C125.525 206.196 126.187 206.069 126.926 206.152C127.665 206.23 128.459 206.514 129.308 207.004C130.157 207.494 130.651 207.957 130.791 208.392C130.934 208.824 130.719 209.206 130.143 209.538ZM129.632 209.243C130.035 209.011 130.162 208.741 130.013 208.433C129.869 208.123 129.437 207.76 128.718 207.345C127.998 206.929 127.377 206.681 126.854 206.601C126.326 206.518 125.858 206.594 125.45 206.829C125.047 207.062 124.915 207.332 125.054 207.64C125.198 207.944 125.628 208.303 126.343 208.716C127.062 209.131 127.689 209.382 128.221 209.468C128.759 209.551 129.229 209.476 129.632 209.243ZM134.458 207.047C133.878 207.382 133.213 207.508 132.465 207.425C131.716 207.342 130.92 207.057 130.075 206.569C129.226 206.079 128.732 205.619 128.593 205.19C128.453 204.76 128.674 204.378 129.255 204.043C129.84 203.705 130.502 203.578 131.241 203.661C131.98 203.738 132.774 204.022 133.623 204.512C134.473 205.003 134.967 205.465 135.106 205.9C135.25 206.332 135.034 206.715 134.458 207.047ZM133.947 206.752C134.35 206.519 134.478 206.249 134.329 205.942C134.185 205.632 133.753 205.269 133.033 204.853C132.314 204.438 131.692 204.19 131.169 204.109C130.641 204.026 130.174 204.103 129.766 204.338C129.363 204.571 129.231 204.841 129.37 205.148C129.514 205.453 129.943 205.812 130.658 206.224C131.378 206.64 132.004 206.891 132.537 206.976C133.074 207.059 133.544 206.985 133.947 206.752Z" fill="#6D6D6D"/>
<path d="M146.317 230.303L145.813 230.012L146.972 229.343L143.114 227.116L142.776 227.976L142.085 227.868L142.567 226.609L142.992 226.364L147.562 229.002L148.649 228.375L149.153 228.666L146.317 230.303ZM151.964 227.118C151.383 227.453 150.719 227.579 149.97 227.496C149.222 227.413 148.425 227.127 147.581 226.64C146.732 226.15 146.237 225.69 146.098 225.26C145.959 224.831 146.18 224.449 146.76 224.114C147.346 223.776 148.008 223.648 148.747 223.731C149.486 223.809 150.28 224.093 151.129 224.583C151.978 225.073 152.473 225.536 152.612 225.971C152.756 226.403 152.54 226.785 151.964 227.118ZM151.453 226.823C151.856 226.59 151.983 226.32 151.834 226.012C151.69 225.702 151.259 225.339 150.539 224.924C149.819 224.508 149.198 224.26 148.675 224.18C148.147 224.097 147.679 224.173 147.271 224.409C146.868 224.641 146.736 224.911 146.875 225.219C147.019 225.524 147.449 225.882 148.164 226.295C148.884 226.71 149.51 226.961 150.042 227.047C150.58 227.13 151.05 227.055 151.453 226.823ZM156.28 224.626C155.699 224.961 155.034 225.087 154.286 225.004C153.537 224.921 152.741 224.636 151.896 224.148C151.047 223.658 150.553 223.198 150.414 222.769C150.275 222.34 150.495 221.957 151.076 221.622C151.661 221.284 152.323 221.157 153.062 221.24C153.801 221.318 154.595 221.601 155.445 222.092C156.294 222.582 156.788 223.045 156.927 223.479C157.071 223.912 156.855 224.294 156.28 224.626ZM155.768 224.331C156.172 224.099 156.299 223.829 156.15 223.521C156.006 223.211 155.574 222.848 154.854 222.432C154.135 222.017 153.513 221.769 152.99 221.689C152.463 221.606 151.995 221.682 151.587 221.917C151.184 222.15 151.052 222.42 151.191 222.727C151.335 223.032 151.764 223.391 152.479 223.804C153.199 224.219 153.825 224.47 154.358 224.556C154.895 224.639 155.365 224.564 155.768 224.331ZM160.595 222.135C160.014 222.47 159.35 222.596 158.601 222.513C157.853 222.43 157.056 222.145 156.212 221.657C155.363 221.167 154.868 220.707 154.729 220.278C154.59 219.848 154.811 219.466 155.391 219.131C155.977 218.793 156.639 218.665 157.378 218.749C158.117 218.826 158.911 219.11 159.76 219.6C160.609 220.091 161.104 220.553 161.243 220.988C161.387 221.42 161.171 221.803 160.595 222.135ZM160.084 221.84C160.487 221.607 160.614 221.337 160.465 221.03C160.322 220.719 159.89 220.357 159.17 219.941C158.45 219.526 157.829 219.278 157.306 219.197C156.778 219.114 156.31 219.19 155.902 219.426C155.499 219.659 155.367 219.929 155.507 220.236C155.651 220.541 156.08 220.899 156.795 221.312C157.515 221.728 158.141 221.978 158.673 222.064C159.211 222.147 159.681 222.073 160.084 221.84Z" fill="#6D6D6D"/>
<path d="M176.071 243.379C175.745 243.567 175.38 243.717 174.977 243.827C174.574 243.938 174.173 243.998 173.775 244.006L173.53 243.607C174.341 243.56 175.01 243.384 175.538 243.08C175.888 242.877 176.066 242.661 176.071 242.431C176.076 242.201 175.917 241.994 175.596 241.808C175.265 241.617 174.898 241.516 174.495 241.505C174.092 241.494 173.722 241.585 173.386 241.779C172.902 242.059 172.722 242.395 172.846 242.789L172.415 243.038L169.399 241.297L172.343 239.598L172.846 239.889L170.486 241.251L172.299 242.298C172.299 241.977 172.527 241.685 172.983 241.422C173.3 241.239 173.643 241.118 174.012 241.06C174.382 241.002 174.751 241.008 175.121 241.077C175.49 241.141 175.836 241.265 176.157 241.451C176.474 241.634 176.685 241.836 176.791 242.057C176.896 242.279 176.889 242.505 176.769 242.735C176.654 242.962 176.421 243.176 176.071 243.379ZM180.278 240.95C179.698 241.285 179.033 241.411 178.285 241.328C177.536 241.245 176.74 240.959 175.895 240.472C175.046 239.982 174.552 239.522 174.413 239.092C174.273 238.663 174.494 238.281 175.075 237.946C175.66 237.608 176.322 237.48 177.061 237.563C177.8 237.641 178.594 237.925 179.444 238.415C180.293 238.905 180.787 239.368 180.926 239.803C181.07 240.235 180.854 240.617 180.278 240.95ZM179.767 240.655C180.17 240.422 180.298 240.152 180.149 239.844C180.005 239.534 179.573 239.171 178.853 238.756C178.134 238.34 177.512 238.092 176.989 238.012C176.461 237.929 175.994 238.005 175.586 238.241C175.183 238.473 175.051 238.743 175.19 239.051C175.334 239.356 175.763 239.714 176.478 240.127C177.198 240.542 177.824 240.793 178.357 240.879C178.894 240.962 179.364 240.887 179.767 240.655ZM184.594 238.458C184.013 238.793 183.349 238.919 182.6 238.836C181.852 238.753 181.055 238.468 180.211 237.98C179.362 237.49 178.867 237.03 178.728 236.601C178.589 236.172 178.81 235.789 179.39 235.454C179.976 235.116 180.638 234.989 181.377 235.072C182.116 235.15 182.91 235.433 183.759 235.924C184.608 236.414 185.103 236.877 185.242 237.312C185.386 237.744 185.17 238.126 184.594 238.458ZM184.083 238.163C184.486 237.931 184.613 237.661 184.464 237.353C184.32 237.043 183.889 236.68 183.169 236.264C182.449 235.849 181.828 235.601 181.305 235.521C180.777 235.438 180.309 235.514 179.901 235.749C179.498 235.982 179.366 236.252 179.505 236.559C179.649 236.864 180.079 237.223 180.794 237.636C181.514 238.051 182.14 238.302 182.672 238.388C183.21 238.471 183.68 238.396 184.083 238.163Z" fill="#6D6D6D"/>
<path d="M203.552 257.689C202.971 258.024 202.307 258.15 201.558 258.067C200.81 257.984 200.013 257.699 199.169 257.211C198.319 256.721 197.825 256.261 197.686 255.832C197.547 255.402 197.768 255.02 198.348 254.685C198.933 254.347 199.596 254.22 200.335 254.303C201.073 254.38 201.868 254.664 202.717 255.155C203.566 255.645 204.06 256.107 204.199 256.542C204.343 256.974 204.128 257.357 203.552 257.689ZM203.041 257.394C203.444 257.161 203.571 256.891 203.422 256.584C203.278 256.274 202.846 255.911 202.127 255.495C201.407 255.08 200.786 254.832 200.263 254.752C199.735 254.668 199.267 254.745 198.859 254.98C198.456 255.213 198.324 255.483 198.463 255.79C198.607 256.095 199.037 256.454 199.752 256.866C200.471 257.282 201.097 257.533 201.63 257.618C202.167 257.702 202.638 257.627 203.041 257.394Z" fill="#6D6D6D"/>
<path d="M228.832 252.241L223.758 249.312L224.254 249.025L229.868 250.014L228.141 246.782L228.637 246.495L233.711 249.424L233.164 249.74L229.199 247.451L230.689 250.264L230.3 250.488L225.413 249.644L229.371 251.93L228.832 252.241ZM236.414 247.939C236.073 248.136 235.704 248.263 235.305 248.321C234.907 248.379 234.504 248.371 234.096 248.296C233.688 248.216 233.3 248.069 232.93 247.856C232.561 247.643 232.309 247.42 232.175 247.187C232.04 246.949 232.023 246.715 232.124 246.485C232.225 246.255 232.446 246.041 232.786 245.845C233.122 245.651 233.489 245.525 233.887 245.467C234.291 245.406 234.696 245.415 235.104 245.496C235.512 245.571 235.9 245.715 236.27 245.928C236.639 246.141 236.891 246.367 237.025 246.605C237.16 246.838 237.174 247.071 237.069 247.303C236.968 247.533 236.75 247.745 236.414 247.939ZM235.946 247.669C236.272 247.48 236.419 247.263 236.385 247.017C236.347 246.767 236.111 246.518 235.68 246.269C235.243 246.017 234.811 245.881 234.384 245.861C233.957 245.842 233.58 245.927 233.254 246.115C232.923 246.306 232.774 246.525 232.808 246.771C232.846 247.015 233.084 247.263 233.52 247.515C233.952 247.764 234.382 247.902 234.809 247.926C235.236 247.946 235.615 247.86 235.946 247.669Z" fill="#6D6D6D"/>
<path d="M262.008 233.091L257.445 230.457L255.602 231.521L255.091 231.226L259.373 228.754L259.884 229.049L258.042 230.112L262.605 232.746L262.008 233.091ZM265.796 230.979C264.956 231.464 264.073 231.439 263.147 230.905L260.973 229.65L261.556 229.313L263.723 230.564C264.035 230.744 264.327 230.841 264.601 230.855C264.879 230.866 265.155 230.792 265.428 230.634C265.726 230.463 265.87 230.266 265.86 230.044C265.846 229.82 265.673 229.612 265.342 229.421L263.356 228.274L263.939 227.938L267.437 229.957L266.868 230.285L266.278 229.945C266.379 230.13 266.386 230.315 266.299 230.497C266.213 230.675 266.045 230.835 265.796 230.979Z" fill="#6D6D6D"/>
<path d="M300.609 210.806L293.757 208.903L294.376 208.546L300.018 210.149L297.276 206.871L297.751 206.597L303.451 208.209L300.666 204.914L301.256 204.573L304.553 208.529L304.027 208.832L298.406 207.257L301.12 210.511L300.609 210.806ZM308.302 206.439C307.751 206.758 307.153 206.917 306.51 206.917C305.862 206.914 305.26 206.752 304.704 206.431C304.344 206.223 304.099 205.999 303.97 205.758C303.835 205.514 303.818 205.277 303.919 205.047C304.02 204.812 304.236 204.598 304.567 204.407C305.042 204.133 305.567 204.007 306.143 204.029C306.714 204.048 307.266 204.212 307.799 204.519L308.022 204.648L305.387 206.169C305.805 206.388 306.225 206.497 306.647 206.497C307.064 206.494 307.46 206.385 307.835 206.169C308.046 206.047 308.216 205.913 308.346 205.766C308.47 205.616 308.545 205.449 308.569 205.263L309.18 205.384C309.171 205.561 309.087 205.745 308.929 205.936C308.765 206.125 308.557 206.292 308.302 206.439ZM305.013 204.648C304.682 204.839 304.524 205.05 304.538 205.28C304.553 205.51 304.711 205.731 305.013 205.945L307.136 204.719C306.767 204.522 306.397 204.417 306.028 204.403C305.663 204.386 305.325 204.468 305.013 204.648Z" fill="#6D6D6D"/>
<path d="M335.336 190.757L330.773 188.123L328.93 189.187L328.419 188.892L332.702 186.42L333.213 186.715L331.37 187.778L335.933 190.412L335.336 190.757ZM338.341 189.022L333.267 186.093L333.85 185.757L336.002 186.999C335.906 186.811 335.908 186.626 336.009 186.446C336.11 186.261 336.29 186.093 336.549 185.944C337.379 185.464 338.255 185.491 339.176 186.022L341.357 187.281L340.774 187.618L338.629 186.38C338.303 186.191 338 186.092 337.722 186.081C337.444 186.064 337.166 186.136 336.887 186.297C336.566 186.482 336.41 186.689 336.419 186.916C336.429 187.137 336.599 187.344 336.93 187.535L338.924 188.686L338.341 189.022Z" fill="#6D6D6D"/>
<path d="M373.297 168.843L368.223 165.914L371.361 164.102L371.857 164.389L369.309 165.86L371.08 166.882L373.484 165.494L373.98 165.781L371.577 167.169L373.887 168.503L373.297 168.843ZM377.09 166.653L373.592 164.634L374.161 164.306L374.787 164.667C374.552 164.315 374.703 163.959 375.241 163.599L375.428 163.466L375.975 163.732L375.651 163.969C375.349 164.177 375.202 164.383 375.212 164.588C375.217 164.79 375.375 164.982 375.687 165.162L377.68 166.313L377.09 166.653Z" fill="#6D6D6D"/>
<path d="M411.302 146.976C410.904 147.206 410.494 147.385 410.072 147.512C409.644 147.637 409.215 147.71 408.783 147.733L408.517 147.338C408.949 147.305 409.345 147.237 409.704 147.134C410.064 147.032 410.422 146.878 410.777 146.673C411.209 146.424 411.449 146.194 411.497 145.983C411.545 145.767 411.437 145.583 411.173 145.431C410.962 145.309 410.717 145.256 410.439 145.273C410.165 145.287 409.815 145.375 409.388 145.539L408.488 145.884C407.941 146.089 407.447 146.194 407.005 146.199C406.564 146.199 406.161 146.094 405.796 145.884C405.494 145.709 405.307 145.512 405.235 145.294C405.168 145.072 405.211 144.845 405.365 144.612C405.518 144.379 405.777 144.158 406.142 143.947C406.482 143.751 406.854 143.6 407.257 143.494C407.656 143.386 408.056 143.332 408.459 143.332L408.711 143.719C408.299 143.73 407.929 143.78 407.603 143.868C407.272 143.954 406.958 144.083 406.66 144.255C406.281 144.474 406.067 144.699 406.019 144.932C405.967 145.162 406.084 145.36 406.372 145.526C406.602 145.659 406.854 145.724 407.128 145.722C407.406 145.716 407.737 145.638 408.121 145.489L409.028 145.148C409.613 144.927 410.124 144.809 410.561 144.795C410.998 144.776 411.391 144.867 411.741 145.069C412.024 145.233 412.197 145.421 412.259 145.634C412.327 145.845 412.279 146.066 412.116 146.299C411.957 146.529 411.686 146.755 411.302 146.976ZM415.111 144.777C414.871 144.916 414.61 145.014 414.327 145.072C414.044 145.125 413.765 145.136 413.492 145.106C413.218 145.075 412.981 145.002 412.779 144.885C412.525 144.739 412.388 144.585 412.369 144.424C412.355 144.261 412.468 144.074 412.707 143.863C412.947 143.647 413.331 143.387 413.859 143.082L414.089 142.949L413.866 142.82C413.569 142.649 413.293 142.561 413.038 142.559C412.784 142.55 412.523 142.624 412.254 142.779C412.043 142.901 411.87 143.036 411.736 143.186C411.597 143.333 411.491 143.505 411.419 143.701L410.793 143.572C410.846 143.392 410.963 143.205 411.146 143.012C411.333 142.815 411.546 142.647 411.786 142.509C412.237 142.248 412.681 142.12 413.118 142.122C413.559 142.122 414.013 142.257 414.478 142.525L416.68 143.797L416.133 144.113L415.529 143.764C415.644 143.935 415.665 144.111 415.594 144.291C415.526 144.469 415.366 144.631 415.111 144.777ZM414.766 144.47C415.054 144.304 415.19 144.111 415.176 143.892C415.157 143.671 414.994 143.471 414.687 143.294L414.471 143.169L414.248 143.298C413.859 143.523 413.571 143.711 413.384 143.863C413.197 144.01 413.103 144.136 413.103 144.241C413.103 144.341 413.18 144.435 413.334 144.524C413.53 144.638 413.758 144.692 414.017 144.686C414.281 144.678 414.531 144.606 414.766 144.47Z" fill="#6D6D6D"/>
<path d="M446.15 126.859C445.752 127.089 445.341 127.268 444.919 127.395C444.492 127.52 444.063 127.593 443.631 127.615L443.365 127.221C443.796 127.187 444.192 127.12 444.552 127.017C444.912 126.915 445.269 126.761 445.625 126.556C446.056 126.307 446.296 126.077 446.344 125.866C446.392 125.65 446.284 125.466 446.02 125.314C445.809 125.192 445.565 125.139 445.286 125.156C445.013 125.169 444.662 125.258 444.235 125.422L443.336 125.766C442.789 125.971 442.295 126.077 441.853 126.082C441.412 126.082 441.009 125.977 440.644 125.766C440.342 125.592 440.155 125.395 440.083 125.176C440.015 124.955 440.059 124.728 440.212 124.495C440.366 124.262 440.625 124.041 440.989 123.83C441.33 123.634 441.702 123.483 442.105 123.377C442.503 123.269 442.904 123.215 443.307 123.215L443.559 123.602C443.146 123.613 442.777 123.663 442.451 123.751C442.119 123.837 441.805 123.966 441.508 124.138C441.129 124.356 440.915 124.582 440.867 124.815C440.814 125.045 440.932 125.243 441.22 125.409C441.45 125.542 441.702 125.607 441.976 125.604C442.254 125.599 442.585 125.521 442.969 125.372L443.876 125.031C444.461 124.809 444.972 124.692 445.409 124.678C445.845 124.658 446.239 124.75 446.589 124.952C446.872 125.115 447.045 125.304 447.107 125.517C447.174 125.728 447.126 125.949 446.963 126.182C446.805 126.412 446.534 126.638 446.15 126.859ZM450.096 124.581C449.256 125.066 448.373 125.041 447.447 124.506L445.274 123.252L445.857 122.915L448.023 124.166C448.335 124.346 448.627 124.443 448.901 124.457C449.179 124.468 449.455 124.394 449.729 124.236C450.026 124.065 450.17 123.868 450.16 123.646C450.146 123.422 449.973 123.214 449.642 123.023L447.656 121.876L448.239 121.54L451.737 123.559L451.168 123.887L450.578 123.547C450.679 123.732 450.686 123.916 450.6 124.099C450.513 124.277 450.345 124.437 450.096 124.581Z" fill="#6D6D6D"/>
<path d="M218.785 245.854L439.301 118.55" stroke="#FAFAFA" stroke-width="1.03881" stroke-linecap="round"/>
<path d="M167.931 216.495C165.943 215.348 165.943 213.488 167.931 212.34L181.937 204.255C183.924 203.107 187.147 203.107 189.134 204.255L239.987 233.612L218.784 245.853L167.931 216.495Z" fill="#7F7DAE" fill-opacity="0.4"/>
<path d="M227.974 211.173C225.986 210.026 225.986 208.166 227.974 207.018L241.98 198.932C243.967 197.785 247.19 197.785 249.177 198.932L274.619 213.62L253.416 225.861L227.974 211.173Z" fill="#7F7DAE" fill-opacity="0.4"/>
<path d="M270.592 195.79C268.604 194.643 268.604 192.783 270.592 191.635L284.598 183.55C286.585 182.402 289.808 182.402 291.795 183.55L309.251 193.627L288.048 205.868L270.592 195.79Z" fill="#7F7DAE" fill-opacity="0.4"/>
<path d="M260.212 149.81C258.224 148.663 258.224 146.802 260.212 145.655L274.218 137.569C276.206 136.422 279.428 136.422 281.415 137.569L343.885 173.633L322.681 185.873L260.212 149.81Z" fill="#7F7DAE"/>
<path d="M319.528 144.068C317.541 142.92 317.541 141.06 319.528 139.913L333.534 131.827C335.522 130.68 338.744 130.68 340.732 131.827L378.516 153.64L357.313 165.881L319.528 144.068Z" fill="#7F7DAE" fill-opacity="0.4"/>
<path d="M309.147 98.0892C307.16 96.9418 307.16 95.0816 309.147 93.9342L323.154 85.8485C325.141 84.7011 328.363 84.7011 330.351 85.8485L413.149 133.648L391.945 145.888L309.147 98.0892Z" fill="#7F7DAE"/>
<path d="M321.272 65.1029C319.285 63.9555 319.285 62.0953 321.272 60.9479L335.279 52.8621C337.266 51.7148 340.488 51.7148 342.476 52.8621L447.78 113.654L426.577 125.895L321.272 65.1029Z" fill="#7F7DAE"/>
</g>
<defs>
<clipPath id="clip0_820_12312">
<rect width="323.152" height="237.487" rx="20.7763" transform="matrix(0.866044 -0.499967 0.866044 0.499967 0 162.486)" fill="white"/>
</clipPath>
</defs>
</svg>
