<svg width="374" height="231" viewBox="0 0 374 231" fill="none" xmlns="http://www.w3.org/2000/svg">
<g filter="url(#filter0_f_820_12450)">
<rect width="246.817" height="173.027" rx="20.7763" transform="matrix(0.866044 -0.499967 0.866044 0.499967 5.1875 134.039)" fill="black" fill-opacity="0.05"/>
</g>
<g clip-path="url(#clip0_820_12450)">
<rect width="246.817" height="173.027" rx="20.7763" transform="matrix(0.866044 -0.499967 0.866044 0.499967 5.18652 123.652)" fill="white"/>
<path d="M169.979 180.246L336.291 84.2345" stroke="#FAFAFA" stroke-width="0.825853" stroke-linecap="round"/>
<path d="M95.0882 157.871C94.6342 158.133 94.1841 158.28 93.7378 158.313C93.2877 158.344 92.8853 158.257 92.5305 158.052C92.2826 157.909 92.1376 157.748 92.0957 157.57C92.0575 157.389 92.1185 157.215 92.2788 157.048C92.0003 157.121 91.7199 157.142 91.4376 157.111C91.1554 157.08 90.9055 157.002 90.6881 156.876C90.3486 156.68 90.2056 156.459 90.259 156.212C90.3124 155.961 90.5431 155.718 90.9513 155.482C91.3595 155.247 91.781 155.114 92.2158 155.083C92.6469 155.05 93.0321 155.131 93.3716 155.327C93.589 155.453 93.7245 155.599 93.7779 155.766C93.8313 155.929 93.795 156.089 93.6692 156.245C93.9591 156.153 94.2585 156.119 94.5675 156.143C94.8765 156.167 95.1549 156.251 95.4029 156.394C95.7576 156.599 95.9083 156.831 95.8549 157.091C95.7977 157.349 95.5421 157.609 95.0882 157.871ZM92.7994 156.549C93.0779 156.389 93.2305 156.226 93.2572 156.06C93.2839 155.891 93.1847 155.741 92.9596 155.611C92.7308 155.479 92.4733 155.423 92.1872 155.443C91.9011 155.458 91.6188 155.546 91.3404 155.707C91.0619 155.868 90.9093 156.031 90.8826 156.196C90.8521 156.359 90.9513 156.506 91.1802 156.638C91.4052 156.768 91.6627 156.827 91.9526 156.814C92.2387 156.798 92.521 156.71 92.7994 156.549ZM94.6991 157.646C95.3552 157.267 95.4296 156.931 94.9222 156.638C94.4225 156.35 93.8446 156.395 93.1885 156.774C92.5324 157.153 92.4542 157.486 92.9539 157.775C93.4613 158.068 94.043 158.025 94.6991 157.646ZM98.519 155.89C98.0574 156.156 97.5291 156.257 96.9341 156.191C96.339 156.124 95.7058 155.898 95.0344 155.51C94.3593 155.12 93.9664 154.755 93.8557 154.413C93.7451 154.072 93.9206 153.768 94.3821 153.502C94.8475 153.233 95.3739 153.132 95.9614 153.198C96.5488 153.259 97.1801 153.485 97.8553 153.875C98.5305 154.265 98.9233 154.633 99.034 154.978C99.1484 155.322 98.9768 155.626 98.519 155.89ZM98.1128 155.655C98.4332 155.47 98.5343 155.256 98.416 155.011C98.3016 154.765 97.9583 154.476 97.3861 154.146C96.8139 153.816 96.3199 153.618 95.9041 153.555C95.4845 153.489 95.1126 153.549 94.7884 153.736C94.468 153.921 94.3631 154.136 94.4737 154.38C94.5881 154.623 94.9295 154.908 95.4979 155.236C96.0701 155.566 96.5679 155.766 96.9913 155.834C97.4185 155.9 97.7923 155.84 98.1128 155.655ZM101.95 153.909C101.488 154.176 100.96 154.276 100.365 154.21C99.7698 154.144 99.1366 153.917 98.4653 153.529C97.7901 153.14 97.3972 152.774 97.2866 152.433C97.176 152.091 97.3514 151.788 97.813 151.521C98.2784 151.252 98.8048 151.151 99.3922 151.217C99.9796 151.279 100.611 151.505 101.286 151.894C101.961 152.284 102.354 152.652 102.465 152.998C102.579 153.341 102.408 153.645 101.95 153.909ZM101.544 153.675C101.864 153.49 101.965 153.275 101.847 153.031C101.732 152.784 101.389 152.496 100.817 152.165C100.245 151.835 99.7508 151.638 99.335 151.574C98.9154 151.508 98.5435 151.568 98.2192 151.756C97.8988 151.941 97.7939 152.155 97.9045 152.4C98.019 152.642 98.3604 152.927 98.9287 153.255C99.5009 153.586 99.9987 153.785 100.422 153.853C100.849 153.919 101.223 153.86 101.544 153.675ZM106.85 151.08C106.389 151.347 105.86 151.447 105.265 151.381C104.67 151.315 104.037 151.088 103.366 150.7C102.691 150.311 102.298 149.945 102.187 149.604C102.076 149.262 102.252 148.959 102.713 148.692C103.179 148.423 103.705 148.322 104.293 148.388C104.88 148.45 105.511 148.676 106.187 149.065C106.862 149.455 107.255 149.823 107.365 150.169C107.48 150.512 107.308 150.816 106.85 151.08ZM106.444 150.846C106.764 150.661 106.866 150.446 106.747 150.202C106.633 149.955 106.29 149.667 105.717 149.336C105.145 149.006 104.651 148.809 104.235 148.745C103.816 148.679 103.444 148.739 103.12 148.927C102.799 149.112 102.694 149.326 102.805 149.571C102.919 149.813 103.261 150.098 103.829 150.426C104.401 150.757 104.899 150.956 105.323 151.024C105.75 151.09 106.124 151.031 106.444 150.846ZM110.281 149.1C109.82 149.366 109.291 149.466 108.696 149.4C108.101 149.334 107.468 149.107 106.797 148.72C106.121 148.33 105.728 147.964 105.618 147.623C105.507 147.282 105.683 146.978 106.144 146.711C106.61 146.443 107.136 146.342 107.723 146.408C108.311 146.469 108.942 146.695 109.617 147.085C110.293 147.475 110.685 147.842 110.796 148.188C110.911 148.532 110.739 148.835 110.281 149.1ZM109.875 148.865C110.195 148.68 110.296 148.465 110.178 148.221C110.064 147.974 109.72 147.686 109.148 147.356C108.576 147.025 108.082 146.828 107.666 146.764C107.247 146.698 106.875 146.759 106.55 146.946C106.23 147.131 106.125 147.346 106.236 147.59C106.35 147.832 106.692 148.118 107.26 148.446C107.832 148.776 108.33 148.975 108.753 149.044C109.181 149.11 109.554 149.05 109.875 148.865ZM113.712 147.119C113.25 147.386 112.722 147.486 112.127 147.42C111.532 147.354 110.899 147.127 110.227 146.739C109.552 146.349 109.159 145.984 109.049 145.643C108.938 145.301 109.114 144.997 109.575 144.731C110.04 144.462 110.567 144.361 111.154 144.427C111.742 144.489 112.373 144.714 113.048 145.104C113.723 145.494 114.116 145.862 114.227 146.207C114.341 146.551 114.17 146.855 113.712 147.119ZM113.306 146.885C113.626 146.7 113.727 146.485 113.609 146.24C113.495 145.994 113.151 145.705 112.579 145.375C112.007 145.045 111.513 144.848 111.097 144.784C110.677 144.718 110.306 144.778 109.981 144.965C109.661 145.15 109.556 145.365 109.667 145.609C109.781 145.852 110.122 146.137 110.691 146.465C111.263 146.795 111.761 146.995 112.184 147.063C112.611 147.129 112.985 147.07 113.306 146.885Z" fill="#6D6D6D"/>
<path d="M124.801 174.514L123.937 174.015L122.078 175.089L121.723 174.884L120.848 172.139L121.242 171.911L124.012 173.51L124.613 173.163L125.013 173.394L124.412 173.741L125.276 174.24L124.801 174.514ZM123.537 173.784L121.54 172.631L122.164 174.577L123.537 173.784ZM127.843 172.818C127.382 173.084 126.853 173.184 126.258 173.118C125.663 173.052 125.03 172.825 124.359 172.438C123.683 172.048 123.291 171.682 123.18 171.341C123.069 171 123.245 170.696 123.706 170.429C124.172 170.161 124.698 170.06 125.286 170.126C125.873 170.187 126.504 170.413 127.179 170.803C127.855 171.193 128.248 171.56 128.358 171.906C128.473 172.25 128.301 172.553 127.843 172.818ZM127.437 172.583C127.757 172.398 127.858 172.183 127.74 171.939C127.626 171.692 127.282 171.404 126.71 171.074C126.138 170.743 125.644 170.546 125.228 170.482C124.809 170.416 124.437 170.477 124.113 170.664C123.792 170.849 123.687 171.064 123.798 171.308C123.912 171.55 124.254 171.836 124.822 172.164C125.394 172.494 125.892 172.693 126.316 172.762C126.743 172.828 127.117 172.768 127.437 172.583ZM131.274 170.837C130.813 171.104 130.284 171.204 129.689 171.138C129.094 171.072 128.461 170.845 127.789 170.457C127.114 170.067 126.721 169.702 126.611 169.361C126.5 169.019 126.676 168.715 127.137 168.449C127.603 168.18 128.129 168.079 128.716 168.145C129.304 168.207 129.935 168.432 130.61 168.822C131.286 169.212 131.678 169.58 131.789 169.925C131.903 170.269 131.732 170.573 131.274 170.837ZM130.868 170.603C131.188 170.418 131.289 170.203 131.171 169.958C131.057 169.712 130.713 169.423 130.141 169.093C129.569 168.763 129.075 168.566 128.659 168.502C128.24 168.436 127.868 168.496 127.543 168.683C127.223 168.868 127.118 169.083 127.229 169.327C127.343 169.57 127.685 169.855 128.253 170.183C128.825 170.513 129.323 170.713 129.746 170.781C130.174 170.847 130.547 170.788 130.868 170.603ZM136.174 168.008C135.713 168.275 135.185 168.375 134.59 168.309C133.994 168.243 133.361 168.016 132.69 167.628C132.015 167.238 131.622 166.873 131.511 166.532C131.401 166.19 131.576 165.886 132.038 165.62C132.503 165.351 133.029 165.25 133.617 165.316C134.204 165.378 134.836 165.603 135.511 165.993C136.186 166.383 136.579 166.751 136.689 167.096C136.804 167.44 136.632 167.744 136.174 168.008ZM135.768 167.774C136.089 167.589 136.19 167.374 136.071 167.129C135.957 166.883 135.614 166.594 135.042 166.264C134.469 165.934 133.975 165.737 133.56 165.673C133.14 165.607 132.768 165.667 132.444 165.854C132.123 166.039 132.019 166.254 132.129 166.498C132.244 166.741 132.585 167.026 133.153 167.354C133.726 167.684 134.223 167.884 134.647 167.952C135.074 168.018 135.448 167.958 135.768 167.774ZM139.605 166.027C139.144 166.294 138.615 166.394 138.02 166.328C137.425 166.262 136.792 166.035 136.121 165.648C135.446 165.258 135.053 164.892 134.942 164.551C134.831 164.21 135.007 163.906 135.468 163.639C135.934 163.371 136.46 163.269 137.048 163.335C137.635 163.397 138.266 163.623 138.942 164.012C139.617 164.402 140.01 164.77 140.12 165.116C140.235 165.459 140.063 165.763 139.605 166.027ZM139.199 165.793C139.52 165.608 139.621 165.393 139.502 165.149C139.388 164.902 139.045 164.614 138.472 164.283C137.9 163.953 137.406 163.756 136.99 163.692C136.571 163.626 136.199 163.687 135.875 163.874C135.554 164.059 135.449 164.273 135.56 164.518C135.674 164.76 136.016 165.045 136.584 165.373C137.156 165.704 137.654 165.903 138.078 165.971C138.505 166.037 138.879 165.978 139.199 165.793ZM143.036 164.047C142.575 164.313 142.046 164.413 141.451 164.347C140.856 164.281 140.223 164.054 139.552 163.667C138.876 163.277 138.484 162.912 138.373 162.57C138.262 162.229 138.438 161.925 138.899 161.659C139.365 161.39 139.891 161.289 140.479 161.355C141.066 161.416 141.697 161.642 142.372 162.032C143.048 162.422 143.441 162.789 143.551 163.135C143.666 163.479 143.494 163.783 143.036 164.047ZM142.63 163.812C142.95 163.627 143.051 163.413 142.933 163.168C142.819 162.921 142.475 162.633 141.903 162.303C141.331 161.972 140.837 161.775 140.421 161.711C140.002 161.645 139.63 161.706 139.306 161.893C138.985 162.078 138.88 162.293 138.991 162.537C139.105 162.779 139.447 163.065 140.015 163.393C140.587 163.723 141.085 163.922 141.508 163.991C141.936 164.057 142.31 163.997 142.63 163.812Z" fill="#6D6D6D"/>
<path d="M163.261 186.23C162.8 186.496 162.271 186.597 161.676 186.531C161.081 186.464 160.448 186.238 159.777 185.85C159.102 185.46 158.709 185.095 158.598 184.753C158.487 184.412 158.663 184.108 159.124 183.842C159.59 183.573 160.116 183.472 160.704 183.538C161.291 183.6 161.922 183.825 162.598 184.215C163.273 184.605 163.666 184.973 163.776 185.318C163.891 185.662 163.719 185.966 163.261 186.23ZM162.855 185.995C163.175 185.81 163.277 185.596 163.158 185.351C163.044 185.105 162.701 184.816 162.128 184.486C161.556 184.156 161.062 183.958 160.646 183.895C160.227 183.829 159.855 183.889 159.531 184.076C159.21 184.261 159.105 184.476 159.216 184.72C159.33 184.963 159.672 185.248 160.24 185.576C160.812 185.906 161.31 186.106 161.734 186.174C162.161 186.24 162.535 186.18 162.855 185.995Z" fill="#6D6D6D"/>
<path d="M177.691 185.524L173.657 183.195L174.052 182.967L178.515 183.754L177.141 181.184L177.536 180.956L181.57 183.285L181.135 183.536L177.983 181.716L179.167 183.952L178.858 184.13L174.973 183.46L178.12 185.276L177.691 185.524ZM183.718 182.104C183.448 182.26 183.154 182.361 182.837 182.408C182.521 182.454 182.2 182.447 181.876 182.388C181.552 182.324 181.243 182.207 180.949 182.038C180.655 181.868 180.455 181.691 180.348 181.506C180.241 181.317 180.228 181.13 180.308 180.948C180.388 180.765 180.564 180.595 180.835 180.439C181.102 180.285 181.393 180.185 181.71 180.138C182.031 180.09 182.353 180.098 182.677 180.162C183.001 180.221 183.31 180.335 183.604 180.505C183.898 180.675 184.098 180.854 184.205 181.043C184.312 181.228 184.323 181.413 184.239 181.598C184.159 181.781 183.985 181.95 183.718 182.104ZM183.347 181.889C183.606 181.739 183.722 181.566 183.696 181.37C183.665 181.172 183.478 180.974 183.135 180.776C182.788 180.576 182.444 180.468 182.105 180.452C181.765 180.437 181.466 180.504 181.207 180.654C180.943 180.806 180.825 180.98 180.852 181.176C180.882 181.369 181.071 181.566 181.418 181.767C181.762 181.965 182.103 182.074 182.442 182.094C182.782 182.109 183.083 182.041 183.347 181.889Z" fill="#6D6D6D"/>
<path d="M205.778 169.311L202.15 167.217L200.685 168.062L200.279 167.828L203.683 165.862L204.09 166.097L202.625 166.942L206.252 169.037L205.778 169.311ZM208.789 167.632C208.121 168.017 207.419 167.997 206.683 167.572L204.955 166.575L205.419 166.307L207.141 167.302C207.389 167.445 207.622 167.522 207.839 167.533C208.06 167.542 208.28 167.483 208.497 167.358C208.734 167.221 208.848 167.065 208.84 166.889C208.829 166.71 208.692 166.545 208.428 166.393L206.849 165.481L207.313 165.214L210.093 166.819L209.641 167.08L209.172 166.809C209.252 166.957 209.258 167.103 209.189 167.249C209.121 167.39 208.987 167.517 208.789 167.632Z" fill="#6D6D6D"/>
<path d="M234.449 152.759L229.002 151.246L229.494 150.962L233.98 152.237L231.8 149.63L232.177 149.412L236.709 150.694L234.495 148.075L234.964 147.804L237.585 150.948L237.167 151.19L232.698 149.938L234.855 152.524L234.449 152.759ZM240.566 149.287C240.127 149.54 239.652 149.667 239.141 149.667C238.626 149.665 238.147 149.536 237.705 149.28C237.419 149.115 237.224 148.937 237.121 148.745C237.014 148.551 237.001 148.363 237.081 148.18C237.161 147.993 237.333 147.824 237.596 147.672C237.974 147.454 238.391 147.354 238.849 147.371C239.303 147.387 239.742 147.516 240.165 147.761L240.342 147.863L238.248 149.072C238.58 149.246 238.914 149.333 239.25 149.333C239.581 149.331 239.896 149.244 240.194 149.072C240.361 148.975 240.497 148.869 240.6 148.752C240.699 148.633 240.758 148.5 240.777 148.352L241.264 148.448C241.256 148.589 241.189 148.735 241.063 148.887C240.934 149.037 240.768 149.17 240.566 149.287ZM237.951 147.863C237.688 148.015 237.562 148.183 237.573 148.365C237.585 148.548 237.71 148.724 237.951 148.894L239.639 147.919C239.345 147.763 239.051 147.679 238.757 147.668C238.468 147.655 238.199 147.72 237.951 147.863Z" fill="#6D6D6D"/>
<path d="M260.727 137.588L257.099 135.494L255.634 136.34L255.228 136.105L258.633 134.14L259.039 134.374L257.574 135.22L261.202 137.314L260.727 137.588ZM263.116 136.209L259.082 133.88L259.546 133.613L261.256 134.6C261.18 134.451 261.182 134.304 261.262 134.161C261.342 134.013 261.485 133.88 261.691 133.761C262.351 133.38 263.047 133.401 263.78 133.824L265.513 134.825L265.05 135.092L263.345 134.108C263.085 133.958 262.845 133.879 262.624 133.87C262.403 133.857 262.181 133.914 261.96 134.042C261.705 134.19 261.581 134.354 261.588 134.534C261.596 134.71 261.731 134.874 261.994 135.026L263.579 135.941L263.116 136.209Z" fill="#6D6D6D"/>
<path d="M289.042 121.242L285.008 118.913L287.502 117.473L287.897 117.701L285.872 118.87L287.279 119.683L289.19 118.579L289.585 118.807L287.674 119.911L289.511 120.971L289.042 121.242ZM292.057 119.501L289.277 117.895L289.729 117.634L290.226 117.922C290.04 117.642 290.16 117.359 290.587 117.073L290.736 116.967L291.171 117.178L290.913 117.367C290.673 117.532 290.556 117.696 290.564 117.859C290.568 118.02 290.694 118.172 290.942 118.315L292.527 119.23L292.057 119.501Z" fill="#6D6D6D"/>
<path d="M317.506 104.868C317.189 105.051 316.863 105.193 316.527 105.294C316.188 105.393 315.846 105.451 315.503 105.469L315.291 105.155C315.635 105.129 315.949 105.075 316.235 104.993C316.521 104.912 316.806 104.79 317.088 104.627C317.431 104.429 317.622 104.246 317.66 104.078C317.698 103.907 317.612 103.76 317.403 103.639C317.235 103.542 317.04 103.5 316.819 103.514C316.601 103.525 316.323 103.595 315.984 103.725L315.268 103.999C314.833 104.162 314.441 104.246 314.09 104.25C313.739 104.25 313.418 104.167 313.128 103.999C312.888 103.86 312.739 103.704 312.682 103.53C312.629 103.354 312.663 103.173 312.785 102.988C312.907 102.803 313.113 102.627 313.403 102.46C313.674 102.304 313.969 102.184 314.29 102.1C314.606 102.014 314.925 101.971 315.245 101.971L315.446 102.278C315.118 102.287 314.824 102.327 314.565 102.397C314.301 102.465 314.051 102.568 313.815 102.704C313.514 102.878 313.344 103.058 313.306 103.243C313.264 103.426 313.357 103.583 313.586 103.715C313.769 103.821 313.969 103.873 314.187 103.87C314.408 103.866 314.671 103.804 314.976 103.685L315.697 103.414C316.163 103.238 316.569 103.145 316.916 103.134C317.263 103.118 317.576 103.191 317.855 103.352C318.08 103.482 318.217 103.631 318.267 103.801C318.32 103.968 318.282 104.144 318.152 104.329C318.026 104.512 317.811 104.692 317.506 104.868ZM320.534 103.12C320.343 103.23 320.135 103.308 319.91 103.354C319.685 103.396 319.464 103.405 319.246 103.381C319.029 103.356 318.84 103.298 318.68 103.206C318.478 103.089 318.369 102.967 318.354 102.839C318.342 102.709 318.432 102.56 318.623 102.393C318.813 102.221 319.119 102.014 319.538 101.772L319.721 101.666L319.544 101.564C319.307 101.427 319.088 101.358 318.886 101.356C318.684 101.349 318.476 101.408 318.262 101.531C318.094 101.628 317.957 101.736 317.85 101.855C317.74 101.971 317.656 102.108 317.598 102.264L317.101 102.162C317.143 102.019 317.236 101.87 317.381 101.716C317.53 101.56 317.7 101.426 317.89 101.316C318.249 101.109 318.602 101.007 318.949 101.009C319.3 101.009 319.66 101.116 320.03 101.329L321.781 102.34L321.346 102.591L320.866 102.314C320.957 102.45 320.974 102.59 320.917 102.733C320.864 102.874 320.736 103.003 320.534 103.12ZM320.259 102.875C320.488 102.743 320.597 102.59 320.585 102.416C320.57 102.24 320.44 102.081 320.196 101.94L320.024 101.841L319.847 101.944C319.538 102.122 319.309 102.272 319.16 102.393C319.012 102.51 318.937 102.61 318.937 102.694C318.937 102.773 318.998 102.848 319.12 102.918C319.277 103.009 319.458 103.051 319.664 103.047C319.874 103.04 320.072 102.983 320.259 102.875Z" fill="#6D6D6D"/>
<path d="M343.15 90.0652C342.833 90.2479 342.507 90.39 342.171 90.4913C341.832 90.5904 341.49 90.6487 341.147 90.6663L340.935 90.3525C341.279 90.3261 341.593 90.2722 341.879 90.1907C342.165 90.1092 342.45 89.987 342.732 89.824C343.075 89.6258 343.266 89.4431 343.304 89.2757C343.342 89.1039 343.256 88.9575 343.047 88.8364C342.879 88.7395 342.684 88.6976 342.463 88.7109C342.246 88.7219 341.967 88.7923 341.628 88.9223L340.912 89.1964C340.477 89.3594 340.085 89.4431 339.734 89.4475C339.383 89.4475 339.062 89.3638 338.772 89.1964C338.532 89.0577 338.383 88.9013 338.326 88.7274C338.273 88.5512 338.307 88.3706 338.429 88.1856C338.551 88.0007 338.757 87.8245 339.047 87.6571C339.318 87.5008 339.613 87.3808 339.934 87.2971C340.251 87.2112 340.569 87.1683 340.889 87.1683L341.09 87.4755C340.762 87.4843 340.468 87.5239 340.209 87.5944C339.945 87.6626 339.696 87.765 339.459 87.9016C339.158 88.0755 338.988 88.255 338.95 88.44C338.908 88.6228 339.001 88.7802 339.23 88.9123C339.413 89.0181 339.613 89.0698 339.831 89.0676C340.052 89.0632 340.315 89.0015 340.621 88.8826L341.341 88.6118C341.807 88.4356 342.213 88.342 342.56 88.331C342.907 88.3156 343.22 88.3882 343.499 88.549C343.724 88.6789 343.861 88.8287 343.911 88.9982C343.964 89.1656 343.926 89.3418 343.796 89.5267C343.67 89.7095 343.455 89.889 343.15 90.0652ZM346.286 88.2542C345.619 88.6396 344.917 88.6198 344.181 88.1948L342.453 87.1972L342.916 86.9297L344.639 87.9239C344.887 88.0671 345.119 88.1441 345.337 88.1551C345.558 88.164 345.777 88.1056 345.995 87.9801C346.231 87.8435 346.346 87.6872 346.338 87.511C346.327 87.3326 346.189 87.1675 345.926 87.0155L344.347 86.1039L344.81 85.8363L347.591 87.4417L347.139 87.7026L346.67 87.4317C346.75 87.5793 346.756 87.7257 346.687 87.8711C346.618 88.012 346.485 88.1397 346.286 88.2542Z" fill="#6D6D6D"/>
<path opacity="0.07" d="M187.949 159.519C178.106 165.202 174.287 172.043 165.027 177.388L169.979 180.247L336.29 84.2351L286.225 55.3321C271.979 63.5558 280.588 71.4038 269.818 77.6213C256.224 85.4691 263.079 94.602 250.833 101.672C236.947 109.688 246.152 120.192 235.468 126.359C224.404 132.747 217.402 133.789 207.026 139.779C194.408 147.064 199.263 152.988 187.949 159.519Z" fill="url(#paint0_linear_820_12450)"/>
<path d="M162.469 175.911C161.876 176.253 161.876 176.808 162.469 177.15C163.062 177.492 164.022 177.492 164.615 177.15L162.469 175.911ZM234.278 125.673L235.351 126.292L234.278 125.673ZM287.297 55.9515C287.89 55.6094 287.89 55.0548 287.297 54.7128C286.705 54.3707 285.744 54.3707 285.152 54.7128L287.297 55.9515ZM164.615 177.15C169.382 174.398 172.77 171.286 176.131 168.23C179.513 165.154 182.881 162.121 187.669 159.357L185.523 158.119C180.468 161.037 176.938 164.228 173.569 167.291C170.178 170.375 166.961 173.318 162.469 175.911L164.615 177.15ZM187.669 159.357C193.601 155.933 195.367 152.675 197.208 149.5C199.027 146.365 200.939 143.257 206.994 139.761L204.848 138.523C198.286 142.311 196.192 145.735 194.331 148.944C192.492 152.114 190.905 155.012 185.523 158.119L187.669 159.357ZM206.994 139.761C212.086 136.822 216.319 135.087 220.724 133.269C225.147 131.443 229.727 129.539 235.351 126.292L233.205 125.053C227.765 128.194 223.354 130.029 218.959 131.844C214.546 133.665 210.133 135.472 204.848 138.523L206.994 139.761ZM235.351 126.292C241.143 122.948 241.63 118.485 242.492 114.254C243.37 109.943 244.616 105.647 251.167 101.865L249.021 100.626C241.687 104.86 240.366 109.694 239.479 114.05C238.575 118.486 238.097 122.229 233.205 125.053L235.351 126.292ZM251.167 101.865C257.642 98.1264 259.149 93.8794 260.748 89.8134C262.352 85.7324 264.059 81.7626 270.525 78.0297L268.38 76.791C261.252 80.9058 259.403 85.3185 257.788 89.4256C256.168 93.5477 254.792 97.2944 249.021 100.626L251.167 101.865ZM270.525 78.0297C276.315 74.6873 276.984 70.9177 278.032 67.2667C279.08 63.6153 280.51 59.8697 287.297 55.9515L285.152 54.7128C277.694 59.0182 276.123 63.203 275.039 66.9804C273.954 70.7581 273.36 73.9158 268.38 76.791L270.525 78.0297Z" fill="#1EE5CE"/>
<path d="M49.8447 131.566L39.7685 125.749L40.7761 125.167L50.8523 130.984L49.8447 131.566ZM52.7916 129.864L45.5943 125.709L46.602 125.128L47.5952 125.701C47.4896 125.341 47.5304 124.982 47.7175 124.625C47.9047 124.268 48.2381 123.951 48.718 123.674C49.2602 123.361 49.8911 123.151 50.6108 123.046C51.3258 122.938 52.0311 122.938 52.7268 123.046C52.5397 122.644 52.5373 122.239 52.7196 121.829C52.8972 121.416 53.257 121.053 53.7992 120.74C54.3414 120.427 54.9676 120.218 55.6777 120.113C56.3878 120.007 57.098 120.007 57.8081 120.113C58.5182 120.218 59.1444 120.427 59.6866 120.74L64.1417 123.312L63.1341 123.894L58.9021 121.451C58.5182 121.229 58.0696 121.078 57.5562 120.998C57.0428 120.917 56.5294 120.912 56.016 120.981C55.5026 121.045 55.054 121.187 54.6701 121.409C54.2862 121.631 54.0295 121.887 53.9 122.178C53.7704 122.463 53.7752 122.754 53.9144 123.05C54.0487 123.344 54.3246 123.611 54.7421 123.852L58.9741 126.295L57.9664 126.877L53.7345 124.434C53.317 124.193 52.854 124.034 52.3454 123.956C51.832 123.876 51.3258 123.874 50.8268 123.952C50.323 124.027 49.8791 124.175 49.4953 124.396C49.1162 124.615 48.8691 124.874 48.7539 125.173C48.634 125.47 48.6436 125.766 48.7827 126.063C48.9219 126.359 49.1834 126.618 49.5672 126.84L53.7992 129.283L52.7916 129.864ZM70.1899 123.975L69.1823 124.557L58.3864 118.325L59.394 117.743L60.7399 118.52C60.5335 118.113 60.5048 117.703 60.6535 117.29C60.8022 116.877 61.1741 116.499 61.7691 116.156C62.2921 115.854 62.8799 115.628 63.5324 115.478C64.1898 115.326 64.8663 115.251 65.562 115.254C66.253 115.254 66.9247 115.329 67.5773 115.478C68.2298 115.628 68.8176 115.854 69.3406 116.156C69.8636 116.458 70.2571 116.798 70.521 117.178C70.7849 117.557 70.9192 117.948 70.924 118.35C70.924 118.748 70.7921 119.138 70.5282 119.517C70.2691 119.894 69.878 120.233 69.355 120.535C68.76 120.879 68.1051 121.093 67.3901 121.179C66.6752 121.265 65.9651 121.248 65.2598 121.129L70.1899 123.975ZM62.7407 116.725C62.2369 117.016 61.925 117.343 61.8051 117.706C61.6851 118.063 61.7355 118.422 61.9562 118.782C62.1769 119.142 62.5488 119.473 63.0718 119.775C63.5852 120.071 64.1538 120.286 64.7775 120.419C65.4061 120.549 66.0323 120.581 66.656 120.514C67.2846 120.445 67.8532 120.264 68.3618 119.97C68.8608 119.682 69.1943 119.345 69.3622 118.96C69.5349 118.573 69.5373 118.183 69.3694 117.793C69.1967 117.399 68.8464 117.05 68.3186 116.746C67.8052 116.449 67.2126 116.251 66.5409 116.152C65.8643 116.049 65.1902 116.045 64.5184 116.139C63.8467 116.233 63.2541 116.429 62.7407 116.725ZM74.1585 117.529L66.9612 113.374L67.9689 112.793L68.9621 113.366C68.8517 113.009 68.8925 112.65 69.0844 112.29C69.2764 111.93 69.6122 111.611 70.092 111.334C70.3703 111.174 70.675 111.039 71.0061 110.931L71.5963 111.746C71.3324 111.826 71.1045 111.922 70.9125 112.032C70.5239 112.257 70.2624 112.518 70.128 112.818C69.9985 113.114 69.9985 113.41 70.128 113.707C70.2576 114.003 70.5191 114.265 70.9125 114.492L75.1661 116.948L74.1585 117.529ZM82.1794 113.115C81.5173 113.497 80.7423 113.748 79.8547 113.867C78.9718 113.983 78.0818 113.971 77.1845 113.83C76.2872 113.683 75.4907 113.409 74.795 113.007C74.2672 112.702 73.869 112.364 73.6003 111.993C73.3268 111.619 73.1804 111.238 73.1612 110.85C73.142 110.457 73.2524 110.078 73.4923 109.712C73.7322 109.346 74.0993 109.021 74.5935 108.736C75.1261 108.428 75.7211 108.207 76.3784 108.071C77.0406 107.932 77.7219 107.88 78.4224 107.913C79.1278 107.943 79.8163 108.058 80.488 108.258C81.1646 108.454 81.7836 108.731 82.3449 109.089L76.2417 112.612C76.7551 112.842 77.3069 112.994 77.897 113.069C78.492 113.141 79.075 113.134 79.646 113.048C80.2169 112.957 80.7256 112.785 81.1718 112.533C81.6516 112.256 81.9587 111.935 82.093 111.569C82.2322 111.201 82.201 110.823 81.9995 110.435L83.259 109.982C83.6093 110.517 83.698 111.069 83.5253 111.64C83.3478 112.208 82.8991 112.699 82.1794 113.115ZM75.3996 112.159L80.5168 109.205C80.037 108.967 79.4924 108.81 78.8831 108.736C78.2737 108.655 77.6715 108.659 77.0765 108.748C76.4768 108.834 75.9538 109.006 75.5075 109.263C75.0613 109.521 74.7638 109.82 74.6151 110.161C74.4615 110.499 74.4543 110.844 74.5935 111.195C74.7278 111.544 74.9965 111.866 75.3996 112.159ZM89.1707 109.021C88.7676 109.242 88.3118 109.422 87.8032 109.561C87.2946 109.699 86.786 109.782 86.2774 109.81C85.7687 109.838 85.3081 109.802 84.8955 109.702L85.3921 108.983C85.656 109.047 85.9703 109.065 86.3349 109.037C86.6996 109.004 87.0643 108.938 87.4289 108.838C87.7888 108.735 88.1007 108.608 88.3646 108.456C88.6572 108.287 88.8828 108.101 89.0411 107.899C89.1994 107.697 89.269 107.499 89.2498 107.305C89.2306 107.105 89.0987 106.935 88.854 106.794C88.5901 106.641 88.2974 106.572 87.9759 106.586C87.6496 106.597 87.3114 106.654 86.9611 106.756C86.606 106.856 86.2486 106.963 85.8887 107.076C85.2409 107.289 84.6388 107.46 84.0822 107.587C83.5256 107.715 83.0074 107.767 82.5276 107.745C82.0478 107.717 81.6015 107.584 81.1889 107.346C80.7522 107.094 80.4979 106.806 80.426 106.482C80.354 106.152 80.4308 105.823 80.6563 105.493C80.8818 105.158 81.2225 104.859 81.6783 104.596C82.2637 104.258 82.9234 104.024 83.6575 103.893C84.3965 103.761 85.085 103.754 85.7232 103.873L85.3921 104.621C85.109 104.557 84.8019 104.537 84.4708 104.562C84.1398 104.587 83.8135 104.646 83.492 104.737C83.1753 104.826 82.8922 104.939 82.6427 105.078C82.3308 105.252 82.0909 105.443 81.923 105.651C81.7503 105.856 81.6735 106.058 81.6927 106.258C81.7167 106.454 81.8606 106.629 82.1245 106.781C82.3884 106.934 82.6691 107.004 82.9666 106.993C83.2593 106.979 83.5832 106.92 83.9382 106.814C84.2933 106.704 84.6964 106.582 85.1474 106.449C85.7232 106.277 86.2917 106.132 86.8531 106.013C87.4145 105.893 87.9447 105.842 88.4437 105.859C88.9427 105.875 89.3914 106.001 89.7896 106.237C90.2215 106.486 90.4686 106.778 90.5309 107.114C90.5933 107.449 90.5045 107.785 90.2646 108.123C90.0199 108.458 89.6553 108.758 89.1707 109.021ZM95.3558 105.45C94.9528 105.672 94.4969 105.852 93.9883 105.99C93.4797 106.129 92.9711 106.212 92.4625 106.239C91.9539 106.267 91.4933 106.231 91.0806 106.131L91.5772 105.413C91.8411 105.476 92.1554 105.494 92.5201 105.467C92.8847 105.433 93.2494 105.367 93.6141 105.267C93.9739 105.165 94.2858 105.037 94.5497 104.885C94.8424 104.716 95.0679 104.53 95.2263 104.328C95.3846 104.126 95.4542 103.928 95.435 103.734C95.4158 103.535 95.2838 103.364 95.0391 103.223C94.7752 103.071 94.4825 103.001 94.1611 103.015C93.8348 103.026 93.4965 103.083 93.1462 103.186C92.7912 103.285 92.4337 103.392 92.0738 103.505C91.4261 103.719 90.8239 103.889 90.2673 104.017C89.7107 104.144 89.1925 104.197 88.7127 104.174C88.2329 104.147 87.7867 104.014 87.374 103.776C86.9374 103.524 86.6831 103.235 86.6111 102.911C86.5392 102.582 86.6159 102.252 86.8414 101.922C87.067 101.587 87.4076 101.288 87.8634 101.025C88.4488 100.687 89.1086 100.453 89.8427 100.323C90.5816 100.19 91.2702 100.183 91.9083 100.302L91.5772 101.05C91.2941 100.986 90.9871 100.967 90.656 100.992C90.3249 101.017 89.9986 101.075 89.6772 101.166C89.3605 101.255 89.0774 101.368 88.8279 101.507C88.516 101.681 88.2761 101.873 88.1082 102.08C87.9354 102.285 87.8586 102.488 87.8778 102.687C87.9018 102.884 88.0458 103.058 88.3097 103.21C88.5736 103.363 88.8543 103.433 89.1518 103.422C89.4444 103.409 89.7683 103.349 90.1234 103.244C90.4785 103.133 90.8815 103.011 91.3325 102.878C91.9083 102.706 92.4769 102.561 93.0383 102.442C93.5997 102.323 94.1299 102.271 94.6289 102.288C95.1279 102.305 95.5765 102.431 95.9748 102.666C96.4066 102.915 96.6537 103.208 96.7161 103.543C96.7785 103.878 96.6897 104.215 96.4498 104.553C96.2051 104.888 95.8404 105.187 95.3558 105.45ZM91.9127 98.9699L92.9203 98.3882L100.118 102.543L99.11 103.125L91.9127 98.9699ZM91.1642 97.9478C91.001 98.0419 90.8091 98.0918 90.5884 98.0973C90.3677 98.0973 90.1758 98.0502 90.0126 97.9561C89.8495 97.8619 89.7703 97.7525 89.7751 97.6278C89.7799 97.4976 89.8639 97.3854 90.027 97.2913C90.1854 97.1999 90.3749 97.1542 90.5956 97.1542C90.8163 97.1486 91.0082 97.1929 91.1714 97.2871C91.3345 97.3813 91.4161 97.4921 91.4161 97.6195C91.4113 97.7442 91.3273 97.8536 91.1642 97.9478ZM105.135 99.8628C104.473 100.245 103.698 100.496 102.81 100.615C101.927 100.731 101.037 100.719 100.14 100.577C99.2426 100.431 98.4461 100.156 97.7504 99.7548C97.2226 99.4501 96.8243 99.1121 96.5556 98.741C96.2821 98.367 96.1358 97.9861 96.1166 97.5983C96.0974 97.205 96.2077 96.8255 96.4477 96.4599C96.6876 96.0942 97.0546 95.7688 97.5488 95.4835C98.211 95.1012 98.9835 94.8519 99.8664 94.7356C100.754 94.6165 101.646 94.6303 102.544 94.7771C103.446 94.9212 104.247 95.1954 104.948 95.5998C105.471 95.9017 105.866 96.2383 106.135 96.6095C106.404 96.9806 106.548 97.3629 106.567 97.7562C106.586 98.144 106.476 98.5208 106.236 98.8864C106.001 99.2493 105.634 99.5747 105.135 99.8628ZM104.127 99.2811C104.617 98.9986 104.928 98.6717 105.063 98.3005C105.197 97.9238 105.166 97.5485 104.969 97.1745C104.777 96.7978 104.434 96.4668 103.94 96.1815C103.436 95.8906 102.858 95.6898 102.205 95.579C101.548 95.4655 100.896 95.4488 100.248 95.5292C99.6049 95.6067 99.0411 95.7854 98.5564 96.0652C98.067 96.3477 97.7552 96.6773 97.6208 97.054C97.4865 97.4252 97.5152 97.7992 97.7072 98.1759C97.9039 98.5498 98.2542 98.8822 98.758 99.1731C99.2762 99.4722 99.864 99.6758 100.521 99.7839C101.174 99.8891 101.822 99.9002 102.465 99.8171C103.103 99.7312 103.657 99.5526 104.127 99.2811ZM111.586 90.7785L116.041 93.3504L115.034 93.9321L110.78 91.4765C110.387 91.2494 109.933 91.0984 109.42 91.0236C108.906 90.9488 108.393 90.9488 107.88 91.0236C107.366 91.0984 106.913 91.2494 106.519 91.4765C106.131 91.7009 105.869 91.9626 105.735 92.2618C105.605 92.5582 105.605 92.8546 105.735 93.151C105.864 93.4473 106.126 93.7091 106.519 93.9363L110.773 96.3918L109.765 96.9735L102.568 92.8186L103.576 92.2369L104.569 92.8102C104.459 92.4529 104.499 92.0942 104.691 91.7341C104.883 91.374 105.219 91.0555 105.699 90.7785C106.241 90.4655 106.867 90.2563 107.577 90.1511C108.287 90.0458 108.998 90.0458 109.708 90.1511C110.418 90.2563 111.044 90.4655 111.586 90.7785ZM119.843 91.3134C119.44 91.535 118.985 91.715 118.476 91.8535C117.967 91.992 117.459 92.0751 116.95 92.1028C116.441 92.1305 115.981 92.0945 115.568 91.9948L116.065 91.276C116.329 91.3397 116.643 91.3577 117.008 91.33C117.372 91.2967 117.737 91.2303 118.102 91.1305C118.462 91.028 118.773 90.9006 119.037 90.7483C119.33 90.5793 119.555 90.3937 119.714 90.1915C119.872 89.9893 119.942 89.7912 119.923 89.5973C119.903 89.3979 119.771 89.2276 119.527 89.0863C119.263 88.9339 118.97 88.8647 118.649 88.8785C118.322 88.8896 117.984 88.9464 117.634 89.0489C117.279 89.1486 116.921 89.2553 116.561 89.3688C115.914 89.5821 115.312 89.7525 114.755 89.8799C114.198 90.0073 113.68 90.0599 113.2 90.0378C112.72 90.0101 112.274 89.8771 111.862 89.6389C111.425 89.3868 111.171 89.0987 111.099 88.7747C111.027 88.445 111.103 88.1154 111.329 87.7858C111.555 87.4506 111.895 87.1514 112.351 86.8883C112.936 86.5504 113.596 86.3163 114.33 86.1861C115.069 86.0531 115.758 86.0462 116.396 86.1653L116.065 86.9132C115.782 86.8495 115.475 86.8301 115.144 86.8551C114.812 86.88 114.486 86.9382 114.165 87.0296C113.848 87.1182 113.565 87.2318 113.315 87.3703C113.004 87.5448 112.764 87.7359 112.596 87.9437C112.423 88.1486 112.346 88.3508 112.365 88.5503C112.389 88.747 112.533 88.9215 112.797 89.0738C113.061 89.2262 113.342 89.2968 113.639 89.2857C113.932 89.2719 114.256 89.2123 114.611 89.1071C114.966 88.9963 115.369 88.8744 115.82 88.7414C116.396 88.5697 116.964 88.4243 117.526 88.3051C118.087 88.186 118.617 88.1348 119.116 88.1514C119.615 88.168 120.064 88.2941 120.462 88.5295C120.894 88.7788 121.141 89.071 121.204 89.4062C121.266 89.7414 121.177 90.0779 120.937 90.4159C120.693 90.751 120.328 91.0502 119.843 91.3134Z" fill="#9A9A9A"/>
<path d="M79.469 148.315L73.31 135.059L64.0273 140.418L60.9541 138.644L73.8012 131.227L76.8744 133.001L83.0083 146.271L79.469 148.315ZM95.1578 139.257L80.5977 130.852L78.3809 132.132L76.139 129.878L80.5977 127.304L98.231 137.483L95.1578 139.257ZM101.256 135.737L98.5101 134.152C98.6444 133.599 98.7829 132.933 98.9257 132.152C99.06 131.367 99.1692 130.543 99.2532 129.68C99.3287 128.812 99.3455 127.979 99.3035 127.179C99.2616 126.379 99.1272 125.671 98.9005 125.056C98.6822 124.435 98.3421 123.992 97.8803 123.725C97.3681 123.429 96.7761 123.233 96.1044 123.136C95.4242 123.034 94.7483 123.032 94.0765 123.129C93.4132 123.221 92.8254 123.415 92.3132 123.71C91.801 124.006 91.4609 124.348 91.293 124.736C91.1251 125.123 91.1293 125.514 91.3056 125.906C91.4735 126.294 91.8136 126.636 92.3258 126.932L89.2526 128.706C88.1442 128.066 87.4179 127.336 87.0736 126.517C86.7209 125.693 86.7293 124.879 87.0988 124.074C87.4682 123.26 88.182 122.547 89.24 121.936C90.3148 121.316 91.5575 120.904 92.9682 120.7C94.3704 120.492 95.7811 120.492 97.2001 120.7C98.6192 120.909 99.8703 121.325 100.954 121.951C101.525 122.28 101.995 122.673 102.364 123.129C102.734 123.584 103.023 124.091 103.233 124.648C103.443 125.206 103.594 125.807 103.687 126.452C103.771 127.092 103.817 127.773 103.825 128.495C103.834 129.207 103.825 129.949 103.8 130.72L110.06 127.106L113.133 128.88L101.256 135.737ZM127.946 120.707C126.812 121.362 125.515 121.795 124.054 122.009C122.584 122.217 121.123 122.212 119.671 121.994C118.226 121.771 116.958 121.345 115.867 120.714L118.94 118.94C119.486 119.255 120.12 119.466 120.842 119.573C121.556 119.675 122.269 119.675 122.983 119.573C123.697 119.461 124.327 119.248 124.872 118.933C125.418 118.618 125.783 118.257 125.968 117.85C126.145 117.437 126.145 117.025 125.968 116.613C125.783 116.197 125.418 115.831 124.872 115.515C124.327 115.2 123.709 114.98 123.021 114.854C122.332 114.718 121.593 114.723 120.804 114.868C120.015 115.004 119.196 115.317 118.348 115.806L113.814 118.424L106.761 112.2L115.426 107.197L118.499 108.971L112.328 112.534L114.532 114.461L115.791 113.749C117.026 113.084 118.369 112.643 119.822 112.425C121.274 112.207 122.71 112.212 124.129 112.44C125.548 112.658 126.82 113.092 127.946 113.741C128.769 114.216 129.39 114.754 129.81 115.355C130.23 115.957 130.44 116.577 130.44 117.217C130.44 117.857 130.234 118.48 129.822 119.086C129.411 119.682 128.785 120.222 127.946 120.707ZM136.163 115.585L133.417 114C133.552 113.447 133.69 112.781 133.833 112C133.967 111.215 134.077 110.391 134.161 109.528C134.236 108.66 134.253 107.827 134.211 107.027C134.169 106.227 134.035 105.519 133.808 104.904C133.59 104.283 133.25 103.84 132.788 103.573C132.276 103.277 131.684 103.081 131.012 102.984C130.332 102.882 129.656 102.88 128.984 102.977C128.321 103.069 127.733 103.263 127.221 103.558C126.708 103.854 126.368 104.196 126.2 104.584C126.033 104.971 126.037 105.362 126.213 105.754C126.381 106.142 126.721 106.484 127.233 106.78L124.16 108.554C123.052 107.914 122.325 107.184 121.981 106.365C121.628 105.541 121.637 104.727 122.006 103.922C122.376 103.108 123.089 102.395 124.147 101.784C125.222 101.164 126.465 100.752 127.876 100.548C129.278 100.34 130.689 100.34 132.108 100.548C133.527 100.757 134.778 101.173 135.861 101.799C136.432 102.128 136.902 102.521 137.272 102.977C137.641 103.432 137.931 103.939 138.141 104.496C138.351 105.054 138.502 105.655 138.594 106.3C138.678 106.939 138.724 107.621 138.733 108.343C138.741 109.055 138.733 109.797 138.707 110.568L144.967 106.954L148.041 108.728L136.163 115.585ZM152.771 105.997L138.211 97.5918L135.994 98.8715L133.752 96.6174L138.211 94.0434L155.844 104.223L152.771 105.997Z" fill="black"/>
<path d="M151.873 90.8937L149.552 89.5537L147.231 90.8937L146.475 90.4574L148.797 89.1174L146.475 87.7774L147.231 87.3411L149.552 88.6811L151.873 87.3411L152.629 87.7774L150.308 89.1174L152.629 90.4574L151.873 90.8937ZM157.164 88.4625L150.363 84.536L149.553 85.0035L149.013 84.4426L150.363 83.6635L157.92 88.0262L157.164 88.4625ZM162.472 85.3983L160.351 84.1736L157.09 86.0558L156.324 85.6133L154.721 81.1478L155.671 80.5993L160.351 83.3011L161.144 82.843L161.9 83.2793L161.106 83.7374L163.228 84.962L162.472 85.3983ZM157.22 85.096L159.595 83.7374L155.978 81.6682L157.22 85.096ZM165.51 83.6445L162.314 76.7639L163.189 76.259L166.384 83.1397L165.51 83.6445ZM161.791 80.4753C161.553 80.6124 161.28 80.7038 160.97 80.7495C160.661 80.7952 160.35 80.7963 160.036 80.7526C159.723 80.7049 159.448 80.6124 159.211 80.4753C158.966 80.334 158.804 80.1741 158.725 79.9954C158.649 79.8147 158.651 79.635 158.73 79.4563C158.813 79.2755 158.971 79.1177 159.205 78.9826C159.443 78.8455 159.718 78.7551 160.031 78.7115C160.341 78.6658 160.65 78.6658 160.96 78.7115C161.273 78.7551 161.55 78.8465 161.791 78.9857C162.032 79.1249 162.19 79.2849 162.266 79.4656C162.345 79.6443 162.343 79.824 162.26 80.0047C162.181 80.1834 162.025 80.3403 161.791 80.4753ZM161.213 80.1419C161.415 80.0255 161.516 79.8884 161.516 79.7305C161.512 79.5706 161.411 79.4334 161.213 79.3192C161.012 79.2028 160.774 79.1447 160.501 79.1447C160.224 79.1426 159.984 79.1997 159.783 79.3161C159.585 79.4303 159.486 79.5685 159.486 79.7305C159.486 79.8884 159.587 80.0255 159.788 80.1419C159.986 80.2561 160.224 80.3143 160.501 80.3164C160.778 80.3143 161.015 80.2561 161.213 80.1419ZM169.51 80.9178C169.272 81.0549 168.995 81.1463 168.679 81.192C168.362 81.2336 168.047 81.2325 167.734 81.1889C167.421 81.1411 167.149 81.0508 166.919 80.9178C166.678 80.7786 166.519 80.6186 166.444 80.4379C166.365 80.2551 166.365 80.0743 166.444 79.8957C166.527 79.7149 166.685 79.557 166.919 79.422C167.16 79.2828 167.437 79.1914 167.75 79.1478C168.063 79.1042 168.376 79.1062 168.689 79.154C168.999 79.1997 169.271 79.2901 169.504 79.4251C169.742 79.5622 169.902 79.7212 169.985 79.9019C170.064 80.0806 170.064 80.2613 169.985 80.4441C169.906 80.6228 169.747 80.7807 169.51 80.9178ZM168.932 80.5844C169.127 80.4722 169.224 80.3351 169.224 80.173C169.224 80.011 169.125 79.8728 168.927 79.7586C168.729 79.6443 168.49 79.5872 168.209 79.5872C167.928 79.5872 167.691 79.6433 167.496 79.7554C167.299 79.8697 167.198 80.0089 167.194 80.173C167.194 80.3351 167.293 80.4732 167.491 80.5875C167.689 80.7017 167.928 80.7589 168.209 80.7589C168.493 80.7568 168.734 80.6986 168.932 80.5844Z" fill="#02E341"/>
</g>
<defs>
<filter id="filter0_f_820_12450" x="-10.3947" y="-4.94353" width="394.768" height="241.073" filterUnits="userSpaceOnUse" color-interpolation-filters="sRGB">
<feFlood flood-opacity="0" result="BackgroundImageFix"/>
<feBlend mode="normal" in="SourceGraphic" in2="BackgroundImageFix" result="shape"/>
<feGaussianBlur stdDeviation="7.7911" result="effect1_foregroundBlur_820_12450"/>
</filter>
<linearGradient id="paint0_linear_820_12450" x1="119.913" y1="151.344" x2="144.943" y2="194.7" gradientUnits="userSpaceOnUse">
<stop stop-color="#1EE5CE"/>
<stop offset="1" stop-color="#1EE5CE" stop-opacity="0"/>
</linearGradient>
<clipPath id="clip0_820_12450">
<rect width="246.817" height="173.027" rx="20.7763" transform="matrix(0.866044 -0.499967 0.866044 0.499967 5.18652 123.652)" fill="white"/>
</clipPath>
</defs>
</svg>
