<svg xmlns="http://www.w3.org/2000/svg" xmlns:xlink="http://www.w3.org/1999/xlink" viewBox="0 0 302.72 230.71"><defs><style>.cls-1,.cls-16,.cls-17{fill:none;}.cls-2{isolation:isolate;}.cls-3{clip-path:url(#clip-path);}.cls-4{fill:#fff;}.cls-5{fill:#f5f5f5;}.cls-6{clip-path:url(#clip-path-2);}.cls-7{fill:#3a3a3a;}.cls-8{fill:#8b8b8c;}.cls-9{fill:#8324ce;}.cls-10{fill:#e5a245;}.cls-11{fill:#ffd7d0;}.cls-12{fill:#ffbbb8;}.cls-13{fill:#df8e1d;}.cls-14{fill:#7f7dae;}.cls-15{fill:#6f6d9e;}.cls-16,.cls-17{stroke:#000;}.cls-16{stroke-linecap:round;stroke-linejoin:round;stroke-width:2.52px;}.cls-17{stroke-width:4.98px;}.cls-18{fill:#8d19e0;}.cls-19{fill:url(#Безымянный_градиент_32);}.cls-20,.cls-22{mix-blend-mode:multiply;}.cls-21{fill:url(#linear-gradient);}.cls-22{fill:url(#linear-gradient-2);}</style><clipPath id="clip-path"><path class="cls-1" d="M34,87.43H220.58a4.84,4.84,0,0,1,4.86,4.86V203.71a4.84,4.84,0,0,1-4.86,4.86H34a4.84,4.84,0,0,1-4.86-4.86V92.29A4.84,4.84,0,0,1,34,87.43Z"/></clipPath><clipPath id="clip-path-2"><rect class="cls-1" x="7.22" y="86.59" width="241.2" height="136.2"/></clipPath><linearGradient id="Безымянный_градиент_32" x1="147.68" y1="197.76" x2="142.3" y2="192.38" gradientUnits="userSpaceOnUse"><stop offset="0" stop-color="#aa2afc"/><stop offset="1" stop-color="#5f009e"/></linearGradient><linearGradient id="linear-gradient" x1="146.55" y1="196.34" x2="145.25" y2="195.59" gradientUnits="userSpaceOnUse"><stop offset="0" stop-color="#0d2b85"/><stop offset="1" stop-color="#fff"/></linearGradient><linearGradient id="linear-gradient-2" x1="144.5" y1="197.38" x2="143.21" y2="196.16" xlink:href="#linear-gradient"/></defs><title>publishers-features-7_vv</title><g class="cls-2"><g id="Слой_1" data-name="Слой 1"><g class="cls-3"><rect class="cls-4" x="29.12" y="81.43" width="196.32" height="362.64"/><path class="cls-5" d="M37.64,89.11h118a.79.79,0,0,1,.78.78v3.06a.74.74,0,0,1-.78.72h-118a.74.74,0,0,1-.78-.72V89.89a.79.79,0,0,1,.78-.78Z"/><path class="cls-5" d="M160.28,89.11H217a.79.79,0,0,1,.78.78v3.06a.74.74,0,0,1-.78.72h-56.7a.74.74,0,0,1-.78-.72V89.89a.79.79,0,0,1,.78-.78Z"/><path class="cls-5" d="M160.28,176.47H217a.79.79,0,0,1,.78.78v3.06a.79.79,0,0,1-.78.78h-56.7a.79.79,0,0,1-.78-.78v-3.06a.79.79,0,0,1,.78-.78Z"/><path class="cls-5" d="M160.28,96H217a.79.79,0,0,1,.78.78v3.06a.74.74,0,0,1-.78.72h-56.7a.74.74,0,0,1-.78-.72V96.79a.79.79,0,0,1,.78-.78Z"/><path class="cls-5" d="M160.28,183.37H217a.79.79,0,0,1,.78.78v3.06a.79.79,0,0,1-.78.78h-56.7a.79.79,0,0,1-.78-.78v-3.06a.79.79,0,0,1,.78-.78Z"/><path class="cls-5" d="M160.28,102.91H217a.79.79,0,0,1,.78.78v3.06a.74.74,0,0,1-.78.72h-56.7a.74.74,0,0,1-.78-.72v-3.06a.79.79,0,0,1,.78-.78Z"/><path class="cls-5" d="M160.28,190.27H217a.79.79,0,0,1,.78.78v3.06a.79.79,0,0,1-.78.78h-56.7a.79.79,0,0,1-.78-.78V191a.79.79,0,0,1,.78-.78Z"/><path class="cls-5" d="M160.28,109.81H217a.76.76,0,0,1,.78.78v3.06a.74.74,0,0,1-.78.72h-56.7a.74.74,0,0,1-.78-.72v-3.06a.76.76,0,0,1,.78-.78Z"/><path class="cls-5" d="M160.28,197.17H217a.79.79,0,0,1,.78.78V201a.79.79,0,0,1-.78.78h-56.7a.79.79,0,0,1-.78-.78v-3.06a.79.79,0,0,1,.78-.78Z"/><path class="cls-5" d="M160.28,116.71H217a.76.76,0,0,1,.78.78v3.06a.74.74,0,0,1-.78.72h-56.7a.74.74,0,0,1-.78-.72v-3.06a.76.76,0,0,1,.78-.78Z"/><path class="cls-5" d="M160.28,204.07H217a.79.79,0,0,1,.78.78v3.06a.79.79,0,0,1-.78.78h-56.7a.79.79,0,0,1-.78-.78v-3.06a.79.79,0,0,1,.78-.78Z"/><path class="cls-5" d="M160.28,123.61H217a.76.76,0,0,1,.78.78v3.06a.74.74,0,0,1-.78.72h-56.7a.74.74,0,0,1-.78-.72v-3.06a.76.76,0,0,1,.78-.78Z"/><path class="cls-5" d="M160.28,132.79H217a.79.79,0,0,1,.78.78v37.56a.79.79,0,0,1-.78.78h-56.7a.79.79,0,0,1-.78-.78V133.57a.79.79,0,0,1,.78-.78Z"/><path class="cls-5" d="M37.64,96h118a.79.79,0,0,1,.78.78v3.06a.74.74,0,0,1-.78.72h-118a.74.74,0,0,1-.78-.72V96.79a.79.79,0,0,1,.78-.78Z"/><path class="cls-5" d="M37.64,102.91h118a.79.79,0,0,1,.78.78v3.06a.74.74,0,0,1-.78.72h-118a.74.74,0,0,1-.78-.72v-3.06a.79.79,0,0,1,.78-.78Z"/><path class="cls-5" d="M37.64,109.81h118a.76.76,0,0,1,.78.78v3.06a.74.74,0,0,1-.78.72h-118a.74.74,0,0,1-.78-.72v-3.06a.76.76,0,0,1,.78-.78Z"/><path class="cls-5" d="M37.64,116.71h118a.76.76,0,0,1,.78.78v3.06a.74.74,0,0,1-.78.72h-118a.74.74,0,0,1-.78-.72v-3.06a.76.76,0,0,1,.78-.78Z"/><path class="cls-5" d="M37.64,123.61h56.7a.76.76,0,0,1,.78.78v3.06a.74.74,0,0,1-.78.72H37.64a.74.74,0,0,1-.78-.72v-3.06a.76.76,0,0,1,.78-.78Z"/><path class="cls-5" d="M37.64,133.09h118a.79.79,0,0,1,.78.78v3.06a.74.74,0,0,1-.78.72h-118a.74.74,0,0,1-.78-.72v-3.06a.79.79,0,0,1,.78-.78Z"/><path class="cls-5" d="M37.64,140h118a.79.79,0,0,1,.78.78v3.06a.74.74,0,0,1-.78.72h-118a.74.74,0,0,1-.78-.72v-3.06a.79.79,0,0,1,.78-.78Z"/><path class="cls-5" d="M37.64,146.89h118a.76.76,0,0,1,.78.78v3.06a.74.74,0,0,1-.78.72h-118a.74.74,0,0,1-.78-.72v-3.06a.76.76,0,0,1,.78-.78Z"/><path class="cls-5" d="M37.64,153.79h118a.76.76,0,0,1,.78.78v3.06a.74.74,0,0,1-.78.72h-118a.74.74,0,0,1-.78-.72v-3.06a.76.76,0,0,1,.78-.78Z"/><path class="cls-5" d="M37.64,160.69h118a.79.79,0,0,1,.78.78v3.06a.74.74,0,0,1-.78.72h-118a.74.74,0,0,1-.78-.72v-3.06a.79.79,0,0,1,.78-.78Z"/><path class="cls-5" d="M37.64,167.59h118a.76.76,0,0,1,.78.78v3.06a.74.74,0,0,1-.78.72h-118a.74.74,0,0,1-.78-.72v-3.06a.76.76,0,0,1,.78-.78Z"/><path class="cls-5" d="M37.64,178.33h56.7a.74.74,0,0,1,.78.72v3.06a.76.76,0,0,1-.78.78H37.64a.76.76,0,0,1-.78-.78V179a.74.74,0,0,1,.78-.72Z"/><path class="cls-5" d="M37.64,185.23h118a.74.74,0,0,1,.78.72v52.74a.79.79,0,0,1-.78.78h-118a.79.79,0,0,1-.78-.78V185.95a.74.74,0,0,1,.78-.72Z"/></g><g class="cls-6"><path d="M225,86.59H30.62A7.94,7.94,0,0,0,25,88.87a8.06,8.06,0,0,0-2.28,5.58V204.73a7.89,7.89,0,0,0,7.92,7.92H225a7.76,7.76,0,0,0,5.58-2.34,7.86,7.86,0,0,0,2.34-5.58V94.45a7.86,7.86,0,0,0-2.34-5.58A7.7,7.7,0,0,0,225,86.59ZM30.44,205.21V94H225.2V205.21Z"/><path class="cls-7" d="M7.22,212.59v4.8c0,2.94,4.86,5.4,10.8,5.4h219.6c5.94,0,10.8-2.4,10.8-5.4v-4.8Z"/><path class="cls-8" d="M114.5,212.65v.66c0,.42.54.78,1.2.78h24.24c.66,0,1.2-.36,1.2-.78v-.66Z"/></g><path class="cls-9" d="M270.62,64.27h-3.84a.44.44,0,0,1-.36-.12.51.51,0,0,1-.12-.36.46.46,0,0,1,.12-.3.52.52,0,0,1,.36-.18h3.84c.06,0,.12.06.18.06s.12.06.18.12.06.06.06.12a.22.22,0,0,1,.06.18c0,.06,0,.18-.06.18s-.06.12-.06.18-.12.06-.18.12Zm-7.62,0h-3.84c-.12,0-.24,0-.3-.12a.36.36,0,0,1-.18-.36.72.72,0,0,1,.48-.48H263c.06,0,.12.06.18.06a.13.13,0,0,1,.12.12c.06.06.12.06.12.12s.06.12.06.18a.6.6,0,0,1-.06.18c0,.06-.06.12-.12.18s-.06.06-.12.12Zm-7.62,0H251.6c-.12,0-.24,0-.3-.12a.36.36,0,0,1-.18-.36.72.72,0,0,1,.48-.48h3.78c.06,0,.12.06.18.06s.12.06.18.12l.12.12V64c-.06.06-.06.12-.12.18s-.12.06-.18.12Zm-7.56,0H244a.44.44,0,0,1-.36-.12.51.51,0,0,1-.12-.36.46.46,0,0,1,.12-.3.52.52,0,0,1,.36-.18h3.78c.06,0,.12.06.18.06s.12.06.18.12.06.06.06.12a.22.22,0,0,1,.06.18c0,.06,0,.18-.06.18s-.06.12-.06.18-.12.06-.18.12Zm-7.56,0h-3.84c-.12,0-.24,0-.3-.12a.36.36,0,0,1-.18-.36.72.72,0,0,1,.48-.48h3.84c.06,0,.12.06.18.06s.06.06.12.12.12.06.12.12.06.12.06.18a.6.6,0,0,1-.06.18c0,.06-.06.12-.12.18l-.12.12Zm-7.62,0h-3.78c-.12,0-.24,0-.3-.12a.36.36,0,0,1-.18-.36.72.72,0,0,1,.48-.48h3.78a.52.52,0,0,1,.36.18.46.46,0,0,1,.12.3.51.51,0,0,1-.12.36.44.44,0,0,1-.36.12Zm-7.56,0H221.3a.44.44,0,0,1-.36-.12.51.51,0,0,1-.12-.36.46.46,0,0,1,.12-.3.52.52,0,0,1,.36-.18h3.78a.52.52,0,0,1,.36.18.46.46,0,0,1,.12.3.51.51,0,0,1-.12.36.44.44,0,0,1-.36.12Zm-7.56,0h-3.78a.44.44,0,0,1-.36-.12.51.51,0,0,1-.12-.36.46.46,0,0,1,.12-.3.52.52,0,0,1,.36-.18h3.78c.06,0,.12.06.18.06s.12.06.18.12.06.06.06.12a.22.22,0,0,1,.06.18c0,.06,0,.18-.06.18a.22.22,0,0,1-.06.18c-.06.06-.12.06-.18.12Zm-7.62,0h-2a16.27,16.27,0,0,1-1.74-.06c-.06,0-.12-.06-.18-.06s-.12-.06-.18-.12-.06-.12-.06-.18-.06-.12,0-.18a.46.46,0,0,1,.12-.3.44.44,0,0,1,.36-.12,15.71,15.71,0,0,0,1.68.06H210c.06,0,.12.06.18.06a.13.13,0,0,1,.12.12c.06.06.12.06.12.12s.06.12.06.18a.6.6,0,0,1-.06.18c0,.06-.06.12-.12.18s-.06.06-.12.12h-.24Zm64.44-.48c-.12,0-.24,0-.3-.12s-.12-.18-.18-.3,0-.24.12-.3.12-.18.24-.18a14.09,14.09,0,0,0,3.42-1.38.22.22,0,0,1,.18-.06H278c.06,0,.12.06.18.06s.12.12.12.18a.22.22,0,0,1,.06.18V62c0,.06-.06.12-.12.18s-.06.06-.12.12a16,16,0,0,1-3.66,1.44Zm-71.88-.48h-.18a15.8,15.8,0,0,1-3.42-1.86.33.33,0,0,1-.18-.3.45.45,0,0,1,.06-.3,1,1,0,0,1,.3-.24.76.76,0,0,1,.36.06,14.09,14.09,0,0,0,3.24,1.74.47.47,0,0,1,.24.24.45.45,0,0,1,.06.3c-.06.12-.06.18-.18.24s-.18.12-.3.12Zm78.48-3.12c-.12,0-.18-.06-.24-.06s-.06-.06-.12-.12-.12-.18-.12-.3a.44.44,0,0,1,.12-.36,15,15,0,0,0,2.34-2.82.6.6,0,0,1,.3-.24.76.76,0,0,1,.36.06.33.33,0,0,1,.18.3.4.4,0,0,1-.06.36,13.13,13.13,0,0,1-2.46,3,.33.33,0,0,1-.3.18ZM196.34,59a.22.22,0,0,1-.18-.06c-.06,0-.12-.06-.18-.12a17.38,17.38,0,0,1-2.16-3.3v-.36c.06-.06.06-.12.12-.12l.12-.12c.06-.06.12-.06.24-.06h.18c.06.06.12.06.12.12s.12.12.12.18a16.65,16.65,0,0,0,2,3.06.46.46,0,0,1,.12.3l-.18.36a.46.46,0,0,1-.3.12Zm88.56-5.16h-.12c-.06,0-.12-.06-.18-.12s-.06-.06-.12-.12-.06-.12-.06-.18a.22.22,0,0,1,.06-.18,19,19,0,0,0,.66-3.6v-.18c.06-.06.06-.12.12-.18s.12-.06.18-.06.12-.06.18-.06a.22.22,0,0,0,.18.06c.06.06.12.06.18.12s.06.12.06.18.06.12.06.18a20.65,20.65,0,0,1-.72,3.84c-.06.06-.12.18-.18.24s-.18.06-.3.06ZM193,52.21a.65.65,0,0,1-.3-.06c-.06-.12-.12-.18-.12-.3a13.45,13.45,0,0,1-.36-3.12V48a.36.36,0,0,1,.18-.36c.06-.12.18-.12.3-.12a.44.44,0,0,1,.36.12.51.51,0,0,1,.12.36v.72a16.29,16.29,0,0,0,.3,2.94v.18a.22.22,0,0,1-.06.18l-.12.12a.22.22,0,0,1-.18.06Zm92.58-5.88a.42.42,0,0,1-.48-.48V42.07a.46.46,0,0,1,.12-.3.45.45,0,0,1,.72,0,.46.46,0,0,1,.12.3v3.78a.42.42,0,0,1-.48.48Zm0-7.56a.42.42,0,0,1-.48-.48V34.45a.46.46,0,0,1,.12-.3.45.45,0,0,1,.72,0,.46.46,0,0,1,.12.3v3.84a.46.46,0,0,1-.12.3.52.52,0,0,1-.36.18Zm0-7.56a.52.52,0,0,1-.36-.18.46.46,0,0,1-.12-.3V26.89a.85.85,0,0,1,.12-.36.6.6,0,0,1,.72,0,.85.85,0,0,1,.12.36v3.78a.42.42,0,0,1-.48.48Zm-92.88-1.68a.46.46,0,0,1-.3-.12.52.52,0,0,1-.18-.36V25.21c0-.06.06-.12.06-.18s.06-.12.12-.12.12-.06.18-.12h.18a.46.46,0,0,1,.3.12.44.44,0,0,1,.12.36V29a.42.42,0,0,1-.48.48Zm92.58-5.88a.46.46,0,0,1-.3-.12.33.33,0,0,1-.18-.3,15,15,0,0,0-1.2-3.48.38.38,0,0,1,0-.36c.06-.12.12-.24.24-.24a.4.4,0,0,1,.36-.06.6.6,0,0,1,.3.24A13.62,13.62,0,0,1,285.8,23v.18c0,.06-.06.12-.06.18s-.06.06-.12.12-.12.06-.18.06ZM193.46,22h-.12c-.06,0-.12-.06-.18-.12s-.06-.06-.12-.12a.22.22,0,0,0-.06-.18.22.22,0,0,1,.06-.18,14.59,14.59,0,0,1,1.62-3.54,1.05,1.05,0,0,1,.3-.24.76.76,0,0,1,.36.06.6.6,0,0,1,.24.3c0,.12,0,.3-.06.36a14.24,14.24,0,0,0-1.56,3.36l-.18.18a.46.46,0,0,1-.3.12ZM282,16.87a.22.22,0,0,1-.18-.06c-.06,0-.12-.06-.18-.12a15.15,15.15,0,0,0-2.7-2.46.33.33,0,0,1-.18-.3.85.85,0,0,1,.12-.36c.06-.06.18-.12.24-.18a.76.76,0,0,1,.36.06,15.07,15.07,0,0,1,2.88,2.64.31.31,0,0,1,.12.24.36.36,0,0,1-.06.24c0,.12-.06.18-.18.24s-.12.06-.24.06Zm-84.54-1.2h-.24c-.06-.06-.06-.12-.12-.12a.44.44,0,0,1-.12-.36c0-.12,0-.24.12-.3a14.69,14.69,0,0,1,3.18-2.28.4.4,0,0,1,.36-.06.6.6,0,0,1,.3.24.76.76,0,0,1,.06.36.6.6,0,0,1-.24.3,13.29,13.29,0,0,0-2.94,2.16.76.76,0,0,1-.36.06Zm78.42-3.06c-.06,0-.12-.06-.18-.06a14.5,14.5,0,0,0-3.54-.84c-.12,0-.24-.12-.36-.18a.4.4,0,0,1-.06-.36.33.33,0,0,1,.18-.3c.06-.12.18-.12.36-.12a14.44,14.44,0,0,1,3.78.9.47.47,0,0,1,.24.24.45.45,0,0,1,.06.3.33.33,0,0,1-.18.3.46.46,0,0,1-.3.12ZM204,12.07a.45.45,0,0,1-.24-.12.32.32,0,0,1-.18-.24.38.38,0,0,1,0-.36.6.6,0,0,1,.3-.24,16.92,16.92,0,0,1,3.9-.48h0a.46.46,0,0,1,.3.12.52.52,0,0,1,.18.36.33.33,0,0,1-.18.3.33.33,0,0,1-.3.18,12.52,12.52,0,0,0-3.66.48Zm64.44-.48h-3.84a.22.22,0,0,1-.18-.06.13.13,0,0,1-.12-.12.13.13,0,0,1-.12-.12c0-.06-.06-.12-.06-.18s.06-.12.06-.18.06-.12.12-.18.06-.06.12-.12h4.2l.12.12c.06.06.06.12.12.18v.36c-.06.06-.06.12-.12.12s-.06.12-.12.12a.22.22,0,0,1-.18.06Zm-7.62,0h-3.78a.52.52,0,0,1-.36-.18.46.46,0,0,1-.12-.3.85.85,0,0,1,.12-.36.85.85,0,0,1,.36-.12h4c.06.06.12.06.18.12s.06.12.12.18v.36c-.06.06-.06.12-.12.12s-.12.12-.18.12a.22.22,0,0,1-.18.06Zm-7.56,0H249.5a.52.52,0,0,1-.36-.18.46.46,0,0,1-.12-.3.85.85,0,0,1,.12-.36.85.85,0,0,1,.36-.12h4c.06.06.12.06.18.12s.06.12.06.18a.3.3,0,0,1,0,.36.21.21,0,0,1-.06.12c-.06.06-.12.12-.18.12a.22.22,0,0,1-.18.06Zm-7.56,0h-3.78a.52.52,0,0,1-.36-.18.46.46,0,0,1-.12-.3.85.85,0,0,1,.12-.36.85.85,0,0,1,.36-.12h4c.06.06.12.06.18.12s.06.12.06.18a.3.3,0,0,1,0,.36c0,.06-.06.12-.12.18a.21.21,0,0,1-.12.06.22.22,0,0,1-.18.06Zm-7.62,0h-3.78a.22.22,0,0,1-.18-.06c-.06,0-.12-.06-.18-.12a.21.21,0,0,1-.06-.12.3.3,0,0,1,0-.36c0-.06.06-.12.06-.18s.12-.06.18-.12h4a.85.85,0,0,1,.36.12.85.85,0,0,1,.12.36.46.46,0,0,1-.12.3.52.52,0,0,1-.36.18Zm-7.56,0h-3.78a.52.52,0,0,1-.36-.18.46.46,0,0,1-.12-.3.85.85,0,0,1,.12-.36.85.85,0,0,1,.36-.12h4c.06.06.12.06.18.12s.06.12.06.18a.3.3,0,0,1,0,.36.21.21,0,0,1-.06.12c-.06.06-.12.12-.18.12a.22.22,0,0,1-.18.06Zm-7.56,0h-3.84a.33.33,0,0,1-.3-.18.33.33,0,0,1-.18-.3.52.52,0,0,1,.18-.36.46.46,0,0,1,.3-.12h4l.12.12c.06.06.12.12.12.18s.06.12.06.18-.06.12-.06.18a.13.13,0,0,1-.12.12c-.06.06-.06.12-.12.12a.22.22,0,0,1-.18.06Zm-7.62,0h-3.78a.33.33,0,0,1-.3-.18.33.33,0,0,1-.18-.3.52.52,0,0,1,.18-.36.46.46,0,0,1,.3-.12h3.78a.51.51,0,0,1,.36.12.44.44,0,0,1,.12.36v.18c-.06.06-.06.12-.12.12s-.12.12-.18.12a.22.22,0,0,1-.18.06Z"/><path class="cls-9" d="M189.68,33.43a.45.45,0,0,1-.3-.06.54.54,0,0,1-.18-.72l1.14-1.8a.13.13,0,0,1,.12-.12c.06-.06.12-.12.18-.12h.24c.06,0,.12.06.18.06a1.26,1.26,0,0,1,.24.36.76.76,0,0,1-.06.36l-1.14,1.8-.18.18a.45.45,0,0,1-.24.06Z"/><path class="cls-9" d="M177.38,53c-.12,0-.18-.06-.3-.12a.6.6,0,0,1-.24-.3,1,1,0,0,1,.06-.42L179,49a.4.4,0,0,1,.3-.24.53.53,0,0,1,.42.06.33.33,0,0,1,.18.3.36.36,0,0,1-.06.42l-2,3.3c0,.06-.12.12-.18.18s-.18.06-.24.06Zm4.08-6.54c-.12,0-.18-.06-.3-.12l-.12-.12a.22.22,0,0,1-.06-.18.18.18,0,0,1,0-.24.22.22,0,0,1,.06-.18l2-3.24c0-.12.06-.12.12-.18s.12-.12.18-.12h.24c.06,0,.12.06.18.06l.18.18c0,.06.06.12.06.18v.24c0,.06-.06.12-.06.18l-2,3.24a.47.47,0,0,1-.24.24c-.06,0-.12.06-.24.06Zm4.08-6.6a.36.36,0,0,1-.24-.06.4.4,0,0,1-.24-.3.49.49,0,0,1,.06-.42l2-3.3a.6.6,0,0,1,.3-.24.51.51,0,0,1,.42.12.6.6,0,0,1,.24.3.53.53,0,0,1-.06.42l-2,3.24a.82.82,0,0,1-.18.24.54.54,0,0,1-.3.06Z"/><path class="cls-9" d="M172.46,59.35l2.4-3.84a1.26,1.26,0,0,1,.36-.24.4.4,0,0,1,.36.06.47.47,0,0,1,.24.24c0,.12.06.24,0,.3a.76.76,0,0,1,.36.06.32.32,0,0,1,.24.18c0,.06.06.12.06.18v.24c0,.06-.06.12-.06.18s-.12.06-.18.12Z"/><path class="cls-9" d="M178.88,55a.45.45,0,0,1-.3-.06.6.6,0,0,1-.24-.3.45.45,0,0,1,.06-.3.51.51,0,0,1,.18-.3l2.94-1.92a.4.4,0,0,1,.36-.06c.12,0,.24.12.36.18a.53.53,0,0,1,.06.42c0,.12-.12.24-.24.36l-2.88,1.92a.54.54,0,0,1-.3.06Zm5.82-3.84a.46.46,0,0,1-.3-.12.32.32,0,0,1-.18-.24.38.38,0,0,1,0-.36c0-.12.12-.18.18-.24l2.94-1.92c.06-.06.12-.06.18-.12h.18c.12.06.18.06.24.12l.12.12a.22.22,0,0,1,.06.18v.24a.22.22,0,0,1-.06.18c-.06.06-.12.12-.18.12l-2.88,2c-.12,0-.18.06-.3.06Z"/><path class="cls-9" d="M190.52,47.23a.54.54,0,0,1-.3-.06.51.51,0,0,1-.18-.3.27.27,0,0,1,0-.3c.06-.12.12-.18.18-.3l1.8-1.14c.06,0,.12-.06.18-.06h.18c.06,0,.12.06.18.06l.18.18c0,.06.06.12.06.18v.18c0,.06-.06.12-.06.18l-.18.18-1.74,1.14a.54.54,0,0,1-.3.06Z"/><path class="cls-9" d="M281.12,19H219.56A14.75,14.75,0,0,0,204.8,33.85V56a14.81,14.81,0,0,0,4.32,10.44,14.62,14.62,0,0,0,10.44,4.38h40.08l-6.54,11.4,19-11.4h9.12A15,15,0,0,0,296,56V33.85a14.73,14.73,0,0,0-4.38-10.5A15,15,0,0,0,281.12,19Z"/><path class="cls-4" d="M235,41.11a5.05,5.05,0,0,1-.42,2.1,6.82,6.82,0,0,1-1.08,1.92,13,13,0,0,1-1.44,1.74c-.6.6-1.14,1.14-1.68,1.62a6.36,6.36,0,0,1-.9.9c-.3.36-.6.66-.9,1s-.6.66-.84,1a2.07,2.07,0,0,0-.42.72h8.28v3.54H222.8a4,4,0,0,1-.06-.84v-.66a6.85,6.85,0,0,1,.42-2.46,7.84,7.84,0,0,1,1.14-2.1,12,12,0,0,1,1.62-1.86c.54-.54,1.14-1.14,1.74-1.68l1.2-1.26c.36-.36.72-.72,1.08-1.14a6.5,6.5,0,0,0,.66-1.08,2.44,2.44,0,0,0,.24-1.14,1.78,1.78,0,0,0-.12-1,1.83,1.83,0,0,0-.54-.78,3.13,3.13,0,0,0-1.74-.54,5.11,5.11,0,0,0-1.38.24,7.83,7.83,0,0,0-2.16,1.26c-.24.18-.42.36-.6.48l-2-2.94a10.51,10.51,0,0,1,2.88-1.92,8.61,8.61,0,0,1,3.48-.72,9.87,9.87,0,0,1,2.94.36,5.5,5.5,0,0,1,2,1.14,4.33,4.33,0,0,1,1.2,1.74,6.29,6.29,0,0,1,.3,2.34Z"/><path class="cls-4" d="M250.82,35.53V47.59h2.1v3.54h-2.1v4.5h-4v-4.5h-8.28V47.95c.42-.84,1-1.8,1.56-2.88s1.26-2.16,2-3.3,1.5-2.22,2.34-3.36,1.62-2,2.46-2.88Zm-4,5.28c-.72,1-1.5,2-2.28,3.18a21.35,21.35,0,0,0-2,3.6h4.32Z"/><polygon class="cls-4" points="256.22 58.51 252.92 58.51 262.04 33.61 265.34 33.61 256.22 58.51"/><path class="cls-4" d="M268.28,55.63a27.41,27.41,0,0,1,.72-4.44,42.94,42.94,0,0,1,1.38-4.5q.81-2.07,1.8-4.14a38.54,38.54,0,0,1,2-3.36h-8.88V35.53h14.34v3.12a16.41,16.41,0,0,0-2.1,2.82,32.28,32.28,0,0,0-2.16,4,36.92,36.92,0,0,0-1.74,4.92,25.06,25.06,0,0,0-1,5.22Z"/><path class="cls-10" d="M168.74,102.49c6.54-18.72,1.5-44.4-15.66-53.76a15.51,15.51,0,0,0-2.22-1.14,19.64,19.64,0,0,0-6.6-1.62s-5.76-6.48-17.4-5.64a43.85,43.85,0,0,0-23.34,6.24C86.06,55.75,78.56,83,85.4,102.49s4.68,47.64-2.52,50.88A101.16,101.16,0,0,0,116.6,157l24.12.24a65.14,65.14,0,0,0,30.78-5c-7.2-3.24-9.6-30.18-2.76-49.74Z"/><polygon class="cls-11" points="141.14 123.79 113.3 123.79 111.38 148.93 142.64 143.83 141.14 123.79"/><path class="cls-12" d="M113.3,123.79l-1.08,14.1s21.84-4.68,28.92-14.1Z"/><rect class="cls-4" x="92.72" y="164.77" width="69" height="38.28"/><path class="cls-11" d="M155.72,77.47c0,5.88.18,11.34.24,13.62.24,8.94-.66,22-12,30.84-4.92,3.84-10.86,7.26-16.8,7.32-6.12.06-12.3-3.36-17.4-7.32-11.34-8.82-12.24-21.9-12-30.84.06-2.46.24-8.58.42-14.94.24-9.48,10.2-19.08,29-19.08s28.56,11.52,28.56,20.4Z"/><path class="cls-10" d="M118.22,82.69a.65.65,0,0,1-.3-.06,14.92,14.92,0,0,0-8.58,0,1,1,0,0,1-.72-.06,1.18,1.18,0,0,1-.54-.54,1,1,0,0,1,.06-.72,1.18,1.18,0,0,1,.54-.54,17.17,17.17,0,0,1,9.84,0,1,1,0,0,1,.54.42,1.06,1.06,0,0,1-.18,1.26,1.26,1.26,0,0,1-.66.24Z"/><path class="cls-10" d="M145.34,82.69a.36.36,0,0,1-.24-.06,15.12,15.12,0,0,0-8.64,0,1,1,0,0,1-.72-.06.85.85,0,0,1-.48-.54,1,1,0,0,1,0-.72,1.18,1.18,0,0,1,.54-.54,17.17,17.17,0,0,1,9.84,0,1,1,0,0,1,.54.42,1.06,1.06,0,0,1-.18,1.26,1.26,1.26,0,0,1-.66.24Z"/><path class="cls-11" d="M163.7,90.07c-1-3.54-5.46-5.4-8.82-3.72l-1.44,22.86c6.12-4.08,12.42-11.16,10.26-19.14Z"/><path class="cls-11" d="M98.9,86.35c-3.42-1.62-7.92.18-8.88,3.72-2.16,8,4.14,15.06,10.32,19.14Z"/><path class="cls-11" d="M126.86,173.89c15.36-6.54,34.38-2.64,34.38-2.64l3.06-24.36c-11.22-2-21.66-3.06-21.66-3.06H111.8S100.94,145,89.42,147l3.06,24.24s19-3.9,34.38,2.64Z"/><path class="cls-10" d="M156,85.93s-3.78-15-18.72-27.6c0,0,6.36-1.62,15.3,5.58s3.42,22,3.42,22Z"/><path class="cls-10" d="M138.26,58.63s-33.3,3.9-37.92,40c0,0-8.88-29.4.78-36.72s39.42-9.36,39.42-9.36l2.4,6.84Z"/><path class="cls-13" d="M139.58,57.61l-.72-1.08c2.82-1.86,4.14-5.4,5.28-8.52l1.26.48c-1.26,3.3-2.64,7.08-5.82,9.12Z"/><path class="cls-10" d="M118.76,71.77l-.42-1.2A47.12,47.12,0,0,0,137.18,58l1,.9a48.61,48.61,0,0,1-19.38,12.84Z"/><path class="cls-13" d="M161.24,82a44.78,44.78,0,0,0-12.78-23l.9-.9A46,46,0,0,1,162.5,81.79Z"/><path class="cls-13" d="M93.14,84.37l-1.2-.42a46.16,46.16,0,0,1,24.12-27l.54,1.2A45,45,0,0,0,93.14,84.37Z"/><path class="cls-13" d="M95.84,130.21l-.6-1.14c.9-.48,1.5-1.5,1.92-3.12a16.46,16.46,0,0,0-.06-8.7l1.26-.36a17.7,17.7,0,0,1,.06,9.36c-.48,2-1.32,3.36-2.58,4Z"/><path class="cls-14" d="M76.28,184l1.32-.12,1.74,21.42h94.92l1.86-17.34,1.26.12-1.8,17.22H203c-2.58-19.44-7.68-48.72-15.78-52.44-5.28-2.46-14.34-4.44-22.92-5.94l-16-2.64S156.68,181,126.86,198c-29.82-15.12-21.18-53.76-21.18-53.76L89.42,147c-8.34,1.5-17,3.42-22.2,5.82-8.1,3.72-13.2,33-15.72,52.44H78Z"/><polygon class="cls-15" points="76.28 183.97 78.02 205.27 79.34 205.27 77.6 183.85 76.28 183.97"/><polygon class="cls-15" points="176.12 187.93 174.26 205.27 175.58 205.27 177.38 188.05 176.12 187.93"/><path d="M156.26,87.37a2.49,2.49,0,0,1,2.7-2.28h.36a9.2,9.2,0,0,1,8.4,9.9l-.6,6.78a9.2,9.2,0,0,1-9.9,8.4h-.36a2.49,2.49,0,0,1-2.28-2.7Z"/><path d="M98.9,87.37a2.46,2.46,0,0,0-2.7-2.28h-.36A9.15,9.15,0,0,0,87.5,95l.54,6.78a9.2,9.2,0,0,0,9.9,8.4h.36a2.49,2.49,0,0,0,2.28-2.7Z"/><path class="cls-16" d="M95.72,104.23c0,2.1,4.14,8.34,20.88,16.32"/><path d="M123,121.33c0,1.32-1.62,2.4-3.6,2.4s-3.66-1.08-3.66-2.4,1.62-2.4,3.66-2.4,3.6,1.08,3.6,2.4Z"/><path class="cls-17" d="M162.5,93.55V74.83a30.07,30.07,0,0,0-30.06-30.06H122A30,30,0,0,0,92,74.83V93.55"/><path class="cls-18" d="M150.69,197l.4-1h.48l-1,2.5h-.36l-1-2.5h.48l.41,1,.3.87Z"/><path class="cls-4" d="M152.38,195.33a.28.28,0,0,1-.56,0A.28.28,0,0,1,152.38,195.33Zm-.05.61h-.45v2.51h.45Z"/><path class="cls-4" d="M153.4,196.29a1,1,0,0,1,.84-.36,1.28,1.28,0,0,1,0,2.57,1,1,0,0,1-.83-.38v.33h-.45v-3.21h.45Zm.81,1.8a.89.89,0,1,0-.81-.89A.83.83,0,0,0,154.21,198.09Z"/><path class="cls-4" d="M158.35,197.31h-2.1a.83.83,0,0,0,.84.78.8.8,0,0,0,.74-.41h.46a1.29,1.29,0,1,1-1.2-1.75,1.22,1.22,0,0,1,1.27,1.17A.68.68,0,0,1,158.35,197.31Zm-.46-.37a.76.76,0,0,0-.8-.62.78.78,0,0,0-.82.62Z"/><path class="cls-18" d="M160,197l.4-1h.48l-1,2.5h-.36l-1-2.5H159l.41,1,.3.87Z"/><path class="cls-4" d="M161.71,195.33a.28.28,0,0,1-.56,0A.28.28,0,0,1,161.71,195.33Zm-.05.61h-.45v2.51h.45Z"/><path class="cls-4" d="M164.26,195.23h.45v3.21h-.45v-.33a1,1,0,0,1-.83.38,1.28,1.28,0,1,1,0-2.57,1,1,0,0,1,.84.36Zm-.84,1.08a.86.86,0,0,0-.86.88.85.85,0,1,0,.86-.88Z"/><path class="cls-4" d="M167.69,197.31h-2.1a.83.83,0,0,0,.84.78.8.8,0,0,0,.74-.41h.46a1.29,1.29,0,1,1-1.2-1.75,1.22,1.22,0,0,1,1.27,1.17A.68.68,0,0,1,167.69,197.31Zm-.46-.37a.76.76,0,0,0-.8-.62.78.78,0,0,0-.82.62Z"/><path class="cls-4" d="M169.37,198.49a1.29,1.29,0,1,1,1.35-1.29A1.26,1.26,0,0,1,169.37,198.49Zm0-.4a.88.88,0,1,0-.88-.88A.85.85,0,0,0,169.37,198.09Z"/><path class="cls-19" d="M148.07,194.86,146,198h0l-.58.86a.66.66,0,0,1-1,.1l0,0-.05-.07-.23-.34-2.76-4h.31a3.05,3.05,0,0,1,2.52,1.33l.42.58.88-1.35a1.15,1.15,0,0,0,.18-.79c-.12-.83-1.07-1-1.76-1h3.37A1,1,0,0,1,148.07,194.86Z"/><g class="cls-20"><path class="cls-21" d="M147.54,193.29l-3.47,5.23-2.76-4h.31a3.05,3.05,0,0,1,2.52,1.33l.42.58,1-1.56c.32-1.32-.9-1.61-1.72-1.61h3.37A.89.89,0,0,1,147.54,193.29Z"/></g><path class="cls-22" d="M144.56,196.42l-1,1.41-2.3-3.33h.31a3.05,3.05,0,0,1,2.52,1.33Z"/></g></g></svg>