<svg width="1920" height="785" viewBox="0 0 1920 785" fill="none" xmlns="http://www.w3.org/2000/svg">
<g clip-path="url(#clip0_730_16522)">
<rect width="1920" height="785" fill="#7F7DAE"/>
<path d="M-63.5 404.5L1248.6 -352.001L1286.15 -286.976L-25.9578 469.525L-63.5 404.5Z" fill="#8D8BBC"/>
<path d="M-24 468.5L1285.65 -287.606L1298.63 -265.122L-11.0191 490.984L-24 468.5Z" fill="#6F6DA3"/>
<path d="M480.464 646.062L436.536 626.104C432.823 624.397 428.507 624.563 424.958 626.612C415.994 631.787 416.656 644.881 426.032 649.173L457.934 663.722L454.583 698.624C453.551 708.925 464.62 716.01 473.584 710.835C477.134 708.786 479.495 705.096 479.873 701.028L484.554 653.006C484.782 650.066 483.184 647.299 480.464 646.062Z" fill="#6F6DA3"/>
<path d="M438.354 670.374L394.486 650.382C390.713 648.71 386.397 648.876 382.848 650.925C373.884 656.1 374.485 669.228 383.922 673.486L415.824 688.035L412.472 722.937C411.441 733.238 422.51 740.323 431.474 735.148C435.023 733.098 437.385 729.409 437.763 725.34L442.443 677.318C442.671 674.379 441.074 671.612 438.354 670.374Z" fill="#6F6DA3"/>
<path d="M1405.65 102.318L1361.73 82.3599C1358.01 80.6532 1353.7 80.8189 1350.15 82.8681C1341.18 88.0434 1341.85 101.137 1351.22 105.429L1383.12 119.978L1379.77 154.88C1378.74 165.181 1389.81 172.266 1398.77 167.091C1402.32 165.042 1404.68 161.352 1405.06 157.283L1409.74 109.261C1409.97 106.322 1408.37 103.555 1405.65 102.318Z" fill="#6F6DA3"/>
<path d="M1363.54 126.63L1319.68 106.638C1315.9 104.966 1311.59 105.131 1308.04 107.181C1299.07 112.356 1299.67 125.484 1309.11 129.742L1341.01 144.291L1337.66 179.193C1336.63 189.494 1347.7 196.579 1356.66 191.403C1360.21 189.354 1362.57 185.665 1362.95 181.596L1367.63 133.574C1367.86 130.635 1366.26 127.868 1363.54 126.63Z" fill="#6F6DA3"/>
<rect width="501.366" height="501.366" rx="38.3787" transform="matrix(0.866044 -0.499967 0.866044 0.499967 1286 690.666)" stroke="#8D8BBC" stroke-width="2.55858"/>
<circle cx="1386.62" cy="685.938" r="10.874" transform="rotate(-30 1386.62 685.938)" stroke="#8D8BBC" stroke-width="2.55858"/>
<circle cx="1436.48" cy="657.154" r="10.874" transform="rotate(-30 1436.48 657.154)" stroke="#8D8BBC" stroke-width="2.55858"/>
<circle cx="1486.34" cy="628.371" r="10.874" transform="rotate(-30 1486.34 628.371)" stroke="#8D8BBC" stroke-width="2.55858"/>
</g>
<defs>
<clipPath id="clip0_730_16522">
<rect width="1920" height="785" fill="white"/>
</clipPath>
</defs>
</svg>
