<svg width="375" height="230" viewBox="0 0 375 230" fill="none" xmlns="http://www.w3.org/2000/svg">
<g filter="url(#filter0_f_820_12449)">
<rect width="246.817" height="173.027" rx="20.7763" transform="matrix(0.866044 -0.499967 0.866044 0.499967 5.78516 133.789)" fill="black" fill-opacity="0.05"/>
</g>
<g clip-path="url(#clip0_820_12449)">
<rect width="246.817" height="173.027" rx="20.7763" transform="matrix(0.866044 -0.499967 0.866044 0.499967 5.78516 123.4)" fill="white"/>
<path d="M169.345 176.199L332.246 82.1565" stroke="#FAFAFA" stroke-width="0.828624" stroke-linecap="round"/>
<path d="M93.5945 154.017L93.1926 153.785L94.1169 153.251L91.0398 151.474L90.7699 152.161L90.2188 152.074L90.6034 151.07L90.9422 150.875L94.5877 152.979L95.4546 152.479L95.8565 152.711L93.5945 154.017ZM98.099 151.476C97.6358 151.743 97.1058 151.844 96.5087 151.777C95.9116 151.711 95.2763 151.484 94.6027 151.095C93.9252 150.704 93.531 150.337 93.42 149.994C93.309 149.652 93.4851 149.347 93.9482 149.08C94.4151 148.81 94.9433 148.708 95.5327 148.775C96.1221 148.837 96.7556 149.063 97.433 149.454C98.1104 149.845 98.5046 150.214 98.6156 150.561C98.7305 150.906 98.5582 151.211 98.099 151.476ZM97.6913 151.24C98.0128 151.055 98.1143 150.839 97.9956 150.594C97.8808 150.347 97.5363 150.057 96.9622 149.726C96.3881 149.394 95.8925 149.197 95.4753 149.133C95.0543 149.066 94.6811 149.127 94.3558 149.315C94.0343 149.5 93.9291 149.716 94.0401 149.961C94.1549 150.204 94.4974 150.49 95.0677 150.82C95.6418 151.151 96.1413 151.351 96.5661 151.419C96.9948 151.486 97.3698 151.426 97.6913 151.24ZM103.016 148.637C102.553 148.905 102.023 149.005 101.426 148.939C100.828 148.873 100.193 148.645 99.5195 148.256C98.8421 147.865 98.4479 147.498 98.3369 147.156C98.2259 146.813 98.402 146.508 98.8651 146.241C99.332 145.971 99.8602 145.87 100.45 145.936C101.039 145.998 101.672 146.224 102.35 146.616C103.027 147.007 103.422 147.376 103.532 147.723C103.647 148.067 103.475 148.372 103.016 148.637ZM102.608 148.402C102.93 148.216 103.031 148.001 102.912 147.756C102.798 147.508 102.453 147.219 101.879 146.887C101.305 146.556 100.809 146.358 100.392 146.294C99.9712 146.228 99.598 146.289 99.2727 146.476C98.9512 146.662 98.8459 146.877 98.9569 147.123C99.0717 147.366 99.4143 147.652 99.9846 147.981C100.559 148.312 101.058 148.512 101.483 148.581C101.912 148.647 102.287 148.588 102.608 148.402ZM106.458 146.65C105.995 146.917 105.465 147.018 104.868 146.952C104.271 146.885 103.636 146.658 102.962 146.269C102.284 145.878 101.89 145.511 101.779 145.169C101.668 144.826 101.844 144.521 102.307 144.254C102.774 143.984 103.303 143.883 103.892 143.949C104.481 144.011 105.115 144.237 105.792 144.628C106.47 145.019 106.864 145.388 106.975 145.735C107.09 146.08 106.917 146.385 106.458 146.65ZM106.051 146.415C106.372 146.229 106.473 146.014 106.355 145.768C106.24 145.521 105.896 145.231 105.321 144.9C104.747 144.569 104.252 144.371 103.835 144.307C103.414 144.241 103.04 144.301 102.715 144.489C102.394 144.675 102.288 144.89 102.399 145.135C102.514 145.378 102.857 145.665 103.427 145.994C104.001 146.325 104.5 146.525 104.925 146.594C105.354 146.66 105.729 146.6 106.051 146.415ZM109.901 144.663C109.437 144.93 108.907 145.031 108.31 144.964C107.713 144.898 107.078 144.67 106.404 144.282C105.727 143.891 105.333 143.524 105.222 143.181C105.111 142.839 105.287 142.534 105.75 142.267C106.217 141.997 106.745 141.895 107.334 141.962C107.924 142.023 108.557 142.25 109.235 142.641C109.912 143.032 110.306 143.401 110.417 143.748C110.532 144.093 110.36 144.398 109.901 144.663ZM109.493 144.427C109.814 144.242 109.916 144.026 109.797 143.781C109.682 143.534 109.338 143.244 108.764 142.913C108.19 142.581 107.694 142.384 107.277 142.32C106.856 142.253 106.483 142.314 106.157 142.502C105.836 142.687 105.731 142.903 105.842 143.148C105.956 143.391 106.299 143.677 106.869 144.007C107.443 144.338 107.943 144.538 108.368 144.606C108.796 144.673 109.171 144.613 109.493 144.427Z" fill="#6D6D6D"/>
<path d="M126.318 169.156C126.058 169.306 125.767 169.425 125.445 169.513C125.124 169.602 124.804 169.649 124.487 169.656L124.291 169.338C124.938 169.3 125.472 169.16 125.893 168.917C126.172 168.756 126.314 168.583 126.318 168.4C126.322 168.216 126.195 168.051 125.939 167.903C125.675 167.75 125.382 167.67 125.061 167.661C124.739 167.652 124.444 167.725 124.177 167.88C123.79 168.103 123.646 168.371 123.746 168.685L123.401 168.884L120.996 167.495L123.344 166.14L123.746 166.372L121.863 167.459L123.31 168.294C123.31 168.038 123.491 167.804 123.855 167.594C124.108 167.449 124.381 167.353 124.676 167.306C124.971 167.26 125.265 167.264 125.56 167.319C125.855 167.37 126.13 167.47 126.387 167.618C126.639 167.764 126.808 167.925 126.892 168.102C126.976 168.278 126.97 168.458 126.875 168.642C126.783 168.823 126.597 168.994 126.318 169.156ZM131.149 166.367C130.686 166.634 130.155 166.735 129.558 166.668C128.961 166.602 128.326 166.374 127.652 165.986C126.975 165.595 126.581 165.228 126.47 164.885C126.359 164.543 126.535 164.238 126.998 163.971C127.465 163.701 127.993 163.599 128.582 163.666C129.172 163.727 129.805 163.954 130.483 164.345C131.16 164.736 131.554 165.105 131.665 165.452C131.78 165.797 131.608 166.102 131.149 166.367ZM130.741 166.131C131.063 165.946 131.164 165.73 131.045 165.485C130.93 165.238 130.586 164.948 130.012 164.617C129.438 164.285 128.942 164.088 128.525 164.024C128.104 163.957 127.731 164.018 127.406 164.206C127.084 164.391 126.979 164.607 127.09 164.852C127.205 165.095 127.547 165.381 128.117 165.711C128.691 166.042 129.191 166.242 129.616 166.31C130.044 166.377 130.42 166.317 130.741 166.131ZM134.591 164.379C134.128 164.647 133.598 164.747 133.001 164.681C132.404 164.615 131.768 164.387 131.095 163.998C130.417 163.607 130.023 163.24 129.912 162.898C129.801 162.556 129.977 162.251 130.44 161.983C130.907 161.714 131.435 161.612 132.025 161.678C132.614 161.74 133.248 161.967 133.925 162.358C134.602 162.749 134.997 163.118 135.108 163.465C135.223 163.809 135.05 164.114 134.591 164.379ZM134.183 164.144C134.505 163.959 134.606 163.743 134.488 163.498C134.373 163.25 134.028 162.961 133.454 162.63C132.88 162.298 132.385 162.1 131.967 162.036C131.546 161.97 131.173 162.031 130.848 162.219C130.526 162.404 130.421 162.62 130.532 162.865C130.647 163.108 130.989 163.394 131.56 163.723C132.134 164.055 132.633 164.255 133.058 164.323C133.487 164.389 133.862 164.33 134.183 164.144ZM138.033 162.392C137.57 162.66 137.04 162.76 136.443 162.694C135.846 162.628 135.211 162.4 134.537 162.011C133.86 161.62 133.465 161.253 133.354 160.911C133.243 160.568 133.42 160.263 133.883 159.996C134.35 159.726 134.878 159.625 135.467 159.691C136.057 159.753 136.69 159.979 137.367 160.37C138.045 160.762 138.439 161.131 138.55 161.477C138.665 161.822 138.493 162.127 138.033 162.392ZM137.626 162.157C137.947 161.971 138.049 161.756 137.93 161.511C137.815 161.263 137.471 160.974 136.897 160.642C136.323 160.311 135.827 160.113 135.41 160.049C134.989 159.983 134.616 160.043 134.29 160.231C133.969 160.417 133.863 160.632 133.974 160.878C134.089 161.121 134.432 161.407 135.002 161.736C135.576 162.067 136.076 162.267 136.501 162.336C136.929 162.402 137.304 162.342 137.626 162.157Z" fill="#6D6D6D"/>
<path d="M161.395 182.877C160.932 183.144 160.402 183.245 159.805 183.179C159.208 183.112 158.572 182.885 157.899 182.496C157.221 182.105 156.827 181.738 156.716 181.396C156.605 181.053 156.781 180.748 157.244 180.481C157.711 180.211 158.239 180.11 158.829 180.176C159.418 180.238 160.051 180.464 160.729 180.855C161.406 181.246 161.801 181.615 161.912 181.962C162.026 182.307 161.854 182.612 161.395 182.877ZM160.987 182.642C161.309 182.456 161.41 182.241 161.292 181.996C161.177 181.748 160.832 181.459 160.258 181.127C159.684 180.796 159.188 180.598 158.771 180.534C158.35 180.468 157.977 180.528 157.652 180.716C157.33 180.902 157.225 181.117 157.336 181.362C157.451 181.606 157.793 181.892 158.364 182.221C158.938 182.552 159.437 182.752 159.862 182.821C160.291 182.887 160.666 182.827 160.987 182.642Z" fill="#6D6D6D"/>
<path d="M180.226 183.547L176.178 181.21L176.574 180.981L181.052 181.77L179.674 179.192L180.071 178.963L184.118 181.3L183.682 181.551L180.518 179.725L181.707 181.969L181.397 182.148L177.499 181.475L180.656 183.298L180.226 183.547ZM186.274 180.115C186.002 180.272 185.707 180.373 185.389 180.42C185.072 180.466 184.75 180.459 184.425 180.4C184.1 180.336 183.79 180.219 183.495 180.048C183.2 179.878 182.999 179.7 182.892 179.515C182.785 179.325 182.772 179.138 182.852 178.955C182.932 178.771 183.108 178.601 183.38 178.444C183.648 178.29 183.941 178.189 184.258 178.143C184.58 178.094 184.903 178.102 185.229 178.166C185.554 178.226 185.864 178.341 186.159 178.511C186.453 178.681 186.654 178.861 186.762 179.051C186.869 179.236 186.88 179.422 186.796 179.608C186.716 179.791 186.541 179.96 186.274 180.115ZM185.9 179.899C186.161 179.749 186.277 179.576 186.251 179.379C186.22 179.18 186.032 178.981 185.688 178.782C185.34 178.581 184.995 178.473 184.655 178.458C184.314 178.442 184.014 178.51 183.753 178.66C183.489 178.812 183.371 178.987 183.397 179.183C183.428 179.378 183.617 179.576 183.966 179.777C184.31 179.976 184.653 180.085 184.993 180.105C185.334 180.12 185.636 180.052 185.9 179.899Z" fill="#6D6D6D"/>
<path d="M207.759 167.652L204.119 165.55L202.65 166.399L202.242 166.164L205.658 164.192L206.065 164.427L204.596 165.275L208.236 167.377L207.759 167.652ZM210.781 165.967C210.111 166.354 209.407 166.334 208.668 165.907L206.934 164.907L207.399 164.638L209.127 165.636C209.376 165.779 209.609 165.857 209.828 165.868C210.05 165.877 210.27 165.818 210.488 165.692C210.725 165.555 210.84 165.398 210.832 165.221C210.821 165.042 210.683 164.877 210.419 164.724L208.834 163.809L209.299 163.541L212.089 165.152L211.636 165.414L211.165 165.142C211.246 165.29 211.251 165.437 211.182 165.583C211.114 165.724 210.98 165.852 210.781 165.967Z" fill="#6D6D6D"/>
<path d="M235.844 151.437L230.379 149.919L230.872 149.634L235.373 150.914L233.186 148.299L233.565 148.08L238.112 149.366L235.89 146.738L236.361 146.466L238.99 149.621L238.571 149.863L234.087 148.607L236.252 151.202L235.844 151.437ZM241.981 147.954C241.541 148.208 241.064 148.335 240.552 148.335C240.035 148.333 239.555 148.204 239.111 147.947C238.824 147.782 238.628 147.603 238.525 147.41C238.418 147.216 238.404 147.027 238.485 146.844C238.565 146.656 238.737 146.486 239.001 146.333C239.38 146.114 239.799 146.014 240.259 146.032C240.714 146.047 241.154 146.177 241.579 146.423L241.757 146.525L239.656 147.738C239.989 147.913 240.324 148 240.661 148C240.994 147.998 241.309 147.911 241.608 147.738C241.776 147.641 241.912 147.534 242.016 147.417C242.115 147.298 242.174 147.164 242.193 147.016L242.681 147.112C242.674 147.253 242.607 147.4 242.481 147.553C242.35 147.703 242.184 147.837 241.981 147.954ZM239.357 146.525C239.093 146.678 238.967 146.846 238.979 147.029C238.99 147.213 239.116 147.389 239.357 147.56L241.051 146.582C240.756 146.425 240.462 146.341 240.167 146.33C239.876 146.317 239.606 146.382 239.357 146.525Z" fill="#6D6D6D"/>
<path d="M261.581 136.579L257.942 134.478L256.472 135.327L256.064 135.091L259.48 133.119L259.888 133.355L258.418 134.203L262.058 136.304L261.581 136.579ZM263.979 135.196L259.931 132.859L260.396 132.591L262.113 133.581C262.036 133.431 262.038 133.284 262.118 133.141C262.199 132.993 262.342 132.859 262.549 132.74C263.211 132.357 263.91 132.378 264.645 132.803L266.384 133.807L265.919 134.075L264.208 133.088C263.948 132.937 263.707 132.858 263.485 132.849C263.263 132.836 263.041 132.893 262.819 133.021C262.562 133.169 262.438 133.334 262.446 133.515C262.453 133.692 262.589 133.857 262.853 134.009L264.444 134.927L263.979 135.196Z" fill="#6D6D6D"/>
<path d="M289.292 120.583L285.245 118.246L287.748 116.801L288.144 117.03L286.111 118.203L287.524 119.018L289.441 117.911L289.837 118.14L287.92 119.247L289.763 120.311L289.292 120.583ZM292.318 118.836L289.528 117.225L289.981 116.963L290.481 117.251C290.293 116.971 290.414 116.687 290.843 116.4L290.992 116.294L291.428 116.506L291.17 116.695C290.929 116.86 290.812 117.025 290.82 117.188C290.823 117.35 290.95 117.502 291.199 117.646L292.789 118.564L292.318 118.836Z" fill="#6D6D6D"/>
<path d="M317.206 104.527C316.888 104.71 316.561 104.853 316.224 104.954C315.883 105.054 315.541 105.112 315.196 105.13L314.984 104.815C315.328 104.788 315.644 104.734 315.931 104.653C316.218 104.571 316.503 104.448 316.787 104.285C317.131 104.086 317.322 103.902 317.361 103.735C317.399 103.562 317.313 103.415 317.102 103.294C316.934 103.196 316.739 103.155 316.517 103.168C316.299 103.179 316.019 103.25 315.678 103.38L314.961 103.655C314.525 103.818 314.13 103.902 313.778 103.907C313.426 103.907 313.105 103.823 312.814 103.655C312.573 103.516 312.423 103.359 312.366 103.184C312.312 103.008 312.347 102.826 312.469 102.641C312.592 102.455 312.798 102.278 313.089 102.111C313.361 101.954 313.658 101.833 313.979 101.749C314.297 101.663 314.616 101.62 314.938 101.62L315.139 101.928C314.81 101.937 314.515 101.977 314.255 102.048C313.991 102.116 313.74 102.219 313.503 102.356C313.2 102.53 313.03 102.71 312.992 102.896C312.95 103.079 313.043 103.237 313.273 103.37C313.457 103.476 313.658 103.528 313.876 103.526C314.098 103.521 314.362 103.459 314.668 103.34L315.391 103.068C315.858 102.892 316.266 102.798 316.614 102.787C316.963 102.771 317.276 102.844 317.556 103.005C317.782 103.136 317.919 103.286 317.969 103.456C318.023 103.624 317.984 103.801 317.854 103.986C317.728 104.17 317.512 104.35 317.206 104.527ZM320.244 102.773C320.053 102.883 319.844 102.962 319.618 103.008C319.392 103.05 319.17 103.059 318.952 103.034C318.734 103.01 318.545 102.952 318.384 102.859C318.181 102.742 318.072 102.619 318.057 102.491C318.045 102.361 318.135 102.211 318.326 102.043C318.518 101.871 318.824 101.663 319.245 101.42L319.429 101.314L319.251 101.212C319.013 101.075 318.793 101.005 318.591 101.003C318.388 100.996 318.179 101.055 317.965 101.178C317.796 101.276 317.659 101.384 317.551 101.503C317.44 101.62 317.356 101.757 317.299 101.914L316.799 101.811C316.841 101.668 316.935 101.519 317.081 101.364C317.23 101.207 317.4 101.073 317.592 100.963C317.951 100.755 318.305 100.653 318.654 100.655C319.006 100.655 319.367 100.762 319.739 100.976L321.495 101.99L321.059 102.242L320.577 101.964C320.669 102.101 320.686 102.241 320.629 102.385C320.575 102.526 320.447 102.655 320.244 102.773ZM319.968 102.527C320.198 102.395 320.307 102.241 320.296 102.067C320.28 101.89 320.15 101.731 319.905 101.589L319.733 101.49L319.555 101.593C319.245 101.772 319.015 101.922 318.866 102.043C318.717 102.161 318.642 102.261 318.642 102.345C318.642 102.425 318.703 102.5 318.826 102.57C318.983 102.661 319.165 102.704 319.371 102.7C319.582 102.693 319.781 102.636 319.968 102.527Z" fill="#6D6D6D"/>
<path d="M342.322 90.0266C342.004 90.21 341.677 90.3525 341.34 90.4542C340.999 90.5536 340.657 90.6121 340.312 90.6298L340.1 90.315C340.445 90.2884 340.76 90.2343 341.047 90.1526C341.334 90.0708 341.619 89.9482 341.903 89.7847C342.247 89.5858 342.439 89.4024 342.477 89.2345C342.515 89.0622 342.429 88.9152 342.218 88.7937C342.05 88.6965 341.855 88.6545 341.633 88.6678C341.415 88.6788 341.135 88.7495 340.795 88.8799L340.077 89.155C339.641 89.3185 339.247 89.4024 338.894 89.4068C338.542 89.4068 338.221 89.3229 337.93 89.155C337.689 89.0158 337.54 88.8589 337.482 88.6843C337.429 88.5076 337.463 88.3264 337.585 88.1408C337.708 87.9552 337.915 87.7784 338.206 87.6105C338.477 87.4536 338.774 87.3332 339.095 87.2493C339.413 87.1631 339.733 87.12 340.054 87.12L340.255 87.4282C339.926 87.4371 339.631 87.4768 339.371 87.5475C339.107 87.616 338.856 87.7188 338.619 87.8558C338.317 88.0303 338.146 88.2104 338.108 88.396C338.066 88.5794 338.16 88.7374 338.389 88.8699C338.573 88.976 338.774 89.0279 338.992 89.0257C339.214 89.0213 339.478 88.9594 339.784 88.8401L340.508 88.5683C340.975 88.3916 341.382 88.2977 341.73 88.2866C342.079 88.2712 342.393 88.3441 342.672 88.5054C342.898 88.6357 343.036 88.786 343.085 88.9561C343.139 89.124 343.101 89.3008 342.971 89.4864C342.844 89.6698 342.628 89.8499 342.322 90.0266ZM345.469 88.2096C344.799 88.5963 344.095 88.5764 343.357 88.15L341.623 87.149L342.088 86.8806L343.816 87.8782C344.065 88.0218 344.298 88.0991 344.516 88.1102C344.738 88.119 344.958 88.0605 345.176 87.9345C345.414 87.7975 345.529 87.6407 345.521 87.4639C345.509 87.2849 345.372 87.1192 345.108 86.9668L343.523 86.052L343.988 85.7836L346.778 87.3943L346.325 87.6561L345.854 87.3844C345.934 87.5324 345.94 87.6793 345.871 87.8252C345.802 87.9666 345.668 88.0947 345.469 88.2096Z" fill="#6D6D6D"/>
<path opacity="0.07" d="M186.734 155.773C177.093 161.339 173.448 168.095 164.378 173.331L169.347 176.199L332.248 82.1561L246.79 33.2417C232.837 41.2967 262.533 56.7584 251.984 62.8484C238.669 70.5352 248.397 83.9716 236.402 90.8965C222.801 98.7482 243.625 117.184 233.16 123.225C222.323 129.481 215.403 130.466 205.239 136.334C192.881 143.468 197.816 149.375 186.734 155.773Z" fill="url(#paint0_linear_820_12449)"/>
<path d="M162.888 172.47C171.957 167.234 175.735 160.555 185.376 154.989C196.458 148.591 191.772 142.829 204.131 135.694C214.295 129.826 221.129 128.792 231.966 122.535C242.431 116.494 224.359 98.2283 237.96 90.3766C249.955 83.4517 237.63 71.5736 250.945 63.8868C261.494 57.7968 233.189 41.8163 247.142 33.7613" stroke="#7F7DAE" stroke-width="2.48587" stroke-linecap="round"/>
<path d="M55.0786 128.856C54.3972 129.249 53.6223 129.542 52.7539 129.733C51.8806 129.921 50.9785 130.01 50.0477 129.999C49.1168 129.982 48.2052 129.866 47.3127 129.65C46.4251 129.431 45.6214 129.114 44.9017 128.698C44.1819 128.283 43.6325 127.819 43.2535 127.306C42.8792 126.791 42.6801 126.266 42.6561 125.731C42.6321 125.191 42.7857 124.671 43.1167 124.169C43.443 123.665 43.9468 123.216 44.6282 122.823C45.4438 122.352 46.3843 122.028 47.4495 121.851C48.5147 121.673 49.5871 121.636 50.6667 121.738L50.2564 122.532C49.4263 122.463 48.5986 122.506 47.7734 122.661C46.9481 122.81 46.2355 123.058 45.6358 123.405C45.084 123.723 44.6809 124.086 44.4266 124.493C44.1723 124.895 44.0596 125.312 44.0884 125.744C44.1171 126.176 44.2851 126.597 44.5922 127.007C44.8993 127.417 45.3383 127.787 45.9093 128.116C46.4898 128.452 47.1352 128.708 47.8453 128.885C48.5603 129.06 49.292 129.155 50.0405 129.172C50.7938 129.186 51.5183 129.119 52.2141 128.972C52.9098 128.82 53.5288 128.587 54.071 128.274C54.6947 127.914 55.1314 127.499 55.3809 127.028C55.6304 126.551 55.7 126.079 55.5896 125.611L56.9643 125.374C57.1418 125.997 57.077 126.616 56.7699 127.231C56.4581 127.844 55.8943 128.385 55.0786 128.856ZM60.3347 125.606L49.5388 119.373L50.5464 118.791L61.3423 125.024L60.3347 125.606ZM55.8786 119.868L56.8862 119.286L64.0835 123.441L63.0759 124.023L55.8786 119.868ZM55.1301 118.846C54.967 118.94 54.775 118.99 54.5543 118.996C54.3336 118.996 54.1417 118.948 53.9785 118.854C53.8154 118.76 53.7362 118.651 53.741 118.526C53.7458 118.396 53.8298 118.284 53.9929 118.189C54.1513 118.098 54.3408 118.052 54.5615 118.052C54.7822 118.047 54.9742 118.091 55.1373 118.185C55.3004 118.28 55.382 118.39 55.382 118.518C55.3772 118.642 55.2932 118.752 55.1301 118.846ZM69.0791 118.472L70.4681 118.235C70.5977 118.686 70.5473 119.136 70.317 119.585C70.0915 120.031 69.686 120.423 69.1007 120.761C68.4385 121.143 67.6636 121.394 66.7759 121.513C65.8931 121.629 65.003 121.617 64.1058 121.476C63.2085 121.329 62.412 121.055 61.7163 120.653C61.1885 120.348 60.7902 120.01 60.5215 119.639C60.248 119.265 60.1017 118.884 60.0825 118.497C60.0633 118.103 60.1737 117.724 60.4136 117.358C60.6535 116.992 61.0205 116.667 61.5147 116.382C62.1001 116.044 62.7791 115.81 63.5516 115.679C64.3289 115.547 65.111 115.519 65.8979 115.596L65.4804 116.394C64.9143 116.355 64.3721 116.389 63.8539 116.494C63.3309 116.596 62.887 116.753 62.5224 116.963C62.0377 117.243 61.7283 117.571 61.5939 117.948C61.4548 118.322 61.4812 118.697 61.6731 119.074C61.8698 119.448 62.2201 119.78 62.7239 120.071C63.2277 120.362 63.8059 120.563 64.4584 120.674C65.1158 120.782 65.7683 120.796 66.4161 120.715C67.059 120.632 67.618 120.454 68.093 120.179C68.4865 119.952 68.7648 119.686 68.9279 119.382C69.0911 119.077 69.1414 118.774 69.0791 118.472ZM78.6072 115.057L77.4485 115.726L71.957 114.882L72.2377 116.706L73.9938 117.72L72.9862 118.302L62.1903 112.069L63.1979 111.488L70.6687 115.801L70.0425 111.691L71.3596 110.931L71.8202 114.014L78.6072 115.057ZM82.2068 113.137C81.8037 113.358 81.3479 113.538 80.8393 113.677C80.3307 113.815 79.8221 113.898 79.3135 113.926C78.8049 113.954 78.3442 113.918 77.9316 113.818L78.4282 113.099C78.6921 113.163 79.0064 113.181 79.3711 113.153C79.7357 113.12 80.1004 113.054 80.465 112.954C80.8249 112.851 81.1368 112.724 81.4007 112.572C81.6934 112.403 81.9189 112.217 82.0772 112.015C82.2356 111.813 82.3051 111.615 82.2859 111.421C82.2668 111.221 82.1348 111.051 81.8901 110.91C81.6262 110.757 81.3335 110.688 81.012 110.702C80.6858 110.713 80.3475 110.77 79.9972 110.872C79.6421 110.972 79.2847 111.079 78.9248 111.192C78.2771 111.405 77.6749 111.576 77.1183 111.703C76.5617 111.831 76.0435 111.883 75.5637 111.861C75.0839 111.833 74.6376 111.7 74.225 111.462C73.7884 111.21 73.5341 110.922 73.4621 110.598C73.3901 110.268 73.4669 109.939 73.6924 109.609C73.9179 109.274 74.2586 108.975 74.7144 108.712C75.2998 108.374 75.9595 108.14 76.6937 108.009C77.4326 107.876 78.1211 107.87 78.7593 107.989L78.4282 108.737C78.1451 108.673 77.838 108.653 77.507 108.678C77.1759 108.703 76.8496 108.761 76.5281 108.853C76.2115 108.942 75.9284 109.055 75.6789 109.194C75.367 109.368 75.1271 109.559 74.9591 109.767C74.7864 109.972 74.7096 110.174 74.7288 110.374C74.7528 110.57 74.8968 110.745 75.1607 110.897C75.4245 111.05 75.7052 111.12 76.0027 111.109C76.2954 111.095 76.6193 111.036 76.9744 110.93C77.3294 110.82 77.7325 110.698 78.1835 110.565C78.7593 110.393 79.3279 110.248 79.8893 110.128C80.4506 110.009 80.9808 109.958 81.4799 109.975C81.9789 109.991 82.4275 110.117 82.8257 110.353C83.2576 110.602 83.5047 110.894 83.5671 111.23C83.6294 111.565 83.5407 111.901 83.3008 112.239C83.0561 112.574 82.6914 112.874 82.2068 113.137Z" fill="#9A9A9A"/>
<path d="M85.8615 145.098C84.7783 145.723 83.5481 146.147 82.1711 146.37C80.794 146.593 79.4253 146.618 78.065 146.443C76.7047 146.259 75.5124 145.871 74.488 145.28C73.6819 144.814 73.1067 144.274 72.7624 143.658C72.4182 143.033 72.3132 142.4 72.4476 141.76C71.5155 141.785 70.5919 141.712 69.6766 141.542C68.7614 141.363 67.9553 141.072 67.2583 140.67C66.3095 140.122 65.6923 139.48 65.4068 138.743C65.1213 138.006 65.1591 137.267 65.5202 136.525C65.8896 135.779 66.574 135.117 67.5732 134.54C68.5808 133.958 69.727 133.563 71.0117 133.355C72.2964 133.146 73.5769 133.125 74.8532 133.289C76.1296 133.454 77.2421 133.811 78.191 134.358C78.8879 134.761 79.3917 135.226 79.7024 135.754C80.0131 136.273 80.139 136.806 80.0803 137.354C81.2054 137.267 82.3054 137.325 83.3802 137.529C84.455 137.722 85.3954 138.052 86.2015 138.517C87.2176 139.104 87.8809 139.792 88.1916 140.582C88.5023 141.363 88.4645 142.155 88.0782 142.96C87.6836 143.76 86.9447 144.473 85.8615 145.098ZM82.7882 143.324C83.2752 143.043 83.6069 142.725 83.7833 142.371C83.9512 142.012 83.968 141.659 83.8336 141.31C83.6993 140.961 83.4054 140.655 82.952 140.393C82.4985 140.132 81.9695 139.962 81.365 139.884C80.7604 139.807 80.1516 139.819 79.5387 139.921C78.9173 140.018 78.3631 140.207 77.8761 140.488C77.3975 140.764 77.0742 141.082 76.9063 141.44C76.7299 141.794 76.7047 142.148 76.8307 142.502C76.965 142.851 77.2589 143.156 77.7124 143.418C78.1658 143.68 78.6948 143.85 79.2994 143.927C79.9123 144 80.5295 143.988 81.1509 143.891C81.7638 143.789 82.3096 143.6 82.7882 143.324ZM74.8029 138.714C75.2143 138.476 75.4956 138.207 75.6467 137.907C75.7895 137.601 75.8021 137.303 75.6845 137.012C75.5754 136.717 75.3277 136.457 74.9414 136.234C74.5552 136.011 74.1059 135.868 73.5937 135.805C73.0899 135.737 72.5777 135.747 72.0571 135.834C71.5281 135.917 71.0579 136.077 70.6464 136.314C70.2434 136.547 69.9705 136.816 69.8278 137.121C69.6766 137.422 69.6556 137.72 69.7648 138.016C69.8739 138.311 70.1216 138.571 70.5079 138.794C70.8941 139.017 71.3434 139.16 71.8556 139.223C72.3678 139.286 72.8884 139.276 73.4174 139.194C73.938 139.106 74.3998 138.946 74.8029 138.714ZM106.975 132.531L102.705 130.066L95.1985 134.4L92.1126 132.618L88.6238 122.766L92.4149 120.577L102.705 126.518L104.191 125.66L107.265 127.434L105.778 128.292L110.048 130.757L106.975 132.531ZM95.6771 130.56L99.632 128.292L93.5233 124.78L95.6771 130.56ZM114.434 128.225L108.275 114.969L98.9922 120.328L95.9189 118.554L108.766 111.138L111.839 112.912L117.973 126.182L114.434 128.225ZM134.052 117.277C132.927 117.927 131.613 118.361 130.11 118.579C128.607 118.797 127.104 118.797 125.601 118.579C124.098 118.361 122.775 117.922 121.633 117.263C121.046 116.923 120.567 116.57 120.198 116.201C119.837 115.828 119.547 115.409 119.329 114.943L115.689 107.141L119.253 105.083L121.671 110.304C122.301 109.882 123.015 109.538 123.812 109.272C124.61 109.005 125.458 108.821 126.357 108.719C127.255 108.617 128.162 108.598 129.077 108.661C129.992 108.724 130.874 108.874 131.722 109.112C132.579 109.344 133.364 109.667 134.078 110.079C134.934 110.573 135.572 111.131 135.992 111.751C136.42 112.367 136.639 113.007 136.647 113.671C136.647 114.33 136.433 114.972 136.005 115.598C135.568 116.218 134.917 116.778 134.052 117.277ZM130.979 115.503C131.592 115.149 131.991 114.749 132.176 114.303C132.352 113.853 132.335 113.411 132.125 112.98C131.924 112.544 131.554 112.17 131.017 111.86C130.438 111.526 129.77 111.3 129.014 111.184C128.259 111.068 127.499 111.065 126.735 111.177C125.979 111.283 125.303 111.509 124.707 111.853C124.094 112.207 123.699 112.609 123.523 113.06C123.346 113.501 123.363 113.937 123.573 114.369C123.783 114.8 124.165 115.176 124.719 115.496C125.315 115.84 125.996 116.063 126.76 116.165C127.524 116.267 128.28 116.262 129.027 116.15C129.783 116.034 130.433 115.818 130.979 115.503Z" fill="black"/>
<path d="M134.479 101.03L132.158 99.6904L129.837 101.03L129.081 100.594L131.402 99.2541L129.081 97.9141L129.837 97.4779L132.158 98.8178L134.479 97.4779L135.235 97.9141L132.913 99.2541L135.235 100.594L134.479 101.03ZM139.77 98.5992L132.968 94.6728L132.159 95.1402L131.619 94.5793L132.968 93.8002L140.525 98.163L139.77 98.5992ZM144.397 96.0897C143.922 96.364 143.37 96.5478 142.74 96.6413C142.11 96.7306 141.479 96.7296 140.846 96.6382C140.216 96.5447 139.662 96.3598 139.183 96.0835C138.906 95.9235 138.703 95.7688 138.573 95.6192C138.44 95.4675 138.316 95.2857 138.201 95.0738L136.624 91.6896L137.504 91.1817L138.654 93.6591C138.848 93.4056 139.113 93.1906 139.447 93.014C139.779 92.8353 140.155 92.6993 140.576 92.6058C140.997 92.5123 141.434 92.4655 141.887 92.4655C142.337 92.4635 142.778 92.5123 143.21 92.612C143.645 92.7097 144.043 92.8623 144.403 93.0701C144.763 93.2778 145.033 93.5126 145.212 93.7744C145.389 94.0341 145.477 94.3031 145.477 94.5815C145.477 94.8557 145.387 95.1237 145.207 95.3855C145.027 95.6472 144.757 95.882 144.397 96.0897ZM143.642 95.6535C144.002 95.4457 144.235 95.211 144.343 94.9492C144.448 94.6853 144.437 94.4257 144.311 94.1701C144.189 93.9125 143.966 93.6902 143.642 93.5033C143.303 93.308 142.913 93.1781 142.47 93.1137C142.024 93.0472 141.578 93.0472 141.132 93.1137C140.682 93.1781 140.286 93.309 139.944 93.5064C139.591 93.71 139.361 93.9426 139.253 94.2044C139.145 94.4662 139.151 94.7248 139.269 94.9803C139.384 95.2338 139.606 95.4551 139.933 95.6441C140.286 95.8477 140.687 95.9817 141.137 96.0461C141.59 96.1084 142.04 96.1063 142.487 96.0399C142.929 95.9713 143.314 95.8425 143.642 95.6535ZM148.031 93.8299L144.836 86.9493L145.71 86.4444L148.906 93.3251L148.031 93.8299ZM144.312 90.6607C144.074 90.7978 143.801 90.8892 143.491 90.9349C143.182 90.9806 142.871 90.9817 142.558 90.9381C142.245 90.8903 141.969 90.7978 141.732 90.6607C141.487 90.5194 141.325 90.3595 141.246 90.1808C141.17 90.0001 141.172 89.8204 141.251 89.6417C141.334 89.461 141.492 89.3031 141.726 89.168C141.964 89.0309 142.239 88.9405 142.552 88.8969C142.862 88.8512 143.171 88.8512 143.481 88.8969C143.794 88.9405 144.071 89.032 144.312 89.1711C144.553 89.3103 144.711 89.4703 144.787 89.651C144.866 89.8297 144.864 90.0094 144.782 90.1902C144.702 90.3688 144.546 90.5257 144.312 90.6607ZM143.734 90.3273C143.936 90.2109 144.037 90.0738 144.037 89.9159C144.033 89.756 143.932 89.6188 143.734 89.5046C143.533 89.3882 143.295 89.3301 143.022 89.3301C142.745 89.328 142.505 89.3851 142.304 89.5015C142.106 89.6157 142.007 89.7539 142.007 89.9159C142.007 90.0738 142.108 90.2109 142.309 90.3273C142.507 90.4415 142.745 90.4997 143.022 90.5018C143.299 90.4997 143.536 90.4415 143.734 90.3273ZM152.031 91.1032C151.794 91.2403 151.516 91.3317 151.2 91.3774C150.883 91.419 150.568 91.418 150.255 91.3743C149.942 91.3265 149.67 91.2362 149.44 91.1032C149.199 90.964 149.041 90.8041 148.965 90.6233C148.886 90.4405 148.886 90.2598 148.965 90.0811C149.048 89.9003 149.206 89.7425 149.44 89.6074C149.681 89.4682 149.958 89.3768 150.271 89.3332C150.584 89.2896 150.897 89.2916 151.211 89.3394C151.52 89.3851 151.792 89.4755 152.026 89.6105C152.263 89.7477 152.423 89.9066 152.506 90.0873C152.585 90.266 152.585 90.4467 152.506 90.6295C152.427 90.8082 152.269 90.9661 152.031 91.1032ZM151.453 90.7698C151.648 90.6576 151.745 90.5205 151.745 90.3584C151.745 90.1964 151.646 90.0582 151.448 89.944C151.25 89.8297 151.011 89.7726 150.73 89.7726C150.449 89.7726 150.212 89.8287 150.018 89.9409C149.82 90.0551 149.719 90.1943 149.715 90.3584C149.715 90.5205 149.814 90.6586 150.012 90.7729C150.21 90.8872 150.449 90.9443 150.73 90.9443C151.014 90.9422 151.256 90.884 151.453 90.7698Z" fill="#02E341"/>
</g>
<defs>
<filter id="filter0_f_820_12449" x="-9.79704" y="-5.19353" width="394.768" height="241.073" filterUnits="userSpaceOnUse" color-interpolation-filters="sRGB">
<feFlood flood-opacity="0" result="BackgroundImageFix"/>
<feBlend mode="normal" in="SourceGraphic" in2="BackgroundImageFix" result="shape"/>
<feGaussianBlur stdDeviation="7.7911" result="effect1_foregroundBlur_820_12449"/>
</filter>
<linearGradient id="paint0_linear_820_12449" x1="119.112" y1="147.2" x2="144.225" y2="190.702" gradientUnits="userSpaceOnUse">
<stop stop-color="#7F7DAE"/>
<stop offset="1" stop-color="#7F7DAE" stop-opacity="0"/>
</linearGradient>
<clipPath id="clip0_820_12449">
<rect width="246.817" height="173.027" rx="20.7763" transform="matrix(0.866044 -0.499967 0.866044 0.499967 5.78516 123.4)" fill="white"/>
</clipPath>
</defs>
</svg>
