<svg id="Слой_1" data-name="Слой 1" xmlns="http://www.w3.org/2000/svg" xmlns:xlink="http://www.w3.org/1999/xlink" viewBox="0 0 37 36"><defs><style>.cls-1{fill:none;}.cls-2{clip-path:url(#clip-path);}.cls-3{fill:#b455ff;}</style><clipPath id="clip-path"><rect class="cls-1" x="0.75" width="36" height="36"/></clipPath></defs><title>icon-vk</title><g class="cls-2"><path class="cls-3" d="M36.75,13.5a27.46,27.46,0,0,0-.5-5.7A10.45,10.45,0,0,0,33,2.5,10.84,10.84,0,0,0,27,.2c-2.7-.1-5.3-.2-8.2-.2s-5.5.1-8.1.2a9.67,9.67,0,0,0-6,2.3,9,9,0,0,0-3.3,5.3,27.6,27.6,0,0,0-.6,5.7v9.1a28.07,28.07,0,0,0,.5,5.7,10.05,10.05,0,0,0,3.3,5.3,10.84,10.84,0,0,0,6,2.3c2.6.2,5.2.2,8.1.2H19c2.7,0,5.3-.1,7.8-.2a9.67,9.67,0,0,0,6-2.3,10.05,10.05,0,0,0,3.3-5.3,22,22,0,0,0,.5-5.7V18C36.75,16.4,36.75,14.8,36.75,13.5Zm-2.1,9a18.37,18.37,0,0,1-.5,5.2,7.53,7.53,0,0,1-2.5,4.1,8.08,8.08,0,0,1-4.8,1.8c-2.5.2-5.2.2-8,.2h-.4c-2.7,0-5.2-.1-7.6-.2a7.85,7.85,0,0,1-4.8-1.8,7.53,7.53,0,0,1-2.5-4.1A22.92,22.92,0,0,1,3,22.5v-9a18.37,18.37,0,0,1,.5-5.2,7.53,7.53,0,0,1,2.5-4.1,8.08,8.08,0,0,1,4.8-1.8c2.5-.2,5.2-.2,8-.2s5.5.1,8,.2a7.85,7.85,0,0,1,4.8,1.8,7.53,7.53,0,0,1,2.5,4.1,22.92,22.92,0,0,1,.5,5.2v9Z"/></g><path class="cls-3" d="M26,13.17v0h0Z"/><path class="cls-3" d="M30.63,24.57c-1-1.8-3.58-4-4.65-4.91a.69.69,0,0,1-.06-1,22,22,0,0,0,4.22-6.21,1,1,0,0,0-1-1.38H27.07a1.29,1.29,0,0,0-1.29.64,17,17,0,0,1-4.15,5.84.88.88,0,0,1-1.45-.66V12.28A1.16,1.16,0,0,0,19,11.12l-3.82,0a.58.58,0,0,0-.47.93l.63.91A1.8,1.8,0,0,1,15.72,14v4.08a.8.8,0,0,1-1.37.56c-1.73-1.68-3.23-5.12-3.77-6.76a1.16,1.16,0,0,0-1.11-.8H7.41a1.16,1.16,0,0,0-1.13,1.47C8.17,19.15,12,25.44,18.91,26.12A1.16,1.16,0,0,0,20.18,25V22.82a1.15,1.15,0,0,1,1.1-1.16h.07c1.82,0,3.86,2.65,4.57,3.89a1.15,1.15,0,0,0,1,.57h2.77A1.06,1.06,0,0,0,30.63,24.57Z"/></svg>