<svg width="37" height="36" viewBox="0 0 37 36" fill="none" xmlns="http://www.w3.org/2000/svg">
<g clip-path="url(#clip0_305_112)">
<path d="M26.7516 11.2C26.0516 11.6 25.3516 11.9 24.5516 12.1C23.8516 11.4 22.9516 11 22.0516 11C20.1516 11 18.5516 12.6 18.5516 14.5C18.5516 14.8 18.5516 15 18.6516 15.3C15.8516 15.2 13.2516 13.8 11.4516 11.6C11.1516 12.1 10.9516 12.7 10.9516 13.4C10.9516 14.6 11.5516 15.7 12.5516 16.3C11.9516 16.3 11.4516 16.1 10.9516 15.9C10.9516 17.6 12.1516 19.1 13.7516 19.4C13.2516 19.5 12.7516 19.6 12.1516 19.5C12.6516 20.9 13.9516 21.9 15.4516 22C14.2516 23 12.7516 23.5 11.1516 23.5C10.8516 23.5 10.5516 23.5 10.3516 23.4C11.9516 24.4 13.8516 25 15.6516 25C21.0516 25.1 25.4516 20.7 25.5516 15.1C25.5516 15 25.5516 15 25.5516 14.9C25.5516 14.7 25.5516 14.6 25.5516 14.4C26.2516 13.9 26.7516 13.3 27.2516 12.6C26.6516 12.9 25.9516 13.1 25.2516 13.2C25.9516 12.8 26.5516 12.1 26.7516 11.2Z" fill="#b455ff"/>
<path d="M36.75 13.4995C36.75 11.5995 36.65 9.69951 36.25 7.79951C35.65 5.59951 34.55 3.89951 32.95 2.49951C31.25 1.09951 29.15 0.399512 26.95 0.199512C24.25 0.0995117 21.65 -0.000488281 18.75 -0.000488281C15.85 -0.000488281 13.25 0.0995117 10.65 0.199512C8.35 0.299512 6.25 1.09951 4.65 2.49951C2.95 3.79951 1.85 5.59951 1.35 7.79951C0.85 9.69951 0.85 11.5995 0.75 13.4995C0.75 14.7995 0.75 16.3995 0.75 18.0995C0.75 19.6995 0.75 21.2995 0.75 22.5995C0.75 24.3995 0.85 26.3995 1.25 28.2995C1.85 30.4995 2.95 32.2995 4.55 33.5995C6.25 34.9995 8.35 35.6995 10.55 35.8995C13.15 36.0995 15.75 36.0995 18.65 36.0995H19.05C21.75 36.0995 24.35 35.9995 26.85 35.8995C29.15 35.7995 31.25 34.9995 32.85 33.5995C34.45 32.2995 35.55 30.4995 36.15 28.2995C36.65 26.3995 36.65 24.4995 36.65 22.5995C36.65 21.1995 36.65 19.6995 36.65 17.9995C36.75 16.3995 36.75 14.7995 36.75 13.4995ZM34.65 22.4995C34.65 24.1995 34.65 25.9995 34.15 27.6995C33.75 29.3995 32.85 30.7995 31.65 31.7995C30.35 32.8995 28.65 33.4995 26.85 33.5995C24.35 33.7995 21.65 33.7995 18.85 33.7995C18.75 33.7995 18.65 33.7995 18.45 33.7995C15.75 33.7995 13.25 33.6995 10.85 33.5995C8.95 33.4995 7.35 32.8995 6.05 31.7995C4.85 30.7995 3.95 29.3995 3.55 27.6995C3.15 25.9995 3.05 24.1995 3.05 22.4995C3.05 21.1995 3.05 19.5995 3.05 17.9995C3.05 16.3995 3.05 14.7995 3.05 13.4995C3.05 11.7995 3.05 9.99951 3.55 8.29951C3.95 6.59951 4.85 5.19951 6.05 4.19951C7.35 3.09951 9.05 2.49951 10.85 2.39951C13.35 2.19951 16.05 2.19951 18.85 2.19951C21.75 2.19951 24.35 2.29951 26.85 2.39951C28.75 2.49951 30.35 3.09951 31.65 4.19951C32.85 5.19951 33.75 6.59951 34.15 8.29951C34.55 9.99951 34.65 11.7995 34.65 13.4995C34.65 14.7995 34.65 16.3995 34.65 17.9995C34.65 19.5995 34.65 21.1995 34.65 22.4995Z" fill="#b455ff"/>
</g>
<defs>
<clipPath id="clip0_305_112">
<rect width="36" height="36" fill="white" transform="translate(0.75)"/>
</clipPath>
</defs>
</svg>
