<svg width="14" height="8" viewBox="0 0 14 8" fill="none" xmlns="http://www.w3.org/2000/svg">
<path d="M14 1.13282C14.0007 1.2585 13.9754 1.38308 13.9254 1.49943C13.8755 1.61578 13.8018 1.72161 13.7087 1.81084L7.68312 7.54054C7.49496 7.71841 7.24043 7.81824 6.97511 7.81824C6.7098 7.81824 6.45527 7.71841 6.2671 7.54054L0.241484 1.81084C0.076958 1.62815 -0.00901362 1.39316 0.000749046 1.15282C0.0105117 0.912486 0.115289 0.684501 0.294144 0.51443C0.472999 0.344358 0.712758 0.244726 0.965509 0.235443C1.21826 0.226159 1.46539 0.307909 1.6575 0.464355L6.97009 5.51605L12.2827 0.464356C12.4225 0.330259 12.6011 0.238612 12.7957 0.201001C12.9904 0.16339 13.1924 0.181505 13.3762 0.253055C13.56 0.324606 13.7174 0.446377 13.8284 0.602974C13.9394 0.75957 13.9991 0.943957 14 1.13282Z" fill="#667085"/>
</svg>
