<svg width="37" height="36" viewBox="0 0 37 36" fill="none" xmlns="http://www.w3.org/2000/svg">
<g clip-path="url(#clip0_305_116)">
<path d="M16.55 13.3V15.2H14.75V18H16.55V26.5H20.05V18H22.45L22.75 15.2H20.05V13.5C20.05 12.7 20.15 12.3 21.25 12.3H22.75V9.5H20.35C17.55 9.5 16.55 10.9 16.55 13.3Z" fill="#b455ff"/>
<path d="M36.75 13.4995C36.75 11.5995 36.65 9.69951 36.25 7.79951C35.65 5.59951 34.55 3.89951 32.95 2.49951C31.25 1.09951 29.15 0.399512 26.95 0.199512C24.25 0.0995117 21.65 -0.000488281 18.75 -0.000488281C15.85 -0.000488281 13.25 0.0995117 10.65 0.199512C8.35 0.299512 6.25 1.09951 4.65 2.49951C2.95 3.79951 1.85 5.59951 1.35 7.79951C0.85 9.69951 0.85 11.5995 0.75 13.4995C0.75 14.7995 0.75 16.3995 0.75 18.0995C0.75 19.6995 0.75 21.2995 0.75 22.5995C0.75 24.3995 0.85 26.3995 1.25 28.2995C1.85 30.4995 2.95 32.2995 4.55 33.5995C6.25 34.9995 8.35 35.6995 10.55 35.8995C13.15 36.0995 15.75 36.0995 18.65 36.0995H19.05C21.75 36.0995 24.35 35.9995 26.85 35.8995C29.15 35.7995 31.25 34.9995 32.85 33.5995C34.45 32.2995 35.55 30.4995 36.15 28.2995C36.65 26.3995 36.65 24.4995 36.65 22.5995C36.65 21.1995 36.65 19.6995 36.65 17.9995C36.75 16.3995 36.75 14.7995 36.75 13.4995ZM34.65 22.4995C34.65 24.1995 34.65 25.9995 34.15 27.6995C33.75 29.3995 32.85 30.7995 31.65 31.7995C30.35 32.8995 28.65 33.4995 26.85 33.5995C24.35 33.7995 21.65 33.7995 18.85 33.7995C18.75 33.7995 18.65 33.7995 18.45 33.7995C15.75 33.7995 13.25 33.6995 10.85 33.5995C8.95 33.4995 7.35 32.8995 6.05 31.7995C4.85 30.7995 3.95 29.3995 3.55 27.6995C3.15 25.9995 3.05 24.1995 3.05 22.4995C3.05 21.1995 3.05 19.5995 3.05 17.9995C3.05 16.3995 3.05 14.7995 3.05 13.4995C3.05 11.7995 3.05 9.99951 3.55 8.29951C3.95 6.59951 4.85 5.19951 6.05 4.19951C7.35 3.09951 9.05 2.49951 10.85 2.39951C13.35 2.19951 16.05 2.19951 18.85 2.19951C21.75 2.19951 24.35 2.29951 26.85 2.39951C28.75 2.49951 30.35 3.09951 31.65 4.19951C32.85 5.19951 33.75 6.59951 34.15 8.29951C34.55 9.99951 34.65 11.7995 34.65 13.4995C34.65 14.7995 34.65 16.3995 34.65 17.9995C34.65 19.5995 34.65 21.1995 34.65 22.4995Z" fill="#b455ff"/>
</g>
<defs>
<clipPath id="clip0_305_116">
<rect width="35.9999" height="36" fill="white" transform="translate(0.75)"/>
</clipPath>
</defs>
</svg>
