<svg width="37" height="36" viewBox="0 0 37 36" fill="none" xmlns="http://www.w3.org/2000/svg">
<g clip-path="url(#clip0_305_102)">
<path d="M18.65 9.4C13.95 9.4 10.05 13.3 10.05 18C10.05 22.7 13.95 26.6 18.65 26.6C23.35 26.6 27.25 22.7 27.25 18C27.25 13.3 23.45 9.4 18.65 9.4ZM18.65 24.5C15.05 24.5 12.15 21.6 12.15 18C12.15 14.4 15.05 11.5 18.65 11.5C22.25 11.5 25.15 14.4 25.15 18C25.15 21.6 22.25 24.5 18.65 24.5ZM28.65 6.5C27.65 6.5 26.85 7.3 26.85 8.3C26.85 9.3 27.65 10.1 28.65 10.1C29.65 10.1 30.45 9.3 30.45 8.3C30.45 7.3 29.65 6.5 28.65 6.5ZM36.75 13.5C36.75 11.6 36.65 9.7 36.25 7.8C35.65 5.6 34.55 3.9 32.95 2.5C31.25 1.1 29.15 0.4 26.95 0.2C24.25 0.1 21.65 0 18.75 0C15.85 0 13.25 0.1 10.65 0.2C8.35 0.3 6.25 1.1 4.65 2.5C2.95 3.8 1.85 5.6 1.35 7.8C0.85 9.7 0.85 11.6 0.75 13.5C0.75 14.8 0.75 16.4 0.75 18.1C0.75 19.7 0.75 21.3 0.75 22.6C0.75 24.4 0.85 26.4 1.25 28.3C1.85 30.5 2.95 32.3 4.55 33.6C6.25 35 8.35 35.7 10.55 35.9C13.15 36.1 15.75 36.1 18.65 36.1H19.05C21.75 36.1 24.35 36 26.85 35.9C29.15 35.8 31.25 35 32.85 33.6C34.45 32.3 35.55 30.5 36.15 28.3C36.65 26.4 36.65 24.5 36.65 22.6C36.65 21.2 36.65 19.7 36.65 18C36.75 16.4 36.75 14.8 36.75 13.5ZM34.65 22.5C34.65 24.2 34.65 26 34.15 27.7C33.75 29.4 32.85 30.8 31.65 31.8C30.35 32.9 28.65 33.5 26.85 33.6C24.35 33.8 21.65 33.8 18.85 33.8C18.75 33.8 18.65 33.8 18.45 33.8C15.75 33.8 13.25 33.7 10.85 33.6C8.95 33.5 7.35 32.9 6.05 31.8C4.85 30.8 3.95 29.4 3.55 27.7C3.15 26 3.05 24.2 3.05 22.5C3.05 21.2 3.05 19.6 3.05 18C3.05 16.4 3.05 14.8 3.05 13.5C3.05 11.8 3.05 10 3.55 8.3C3.95 6.6 4.85 5.2 6.05 4.2C7.35 3.1 9.05 2.5 10.85 2.4C13.35 2.2 16.05 2.2 18.85 2.2C21.75 2.2 24.35 2.3 26.85 2.4C28.75 2.5 30.35 3.1 31.65 4.2C32.85 5.2 33.75 6.6 34.15 8.3C34.55 10 34.65 11.8 34.65 13.5C34.65 14.8 34.65 16.4 34.65 18C34.65 19.6 34.65 21.2 34.65 22.5Z" fill="#b455ff"/>
</g>
<defs>
<clipPath id="clip0_305_102">
<rect width="36" height="36" fill="white" transform="translate(0.75)"/>
</clipPath>
</defs>
</svg>
