<svg width="217" height="60" fill="none" xmlns="http://www.w3.org/2000/svg"><path d="M101.766 19.689L87.872 51.104h-1.116L72.75 19.69h4.855l9.653 21.985 9.653-21.985h4.855z" fill="#fff"/><path fill-rule="evenodd" clip-rule="evenodd" d="M112.689 9.282c-.688-.688-1.534-1.032-2.539-1.032-.967 0-1.795.353-2.483 1.06-.688.707-1.032 1.535-1.032 2.483 0 .949.344 1.777 1.032 2.483a3.372 3.372 0 002.511 1.06c.986 0 1.823-.344 2.511-1.032.688-.688 1.032-1.525 1.032-2.51 0-.987-.344-1.824-1.032-2.512zM107.862 50.1h4.632V19.689h-4.632V50.1zm38.397 0h4.52V19.689h-4.52v4.631c-3.013-3.608-6.742-5.412-11.187-5.412-4.446 0-8.212 1.572-11.3 4.715-3.088 3.143-4.631 6.92-4.631 11.327 0 4.408 1.534 8.203 4.603 11.383 3.069 3.181 6.761 4.771 11.076 4.771 4.316 0 8.129-1.822 11.439-5.468V50.1zm-3.124-6.64c-2.232 2.232-4.892 3.348-7.98 3.348-3.125 0-5.803-1.163-8.035-3.488s-3.348-5.068-3.348-8.23c0-3.162 1.097-5.906 3.292-8.23 2.195-2.326 4.883-3.488 8.063-3.488 3.181 0 5.869 1.125 8.063 3.376 2.195 2.25 3.293 5.04 3.293 8.37 0 3.33-1.116 6.11-3.348 8.342zm41.292 6.64h4.52V8.25h-4.52v16.07c-3.013-3.608-6.742-5.412-11.188-5.412-4.445 0-8.211 1.572-11.299 4.715-3.088 3.143-4.631 6.928-4.631 11.355 0 4.427 1.525 8.221 4.575 11.383 3.051 3.162 6.743 4.743 11.076 4.743 4.334 0 8.157-1.822 11.467-5.468V50.1zm-3.236-6.584c-2.306 2.194-4.929 3.292-7.868 3.292-3.125 0-5.803-1.172-8.035-3.516-2.232-2.343-3.348-5.087-3.348-8.23 0-3.143 1.088-5.878 3.264-8.203 2.177-2.325 4.892-3.487 8.147-3.487s5.952 1.125 8.091 3.376c2.139 2.25 3.209 5.059 3.209 8.425 0 3.367-1.154 6.148-3.46 8.343z" fill="#fff"/><path d="M216.469 23.26l-3.417 3.07c-2.536-2.047-4.857-3.07-6.964-3.07-1.332 0-2.45.363-3.353 1.088-.902.726-1.354 1.619-1.354 2.679 0 1.06.505 1.99 1.516 2.79.957.757 2.618 1.682 4.983 2.774l.4.183c2.58 1.172 4.568 2.465 5.965 3.878 1.397 1.414 2.095 3.144 2.095 5.19 0 2.604-1.042 4.798-3.127 6.584-2.085 1.786-4.653 2.678-7.705 2.678-4.256 0-7.802-1.562-10.639-4.687l3.353-3.236c2.321 2.343 4.685 3.515 7.093 3.515 1.633 0 3.03-.465 4.191-1.395 1.16-.93 1.74-2.018 1.74-3.264s-.526-2.288-1.579-3.125c-1.053-.837-2.859-1.813-5.416-2.93-2.558-1.115-4.492-2.352-5.803-3.71s-1.967-3.143-1.967-5.357c0-2.213.935-4.101 2.805-5.664 1.87-1.562 4.341-2.343 7.415-2.343 3.073 0 6.329 1.45 9.768 4.352z" fill="#fff"/><path d="M1.226 25.141l18.363 30.781c3.07 5.163 10.548 5.107 13.562-.083l19.703-34.103c2.372-4.102-.559-9.265-5.33-9.293l-38.82-.279c-6.725-.083-10.91 7.228-7.478 12.977z" fill="url(#paint0_linear)"/><path d="M50.593 13.141L28.351.722c-3.74-2.093-8.316.614-8.316 4.884v27.99c0 3.378 3.656 5.498 6.586 3.824l24-13.619c4.13-2.344 4.13-8.316-.028-10.66z" fill="url(#paint1_linear)"/><defs><linearGradient id="paint0_linear" x1="55.931" y1="21.315" x2="17.974" y2="-6.57" gradientUnits="userSpaceOnUse"><stop stop-color="#1018FF"/><stop offset="1" stop-color="#57E1FF"/></linearGradient><linearGradient id="paint1_linear" x1="20.029" y1="38.018" x2="53.715" y2="38.018" gradientUnits="userSpaceOnUse"><stop stop-color="#1018FF"/><stop offset="1" stop-color="#57E1FF"/></linearGradient></defs></svg>