<svg width="73" height="70" viewBox="0 0 73 70" fill="none" xmlns="http://www.w3.org/2000/svg">
<path d="M22.2236 0.128167C22.3067 0.0467274 22.4184 0.0011106 22.5348 0.0011106C22.6511 0.0011106 22.7628 0.0467274 22.8459 0.128167L28.4907 5.81741L28.5796 5.95076C28.6041 6.00684 28.6167 6.06736 28.6167 6.12855C28.6167 6.18973 28.6041 6.25026 28.5796 6.30634L28.4907 6.43968L22.8459 12.0845C22.7603 12.1487 22.6544 12.1798 22.5477 12.1723C22.441 12.1647 22.3406 12.1188 22.2649 12.0432C22.1893 11.9675 22.1434 11.8671 22.1359 11.7604C22.1283 11.6537 22.1594 11.5478 22.2236 11.4622L27.1128 6.57302L6.66709 6.57302C5.13463 6.57302 3.66494 7.18179 2.58133 8.2654C1.49771 9.34901 0.888945 10.8187 0.888945 12.3512L0.888945 19.5516C0.888945 19.6695 0.842117 19.7826 0.758763 19.8659C0.675408 19.9493 0.562354 19.9961 0.444473 19.9961C0.326591 19.9961 0.213538 19.9493 0.130184 19.8659C0.0468287 19.7826 0 19.6695 0 19.5516L0 12.3512C0 10.5829 0.702424 8.88714 1.95275 7.63682C3.20307 6.3865 4.89887 5.68407 6.66709 5.68407L27.1128 5.68407L22.2236 0.750426C22.1422 0.667341 22.0966 0.555638 22.0966 0.439296C22.0966 0.322954 22.1422 0.211251 22.2236 0.128167V0.128167Z" fill="black"/>
<rect x="33.5" y="0.5" width="39" height="69" rx="2.5" stroke="black"/>
<circle cx="53" cy="63" r="2.5" stroke="black"/>
<path fill-rule="evenodd" clip-rule="evenodd" d="M30 30H3C1.34315 30 0 31.3431 0 33V67C0 68.6569 1.34315 70 3 70H30V69H3C1.89543 69 1 68.1046 1 67V33C1 31.8954 1.89543 31 3 31H30V30Z" fill="black"/>
</svg>
